%TF.GenerationSoftware,KiCad,Pcbnew,9.0.0*%
%TF.CreationDate,2025-05-17T10:00:07-07:00*%
%TF.ProjectId,nnv2-toupee,6e6e7632-2d74-46f7-9570-65652e6b6963,rev?*%
%TF.SameCoordinates,Original*%
%TF.FileFunction,Copper,L2,Bot*%
%TF.FilePolarity,Positive*%
%FSLAX46Y46*%
G04 Gerber Fmt 4.6, Leading zero omitted, Abs format (unit mm)*
G04 Created by KiCad (PCBNEW 9.0.0) date 2025-05-17 10:00:07*
%MOMM*%
%LPD*%
G01*
G04 APERTURE LIST*
G04 Aperture macros list*
%AMRoundRect*
0 Rectangle with rounded corners*
0 $1 Rounding radius*
0 $2 $3 $4 $5 $6 $7 $8 $9 X,Y pos of 4 corners*
0 Add a 4 corners polygon primitive as box body*
4,1,4,$2,$3,$4,$5,$6,$7,$8,$9,$2,$3,0*
0 Add four circle primitives for the rounded corners*
1,1,$1+$1,$2,$3*
1,1,$1+$1,$4,$5*
1,1,$1+$1,$6,$7*
1,1,$1+$1,$8,$9*
0 Add four rect primitives between the rounded corners*
20,1,$1+$1,$2,$3,$4,$5,0*
20,1,$1+$1,$4,$5,$6,$7,0*
20,1,$1+$1,$6,$7,$8,$9,0*
20,1,$1+$1,$8,$9,$2,$3,0*%
G04 Aperture macros list end*
%TA.AperFunction,ComponentPad*%
%ADD10R,2.000000X2.000000*%
%TD*%
%TA.AperFunction,ComponentPad*%
%ADD11C,2.000000*%
%TD*%
%TA.AperFunction,SMDPad,CuDef*%
%ADD12R,0.600000X1.550000*%
%TD*%
%TA.AperFunction,SMDPad,CuDef*%
%ADD13R,1.200000X1.800000*%
%TD*%
%TA.AperFunction,SMDPad,CuDef*%
%ADD14RoundRect,0.200000X-1.050000X0.300000X-1.050000X-0.300000X1.050000X-0.300000X1.050000X0.300000X0*%
%TD*%
%TA.AperFunction,SMDPad,CuDef*%
%ADD15RoundRect,0.250000X1.500000X-0.250000X1.500000X0.250000X-1.500000X0.250000X-1.500000X-0.250000X0*%
%TD*%
%TA.AperFunction,SMDPad,CuDef*%
%ADD16RoundRect,0.250001X1.449999X-0.499999X1.449999X0.499999X-1.449999X0.499999X-1.449999X-0.499999X0*%
%TD*%
%TA.AperFunction,Conductor*%
%ADD17C,0.500000*%
%TD*%
G04 APERTURE END LIST*
D10*
%TO.P,J3,1,Pin_1*%
%TO.N,GND*%
X145000000Y-90495000D03*
D11*
%TO.P,J3,2,Pin_2*%
%TO.N,VCC*%
X145000000Y-87955000D03*
%TO.P,J3,3,Pin_3*%
%TO.N,/SCL*%
X145000000Y-85415000D03*
%TO.P,J3,4,Pin_4*%
%TO.N,/SDA*%
X145000000Y-82875000D03*
%TD*%
%TO.P,U1,1,GP0(TX)*%
%TO.N,unconnected-(U1-GP0(TX)-Pad1)*%
X206010000Y-78809991D03*
%TO.P,U1,2,GP1(RX)*%
%TO.N,unconnected-(U1-GP1(RX)-Pad2)*%
X203470000Y-78809991D03*
%TO.P,U1,3,GND*%
%TO.N,unconnected-(U1-GND-Pad3)*%
X200930000Y-78809991D03*
%TO.P,U1,4,GND*%
%TO.N,unconnected-(U1-GND-Pad4)*%
X198390000Y-78809991D03*
%TO.P,U1,5,SDA(GP2)*%
%TO.N,/SDA*%
X195850000Y-78809991D03*
%TO.P,U1,6,SCL(GP3)*%
%TO.N,/SCL*%
X193310000Y-78809991D03*
%TO.P,U1,7,GP4*%
%TO.N,unconnected-(U1-GP4-Pad7)*%
X190770000Y-78809991D03*
%TO.P,U1,8,GP5*%
%TO.N,unconnected-(U1-GP5-Pad8)*%
X188230000Y-78809991D03*
%TO.P,U1,9,GP6*%
%TO.N,unconnected-(U1-GP6-Pad9)*%
X185690000Y-78809991D03*
%TO.P,U1,10,GP7*%
%TO.N,unconnected-(U1-GP7-Pad10)*%
X183150000Y-78809991D03*
%TO.P,U1,11,GP8*%
%TO.N,unconnected-(U1-GP8-Pad11)*%
X180610000Y-78809991D03*
%TO.P,U1,12,GP9*%
%TO.N,unconnected-(U1-GP9-Pad12)*%
X178070000Y-78809991D03*
%TO.P,U1,13,GP21*%
%TO.N,unconnected-(U1-GP21-Pad13)*%
X178070010Y-94050001D03*
%TO.P,U1,14,GP23*%
%TO.N,unconnected-(U1-GP23-Pad14)*%
X180610010Y-94050001D03*
%TO.P,U1,15,GP20*%
%TO.N,unconnected-(U1-GP20-Pad15)*%
X183150010Y-94050001D03*
%TO.P,U1,16,GP22*%
%TO.N,unconnected-(U1-GP22-Pad16)*%
X185690010Y-94050001D03*
%TO.P,U1,17,GP26(A0)*%
%TO.N,unconnected-(U1-GP26(A0)-Pad17)*%
X188230010Y-94050001D03*
%TO.P,U1,18,GP27(A1)*%
%TO.N,unconnected-(U1-GP27(A1)-Pad18)*%
X190770010Y-94050001D03*
%TO.P,U1,19,GP28(A2)*%
%TO.N,unconnected-(U1-GP28(A2)-Pad19)*%
X193310010Y-94050001D03*
%TO.P,U1,20,GP29(A3)*%
%TO.N,unconnected-(U1-GP29(A3)-Pad20)*%
X195850010Y-94050001D03*
%TO.P,U1,21,3v3*%
%TO.N,VCC*%
X198390010Y-94050001D03*
%TO.P,U1,22,RST*%
%TO.N,unconnected-(U1-RST-Pad22)*%
X200930010Y-94050001D03*
%TO.P,U1,23,GND*%
%TO.N,GND*%
X203470010Y-94050001D03*
%TO.P,U1,24,5V*%
%TO.N,/RAW*%
X206010010Y-94050001D03*
%TO.P,U1,33,GP10(B-)*%
%TO.N,unconnected-(U1-GP10(B-)-Pad33)*%
X208550000Y-78809991D03*
%TO.P,U1,34,GP11(B+)*%
%TO.N,unconnected-(U1-GP11(B+)-Pad34)*%
X208550010Y-94050001D03*
%TD*%
D12*
%TO.P,J2,1,Pin_1*%
%TO.N,GND*%
X175390000Y-74300000D03*
%TO.P,J2,2,Pin_2*%
%TO.N,VCC*%
X176390000Y-74300000D03*
%TO.P,J2,3,Pin_3*%
%TO.N,/SDA*%
X177390000Y-74300000D03*
%TO.P,J2,4,Pin_4*%
%TO.N,/SCL*%
X178390000Y-74300000D03*
D13*
%TO.P,J2,MT1*%
%TO.N,N/C*%
X174090000Y-70400000D03*
%TO.P,J2,MT2*%
X179690000Y-70400000D03*
%TD*%
D14*
%TO.P,SW1,1,A*%
%TO.N,/rawswitch*%
X207850000Y-84020000D03*
%TO.P,SW1,2,B*%
%TO.N,/RAW*%
X207850000Y-86520000D03*
%TO.P,SW1,3*%
%TO.N,N/C*%
X207850000Y-89020000D03*
%TD*%
D15*
%TO.P,J1,1,Pin_1*%
%TO.N,GND*%
X207130000Y-73340000D03*
%TO.P,J1,2,Pin_2*%
%TO.N,/rawswitch*%
X207130000Y-71340000D03*
D16*
%TO.P,J1,MP*%
%TO.N,N/C*%
X201380000Y-75690000D03*
X201380000Y-68990000D03*
%TD*%
D17*
%TO.N,/RAW*%
X205580000Y-86520000D02*
X207850000Y-86520000D01*
X205690010Y-94050001D02*
X205690010Y-90650010D01*
X205690010Y-90650010D02*
X204280000Y-89240000D01*
X204330000Y-87770000D02*
X205580000Y-86520000D01*
X204280000Y-89240000D02*
X204280000Y-87770000D01*
X204280000Y-87770000D02*
X204330000Y-87770000D01*
%TO.N,/SCL*%
X193310000Y-77250000D02*
X192110000Y-76050000D01*
X178390000Y-75730000D02*
X178390000Y-74300000D01*
X193320000Y-80050000D02*
X193320000Y-78819991D01*
X192110000Y-76050000D02*
X178710000Y-76050000D01*
X193320000Y-78819991D02*
X193310000Y-78809991D01*
X187950000Y-85420000D02*
X193320000Y-80050000D01*
X145000000Y-85415000D02*
X146285000Y-85415000D01*
X178710000Y-76050000D02*
X178390000Y-75730000D01*
X193310000Y-78809991D02*
X193310000Y-77250000D01*
X146285000Y-85415000D02*
X146290000Y-85420000D01*
X146290000Y-85420000D02*
X187950000Y-85420000D01*
%TO.N,/SDA*%
X191060000Y-72330000D02*
X178220000Y-72330000D01*
X195850000Y-78809991D02*
X195850000Y-77120000D01*
X171065000Y-82875000D02*
X145000000Y-82875000D01*
X195530000Y-78809991D02*
X195870000Y-78469991D01*
X178220000Y-72330000D02*
X177390000Y-73160000D01*
X195850000Y-77120000D02*
X191060000Y-72330000D01*
X177390000Y-76550000D02*
X171065000Y-82875000D01*
X177390000Y-73160000D02*
X177390000Y-74300000D01*
X177390000Y-74300000D02*
X177390000Y-76550000D01*
%TO.N,VCC*%
X143000000Y-87570000D02*
X143390000Y-87960000D01*
X143395000Y-87955000D02*
X145000000Y-87955000D01*
X176390000Y-75575000D02*
X170955000Y-81010000D01*
X143390000Y-87960000D02*
X143395000Y-87955000D01*
X170955000Y-81010000D02*
X143960000Y-81010000D01*
X194155000Y-87955000D02*
X145000000Y-87955000D01*
X143960000Y-81010000D02*
X143000000Y-81970000D01*
X176390000Y-74300000D02*
X176390000Y-75575000D01*
X198390000Y-92190000D02*
X194155000Y-87955000D01*
X143000000Y-81970000D02*
X143000000Y-87570000D01*
X198390000Y-93730011D02*
X198390000Y-92190000D01*
X198070010Y-94050001D02*
X198390000Y-93730011D01*
%TO.N,/rawswitch*%
X210730000Y-72500000D02*
X210730000Y-82700000D01*
X209410000Y-84020000D02*
X207850000Y-84020000D01*
X209570000Y-71340000D02*
X210730000Y-72500000D01*
X207130000Y-71340000D02*
X209570000Y-71340000D01*
X210730000Y-82700000D02*
X209410000Y-84020000D01*
%TD*%
%TA.AperFunction,Conductor*%
%TO.N,GND*%
G36*
X209127287Y-66110566D02*
G01*
X209468325Y-66128439D01*
X209473407Y-66128973D01*
X209809467Y-66182198D01*
X209814479Y-66183264D01*
X210111132Y-66262751D01*
X210141642Y-66270926D01*
X210163608Y-66283608D01*
X212252390Y-68372390D01*
X212265072Y-68394356D01*
X212352732Y-68721506D01*
X212353799Y-68726523D01*
X212407024Y-69062571D01*
X212407560Y-69067671D01*
X212425421Y-69408470D01*
X212425488Y-69411035D01*
X212425488Y-97511709D01*
X212425421Y-97514274D01*
X212407547Y-97855321D01*
X212407011Y-97860421D01*
X212353787Y-98196468D01*
X212352720Y-98201485D01*
X212264664Y-98530115D01*
X212263079Y-98534993D01*
X212203310Y-98690697D01*
X212192213Y-98707785D01*
X210320785Y-100579213D01*
X210303697Y-100590310D01*
X210147988Y-100650081D01*
X210143110Y-100651666D01*
X209814480Y-100739721D01*
X209809463Y-100740788D01*
X209473416Y-100794012D01*
X209468315Y-100794548D01*
X209127286Y-100812420D01*
X209124722Y-100812487D01*
X145188251Y-100812490D01*
X145185687Y-100812423D01*
X144844678Y-100794553D01*
X144839577Y-100794017D01*
X144503530Y-100740793D01*
X144498513Y-100739726D01*
X144169883Y-100651670D01*
X144165005Y-100650085D01*
X144019513Y-100594236D01*
X144001879Y-100582585D01*
X143998612Y-100579213D01*
X143398533Y-99959776D01*
X142077643Y-98596276D01*
X142067091Y-98579742D01*
X142049911Y-98534986D01*
X142048327Y-98530108D01*
X142041899Y-98506120D01*
X141980516Y-98277032D01*
X141974601Y-98254958D01*
X141971633Y-98243880D01*
X143499500Y-98243880D01*
X143499500Y-98277032D01*
X143499500Y-98506120D01*
X143533730Y-98766116D01*
X143533731Y-98766120D01*
X143533732Y-98766127D01*
X143601599Y-99019412D01*
X143601602Y-99019419D01*
X143701957Y-99261697D01*
X143701959Y-99261700D01*
X143833074Y-99488800D01*
X143833084Y-99488815D01*
X143992709Y-99696841D01*
X143992720Y-99696853D01*
X144178146Y-99882279D01*
X144178158Y-99882290D01*
X144386184Y-100041915D01*
X144386193Y-100041921D01*
X144386197Y-100041924D01*
X144613303Y-100173043D01*
X144855581Y-100273398D01*
X144855584Y-100273398D01*
X144855587Y-100273400D01*
X145108872Y-100341267D01*
X145108873Y-100341267D01*
X145108884Y-100341270D01*
X145368880Y-100375500D01*
X145368883Y-100375500D01*
X145631117Y-100375500D01*
X145631120Y-100375500D01*
X145891116Y-100341270D01*
X146144419Y-100273398D01*
X146386697Y-100173043D01*
X146613803Y-100041924D01*
X146714052Y-99965000D01*
X146821841Y-99882290D01*
X146821843Y-99882287D01*
X146821851Y-99882282D01*
X147007282Y-99696851D01*
X147075559Y-99607872D01*
X147166915Y-99488815D01*
X147166916Y-99488812D01*
X147166924Y-99488803D01*
X147298043Y-99261697D01*
X147398398Y-99019419D01*
X147401170Y-99009076D01*
X147466267Y-98766127D01*
X147466266Y-98766127D01*
X147466270Y-98766116D01*
X147500500Y-98506120D01*
X147500500Y-98243880D01*
X167999500Y-98243880D01*
X167999500Y-98277032D01*
X167999500Y-98506120D01*
X168033730Y-98766116D01*
X168033731Y-98766120D01*
X168033732Y-98766127D01*
X168101599Y-99019412D01*
X168101602Y-99019419D01*
X168201957Y-99261697D01*
X168201959Y-99261700D01*
X168333074Y-99488800D01*
X168333084Y-99488815D01*
X168492709Y-99696841D01*
X168492720Y-99696853D01*
X168678146Y-99882279D01*
X168678158Y-99882290D01*
X168886184Y-100041915D01*
X168886193Y-100041921D01*
X168886197Y-100041924D01*
X169113303Y-100173043D01*
X169355581Y-100273398D01*
X169355584Y-100273398D01*
X169355587Y-100273400D01*
X169608872Y-100341267D01*
X169608873Y-100341267D01*
X169608884Y-100341270D01*
X169868880Y-100375500D01*
X169868883Y-100375500D01*
X170131117Y-100375500D01*
X170131120Y-100375500D01*
X170391116Y-100341270D01*
X170644419Y-100273398D01*
X170886697Y-100173043D01*
X171113803Y-100041924D01*
X171214052Y-99965000D01*
X171321841Y-99882290D01*
X171321843Y-99882287D01*
X171321851Y-99882282D01*
X171507282Y-99696851D01*
X171575559Y-99607872D01*
X171666915Y-99488815D01*
X171666916Y-99488812D01*
X171666924Y-99488803D01*
X171798043Y-99261697D01*
X171898398Y-99019419D01*
X171901170Y-99009076D01*
X171966267Y-98766127D01*
X171966266Y-98766127D01*
X171966270Y-98766116D01*
X172000500Y-98506120D01*
X172000500Y-98243880D01*
X171975906Y-98057073D01*
X207874500Y-98057073D01*
X207874500Y-98094284D01*
X207874500Y-98302927D01*
X207906591Y-98546677D01*
X207906592Y-98546681D01*
X207906593Y-98546688D01*
X207970219Y-98784145D01*
X207970221Y-98784151D01*
X207970222Y-98784153D01*
X208064306Y-99011292D01*
X208068994Y-99019412D01*
X208187231Y-99224205D01*
X208187241Y-99224220D01*
X208336890Y-99419246D01*
X208336901Y-99419258D01*
X208510741Y-99593098D01*
X208510753Y-99593109D01*
X208705779Y-99742758D01*
X208705788Y-99742764D01*
X208705792Y-99742767D01*
X208918708Y-99865694D01*
X209145847Y-99959778D01*
X209145853Y-99959779D01*
X209145854Y-99959780D01*
X209383311Y-100023406D01*
X209383312Y-100023406D01*
X209383323Y-100023409D01*
X209627073Y-100055500D01*
X209627076Y-100055500D01*
X209872924Y-100055500D01*
X209872927Y-100055500D01*
X210116677Y-100023409D01*
X210354153Y-99959778D01*
X210581292Y-99865694D01*
X210794208Y-99742767D01*
X210794220Y-99742758D01*
X210989246Y-99593109D01*
X210989248Y-99593106D01*
X210989256Y-99593101D01*
X211163101Y-99419256D01*
X211283999Y-99261700D01*
X211312758Y-99224220D01*
X211312759Y-99224217D01*
X211312767Y-99224208D01*
X211435694Y-99011292D01*
X211529778Y-98784153D01*
X211593409Y-98546677D01*
X211625500Y-98302927D01*
X211625500Y-98057073D01*
X211593409Y-97813323D01*
X211571237Y-97730577D01*
X211529780Y-97575854D01*
X211529779Y-97575853D01*
X211529778Y-97575847D01*
X211435694Y-97348708D01*
X211312767Y-97135792D01*
X211312764Y-97135788D01*
X211312758Y-97135779D01*
X211163109Y-96940753D01*
X211163098Y-96940741D01*
X210989258Y-96766901D01*
X210989246Y-96766890D01*
X210794220Y-96617241D01*
X210794205Y-96617231D01*
X210581295Y-96494308D01*
X210581296Y-96494308D01*
X210581292Y-96494306D01*
X210354153Y-96400222D01*
X210354151Y-96400221D01*
X210354145Y-96400219D01*
X210116688Y-96336593D01*
X210116681Y-96336592D01*
X210116677Y-96336591D01*
X209872927Y-96304500D01*
X209627073Y-96304500D01*
X209383323Y-96336591D01*
X209383319Y-96336591D01*
X209383311Y-96336593D01*
X209145854Y-96400219D01*
X209145844Y-96400223D01*
X209125302Y-96408732D01*
X208918708Y-96494306D01*
X208918705Y-96494307D01*
X208918704Y-96494308D01*
X208705794Y-96617231D01*
X208705779Y-96617241D01*
X208510753Y-96766890D01*
X208510741Y-96766901D01*
X208336901Y-96940741D01*
X208336890Y-96940753D01*
X208187241Y-97135779D01*
X208187231Y-97135794D01*
X208114830Y-97261197D01*
X208064306Y-97348708D01*
X208009194Y-97481759D01*
X207970223Y-97575844D01*
X207970219Y-97575854D01*
X207906593Y-97813311D01*
X207906591Y-97813319D01*
X207906591Y-97813323D01*
X207874500Y-98057073D01*
X171975906Y-98057073D01*
X171966270Y-97983884D01*
X171933189Y-97860422D01*
X171898400Y-97730587D01*
X171898396Y-97730577D01*
X171798043Y-97488303D01*
X171666924Y-97261197D01*
X171666921Y-97261193D01*
X171666915Y-97261184D01*
X171507290Y-97053158D01*
X171507279Y-97053146D01*
X171321853Y-96867720D01*
X171321841Y-96867709D01*
X171113815Y-96708084D01*
X171113800Y-96708074D01*
X170886700Y-96576959D01*
X170886701Y-96576959D01*
X170886697Y-96576957D01*
X170687160Y-96494306D01*
X170644422Y-96476603D01*
X170644412Y-96476599D01*
X170391127Y-96408732D01*
X170391120Y-96408731D01*
X170391116Y-96408730D01*
X170131120Y-96374500D01*
X169868880Y-96374500D01*
X169608884Y-96408730D01*
X169608880Y-96408730D01*
X169608872Y-96408732D01*
X169355587Y-96476599D01*
X169355577Y-96476603D01*
X169196435Y-96542522D01*
X169113303Y-96576957D01*
X169113300Y-96576958D01*
X169113299Y-96576959D01*
X168886199Y-96708074D01*
X168886184Y-96708084D01*
X168678158Y-96867709D01*
X168678146Y-96867720D01*
X168492720Y-97053146D01*
X168492709Y-97053158D01*
X168333084Y-97261184D01*
X168333074Y-97261199D01*
X168201959Y-97488299D01*
X168201957Y-97488303D01*
X168167522Y-97571435D01*
X168101603Y-97730577D01*
X168101599Y-97730587D01*
X168033732Y-97983872D01*
X168033730Y-97983880D01*
X168033730Y-97983884D01*
X167999500Y-98243880D01*
X147500500Y-98243880D01*
X147466270Y-97983884D01*
X147433189Y-97860422D01*
X147398400Y-97730587D01*
X147398396Y-97730577D01*
X147298043Y-97488303D01*
X147166924Y-97261197D01*
X147166921Y-97261193D01*
X147166915Y-97261184D01*
X147007290Y-97053158D01*
X147007279Y-97053146D01*
X146821853Y-96867720D01*
X146821841Y-96867709D01*
X146613815Y-96708084D01*
X146613800Y-96708074D01*
X146386700Y-96576959D01*
X146386701Y-96576959D01*
X146386697Y-96576957D01*
X146187160Y-96494306D01*
X146144422Y-96476603D01*
X146144412Y-96476599D01*
X145891127Y-96408732D01*
X145891120Y-96408731D01*
X145891116Y-96408730D01*
X145631120Y-96374500D01*
X145368880Y-96374500D01*
X145108884Y-96408730D01*
X145108880Y-96408730D01*
X145108872Y-96408732D01*
X144855587Y-96476599D01*
X144855577Y-96476603D01*
X144696435Y-96542522D01*
X144613303Y-96576957D01*
X144613300Y-96576958D01*
X144613299Y-96576959D01*
X144386199Y-96708074D01*
X144386184Y-96708084D01*
X144178158Y-96867709D01*
X144178146Y-96867720D01*
X143992720Y-97053146D01*
X143992709Y-97053158D01*
X143833084Y-97261184D01*
X143833074Y-97261199D01*
X143701959Y-97488299D01*
X143701957Y-97488303D01*
X143667522Y-97571435D01*
X143601603Y-97730577D01*
X143601599Y-97730587D01*
X143533732Y-97983872D01*
X143533730Y-97983880D01*
X143533730Y-97983884D01*
X143499500Y-98243880D01*
X141971633Y-98243880D01*
X141960273Y-98201486D01*
X141960273Y-98201485D01*
X141959206Y-98196469D01*
X141945158Y-98107770D01*
X141905981Y-97860412D01*
X141905447Y-97855330D01*
X141887573Y-97514273D01*
X141887506Y-97511709D01*
X141887506Y-95403920D01*
X202823195Y-95403920D01*
X202823195Y-95403922D01*
X202894208Y-95440104D01*
X203118758Y-95513065D01*
X203118761Y-95513066D01*
X203351958Y-95550001D01*
X203588062Y-95550001D01*
X203821258Y-95513066D01*
X203821261Y-95513065D01*
X204045808Y-95440105D01*
X204116823Y-95403920D01*
X203470010Y-94757107D01*
X202823195Y-95403920D01*
X141887506Y-95403920D01*
X141887506Y-93955520D01*
X176869510Y-93955520D01*
X176869510Y-94144481D01*
X176899069Y-94331116D01*
X176899070Y-94331119D01*
X176957463Y-94510834D01*
X177043246Y-94679194D01*
X177043249Y-94679198D01*
X177043250Y-94679200D01*
X177154320Y-94832074D01*
X177154322Y-94832076D01*
X177154325Y-94832080D01*
X177287930Y-94965685D01*
X177287933Y-94965687D01*
X177287937Y-94965691D01*
X177440811Y-95076761D01*
X177440813Y-95076762D01*
X177440816Y-95076764D01*
X177609176Y-95162547D01*
X177609178Y-95162548D01*
X177788892Y-95220941D01*
X177975529Y-95250501D01*
X177975530Y-95250501D01*
X178164490Y-95250501D01*
X178164491Y-95250501D01*
X178351128Y-95220941D01*
X178530842Y-95162548D01*
X178699209Y-95076761D01*
X178852083Y-94965691D01*
X178985700Y-94832074D01*
X179096770Y-94679200D01*
X179182557Y-94510833D01*
X179240950Y-94331119D01*
X179270510Y-94144482D01*
X179270510Y-93955520D01*
X179409510Y-93955520D01*
X179409510Y-94144481D01*
X179439069Y-94331116D01*
X179439070Y-94331119D01*
X179497463Y-94510834D01*
X179583246Y-94679194D01*
X179583249Y-94679198D01*
X179583250Y-94679200D01*
X179694320Y-94832074D01*
X179694322Y-94832076D01*
X179694325Y-94832080D01*
X179827930Y-94965685D01*
X179827933Y-94965687D01*
X179827937Y-94965691D01*
X179980811Y-95076761D01*
X179980813Y-95076762D01*
X179980816Y-95076764D01*
X180149176Y-95162547D01*
X180149178Y-95162548D01*
X180328892Y-95220941D01*
X180515529Y-95250501D01*
X180515530Y-95250501D01*
X180704490Y-95250501D01*
X180704491Y-95250501D01*
X180891128Y-95220941D01*
X181070842Y-95162548D01*
X181239209Y-95076761D01*
X181392083Y-94965691D01*
X181525700Y-94832074D01*
X181636770Y-94679200D01*
X181722557Y-94510833D01*
X181780950Y-94331119D01*
X181810510Y-94144482D01*
X181810510Y-93955520D01*
X181949510Y-93955520D01*
X181949510Y-94144481D01*
X181979069Y-94331116D01*
X181979070Y-94331119D01*
X182037463Y-94510834D01*
X182123246Y-94679194D01*
X182123249Y-94679198D01*
X182123250Y-94679200D01*
X182234320Y-94832074D01*
X182234322Y-94832076D01*
X182234325Y-94832080D01*
X182367930Y-94965685D01*
X182367933Y-94965687D01*
X182367937Y-94965691D01*
X182520811Y-95076761D01*
X182520813Y-95076762D01*
X182520816Y-95076764D01*
X182689176Y-95162547D01*
X182689178Y-95162548D01*
X182868892Y-95220941D01*
X183055529Y-95250501D01*
X183055530Y-95250501D01*
X183244490Y-95250501D01*
X183244491Y-95250501D01*
X183431128Y-95220941D01*
X183610842Y-95162548D01*
X183779209Y-95076761D01*
X183932083Y-94965691D01*
X184065700Y-94832074D01*
X184176770Y-94679200D01*
X184262557Y-94510833D01*
X184320950Y-94331119D01*
X184350510Y-94144482D01*
X184350510Y-93955520D01*
X184489510Y-93955520D01*
X184489510Y-94144481D01*
X184519069Y-94331116D01*
X184519070Y-94331119D01*
X184577463Y-94510834D01*
X184663246Y-94679194D01*
X184663249Y-94679198D01*
X184663250Y-94679200D01*
X184774320Y-94832074D01*
X184774322Y-94832076D01*
X184774325Y-94832080D01*
X184907930Y-94965685D01*
X184907933Y-94965687D01*
X184907937Y-94965691D01*
X185060811Y-95076761D01*
X185060813Y-95076762D01*
X185060816Y-95076764D01*
X185229176Y-95162547D01*
X185229178Y-95162548D01*
X185408892Y-95220941D01*
X185595529Y-95250501D01*
X185595530Y-95250501D01*
X185784490Y-95250501D01*
X185784491Y-95250501D01*
X185971128Y-95220941D01*
X186150842Y-95162548D01*
X186319209Y-95076761D01*
X186472083Y-94965691D01*
X186605700Y-94832074D01*
X186716770Y-94679200D01*
X186802557Y-94510833D01*
X186860950Y-94331119D01*
X186890510Y-94144482D01*
X186890510Y-93955520D01*
X187029510Y-93955520D01*
X187029510Y-94144481D01*
X187059069Y-94331116D01*
X187059070Y-94331119D01*
X187117463Y-94510834D01*
X187203246Y-94679194D01*
X187203249Y-94679198D01*
X187203250Y-94679200D01*
X187314320Y-94832074D01*
X187314322Y-94832076D01*
X187314325Y-94832080D01*
X187447930Y-94965685D01*
X187447933Y-94965687D01*
X187447937Y-94965691D01*
X187600811Y-95076761D01*
X187600813Y-95076762D01*
X187600816Y-95076764D01*
X187769176Y-95162547D01*
X187769178Y-95162548D01*
X187948892Y-95220941D01*
X188135529Y-95250501D01*
X188135530Y-95250501D01*
X188324490Y-95250501D01*
X188324491Y-95250501D01*
X188511128Y-95220941D01*
X188690842Y-95162548D01*
X188859209Y-95076761D01*
X189012083Y-94965691D01*
X189145700Y-94832074D01*
X189256770Y-94679200D01*
X189342557Y-94510833D01*
X189400950Y-94331119D01*
X189430510Y-94144482D01*
X189430510Y-93955520D01*
X189569510Y-93955520D01*
X189569510Y-94144481D01*
X189599069Y-94331116D01*
X189599070Y-94331119D01*
X189657463Y-94510834D01*
X189743246Y-94679194D01*
X189743249Y-94679198D01*
X189743250Y-94679200D01*
X189854320Y-94832074D01*
X189854322Y-94832076D01*
X189854325Y-94832080D01*
X189987930Y-94965685D01*
X189987933Y-94965687D01*
X189987937Y-94965691D01*
X190140811Y-95076761D01*
X190140813Y-95076762D01*
X190140816Y-95076764D01*
X190309176Y-95162547D01*
X190309178Y-95162548D01*
X190488892Y-95220941D01*
X190675529Y-95250501D01*
X190675530Y-95250501D01*
X190864490Y-95250501D01*
X190864491Y-95250501D01*
X191051128Y-95220941D01*
X191230842Y-95162548D01*
X191399209Y-95076761D01*
X191552083Y-94965691D01*
X191685700Y-94832074D01*
X191796770Y-94679200D01*
X191882557Y-94510833D01*
X191940950Y-94331119D01*
X191970510Y-94144482D01*
X191970510Y-93955520D01*
X192109510Y-93955520D01*
X192109510Y-94144481D01*
X192139069Y-94331116D01*
X192139070Y-94331119D01*
X192197463Y-94510834D01*
X192283246Y-94679194D01*
X192283249Y-94679198D01*
X192283250Y-94679200D01*
X192394320Y-94832074D01*
X192394322Y-94832076D01*
X192394325Y-94832080D01*
X192527930Y-94965685D01*
X192527933Y-94965687D01*
X192527937Y-94965691D01*
X192680811Y-95076761D01*
X192680813Y-95076762D01*
X192680816Y-95076764D01*
X192849176Y-95162547D01*
X192849178Y-95162548D01*
X193028892Y-95220941D01*
X193215529Y-95250501D01*
X193215530Y-95250501D01*
X193404490Y-95250501D01*
X193404491Y-95250501D01*
X193591128Y-95220941D01*
X193770842Y-95162548D01*
X193939209Y-95076761D01*
X194092083Y-94965691D01*
X194225700Y-94832074D01*
X194336770Y-94679200D01*
X194422557Y-94510833D01*
X194480950Y-94331119D01*
X194510510Y-94144482D01*
X194510510Y-93955520D01*
X194649510Y-93955520D01*
X194649510Y-94144481D01*
X194679069Y-94331116D01*
X194679070Y-94331119D01*
X194737463Y-94510834D01*
X194823246Y-94679194D01*
X194823249Y-94679198D01*
X194823250Y-94679200D01*
X194934320Y-94832074D01*
X194934322Y-94832076D01*
X194934325Y-94832080D01*
X195067930Y-94965685D01*
X195067933Y-94965687D01*
X195067937Y-94965691D01*
X195220811Y-95076761D01*
X195220813Y-95076762D01*
X195220816Y-95076764D01*
X195389176Y-95162547D01*
X195389178Y-95162548D01*
X195568892Y-95220941D01*
X195755529Y-95250501D01*
X195755530Y-95250501D01*
X195944490Y-95250501D01*
X195944491Y-95250501D01*
X196131128Y-95220941D01*
X196310842Y-95162548D01*
X196479209Y-95076761D01*
X196632083Y-94965691D01*
X196765700Y-94832074D01*
X196876770Y-94679200D01*
X196962557Y-94510833D01*
X197020950Y-94331119D01*
X197050510Y-94144482D01*
X197050510Y-93955520D01*
X197020950Y-93768883D01*
X196962557Y-93589169D01*
X196876770Y-93420802D01*
X196765700Y-93267928D01*
X196765696Y-93267924D01*
X196765694Y-93267921D01*
X196632089Y-93134316D01*
X196632090Y-93134316D01*
X196479203Y-93023237D01*
X196310843Y-92937454D01*
X196131128Y-92879061D01*
X196131125Y-92879060D01*
X195980505Y-92855205D01*
X195944491Y-92849501D01*
X195755529Y-92849501D01*
X195720407Y-92855063D01*
X195568894Y-92879060D01*
X195568891Y-92879061D01*
X195389176Y-92937454D01*
X195220816Y-93023237D01*
X195067930Y-93134316D01*
X194934325Y-93267921D01*
X194823246Y-93420807D01*
X194737463Y-93589167D01*
X194679070Y-93768882D01*
X194679069Y-93768885D01*
X194649510Y-93955520D01*
X194510510Y-93955520D01*
X194480950Y-93768883D01*
X194422557Y-93589169D01*
X194336770Y-93420802D01*
X194225700Y-93267928D01*
X194225696Y-93267924D01*
X194225694Y-93267921D01*
X194092089Y-93134316D01*
X194092090Y-93134316D01*
X193939203Y-93023237D01*
X193770843Y-92937454D01*
X193591128Y-92879061D01*
X193591125Y-92879060D01*
X193440505Y-92855205D01*
X193404491Y-92849501D01*
X193215529Y-92849501D01*
X193180407Y-92855063D01*
X193028894Y-92879060D01*
X193028891Y-92879061D01*
X192849176Y-92937454D01*
X192680816Y-93023237D01*
X192527930Y-93134316D01*
X192394325Y-93267921D01*
X192283246Y-93420807D01*
X192197463Y-93589167D01*
X192139070Y-93768882D01*
X192139069Y-93768885D01*
X192109510Y-93955520D01*
X191970510Y-93955520D01*
X191940950Y-93768883D01*
X191882557Y-93589169D01*
X191796770Y-93420802D01*
X191685700Y-93267928D01*
X191685696Y-93267924D01*
X191685694Y-93267921D01*
X191552089Y-93134316D01*
X191552090Y-93134316D01*
X191399203Y-93023237D01*
X191230843Y-92937454D01*
X191051128Y-92879061D01*
X191051125Y-92879060D01*
X190900505Y-92855205D01*
X190864491Y-92849501D01*
X190675529Y-92849501D01*
X190640407Y-92855063D01*
X190488894Y-92879060D01*
X190488891Y-92879061D01*
X190309176Y-92937454D01*
X190140816Y-93023237D01*
X189987930Y-93134316D01*
X189854325Y-93267921D01*
X189743246Y-93420807D01*
X189657463Y-93589167D01*
X189599070Y-93768882D01*
X189599069Y-93768885D01*
X189569510Y-93955520D01*
X189430510Y-93955520D01*
X189400950Y-93768883D01*
X189342557Y-93589169D01*
X189256770Y-93420802D01*
X189145700Y-93267928D01*
X189145696Y-93267924D01*
X189145694Y-93267921D01*
X189012089Y-93134316D01*
X189012090Y-93134316D01*
X188859203Y-93023237D01*
X188690843Y-92937454D01*
X188511128Y-92879061D01*
X188511125Y-92879060D01*
X188360505Y-92855205D01*
X188324491Y-92849501D01*
X188135529Y-92849501D01*
X188100407Y-92855063D01*
X187948894Y-92879060D01*
X187948891Y-92879061D01*
X187769176Y-92937454D01*
X187600816Y-93023237D01*
X187447930Y-93134316D01*
X187314325Y-93267921D01*
X187203246Y-93420807D01*
X187117463Y-93589167D01*
X187059070Y-93768882D01*
X187059069Y-93768885D01*
X187029510Y-93955520D01*
X186890510Y-93955520D01*
X186860950Y-93768883D01*
X186802557Y-93589169D01*
X186716770Y-93420802D01*
X186605700Y-93267928D01*
X186605696Y-93267924D01*
X186605694Y-93267921D01*
X186472089Y-93134316D01*
X186472090Y-93134316D01*
X186319203Y-93023237D01*
X186150843Y-92937454D01*
X185971128Y-92879061D01*
X185971125Y-92879060D01*
X185820505Y-92855205D01*
X185784491Y-92849501D01*
X185595529Y-92849501D01*
X185560407Y-92855063D01*
X185408894Y-92879060D01*
X185408891Y-92879061D01*
X185229176Y-92937454D01*
X185060816Y-93023237D01*
X184907930Y-93134316D01*
X184774325Y-93267921D01*
X184663246Y-93420807D01*
X184577463Y-93589167D01*
X184519070Y-93768882D01*
X184519069Y-93768885D01*
X184489510Y-93955520D01*
X184350510Y-93955520D01*
X184320950Y-93768883D01*
X184262557Y-93589169D01*
X184176770Y-93420802D01*
X184065700Y-93267928D01*
X184065696Y-93267924D01*
X184065694Y-93267921D01*
X183932089Y-93134316D01*
X183932090Y-93134316D01*
X183779203Y-93023237D01*
X183610843Y-92937454D01*
X183431128Y-92879061D01*
X183431125Y-92879060D01*
X183280505Y-92855205D01*
X183244491Y-92849501D01*
X183055529Y-92849501D01*
X183020407Y-92855063D01*
X182868894Y-92879060D01*
X182868891Y-92879061D01*
X182689176Y-92937454D01*
X182520816Y-93023237D01*
X182367930Y-93134316D01*
X182234325Y-93267921D01*
X182123246Y-93420807D01*
X182037463Y-93589167D01*
X181979070Y-93768882D01*
X181979069Y-93768885D01*
X181949510Y-93955520D01*
X181810510Y-93955520D01*
X181780950Y-93768883D01*
X181722557Y-93589169D01*
X181636770Y-93420802D01*
X181525700Y-93267928D01*
X181525696Y-93267924D01*
X181525694Y-93267921D01*
X181392089Y-93134316D01*
X181392090Y-93134316D01*
X181239203Y-93023237D01*
X181070843Y-92937454D01*
X180891128Y-92879061D01*
X180891125Y-92879060D01*
X180740505Y-92855205D01*
X180704491Y-92849501D01*
X180515529Y-92849501D01*
X180480407Y-92855063D01*
X180328894Y-92879060D01*
X180328891Y-92879061D01*
X180149176Y-92937454D01*
X179980816Y-93023237D01*
X179827930Y-93134316D01*
X179694325Y-93267921D01*
X179583246Y-93420807D01*
X179497463Y-93589167D01*
X179439070Y-93768882D01*
X179439069Y-93768885D01*
X179409510Y-93955520D01*
X179270510Y-93955520D01*
X179240950Y-93768883D01*
X179182557Y-93589169D01*
X179096770Y-93420802D01*
X178985700Y-93267928D01*
X178985696Y-93267924D01*
X178985694Y-93267921D01*
X178852089Y-93134316D01*
X178852090Y-93134316D01*
X178699203Y-93023237D01*
X178530843Y-92937454D01*
X178351128Y-92879061D01*
X178351125Y-92879060D01*
X178200505Y-92855205D01*
X178164491Y-92849501D01*
X177975529Y-92849501D01*
X177940407Y-92855063D01*
X177788894Y-92879060D01*
X177788891Y-92879061D01*
X177609176Y-92937454D01*
X177440816Y-93023237D01*
X177287930Y-93134316D01*
X177154325Y-93267921D01*
X177043246Y-93420807D01*
X176957463Y-93589167D01*
X176899070Y-93768882D01*
X176899069Y-93768885D01*
X176869510Y-93955520D01*
X141887506Y-93955520D01*
X141887506Y-91542834D01*
X143500000Y-91542834D01*
X143506401Y-91602372D01*
X143506401Y-91602373D01*
X143556648Y-91737091D01*
X143642811Y-91852188D01*
X143757908Y-91938351D01*
X143892626Y-91988598D01*
X143952166Y-91995000D01*
X144500000Y-91995000D01*
X145500000Y-91995000D01*
X146047834Y-91995000D01*
X146107372Y-91988598D01*
X146107373Y-91988598D01*
X146242091Y-91938351D01*
X146357188Y-91852188D01*
X146443351Y-91737091D01*
X146493598Y-91602373D01*
X146493598Y-91602372D01*
X146500000Y-91542834D01*
X146500000Y-90995000D01*
X145500000Y-90995000D01*
X145500000Y-91995000D01*
X144500000Y-91995000D01*
X144500000Y-90995000D01*
X143500000Y-90995000D01*
X143500000Y-91542834D01*
X141887506Y-91542834D01*
X141887506Y-81910688D01*
X142549500Y-81910688D01*
X142549500Y-87629310D01*
X142563990Y-87683385D01*
X142563990Y-87683386D01*
X142580200Y-87743886D01*
X142580201Y-87743888D01*
X142639511Y-87846614D01*
X143029511Y-88236614D01*
X143113386Y-88320489D01*
X143167630Y-88351807D01*
X143216111Y-88379798D01*
X143216113Y-88379799D01*
X143330687Y-88410498D01*
X143330688Y-88410499D01*
X143330691Y-88410499D01*
X143449310Y-88410499D01*
X143459016Y-88407898D01*
X143461734Y-88407169D01*
X143474416Y-88405500D01*
X143852162Y-88405500D01*
X143886810Y-88419852D01*
X143895821Y-88432255D01*
X143973236Y-88584193D01*
X143973239Y-88584197D01*
X143973240Y-88584199D01*
X144084310Y-88737073D01*
X144084312Y-88737075D01*
X144084315Y-88737079D01*
X144217921Y-88870685D01*
X144217925Y-88870688D01*
X144217927Y-88870690D01*
X144267020Y-88906358D01*
X144286616Y-88938335D01*
X144277861Y-88974801D01*
X144245884Y-88994397D01*
X144238219Y-88995000D01*
X143952166Y-88995000D01*
X143892627Y-89001401D01*
X143892626Y-89001401D01*
X143757908Y-89051648D01*
X143642811Y-89137811D01*
X143556648Y-89252908D01*
X143506401Y-89387626D01*
X143506401Y-89387627D01*
X143500000Y-89447165D01*
X143500000Y-89995000D01*
X144934174Y-89995000D01*
X144807007Y-90029075D01*
X144692993Y-90094901D01*
X144599901Y-90187993D01*
X144534075Y-90302007D01*
X144500000Y-90429174D01*
X144500000Y-90560826D01*
X144534075Y-90687993D01*
X144599901Y-90802007D01*
X144692993Y-90895099D01*
X144807007Y-90960925D01*
X144934174Y-90995000D01*
X145065826Y-90995000D01*
X145192993Y-90960925D01*
X145307007Y-90895099D01*
X145400099Y-90802007D01*
X145465925Y-90687993D01*
X145500000Y-90560826D01*
X145500000Y-90429174D01*
X145465925Y-90302007D01*
X145400099Y-90187993D01*
X145307007Y-90094901D01*
X145192993Y-90029075D01*
X145065826Y-89995000D01*
X146500000Y-89995000D01*
X146500000Y-89447165D01*
X146493598Y-89387627D01*
X146493598Y-89387626D01*
X146443351Y-89252908D01*
X146357188Y-89137811D01*
X146242091Y-89051648D01*
X146107373Y-89001401D01*
X146047834Y-88995000D01*
X145761781Y-88995000D01*
X145727133Y-88980648D01*
X145712781Y-88946000D01*
X145727133Y-88911352D01*
X145732980Y-88906358D01*
X145782073Y-88870690D01*
X145782076Y-88870686D01*
X145782079Y-88870685D01*
X145915684Y-88737079D01*
X145915690Y-88737073D01*
X146026760Y-88584199D01*
X146104179Y-88432254D01*
X146132696Y-88407898D01*
X146147838Y-88405500D01*
X193948101Y-88405500D01*
X193982749Y-88419852D01*
X197925148Y-92362251D01*
X197939500Y-92396899D01*
X197939500Y-92902167D01*
X197925148Y-92936815D01*
X197912746Y-92945826D01*
X197760814Y-93023239D01*
X197607930Y-93134316D01*
X197474325Y-93267921D01*
X197363246Y-93420807D01*
X197277463Y-93589167D01*
X197219070Y-93768882D01*
X197219069Y-93768885D01*
X197189510Y-93955520D01*
X197189510Y-94144481D01*
X197219069Y-94331116D01*
X197219070Y-94331119D01*
X197277463Y-94510834D01*
X197363246Y-94679194D01*
X197363249Y-94679198D01*
X197363250Y-94679200D01*
X197474320Y-94832074D01*
X197474322Y-94832076D01*
X197474325Y-94832080D01*
X197607930Y-94965685D01*
X197607933Y-94965687D01*
X197607937Y-94965691D01*
X197760811Y-95076761D01*
X197760813Y-95076762D01*
X197760816Y-95076764D01*
X197929176Y-95162547D01*
X197929178Y-95162548D01*
X198108892Y-95220941D01*
X198295529Y-95250501D01*
X198295530Y-95250501D01*
X198484490Y-95250501D01*
X198484491Y-95250501D01*
X198671128Y-95220941D01*
X198850842Y-95162548D01*
X199019209Y-95076761D01*
X199172083Y-94965691D01*
X199305700Y-94832074D01*
X199416770Y-94679200D01*
X199502557Y-94510833D01*
X199560950Y-94331119D01*
X199590510Y-94144482D01*
X199590510Y-93955520D01*
X199729510Y-93955520D01*
X199729510Y-94144481D01*
X199759069Y-94331116D01*
X199759070Y-94331119D01*
X199817463Y-94510834D01*
X199903246Y-94679194D01*
X199903249Y-94679198D01*
X199903250Y-94679200D01*
X200014320Y-94832074D01*
X200014322Y-94832076D01*
X200014325Y-94832080D01*
X200147930Y-94965685D01*
X200147933Y-94965687D01*
X200147937Y-94965691D01*
X200300811Y-95076761D01*
X200300813Y-95076762D01*
X200300816Y-95076764D01*
X200469176Y-95162547D01*
X200469178Y-95162548D01*
X200648892Y-95220941D01*
X200835529Y-95250501D01*
X200835530Y-95250501D01*
X201024490Y-95250501D01*
X201024491Y-95250501D01*
X201211128Y-95220941D01*
X201390842Y-95162548D01*
X201559209Y-95076761D01*
X201712083Y-94965691D01*
X201845700Y-94832074D01*
X201956770Y-94679200D01*
X201988849Y-94616239D01*
X202017363Y-94591887D01*
X202054751Y-94594828D01*
X202079107Y-94623342D01*
X202079905Y-94625797D01*
X202116089Y-94696814D01*
X202762904Y-94050001D01*
X202762904Y-94050000D01*
X202702713Y-93989809D01*
X203012810Y-93989809D01*
X203012810Y-94110193D01*
X203043968Y-94226474D01*
X203104159Y-94330728D01*
X203189283Y-94415852D01*
X203293537Y-94476043D01*
X203409818Y-94507201D01*
X203530202Y-94507201D01*
X203646483Y-94476043D01*
X203750737Y-94415852D01*
X203835861Y-94330728D01*
X203896052Y-94226474D01*
X203927210Y-94110193D01*
X203927210Y-93989809D01*
X203896052Y-93873528D01*
X203835861Y-93769274D01*
X203750737Y-93684150D01*
X203646483Y-93623959D01*
X203530202Y-93592801D01*
X203409818Y-93592801D01*
X203293537Y-93623959D01*
X203189283Y-93684150D01*
X203104159Y-93769274D01*
X203043968Y-93873528D01*
X203012810Y-93989809D01*
X202702713Y-93989809D01*
X202116089Y-93403185D01*
X202116089Y-93403186D01*
X202079901Y-93474210D01*
X202079105Y-93476662D01*
X202054745Y-93505176D01*
X202017357Y-93508112D01*
X201988848Y-93483760D01*
X201956770Y-93420802D01*
X201845700Y-93267928D01*
X201845696Y-93267924D01*
X201845694Y-93267921D01*
X201712089Y-93134316D01*
X201712090Y-93134316D01*
X201559203Y-93023237D01*
X201390843Y-92937454D01*
X201211128Y-92879061D01*
X201211125Y-92879060D01*
X201060505Y-92855205D01*
X201024491Y-92849501D01*
X200835529Y-92849501D01*
X200800407Y-92855063D01*
X200648894Y-92879060D01*
X200648891Y-92879061D01*
X200469176Y-92937454D01*
X200300816Y-93023237D01*
X200147930Y-93134316D01*
X200014325Y-93267921D01*
X199903246Y-93420807D01*
X199817463Y-93589167D01*
X199759070Y-93768882D01*
X199759069Y-93768885D01*
X199729510Y-93955520D01*
X199590510Y-93955520D01*
X199560950Y-93768883D01*
X199502557Y-93589169D01*
X199416770Y-93420802D01*
X199305700Y-93267928D01*
X199305696Y-93267924D01*
X199305694Y-93267921D01*
X199172089Y-93134316D01*
X199172090Y-93134316D01*
X199128218Y-93102441D01*
X199019209Y-93023241D01*
X199002344Y-93014648D01*
X198867254Y-92945816D01*
X198842898Y-92917299D01*
X198840500Y-92902157D01*
X198840500Y-92696080D01*
X202823194Y-92696080D01*
X203470009Y-93342895D01*
X204116823Y-92696080D01*
X204045805Y-92659895D01*
X203821261Y-92586936D01*
X203821258Y-92586935D01*
X203588062Y-92550001D01*
X203351958Y-92550001D01*
X203118761Y-92586935D01*
X203118758Y-92586936D01*
X202894214Y-92659895D01*
X202823195Y-92696080D01*
X202823194Y-92696080D01*
X198840500Y-92696080D01*
X198840500Y-92130688D01*
X198840499Y-92130687D01*
X198809800Y-92016117D01*
X198809799Y-92016115D01*
X198809799Y-92016114D01*
X198784731Y-91972696D01*
X198750489Y-91913386D01*
X194547791Y-87710688D01*
X203829500Y-87710688D01*
X203829500Y-87710691D01*
X203829500Y-89299309D01*
X203843489Y-89351517D01*
X203843490Y-89351518D01*
X203843490Y-89351519D01*
X203860200Y-89413886D01*
X203860201Y-89413888D01*
X203919511Y-89516614D01*
X205225158Y-90822261D01*
X205239510Y-90856909D01*
X205239510Y-93102441D01*
X205225158Y-93137089D01*
X205094325Y-93267921D01*
X204983248Y-93420805D01*
X204951172Y-93483758D01*
X204922655Y-93508114D01*
X204885267Y-93505171D01*
X204860911Y-93476654D01*
X204860113Y-93474199D01*
X204823931Y-93403186D01*
X204823929Y-93403186D01*
X204177116Y-94050000D01*
X204177116Y-94050001D01*
X204823929Y-94696814D01*
X204860114Y-94625800D01*
X204860910Y-94623350D01*
X204885265Y-94594831D01*
X204922652Y-94591886D01*
X204951170Y-94616240D01*
X204983250Y-94679200D01*
X205094320Y-94832074D01*
X205094322Y-94832076D01*
X205094325Y-94832080D01*
X205227930Y-94965685D01*
X205227933Y-94965687D01*
X205227937Y-94965691D01*
X205380811Y-95076761D01*
X205380813Y-95076762D01*
X205380816Y-95076764D01*
X205549176Y-95162547D01*
X205549178Y-95162548D01*
X205728892Y-95220941D01*
X205915529Y-95250501D01*
X205915530Y-95250501D01*
X206104490Y-95250501D01*
X206104491Y-95250501D01*
X206291128Y-95220941D01*
X206470842Y-95162548D01*
X206639209Y-95076761D01*
X206792083Y-94965691D01*
X206925700Y-94832074D01*
X207036770Y-94679200D01*
X207122557Y-94510833D01*
X207180950Y-94331119D01*
X207210510Y-94144482D01*
X207210510Y-93955520D01*
X207349510Y-93955520D01*
X207349510Y-94144481D01*
X207379069Y-94331116D01*
X207379070Y-94331119D01*
X207437463Y-94510834D01*
X207523246Y-94679194D01*
X207523249Y-94679198D01*
X207523250Y-94679200D01*
X207634320Y-94832074D01*
X207634322Y-94832076D01*
X207634325Y-94832080D01*
X207767930Y-94965685D01*
X207767933Y-94965687D01*
X207767937Y-94965691D01*
X207920811Y-95076761D01*
X207920813Y-95076762D01*
X207920816Y-95076764D01*
X208089176Y-95162547D01*
X208089178Y-95162548D01*
X208268892Y-95220941D01*
X208455529Y-95250501D01*
X208455530Y-95250501D01*
X208644490Y-95250501D01*
X208644491Y-95250501D01*
X208831128Y-95220941D01*
X209010842Y-95162548D01*
X209179209Y-95076761D01*
X209332083Y-94965691D01*
X209465700Y-94832074D01*
X209576770Y-94679200D01*
X209662557Y-94510833D01*
X209720950Y-94331119D01*
X209750510Y-94144482D01*
X209750510Y-93955520D01*
X209720950Y-93768883D01*
X209662557Y-93589169D01*
X209576770Y-93420802D01*
X209465700Y-93267928D01*
X209465696Y-93267924D01*
X209465694Y-93267921D01*
X209332089Y-93134316D01*
X209332090Y-93134316D01*
X209179203Y-93023237D01*
X209010843Y-92937454D01*
X208831128Y-92879061D01*
X208831125Y-92879060D01*
X208680505Y-92855205D01*
X208644491Y-92849501D01*
X208455529Y-92849501D01*
X208420407Y-92855063D01*
X208268894Y-92879060D01*
X208268891Y-92879061D01*
X208089176Y-92937454D01*
X207920816Y-93023237D01*
X207767930Y-93134316D01*
X207634325Y-93267921D01*
X207523246Y-93420807D01*
X207437463Y-93589167D01*
X207379070Y-93768882D01*
X207379069Y-93768885D01*
X207349510Y-93955520D01*
X207210510Y-93955520D01*
X207180950Y-93768883D01*
X207122557Y-93589169D01*
X207036770Y-93420802D01*
X206925700Y-93267928D01*
X206925696Y-93267924D01*
X206925694Y-93267921D01*
X206792089Y-93134316D01*
X206792090Y-93134316D01*
X206639203Y-93023237D01*
X206470843Y-92937454D01*
X206291128Y-92879061D01*
X206291126Y-92879060D01*
X206181844Y-92861751D01*
X206149868Y-92842155D01*
X206140510Y-92813354D01*
X206140510Y-90590698D01*
X206111479Y-90482356D01*
X206111478Y-90482352D01*
X206111478Y-90482353D01*
X206109809Y-90476124D01*
X206109809Y-90476123D01*
X206050499Y-90373396D01*
X204744852Y-89067749D01*
X204730500Y-89033101D01*
X204730500Y-88688482D01*
X206399500Y-88688482D01*
X206399500Y-89351517D01*
X206414353Y-89445303D01*
X206471945Y-89558335D01*
X206471950Y-89558342D01*
X206561657Y-89648049D01*
X206561664Y-89648054D01*
X206674691Y-89705644D01*
X206674692Y-89705644D01*
X206674696Y-89705646D01*
X206768481Y-89720500D01*
X208931518Y-89720499D01*
X209025304Y-89705646D01*
X209086387Y-89674522D01*
X209138335Y-89648054D01*
X209138337Y-89648052D01*
X209138342Y-89648050D01*
X209228050Y-89558342D01*
X209284698Y-89447165D01*
X209285644Y-89445309D01*
X209285644Y-89445307D01*
X209285646Y-89445304D01*
X209300500Y-89351519D01*
X209300499Y-88688482D01*
X209285646Y-88594696D01*
X209285643Y-88594690D01*
X209228054Y-88481664D01*
X209228049Y-88481657D01*
X209138342Y-88391950D01*
X209138335Y-88391945D01*
X209025308Y-88334355D01*
X209025305Y-88334354D01*
X209025304Y-88334354D01*
X208931519Y-88319500D01*
X208931517Y-88319500D01*
X206768482Y-88319500D01*
X206674696Y-88334353D01*
X206561664Y-88391945D01*
X206561657Y-88391950D01*
X206471950Y-88481657D01*
X206471945Y-88481664D01*
X206414355Y-88594690D01*
X206414355Y-88594692D01*
X206399500Y-88688482D01*
X204730500Y-88688482D01*
X204730500Y-88026899D01*
X204744852Y-87992251D01*
X204786102Y-87951001D01*
X209899500Y-87951001D01*
X209899500Y-88088998D01*
X209926417Y-88224318D01*
X209926420Y-88224329D01*
X209979223Y-88351807D01*
X209979225Y-88351811D01*
X209997926Y-88379799D01*
X210055883Y-88466539D01*
X210153460Y-88564116D01*
X210183508Y-88584193D01*
X210268189Y-88640775D01*
X210395672Y-88693580D01*
X210395678Y-88693581D01*
X210395681Y-88693582D01*
X210531001Y-88720499D01*
X210531007Y-88720500D01*
X210668993Y-88720500D01*
X210804328Y-88693580D01*
X210931811Y-88640775D01*
X211046542Y-88564114D01*
X211144114Y-88466542D01*
X211220775Y-88351811D01*
X211273580Y-88224328D01*
X211300500Y-88088993D01*
X211300500Y-87951007D01*
X211273580Y-87815672D01*
X211220775Y-87688189D01*
X211159253Y-87596115D01*
X211144116Y-87573460D01*
X211046539Y-87475883D01*
X210978074Y-87430137D01*
X210931811Y-87399225D01*
X210931808Y-87399223D01*
X210931807Y-87399223D01*
X210804329Y-87346420D01*
X210804318Y-87346417D01*
X210668998Y-87319500D01*
X210668993Y-87319500D01*
X210531007Y-87319500D01*
X210531001Y-87319500D01*
X210395681Y-87346417D01*
X210395670Y-87346420D01*
X210268192Y-87399223D01*
X210153460Y-87475883D01*
X210055883Y-87573460D01*
X209979223Y-87688192D01*
X209926420Y-87815670D01*
X209926417Y-87815681D01*
X209899500Y-87951001D01*
X204786102Y-87951001D01*
X205752251Y-86984852D01*
X205786899Y-86970500D01*
X206397165Y-86970500D01*
X206431813Y-86984852D01*
X206440824Y-86997255D01*
X206471945Y-87058335D01*
X206471950Y-87058342D01*
X206561657Y-87148049D01*
X206561664Y-87148054D01*
X206674691Y-87205644D01*
X206674692Y-87205644D01*
X206674696Y-87205646D01*
X206768481Y-87220500D01*
X208931518Y-87220499D01*
X209025304Y-87205646D01*
X209089532Y-87172920D01*
X209138335Y-87148054D01*
X209138337Y-87148052D01*
X209138342Y-87148050D01*
X209228050Y-87058342D01*
X209237745Y-87039315D01*
X209285644Y-86945309D01*
X209285644Y-86945307D01*
X209285646Y-86945304D01*
X209300500Y-86851519D01*
X209300499Y-86188482D01*
X209285646Y-86094696D01*
X209271586Y-86067102D01*
X209228054Y-85981664D01*
X209228049Y-85981657D01*
X209138342Y-85891950D01*
X209138335Y-85891945D01*
X209025308Y-85834355D01*
X209025305Y-85834354D01*
X209025304Y-85834354D01*
X208931519Y-85819500D01*
X208931517Y-85819500D01*
X206768482Y-85819500D01*
X206674696Y-85834353D01*
X206561664Y-85891945D01*
X206561657Y-85891950D01*
X206471950Y-85981657D01*
X206471945Y-85981664D01*
X206440824Y-86042745D01*
X206412307Y-86067102D01*
X206397165Y-86069500D01*
X205520688Y-86069500D01*
X205430326Y-86093713D01*
X205406115Y-86100199D01*
X205406110Y-86100201D01*
X205303385Y-86159511D01*
X205303384Y-86159512D01*
X204124240Y-87338655D01*
X204108350Y-87349274D01*
X204106116Y-87350199D01*
X204003386Y-87409511D01*
X204003386Y-87409512D01*
X203919512Y-87493386D01*
X203919511Y-87493386D01*
X203860201Y-87596112D01*
X203860200Y-87596115D01*
X203829500Y-87710688D01*
X194547791Y-87710688D01*
X194431614Y-87594511D01*
X194395153Y-87573460D01*
X194328888Y-87535201D01*
X194328886Y-87535200D01*
X194304673Y-87528713D01*
X194274551Y-87520642D01*
X194214311Y-87504500D01*
X194214309Y-87504500D01*
X146147838Y-87504500D01*
X146113190Y-87490148D01*
X146104179Y-87477745D01*
X146026763Y-87325806D01*
X146026761Y-87325803D01*
X146026760Y-87325801D01*
X145915690Y-87172927D01*
X145915686Y-87172923D01*
X145915684Y-87172920D01*
X145782079Y-87039315D01*
X145782080Y-87039315D01*
X145752600Y-87017897D01*
X145629199Y-86928240D01*
X145629197Y-86928239D01*
X145629193Y-86928236D01*
X145460833Y-86842453D01*
X145281118Y-86784060D01*
X145281115Y-86784059D01*
X145137744Y-86761352D01*
X145094481Y-86754500D01*
X144905519Y-86754500D01*
X144870397Y-86760062D01*
X144718884Y-86784059D01*
X144718881Y-86784060D01*
X144539166Y-86842453D01*
X144370806Y-86928236D01*
X144217920Y-87039315D01*
X144084315Y-87172920D01*
X143973236Y-87325806D01*
X143895821Y-87477745D01*
X143867304Y-87502102D01*
X143852162Y-87504500D01*
X143591899Y-87504500D01*
X143557251Y-87490148D01*
X143464852Y-87397749D01*
X143450500Y-87363101D01*
X143450500Y-82176899D01*
X143464852Y-82142251D01*
X144132251Y-81474852D01*
X144166899Y-81460500D01*
X171014311Y-81460500D01*
X171044430Y-81452428D01*
X171104673Y-81436286D01*
X171128887Y-81429799D01*
X171231614Y-81370489D01*
X176750490Y-75851614D01*
X176809799Y-75748887D01*
X176816286Y-75724673D01*
X176840500Y-75634309D01*
X176840500Y-75225514D01*
X176848762Y-75198284D01*
X176849263Y-75197534D01*
X176880450Y-75176706D01*
X176917231Y-75184029D01*
X176930735Y-75197533D01*
X176931237Y-75198284D01*
X176934972Y-75210592D01*
X176938060Y-75215216D01*
X176937392Y-75218568D01*
X176939500Y-75225514D01*
X176939500Y-76343100D01*
X176925148Y-76377748D01*
X170892749Y-82410148D01*
X170858101Y-82424500D01*
X146147838Y-82424500D01*
X146113190Y-82410148D01*
X146104179Y-82397745D01*
X146026763Y-82245806D01*
X146026761Y-82245803D01*
X146026760Y-82245801D01*
X145915690Y-82092927D01*
X145915686Y-82092923D01*
X145915684Y-82092920D01*
X145782079Y-81959315D01*
X145782080Y-81959315D01*
X145629193Y-81848236D01*
X145460833Y-81762453D01*
X145281118Y-81704060D01*
X145281115Y-81704059D01*
X145137744Y-81681352D01*
X145094481Y-81674500D01*
X144905519Y-81674500D01*
X144870397Y-81680062D01*
X144718884Y-81704059D01*
X144718881Y-81704060D01*
X144539166Y-81762453D01*
X144370806Y-81848236D01*
X144217920Y-81959315D01*
X144084315Y-82092920D01*
X143973236Y-82245806D01*
X143887453Y-82414166D01*
X143829060Y-82593881D01*
X143829059Y-82593884D01*
X143799500Y-82780519D01*
X143799500Y-82969480D01*
X143829059Y-83156115D01*
X143829060Y-83156118D01*
X143887453Y-83335833D01*
X143973236Y-83504193D01*
X143973239Y-83504197D01*
X143973240Y-83504199D01*
X144084310Y-83657073D01*
X144084312Y-83657075D01*
X144084315Y-83657079D01*
X144217920Y-83790684D01*
X144217923Y-83790686D01*
X144217927Y-83790690D01*
X144370801Y-83901760D01*
X144370803Y-83901761D01*
X144370806Y-83901763D01*
X144539166Y-83987546D01*
X144539168Y-83987547D01*
X144718882Y-84045940D01*
X144905519Y-84075500D01*
X144905520Y-84075500D01*
X145094480Y-84075500D01*
X145094481Y-84075500D01*
X145281118Y-84045940D01*
X145460832Y-83987547D01*
X145629199Y-83901760D01*
X145782073Y-83790690D01*
X145915690Y-83657073D01*
X146026760Y-83504199D01*
X146104179Y-83352254D01*
X146132696Y-83327898D01*
X146147838Y-83325500D01*
X171124311Y-83325500D01*
X171154430Y-83317428D01*
X171214673Y-83301286D01*
X171238887Y-83294799D01*
X171341614Y-83235489D01*
X175861594Y-78715510D01*
X176869500Y-78715510D01*
X176869500Y-78904471D01*
X176899059Y-79091106D01*
X176899060Y-79091109D01*
X176957453Y-79270824D01*
X177043236Y-79439184D01*
X177043239Y-79439188D01*
X177043240Y-79439190D01*
X177154310Y-79592064D01*
X177154312Y-79592066D01*
X177154315Y-79592070D01*
X177287920Y-79725675D01*
X177287923Y-79725677D01*
X177287927Y-79725681D01*
X177440801Y-79836751D01*
X177440803Y-79836752D01*
X177440806Y-79836754D01*
X177523364Y-79878819D01*
X177609168Y-79922538D01*
X177788882Y-79980931D01*
X177975519Y-80010491D01*
X177975520Y-80010491D01*
X178164480Y-80010491D01*
X178164481Y-80010491D01*
X178351118Y-79980931D01*
X178530832Y-79922538D01*
X178699199Y-79836751D01*
X178852073Y-79725681D01*
X178985690Y-79592064D01*
X179096760Y-79439190D01*
X179182547Y-79270823D01*
X179240940Y-79091109D01*
X179270500Y-78904472D01*
X179270500Y-78715510D01*
X179409500Y-78715510D01*
X179409500Y-78904471D01*
X179439059Y-79091106D01*
X179439060Y-79091109D01*
X179497453Y-79270824D01*
X179583236Y-79439184D01*
X179583239Y-79439188D01*
X179583240Y-79439190D01*
X179694310Y-79592064D01*
X179694312Y-79592066D01*
X179694315Y-79592070D01*
X179827920Y-79725675D01*
X179827923Y-79725677D01*
X179827927Y-79725681D01*
X179980801Y-79836751D01*
X179980803Y-79836752D01*
X179980806Y-79836754D01*
X180063364Y-79878819D01*
X180149168Y-79922538D01*
X180328882Y-79980931D01*
X180515519Y-80010491D01*
X180515520Y-80010491D01*
X180704480Y-80010491D01*
X180704481Y-80010491D01*
X180891118Y-79980931D01*
X181070832Y-79922538D01*
X181239199Y-79836751D01*
X181392073Y-79725681D01*
X181525690Y-79592064D01*
X181636760Y-79439190D01*
X181722547Y-79270823D01*
X181780940Y-79091109D01*
X181810500Y-78904472D01*
X181810500Y-78715510D01*
X181949500Y-78715510D01*
X181949500Y-78904471D01*
X181979059Y-79091106D01*
X181979060Y-79091109D01*
X182037453Y-79270824D01*
X182123236Y-79439184D01*
X182123239Y-79439188D01*
X182123240Y-79439190D01*
X182234310Y-79592064D01*
X182234312Y-79592066D01*
X182234315Y-79592070D01*
X182367920Y-79725675D01*
X182367923Y-79725677D01*
X182367927Y-79725681D01*
X182520801Y-79836751D01*
X182520803Y-79836752D01*
X182520806Y-79836754D01*
X182603364Y-79878819D01*
X182689168Y-79922538D01*
X182868882Y-79980931D01*
X183055519Y-80010491D01*
X183055520Y-80010491D01*
X183244480Y-80010491D01*
X183244481Y-80010491D01*
X183431118Y-79980931D01*
X183610832Y-79922538D01*
X183779199Y-79836751D01*
X183932073Y-79725681D01*
X184065690Y-79592064D01*
X184176760Y-79439190D01*
X184262547Y-79270823D01*
X184320940Y-79091109D01*
X184350500Y-78904472D01*
X184350500Y-78715510D01*
X184489500Y-78715510D01*
X184489500Y-78904471D01*
X184519059Y-79091106D01*
X184519060Y-79091109D01*
X184577453Y-79270824D01*
X184663236Y-79439184D01*
X184663239Y-79439188D01*
X184663240Y-79439190D01*
X184774310Y-79592064D01*
X184774312Y-79592066D01*
X184774315Y-79592070D01*
X184907920Y-79725675D01*
X184907923Y-79725677D01*
X184907927Y-79725681D01*
X185060801Y-79836751D01*
X185060803Y-79836752D01*
X185060806Y-79836754D01*
X185143364Y-79878819D01*
X185229168Y-79922538D01*
X185408882Y-79980931D01*
X185595519Y-80010491D01*
X185595520Y-80010491D01*
X185784480Y-80010491D01*
X185784481Y-80010491D01*
X185971118Y-79980931D01*
X186150832Y-79922538D01*
X186319199Y-79836751D01*
X186472073Y-79725681D01*
X186605690Y-79592064D01*
X186716760Y-79439190D01*
X186802547Y-79270823D01*
X186860940Y-79091109D01*
X186890500Y-78904472D01*
X186890500Y-78715510D01*
X187029500Y-78715510D01*
X187029500Y-78904471D01*
X187059059Y-79091106D01*
X187059060Y-79091109D01*
X187117453Y-79270824D01*
X187203236Y-79439184D01*
X187203239Y-79439188D01*
X187203240Y-79439190D01*
X187314310Y-79592064D01*
X187314312Y-79592066D01*
X187314315Y-79592070D01*
X187447920Y-79725675D01*
X187447923Y-79725677D01*
X187447927Y-79725681D01*
X187600801Y-79836751D01*
X187600803Y-79836752D01*
X187600806Y-79836754D01*
X187683364Y-79878819D01*
X187769168Y-79922538D01*
X187948882Y-79980931D01*
X188135519Y-80010491D01*
X188135520Y-80010491D01*
X188324480Y-80010491D01*
X188324481Y-80010491D01*
X188511118Y-79980931D01*
X188690832Y-79922538D01*
X188859199Y-79836751D01*
X189012073Y-79725681D01*
X189145690Y-79592064D01*
X189256760Y-79439190D01*
X189342547Y-79270823D01*
X189400940Y-79091109D01*
X189430500Y-78904472D01*
X189430500Y-78715510D01*
X189569500Y-78715510D01*
X189569500Y-78904471D01*
X189599059Y-79091106D01*
X189599060Y-79091109D01*
X189657453Y-79270824D01*
X189743236Y-79439184D01*
X189743239Y-79439188D01*
X189743240Y-79439190D01*
X189854310Y-79592064D01*
X189854312Y-79592066D01*
X189854315Y-79592070D01*
X189987920Y-79725675D01*
X189987923Y-79725677D01*
X189987927Y-79725681D01*
X190140801Y-79836751D01*
X190140803Y-79836752D01*
X190140806Y-79836754D01*
X190223364Y-79878819D01*
X190309168Y-79922538D01*
X190488882Y-79980931D01*
X190675519Y-80010491D01*
X190675520Y-80010491D01*
X190864480Y-80010491D01*
X190864481Y-80010491D01*
X191051118Y-79980931D01*
X191230832Y-79922538D01*
X191399199Y-79836751D01*
X191552073Y-79725681D01*
X191685690Y-79592064D01*
X191796760Y-79439190D01*
X191882547Y-79270823D01*
X191940940Y-79091109D01*
X191970500Y-78904472D01*
X191970500Y-78715510D01*
X191940940Y-78528873D01*
X191882547Y-78349159D01*
X191796760Y-78180792D01*
X191685690Y-78027918D01*
X191685686Y-78027914D01*
X191685684Y-78027911D01*
X191552079Y-77894306D01*
X191552080Y-77894306D01*
X191399193Y-77783227D01*
X191230833Y-77697444D01*
X191051118Y-77639051D01*
X191051115Y-77639050D01*
X190907744Y-77616343D01*
X190864481Y-77609491D01*
X190675519Y-77609491D01*
X190640397Y-77615053D01*
X190488884Y-77639050D01*
X190488881Y-77639051D01*
X190309166Y-77697444D01*
X190140806Y-77783227D01*
X189987920Y-77894306D01*
X189854315Y-78027911D01*
X189743236Y-78180797D01*
X189657453Y-78349157D01*
X189599060Y-78528872D01*
X189599059Y-78528875D01*
X189569500Y-78715510D01*
X189430500Y-78715510D01*
X189400940Y-78528873D01*
X189342547Y-78349159D01*
X189256760Y-78180792D01*
X189145690Y-78027918D01*
X189145686Y-78027914D01*
X189145684Y-78027911D01*
X189012079Y-77894306D01*
X189012080Y-77894306D01*
X188859193Y-77783227D01*
X188690833Y-77697444D01*
X188511118Y-77639051D01*
X188511115Y-77639050D01*
X188367744Y-77616343D01*
X188324481Y-77609491D01*
X188135519Y-77609491D01*
X188100397Y-77615053D01*
X187948884Y-77639050D01*
X187948881Y-77639051D01*
X187769166Y-77697444D01*
X187600806Y-77783227D01*
X187447920Y-77894306D01*
X187314315Y-78027911D01*
X187203236Y-78180797D01*
X187117453Y-78349157D01*
X187059060Y-78528872D01*
X187059059Y-78528875D01*
X187029500Y-78715510D01*
X186890500Y-78715510D01*
X186860940Y-78528873D01*
X186802547Y-78349159D01*
X186716760Y-78180792D01*
X186605690Y-78027918D01*
X186605686Y-78027914D01*
X186605684Y-78027911D01*
X186472079Y-77894306D01*
X186472080Y-77894306D01*
X186319193Y-77783227D01*
X186150833Y-77697444D01*
X185971118Y-77639051D01*
X185971115Y-77639050D01*
X185827744Y-77616343D01*
X185784481Y-77609491D01*
X185595519Y-77609491D01*
X185560397Y-77615053D01*
X185408884Y-77639050D01*
X185408881Y-77639051D01*
X185229166Y-77697444D01*
X185060806Y-77783227D01*
X184907920Y-77894306D01*
X184774315Y-78027911D01*
X184663236Y-78180797D01*
X184577453Y-78349157D01*
X184519060Y-78528872D01*
X184519059Y-78528875D01*
X184489500Y-78715510D01*
X184350500Y-78715510D01*
X184320940Y-78528873D01*
X184262547Y-78349159D01*
X184176760Y-78180792D01*
X184065690Y-78027918D01*
X184065686Y-78027914D01*
X184065684Y-78027911D01*
X183932079Y-77894306D01*
X183932080Y-77894306D01*
X183779193Y-77783227D01*
X183610833Y-77697444D01*
X183431118Y-77639051D01*
X183431115Y-77639050D01*
X183287744Y-77616343D01*
X183244481Y-77609491D01*
X183055519Y-77609491D01*
X183020397Y-77615053D01*
X182868884Y-77639050D01*
X182868881Y-77639051D01*
X182689166Y-77697444D01*
X182520806Y-77783227D01*
X182367920Y-77894306D01*
X182234315Y-78027911D01*
X182123236Y-78180797D01*
X182037453Y-78349157D01*
X181979060Y-78528872D01*
X181979059Y-78528875D01*
X181949500Y-78715510D01*
X181810500Y-78715510D01*
X181780940Y-78528873D01*
X181722547Y-78349159D01*
X181636760Y-78180792D01*
X181525690Y-78027918D01*
X181525686Y-78027914D01*
X181525684Y-78027911D01*
X181392079Y-77894306D01*
X181392080Y-77894306D01*
X181239193Y-77783227D01*
X181070833Y-77697444D01*
X180891118Y-77639051D01*
X180891115Y-77639050D01*
X180747744Y-77616343D01*
X180704481Y-77609491D01*
X180515519Y-77609491D01*
X180480397Y-77615053D01*
X180328884Y-77639050D01*
X180328881Y-77639051D01*
X180149166Y-77697444D01*
X179980806Y-77783227D01*
X179827920Y-77894306D01*
X179694315Y-78027911D01*
X179583236Y-78180797D01*
X179497453Y-78349157D01*
X179439060Y-78528872D01*
X179439059Y-78528875D01*
X179409500Y-78715510D01*
X179270500Y-78715510D01*
X179240940Y-78528873D01*
X179182547Y-78349159D01*
X179096760Y-78180792D01*
X178985690Y-78027918D01*
X178985686Y-78027914D01*
X178985684Y-78027911D01*
X178852079Y-77894306D01*
X178852080Y-77894306D01*
X178699193Y-77783227D01*
X178530833Y-77697444D01*
X178351118Y-77639051D01*
X178351115Y-77639050D01*
X178207744Y-77616343D01*
X178164481Y-77609491D01*
X177975519Y-77609491D01*
X177940397Y-77615053D01*
X177788884Y-77639050D01*
X177788881Y-77639051D01*
X177609166Y-77697444D01*
X177440806Y-77783227D01*
X177287920Y-77894306D01*
X177154315Y-78027911D01*
X177043236Y-78180797D01*
X176957453Y-78349157D01*
X176899060Y-78528872D01*
X176899059Y-78528875D01*
X176869500Y-78715510D01*
X175861594Y-78715510D01*
X177750490Y-76826614D01*
X177809799Y-76723887D01*
X177823422Y-76673043D01*
X177840500Y-76609309D01*
X177840500Y-75225514D01*
X177848762Y-75198284D01*
X177849263Y-75197534D01*
X177880450Y-75176706D01*
X177917231Y-75184029D01*
X177930735Y-75197533D01*
X177931237Y-75198284D01*
X177934972Y-75210592D01*
X177938060Y-75215216D01*
X177937392Y-75218568D01*
X177939500Y-75225514D01*
X177939500Y-75789310D01*
X177963713Y-75879672D01*
X177963713Y-75879673D01*
X177970200Y-75903886D01*
X177970201Y-75903888D01*
X178019226Y-75988800D01*
X178029511Y-76006614D01*
X178433386Y-76410489D01*
X178492696Y-76444731D01*
X178536114Y-76469799D01*
X178536116Y-76469799D01*
X178536117Y-76469800D01*
X178650687Y-76500499D01*
X178650688Y-76500500D01*
X178650691Y-76500500D01*
X191903101Y-76500500D01*
X191937749Y-76514852D01*
X192845148Y-77422251D01*
X192859500Y-77456899D01*
X192859500Y-77662152D01*
X192845148Y-77696800D01*
X192832746Y-77705811D01*
X192680804Y-77783229D01*
X192527920Y-77894306D01*
X192394315Y-78027911D01*
X192283236Y-78180797D01*
X192197453Y-78349157D01*
X192139060Y-78528872D01*
X192139059Y-78528875D01*
X192109500Y-78715510D01*
X192109500Y-78904471D01*
X192139059Y-79091106D01*
X192139060Y-79091109D01*
X192197453Y-79270824D01*
X192283236Y-79439184D01*
X192283239Y-79439188D01*
X192283240Y-79439190D01*
X192394310Y-79592064D01*
X192394312Y-79592066D01*
X192394315Y-79592070D01*
X192527920Y-79725675D01*
X192527923Y-79725677D01*
X192527927Y-79725681D01*
X192680801Y-79836751D01*
X192680803Y-79836752D01*
X192680806Y-79836754D01*
X192718486Y-79855952D01*
X192763365Y-79878819D01*
X192787722Y-79907336D01*
X192784779Y-79944723D01*
X192775768Y-79957126D01*
X187777749Y-84955148D01*
X187743101Y-84969500D01*
X146369419Y-84969500D01*
X146356738Y-84967830D01*
X146349163Y-84965800D01*
X146344310Y-84964500D01*
X146344309Y-84964500D01*
X146147838Y-84964500D01*
X146113190Y-84950148D01*
X146104179Y-84937745D01*
X146026763Y-84785806D01*
X146026761Y-84785803D01*
X146026760Y-84785801D01*
X145915690Y-84632927D01*
X145915686Y-84632923D01*
X145915684Y-84632920D01*
X145782079Y-84499315D01*
X145782080Y-84499315D01*
X145707739Y-84445303D01*
X145629199Y-84388240D01*
X145629197Y-84388239D01*
X145629193Y-84388236D01*
X145460833Y-84302453D01*
X145281118Y-84244060D01*
X145281115Y-84244059D01*
X145137744Y-84221352D01*
X145094481Y-84214500D01*
X144905519Y-84214500D01*
X144870397Y-84220062D01*
X144718884Y-84244059D01*
X144718881Y-84244060D01*
X144539166Y-84302453D01*
X144370806Y-84388236D01*
X144217920Y-84499315D01*
X144084315Y-84632920D01*
X143973236Y-84785806D01*
X143887453Y-84954166D01*
X143829060Y-85133881D01*
X143829059Y-85133884D01*
X143799500Y-85320519D01*
X143799500Y-85509480D01*
X143829059Y-85696115D01*
X143829060Y-85696118D01*
X143887453Y-85875833D01*
X143973236Y-86044193D01*
X143973239Y-86044197D01*
X143973240Y-86044199D01*
X144084310Y-86197073D01*
X144084312Y-86197075D01*
X144084315Y-86197079D01*
X144217920Y-86330684D01*
X144217923Y-86330686D01*
X144217927Y-86330690D01*
X144370801Y-86441760D01*
X144370803Y-86441761D01*
X144370806Y-86441763D01*
X144539166Y-86527546D01*
X144539168Y-86527547D01*
X144718882Y-86585940D01*
X144905519Y-86615500D01*
X144905520Y-86615500D01*
X145094480Y-86615500D01*
X145094481Y-86615500D01*
X145281118Y-86585940D01*
X145460832Y-86527547D01*
X145629199Y-86441760D01*
X145782073Y-86330690D01*
X145915690Y-86197073D01*
X146026760Y-86044199D01*
X146104179Y-85892254D01*
X146110173Y-85887135D01*
X146113190Y-85879852D01*
X146123889Y-85875420D01*
X146132696Y-85867898D01*
X146147838Y-85865500D01*
X146205581Y-85865500D01*
X146218261Y-85867169D01*
X146225836Y-85869199D01*
X146230690Y-85870500D01*
X146230691Y-85870500D01*
X188009311Y-85870500D01*
X188039430Y-85862428D01*
X188099673Y-85846286D01*
X188123887Y-85839799D01*
X188226614Y-85780489D01*
X189056102Y-84951001D01*
X209899500Y-84951001D01*
X209899500Y-85088998D01*
X209926417Y-85224318D01*
X209926420Y-85224328D01*
X209979225Y-85351811D01*
X210010137Y-85398074D01*
X210055883Y-85466539D01*
X210153460Y-85564116D01*
X210199102Y-85594613D01*
X210268189Y-85640775D01*
X210395672Y-85693580D01*
X210395678Y-85693581D01*
X210395681Y-85693582D01*
X210531001Y-85720499D01*
X210531007Y-85720500D01*
X210668993Y-85720500D01*
X210804328Y-85693580D01*
X210931811Y-85640775D01*
X211046542Y-85564114D01*
X211144114Y-85466542D01*
X211220775Y-85351811D01*
X211273580Y-85224328D01*
X211300500Y-85088993D01*
X211300500Y-84951007D01*
X211273580Y-84815672D01*
X211220775Y-84688189D01*
X211174613Y-84619102D01*
X211144116Y-84573460D01*
X211046539Y-84475883D01*
X210978074Y-84430137D01*
X210931811Y-84399225D01*
X210931808Y-84399223D01*
X210931807Y-84399223D01*
X210804329Y-84346420D01*
X210804318Y-84346417D01*
X210668998Y-84319500D01*
X210668993Y-84319500D01*
X210531007Y-84319500D01*
X210531001Y-84319500D01*
X210395681Y-84346417D01*
X210395670Y-84346420D01*
X210268192Y-84399223D01*
X210153460Y-84475883D01*
X210055883Y-84573460D01*
X209979223Y-84688192D01*
X209926420Y-84815670D01*
X209926417Y-84815681D01*
X209899500Y-84951001D01*
X189056102Y-84951001D01*
X193680490Y-80326614D01*
X193739799Y-80223887D01*
X193746286Y-80199673D01*
X193770500Y-80109309D01*
X193770500Y-79952734D01*
X193784852Y-79918086D01*
X193797255Y-79909075D01*
X193939193Y-79836754D01*
X193939192Y-79836754D01*
X193939199Y-79836751D01*
X194092073Y-79725681D01*
X194225690Y-79592064D01*
X194336760Y-79439190D01*
X194422547Y-79270823D01*
X194480940Y-79091109D01*
X194510500Y-78904472D01*
X194510500Y-78715510D01*
X194480940Y-78528873D01*
X194422547Y-78349159D01*
X194336760Y-78180792D01*
X194225690Y-78027918D01*
X194225686Y-78027914D01*
X194225684Y-78027911D01*
X194092079Y-77894306D01*
X194092080Y-77894306D01*
X194078853Y-77884696D01*
X193939199Y-77783231D01*
X193925996Y-77776504D01*
X193787254Y-77705811D01*
X193762898Y-77677294D01*
X193760500Y-77662152D01*
X193760500Y-77190688D01*
X193729799Y-77076115D01*
X193729798Y-77076111D01*
X193686143Y-77000500D01*
X193686142Y-77000499D01*
X193670491Y-76973389D01*
X193670486Y-76973383D01*
X192386614Y-75689511D01*
X192283888Y-75630201D01*
X192283886Y-75630200D01*
X192259673Y-75623713D01*
X192229551Y-75615642D01*
X192169311Y-75599500D01*
X192169309Y-75599500D01*
X178916899Y-75599500D01*
X178882251Y-75585148D01*
X178854852Y-75557749D01*
X178840500Y-75523101D01*
X178840500Y-75225514D01*
X178848757Y-75198292D01*
X178878867Y-75153231D01*
X178890500Y-75094748D01*
X178890500Y-73505252D01*
X178878867Y-73446769D01*
X178840500Y-73389349D01*
X178834552Y-73380447D01*
X178783900Y-73346603D01*
X178768231Y-73336133D01*
X178709748Y-73324500D01*
X178070252Y-73324500D01*
X178011769Y-73336133D01*
X177945447Y-73380447D01*
X177930742Y-73402456D01*
X177922641Y-73407868D01*
X177917231Y-73415970D01*
X177907667Y-73417874D01*
X177899559Y-73423292D01*
X177890002Y-73421391D01*
X177880450Y-73423293D01*
X177872341Y-73417877D01*
X177862777Y-73415975D01*
X177849263Y-73402464D01*
X177848763Y-73401716D01*
X177840500Y-73374485D01*
X177840500Y-73366899D01*
X177854852Y-73332251D01*
X178392251Y-72794852D01*
X178426899Y-72780500D01*
X190853101Y-72780500D01*
X190887749Y-72794852D01*
X195385148Y-77292251D01*
X195399500Y-77326899D01*
X195399500Y-77662152D01*
X195385148Y-77696800D01*
X195372746Y-77705811D01*
X195220804Y-77783229D01*
X195067920Y-77894306D01*
X194934315Y-78027911D01*
X194823236Y-78180797D01*
X194737453Y-78349157D01*
X194679060Y-78528872D01*
X194679059Y-78528875D01*
X194649500Y-78715510D01*
X194649500Y-78904471D01*
X194679059Y-79091106D01*
X194679060Y-79091109D01*
X194737453Y-79270824D01*
X194823236Y-79439184D01*
X194823239Y-79439188D01*
X194823240Y-79439190D01*
X194934310Y-79592064D01*
X194934312Y-79592066D01*
X194934315Y-79592070D01*
X195067920Y-79725675D01*
X195067923Y-79725677D01*
X195067927Y-79725681D01*
X195220801Y-79836751D01*
X195220803Y-79836752D01*
X195220806Y-79836754D01*
X195303364Y-79878819D01*
X195389168Y-79922538D01*
X195568882Y-79980931D01*
X195755519Y-80010491D01*
X195755520Y-80010491D01*
X195944480Y-80010491D01*
X195944481Y-80010491D01*
X196131118Y-79980931D01*
X196310832Y-79922538D01*
X196479199Y-79836751D01*
X196632073Y-79725681D01*
X196765690Y-79592064D01*
X196876760Y-79439190D01*
X196962547Y-79270823D01*
X197020940Y-79091109D01*
X197050500Y-78904472D01*
X197050500Y-78715510D01*
X197189500Y-78715510D01*
X197189500Y-78904471D01*
X197219059Y-79091106D01*
X197219060Y-79091109D01*
X197277453Y-79270824D01*
X197363236Y-79439184D01*
X197363239Y-79439188D01*
X197363240Y-79439190D01*
X197474310Y-79592064D01*
X197474312Y-79592066D01*
X197474315Y-79592070D01*
X197607920Y-79725675D01*
X197607923Y-79725677D01*
X197607927Y-79725681D01*
X197760801Y-79836751D01*
X197760803Y-79836752D01*
X197760806Y-79836754D01*
X197843364Y-79878819D01*
X197929168Y-79922538D01*
X198108882Y-79980931D01*
X198295519Y-80010491D01*
X198295520Y-80010491D01*
X198484480Y-80010491D01*
X198484481Y-80010491D01*
X198671118Y-79980931D01*
X198850832Y-79922538D01*
X199019199Y-79836751D01*
X199172073Y-79725681D01*
X199305690Y-79592064D01*
X199416760Y-79439190D01*
X199502547Y-79270823D01*
X199560940Y-79091109D01*
X199590500Y-78904472D01*
X199590500Y-78715510D01*
X199729500Y-78715510D01*
X199729500Y-78904471D01*
X199759059Y-79091106D01*
X199759060Y-79091109D01*
X199817453Y-79270824D01*
X199903236Y-79439184D01*
X199903239Y-79439188D01*
X199903240Y-79439190D01*
X200014310Y-79592064D01*
X200014312Y-79592066D01*
X200014315Y-79592070D01*
X200147920Y-79725675D01*
X200147923Y-79725677D01*
X200147927Y-79725681D01*
X200300801Y-79836751D01*
X200300803Y-79836752D01*
X200300806Y-79836754D01*
X200383364Y-79878819D01*
X200469168Y-79922538D01*
X200648882Y-79980931D01*
X200835519Y-80010491D01*
X200835520Y-80010491D01*
X201024480Y-80010491D01*
X201024481Y-80010491D01*
X201211118Y-79980931D01*
X201390832Y-79922538D01*
X201559199Y-79836751D01*
X201712073Y-79725681D01*
X201845690Y-79592064D01*
X201956760Y-79439190D01*
X202042547Y-79270823D01*
X202100940Y-79091109D01*
X202130500Y-78904472D01*
X202130500Y-78715510D01*
X202269500Y-78715510D01*
X202269500Y-78904471D01*
X202299059Y-79091106D01*
X202299060Y-79091109D01*
X202357453Y-79270824D01*
X202443236Y-79439184D01*
X202443239Y-79439188D01*
X202443240Y-79439190D01*
X202554310Y-79592064D01*
X202554312Y-79592066D01*
X202554315Y-79592070D01*
X202687920Y-79725675D01*
X202687923Y-79725677D01*
X202687927Y-79725681D01*
X202840801Y-79836751D01*
X202840803Y-79836752D01*
X202840806Y-79836754D01*
X202923364Y-79878819D01*
X203009168Y-79922538D01*
X203188882Y-79980931D01*
X203375519Y-80010491D01*
X203375520Y-80010491D01*
X203564480Y-80010491D01*
X203564481Y-80010491D01*
X203751118Y-79980931D01*
X203930832Y-79922538D01*
X204099199Y-79836751D01*
X204252073Y-79725681D01*
X204385690Y-79592064D01*
X204496760Y-79439190D01*
X204582547Y-79270823D01*
X204640940Y-79091109D01*
X204670500Y-78904472D01*
X204670500Y-78715510D01*
X204809500Y-78715510D01*
X204809500Y-78904471D01*
X204839059Y-79091106D01*
X204839060Y-79091109D01*
X204897453Y-79270824D01*
X204983236Y-79439184D01*
X204983239Y-79439188D01*
X204983240Y-79439190D01*
X205094310Y-79592064D01*
X205094312Y-79592066D01*
X205094315Y-79592070D01*
X205227920Y-79725675D01*
X205227923Y-79725677D01*
X205227927Y-79725681D01*
X205380801Y-79836751D01*
X205380803Y-79836752D01*
X205380806Y-79836754D01*
X205463364Y-79878819D01*
X205549168Y-79922538D01*
X205728882Y-79980931D01*
X205915519Y-80010491D01*
X205915520Y-80010491D01*
X206104480Y-80010491D01*
X206104481Y-80010491D01*
X206291118Y-79980931D01*
X206470832Y-79922538D01*
X206639199Y-79836751D01*
X206792073Y-79725681D01*
X206925690Y-79592064D01*
X207036760Y-79439190D01*
X207122547Y-79270823D01*
X207180940Y-79091109D01*
X207210500Y-78904472D01*
X207210500Y-78715510D01*
X207349500Y-78715510D01*
X207349500Y-78904471D01*
X207379059Y-79091106D01*
X207379060Y-79091109D01*
X207437453Y-79270824D01*
X207523236Y-79439184D01*
X207523239Y-79439188D01*
X207523240Y-79439190D01*
X207634310Y-79592064D01*
X207634312Y-79592066D01*
X207634315Y-79592070D01*
X207767920Y-79725675D01*
X207767923Y-79725677D01*
X207767927Y-79725681D01*
X207920801Y-79836751D01*
X207920803Y-79836752D01*
X207920806Y-79836754D01*
X208003364Y-79878819D01*
X208089168Y-79922538D01*
X208268882Y-79980931D01*
X208455519Y-80010491D01*
X208455520Y-80010491D01*
X208644480Y-80010491D01*
X208644481Y-80010491D01*
X208831118Y-79980931D01*
X209010832Y-79922538D01*
X209179199Y-79836751D01*
X209332073Y-79725681D01*
X209465690Y-79592064D01*
X209576760Y-79439190D01*
X209662547Y-79270823D01*
X209720940Y-79091109D01*
X209750500Y-78904472D01*
X209750500Y-78715510D01*
X209720940Y-78528873D01*
X209662547Y-78349159D01*
X209576760Y-78180792D01*
X209465690Y-78027918D01*
X209465686Y-78027914D01*
X209465684Y-78027911D01*
X209332079Y-77894306D01*
X209332080Y-77894306D01*
X209179193Y-77783227D01*
X209010833Y-77697444D01*
X208831118Y-77639051D01*
X208831115Y-77639050D01*
X208687744Y-77616343D01*
X208644481Y-77609491D01*
X208455519Y-77609491D01*
X208420397Y-77615053D01*
X208268884Y-77639050D01*
X208268881Y-77639051D01*
X208089166Y-77697444D01*
X207920806Y-77783227D01*
X207767920Y-77894306D01*
X207634315Y-78027911D01*
X207523236Y-78180797D01*
X207437453Y-78349157D01*
X207379060Y-78528872D01*
X207379059Y-78528875D01*
X207349500Y-78715510D01*
X207210500Y-78715510D01*
X207180940Y-78528873D01*
X207122547Y-78349159D01*
X207036760Y-78180792D01*
X206925690Y-78027918D01*
X206925686Y-78027914D01*
X206925684Y-78027911D01*
X206792079Y-77894306D01*
X206792080Y-77894306D01*
X206639193Y-77783227D01*
X206470833Y-77697444D01*
X206291118Y-77639051D01*
X206291115Y-77639050D01*
X206147744Y-77616343D01*
X206104481Y-77609491D01*
X205915519Y-77609491D01*
X205880397Y-77615053D01*
X205728884Y-77639050D01*
X205728881Y-77639051D01*
X205549166Y-77697444D01*
X205380806Y-77783227D01*
X205227920Y-77894306D01*
X205094315Y-78027911D01*
X204983236Y-78180797D01*
X204897453Y-78349157D01*
X204839060Y-78528872D01*
X204839059Y-78528875D01*
X204809500Y-78715510D01*
X204670500Y-78715510D01*
X204640940Y-78528873D01*
X204582547Y-78349159D01*
X204496760Y-78180792D01*
X204385690Y-78027918D01*
X204385686Y-78027914D01*
X204385684Y-78027911D01*
X204252079Y-77894306D01*
X204252080Y-77894306D01*
X204099193Y-77783227D01*
X203930833Y-77697444D01*
X203751118Y-77639051D01*
X203751115Y-77639050D01*
X203607744Y-77616343D01*
X203564481Y-77609491D01*
X203375519Y-77609491D01*
X203340397Y-77615053D01*
X203188884Y-77639050D01*
X203188881Y-77639051D01*
X203009166Y-77697444D01*
X202840806Y-77783227D01*
X202687920Y-77894306D01*
X202554315Y-78027911D01*
X202443236Y-78180797D01*
X202357453Y-78349157D01*
X202299060Y-78528872D01*
X202299059Y-78528875D01*
X202269500Y-78715510D01*
X202130500Y-78715510D01*
X202100940Y-78528873D01*
X202042547Y-78349159D01*
X201956760Y-78180792D01*
X201845690Y-78027918D01*
X201845686Y-78027914D01*
X201845684Y-78027911D01*
X201712079Y-77894306D01*
X201712080Y-77894306D01*
X201559193Y-77783227D01*
X201390833Y-77697444D01*
X201211118Y-77639051D01*
X201211115Y-77639050D01*
X201067744Y-77616343D01*
X201024481Y-77609491D01*
X200835519Y-77609491D01*
X200800397Y-77615053D01*
X200648884Y-77639050D01*
X200648881Y-77639051D01*
X200469166Y-77697444D01*
X200300806Y-77783227D01*
X200147920Y-77894306D01*
X200014315Y-78027911D01*
X199903236Y-78180797D01*
X199817453Y-78349157D01*
X199759060Y-78528872D01*
X199759059Y-78528875D01*
X199729500Y-78715510D01*
X199590500Y-78715510D01*
X199560940Y-78528873D01*
X199502547Y-78349159D01*
X199416760Y-78180792D01*
X199305690Y-78027918D01*
X199305686Y-78027914D01*
X199305684Y-78027911D01*
X199172079Y-77894306D01*
X199172080Y-77894306D01*
X199019193Y-77783227D01*
X198850833Y-77697444D01*
X198671118Y-77639051D01*
X198671115Y-77639050D01*
X198527744Y-77616343D01*
X198484481Y-77609491D01*
X198295519Y-77609491D01*
X198260397Y-77615053D01*
X198108884Y-77639050D01*
X198108881Y-77639051D01*
X197929166Y-77697444D01*
X197760806Y-77783227D01*
X197607920Y-77894306D01*
X197474315Y-78027911D01*
X197363236Y-78180797D01*
X197277453Y-78349157D01*
X197219060Y-78528872D01*
X197219059Y-78528875D01*
X197189500Y-78715510D01*
X197050500Y-78715510D01*
X197020940Y-78528873D01*
X196962547Y-78349159D01*
X196876760Y-78180792D01*
X196765690Y-78027918D01*
X196765686Y-78027914D01*
X196765684Y-78027911D01*
X196632079Y-77894306D01*
X196632080Y-77894306D01*
X196618853Y-77884696D01*
X196479199Y-77783231D01*
X196465996Y-77776504D01*
X196327254Y-77705811D01*
X196302898Y-77677294D01*
X196300500Y-77662152D01*
X196300500Y-77060688D01*
X196271469Y-76952346D01*
X196271468Y-76952342D01*
X196271468Y-76952343D01*
X196269799Y-76946114D01*
X196269799Y-76946113D01*
X196210489Y-76843386D01*
X194502828Y-75135725D01*
X199479500Y-75135725D01*
X199479500Y-76244253D01*
X199479502Y-76244277D01*
X199482353Y-76274695D01*
X199482354Y-76274701D01*
X199527204Y-76402876D01*
X199527208Y-76402885D01*
X199607849Y-76512150D01*
X199717114Y-76592791D01*
X199717117Y-76592792D01*
X199717118Y-76592793D01*
X199717120Y-76592793D01*
X199717123Y-76592795D01*
X199764321Y-76609310D01*
X199845302Y-76637646D01*
X199875735Y-76640500D01*
X202884264Y-76640499D01*
X202914698Y-76637646D01*
X203042882Y-76592793D01*
X203111808Y-76541924D01*
X203152150Y-76512150D01*
X203232791Y-76402885D01*
X203232791Y-76402884D01*
X203232793Y-76402882D01*
X203277646Y-76274698D01*
X203280500Y-76244265D01*
X203280499Y-75135736D01*
X203277646Y-75105302D01*
X203274832Y-75097261D01*
X203232795Y-74977123D01*
X203232791Y-74977114D01*
X203152150Y-74867849D01*
X203042885Y-74787208D01*
X203042876Y-74787204D01*
X202914697Y-74742353D01*
X202884265Y-74739500D01*
X199875746Y-74739500D01*
X199875722Y-74739502D01*
X199845304Y-74742353D01*
X199845298Y-74742354D01*
X199717123Y-74787204D01*
X199717114Y-74787208D01*
X199607849Y-74867849D01*
X199527208Y-74977114D01*
X199527204Y-74977123D01*
X199482353Y-75105301D01*
X199482353Y-75105302D01*
X199479500Y-75135725D01*
X194502828Y-75135725D01*
X193207103Y-73840000D01*
X204922738Y-73840000D01*
X204945642Y-73909122D01*
X205037682Y-74058343D01*
X205161656Y-74182317D01*
X205310877Y-74274357D01*
X205477306Y-74329506D01*
X205580018Y-74339999D01*
X206630000Y-74339999D01*
X207630000Y-74339999D01*
X208679980Y-74339999D01*
X208782693Y-74329506D01*
X208949122Y-74274357D01*
X209098343Y-74182317D01*
X209222317Y-74058343D01*
X209314357Y-73909122D01*
X209337262Y-73840000D01*
X207630000Y-73840000D01*
X207630000Y-74339999D01*
X206630000Y-74339999D01*
X206630000Y-73840000D01*
X204922738Y-73840000D01*
X193207103Y-73840000D01*
X192207103Y-72840000D01*
X204922738Y-72840000D01*
X206630000Y-72840000D01*
X207630000Y-72840000D01*
X209337262Y-72840000D01*
X209314357Y-72770877D01*
X209222317Y-72621656D01*
X209098343Y-72497682D01*
X208949122Y-72405642D01*
X208782693Y-72350493D01*
X208679981Y-72340000D01*
X207630000Y-72340000D01*
X207630000Y-72840000D01*
X206630000Y-72840000D01*
X206630000Y-72340000D01*
X205580019Y-72340000D01*
X205477306Y-72350493D01*
X205310877Y-72405642D01*
X205161656Y-72497682D01*
X205037682Y-72621656D01*
X204945642Y-72770877D01*
X204922738Y-72840000D01*
X192207103Y-72840000D01*
X191336614Y-71969511D01*
X191233888Y-71910201D01*
X191233886Y-71910200D01*
X191209673Y-71903713D01*
X191179551Y-71895642D01*
X191119311Y-71879500D01*
X191119309Y-71879500D01*
X178160691Y-71879500D01*
X178160688Y-71879500D01*
X178070326Y-71903713D01*
X178046115Y-71910199D01*
X178046110Y-71910201D01*
X177943385Y-71969511D01*
X177943385Y-71969512D01*
X177029512Y-72883385D01*
X177029511Y-72883385D01*
X176970201Y-72986111D01*
X176968532Y-72992343D01*
X176968531Y-72992342D01*
X176968531Y-72992346D01*
X176939500Y-73100688D01*
X176939500Y-73374485D01*
X176931212Y-73401753D01*
X176930711Y-73402501D01*
X176899505Y-73423302D01*
X176862731Y-73415945D01*
X176849258Y-73402457D01*
X176834552Y-73380448D01*
X176768231Y-73336133D01*
X176709748Y-73324500D01*
X176182886Y-73324500D01*
X176148238Y-73310148D01*
X176136975Y-73292623D01*
X176133352Y-73282909D01*
X176047188Y-73167811D01*
X175932091Y-73081648D01*
X175797373Y-73031401D01*
X175737834Y-73025000D01*
X175690000Y-73025000D01*
X175690000Y-75579526D01*
X175701151Y-75606447D01*
X175686799Y-75641095D01*
X170782749Y-80545148D01*
X170748101Y-80559500D01*
X143900688Y-80559500D01*
X143810326Y-80583713D01*
X143786115Y-80590199D01*
X143786110Y-80590201D01*
X143683385Y-80649511D01*
X143683385Y-80649512D01*
X142639512Y-81693385D01*
X142639511Y-81693385D01*
X142580201Y-81796111D01*
X142578532Y-81802343D01*
X142578531Y-81802342D01*
X142578531Y-81802346D01*
X142549500Y-81910688D01*
X141887506Y-81910688D01*
X141887506Y-74743880D01*
X143499500Y-74743880D01*
X143499500Y-74777032D01*
X143499500Y-75006120D01*
X143533730Y-75266116D01*
X143533731Y-75266120D01*
X143533732Y-75266127D01*
X143601599Y-75519412D01*
X143601602Y-75519419D01*
X143701957Y-75761697D01*
X143764305Y-75869687D01*
X143833074Y-75988800D01*
X143833084Y-75988815D01*
X143992709Y-76196841D01*
X143992720Y-76196853D01*
X144178146Y-76382279D01*
X144178158Y-76382290D01*
X144386184Y-76541915D01*
X144386193Y-76541921D01*
X144386197Y-76541924D01*
X144613303Y-76673043D01*
X144855581Y-76773398D01*
X144855584Y-76773398D01*
X144855587Y-76773400D01*
X145108872Y-76841267D01*
X145108873Y-76841267D01*
X145108884Y-76841270D01*
X145368880Y-76875500D01*
X145368883Y-76875500D01*
X145631117Y-76875500D01*
X145631120Y-76875500D01*
X145891116Y-76841270D01*
X146144419Y-76773398D01*
X146386697Y-76673043D01*
X146613803Y-76541924D01*
X146652605Y-76512150D01*
X146821841Y-76382290D01*
X146821843Y-76382287D01*
X146821851Y-76382282D01*
X147007282Y-76196851D01*
X147166924Y-75988803D01*
X147298043Y-75761697D01*
X147398398Y-75519419D01*
X147401170Y-75509076D01*
X147466267Y-75266127D01*
X147466266Y-75266127D01*
X147466270Y-75266116D01*
X147500500Y-75006120D01*
X147500500Y-74743880D01*
X167999500Y-74743880D01*
X167999500Y-74777032D01*
X167999500Y-75006120D01*
X168033730Y-75266116D01*
X168033731Y-75266120D01*
X168033732Y-75266127D01*
X168101599Y-75519412D01*
X168101602Y-75519419D01*
X168201957Y-75761697D01*
X168264305Y-75869687D01*
X168333074Y-75988800D01*
X168333084Y-75988815D01*
X168492709Y-76196841D01*
X168492720Y-76196853D01*
X168678146Y-76382279D01*
X168678158Y-76382290D01*
X168886184Y-76541915D01*
X168886193Y-76541921D01*
X168886197Y-76541924D01*
X169113303Y-76673043D01*
X169355581Y-76773398D01*
X169355584Y-76773398D01*
X169355587Y-76773400D01*
X169608872Y-76841267D01*
X169608873Y-76841267D01*
X169608884Y-76841270D01*
X169868880Y-76875500D01*
X169868883Y-76875500D01*
X170131117Y-76875500D01*
X170131120Y-76875500D01*
X170391116Y-76841270D01*
X170644419Y-76773398D01*
X170886697Y-76673043D01*
X171113803Y-76541924D01*
X171152605Y-76512150D01*
X171321841Y-76382290D01*
X171321843Y-76382287D01*
X171321851Y-76382282D01*
X171507282Y-76196851D01*
X171666924Y-75988803D01*
X171798043Y-75761697D01*
X171898398Y-75519419D01*
X171901170Y-75509076D01*
X171966267Y-75266127D01*
X171966266Y-75266127D01*
X171966270Y-75266116D01*
X171985134Y-75122834D01*
X174590000Y-75122834D01*
X174596401Y-75182372D01*
X174596401Y-75182373D01*
X174646648Y-75317091D01*
X174732811Y-75432188D01*
X174847908Y-75518351D01*
X174982626Y-75568598D01*
X175042166Y-75575000D01*
X175090000Y-75575000D01*
X175090000Y-74600000D01*
X174590000Y-74600000D01*
X174590000Y-75122834D01*
X171985134Y-75122834D01*
X172000500Y-75006120D01*
X172000500Y-74743880D01*
X171966270Y-74483884D01*
X171944822Y-74403839D01*
X171898400Y-74230587D01*
X171898396Y-74230577D01*
X171878406Y-74182317D01*
X171798043Y-73988303D01*
X171666924Y-73761197D01*
X171666921Y-73761193D01*
X171666915Y-73761184D01*
X171507290Y-73553158D01*
X171507279Y-73553146D01*
X171431298Y-73477165D01*
X174590000Y-73477165D01*
X174590000Y-74000000D01*
X175090000Y-74000000D01*
X175090000Y-73025000D01*
X175042166Y-73025000D01*
X174982627Y-73031401D01*
X174982626Y-73031401D01*
X174847908Y-73081648D01*
X174732811Y-73167811D01*
X174646648Y-73282908D01*
X174596401Y-73417626D01*
X174596401Y-73417627D01*
X174590000Y-73477165D01*
X171431298Y-73477165D01*
X171321853Y-73367720D01*
X171321841Y-73367709D01*
X171113815Y-73208084D01*
X171113800Y-73208074D01*
X171000250Y-73142516D01*
X170886697Y-73076957D01*
X170703209Y-73000953D01*
X170644422Y-72976603D01*
X170644412Y-72976599D01*
X170391127Y-72908732D01*
X170391120Y-72908731D01*
X170391116Y-72908730D01*
X170131120Y-72874500D01*
X169868880Y-72874500D01*
X169608884Y-72908730D01*
X169608880Y-72908730D01*
X169608872Y-72908732D01*
X169355587Y-72976599D01*
X169355577Y-72976603D01*
X169196435Y-73042522D01*
X169113303Y-73076957D01*
X169113300Y-73076958D01*
X169113299Y-73076959D01*
X168886199Y-73208074D01*
X168886184Y-73208084D01*
X168678158Y-73367709D01*
X168678146Y-73367720D01*
X168492720Y-73553146D01*
X168492709Y-73553158D01*
X168333084Y-73761184D01*
X168333074Y-73761199D01*
X168201959Y-73988299D01*
X168101603Y-74230577D01*
X168101599Y-74230587D01*
X168033732Y-74483872D01*
X168033730Y-74483880D01*
X168033730Y-74483884D01*
X167999500Y-74743880D01*
X147500500Y-74743880D01*
X147466270Y-74483884D01*
X147444822Y-74403839D01*
X147398400Y-74230587D01*
X147398396Y-74230577D01*
X147378406Y-74182317D01*
X147298043Y-73988303D01*
X147166924Y-73761197D01*
X147166921Y-73761193D01*
X147166915Y-73761184D01*
X147007290Y-73553158D01*
X147007279Y-73553146D01*
X146821853Y-73367720D01*
X146821841Y-73367709D01*
X146613815Y-73208084D01*
X146613800Y-73208074D01*
X146500250Y-73142516D01*
X146386697Y-73076957D01*
X146203209Y-73000953D01*
X146144422Y-72976603D01*
X146144412Y-72976599D01*
X145891127Y-72908732D01*
X145891120Y-72908731D01*
X145891116Y-72908730D01*
X145631120Y-72874500D01*
X145368880Y-72874500D01*
X145108884Y-72908730D01*
X145108880Y-72908730D01*
X145108872Y-72908732D01*
X144855587Y-72976599D01*
X144855577Y-72976603D01*
X144696435Y-73042522D01*
X144613303Y-73076957D01*
X144613300Y-73076958D01*
X144613299Y-73076959D01*
X144386199Y-73208074D01*
X144386184Y-73208084D01*
X144178158Y-73367709D01*
X144178146Y-73367720D01*
X143992720Y-73553146D01*
X143992709Y-73553158D01*
X143833084Y-73761184D01*
X143833074Y-73761199D01*
X143701959Y-73988299D01*
X143601603Y-74230577D01*
X143601599Y-74230587D01*
X143533732Y-74483872D01*
X143533730Y-74483880D01*
X143533730Y-74483884D01*
X143499500Y-74743880D01*
X141887506Y-74743880D01*
X141887506Y-69480252D01*
X173289500Y-69480252D01*
X173289500Y-71319748D01*
X173301133Y-71378231D01*
X173318882Y-71404795D01*
X173345447Y-71444552D01*
X173372012Y-71462301D01*
X173411769Y-71488867D01*
X173470252Y-71500500D01*
X173470255Y-71500500D01*
X174709745Y-71500500D01*
X174709748Y-71500500D01*
X174768231Y-71488867D01*
X174834552Y-71444552D01*
X174878867Y-71378231D01*
X174890500Y-71319748D01*
X174890500Y-69480252D01*
X178889500Y-69480252D01*
X178889500Y-71319748D01*
X178901133Y-71378231D01*
X178918882Y-71404795D01*
X178945447Y-71444552D01*
X178972012Y-71462301D01*
X179011769Y-71488867D01*
X179070252Y-71500500D01*
X179070255Y-71500500D01*
X180309745Y-71500500D01*
X180309748Y-71500500D01*
X180368231Y-71488867D01*
X180434552Y-71444552D01*
X180478867Y-71378231D01*
X180490500Y-71319748D01*
X180490500Y-71035724D01*
X205179500Y-71035724D01*
X205179500Y-71644275D01*
X205182353Y-71674698D01*
X205182353Y-71674699D01*
X205227204Y-71802876D01*
X205227208Y-71802885D01*
X205307849Y-71912150D01*
X205417114Y-71992791D01*
X205417117Y-71992792D01*
X205417118Y-71992793D01*
X205417120Y-71992793D01*
X205417123Y-71992795D01*
X205545301Y-72037646D01*
X205575734Y-72040500D01*
X205575744Y-72040500D01*
X208684256Y-72040500D01*
X208684266Y-72040500D01*
X208714699Y-72037646D01*
X208842882Y-71992793D01*
X208952150Y-71912150D01*
X208976247Y-71879500D01*
X209027243Y-71810403D01*
X209059365Y-71791047D01*
X209066668Y-71790500D01*
X209363101Y-71790500D01*
X209397749Y-71804852D01*
X210265148Y-72672251D01*
X210279500Y-72706899D01*
X210279500Y-82493100D01*
X210265148Y-82527748D01*
X209303623Y-83489272D01*
X209268975Y-83503624D01*
X209234327Y-83489272D01*
X209229331Y-83483422D01*
X209228051Y-83481660D01*
X209228050Y-83481658D01*
X209138342Y-83391950D01*
X209138335Y-83391945D01*
X209025308Y-83334355D01*
X209025305Y-83334354D01*
X209025304Y-83334354D01*
X208931519Y-83319500D01*
X208931517Y-83319500D01*
X206768482Y-83319500D01*
X206674696Y-83334353D01*
X206561664Y-83391945D01*
X206561657Y-83391950D01*
X206471950Y-83481657D01*
X206471945Y-83481664D01*
X206414355Y-83594690D01*
X206414355Y-83594692D01*
X206399500Y-83688482D01*
X206399500Y-84351517D01*
X206414353Y-84445303D01*
X206471945Y-84558335D01*
X206471950Y-84558342D01*
X206561657Y-84648049D01*
X206561664Y-84648054D01*
X206674691Y-84705644D01*
X206674692Y-84705644D01*
X206674696Y-84705646D01*
X206768481Y-84720500D01*
X208931518Y-84720499D01*
X209025304Y-84705646D01*
X209086387Y-84674522D01*
X209138335Y-84648054D01*
X209138337Y-84648052D01*
X209138342Y-84648050D01*
X209228050Y-84558342D01*
X209258126Y-84499315D01*
X209259176Y-84497255D01*
X209287693Y-84472898D01*
X209302835Y-84470500D01*
X209469311Y-84470500D01*
X209531997Y-84453702D01*
X209563341Y-84445304D01*
X209563342Y-84445304D01*
X209567683Y-84444140D01*
X209583887Y-84439799D01*
X209686614Y-84380489D01*
X211090489Y-82976614D01*
X211149799Y-82873887D01*
X211165392Y-82815691D01*
X211180500Y-82759309D01*
X211180500Y-72440691D01*
X211180500Y-72440688D01*
X211151469Y-72332346D01*
X211151468Y-72332342D01*
X211151468Y-72332343D01*
X211149799Y-72326114D01*
X211149799Y-72326113D01*
X211090490Y-72223386D01*
X209846614Y-70979511D01*
X209743888Y-70920201D01*
X209743886Y-70920200D01*
X209719673Y-70913713D01*
X209689551Y-70905642D01*
X209629311Y-70889500D01*
X209629309Y-70889500D01*
X209066668Y-70889500D01*
X209032020Y-70875148D01*
X209027243Y-70869597D01*
X208952150Y-70767849D01*
X208842885Y-70687208D01*
X208842876Y-70687204D01*
X208714698Y-70642353D01*
X208684275Y-70639500D01*
X208684266Y-70639500D01*
X205575734Y-70639500D01*
X205575724Y-70639500D01*
X205545301Y-70642353D01*
X205545300Y-70642353D01*
X205417123Y-70687204D01*
X205417114Y-70687208D01*
X205307849Y-70767849D01*
X205227208Y-70877114D01*
X205227204Y-70877123D01*
X205182353Y-71005300D01*
X205182353Y-71005301D01*
X205179500Y-71035724D01*
X180490500Y-71035724D01*
X180490500Y-69480252D01*
X180478867Y-69421769D01*
X180452301Y-69382012D01*
X180434552Y-69355447D01*
X180394795Y-69328882D01*
X180368231Y-69311133D01*
X180309748Y-69299500D01*
X179070252Y-69299500D01*
X179011769Y-69311133D01*
X178945447Y-69355447D01*
X178908305Y-69411035D01*
X178901133Y-69421769D01*
X178889500Y-69480252D01*
X174890500Y-69480252D01*
X174878867Y-69421769D01*
X174852301Y-69382012D01*
X174834552Y-69355447D01*
X174794795Y-69328882D01*
X174768231Y-69311133D01*
X174709748Y-69299500D01*
X173470252Y-69299500D01*
X173411769Y-69311133D01*
X173345447Y-69355447D01*
X173308305Y-69411035D01*
X173301133Y-69421769D01*
X173289500Y-69480252D01*
X141887506Y-69480252D01*
X141887506Y-69411284D01*
X141887573Y-69408720D01*
X141893297Y-69299500D01*
X141905447Y-69067662D01*
X141905980Y-69062584D01*
X141959208Y-68726519D01*
X141960274Y-68721508D01*
X141960275Y-68721506D01*
X142027075Y-68472204D01*
X142039751Y-68450248D01*
X142054274Y-68435725D01*
X199479500Y-68435725D01*
X199479500Y-69544253D01*
X199479502Y-69544277D01*
X199482353Y-69574695D01*
X199482354Y-69574701D01*
X199527204Y-69702876D01*
X199527208Y-69702885D01*
X199607849Y-69812150D01*
X199717114Y-69892791D01*
X199717117Y-69892792D01*
X199717118Y-69892793D01*
X199717120Y-69892793D01*
X199717123Y-69892795D01*
X199845299Y-69937645D01*
X199845302Y-69937646D01*
X199875735Y-69940500D01*
X202884264Y-69940499D01*
X202914698Y-69937646D01*
X203042882Y-69892793D01*
X203152150Y-69812150D01*
X203232793Y-69702882D01*
X203277646Y-69574698D01*
X203280500Y-69544265D01*
X203280499Y-68592073D01*
X207874500Y-68592073D01*
X207874500Y-68629284D01*
X207874500Y-68837927D01*
X207906591Y-69081677D01*
X207906592Y-69081681D01*
X207906593Y-69081688D01*
X207970219Y-69319145D01*
X207970221Y-69319151D01*
X207970222Y-69319153D01*
X208064306Y-69546292D01*
X208080706Y-69574697D01*
X208187231Y-69759205D01*
X208187241Y-69759220D01*
X208336890Y-69954246D01*
X208336901Y-69954258D01*
X208510741Y-70128098D01*
X208510753Y-70128109D01*
X208705779Y-70277758D01*
X208705788Y-70277764D01*
X208705792Y-70277767D01*
X208918708Y-70400694D01*
X209145847Y-70494778D01*
X209145853Y-70494779D01*
X209145854Y-70494780D01*
X209383311Y-70558406D01*
X209383312Y-70558406D01*
X209383323Y-70558409D01*
X209627073Y-70590500D01*
X209627076Y-70590500D01*
X209872924Y-70590500D01*
X209872927Y-70590500D01*
X210116677Y-70558409D01*
X210354153Y-70494778D01*
X210581292Y-70400694D01*
X210794208Y-70277767D01*
X210989256Y-70128101D01*
X211163101Y-69954256D01*
X211173657Y-69940500D01*
X211312758Y-69759220D01*
X211312759Y-69759217D01*
X211312767Y-69759208D01*
X211435694Y-69546292D01*
X211529778Y-69319153D01*
X211593409Y-69081677D01*
X211625500Y-68837927D01*
X211625500Y-68592073D01*
X211593409Y-68348323D01*
X211529778Y-68110847D01*
X211435694Y-67883708D01*
X211312767Y-67670792D01*
X211312764Y-67670788D01*
X211312758Y-67670779D01*
X211163109Y-67475753D01*
X211163098Y-67475741D01*
X210989258Y-67301901D01*
X210989246Y-67301890D01*
X210794220Y-67152241D01*
X210794205Y-67152231D01*
X210581295Y-67029308D01*
X210581296Y-67029308D01*
X210581292Y-67029306D01*
X210354153Y-66935222D01*
X210354151Y-66935221D01*
X210354145Y-66935219D01*
X210116688Y-66871593D01*
X210116681Y-66871592D01*
X210116677Y-66871591D01*
X209872927Y-66839500D01*
X209627073Y-66839500D01*
X209383323Y-66871591D01*
X209383319Y-66871591D01*
X209383311Y-66871593D01*
X209145854Y-66935219D01*
X209145844Y-66935223D01*
X209051759Y-66974194D01*
X208918708Y-67029306D01*
X208918705Y-67029307D01*
X208918704Y-67029308D01*
X208705794Y-67152231D01*
X208705779Y-67152241D01*
X208510753Y-67301890D01*
X208510741Y-67301901D01*
X208336901Y-67475741D01*
X208336890Y-67475753D01*
X208187241Y-67670779D01*
X208187231Y-67670794D01*
X208064308Y-67883704D01*
X207970223Y-68110844D01*
X207970219Y-68110854D01*
X207906593Y-68348311D01*
X207906591Y-68348319D01*
X207906591Y-68348323D01*
X207874500Y-68592073D01*
X203280499Y-68592073D01*
X203280499Y-68435736D01*
X203277646Y-68405302D01*
X203272431Y-68390399D01*
X203232795Y-68277123D01*
X203232791Y-68277114D01*
X203152150Y-68167849D01*
X203042885Y-68087208D01*
X203042876Y-68087204D01*
X202914697Y-68042353D01*
X202884265Y-68039500D01*
X199875746Y-68039500D01*
X199875722Y-68039502D01*
X199845304Y-68042353D01*
X199845298Y-68042354D01*
X199717123Y-68087204D01*
X199717114Y-68087208D01*
X199607849Y-68167849D01*
X199527208Y-68277114D01*
X199527204Y-68277123D01*
X199482353Y-68405301D01*
X199482353Y-68405302D01*
X199479500Y-68435725D01*
X142054274Y-68435725D01*
X144227248Y-66262751D01*
X144249205Y-66250074D01*
X144498520Y-66183271D01*
X144503525Y-66182207D01*
X144839590Y-66128979D01*
X144844667Y-66128446D01*
X145135300Y-66113215D01*
X145185862Y-66110566D01*
X145188426Y-66110499D01*
X209124723Y-66110499D01*
X209127287Y-66110566D01*
G37*
%TD.AperFunction*%
%TD*%
M02*
