  0
SECTION
  2
HEADER
  9
$ANGBASE
  50
0.0
  9
$ANGDIR
  70
1
  9
$MEASUREMENT
  70
1
  0
ENDSEC
  0
SECTION
  2
TABLES
  0
TABLE
  2
LTYPE
  70
4
  0
LTYPE
  5
40F
  2
CONTINUOUS
  70
0
  3
Solid line
  72
65
  73
0
  40
0.0
  0
LTYPE
  5
410
  2
DASHDOT
 70
0
  3
Dash Dot ____ _ ____ _
 72
65
 73
4
 40
2.0
 49
1.25
 49
-0.25
 49
0.25
 49
-0.25
  0
LTYPE
  5
411
  2
DASHED
 70
0
  3
Dashed __ __ __ __ __
 72
65
 73
2
 40
0.75
 49
0.5
 49
-0.25
  0
LTYPE
  5
43B
  2
DOTTED
 70
0
  3
Dotted .  .  .  .
 72
65
 73
2
 40
0.2
 49
0.0
 49
-0.2
  0
ENDTAB
  0
TABLE
  2
STYLE
  70
4
  0
STYLE
  2
KICAD
  70
0
  40
0
  41
1
  42
1
  50
0
  71
0
  3
isocp.shx
  0
STYLE
  2
KICADB
  70
0
  40
0
  41
1
  42
1
  50
0
  71
0
  3
isocp.shx
  0
STYLE
  2
KICADI
  70
0
  40
0
  41
1
  42
1
  50
15
  71
0
  3
isocp.shx
  0
STYLE
  2
KICADBI
  70
0
  40
0
  41
1
  42
1
  50
15
  71
0
  3
isocp.shx
  0
ENDTAB
  0
TABLE
  2
LAYER
  70
1
  0
LAYER
  2
BLACK
  70
0
  62
7
  6
CONTINUOUS
  0
ENDTAB
  0
ENDSEC
  0
SECTION
  2
ENTITIES
0
LINE
8
BLACK
6
CONTINUOUS
10
208.9765369999999791
20
-88.5352239999999995
11
209.0414209999999855
21
-88.5785789999999906
0
LINE
8
BLACK
6
CONTINUOUS
10
209.0414209999999855
20
-88.5785789999999906
11
209.0847759999999766
21
-88.643462999999997
0
LINE
8
BLACK
6
CONTINUOUS
10
209.0847759999999766
20
-88.643462999999997
11
209.0999999999999943
21
-88.7199999999999989
0
LINE
8
BLACK
6
CONTINUOUS
10
209.0999999999999943
20
-88.7199999999999989
11
209.0999999999999943
21
-89.3199999999999932
0
LINE
8
BLACK
6
CONTINUOUS
10
209.0999999999999943
20
-89.3199999999999932
11
209.0847759999999766
21
-89.396536999999995
0
LINE
8
BLACK
6
CONTINUOUS
10
209.0847759999999766
20
-89.396536999999995
11
209.0414209999999855
21
-89.4614210000000014
0
LINE
8
BLACK
6
CONTINUOUS
10
209.0414209999999855
20
-89.4614210000000014
11
208.9765369999999791
21
-89.5047759999999926
0
LINE
8
BLACK
6
CONTINUOUS
10
208.9765369999999791
20
-89.5047759999999926
11
208.8999999999999773
21
-89.519999999999996
0
LINE
8
BLACK
6
CONTINUOUS
10
208.8999999999999773
20
-89.519999999999996
11
206.7999999999999829
21
-89.519999999999996
0
LINE
8
BLACK
6
CONTINUOUS
10
206.7999999999999829
20
-89.519999999999996
11
206.7234629999999811
21
-89.5047759999999926
0
LINE
8
BLACK
6
CONTINUOUS
10
206.7234629999999811
20
-89.5047759999999926
11
206.6585790000000031
21
-89.4614210000000014
0
LINE
8
BLACK
6
CONTINUOUS
10
206.6585790000000031
20
-89.4614210000000014
11
206.6152239999999836
21
-89.396536999999995
0
LINE
8
BLACK
6
CONTINUOUS
10
206.6152239999999836
20
-89.396536999999995
11
206.5999999999999943
21
-89.3199999999999932
0
LINE
8
BLACK
6
CONTINUOUS
10
206.5999999999999943
20
-89.3199999999999932
11
206.5999999999999943
21
-88.7199999999999989
0
LINE
8
BLACK
6
CONTINUOUS
10
206.5999999999999943
20
-88.7199999999999989
11
206.6152239999999836
21
-88.643462999999997
0
LINE
8
BLACK
6
CONTINUOUS
10
206.6152239999999836
20
-88.643462999999997
11
206.6585790000000031
21
-88.5785789999999906
0
LINE
8
BLACK
6
CONTINUOUS
10
206.6585790000000031
20
-88.5785789999999906
11
206.7234629999999811
21
-88.5352239999999995
0
LINE
8
BLACK
6
CONTINUOUS
10
206.7234629999999811
20
-88.5352239999999995
11
206.7999999999999829
21
-88.519999999999996
0
LINE
8
BLACK
6
CONTINUOUS
10
206.7999999999999829
20
-88.519999999999996
11
208.8999999999999773
21
-88.519999999999996
0
LINE
8
BLACK
6
CONTINUOUS
10
208.8999999999999773
20
-88.519999999999996
11
208.9765369999999791
21
-88.5352239999999995
0
LINE
8
BLACK
6
CONTINUOUS
10
208.9765369999999791
20
-86.0352239999999995
11
209.0414209999999855
21
-86.0785789999999906
0
LINE
8
BLACK
6
CONTINUOUS
10
209.0414209999999855
20
-86.0785789999999906
11
209.0847759999999766
21
-86.143462999999997
0
LINE
8
BLACK
6
CONTINUOUS
10
209.0847759999999766
20
-86.143462999999997
11
209.0999999999999943
21
-86.2199999999999989
0
LINE
8
BLACK
6
CONTINUOUS
10
209.0999999999999943
20
-86.2199999999999989
11
209.0999999999999943
21
-86.8199999999999932
0
LINE
8
BLACK
6
CONTINUOUS
10
209.0999999999999943
20
-86.8199999999999932
11
209.0847759999999766
21
-86.896536999999995
0
LINE
8
BLACK
6
CONTINUOUS
10
209.0847759999999766
20
-86.896536999999995
11
209.0414209999999855
21
-86.9614210000000014
0
LINE
8
BLACK
6
CONTINUOUS
10
209.0414209999999855
20
-86.9614210000000014
11
208.9765369999999791
21
-87.0047759999999926
0
LINE
8
BLACK
6
CONTINUOUS
10
208.9765369999999791
20
-87.0047759999999926
11
208.8999999999999773
21
-87.019999999999996
0
LINE
8
BLACK
6
CONTINUOUS
10
208.8999999999999773
20
-87.019999999999996
11
206.7999999999999829
21
-87.019999999999996
0
LINE
8
BLACK
6
CONTINUOUS
10
206.7999999999999829
20
-87.019999999999996
11
206.7234629999999811
21
-87.0047759999999926
0
LINE
8
BLACK
6
CONTINUOUS
10
206.7234629999999811
20
-87.0047759999999926
11
206.6585790000000031
21
-86.9614210000000014
0
LINE
8
BLACK
6
CONTINUOUS
10
206.6585790000000031
20
-86.9614210000000014
11
206.6152239999999836
21
-86.896536999999995
0
LINE
8
BLACK
6
CONTINUOUS
10
206.6152239999999836
20
-86.896536999999995
11
206.5999999999999943
21
-86.8199999999999932
0
LINE
8
BLACK
6
CONTINUOUS
10
206.5999999999999943
20
-86.8199999999999932
11
206.5999999999999943
21
-86.2199999999999989
0
LINE
8
BLACK
6
CONTINUOUS
10
206.5999999999999943
20
-86.2199999999999989
11
206.6152239999999836
21
-86.143462999999997
0
LINE
8
BLACK
6
CONTINUOUS
10
206.6152239999999836
20
-86.143462999999997
11
206.6585790000000031
21
-86.0785789999999906
0
LINE
8
BLACK
6
CONTINUOUS
10
206.6585790000000031
20
-86.0785789999999906
11
206.7234629999999811
21
-86.0352239999999995
0
LINE
8
BLACK
6
CONTINUOUS
10
206.7234629999999811
20
-86.0352239999999995
11
206.7999999999999829
21
-86.019999999999996
0
LINE
8
BLACK
6
CONTINUOUS
10
206.7999999999999829
20
-86.019999999999996
11
208.8999999999999773
21
-86.019999999999996
0
LINE
8
BLACK
6
CONTINUOUS
10
208.8999999999999773
20
-86.019999999999996
11
208.9765369999999791
21
-86.0352239999999995
0
LINE
8
BLACK
6
CONTINUOUS
10
208.9765369999999791
20
-83.5352239999999995
11
209.0414209999999855
21
-83.5785789999999906
0
LINE
8
BLACK
6
CONTINUOUS
10
209.0414209999999855
20
-83.5785789999999906
11
209.0847759999999766
21
-83.643462999999997
0
LINE
8
BLACK
6
CONTINUOUS
10
209.0847759999999766
20
-83.643462999999997
11
209.0999999999999943
21
-83.7199999999999989
0
LINE
8
BLACK
6
CONTINUOUS
10
209.0999999999999943
20
-83.7199999999999989
11
209.0999999999999943
21
-84.3199999999999932
0
LINE
8
BLACK
6
CONTINUOUS
10
209.0999999999999943
20
-84.3199999999999932
11
209.0847759999999766
21
-84.396536999999995
0
LINE
8
BLACK
6
CONTINUOUS
10
209.0847759999999766
20
-84.396536999999995
11
209.0414209999999855
21
-84.4614210000000014
0
LINE
8
BLACK
6
CONTINUOUS
10
209.0414209999999855
20
-84.4614210000000014
11
208.9765369999999791
21
-84.5047759999999926
0
LINE
8
BLACK
6
CONTINUOUS
10
208.9765369999999791
20
-84.5047759999999926
11
208.8999999999999773
21
-84.519999999999996
0
LINE
8
BLACK
6
CONTINUOUS
10
208.8999999999999773
20
-84.519999999999996
11
206.7999999999999829
21
-84.519999999999996
0
LINE
8
BLACK
6
CONTINUOUS
10
206.7999999999999829
20
-84.519999999999996
11
206.7234629999999811
21
-84.5047759999999926
0
LINE
8
BLACK
6
CONTINUOUS
10
206.7234629999999811
20
-84.5047759999999926
11
206.6585790000000031
21
-84.4614210000000014
0
LINE
8
BLACK
6
CONTINUOUS
10
206.6585790000000031
20
-84.4614210000000014
11
206.6152239999999836
21
-84.396536999999995
0
LINE
8
BLACK
6
CONTINUOUS
10
206.6152239999999836
20
-84.396536999999995
11
206.5999999999999943
21
-84.3199999999999932
0
LINE
8
BLACK
6
CONTINUOUS
10
206.5999999999999943
20
-84.3199999999999932
11
206.5999999999999943
21
-83.7199999999999989
0
LINE
8
BLACK
6
CONTINUOUS
10
206.5999999999999943
20
-83.7199999999999989
11
206.6152239999999836
21
-83.643462999999997
0
LINE
8
BLACK
6
CONTINUOUS
10
206.6152239999999836
20
-83.643462999999997
11
206.6585790000000031
21
-83.5785789999999906
0
LINE
8
BLACK
6
CONTINUOUS
10
206.6585790000000031
20
-83.5785789999999906
11
206.7234629999999811
21
-83.5352239999999995
0
LINE
8
BLACK
6
CONTINUOUS
10
206.7234629999999811
20
-83.5352239999999995
11
206.7999999999999829
21
-83.519999999999996
0
LINE
8
BLACK
6
CONTINUOUS
10
206.7999999999999829
20
-83.519999999999996
11
208.8999999999999773
21
-83.519999999999996
0
LINE
8
BLACK
6
CONTINUOUS
10
208.8999999999999773
20
-83.519999999999996
11
208.9765369999999791
21
-83.5352239999999995
0
LINE
8
BLACK
6
CONTINUOUS
10
202.9256699999999967
20
-74.9590299999999985
11
203.0067760000000021
21
-75.0132239999999939
0
LINE
8
BLACK
6
CONTINUOUS
10
203.0067760000000021
20
-75.0132239999999939
11
203.0609699999999975
21
-75.0943299999999994
0
LINE
8
BLACK
6
CONTINUOUS
10
203.0609699999999975
20
-75.0943299999999994
11
203.0799989999999866
21
-75.1900019999999927
0
LINE
8
BLACK
6
CONTINUOUS
10
203.0799989999999866
20
-75.1900019999999927
11
203.0799999999999841
21
-76.1899990000000003
0
LINE
8
BLACK
6
CONTINUOUS
10
203.0799999999999841
20
-76.1899990000000003
11
203.0609699999999975
21
-76.2856699999999961
0
LINE
8
BLACK
6
CONTINUOUS
10
203.0609699999999975
20
-76.2856699999999961
11
203.0067760000000021
21
-76.3667760000000015
0
LINE
8
BLACK
6
CONTINUOUS
10
203.0067760000000021
20
-76.3667760000000015
11
202.9256699999999967
21
-76.420969999999997
0
LINE
8
BLACK
6
CONTINUOUS
10
202.9256699999999967
20
-76.420969999999997
11
202.8299979999999891
21
-76.4399990000000003
0
LINE
8
BLACK
6
CONTINUOUS
10
202.8299979999999891
20
-76.4399990000000003
11
199.9300010000000043
21
-76.4399999999999977
0
LINE
8
BLACK
6
CONTINUOUS
10
199.9300010000000043
20
-76.4399999999999977
11
199.8343299999999942
21
-76.420969999999997
0
LINE
8
BLACK
6
CONTINUOUS
10
199.8343299999999942
20
-76.420969999999997
11
199.7532239999999888
21
-76.3667760000000015
0
LINE
8
BLACK
6
CONTINUOUS
10
199.7532239999999888
20
-76.3667760000000015
11
199.6990299999999934
21
-76.2856699999999961
0
LINE
8
BLACK
6
CONTINUOUS
10
199.6990299999999934
20
-76.2856699999999961
11
199.6800010000000043
21
-76.1899980000000028
0
LINE
8
BLACK
6
CONTINUOUS
10
199.6800010000000043
20
-76.1899980000000028
11
199.6799999999999784
21
-75.1900009999999952
0
LINE
8
BLACK
6
CONTINUOUS
10
199.6799999999999784
20
-75.1900009999999952
11
199.6990299999999934
21
-75.0943299999999994
0
LINE
8
BLACK
6
CONTINUOUS
10
199.6990299999999934
20
-75.0943299999999994
11
199.7532239999999888
21
-75.0132239999999939
0
LINE
8
BLACK
6
CONTINUOUS
10
199.7532239999999888
20
-75.0132239999999939
11
199.8343299999999942
21
-74.9590299999999985
0
LINE
8
BLACK
6
CONTINUOUS
10
199.8343299999999942
20
-74.9590299999999985
11
199.9300020000000018
21
-74.9400009999999952
0
LINE
8
BLACK
6
CONTINUOUS
10
199.9300020000000018
20
-74.9400009999999952
11
202.8299989999999866
21
-74.9399999999999977
0
LINE
8
BLACK
6
CONTINUOUS
10
202.8299989999999866
20
-74.9399999999999977
11
202.9256699999999967
21
-74.9590299999999985
0
LINE
8
BLACK
6
CONTINUOUS
10
175.6899999999999977
20
-75.0750000000000028
11
175.0900000000000034
21
-75.0750000000000028
0
LINE
8
BLACK
6
CONTINUOUS
10
175.0900000000000034
20
-75.0750000000000028
11
175.0900000000000034
21
-73.5249999999999915
0
LINE
8
BLACK
6
CONTINUOUS
10
175.0900000000000034
20
-73.5249999999999915
11
175.6899999999999977
21
-73.5249999999999915
0
LINE
8
BLACK
6
CONTINUOUS
10
175.6899999999999977
20
-73.5249999999999915
11
175.6899999999999977
21
-75.0750000000000028
0
LINE
8
BLACK
6
CONTINUOUS
10
176.6899999999999977
20
-75.0750000000000028
11
176.0900000000000034
21
-75.0750000000000028
0
LINE
8
BLACK
6
CONTINUOUS
10
176.0900000000000034
20
-75.0750000000000028
11
176.0900000000000034
21
-73.5249999999999915
0
LINE
8
BLACK
6
CONTINUOUS
10
176.0900000000000034
20
-73.5249999999999915
11
176.6899999999999977
21
-73.5249999999999915
0
LINE
8
BLACK
6
CONTINUOUS
10
176.6899999999999977
20
-73.5249999999999915
11
176.6899999999999977
21
-75.0750000000000028
0
LINE
8
BLACK
6
CONTINUOUS
10
177.6899999999999977
20
-75.0750000000000028
11
177.0900000000000034
21
-75.0750000000000028
0
LINE
8
BLACK
6
CONTINUOUS
10
177.0900000000000034
20
-75.0750000000000028
11
177.0900000000000034
21
-73.5249999999999915
0
LINE
8
BLACK
6
CONTINUOUS
10
177.0900000000000034
20
-73.5249999999999915
11
177.6899999999999977
21
-73.5249999999999915
0
LINE
8
BLACK
6
CONTINUOUS
10
177.6899999999999977
20
-73.5249999999999915
11
177.6899999999999977
21
-75.0750000000000028
0
LINE
8
BLACK
6
CONTINUOUS
10
178.6899999999999977
20
-75.0750000000000028
11
178.0900000000000034
21
-75.0750000000000028
0
LINE
8
BLACK
6
CONTINUOUS
10
178.0900000000000034
20
-75.0750000000000028
11
178.0900000000000034
21
-73.5249999999999915
0
LINE
8
BLACK
6
CONTINUOUS
10
178.0900000000000034
20
-73.5249999999999915
11
178.6899999999999977
21
-73.5249999999999915
0
LINE
8
BLACK
6
CONTINUOUS
10
178.6899999999999977
20
-73.5249999999999915
11
178.6899999999999977
21
-75.0750000000000028
0
LINE
8
BLACK
6
CONTINUOUS
10
208.7256709999999771
20
-72.85902999999999
11
208.8067769999999825
21
-72.9132230000000021
0
LINE
8
BLACK
6
CONTINUOUS
10
208.8067769999999825
20
-72.9132230000000021
11
208.8609699999999805
21
-72.9943289999999934
0
LINE
8
BLACK
6
CONTINUOUS
10
208.8609699999999805
20
-72.9943289999999934
11
208.8799999999999955
21
-73.0900000000000034
0
LINE
8
BLACK
6
CONTINUOUS
10
208.8799999999999955
20
-73.0900000000000034
11
208.8799999999999955
21
-73.5900000000000034
0
LINE
8
BLACK
6
CONTINUOUS
10
208.8799999999999955
20
-73.5900000000000034
11
208.8609699999999805
21
-73.6856709999999993
0
LINE
8
BLACK
6
CONTINUOUS
10
208.8609699999999805
20
-73.6856709999999993
11
208.8067769999999825
21
-73.7667769999999905
0
LINE
8
BLACK
6
CONTINUOUS
10
208.8067769999999825
20
-73.7667769999999905
11
208.7256709999999771
21
-73.8209700000000026
0
LINE
8
BLACK
6
CONTINUOUS
10
208.7256709999999771
20
-73.8209700000000026
11
208.6299999999999955
21
-73.8400000000000034
0
LINE
8
BLACK
6
CONTINUOUS
10
208.6299999999999955
20
-73.8400000000000034
11
205.6299999999999955
21
-73.8400000000000034
0
LINE
8
BLACK
6
CONTINUOUS
10
205.6299999999999955
20
-73.8400000000000034
11
205.5343289999999854
21
-73.8209700000000026
0
LINE
8
BLACK
6
CONTINUOUS
10
205.5343289999999854
20
-73.8209700000000026
11
205.4532229999999799
21
-73.7667769999999905
0
LINE
8
BLACK
6
CONTINUOUS
10
205.4532229999999799
20
-73.7667769999999905
11
205.399029999999982
21
-73.6856709999999993
0
LINE
8
BLACK
6
CONTINUOUS
10
205.399029999999982
20
-73.6856709999999993
11
205.3799999999999955
21
-73.5900000000000034
0
LINE
8
BLACK
6
CONTINUOUS
10
205.3799999999999955
20
-73.5900000000000034
11
205.3799999999999955
21
-73.0900000000000034
0
LINE
8
BLACK
6
CONTINUOUS
10
205.3799999999999955
20
-73.0900000000000034
11
205.399029999999982
21
-72.9943289999999934
0
LINE
8
BLACK
6
CONTINUOUS
10
205.399029999999982
20
-72.9943289999999934
11
205.4532229999999799
21
-72.9132230000000021
0
LINE
8
BLACK
6
CONTINUOUS
10
205.4532229999999799
20
-72.9132230000000021
11
205.5343289999999854
21
-72.85902999999999
0
LINE
8
BLACK
6
CONTINUOUS
10
205.5343289999999854
20
-72.85902999999999
11
205.6299999999999955
21
-72.8400000000000034
0
LINE
8
BLACK
6
CONTINUOUS
10
205.6299999999999955
20
-72.8400000000000034
11
208.6299999999999955
21
-72.8400000000000034
0
LINE
8
BLACK
6
CONTINUOUS
10
208.6299999999999955
20
-72.8400000000000034
11
208.7256709999999771
21
-72.85902999999999
0
LINE
8
BLACK
6
CONTINUOUS
10
208.7256709999999771
20
-70.85902999999999
11
208.8067769999999825
21
-70.9132230000000021
0
LINE
8
BLACK
6
CONTINUOUS
10
208.8067769999999825
20
-70.9132230000000021
11
208.8609699999999805
21
-70.9943289999999934
0
LINE
8
BLACK
6
CONTINUOUS
10
208.8609699999999805
20
-70.9943289999999934
11
208.8799999999999955
21
-71.0900000000000034
0
LINE
8
BLACK
6
CONTINUOUS
10
208.8799999999999955
20
-71.0900000000000034
11
208.8799999999999955
21
-71.5900000000000034
0
LINE
8
BLACK
6
CONTINUOUS
10
208.8799999999999955
20
-71.5900000000000034
11
208.8609699999999805
21
-71.6856709999999993
0
LINE
8
BLACK
6
CONTINUOUS
10
208.8609699999999805
20
-71.6856709999999993
11
208.8067769999999825
21
-71.7667769999999905
0
LINE
8
BLACK
6
CONTINUOUS
10
208.8067769999999825
20
-71.7667769999999905
11
208.7256709999999771
21
-71.8209700000000026
0
LINE
8
BLACK
6
CONTINUOUS
10
208.7256709999999771
20
-71.8209700000000026
11
208.6299999999999955
21
-71.8400000000000034
0
LINE
8
BLACK
6
CONTINUOUS
10
208.6299999999999955
20
-71.8400000000000034
11
205.6299999999999955
21
-71.8400000000000034
0
LINE
8
BLACK
6
CONTINUOUS
10
205.6299999999999955
20
-71.8400000000000034
11
205.5343289999999854
21
-71.8209700000000026
0
LINE
8
BLACK
6
CONTINUOUS
10
205.5343289999999854
20
-71.8209700000000026
11
205.4532229999999799
21
-71.7667769999999905
0
LINE
8
BLACK
6
CONTINUOUS
10
205.4532229999999799
20
-71.7667769999999905
11
205.399029999999982
21
-71.6856709999999993
0
LINE
8
BLACK
6
CONTINUOUS
10
205.399029999999982
20
-71.6856709999999993
11
205.3799999999999955
21
-71.5900000000000034
0
LINE
8
BLACK
6
CONTINUOUS
10
205.3799999999999955
20
-71.5900000000000034
11
205.3799999999999955
21
-71.0900000000000034
0
LINE
8
BLACK
6
CONTINUOUS
10
205.3799999999999955
20
-71.0900000000000034
11
205.399029999999982
21
-70.9943289999999934
0
LINE
8
BLACK
6
CONTINUOUS
10
205.399029999999982
20
-70.9943289999999934
11
205.4532229999999799
21
-70.9132230000000021
0
LINE
8
BLACK
6
CONTINUOUS
10
205.4532229999999799
20
-70.9132230000000021
11
205.5343289999999854
21
-70.85902999999999
0
LINE
8
BLACK
6
CONTINUOUS
10
205.5343289999999854
20
-70.85902999999999
11
205.6299999999999955
21
-70.8400000000000034
0
LINE
8
BLACK
6
CONTINUOUS
10
205.6299999999999955
20
-70.8400000000000034
11
208.6299999999999955
21
-70.8400000000000034
0
LINE
8
BLACK
6
CONTINUOUS
10
208.6299999999999955
20
-70.8400000000000034
11
208.7256709999999771
21
-70.85902999999999
0
LINE
8
BLACK
6
CONTINUOUS
10
174.6899999999999977
20
-71.2999999999999972
11
173.4899999999999807
21
-71.2999999999999972
0
LINE
8
BLACK
6
CONTINUOUS
10
173.4899999999999807
20
-71.2999999999999972
11
173.4899999999999807
21
-69.5
0
LINE
8
BLACK
6
CONTINUOUS
10
173.4899999999999807
20
-69.5
11
174.6899999999999977
21
-69.5
0
LINE
8
BLACK
6
CONTINUOUS
10
174.6899999999999977
20
-69.5
11
174.6899999999999977
21
-71.2999999999999972
0
LINE
8
BLACK
6
CONTINUOUS
10
180.289999999999992
20
-71.2999999999999972
11
179.0900000000000034
21
-71.2999999999999972
0
LINE
8
BLACK
6
CONTINUOUS
10
179.0900000000000034
20
-71.2999999999999972
11
179.0900000000000034
21
-69.5
0
LINE
8
BLACK
6
CONTINUOUS
10
179.0900000000000034
20
-69.5
11
180.289999999999992
21
-69.5
0
LINE
8
BLACK
6
CONTINUOUS
10
180.289999999999992
20
-69.5
11
180.289999999999992
21
-71.2999999999999972
0
LINE
8
BLACK
6
CONTINUOUS
10
202.9256699999999967
20
-68.2590299999999957
11
203.0067760000000021
21
-68.3132239999999911
0
LINE
8
BLACK
6
CONTINUOUS
10
203.0067760000000021
20
-68.3132239999999911
11
203.0609699999999975
21
-68.3943299999999965
0
LINE
8
BLACK
6
CONTINUOUS
10
203.0609699999999975
20
-68.3943299999999965
11
203.0799989999999866
21
-68.4900019999999898
0
LINE
8
BLACK
6
CONTINUOUS
10
203.0799989999999866
20
-68.4900019999999898
11
203.0799999999999841
21
-69.4899989999999974
0
LINE
8
BLACK
6
CONTINUOUS
10
203.0799999999999841
20
-69.4899989999999974
11
203.0609699999999975
21
-69.5856699999999933
0
LINE
8
BLACK
6
CONTINUOUS
10
203.0609699999999975
20
-69.5856699999999933
11
203.0067760000000021
21
-69.6667759999999987
0
LINE
8
BLACK
6
CONTINUOUS
10
203.0067760000000021
20
-69.6667759999999987
11
202.9256699999999967
21
-69.7209699999999941
0
LINE
8
BLACK
6
CONTINUOUS
10
202.9256699999999967
20
-69.7209699999999941
11
202.8299979999999891
21
-69.7399989999999974
0
LINE
8
BLACK
6
CONTINUOUS
10
202.8299979999999891
20
-69.7399989999999974
11
199.9300010000000043
21
-69.7399999999999949
0
LINE
8
BLACK
6
CONTINUOUS
10
199.9300010000000043
20
-69.7399999999999949
11
199.8343299999999942
21
-69.7209699999999941
0
LINE
8
BLACK
6
CONTINUOUS
10
199.8343299999999942
20
-69.7209699999999941
11
199.7532239999999888
21
-69.6667759999999987
0
LINE
8
BLACK
6
CONTINUOUS
10
199.7532239999999888
20
-69.6667759999999987
11
199.6990299999999934
21
-69.5856699999999933
0
LINE
8
BLACK
6
CONTINUOUS
10
199.6990299999999934
20
-69.5856699999999933
11
199.6800010000000043
21
-69.4899979999999999
0
LINE
8
BLACK
6
CONTINUOUS
10
199.6800010000000043
20
-69.4899979999999999
11
199.6799999999999784
21
-68.4900009999999924
0
LINE
8
BLACK
6
CONTINUOUS
10
199.6799999999999784
20
-68.4900009999999924
11
199.6990299999999934
21
-68.3943299999999965
0
LINE
8
BLACK
6
CONTINUOUS
10
199.6990299999999934
20
-68.3943299999999965
11
199.7532239999999888
21
-68.3132239999999911
0
LINE
8
BLACK
6
CONTINUOUS
10
199.7532239999999888
20
-68.3132239999999911
11
199.8343299999999942
21
-68.2590299999999957
0
LINE
8
BLACK
6
CONTINUOUS
10
199.8343299999999942
20
-68.2590299999999957
11
199.9300020000000018
21
-68.2400009999999924
0
LINE
8
BLACK
6
CONTINUOUS
10
199.9300020000000018
20
-68.2400009999999924
11
202.8299989999999866
21
-68.2399999999999949
0
LINE
8
BLACK
6
CONTINUOUS
10
202.8299989999999866
20
-68.2399999999999949
11
202.9256699999999967
21
-68.2590299999999957
  0
ENDSEC
  0
EOF
