  0
SECTION
  2
HEADER
  9
$ANGBASE
  50
0.0
  9
$ANGDIR
  70
1
  9
$MEASUREMENT
  70
1
  0
ENDSEC
  0
SECTION
  2
TABLES
  0
TABLE
  2
LTYPE
  70
4
  0
LTYPE
  5
40F
  2
CONTINUOUS
  70
0
  3
Solid line
  72
65
  73
0
  40
0.0
  0
LTYPE
  5
410
  2
DASHDOT
 70
0
  3
Dash Dot ____ _ ____ _
 72
65
 73
4
 40
2.0
 49
1.25
 49
-0.25
 49
0.25
 49
-0.25
  0
LTYPE
  5
411
  2
DASHED
 70
0
  3
Dashed __ __ __ __ __
 72
65
 73
2
 40
0.75
 49
0.5
 49
-0.25
  0
LTYPE
  5
43B
  2
DOTTED
 70
0
  3
Dotted .  .  .  .
 72
65
 73
2
 40
0.2
 49
0.0
 49
-0.2
  0
ENDTAB
  0
TABLE
  2
STYLE
  70
4
  0
STYLE
  2
KICAD
  70
0
  40
0
  41
1
  42
1
  50
0
  71
0
  3
isocp.shx
  0
STYLE
  2
KICADB
  70
0
  40
0
  41
1
  42
1
  50
0
  71
0
  3
isocp.shx
  0
STYLE
  2
KICADI
  70
0
  40
0
  41
1
  42
1
  50
15
  71
0
  3
isocp.shx
  0
STYLE
  2
KICADBI
  70
0
  40
0
  41
1
  42
1
  50
15
  71
0
  3
isocp.shx
  0
ENDTAB
  0
TABLE
  2
LAYER
  70
1
  0
LAYER
  2
BLACK
  70
0
  62
7
  6
CONTINUOUS
  0
ENDTAB
  0
ENDSEC
  0
SECTION
  2
ENTITIES
0
LINE
8
BLACK
6
CONTINUOUS
10
205.7177789999999789
20
-80.1577630000000028
11
205.7215850000000046
21
-80.1768969999999968
0
LINE
8
BLACK
6
CONTINUOUS
10
205.7215850000000046
20
-80.1768969999999968
11
205.7215850000000046
21
-80.4126109999999983
0
LINE
8
BLACK
6
CONTINUOUS
10
205.7215850000000046
20
-80.4126109999999983
11
206.6715849999999932
21
-80.4126109999999983
0
LINE
8
BLACK
6
CONTINUOUS
10
206.6715849999999932
20
-80.4126109999999983
11
206.6907190000000014
21
-80.4164169999999956
0
LINE
8
BLACK
6
CONTINUOUS
10
206.6907190000000014
20
-80.4164169999999956
11
206.6943589999999915
21
-80.4200569999999999
0
LINE
8
BLACK
6
CONTINUOUS
10
206.6943589999999915
20
-80.4200569999999999
11
206.6994069999999795
21
-80.4210669999999936
0
LINE
8
BLACK
6
CONTINUOUS
10
206.6994069999999795
20
-80.4210669999999936
11
206.7074839999999938
21
-80.4331820000000022
0
LINE
8
BLACK
6
CONTINUOUS
10
206.7074839999999938
20
-80.4331820000000022
11
206.7177789999999789
21
-80.4434770000000015
0
LINE
8
BLACK
6
CONTINUOUS
10
206.7177789999999789
20
-80.4434770000000015
11
206.7177789999999789
21
-80.4486229999999978
0
LINE
8
BLACK
6
CONTINUOUS
10
206.7177789999999789
20
-80.4486229999999978
11
206.7206349999999873
21
-80.4529069999999962
0
LINE
8
BLACK
6
CONTINUOUS
10
206.7206349999999873
20
-80.4529069999999962
11
206.7177789999999789
21
-80.4671850000000006
0
LINE
8
BLACK
6
CONTINUOUS
10
206.7177789999999789
20
-80.4671850000000006
11
206.7177789999999789
21
-80.4817449999999894
0
LINE
8
BLACK
6
CONTINUOUS
10
206.7177789999999789
20
-80.4817449999999894
11
206.7141379999999913
21
-80.4853849999999937
0
LINE
8
BLACK
6
CONTINUOUS
10
206.7141379999999913
20
-80.4853849999999937
11
206.7131289999999808
21
-80.4904329999999959
0
LINE
8
BLACK
6
CONTINUOUS
10
206.7131289999999808
20
-80.4904329999999959
11
206.6993200000000002
21
-80.5042129999999929
0
LINE
8
BLACK
6
CONTINUOUS
10
206.6993200000000002
20
-80.5042129999999929
11
206.5605789999999899
21
-80.596706999999995
0
LINE
8
BLACK
6
CONTINUOUS
10
206.5605789999999899
20
-80.596706999999995
11
206.4745829999999955
21
-80.6827040000000011
0
LINE
8
BLACK
6
CONTINUOUS
10
206.4745829999999955
20
-80.6827040000000011
11
206.4305919999999901
21
-80.7706859999999978
0
LINE
8
BLACK
6
CONTINUOUS
10
206.4305919999999901
20
-80.7706859999999978
11
206.4186310000000049
21
-80.7860979999999955
0
LINE
8
BLACK
6
CONTINUOUS
10
206.4186310000000049
20
-80.7860979999999955
11
206.3823259999999777
21
-80.7981989999999968
0
LINE
8
BLACK
6
CONTINUOUS
10
206.3823259999999777
20
-80.7981989999999968
11
206.3480979999999931
21
-80.7810849999999903
0
LINE
8
BLACK
6
CONTINUOUS
10
206.3480979999999931
20
-80.7810849999999903
11
206.3359969999999919
21
-80.7447799999999916
0
LINE
8
BLACK
6
CONTINUOUS
10
206.3359969999999919
20
-80.7447799999999916
11
206.341149999999999
21
-80.7259639999999905
0
LINE
8
BLACK
6
CONTINUOUS
10
206.341149999999999
20
-80.7259639999999905
11
206.3887679999999989
21
-80.6307269999999932
0
LINE
8
BLACK
6
CONTINUOUS
10
206.3887679999999989
20
-80.6307269999999932
11
206.3936829999999816
21
-80.6243929999999978
0
LINE
8
BLACK
6
CONTINUOUS
10
206.3936829999999816
20
-80.6243929999999978
11
206.3981349999999964
21
-80.6177319999999895
0
LINE
8
BLACK
6
CONTINUOUS
10
206.3981349999999964
20
-80.6177319999999895
11
206.4933729999999912
21
-80.5224939999999947
0
LINE
8
BLACK
6
CONTINUOUS
10
206.4933729999999912
20
-80.5224939999999947
11
206.4974859999999808
21
-80.5197450000000003
0
LINE
8
BLACK
6
CONTINUOUS
10
206.4974859999999808
20
-80.5197450000000003
11
206.500992999999994
21
-80.5162459999999953
0
LINE
8
BLACK
6
CONTINUOUS
10
206.500992999999994
20
-80.5162459999999953
11
206.5064449999999852
21
-80.5126109999999926
0
LINE
8
BLACK
6
CONTINUOUS
10
206.5064449999999852
20
-80.5126109999999926
11
205.7215850000000046
21
-80.5126109999999926
0
LINE
8
BLACK
6
CONTINUOUS
10
205.7215850000000046
20
-80.5126109999999926
11
205.7215850000000046
21
-80.7483249999999941
0
LINE
8
BLACK
6
CONTINUOUS
10
205.7215850000000046
20
-80.7483249999999941
11
205.7177789999999789
21
-80.7674590000000023
0
LINE
8
BLACK
6
CONTINUOUS
10
205.7177789999999789
20
-80.7674590000000023
11
205.6907190000000014
21
-80.794518999999994
0
LINE
8
BLACK
6
CONTINUOUS
10
205.6907190000000014
20
-80.794518999999994
11
205.652450999999985
21
-80.794518999999994
0
LINE
8
BLACK
6
CONTINUOUS
10
205.652450999999985
20
-80.794518999999994
11
205.6253909999999792
21
-80.7674590000000023
0
LINE
8
BLACK
6
CONTINUOUS
10
205.6253909999999792
20
-80.7674590000000023
11
205.6215849999999818
21
-80.7483249999999941
0
LINE
8
BLACK
6
CONTINUOUS
10
205.6215849999999818
20
-80.7483249999999941
11
205.6215849999999818
21
-80.1768969999999968
0
LINE
8
BLACK
6
CONTINUOUS
10
205.6215849999999818
20
-80.1768969999999968
11
205.6253909999999792
21
-80.1577630000000028
0
LINE
8
BLACK
6
CONTINUOUS
10
205.6253909999999792
20
-80.1577630000000028
11
205.652450999999985
21
-80.1307029999999969
0
LINE
8
BLACK
6
CONTINUOUS
10
205.652450999999985
20
-80.1307029999999969
11
205.6907190000000014
21
-80.1307029999999969
0
LINE
8
BLACK
6
CONTINUOUS
10
205.6907190000000014
20
-80.1307029999999969
11
205.7177789999999789
21
-80.1577630000000028
0
LINE
8
BLACK
6
CONTINUOUS
10
209.6032029999999793
20
-87.1793679999999966
11
209.6302389999999889
21
-87.1905670000000015
0
LINE
8
BLACK
6
CONTINUOUS
10
209.6302389999999889
20
-87.1905670000000015
11
209.6509309999999857
21
-87.2112589999999983
0
LINE
8
BLACK
6
CONTINUOUS
10
209.6509309999999857
20
-87.2112589999999983
11
209.6621299999999906
21
-87.2382949999999937
0
LINE
8
BLACK
6
CONTINUOUS
10
209.6621299999999906
20
-87.2382949999999937
11
209.6621299999999906
21
-87.2675589999999914
0
LINE
8
BLACK
6
CONTINUOUS
10
209.6621299999999906
20
-87.2675589999999914
11
209.6509309999999857
21
-87.2945950000000011
0
LINE
8
BLACK
6
CONTINUOUS
10
209.6509309999999857
20
-87.2945950000000011
11
209.6302389999999889
21
-87.3152869999999979
0
LINE
8
BLACK
6
CONTINUOUS
10
209.6302389999999889
20
-87.3152869999999979
11
209.6032029999999793
21
-87.3264860000000027
0
LINE
8
BLACK
6
CONTINUOUS
10
209.6032029999999793
20
-87.3264860000000027
11
209.5885710000000017
21
-87.3279270000000025
0
LINE
8
BLACK
6
CONTINUOUS
10
209.5885710000000017
20
-87.3279270000000025
11
208.7967529999999954
21
-87.3279270000000025
0
LINE
8
BLACK
6
CONTINUOUS
10
208.7967529999999954
20
-87.3279270000000025
11
208.7282369999999787
21
-87.3621849999999966
0
LINE
8
BLACK
6
CONTINUOUS
10
208.7282369999999787
20
-87.3621849999999966
11
208.7244069999999851
21
-87.3660129999999953
0
LINE
8
BLACK
6
CONTINUOUS
10
208.7244069999999851
20
-87.3660129999999953
11
208.7554329999999823
21
-87.3970389999999924
0
LINE
8
BLACK
6
CONTINUOUS
10
208.7554329999999823
20
-87.3970389999999924
11
208.7599999999999909
21
-87.4200000000000017
0
LINE
8
BLACK
6
CONTINUOUS
10
208.7599999999999909
20
-87.4200000000000017
11
208.7599999999999909
21
-87.7309779999999932
0
LINE
8
BLACK
6
CONTINUOUS
10
208.7599999999999909
20
-87.7309779999999932
11
208.7967529999999954
21
-87.7493549999999942
0
LINE
8
BLACK
6
CONTINUOUS
10
208.7967529999999954
20
-87.7493549999999942
11
209.5885710000000017
21
-87.7493549999999942
0
LINE
8
BLACK
6
CONTINUOUS
10
209.5885710000000017
20
-87.7493549999999942
11
209.6032029999999793
21
-87.750795999999994
0
LINE
8
BLACK
6
CONTINUOUS
10
209.6032029999999793
20
-87.750795999999994
11
209.6302389999999889
21
-87.7619949999999989
0
LINE
8
BLACK
6
CONTINUOUS
10
209.6302389999999889
20
-87.7619949999999989
11
209.6509309999999857
21
-87.7826869999999957
0
LINE
8
BLACK
6
CONTINUOUS
10
209.6509309999999857
20
-87.7826869999999957
11
209.6621299999999906
21
-87.8097229999999911
0
LINE
8
BLACK
6
CONTINUOUS
10
209.6621299999999906
20
-87.8097229999999911
11
209.6621299999999906
21
-87.838987000000003
0
LINE
8
BLACK
6
CONTINUOUS
10
209.6621299999999906
20
-87.838987000000003
11
209.6509309999999857
21
-87.8660229999999984
0
LINE
8
BLACK
6
CONTINUOUS
10
209.6509309999999857
20
-87.8660229999999984
11
209.6302389999999889
21
-87.8867149999999953
0
LINE
8
BLACK
6
CONTINUOUS
10
209.6302389999999889
20
-87.8867149999999953
11
209.6032029999999793
21
-87.8979140000000001
0
LINE
8
BLACK
6
CONTINUOUS
10
209.6032029999999793
20
-87.8979140000000001
11
209.5885710000000017
21
-87.8993549999999999
0
LINE
8
BLACK
6
CONTINUOUS
10
209.5885710000000017
20
-87.8993549999999999
11
208.7790479999999889
21
-87.8993549999999999
0
LINE
8
BLACK
6
CONTINUOUS
10
208.7790479999999889
20
-87.8993549999999999
11
208.7644159999999829
21
-87.8979140000000001
0
LINE
8
BLACK
6
CONTINUOUS
10
208.7644159999999829
20
-87.8979140000000001
11
208.7619269999999858
21
-87.8968830000000025
0
LINE
8
BLACK
6
CONTINUOUS
10
208.7619269999999858
20
-87.8968830000000025
11
208.7599999999999909
21
-87.8967459999999932
0
LINE
8
BLACK
6
CONTINUOUS
10
208.7599999999999909
20
-87.8967459999999932
11
208.7599999999999909
21
-88.1199999999999903
0
LINE
8
BLACK
6
CONTINUOUS
10
208.7599999999999909
20
-88.1199999999999903
11
208.7554329999999823
21
-88.1429609999999997
0
LINE
8
BLACK
6
CONTINUOUS
10
208.7554329999999823
20
-88.1429609999999997
11
208.722960999999998
21
-88.1754329999999982
0
LINE
8
BLACK
6
CONTINUOUS
10
208.722960999999998
20
-88.1754329999999982
11
208.6770389999999793
21
-88.1754329999999982
0
LINE
8
BLACK
6
CONTINUOUS
10
208.6770389999999793
20
-88.1754329999999982
11
208.644566999999995
21
-88.1429609999999997
0
LINE
8
BLACK
6
CONTINUOUS
10
208.644566999999995
20
-88.1429609999999997
11
208.6399999999999864
21
-88.1199999999999903
0
LINE
8
BLACK
6
CONTINUOUS
10
208.6399999999999864
20
-88.1199999999999903
11
208.6399999999999864
21
-87.8373529999999931
0
LINE
8
BLACK
6
CONTINUOUS
10
208.6399999999999864
20
-87.8373529999999931
11
208.6378259999999898
21
-87.8359859999999912
0
LINE
8
BLACK
6
CONTINUOUS
10
208.6378259999999898
20
-87.8359859999999912
11
208.6365260000000035
21
-87.8344869999999958
0
LINE
8
BLACK
6
CONTINUOUS
10
208.6365260000000035
20
-87.8344869999999958
11
208.6307769999999948
21
-87.8297689999999989
0
LINE
8
BLACK
6
CONTINUOUS
10
208.6307769999999948
20
-87.8297689999999989
11
208.5831579999999974
21
-87.7821500000000015
0
LINE
8
BLACK
6
CONTINUOUS
10
208.5831579999999974
20
-87.7821500000000015
11
208.5784400000000005
21
-87.7764009999999928
0
LINE
8
BLACK
6
CONTINUOUS
10
208.5784400000000005
20
-87.7764009999999928
11
208.5769420000000025
21
-87.7751019999999897
0
LINE
8
BLACK
6
CONTINUOUS
10
208.5769420000000025
20
-87.7751019999999897
11
208.5755189999999857
21
-87.7728419999999971
0
LINE
8
BLACK
6
CONTINUOUS
10
208.5755189999999857
20
-87.7728419999999971
11
208.5738309999999842
21
-87.7707849999999894
0
LINE
8
BLACK
6
CONTINUOUS
10
208.5738309999999842
20
-87.7707849999999894
11
208.5730739999999912
21
-87.7689570000000003
0
LINE
8
BLACK
6
CONTINUOUS
10
208.5730739999999912
20
-87.7689570000000003
11
208.5691089999999974
21
-87.7626589999999993
0
LINE
8
BLACK
6
CONTINUOUS
10
208.5691089999999974
20
-87.7626589999999993
11
208.5214890000000025
21
-87.6674209999999903
0
LINE
8
BLACK
6
CONTINUOUS
10
208.5214890000000025
20
-87.6674209999999903
11
208.5162339999999972
21
-87.653689
0
LINE
8
BLACK
6
CONTINUOUS
10
208.5162339999999972
20
-87.653689
11
208.5160419999999988
21
-87.6509989999999988
0
LINE
8
BLACK
6
CONTINUOUS
10
208.5160419999999988
20
-87.6509989999999988
11
208.5150119999999845
21
-87.6485109999999992
0
LINE
8
BLACK
6
CONTINUOUS
10
208.5150119999999845
20
-87.6485109999999992
11
208.5135709999999847
21
-87.6338789999999932
0
LINE
8
BLACK
6
CONTINUOUS
10
208.5135709999999847
20
-87.6338789999999932
11
208.5135709999999847
21
-87.4434029999999893
0
LINE
8
BLACK
6
CONTINUOUS
10
208.5135709999999847
20
-87.4434029999999893
11
208.5150119999999845
21
-87.4287709999999976
0
LINE
8
BLACK
6
CONTINUOUS
10
208.5150119999999845
20
-87.4287709999999976
11
208.5160419999999988
21
-87.4262820000000005
0
LINE
8
BLACK
6
CONTINUOUS
10
208.5160419999999988
20
-87.4262820000000005
11
208.5162339999999972
21
-87.4235929999999968
0
LINE
8
BLACK
6
CONTINUOUS
10
208.5162339999999972
20
-87.4235929999999968
11
208.5214890000000025
21
-87.4098609999999923
0
LINE
8
BLACK
6
CONTINUOUS
10
208.5214890000000025
20
-87.4098609999999923
11
208.5691089999999974
21
-87.3146229999999974
0
LINE
8
BLACK
6
CONTINUOUS
10
208.5691089999999974
20
-87.3146229999999974
11
208.5730739999999912
21
-87.3083239999999989
0
LINE
8
BLACK
6
CONTINUOUS
10
208.5730739999999912
20
-87.3083239999999989
11
208.5738309999999842
21
-87.3064969999999931
0
LINE
8
BLACK
6
CONTINUOUS
10
208.5738309999999842
20
-87.3064969999999931
11
208.5755189999999857
21
-87.3044390000000021
0
LINE
8
BLACK
6
CONTINUOUS
10
208.5755189999999857
20
-87.3044390000000021
11
208.5769420000000025
21
-87.3021799999999928
0
LINE
8
BLACK
6
CONTINUOUS
10
208.5769420000000025
20
-87.3021799999999928
11
208.5784400000000005
21
-87.3008799999999923
0
LINE
8
BLACK
6
CONTINUOUS
10
208.5784400000000005
20
-87.3008799999999923
11
208.5831579999999974
21
-87.2951319999999953
0
LINE
8
BLACK
6
CONTINUOUS
10
208.5831579999999974
20
-87.2951319999999953
11
208.6307769999999948
21
-87.2475129999999979
0
LINE
8
BLACK
6
CONTINUOUS
10
208.6307769999999948
20
-87.2475129999999979
11
208.6365260000000035
21
-87.2427939999999893
0
LINE
8
BLACK
6
CONTINUOUS
10
208.6365260000000035
20
-87.2427939999999893
11
208.6378259999999898
21
-87.2412959999999913
0
LINE
8
BLACK
6
CONTINUOUS
10
208.6378259999999898
20
-87.2412959999999913
11
208.6400849999999991
21
-87.2398740000000004
0
LINE
8
BLACK
6
CONTINUOUS
10
208.6400849999999991
20
-87.2398740000000004
11
208.6421419999999785
21
-87.2381859999999989
0
LINE
8
BLACK
6
CONTINUOUS
10
208.6421419999999785
20
-87.2381859999999989
11
208.6439689999999985
21
-87.2374279999999942
0
LINE
8
BLACK
6
CONTINUOUS
10
208.6439689999999985
20
-87.2374279999999942
11
208.6502689999999802
21
-87.2334639999999979
0
LINE
8
BLACK
6
CONTINUOUS
10
208.6502689999999802
20
-87.2334639999999979
11
208.7455070000000035
21
-87.1858450000000005
0
LINE
8
BLACK
6
CONTINUOUS
10
208.7455070000000035
20
-87.1858450000000005
11
208.7592379999999821
21
-87.1805899999999951
0
LINE
8
BLACK
6
CONTINUOUS
10
208.7592379999999821
20
-87.1805899999999951
11
208.7619269999999858
21
-87.1803979999999967
0
LINE
8
BLACK
6
CONTINUOUS
10
208.7619269999999858
20
-87.1803979999999967
11
208.7644159999999829
21
-87.1793679999999966
0
LINE
8
BLACK
6
CONTINUOUS
10
208.7644159999999829
20
-87.1793679999999966
11
208.7790479999999889
21
-87.1779269999999968
0
LINE
8
BLACK
6
CONTINUOUS
10
208.7790479999999889
20
-87.1779269999999968
11
209.5885710000000017
21
-87.1779269999999968
0
LINE
8
BLACK
6
CONTINUOUS
10
209.5885710000000017
20
-87.1779269999999968
11
209.6032029999999793
21
-87.1793679999999966
0
LINE
8
BLACK
6
CONTINUOUS
10
208.8889179999999897
20
-86.1793679999999966
11
208.8914069999999867
21
-86.1803989999999942
0
LINE
8
BLACK
6
CONTINUOUS
10
208.8914069999999867
20
-86.1803989999999942
11
208.894094999999993
21
-86.1805899999999951
0
LINE
8
BLACK
6
CONTINUOUS
10
208.894094999999993
20
-86.1805899999999951
11
208.9078269999999975
21
-86.1858450000000005
0
LINE
8
BLACK
6
CONTINUOUS
10
208.9078269999999975
20
-86.1858450000000005
11
209.0030649999999923
21
-86.2334639999999979
0
LINE
8
BLACK
6
CONTINUOUS
10
209.0030649999999923
20
-86.2334639999999979
11
209.0093639999999766
21
-86.2374279999999942
0
LINE
8
BLACK
6
CONTINUOUS
10
209.0093639999999766
20
-86.2374279999999942
11
209.0111919999999941
21
-86.2381859999999989
0
LINE
8
BLACK
6
CONTINUOUS
10
209.0111919999999941
20
-86.2381859999999989
11
209.0132480000000044
21
-86.2398740000000004
0
LINE
8
BLACK
6
CONTINUOUS
10
209.0132480000000044
20
-86.2398740000000004
11
209.0155079999999828
21
-86.2412959999999913
0
LINE
8
BLACK
6
CONTINUOUS
10
209.0155079999999828
20
-86.2412959999999913
11
209.016807
21
-86.2427939999999893
0
LINE
8
BLACK
6
CONTINUOUS
10
209.016807
20
-86.2427939999999893
11
209.0225569999999777
21
-86.2475129999999979
0
LINE
8
BLACK
6
CONTINUOUS
10
209.0225569999999777
20
-86.2475129999999979
11
209.0701760000000036
21
-86.2951319999999953
0
LINE
8
BLACK
6
CONTINUOUS
10
209.0701760000000036
20
-86.2951319999999953
11
209.0748940000000005
21
-86.3008809999999897
0
LINE
8
BLACK
6
CONTINUOUS
10
209.0748940000000005
20
-86.3008809999999897
11
209.0763929999999959
21
-86.3021809999999903
0
LINE
8
BLACK
6
CONTINUOUS
10
209.0763929999999959
20
-86.3021809999999903
11
209.0778139999999894
21
-86.3044399999999996
0
LINE
8
BLACK
6
CONTINUOUS
10
209.0778139999999894
20
-86.3044399999999996
11
209.0795029999999883
21
-86.3064969999999931
0
LINE
8
BLACK
6
CONTINUOUS
10
209.0795029999999883
20
-86.3064969999999931
11
209.0802599999999813
21
-86.3083239999999989
0
LINE
8
BLACK
6
CONTINUOUS
10
209.0802599999999813
20
-86.3083239999999989
11
209.0842250000000035
21
-86.3146239999999949
0
LINE
8
BLACK
6
CONTINUOUS
10
209.0842250000000035
20
-86.3146239999999949
11
209.131844000000001
21
-86.4098619999999897
0
LINE
8
BLACK
6
CONTINUOUS
10
209.131844000000001
20
-86.4098619999999897
11
209.1322529999999915
21
-86.4109309999999908
0
LINE
8
BLACK
6
CONTINUOUS
10
209.1322529999999915
20
-86.4109309999999908
11
209.1325760000000002
21
-86.4113669999999985
0
LINE
8
BLACK
6
CONTINUOUS
10
209.1325760000000002
20
-86.4113669999999985
11
209.1347679999999798
21
-86.4175029999999964
0
LINE
8
BLACK
6
CONTINUOUS
10
209.1347679999999798
20
-86.4175029999999964
11
209.1370989999999779
21
-86.4235929999999968
0
LINE
8
BLACK
6
CONTINUOUS
10
209.1370989999999779
20
-86.4235929999999968
11
209.1371369999999956
21
-86.4241329999999977
0
LINE
8
BLACK
6
CONTINUOUS
10
209.1371369999999956
20
-86.4241329999999977
11
209.1375229999999874
21
-86.4252129999999994
0
LINE
8
BLACK
6
CONTINUOUS
10
209.1375229999999874
20
-86.4252129999999994
11
209.1831449999999961
21
-86.6077030000000008
0
LINE
8
BLACK
6
CONTINUOUS
10
209.1831449999999961
20
-86.6077030000000008
11
209.2216389999999819
21
-86.6846899999999891
0
LINE
8
BLACK
6
CONTINUOUS
10
209.2216389999999819
20
-86.6846899999999891
11
209.2520459999999787
21
-86.7150970000000001
0
LINE
8
BLACK
6
CONTINUOUS
10
209.2520459999999787
20
-86.7150970000000001
11
209.3205619999999954
21
-86.7493549999999942
0
LINE
8
BLACK
6
CONTINUOUS
10
209.3205619999999954
20
-86.7493549999999942
11
209.3803899999999771
21
-86.7493549999999942
0
LINE
8
BLACK
6
CONTINUOUS
10
209.3803899999999771
20
-86.7493549999999942
11
209.4489059999999938
21
-86.7150970000000001
0
LINE
8
BLACK
6
CONTINUOUS
10
209.4489059999999938
20
-86.7150970000000001
11
209.4793129999999906
21
-86.6846899999999891
0
LINE
8
BLACK
6
CONTINUOUS
10
209.4793129999999906
20
-86.6846899999999891
11
209.5135709999999847
21
-86.6161740000000009
0
LINE
8
BLACK
6
CONTINUOUS
10
209.5135709999999847
20
-86.6161740000000009
11
209.5135709999999847
21
-86.4079539999999895
0
LINE
8
BLACK
6
CONTINUOUS
10
209.5135709999999847
20
-86.4079539999999895
11
209.4698009999999897
21
-86.2766439999999903
0
LINE
8
BLACK
6
CONTINUOUS
10
209.4698009999999897
20
-86.2766439999999903
11
209.4665409999999781
21
-86.2623069999999927
0
LINE
8
BLACK
6
CONTINUOUS
10
209.4665409999999781
20
-86.2623069999999927
11
209.4686159999999973
21
-86.2331169999999929
0
LINE
8
BLACK
6
CONTINUOUS
10
209.4686159999999973
20
-86.2331169999999929
11
209.4817019999999843
21
-86.2069439999999929
0
LINE
8
BLACK
6
CONTINUOUS
10
209.4817019999999843
20
-86.2069439999999929
11
209.5038089999999897
21
-86.1877700000000004
0
LINE
8
BLACK
6
CONTINUOUS
10
209.5038089999999897
20
-86.1877700000000004
11
209.5315719999999828
21
-86.1785160000000019
0
LINE
8
BLACK
6
CONTINUOUS
10
209.5315719999999828
20
-86.1785160000000019
11
209.5607619999999827
21
-86.1805909999999926
0
LINE
8
BLACK
6
CONTINUOUS
10
209.5607619999999827
20
-86.1805909999999926
11
209.5869349999999827
21
-86.1936769999999939
0
LINE
8
BLACK
6
CONTINUOUS
10
209.5869349999999827
20
-86.1936769999999939
11
209.6061090000000036
21
-86.2157839999999993
0
LINE
8
BLACK
6
CONTINUOUS
10
209.6061090000000036
20
-86.2157839999999993
11
209.6121029999999905
21
-86.2292099999999948
0
LINE
8
BLACK
6
CONTINUOUS
10
209.6121029999999905
20
-86.2292099999999948
11
209.6597219999999879
21
-86.3720659999999896
0
LINE
8
BLACK
6
CONTINUOUS
10
209.6597219999999879
20
-86.3720659999999896
11
209.6613710000000026
21
-86.3793209999999902
0
LINE
8
BLACK
6
CONTINUOUS
10
209.6613710000000026
20
-86.3793209999999902
11
209.6621299999999906
21
-86.3811520000000002
0
LINE
8
BLACK
6
CONTINUOUS
10
209.6621299999999906
20
-86.3811520000000002
11
209.6623909999999853
21
-86.3838049999999953
0
LINE
8
BLACK
6
CONTINUOUS
10
209.6623909999999853
20
-86.3838049999999953
11
209.6629819999999995
21
-86.3864030000000014
0
LINE
8
BLACK
6
CONTINUOUS
10
209.6629819999999995
20
-86.3864030000000014
11
209.662840999999986
21
-86.3883769999999913
0
LINE
8
BLACK
6
CONTINUOUS
10
209.662840999999986
20
-86.3883769999999913
11
209.6635709999999904
21
-86.3957839999999919
0
LINE
8
BLACK
6
CONTINUOUS
10
209.6635709999999904
20
-86.3957839999999919
11
209.6635709999999904
21
-86.6338789999999932
0
LINE
8
BLACK
6
CONTINUOUS
10
209.6635709999999904
20
-86.6338789999999932
11
209.6621299999999906
21
-86.6485109999999992
0
LINE
8
BLACK
6
CONTINUOUS
10
209.6621299999999906
20
-86.6485109999999992
11
209.6610989999999788
21
-86.6509989999999988
0
LINE
8
BLACK
6
CONTINUOUS
10
209.6610989999999788
20
-86.6509989999999988
11
209.6609079999999778
21
-86.653689
0
LINE
8
BLACK
6
CONTINUOUS
10
209.6609079999999778
20
-86.653689
11
209.6556530000000009
21
-86.6674199999999928
0
LINE
8
BLACK
6
CONTINUOUS
10
209.6556530000000009
20
-86.6674199999999928
11
209.6080340000000035
21
-86.7626580000000018
0
LINE
8
BLACK
6
CONTINUOUS
10
209.6080340000000035
20
-86.7626580000000018
11
209.6040689999999813
21
-86.7689570000000003
0
LINE
8
BLACK
6
CONTINUOUS
10
209.6040689999999813
20
-86.7689570000000003
11
209.6033119999999883
21
-86.7707849999999894
0
LINE
8
BLACK
6
CONTINUOUS
10
209.6033119999999883
20
-86.7707849999999894
11
209.6016229999999894
21
-86.7728409999999997
0
LINE
8
BLACK
6
CONTINUOUS
10
209.6016229999999894
20
-86.7728409999999997
11
209.6002019999999959
21
-86.7751009999999923
0
LINE
8
BLACK
6
CONTINUOUS
10
209.6002019999999959
20
-86.7751009999999923
11
209.5987030000000004
21
-86.7763999999999953
0
LINE
8
BLACK
6
CONTINUOUS
10
209.5987030000000004
20
-86.7763999999999953
11
209.5939850000000035
21
-86.7821500000000015
0
LINE
8
BLACK
6
CONTINUOUS
10
209.5939850000000035
20
-86.7821500000000015
11
209.5463659999999777
21
-86.8297689999999989
0
LINE
8
BLACK
6
CONTINUOUS
10
209.5463659999999777
20
-86.8297689999999989
11
209.540616
21
-86.8344869999999958
0
LINE
8
BLACK
6
CONTINUOUS
10
209.540616
20
-86.8344869999999958
11
209.5393169999999827
21
-86.8359859999999912
0
LINE
8
BLACK
6
CONTINUOUS
10
209.5393169999999827
20
-86.8359859999999912
11
209.5370570000000043
21
-86.8374069999999989
0
LINE
8
BLACK
6
CONTINUOUS
10
209.5370570000000043
20
-86.8374069999999989
11
209.5350009999999941
21
-86.8390959999999978
0
LINE
8
BLACK
6
CONTINUOUS
10
209.5350009999999941
20
-86.8390959999999978
11
209.5331729999999766
21
-86.8398529999999909
0
LINE
8
BLACK
6
CONTINUOUS
10
209.5331729999999766
20
-86.8398529999999909
11
209.5268739999999923
21
-86.8438179999999988
0
LINE
8
BLACK
6
CONTINUOUS
10
209.5268739999999923
20
-86.8438179999999988
11
209.4316359999999975
21
-86.8914369999999963
0
LINE
8
BLACK
6
CONTINUOUS
10
209.4316359999999975
20
-86.8914369999999963
11
209.4179039999999929
21
-86.8966920000000016
0
LINE
8
BLACK
6
CONTINUOUS
10
209.4179039999999929
20
-86.8966920000000016
11
209.4152159999999867
21
-86.8968819999999909
0
LINE
8
BLACK
6
CONTINUOUS
10
209.4152159999999867
20
-86.8968819999999909
11
209.4127269999999896
21
-86.8979140000000001
0
LINE
8
BLACK
6
CONTINUOUS
10
209.4127269999999896
20
-86.8979140000000001
11
209.3980949999999837
21
-86.8993549999999999
0
LINE
8
BLACK
6
CONTINUOUS
10
209.3980949999999837
20
-86.8993549999999999
11
209.3028569999999888
21
-86.8993549999999999
0
LINE
8
BLACK
6
CONTINUOUS
10
209.3028569999999888
20
-86.8993549999999999
11
209.2882249999999829
21
-86.8979140000000001
0
LINE
8
BLACK
6
CONTINUOUS
10
209.2882249999999829
20
-86.8979140000000001
11
209.2857359999999858
21
-86.8968830000000025
0
LINE
8
BLACK
6
CONTINUOUS
10
209.2857359999999858
20
-86.8968830000000025
11
209.2830469999999821
21
-86.8966920000000016
0
LINE
8
BLACK
6
CONTINUOUS
10
209.2830469999999821
20
-86.8966920000000016
11
209.2693160000000034
21
-86.8914369999999963
0
LINE
8
BLACK
6
CONTINUOUS
10
209.2693160000000034
20
-86.8914369999999963
11
209.1740779999999802
21
-86.8438179999999988
0
LINE
8
BLACK
6
CONTINUOUS
10
209.1740779999999802
20
-86.8438179999999988
11
209.1677779999999984
21
-86.8398529999999909
0
LINE
8
BLACK
6
CONTINUOUS
10
209.1677779999999984
20
-86.8398529999999909
11
209.1659509999999784
21
-86.8390959999999978
0
LINE
8
BLACK
6
CONTINUOUS
10
209.1659509999999784
20
-86.8390959999999978
11
209.1638939999999991
21
-86.8374069999999989
0
LINE
8
BLACK
6
CONTINUOUS
10
209.1638939999999991
20
-86.8374069999999989
11
209.1616349999999898
21
-86.8359859999999912
0
LINE
8
BLACK
6
CONTINUOUS
10
209.1616349999999898
20
-86.8359859999999912
11
209.1603350000000034
21
-86.8344869999999958
0
LINE
8
BLACK
6
CONTINUOUS
10
209.1603350000000034
20
-86.8344869999999958
11
209.1545859999999948
21
-86.8297689999999989
0
LINE
8
BLACK
6
CONTINUOUS
10
209.1545859999999948
20
-86.8297689999999989
11
209.1069669999999974
21
-86.7821500000000015
0
LINE
8
BLACK
6
CONTINUOUS
10
209.1069669999999974
20
-86.7821500000000015
11
209.102248000000003
21
-86.7763999999999953
0
LINE
8
BLACK
6
CONTINUOUS
10
209.102248000000003
20
-86.7763999999999953
11
209.1007499999999766
21
-86.7751009999999923
0
LINE
8
BLACK
6
CONTINUOUS
10
209.1007499999999766
20
-86.7751009999999923
11
209.0993279999999856
21
-86.7728409999999997
0
LINE
8
BLACK
6
CONTINUOUS
10
209.0993279999999856
20
-86.7728409999999997
11
209.0976399999999842
21
-86.7707849999999894
0
LINE
8
BLACK
6
CONTINUOUS
10
209.0976399999999842
20
-86.7707849999999894
11
209.0968819999999937
21
-86.7689570000000003
0
LINE
8
BLACK
6
CONTINUOUS
10
209.0968819999999937
20
-86.7689570000000003
11
209.0929179999999974
21
-86.7626580000000018
0
LINE
8
BLACK
6
CONTINUOUS
10
209.0929179999999974
20
-86.7626580000000018
11
209.045299
21
-86.6674199999999928
0
LINE
8
BLACK
6
CONTINUOUS
10
209.045299
20
-86.6674199999999928
11
209.0448889999999835
21
-86.6663499999999942
0
LINE
8
BLACK
6
CONTINUOUS
10
209.0448889999999835
20
-86.6663499999999942
11
209.0445670000000007
21
-86.6659149999999983
0
LINE
8
BLACK
6
CONTINUOUS
10
209.0445670000000007
20
-86.6659149999999983
11
209.0423710000000028
21
-86.6597689999999972
0
LINE
8
BLACK
6
CONTINUOUS
10
209.0423710000000028
20
-86.6597689999999972
11
209.0400439999999946
21
-86.6536880000000025
0
LINE
8
BLACK
6
CONTINUOUS
10
209.0400439999999946
20
-86.6536880000000025
11
209.0400049999999794
21
-86.6531480000000016
0
LINE
8
BLACK
6
CONTINUOUS
10
209.0400049999999794
20
-86.6531480000000016
11
209.0396199999999851
21
-86.6520689999999973
0
LINE
8
BLACK
6
CONTINUOUS
10
209.0396199999999851
20
-86.6520689999999973
11
208.9939969999999789
21
-86.469578999999996
0
LINE
8
BLACK
6
CONTINUOUS
10
208.9939969999999789
20
-86.469578999999996
11
208.9555039999999906
21
-86.3925919999999934
0
LINE
8
BLACK
6
CONTINUOUS
10
208.9555039999999906
20
-86.3925919999999934
11
208.9250969999999938
21
-86.3621849999999966
0
LINE
8
BLACK
6
CONTINUOUS
10
208.9250969999999938
20
-86.3621849999999966
11
208.8565809999999772
21
-86.3279270000000025
0
LINE
8
BLACK
6
CONTINUOUS
10
208.8565809999999772
20
-86.3279270000000025
11
208.7967529999999954
21
-86.3279270000000025
0
LINE
8
BLACK
6
CONTINUOUS
10
208.7967529999999954
20
-86.3279270000000025
11
208.7282369999999787
21
-86.3621849999999966
0
LINE
8
BLACK
6
CONTINUOUS
10
208.7282369999999787
20
-86.3621849999999966
11
208.6978289999999845
21
-86.3925919999999934
0
LINE
8
BLACK
6
CONTINUOUS
10
208.6978289999999845
20
-86.3925919999999934
11
208.6635709999999904
21
-86.4611089999999933
0
LINE
8
BLACK
6
CONTINUOUS
10
208.6635709999999904
20
-86.4611089999999933
11
208.6635709999999904
21
-86.6693259999999981
0
LINE
8
BLACK
6
CONTINUOUS
10
208.6635709999999904
20
-86.6693259999999981
11
208.7073419999999828
21
-86.8006379999999922
0
LINE
8
BLACK
6
CONTINUOUS
10
208.7073419999999828
20
-86.8006379999999922
11
208.7106019999999944
21
-86.8149739999999923
0
LINE
8
BLACK
6
CONTINUOUS
10
208.7106019999999944
20
-86.8149739999999923
11
208.7085280000000012
21
-86.8441639999999921
0
LINE
8
BLACK
6
CONTINUOUS
10
208.7085280000000012
20
-86.8441639999999921
11
208.6954409999999882
21
-86.8703379999999896
0
LINE
8
BLACK
6
CONTINUOUS
10
208.6954409999999882
20
-86.8703379999999896
11
208.6733339999999828
21
-86.8895119999999963
0
LINE
8
BLACK
6
CONTINUOUS
10
208.6733339999999828
20
-86.8895119999999963
11
208.6455719999999872
21
-86.8987659999999948
0
LINE
8
BLACK
6
CONTINUOUS
10
208.6455719999999872
20
-86.8987659999999948
11
208.6163819999999873
21
-86.8966920000000016
0
LINE
8
BLACK
6
CONTINUOUS
10
208.6163819999999873
20
-86.8966920000000016
11
208.5902079999999899
21
-86.8836050000000029
0
LINE
8
BLACK
6
CONTINUOUS
10
208.5902079999999899
20
-86.8836050000000029
11
208.5710339999999974
21
-86.8614979999999974
0
LINE
8
BLACK
6
CONTINUOUS
10
208.5710339999999974
20
-86.8614979999999974
11
208.565039999999982
21
-86.8480729999999994
0
LINE
8
BLACK
6
CONTINUOUS
10
208.565039999999982
20
-86.8480729999999994
11
208.5174199999999871
21
-86.705215999999993
0
LINE
8
BLACK
6
CONTINUOUS
10
208.5174199999999871
20
-86.705215999999993
11
208.5157700000000034
21
-86.6979599999999948
0
LINE
8
BLACK
6
CONTINUOUS
10
208.5157700000000034
20
-86.6979599999999948
11
208.5150119999999845
21
-86.6961299999999966
0
LINE
8
BLACK
6
CONTINUOUS
10
208.5150119999999845
20
-86.6961299999999966
11
208.5147499999999923
21
-86.6934759999999898
0
LINE
8
BLACK
6
CONTINUOUS
10
208.5147499999999923
20
-86.6934759999999898
11
208.5141600000000039
21
-86.6908789999999954
0
LINE
8
BLACK
6
CONTINUOUS
10
208.5141600000000039
20
-86.6908789999999954
11
208.5142999999999915
21
-86.6889029999999963
0
LINE
8
BLACK
6
CONTINUOUS
10
208.5142999999999915
20
-86.6889029999999963
11
208.5135709999999847
21
-86.6814979999999906
0
LINE
8
BLACK
6
CONTINUOUS
10
208.5135709999999847
20
-86.6814979999999906
11
208.5135709999999847
21
-86.4434029999999893
0
LINE
8
BLACK
6
CONTINUOUS
10
208.5135709999999847
20
-86.4434029999999893
11
208.5150119999999845
21
-86.4287709999999976
0
LINE
8
BLACK
6
CONTINUOUS
10
208.5150119999999845
20
-86.4287709999999976
11
208.5160419999999988
21
-86.4262820000000005
0
LINE
8
BLACK
6
CONTINUOUS
10
208.5160419999999988
20
-86.4262820000000005
11
208.5162339999999972
21
-86.4235929999999968
0
LINE
8
BLACK
6
CONTINUOUS
10
208.5162339999999972
20
-86.4235929999999968
11
208.5214890000000025
21
-86.4098609999999923
0
LINE
8
BLACK
6
CONTINUOUS
10
208.5214890000000025
20
-86.4098609999999923
11
208.5691089999999974
21
-86.3146229999999974
0
LINE
8
BLACK
6
CONTINUOUS
10
208.5691089999999974
20
-86.3146229999999974
11
208.5730739999999912
21
-86.3083239999999989
0
LINE
8
BLACK
6
CONTINUOUS
10
208.5730739999999912
20
-86.3083239999999989
11
208.5738309999999842
21
-86.3064969999999931
0
LINE
8
BLACK
6
CONTINUOUS
10
208.5738309999999842
20
-86.3064969999999931
11
208.5755189999999857
21
-86.3044390000000021
0
LINE
8
BLACK
6
CONTINUOUS
10
208.5755189999999857
20
-86.3044390000000021
11
208.5769420000000025
21
-86.3021799999999928
0
LINE
8
BLACK
6
CONTINUOUS
10
208.5769420000000025
20
-86.3021799999999928
11
208.5784400000000005
21
-86.3008799999999923
0
LINE
8
BLACK
6
CONTINUOUS
10
208.5784400000000005
20
-86.3008799999999923
11
208.5831579999999974
21
-86.2951319999999953
0
LINE
8
BLACK
6
CONTINUOUS
10
208.5831579999999974
20
-86.2951319999999953
11
208.6307769999999948
21
-86.2475129999999979
0
LINE
8
BLACK
6
CONTINUOUS
10
208.6307769999999948
20
-86.2475129999999979
11
208.6365260000000035
21
-86.2427939999999893
0
LINE
8
BLACK
6
CONTINUOUS
10
208.6365260000000035
20
-86.2427939999999893
11
208.6378259999999898
21
-86.2412959999999913
0
LINE
8
BLACK
6
CONTINUOUS
10
208.6378259999999898
20
-86.2412959999999913
11
208.6400849999999991
21
-86.2398740000000004
0
LINE
8
BLACK
6
CONTINUOUS
10
208.6400849999999991
20
-86.2398740000000004
11
208.6421419999999785
21
-86.2381859999999989
0
LINE
8
BLACK
6
CONTINUOUS
10
208.6421419999999785
20
-86.2381859999999989
11
208.6439689999999985
21
-86.2374279999999942
0
LINE
8
BLACK
6
CONTINUOUS
10
208.6439689999999985
20
-86.2374279999999942
11
208.6502689999999802
21
-86.2334639999999979
0
LINE
8
BLACK
6
CONTINUOUS
10
208.6502689999999802
20
-86.2334639999999979
11
208.7455070000000035
21
-86.1858450000000005
0
LINE
8
BLACK
6
CONTINUOUS
10
208.7455070000000035
20
-86.1858450000000005
11
208.7592379999999821
21
-86.1805899999999951
0
LINE
8
BLACK
6
CONTINUOUS
10
208.7592379999999821
20
-86.1805899999999951
11
208.7619269999999858
21
-86.1803979999999967
0
LINE
8
BLACK
6
CONTINUOUS
10
208.7619269999999858
20
-86.1803979999999967
11
208.7644159999999829
21
-86.1793679999999966
0
LINE
8
BLACK
6
CONTINUOUS
10
208.7644159999999829
20
-86.1793679999999966
11
208.7790479999999889
21
-86.1779269999999968
0
LINE
8
BLACK
6
CONTINUOUS
10
208.7790479999999889
20
-86.1779269999999968
11
208.8742859999999837
21
-86.1779269999999968
0
LINE
8
BLACK
6
CONTINUOUS
10
208.8742859999999837
20
-86.1779269999999968
11
208.8889179999999897
21
-86.1793679999999966
0
LINE
8
BLACK
6
CONTINUOUS
10
208.7554329999999823
20
-84.8970389999999924
11
208.7599999999999909
21
-84.9200000000000017
0
LINE
8
BLACK
6
CONTINUOUS
10
208.7599999999999909
20
-84.9200000000000017
11
208.7599999999999909
21
-85.1805349999999919
0
LINE
8
BLACK
6
CONTINUOUS
10
208.7599999999999909
20
-85.1805349999999919
11
208.7619269999999858
21
-85.1803979999999967
0
LINE
8
BLACK
6
CONTINUOUS
10
208.7619269999999858
20
-85.1803979999999967
11
208.7644159999999829
21
-85.1793679999999966
0
LINE
8
BLACK
6
CONTINUOUS
10
208.7644159999999829
20
-85.1793679999999966
11
208.7790479999999889
21
-85.1779269999999968
0
LINE
8
BLACK
6
CONTINUOUS
10
208.7790479999999889
20
-85.1779269999999968
11
208.9219049999999811
21
-85.1779269999999968
0
LINE
8
BLACK
6
CONTINUOUS
10
208.9219049999999811
20
-85.1779269999999968
11
208.9365369999999871
21
-85.1793679999999966
0
LINE
8
BLACK
6
CONTINUOUS
10
208.9365369999999871
20
-85.1793679999999966
11
208.9390259999999842
21
-85.1803989999999942
0
LINE
8
BLACK
6
CONTINUOUS
10
208.9390259999999842
20
-85.1803989999999942
11
208.9417139999999904
21
-85.1805899999999951
0
LINE
8
BLACK
6
CONTINUOUS
10
208.9417139999999904
20
-85.1805899999999951
11
208.9554459999999949
21
-85.1858450000000005
0
LINE
8
BLACK
6
CONTINUOUS
10
208.9554459999999949
20
-85.1858450000000005
11
209.0506839999999897
21
-85.2334639999999979
0
LINE
8
BLACK
6
CONTINUOUS
10
209.0506839999999897
20
-85.2334639999999979
11
209.0569830000000024
21
-85.2374279999999942
0
LINE
8
BLACK
6
CONTINUOUS
10
209.0569830000000024
20
-85.2374279999999942
11
209.0588109999999915
21
-85.2381859999999989
0
LINE
8
BLACK
6
CONTINUOUS
10
209.0588109999999915
20
-85.2381859999999989
11
209.0608670000000018
21
-85.2398740000000004
0
LINE
8
BLACK
6
CONTINUOUS
10
209.0608670000000018
20
-85.2398740000000004
11
209.0631269999999802
21
-85.2412959999999913
0
LINE
8
BLACK
6
CONTINUOUS
10
209.0631269999999802
20
-85.2412959999999913
11
209.0644259999999974
21
-85.2427939999999893
0
LINE
8
BLACK
6
CONTINUOUS
10
209.0644259999999974
20
-85.2427939999999893
11
209.0701760000000036
21
-85.2475129999999979
0
LINE
8
BLACK
6
CONTINUOUS
10
209.0701760000000036
20
-85.2475129999999979
11
209.117795000000001
21
-85.2951319999999953
0
LINE
8
BLACK
6
CONTINUOUS
10
209.117795000000001
20
-85.2951319999999953
11
209.1271219999999857
21
-85.3064969999999931
0
LINE
8
BLACK
6
CONTINUOUS
10
209.1271219999999857
20
-85.3064969999999931
11
209.128152
21
-85.3089849999999927
0
LINE
8
BLACK
6
CONTINUOUS
10
209.128152
20
-85.3089849999999927
11
209.129919000000001
21
-85.3110219999999941
0
LINE
8
BLACK
6
CONTINUOUS
10
209.129919000000001
20
-85.3110219999999941
11
209.1326279999999826
21
-85.3170889999999957
0
LINE
8
BLACK
6
CONTINUOUS
10
209.1326279999999826
20
-85.3170889999999957
11
209.1545859999999948
21
-85.2951319999999953
0
LINE
8
BLACK
6
CONTINUOUS
10
209.1545859999999948
20
-85.2951319999999953
11
209.1603350000000034
21
-85.2904130000000009
0
LINE
8
BLACK
6
CONTINUOUS
10
209.1603350000000034
20
-85.2904130000000009
11
209.1616349999999898
21
-85.2889150000000029
0
LINE
8
BLACK
6
CONTINUOUS
10
209.1616349999999898
20
-85.2889150000000029
11
209.1638939999999991
21
-85.2874929999999978
0
LINE
8
BLACK
6
CONTINUOUS
10
209.1638939999999991
20
-85.2874929999999978
11
209.1659509999999784
21
-85.2858049999999963
0
LINE
8
BLACK
6
CONTINUOUS
10
209.1659509999999784
20
-85.2858049999999963
11
209.1677779999999984
21
-85.2850469999999916
0
LINE
8
BLACK
6
CONTINUOUS
10
209.1677779999999984
20
-85.2850469999999916
11
209.1740779999999802
21
-85.2810829999999953
0
LINE
8
BLACK
6
CONTINUOUS
10
209.1740779999999802
20
-85.2810829999999953
11
209.2693160000000034
21
-85.2334639999999979
0
LINE
8
BLACK
6
CONTINUOUS
10
209.2693160000000034
20
-85.2334639999999979
11
209.2830469999999821
21
-85.2282089999999926
0
LINE
8
BLACK
6
CONTINUOUS
10
209.2830469999999821
20
-85.2282089999999926
11
209.2857359999999858
21
-85.2280169999999941
0
LINE
8
BLACK
6
CONTINUOUS
10
209.2857359999999858
20
-85.2280169999999941
11
209.2882249999999829
21
-85.2269869999999941
0
LINE
8
BLACK
6
CONTINUOUS
10
209.2882249999999829
20
-85.2269869999999941
11
209.3028569999999888
21
-85.2255459999999943
0
LINE
8
BLACK
6
CONTINUOUS
10
209.3028569999999888
20
-85.2255459999999943
11
209.3980949999999837
21
-85.2255459999999943
0
LINE
8
BLACK
6
CONTINUOUS
10
209.3980949999999837
20
-85.2255459999999943
11
209.4127269999999896
21
-85.2269869999999941
0
LINE
8
BLACK
6
CONTINUOUS
10
209.4127269999999896
20
-85.2269869999999941
11
209.4152159999999867
21
-85.2280179999999916
0
LINE
8
BLACK
6
CONTINUOUS
10
209.4152159999999867
20
-85.2280179999999916
11
209.4179039999999929
21
-85.2282089999999926
0
LINE
8
BLACK
6
CONTINUOUS
10
209.4179039999999929
20
-85.2282089999999926
11
209.4316359999999975
21
-85.2334639999999979
0
LINE
8
BLACK
6
CONTINUOUS
10
209.4316359999999975
20
-85.2334639999999979
11
209.5268739999999923
21
-85.2810829999999953
0
LINE
8
BLACK
6
CONTINUOUS
10
209.5268739999999923
20
-85.2810829999999953
11
209.5331729999999766
21
-85.2850469999999916
0
LINE
8
BLACK
6
CONTINUOUS
10
209.5331729999999766
20
-85.2850469999999916
11
209.5350009999999941
21
-85.2858049999999963
0
LINE
8
BLACK
6
CONTINUOUS
10
209.5350009999999941
20
-85.2858049999999963
11
209.5370570000000043
21
-85.2874929999999978
0
LINE
8
BLACK
6
CONTINUOUS
10
209.5370570000000043
20
-85.2874929999999978
11
209.5393169999999827
21
-85.2889150000000029
0
LINE
8
BLACK
6
CONTINUOUS
10
209.5393169999999827
20
-85.2889150000000029
11
209.540616
21
-85.2904130000000009
0
LINE
8
BLACK
6
CONTINUOUS
10
209.540616
20
-85.2904130000000009
11
209.5463659999999777
21
-85.2951319999999953
0
LINE
8
BLACK
6
CONTINUOUS
10
209.5463659999999777
20
-85.2951319999999953
11
209.5939850000000035
21
-85.3427509999999927
0
LINE
8
BLACK
6
CONTINUOUS
10
209.5939850000000035
20
-85.3427509999999927
11
209.5987030000000004
21
-85.3485000000000014
0
LINE
8
BLACK
6
CONTINUOUS
10
209.5987030000000004
20
-85.3485000000000014
11
209.6002019999999959
21
-85.3498000000000019
0
LINE
8
BLACK
6
CONTINUOUS
10
209.6002019999999959
20
-85.3498000000000019
11
209.6016229999999894
21
-85.352058999999997
0
LINE
8
BLACK
6
CONTINUOUS
10
209.6016229999999894
20
-85.352058999999997
11
209.6033119999999883
21
-85.3541159999999905
0
LINE
8
BLACK
6
CONTINUOUS
10
209.6033119999999883
20
-85.3541159999999905
11
209.6040689999999813
21
-85.3559429999999963
0
LINE
8
BLACK
6
CONTINUOUS
10
209.6040689999999813
20
-85.3559429999999963
11
209.6080340000000035
21
-85.3622429999999923
0
LINE
8
BLACK
6
CONTINUOUS
10
209.6080340000000035
20
-85.3622429999999923
11
209.6556530000000009
21
-85.4574810000000014
0
LINE
8
BLACK
6
CONTINUOUS
10
209.6556530000000009
20
-85.4574810000000014
11
209.6609079999999778
21
-85.4712119999999942
0
LINE
8
BLACK
6
CONTINUOUS
10
209.6609079999999778
20
-85.4712119999999942
11
209.6610989999999788
21
-85.4739009999999979
0
LINE
8
BLACK
6
CONTINUOUS
10
209.6610989999999788
20
-85.4739009999999979
11
209.6621299999999906
21
-85.476389999999995
0
LINE
8
BLACK
6
CONTINUOUS
10
209.6621299999999906
20
-85.476389999999995
11
209.6635709999999904
21
-85.491022000000001
0
LINE
8
BLACK
6
CONTINUOUS
10
209.6635709999999904
20
-85.491022000000001
11
209.6635709999999904
21
-85.8243549999999971
0
LINE
8
BLACK
6
CONTINUOUS
10
209.6635709999999904
20
-85.8243549999999971
11
209.6621299999999906
21
-85.838987000000003
0
LINE
8
BLACK
6
CONTINUOUS
10
209.6621299999999906
20
-85.838987000000003
11
209.6509309999999857
21
-85.8660229999999984
0
LINE
8
BLACK
6
CONTINUOUS
10
209.6509309999999857
20
-85.8660229999999984
11
209.6302389999999889
21
-85.8867149999999953
0
LINE
8
BLACK
6
CONTINUOUS
10
209.6302389999999889
20
-85.8867149999999953
11
209.6032029999999793
21
-85.8979140000000001
0
LINE
8
BLACK
6
CONTINUOUS
10
209.6032029999999793
20
-85.8979140000000001
11
209.5885710000000017
21
-85.8993549999999999
0
LINE
8
BLACK
6
CONTINUOUS
10
209.5885710000000017
20
-85.8993549999999999
11
208.5885710000000017
21
-85.8993549999999999
0
LINE
8
BLACK
6
CONTINUOUS
10
208.5885710000000017
20
-85.8993549999999999
11
208.5739389999999958
21
-85.8979140000000001
0
LINE
8
BLACK
6
CONTINUOUS
10
208.5739389999999958
20
-85.8979140000000001
11
208.5469029999999862
21
-85.8867149999999953
0
LINE
8
BLACK
6
CONTINUOUS
10
208.5469029999999862
20
-85.8867149999999953
11
208.5262109999999893
21
-85.8660229999999984
0
LINE
8
BLACK
6
CONTINUOUS
10
208.5262109999999893
20
-85.8660229999999984
11
208.5150119999999845
21
-85.838987000000003
0
LINE
8
BLACK
6
CONTINUOUS
10
208.5150119999999845
20
-85.838987000000003
11
208.5135709999999847
21
-85.8243549999999971
0
LINE
8
BLACK
6
CONTINUOUS
10
208.5135709999999847
20
-85.8243549999999971
11
208.5135709999999847
21
-85.4434029999999893
0
LINE
8
BLACK
6
CONTINUOUS
10
208.5135709999999847
20
-85.4434029999999893
11
208.5150119999999845
21
-85.4287709999999976
0
LINE
8
BLACK
6
CONTINUOUS
10
208.5150119999999845
20
-85.4287709999999976
11
208.5160419999999988
21
-85.4262820000000005
0
LINE
8
BLACK
6
CONTINUOUS
10
208.5160419999999988
20
-85.4262820000000005
11
208.5162339999999972
21
-85.4235929999999968
0
LINE
8
BLACK
6
CONTINUOUS
10
208.5162339999999972
20
-85.4235929999999968
11
208.5214890000000025
21
-85.4098609999999923
0
LINE
8
BLACK
6
CONTINUOUS
10
208.5214890000000025
20
-85.4098609999999923
11
208.5691089999999974
21
-85.3146229999999974
0
LINE
8
BLACK
6
CONTINUOUS
10
208.5691089999999974
20
-85.3146229999999974
11
208.5730739999999912
21
-85.3083239999999989
0
LINE
8
BLACK
6
CONTINUOUS
10
208.5730739999999912
20
-85.3083239999999989
11
208.5738309999999842
21
-85.3064969999999931
0
LINE
8
BLACK
6
CONTINUOUS
10
208.5738309999999842
20
-85.3064969999999931
11
208.5755189999999857
21
-85.3044390000000021
0
LINE
8
BLACK
6
CONTINUOUS
10
208.5755189999999857
20
-85.3044390000000021
11
208.5769420000000025
21
-85.3021799999999928
0
LINE
8
BLACK
6
CONTINUOUS
10
208.5769420000000025
20
-85.3021799999999928
11
208.5784400000000005
21
-85.3008799999999923
0
LINE
8
BLACK
6
CONTINUOUS
10
208.5784400000000005
20
-85.3008799999999923
11
208.5831579999999974
21
-85.2951319999999953
0
LINE
8
BLACK
6
CONTINUOUS
10
208.5831579999999974
20
-85.2951319999999953
11
208.6307769999999948
21
-85.2475129999999979
0
LINE
8
BLACK
6
CONTINUOUS
10
208.6307769999999948
20
-85.2475129999999979
11
208.6365260000000035
21
-85.2427939999999893
0
LINE
8
BLACK
6
CONTINUOUS
10
208.6365260000000035
20
-85.2427939999999893
11
208.6378259999999898
21
-85.2412959999999913
0
LINE
8
BLACK
6
CONTINUOUS
10
208.6378259999999898
20
-85.2412959999999913
11
208.6399999999999864
21
-85.2399269999999945
0
LINE
8
BLACK
6
CONTINUOUS
10
208.6399999999999864
20
-85.2399269999999945
11
208.6399999999999864
21
-84.9200000000000017
0
LINE
8
BLACK
6
CONTINUOUS
10
208.6399999999999864
20
-84.9200000000000017
11
208.644566999999995
21
-84.8970389999999924
0
LINE
8
BLACK
6
CONTINUOUS
10
208.644566999999995
20
-84.8970389999999924
11
208.6770389999999793
21
-84.8645669999999939
0
LINE
8
BLACK
6
CONTINUOUS
10
208.6770389999999793
20
-84.8645669999999939
11
208.722960999999998
21
-84.8645669999999939
0
LINE
8
BLACK
6
CONTINUOUS
10
208.722960999999998
20
-84.8645669999999939
11
208.7554329999999823
21
-84.8970389999999924
0
LINE
8
BLACK
6
CONTINUOUS
10
208.7599999999999909
20
-85.3463029999999918
11
208.7599999999999909
21
-85.6199999999999903
0
LINE
8
BLACK
6
CONTINUOUS
10
208.7599999999999909
20
-85.6199999999999903
11
208.7554329999999823
21
-85.6429609999999997
0
LINE
8
BLACK
6
CONTINUOUS
10
208.7554329999999823
20
-85.6429609999999997
11
208.722960999999998
21
-85.6754329999999982
0
LINE
8
BLACK
6
CONTINUOUS
10
208.722960999999998
20
-85.6754329999999982
11
208.6770389999999793
21
-85.6754329999999982
0
LINE
8
BLACK
6
CONTINUOUS
10
208.6770389999999793
20
-85.6754329999999982
11
208.6635709999999904
21
-85.661964999999995
0
LINE
8
BLACK
6
CONTINUOUS
10
208.6635709999999904
20
-85.661964999999995
11
208.6635709999999904
21
-85.7493549999999942
0
LINE
8
BLACK
6
CONTINUOUS
10
208.6635709999999904
20
-85.7493549999999942
11
209.0373809999999821
21
-85.7493549999999942
0
LINE
8
BLACK
6
CONTINUOUS
10
209.0373809999999821
20
-85.7493549999999942
11
209.0373809999999821
21
-85.5031919999999985
0
LINE
8
BLACK
6
CONTINUOUS
10
209.0373809999999821
20
-85.5031919999999985
11
208.9992099999999766
21
-85.3886789999999962
0
LINE
8
BLACK
6
CONTINUOUS
10
208.9992099999999766
20
-85.3886789999999962
11
208.9727159999999913
21
-85.3621849999999966
0
LINE
8
BLACK
6
CONTINUOUS
10
208.9727159999999913
20
-85.3621849999999966
11
208.904200000000003
21
-85.3279270000000025
0
LINE
8
BLACK
6
CONTINUOUS
10
208.904200000000003
20
-85.3279270000000025
11
208.7967529999999954
21
-85.3279270000000025
0
LINE
8
BLACK
6
CONTINUOUS
10
208.7967529999999954
20
-85.3279270000000025
11
208.7599999999999909
21
-85.3463029999999918
0
LINE
8
BLACK
6
CONTINUOUS
10
209.2520459999999787
20
-85.4098039999999941
11
209.2216389999999819
21
-85.4402109999999908
0
LINE
8
BLACK
6
CONTINUOUS
10
209.2216389999999819
20
-85.4402109999999908
11
209.1873809999999878
21
-85.5087269999999933
0
LINE
8
BLACK
6
CONTINUOUS
10
209.1873809999999878
20
-85.5087269999999933
11
209.1873809999999878
21
-85.7493549999999942
0
LINE
8
BLACK
6
CONTINUOUS
10
209.1873809999999878
20
-85.7493549999999942
11
209.5135709999999847
21
-85.7493549999999942
0
LINE
8
BLACK
6
CONTINUOUS
10
209.5135709999999847
20
-85.7493549999999942
11
209.5135709999999847
21
-85.5087269999999933
0
LINE
8
BLACK
6
CONTINUOUS
10
209.5135709999999847
20
-85.5087269999999933
11
209.4793129999999906
21
-85.4402109999999908
0
LINE
8
BLACK
6
CONTINUOUS
10
209.4793129999999906
20
-85.4402109999999908
11
209.4489059999999938
21
-85.4098039999999941
0
LINE
8
BLACK
6
CONTINUOUS
10
209.4489059999999938
20
-85.4098039999999941
11
209.3803899999999771
21
-85.3755459999999999
0
LINE
8
BLACK
6
CONTINUOUS
10
209.3803899999999771
20
-85.3755459999999999
11
209.3205619999999954
21
-85.3755459999999999
0
LINE
8
BLACK
6
CONTINUOUS
10
209.3205619999999954
20
-85.3755459999999999
11
209.2520459999999787
21
-85.4098039999999941
0
LINE
8
BLACK
6
CONTINUOUS
10
210.0578999999999894
20
-77.3094710000000021
11
210.0939479999999833
21
-77.3244029999999896
0
LINE
8
BLACK
6
CONTINUOUS
10
210.0939479999999833
20
-77.3244029999999896
11
210.1215379999999868
21
-77.3519929999999931
0
LINE
8
BLACK
6
CONTINUOUS
10
210.1215379999999868
20
-77.3519929999999931
11
210.1364700000000028
21
-77.3880410000000012
0
LINE
8
BLACK
6
CONTINUOUS
10
210.1364700000000028
20
-77.3880410000000012
11
210.1383909999999844
21
-77.4075500000000005
0
LINE
8
BLACK
6
CONTINUOUS
10
210.1383909999999844
20
-77.4075500000000005
11
210.1383909999999844
21
-81.7599909999999994
0
LINE
8
BLACK
6
CONTINUOUS
10
210.1383909999999844
20
-81.7599909999999994
11
210.5499999999999829
21
-81.7599909999999994
0
LINE
8
BLACK
6
CONTINUOUS
10
210.5499999999999829
20
-81.7599909999999994
11
210.5691339999999911
21
-81.7637969999999967
0
LINE
8
BLACK
6
CONTINUOUS
10
210.5691339999999911
20
-81.7637969999999967
11
210.596193999999997
21
-81.7908570000000026
0
LINE
8
BLACK
6
CONTINUOUS
10
210.596193999999997
20
-81.7908570000000026
11
210.5999999999999943
21
-81.8099909999999966
0
LINE
8
BLACK
6
CONTINUOUS
10
210.5999999999999943
20
-81.8099909999999966
11
210.5999999999999943
21
-82.5600000000000023
0
LINE
8
BLACK
6
CONTINUOUS
10
210.5999999999999943
20
-82.5600000000000023
11
212.75
21
-82.5600000000000023
0
LINE
8
BLACK
6
CONTINUOUS
10
212.75
20
-82.5600000000000023
11
212.7729609999999809
21
-82.5645669999999967
0
LINE
8
BLACK
6
CONTINUOUS
10
212.7729609999999809
20
-82.5645669999999967
11
212.8054329999999936
21
-82.5970389999999952
0
LINE
8
BLACK
6
CONTINUOUS
10
212.8054329999999936
20
-82.5970389999999952
11
212.8100000000000023
21
-82.6199999999999903
0
LINE
8
BLACK
6
CONTINUOUS
10
212.8100000000000023
20
-82.6199999999999903
11
212.8100000000000023
21
-90.4200000000000017
0
LINE
8
BLACK
6
CONTINUOUS
10
212.8100000000000023
20
-90.4200000000000017
11
212.8054329999999936
21
-90.4429609999999968
0
LINE
8
BLACK
6
CONTINUOUS
10
212.8054329999999936
20
-90.4429609999999968
11
212.7729609999999809
21
-90.4754329999999953
0
LINE
8
BLACK
6
CONTINUOUS
10
212.7729609999999809
20
-90.4754329999999953
11
212.75
21
-90.4799999999999898
0
LINE
8
BLACK
6
CONTINUOUS
10
212.75
20
-90.4799999999999898
11
210.5999999999999943
21
-90.4799999999999898
0
LINE
8
BLACK
6
CONTINUOUS
10
210.5999999999999943
20
-90.4799999999999898
11
210.5999999999999943
21
-91.3099909999999966
0
LINE
8
BLACK
6
CONTINUOUS
10
210.5999999999999943
20
-91.3099909999999966
11
210.596193999999997
21
-91.3291249999999906
0
LINE
8
BLACK
6
CONTINUOUS
10
210.596193999999997
20
-91.3291249999999906
11
210.5691339999999911
21
-91.3561849999999964
0
LINE
8
BLACK
6
CONTINUOUS
10
210.5691339999999911
20
-91.3561849999999964
11
210.5499999999999829
21
-91.3599909999999937
0
LINE
8
BLACK
6
CONTINUOUS
10
210.5499999999999829
20
-91.3599909999999937
11
210.1383909999999844
21
-91.3599909999999937
0
LINE
8
BLACK
6
CONTINUOUS
10
210.1383909999999844
20
-91.3599909999999937
11
210.1383909999999844
21
-95.4524509999999964
0
LINE
8
BLACK
6
CONTINUOUS
10
210.1383909999999844
20
-95.4524509999999964
11
210.1364700000000028
21
-95.4719599999999957
0
LINE
8
BLACK
6
CONTINUOUS
10
210.1364700000000028
20
-95.4719599999999957
11
210.1215379999999868
21
-95.5080079999999896
0
LINE
8
BLACK
6
CONTINUOUS
10
210.1215379999999868
20
-95.5080079999999896
11
210.0939479999999833
21
-95.5355979999999931
0
LINE
8
BLACK
6
CONTINUOUS
10
210.0939479999999833
20
-95.5355979999999931
11
210.0578999999999894
21
-95.5505299999999949
0
LINE
8
BLACK
6
CONTINUOUS
10
210.0578999999999894
20
-95.5505299999999949
11
210.0383909999999901
21
-95.5524509999999907
0
LINE
8
BLACK
6
CONTINUOUS
10
210.0383909999999901
20
-95.5524509999999907
11
176.7000099999999918
21
-95.5524509999999907
0
LINE
8
BLACK
6
CONTINUOUS
10
176.7000099999999918
20
-95.5524509999999907
11
176.6805009999999925
21
-95.5505299999999949
0
LINE
8
BLACK
6
CONTINUOUS
10
176.6805009999999925
20
-95.5505299999999949
11
176.6444529999999986
21
-95.5355979999999931
0
LINE
8
BLACK
6
CONTINUOUS
10
176.6444529999999986
20
-95.5355979999999931
11
176.6168629999999951
21
-95.5080079999999896
0
LINE
8
BLACK
6
CONTINUOUS
10
176.6168629999999951
20
-95.5080079999999896
11
176.6019309999999791
21
-95.4719599999999957
0
LINE
8
BLACK
6
CONTINUOUS
10
176.6019309999999791
20
-95.4719599999999957
11
176.6000099999999975
21
-95.4524509999999964
0
LINE
8
BLACK
6
CONTINUOUS
10
176.6000099999999975
20
-95.4524509999999964
11
176.6000099999999975
21
-77.4075500000000005
0
LINE
8
BLACK
6
CONTINUOUS
10
176.6000099999999975
20
-77.4075500000000005
11
176.6019309999999791
21
-77.3880410000000012
0
LINE
8
BLACK
6
CONTINUOUS
10
176.6019309999999791
20
-77.3880410000000012
11
176.6168629999999951
21
-77.3519929999999931
0
LINE
8
BLACK
6
CONTINUOUS
10
176.6168629999999951
20
-77.3519929999999931
11
176.6444529999999986
21
-77.3244029999999896
0
LINE
8
BLACK
6
CONTINUOUS
10
176.6444529999999986
20
-77.3244029999999896
11
176.6805009999999925
21
-77.3094710000000021
0
LINE
8
BLACK
6
CONTINUOUS
10
176.6805009999999925
20
-77.3094710000000021
11
176.7000099999999918
21
-77.307549999999992
0
LINE
8
BLACK
6
CONTINUOUS
10
176.7000099999999918
20
-77.307549999999992
11
210.0383909999999901
21
-77.307549999999992
0
LINE
8
BLACK
6
CONTINUOUS
10
210.0383909999999901
20
-77.307549999999992
11
210.0578999999999894
21
-77.3094710000000021
0
LINE
8
BLACK
6
CONTINUOUS
10
176.8000099999999861
20
-77.5075499999999948
11
176.8000099999999861
21
-95.3524510000000021
0
LINE
8
BLACK
6
CONTINUOUS
10
176.8000099999999861
20
-95.3524510000000021
11
209.9383909999999958
21
-95.3524510000000021
0
LINE
8
BLACK
6
CONTINUOUS
10
209.9383909999999958
20
-95.3524510000000021
11
209.9383909999999958
21
-91.3599909999999937
0
LINE
8
BLACK
6
CONTINUOUS
10
209.9383909999999958
20
-91.3599909999999937
11
204.0499999999999829
21
-91.3599909999999937
0
LINE
8
BLACK
6
CONTINUOUS
10
204.0499999999999829
20
-91.3599909999999937
11
204.0308660000000032
21
-91.3561849999999964
0
LINE
8
BLACK
6
CONTINUOUS
10
204.0308660000000032
20
-91.3561849999999964
11
204.0038059999999973
21
-91.3291249999999906
0
LINE
8
BLACK
6
CONTINUOUS
10
204.0038059999999973
20
-91.3291249999999906
11
204.
21
-91.3099909999999966
0
LINE
8
BLACK
6
CONTINUOUS
10
204.
20
-91.3099909999999966
11
204.
21
-81.8099909999999966
0
LINE
8
BLACK
6
CONTINUOUS
10
204.
20
-81.8099909999999966
11
204.0038059999999973
21
-81.7908570000000026
0
LINE
8
BLACK
6
CONTINUOUS
10
204.0038059999999973
20
-81.7908570000000026
11
204.0308660000000032
21
-81.7637969999999967
0
LINE
8
BLACK
6
CONTINUOUS
10
204.0308660000000032
20
-81.7637969999999967
11
204.0499999999999829
21
-81.7599909999999994
0
LINE
8
BLACK
6
CONTINUOUS
10
204.0499999999999829
20
-81.7599909999999994
11
209.9383909999999958
21
-81.7599909999999994
0
LINE
8
BLACK
6
CONTINUOUS
10
209.9383909999999958
20
-81.7599909999999994
11
209.9383909999999958
21
-77.5075499999999948
0
LINE
8
BLACK
6
CONTINUOUS
10
209.9383909999999958
20
-77.5075499999999948
11
176.8000099999999861
21
-77.5075499999999948
0
LINE
8
BLACK
6
CONTINUOUS
10
204.0999999999999943
20
-81.8599909999999937
11
204.0999999999999943
21
-91.2599909999999994
0
LINE
8
BLACK
6
CONTINUOUS
10
204.0999999999999943
20
-91.2599909999999994
11
209.9383909999999958
21
-91.2599909999999994
0
LINE
8
BLACK
6
CONTINUOUS
10
209.9383909999999958
20
-91.2599909999999994
11
209.9383909999999958
21
-90.4799999999999898
0
LINE
8
BLACK
6
CONTINUOUS
10
209.9383909999999958
20
-90.4799999999999898
11
208.6999999999999886
21
-90.4799999999999898
0
LINE
8
BLACK
6
CONTINUOUS
10
208.6999999999999886
20
-90.4799999999999898
11
208.6770389999999793
21
-90.4754329999999953
0
LINE
8
BLACK
6
CONTINUOUS
10
208.6770389999999793
20
-90.4754329999999953
11
208.6677999999999997
21
-90.4661940000000016
0
LINE
8
BLACK
6
CONTINUOUS
10
208.6677999999999997
20
-90.4661940000000016
11
208.6308659999999975
21
-90.4661940000000016
0
LINE
8
BLACK
6
CONTINUOUS
10
208.6308659999999975
20
-90.4661940000000016
11
208.6038059999999916
21
-90.4391339999999957
0
LINE
8
BLACK
6
CONTINUOUS
10
208.6038059999999916
20
-90.4391339999999957
11
208.5999999999999943
21
-90.4200000000000017
0
LINE
8
BLACK
6
CONTINUOUS
10
208.5999999999999943
20
-90.4200000000000017
11
208.5999999999999943
21
-89.519999999999996
0
LINE
8
BLACK
6
CONTINUOUS
10
208.5999999999999943
20
-89.519999999999996
11
208.6038059999999916
21
-89.500866000000002
0
LINE
8
BLACK
6
CONTINUOUS
10
208.6038059999999916
20
-89.500866000000002
11
208.6308659999999975
21
-89.4738059999999962
0
LINE
8
BLACK
6
CONTINUOUS
10
208.6308659999999975
20
-89.4738059999999962
11
208.6691339999999855
21
-89.4738059999999962
0
LINE
8
BLACK
6
CONTINUOUS
10
208.6691339999999855
20
-89.4738059999999962
11
208.6961939999999913
21
-89.500866000000002
0
LINE
8
BLACK
6
CONTINUOUS
10
208.6961939999999913
20
-89.500866000000002
11
208.6999999999999886
21
-89.519999999999996
0
LINE
8
BLACK
6
CONTINUOUS
10
208.6999999999999886
20
-89.519999999999996
11
208.6999999999999886
21
-90.3599999999999994
0
LINE
8
BLACK
6
CONTINUOUS
10
208.6999999999999886
20
-90.3599999999999994
11
209.9383909999999958
21
-90.3599999999999994
0
LINE
8
BLACK
6
CONTINUOUS
10
209.9383909999999958
20
-90.3599999999999994
11
209.9383909999999958
21
-82.6799999999999926
0
LINE
8
BLACK
6
CONTINUOUS
10
209.9383909999999958
20
-82.6799999999999926
11
208.6999999999999886
21
-82.6799999999999926
0
LINE
8
BLACK
6
CONTINUOUS
10
208.6999999999999886
20
-82.6799999999999926
11
208.6999999999999886
21
-83.4200000000000017
0
LINE
8
BLACK
6
CONTINUOUS
10
208.6999999999999886
20
-83.4200000000000017
11
208.6961939999999913
21
-83.4391339999999957
0
LINE
8
BLACK
6
CONTINUOUS
10
208.6961939999999913
20
-83.4391339999999957
11
208.6691339999999855
21
-83.4661940000000016
0
LINE
8
BLACK
6
CONTINUOUS
10
208.6691339999999855
20
-83.4661940000000016
11
208.6308659999999975
21
-83.4661940000000016
0
LINE
8
BLACK
6
CONTINUOUS
10
208.6308659999999975
20
-83.4661940000000016
11
208.6038059999999916
21
-83.4391339999999957
0
LINE
8
BLACK
6
CONTINUOUS
10
208.6038059999999916
20
-83.4391339999999957
11
208.5999999999999943
21
-83.4200000000000017
0
LINE
8
BLACK
6
CONTINUOUS
10
208.5999999999999943
20
-83.4200000000000017
11
208.5999999999999943
21
-82.6483939999999961
0
LINE
8
BLACK
6
CONTINUOUS
10
208.5999999999999943
20
-82.6483939999999961
11
208.5945669999999836
21
-82.6429609999999997
0
LINE
8
BLACK
6
CONTINUOUS
10
208.5945669999999836
20
-82.6429609999999997
11
208.5945669999999836
21
-82.5970389999999952
0
LINE
8
BLACK
6
CONTINUOUS
10
208.5945669999999836
20
-82.5970389999999952
11
208.6270389999999963
21
-82.5645669999999967
0
LINE
8
BLACK
6
CONTINUOUS
10
208.6270389999999963
20
-82.5645669999999967
11
208.6499999999999773
21
-82.5600000000000023
0
LINE
8
BLACK
6
CONTINUOUS
10
208.6499999999999773
20
-82.5600000000000023
11
209.9383909999999958
21
-82.5600000000000023
0
LINE
8
BLACK
6
CONTINUOUS
10
209.9383909999999958
20
-82.5600000000000023
11
209.9383909999999958
21
-81.8599909999999937
0
LINE
8
BLACK
6
CONTINUOUS
10
209.9383909999999958
20
-81.8599909999999937
11
204.0999999999999943
21
-81.8599909999999937
0
LINE
8
BLACK
6
CONTINUOUS
10
210.1383909999999844
20
-90.4799999999999898
11
210.1383909999999844
21
-91.2599909999999994
0
LINE
8
BLACK
6
CONTINUOUS
10
210.1383909999999844
20
-91.2599909999999994
11
210.5
21
-91.2599909999999994
0
LINE
8
BLACK
6
CONTINUOUS
10
210.5
20
-91.2599909999999994
11
210.5
21
-90.4799999999999898
0
LINE
8
BLACK
6
CONTINUOUS
10
210.5
20
-90.4799999999999898
11
210.1383909999999844
21
-90.4799999999999898
0
LINE
8
BLACK
6
CONTINUOUS
10
210.1383909999999844
20
-82.6799999999999926
11
210.1383909999999844
21
-90.3599999999999994
0
LINE
8
BLACK
6
CONTINUOUS
10
210.1383909999999844
20
-90.3599999999999994
11
210.5
21
-90.3599999999999994
0
LINE
8
BLACK
6
CONTINUOUS
10
210.5
20
-90.3599999999999994
11
210.5
21
-82.6799999999999926
0
LINE
8
BLACK
6
CONTINUOUS
10
210.5
20
-82.6799999999999926
11
210.1383909999999844
21
-82.6799999999999926
0
LINE
8
BLACK
6
CONTINUOUS
10
210.5999999999999943
20
-82.6799999999999926
11
210.5999999999999943
21
-90.3599999999999994
0
LINE
8
BLACK
6
CONTINUOUS
10
210.5999999999999943
20
-90.3599999999999994
11
212.6899999999999977
21
-90.3599999999999994
0
LINE
8
BLACK
6
CONTINUOUS
10
212.6899999999999977
20
-90.3599999999999994
11
212.6899999999999977
21
-82.6799999999999926
0
LINE
8
BLACK
6
CONTINUOUS
10
212.6899999999999977
20
-82.6799999999999926
11
210.5999999999999943
21
-82.6799999999999926
0
LINE
8
BLACK
6
CONTINUOUS
10
210.1383909999999844
20
-81.8599909999999937
11
210.1383909999999844
21
-82.5600000000000023
0
LINE
8
BLACK
6
CONTINUOUS
10
210.1383909999999844
20
-82.5600000000000023
11
210.5
21
-82.5600000000000023
0
LINE
8
BLACK
6
CONTINUOUS
10
210.5
20
-82.5600000000000023
11
210.5
21
-81.8599909999999937
0
LINE
8
BLACK
6
CONTINUOUS
10
210.5
20
-81.8599909999999937
11
210.1383909999999844
21
-81.8599909999999937
0
LINE
8
BLACK
6
CONTINUOUS
10
208.9029609999999764
20
-74.0445670000000007
11
208.9354329999999891
21
-74.0770389999999992
0
LINE
8
BLACK
6
CONTINUOUS
10
208.9354329999999891
20
-74.0770389999999992
11
208.9354329999999891
21
-74.1229610000000037
0
LINE
8
BLACK
6
CONTINUOUS
10
208.9354329999999891
20
-74.1229610000000037
11
208.9029609999999764
21
-74.1554330000000022
0
LINE
8
BLACK
6
CONTINUOUS
10
208.9029609999999764
20
-74.1554330000000022
11
208.8799999999999955
21
-74.1599999999999966
0
LINE
8
BLACK
6
CONTINUOUS
10
208.8799999999999955
20
-74.1599999999999966
11
206.0499999999999829
21
-74.1599999999999966
0
LINE
8
BLACK
6
CONTINUOUS
10
206.0499999999999829
20
-74.1599999999999966
11
206.0499999999999829
21
-75.3199999999999932
0
LINE
8
BLACK
6
CONTINUOUS
10
206.0499999999999829
20
-75.3199999999999932
11
207.5900000000000034
21
-75.3199999999999932
0
LINE
8
BLACK
6
CONTINUOUS
10
207.5900000000000034
20
-75.3199999999999932
11
207.6129609999999843
21
-75.3245670000000018
0
LINE
8
BLACK
6
CONTINUOUS
10
207.6129609999999843
20
-75.3245670000000018
11
207.645432999999997
21
-75.3570390000000003
0
LINE
8
BLACK
6
CONTINUOUS
10
207.645432999999997
20
-75.3570390000000003
11
207.6499999999999773
21
-75.3799999999999955
0
LINE
8
BLACK
6
CONTINUOUS
10
207.6499999999999773
20
-75.3799999999999955
11
207.6499999999999773
21
-76.3999999999999915
0
LINE
8
BLACK
6
CONTINUOUS
10
207.6499999999999773
20
-76.3999999999999915
11
207.645432999999997
21
-76.4229610000000008
0
LINE
8
BLACK
6
CONTINUOUS
10
207.645432999999997
20
-76.4229610000000008
11
207.6129609999999843
21
-76.4554329999999993
0
LINE
8
BLACK
6
CONTINUOUS
10
207.6129609999999843
20
-76.4554329999999993
11
207.5900000000000034
21
-76.4599999999999937
0
LINE
8
BLACK
6
CONTINUOUS
10
207.5900000000000034
20
-76.4599999999999937
11
203.3400000000000034
21
-76.4599999999999937
0
LINE
8
BLACK
6
CONTINUOUS
10
203.3400000000000034
20
-76.4599999999999937
11
203.3170389999999941
21
-76.4554329999999993
0
LINE
8
BLACK
6
CONTINUOUS
10
203.3170389999999941
20
-76.4554329999999993
11
203.2845669999999814
21
-76.4229610000000008
0
LINE
8
BLACK
6
CONTINUOUS
10
203.2845669999999814
20
-76.4229610000000008
11
203.2845669999999814
21
-76.3770389999999963
0
LINE
8
BLACK
6
CONTINUOUS
10
203.2845669999999814
20
-76.3770389999999963
11
203.3170389999999941
21
-76.3445669999999978
0
LINE
8
BLACK
6
CONTINUOUS
10
203.3170389999999941
20
-76.3445669999999978
11
203.3400000000000034
21
-76.3400000000000034
0
LINE
8
BLACK
6
CONTINUOUS
10
203.3400000000000034
20
-76.3400000000000034
11
207.5300000000000011
21
-76.3400000000000034
0
LINE
8
BLACK
6
CONTINUOUS
10
207.5300000000000011
20
-76.3400000000000034
11
207.5300000000000011
21
-75.4399999999999977
0
LINE
8
BLACK
6
CONTINUOUS
10
207.5300000000000011
20
-75.4399999999999977
11
205.9899999999999807
21
-75.4399999999999977
0
LINE
8
BLACK
6
CONTINUOUS
10
205.9899999999999807
20
-75.4399999999999977
11
205.9670389999999998
21
-75.4354330000000033
0
LINE
8
BLACK
6
CONTINUOUS
10
205.9670389999999998
20
-75.4354330000000033
11
205.934566999999987
21
-75.4029609999999906
0
LINE
8
BLACK
6
CONTINUOUS
10
205.934566999999987
20
-75.4029609999999906
11
205.9299999999999784
21
-75.3799999999999955
0
LINE
8
BLACK
6
CONTINUOUS
10
205.9299999999999784
20
-75.3799999999999955
11
205.9299999999999784
21
-74.0999999999999943
0
LINE
8
BLACK
6
CONTINUOUS
10
205.9299999999999784
20
-74.0999999999999943
11
205.934566999999987
21
-74.0770389999999992
0
LINE
8
BLACK
6
CONTINUOUS
10
205.934566999999987
20
-74.0770389999999992
11
205.9670389999999998
21
-74.0445670000000007
0
LINE
8
BLACK
6
CONTINUOUS
10
205.9670389999999998
20
-74.0445670000000007
11
205.9899999999999807
21
-74.039999999999992
0
LINE
8
BLACK
6
CONTINUOUS
10
205.9899999999999807
20
-74.039999999999992
11
208.8799999999999955
21
-74.039999999999992
0
LINE
8
BLACK
6
CONTINUOUS
10
208.8799999999999955
20
-74.039999999999992
11
208.9029609999999764
21
-74.0445670000000007
0
LINE
8
BLACK
6
CONTINUOUS
10
199.8254330000000039
20
-69.9770389999999907
11
199.8299999999999841
21
-70.
0
LINE
8
BLACK
6
CONTINUOUS
10
199.8299999999999841
20
-70.
11
199.8299999999999841
21
-74.6799999999999926
0
LINE
8
BLACK
6
CONTINUOUS
10
199.8299999999999841
20
-74.6799999999999926
11
199.8254330000000039
21
-74.7029610000000019
0
LINE
8
BLACK
6
CONTINUOUS
10
199.8254330000000039
20
-74.7029610000000019
11
199.7929609999999911
21
-74.7354330000000004
0
LINE
8
BLACK
6
CONTINUOUS
10
199.7929609999999911
20
-74.7354330000000004
11
199.7470390000000009
21
-74.7354330000000004
0
LINE
8
BLACK
6
CONTINUOUS
10
199.7470390000000009
20
-74.7354330000000004
11
199.7145669999999882
21
-74.7029610000000019
0
LINE
8
BLACK
6
CONTINUOUS
10
199.7145669999999882
20
-74.7029610000000019
11
199.7099999999999795
21
-74.6799999999999926
0
LINE
8
BLACK
6
CONTINUOUS
10
199.7099999999999795
20
-74.6799999999999926
11
199.7099999999999795
21
-70.
0
LINE
8
BLACK
6
CONTINUOUS
10
199.7099999999999795
20
-70.
11
199.7145669999999882
21
-69.9770389999999907
0
LINE
8
BLACK
6
CONTINUOUS
10
199.7145669999999882
20
-69.9770389999999907
11
199.7470390000000009
21
-69.9445669999999922
0
LINE
8
BLACK
6
CONTINUOUS
10
199.7470390000000009
20
-69.9445669999999922
11
199.7929609999999911
21
-69.9445669999999922
0
LINE
8
BLACK
6
CONTINUOUS
10
199.7929609999999911
20
-69.9445669999999922
11
199.8254330000000039
21
-69.9770389999999907
0
LINE
8
BLACK
6
CONTINUOUS
10
173.9323339999999973
20
-71.3366419999999977
11
173.9533579999999802
21
-71.3576659999999947
0
LINE
8
BLACK
6
CONTINUOUS
10
173.9533579999999802
20
-71.3576659999999947
11
173.9647359999999878
21
-71.3851339999999936
0
LINE
8
BLACK
6
CONTINUOUS
10
173.9647359999999878
20
-71.3851339999999936
11
173.9661999999999864
21
-71.3999999999999915
0
LINE
8
BLACK
6
CONTINUOUS
10
173.9661999999999864
20
-71.3999999999999915
11
173.9661999999999864
21
-73.9238
0
LINE
8
BLACK
6
CONTINUOUS
10
173.9661999999999864
20
-73.9238
11
174.9899999999999807
21
-73.9238
0
LINE
8
BLACK
6
CONTINUOUS
10
174.9899999999999807
20
-73.9238
11
175.0048659999999927
21
-73.9252639999999985
0
LINE
8
BLACK
6
CONTINUOUS
10
175.0048659999999927
20
-73.9252639999999985
11
175.0323339999999916
21
-73.936641999999992
0
LINE
8
BLACK
6
CONTINUOUS
10
175.0323339999999916
20
-73.936641999999992
11
175.0533580000000029
21
-73.9576660000000032
0
LINE
8
BLACK
6
CONTINUOUS
10
175.0533580000000029
20
-73.9576660000000032
11
175.0647359999999821
21
-73.9851340000000022
0
LINE
8
BLACK
6
CONTINUOUS
10
175.0647359999999821
20
-73.9851340000000022
11
175.0647359999999821
21
-74.0148659999999978
0
LINE
8
BLACK
6
CONTINUOUS
10
175.0647359999999821
20
-74.0148659999999978
11
175.0533580000000029
21
-74.0423339999999968
0
LINE
8
BLACK
6
CONTINUOUS
10
175.0533580000000029
20
-74.0423339999999968
11
175.0323339999999916
21
-74.0633579999999938
0
LINE
8
BLACK
6
CONTINUOUS
10
175.0323339999999916
20
-74.0633579999999938
11
175.0048659999999927
21
-74.0747360000000015
0
LINE
8
BLACK
6
CONTINUOUS
10
175.0048659999999927
20
-74.0747360000000015
11
174.9899999999999807
21
-74.0762
0
LINE
8
BLACK
6
CONTINUOUS
10
174.9899999999999807
20
-74.0762
11
173.8899999999999864
21
-74.0762
0
LINE
8
BLACK
6
CONTINUOUS
10
173.8899999999999864
20
-74.0762
11
173.8751340000000027
21
-74.0747360000000015
0
LINE
8
BLACK
6
CONTINUOUS
10
173.8751340000000027
20
-74.0747360000000015
11
173.8476660000000038
21
-74.0633579999999938
0
LINE
8
BLACK
6
CONTINUOUS
10
173.8476660000000038
20
-74.0633579999999938
11
173.8266419999999925
21
-74.0423339999999968
0
LINE
8
BLACK
6
CONTINUOUS
10
173.8266419999999925
20
-74.0423339999999968
11
173.8152639999999849
21
-74.0148659999999978
0
LINE
8
BLACK
6
CONTINUOUS
10
173.8152639999999849
20
-74.0148659999999978
11
173.8137999999999863
21
-74.
0
LINE
8
BLACK
6
CONTINUOUS
10
173.8137999999999863
20
-74.
11
173.8137999999999863
21
-71.3999999999999915
0
LINE
8
BLACK
6
CONTINUOUS
10
173.8137999999999863
20
-71.3999999999999915
11
173.8152639999999849
21
-71.3851339999999936
0
LINE
8
BLACK
6
CONTINUOUS
10
173.8152639999999849
20
-71.3851339999999936
11
173.8266419999999925
21
-71.3576659999999947
0
LINE
8
BLACK
6
CONTINUOUS
10
173.8266419999999925
20
-71.3576659999999947
11
173.8476660000000038
21
-71.3366419999999977
0
LINE
8
BLACK
6
CONTINUOUS
10
173.8476660000000038
20
-71.3366419999999977
11
173.8751340000000027
21
-71.32526399999999
0
LINE
8
BLACK
6
CONTINUOUS
10
173.8751340000000027
20
-71.32526399999999
11
173.9048659999999984
21
-71.32526399999999
0
LINE
8
BLACK
6
CONTINUOUS
10
173.9048659999999984
20
-71.32526399999999
11
173.9323339999999973
21
-71.3366419999999977
0
LINE
8
BLACK
6
CONTINUOUS
10
180.0323339999999916
20
-71.3366419999999977
11
180.0533580000000029
21
-71.3576659999999947
0
LINE
8
BLACK
6
CONTINUOUS
10
180.0533580000000029
20
-71.3576659999999947
11
180.0647359999999821
21
-71.3851339999999936
0
LINE
8
BLACK
6
CONTINUOUS
10
180.0647359999999821
20
-71.3851339999999936
11
180.0661999999999807
21
-71.3999999999999915
0
LINE
8
BLACK
6
CONTINUOUS
10
180.0661999999999807
20
-71.3999999999999915
11
180.0661999999999807
21
-74.
0
LINE
8
BLACK
6
CONTINUOUS
10
180.0661999999999807
20
-74.
11
180.0647359999999821
21
-74.0148659999999978
0
LINE
8
BLACK
6
CONTINUOUS
10
180.0647359999999821
20
-74.0148659999999978
11
180.0533580000000029
21
-74.0423339999999968
0
LINE
8
BLACK
6
CONTINUOUS
10
180.0533580000000029
20
-74.0423339999999968
11
180.0323339999999916
21
-74.0633579999999938
0
LINE
8
BLACK
6
CONTINUOUS
10
180.0323339999999916
20
-74.0633579999999938
11
180.0048659999999927
21
-74.0747360000000015
0
LINE
8
BLACK
6
CONTINUOUS
10
180.0048659999999927
20
-74.0747360000000015
11
179.9899999999999807
21
-74.0762
0
LINE
8
BLACK
6
CONTINUOUS
10
179.9899999999999807
20
-74.0762
11
178.789999999999992
21
-74.0762
0
LINE
8
BLACK
6
CONTINUOUS
10
178.789999999999992
20
-74.0762
11
178.77513399999998
21
-74.0747360000000015
0
LINE
8
BLACK
6
CONTINUOUS
10
178.77513399999998
20
-74.0747360000000015
11
178.7476659999999811
21
-74.0633579999999938
0
LINE
8
BLACK
6
CONTINUOUS
10
178.7476659999999811
20
-74.0633579999999938
11
178.7266419999999982
21
-74.0423339999999968
0
LINE
8
BLACK
6
CONTINUOUS
10
178.7266419999999982
20
-74.0423339999999968
11
178.7152639999999906
21
-74.0148659999999978
0
LINE
8
BLACK
6
CONTINUOUS
10
178.7152639999999906
20
-74.0148659999999978
11
178.7152639999999906
21
-73.9851340000000022
0
LINE
8
BLACK
6
CONTINUOUS
10
178.7152639999999906
20
-73.9851340000000022
11
178.7266419999999982
21
-73.9576660000000032
0
LINE
8
BLACK
6
CONTINUOUS
10
178.7266419999999982
20
-73.9576660000000032
11
178.7476659999999811
21
-73.936641999999992
0
LINE
8
BLACK
6
CONTINUOUS
10
178.7476659999999811
20
-73.936641999999992
11
178.77513399999998
21
-73.9252639999999985
0
LINE
8
BLACK
6
CONTINUOUS
10
178.77513399999998
20
-73.9252639999999985
11
178.789999999999992
21
-73.9238
0
LINE
8
BLACK
6
CONTINUOUS
10
178.789999999999992
20
-73.9238
11
179.9137999999999806
21
-73.9238
0
LINE
8
BLACK
6
CONTINUOUS
10
179.9137999999999806
20
-73.9238
11
179.9137999999999806
21
-71.3999999999999915
0
LINE
8
BLACK
6
CONTINUOUS
10
179.9137999999999806
20
-71.3999999999999915
11
179.9152639999999792
21
-71.3851339999999936
0
LINE
8
BLACK
6
CONTINUOUS
10
179.9152639999999792
20
-71.3851339999999936
11
179.9266419999999869
21
-71.3576659999999947
0
LINE
8
BLACK
6
CONTINUOUS
10
179.9266419999999869
20
-71.3576659999999947
11
179.9476659999999981
21
-71.3366419999999977
0
LINE
8
BLACK
6
CONTINUOUS
10
179.9476659999999981
20
-71.3366419999999977
11
179.9751339999999971
21
-71.32526399999999
0
LINE
8
BLACK
6
CONTINUOUS
10
179.9751339999999971
20
-71.32526399999999
11
180.0048659999999927
21
-71.32526399999999
0
LINE
8
BLACK
6
CONTINUOUS
10
180.0048659999999927
20
-71.32526399999999
11
180.0323339999999916
21
-71.3366419999999977
0
LINE
8
BLACK
6
CONTINUOUS
10
198.3303420000000017
20
-72.3629009999999937
11
198.3565169999999966
21
-72.3759889999999899
0
LINE
8
BLACK
6
CONTINUOUS
10
198.3565169999999966
20
-72.3759889999999899
11
198.3756899999999916
21
-72.3980959999999953
0
LINE
8
BLACK
6
CONTINUOUS
10
198.3756899999999916
20
-72.3980959999999953
11
198.3849439999999902
21
-72.425857999999991
0
LINE
8
BLACK
6
CONTINUOUS
10
198.3849439999999902
20
-72.425857999999991
11
198.3828699999999969
21
-72.4550479999999908
0
LINE
8
BLACK
6
CONTINUOUS
10
198.3828699999999969
20
-72.4550479999999908
11
198.3776149999999916
21
-72.4687789999999978
0
LINE
8
BLACK
6
CONTINUOUS
10
198.3776149999999916
20
-72.4687789999999978
11
198.3299959999999942
21
-72.5640169999999927
0
LINE
8
BLACK
6
CONTINUOUS
10
198.3299959999999942
20
-72.5640169999999927
11
198.3260329999999954
21
-72.5703110000000038
0
LINE
8
BLACK
6
CONTINUOUS
10
198.3260329999999954
20
-72.5703110000000038
11
198.3252750000000049
21
-72.5721439999999944
0
LINE
8
BLACK
6
CONTINUOUS
10
198.3252750000000049
20
-72.5721439999999944
11
198.3235829999999851
21
-72.5742049999999921
0
LINE
8
BLACK
6
CONTINUOUS
10
198.3235829999999851
20
-72.5742049999999921
11
198.3221639999999866
21
-72.5764599999999973
0
LINE
8
BLACK
6
CONTINUOUS
10
198.3221639999999866
20
-72.5764599999999973
11
198.320666999999986
21
-72.5777580000000029
0
LINE
8
BLACK
6
CONTINUOUS
10
198.320666999999986
20
-72.5777580000000029
11
198.3159469999999942
21
-72.5835089999999923
0
LINE
8
BLACK
6
CONTINUOUS
10
198.3159469999999942
20
-72.5835089999999923
11
198.2535039999999924
21
-72.6459519999999941
0
LINE
8
BLACK
6
CONTINUOUS
10
198.2535039999999924
20
-72.6459519999999941
11
198.9498189999999909
21
-72.6459519999999941
0
LINE
8
BLACK
6
CONTINUOUS
10
198.9498189999999909
20
-72.6459519999999941
11
198.9498189999999909
21
-72.4352379999999982
0
LINE
8
BLACK
6
CONTINUOUS
10
198.9498189999999909
20
-72.4352379999999982
11
198.9512599999999907
21
-72.4206059999999923
0
LINE
8
BLACK
6
CONTINUOUS
10
198.9512599999999907
20
-72.4206059999999923
11
198.9624589999999955
21
-72.3935699999999969
0
LINE
8
BLACK
6
CONTINUOUS
10
198.9624589999999955
20
-72.3935699999999969
11
198.9831509999999923
21
-72.372878
0
LINE
8
BLACK
6
CONTINUOUS
10
198.9831509999999923
20
-72.372878
11
199.0101870000000019
21
-72.3616789999999952
0
LINE
8
BLACK
6
CONTINUOUS
10
199.0101870000000019
20
-72.3616789999999952
11
199.0394509999999855
21
-72.3616789999999952
0
LINE
8
BLACK
6
CONTINUOUS
10
199.0394509999999855
20
-72.3616789999999952
11
199.0664869999999951
21
-72.372878
0
LINE
8
BLACK
6
CONTINUOUS
10
199.0664869999999951
20
-72.372878
11
199.0871789999999919
21
-72.3935699999999969
0
LINE
8
BLACK
6
CONTINUOUS
10
199.0871789999999919
20
-72.3935699999999969
11
199.0983779999999967
21
-72.4206059999999923
0
LINE
8
BLACK
6
CONTINUOUS
10
199.0983779999999967
20
-72.4206059999999923
11
199.0998189999999965
21
-72.4352379999999982
0
LINE
8
BLACK
6
CONTINUOUS
10
199.0998189999999965
20
-72.4352379999999982
11
199.0998189999999965
21
-73.0066659999999956
0
LINE
8
BLACK
6
CONTINUOUS
10
199.0998189999999965
20
-73.0066659999999956
11
199.0983779999999967
21
-73.0212980000000016
0
LINE
8
BLACK
6
CONTINUOUS
10
199.0983779999999967
20
-73.0212980000000016
11
199.0871789999999919
21
-73.048333999999997
0
LINE
8
BLACK
6
CONTINUOUS
10
199.0871789999999919
20
-73.048333999999997
11
199.0664869999999951
21
-73.0690259999999938
0
LINE
8
BLACK
6
CONTINUOUS
10
199.0664869999999951
20
-73.0690259999999938
11
199.0394509999999855
21
-73.0802249999999987
0
LINE
8
BLACK
6
CONTINUOUS
10
199.0394509999999855
20
-73.0802249999999987
11
199.0101870000000019
21
-73.0802249999999987
0
LINE
8
BLACK
6
CONTINUOUS
10
199.0101870000000019
20
-73.0802249999999987
11
198.9831509999999923
21
-73.0690259999999938
0
LINE
8
BLACK
6
CONTINUOUS
10
198.9831509999999923
20
-73.0690259999999938
11
198.9624589999999955
21
-73.048333999999997
0
LINE
8
BLACK
6
CONTINUOUS
10
198.9624589999999955
20
-73.048333999999997
11
198.9512599999999907
21
-73.0212980000000016
0
LINE
8
BLACK
6
CONTINUOUS
10
198.9512599999999907
20
-73.0212980000000016
11
198.9498189999999909
21
-73.0066659999999956
0
LINE
8
BLACK
6
CONTINUOUS
10
198.9498189999999909
20
-73.0066659999999956
11
198.9498189999999909
21
-72.7959519999999998
0
LINE
8
BLACK
6
CONTINUOUS
10
198.9498189999999909
20
-72.7959519999999998
11
198.0248189999999795
21
-72.7959519999999998
0
LINE
8
BLACK
6
CONTINUOUS
10
198.0248189999999795
20
-72.7959519999999998
11
198.0247659999999996
21
-72.7959460000000007
0
LINE
8
BLACK
6
CONTINUOUS
10
198.0247659999999996
20
-72.7959460000000007
11
198.02473999999998
21
-72.7959519999999998
0
LINE
8
BLACK
6
CONTINUOUS
10
198.02473999999998
20
-72.7959519999999998
11
198.0246630000000039
21
-72.7959359999999975
0
LINE
8
BLACK
6
CONTINUOUS
10
198.0246630000000039
20
-72.7959359999999975
11
198.0101870000000019
21
-72.794511
0
LINE
8
BLACK
6
CONTINUOUS
10
198.0101870000000019
20
-72.794511
11
198.0033259999999871
21
-72.7916689999999988
0
LINE
8
BLACK
6
CONTINUOUS
10
198.0033259999999871
20
-72.7916689999999988
11
197.9960459999999784
21
-72.7902129999999943
0
LINE
8
BLACK
6
CONTINUOUS
10
197.9960459999999784
20
-72.7902129999999943
11
197.9899399999999901
21
-72.7861240000000009
0
LINE
8
BLACK
6
CONTINUOUS
10
197.9899399999999901
20
-72.7861240000000009
11
197.9831509999999923
21
-72.7833119999999951
0
LINE
8
BLACK
6
CONTINUOUS
10
197.9831509999999923
20
-72.7833119999999951
11
197.9778999999999769
21
-72.7780609999999939
0
LINE
8
BLACK
6
CONTINUOUS
10
197.9778999999999769
20
-72.7780609999999939
11
197.971730999999977
21
-72.7739299999999929
0
LINE
8
BLACK
6
CONTINUOUS
10
197.971730999999977
20
-72.7739299999999929
11
197.9676539999999818
21
-72.7678149999999988
0
LINE
8
BLACK
6
CONTINUOUS
10
197.9676539999999818
20
-72.7678149999999988
11
197.9624589999999955
21
-72.7626199999999983
0
LINE
8
BLACK
6
CONTINUOUS
10
197.9624589999999955
20
-72.7626199999999983
11
197.9596169999999802
21
-72.7557589999999976
0
LINE
8
BLACK
6
CONTINUOUS
10
197.9596169999999802
20
-72.7557589999999976
11
197.9554979999999773
21
-72.7495809999999921
0
LINE
8
BLACK
6
CONTINUOUS
10
197.9554979999999773
20
-72.7495809999999921
11
197.9540719999999965
21
-72.7423720000000031
0
LINE
8
BLACK
6
CONTINUOUS
10
197.9540719999999965
20
-72.7423720000000031
11
197.9512599999999907
21
-72.7355840000000029
0
LINE
8
BLACK
6
CONTINUOUS
10
197.9512599999999907
20
-72.7355840000000029
11
197.9512599999999907
21
-72.7281569999999959
0
LINE
8
BLACK
6
CONTINUOUS
10
197.9512599999999907
20
-72.7281569999999959
11
197.9498189999999909
21
-72.7208729999999974
0
LINE
8
BLACK
6
CONTINUOUS
10
197.9498189999999909
20
-72.7208729999999974
11
197.9512599999999907
21
-72.7136679999999984
0
LINE
8
BLACK
6
CONTINUOUS
10
197.9512599999999907
20
-72.7136679999999984
11
197.9512599999999907
21
-72.706319999999991
0
LINE
8
BLACK
6
CONTINUOUS
10
197.9512599999999907
20
-72.706319999999991
11
197.9541009999999801
21
-72.6994589999999903
0
LINE
8
BLACK
6
CONTINUOUS
10
197.9541009999999801
20
-72.6994589999999903
11
197.9555579999999964
21
-72.6921789999999959
0
LINE
8
BLACK
6
CONTINUOUS
10
197.9555579999999964
20
-72.6921789999999959
11
197.9596459999999922
21
-72.6860729999999933
0
LINE
8
BLACK
6
CONTINUOUS
10
197.9596459999999922
20
-72.6860729999999933
11
197.9624589999999955
21
-72.6792839999999956
0
LINE
8
BLACK
6
CONTINUOUS
10
197.9624589999999955
20
-72.6792839999999956
11
197.9677089999999851
21
-72.6740329999999943
0
LINE
8
BLACK
6
CONTINUOUS
10
197.9677089999999851
20
-72.6740329999999943
11
197.9718409999999835
21
-72.6678639999999945
0
LINE
8
BLACK
6
CONTINUOUS
10
197.9718409999999835
20
-72.6678639999999945
11
197.9830989999999815
21
-72.6586429999999979
0
LINE
8
BLACK
6
CONTINUOUS
10
197.9830989999999815
20
-72.6586429999999979
11
197.9831509999999923
21
-72.6585919999999987
0
LINE
8
BLACK
6
CONTINUOUS
10
197.9831509999999923
20
-72.6585919999999987
11
197.9831729999999936
21
-72.6585819999999956
0
LINE
8
BLACK
6
CONTINUOUS
10
197.9831729999999936
20
-72.6585819999999956
11
197.9832159999999988
21
-72.6585479999999961
0
LINE
8
BLACK
6
CONTINUOUS
10
197.9832159999999988
20
-72.6585479999999961
11
198.119893999999988
21
-72.56742899999999
0
LINE
8
BLACK
6
CONTINUOUS
10
198.119893999999988
20
-72.56742899999999
11
198.2012749999999812
21
-72.4860489999999942
0
LINE
8
BLACK
6
CONTINUOUS
10
198.2012749999999812
20
-72.4860489999999942
11
198.2434509999999932
21
-72.4016969999999986
0
LINE
8
BLACK
6
CONTINUOUS
10
198.2434509999999932
20
-72.4016969999999986
11
198.2512830000000008
21
-72.389253999999994
0
LINE
8
BLACK
6
CONTINUOUS
10
198.2512830000000008
20
-72.389253999999994
11
198.2733910000000037
21
-72.370080999999999
0
LINE
8
BLACK
6
CONTINUOUS
10
198.2733910000000037
20
-72.370080999999999
11
198.3011520000000019
21
-72.3608270000000005
0
LINE
8
BLACK
6
CONTINUOUS
10
198.3011520000000019
20
-72.3608270000000005
11
198.3303420000000017
21
-72.3629009999999937
0
LINE
8
BLACK
6
CONTINUOUS
10
176.6954069999999888
20
-70.6901919999999961
11
176.6962220000000059
21
-70.6899209999999982
0
LINE
8
BLACK
6
CONTINUOUS
10
176.6962220000000059
20
-70.6899209999999982
11
176.7020039999999881
21
-70.6915039999999948
0
LINE
8
BLACK
6
CONTINUOUS
10
176.7020039999999881
20
-70.6915039999999948
11
176.7078789999999913
21
-70.6926729999999992
0
LINE
8
BLACK
6
CONTINUOUS
10
176.7078789999999913
20
-70.6926729999999992
11
176.708484999999996
21
-70.6932789999999898
0
LINE
8
BLACK
6
CONTINUOUS
10
176.708484999999996
20
-70.6932789999999898
11
176.7102919999999813
21
-70.6937739999999906
0
LINE
8
BLACK
6
CONTINUOUS
10
176.7102919999999813
20
-70.6937739999999906
11
176.8725029999999947
21
-70.774879999999996
0
LINE
8
BLACK
6
CONTINUOUS
10
176.8725029999999947
20
-70.774879999999996
11
176.877239000000003
21
-70.7785549999999972
0
LINE
8
BLACK
6
CONTINUOUS
10
176.877239000000003
20
-70.7785549999999972
11
176.8822199999999896
21
-70.7818839999999909
0
LINE
8
BLACK
6
CONTINUOUS
10
176.8822199999999896
20
-70.7818839999999909
11
176.963325999999995
21
-70.8629899999999964
0
LINE
8
BLACK
6
CONTINUOUS
10
176.963325999999995
20
-70.8629899999999964
11
176.9714309999999955
21
-70.8751199999999955
0
LINE
8
BLACK
6
CONTINUOUS
10
176.9714309999999955
20
-70.8751199999999955
11
176.9714309999999955
21
-70.903735999999995
0
LINE
8
BLACK
6
CONTINUOUS
10
176.9714309999999955
20
-70.903735999999995
11
176.9511959999999817
21
-70.9239709999999945
0
LINE
8
BLACK
6
CONTINUOUS
10
176.9511959999999817
20
-70.9239709999999945
11
176.9225799999999822
21
-70.9239709999999945
0
LINE
8
BLACK
6
CONTINUOUS
10
176.9225799999999822
20
-70.9239709999999945
11
176.9104499999999973
21
-70.9158659999999941
0
LINE
8
BLACK
6
CONTINUOUS
10
176.9104499999999973
20
-70.9158659999999941
11
176.8336339999999893
21
-70.8390500000000003
0
LINE
8
BLACK
6
CONTINUOUS
10
176.8336339999999893
20
-70.8390500000000003
11
176.6847439999999949
21
-70.7646050000000031
0
LINE
8
BLACK
6
CONTINUOUS
10
176.6847439999999949
20
-70.7646050000000031
11
176.2968689999999867
21
-70.7646050000000031
0
LINE
8
BLACK
6
CONTINUOUS
10
176.2968689999999867
20
-70.7646050000000031
11
176.1479769999999974
21
-70.8390509999999978
0
LINE
8
BLACK
6
CONTINUOUS
10
176.1479769999999974
20
-70.8390509999999978
11
176.0754529999999818
21
-70.9115740000000017
0
LINE
8
BLACK
6
CONTINUOUS
10
176.0754529999999818
20
-70.9115740000000017
11
176.0010079999999846
21
-71.060465999999991
0
LINE
8
BLACK
6
CONTINUOUS
10
176.0010079999999846
20
-71.060465999999991
11
176.0010079999999846
21
-71.2077850000000012
0
LINE
8
BLACK
6
CONTINUOUS
10
176.0010079999999846
20
-71.2077850000000012
11
176.0774030000000039
21
-71.4369719999999973
0
LINE
8
BLACK
6
CONTINUOUS
10
176.0774030000000039
20
-71.4369719999999973
11
177.0444320000000005
21
-72.4039999999999964
0
LINE
8
BLACK
6
CONTINUOUS
10
177.0444320000000005
20
-72.4039999999999964
11
177.0525370000000009
21
-72.4161299999999954
0
LINE
8
BLACK
6
CONTINUOUS
10
177.0525370000000009
20
-72.4161299999999954
11
177.0525370000000009
21
-72.444745999999995
0
LINE
8
BLACK
6
CONTINUOUS
10
177.0525370000000009
20
-72.444745999999995
11
177.0323019999999872
21
-72.4649809999999945
0
LINE
8
BLACK
6
CONTINUOUS
10
177.0323019999999872
20
-72.4649809999999945
11
177.0179939999999874
21
-72.4678269999999998
0
LINE
8
BLACK
6
CONTINUOUS
10
177.0179939999999874
20
-72.4678269999999998
11
175.9636189999999942
21
-72.4678269999999998
0
LINE
8
BLACK
6
CONTINUOUS
10
175.9636189999999942
20
-72.4678269999999998
11
175.9493109999999945
21
-72.4649809999999945
0
LINE
8
BLACK
6
CONTINUOUS
10
175.9493109999999945
20
-72.4649809999999945
11
175.9290759999999807
21
-72.444745999999995
0
LINE
8
BLACK
6
CONTINUOUS
10
175.9290759999999807
20
-72.444745999999995
11
175.9290759999999807
21
-72.4161299999999954
0
LINE
8
BLACK
6
CONTINUOUS
10
175.9290759999999807
20
-72.4161299999999954
11
175.9493109999999945
21
-72.3958949999999959
0
LINE
8
BLACK
6
CONTINUOUS
10
175.9493109999999945
20
-72.3958949999999959
11
175.9636189999999942
21
-72.3930489999999907
0
LINE
8
BLACK
6
CONTINUOUS
10
175.9636189999999942
20
-72.3930489999999907
11
176.9277289999999994
21
-72.3930489999999907
0
LINE
8
BLACK
6
CONTINUOUS
10
176.9277289999999994
20
-72.3930489999999907
11
176.0182859999999891
21
-71.4836069999999921
0
LINE
8
BLACK
6
CONTINUOUS
10
176.0182859999999891
20
-71.4836069999999921
11
176.0172450000000026
21
-71.4820490000000035
0
LINE
8
BLACK
6
CONTINUOUS
10
176.0172450000000026
20
-71.4820490000000035
11
176.016477999999978
21
-71.4816659999999899
0
LINE
8
BLACK
6
CONTINUOUS
10
176.016477999999978
20
-71.4816659999999899
11
176.0135109999999941
21
-71.4764610000000005
0
LINE
8
BLACK
6
CONTINUOUS
10
176.0135109999999941
20
-71.4764610000000005
11
176.0101809999999887
21
-71.471476999999993
0
LINE
8
BLACK
6
CONTINUOUS
10
176.0101809999999887
20
-71.471476999999993
11
176.0101809999999887
21
-71.4706180000000018
0
LINE
8
BLACK
6
CONTINUOUS
10
176.0101809999999887
20
-71.4706180000000018
11
176.0092539999999985
21
-71.4689920000000001
0
LINE
8
BLACK
6
CONTINUOUS
10
176.0092539999999985
20
-71.4689920000000001
11
175.9281489999999906
21
-71.2256739999999979
0
LINE
8
BLACK
6
CONTINUOUS
10
175.9281489999999906
20
-71.2256739999999979
11
175.9273989999999799
21
-71.2197309999999959
0
LINE
8
BLACK
6
CONTINUOUS
10
175.9273989999999799
20
-71.2197309999999959
11
175.9262300000000039
21
-71.2138509999999911
0
LINE
8
BLACK
6
CONTINUOUS
10
175.9262300000000039
20
-71.2138509999999911
11
175.9262300000000039
21
-71.0516399999999919
0
LINE
8
BLACK
6
CONTINUOUS
10
175.9262300000000039
20
-71.0516399999999919
11
175.9265949999999918
21
-71.0498029999999972
0
LINE
8
BLACK
6
CONTINUOUS
10
175.9265949999999918
20
-71.0498029999999972
11
175.9263239999999939
21
-71.0489900000000034
0
LINE
8
BLACK
6
CONTINUOUS
10
175.9263239999999939
20
-71.0489900000000034
11
175.9279070000000047
21
-71.0432079999999928
0
LINE
8
BLACK
6
CONTINUOUS
10
175.9279070000000047
20
-71.0432079999999928
11
175.9290759999999807
21
-71.0373319999999921
0
LINE
8
BLACK
6
CONTINUOUS
10
175.9290759999999807
20
-71.0373319999999921
11
175.9296819999999855
21
-71.0367249999999899
0
LINE
8
BLACK
6
CONTINUOUS
10
175.9296819999999855
20
-71.0367249999999899
11
175.9301769999999863
21
-71.0349190000000021
0
LINE
8
BLACK
6
CONTINUOUS
10
175.9301769999999863
20
-71.0349190000000021
11
176.0112819999999942
21
-70.8727069999999912
0
LINE
8
BLACK
6
CONTINUOUS
10
176.0112819999999942
20
-70.8727069999999912
11
176.0149579999999787
21
-70.8679699999999997
0
LINE
8
BLACK
6
CONTINUOUS
10
176.0149579999999787
20
-70.8679699999999997
11
176.0182859999999891
21
-70.8629899999999964
0
LINE
8
BLACK
6
CONTINUOUS
10
176.0182859999999891
20
-70.8629899999999964
11
176.0993919999999946
21
-70.7818839999999909
0
LINE
8
BLACK
6
CONTINUOUS
10
176.0993919999999946
20
-70.7818839999999909
11
176.1043719999999837
21
-70.7785549999999972
0
LINE
8
BLACK
6
CONTINUOUS
10
176.1043719999999837
20
-70.7785549999999972
11
176.1091089999999895
21
-70.774879999999996
0
LINE
8
BLACK
6
CONTINUOUS
10
176.1091089999999895
20
-70.774879999999996
11
176.2713219999999978
21
-70.6937739999999906
0
LINE
8
BLACK
6
CONTINUOUS
10
176.2713219999999978
20
-70.6937739999999906
11
176.2731269999999881
21
-70.6932789999999898
0
LINE
8
BLACK
6
CONTINUOUS
10
176.2731269999999881
20
-70.6932789999999898
11
176.2737339999999904
21
-70.6926729999999992
0
LINE
8
BLACK
6
CONTINUOUS
10
176.2737339999999904
20
-70.6926729999999992
11
176.279611999999986
21
-70.6915029999999973
0
LINE
8
BLACK
6
CONTINUOUS
10
176.279611999999986
20
-70.6915029999999973
11
176.2853920000000016
21
-70.6899209999999982
0
LINE
8
BLACK
6
CONTINUOUS
10
176.2853920000000016
20
-70.6899209999999982
11
176.2862049999999954
21
-70.6901919999999961
0
LINE
8
BLACK
6
CONTINUOUS
10
176.2862049999999954
20
-70.6901919999999961
11
176.2880419999999901
21
-70.689826999999994
0
LINE
8
BLACK
6
CONTINUOUS
10
176.2880419999999901
20
-70.689826999999994
11
176.6935709999999915
21
-70.689826999999994
0
LINE
8
BLACK
6
CONTINUOUS
10
176.6935709999999915
20
-70.689826999999994
11
176.6954069999999888
21
-70.6901919999999961
0
LINE
8
BLACK
6
CONTINUOUS
10
177.7013839999999902
20
-70.7129079999999988
11
177.7042299999999955
21
-70.7272159999999985
0
LINE
8
BLACK
6
CONTINUOUS
10
177.7042299999999955
20
-70.7272159999999985
11
177.7042299999999955
21
-71.9377369999999985
0
LINE
8
BLACK
6
CONTINUOUS
10
177.7042299999999955
20
-71.9377369999999985
11
177.7806249999999864
21
-72.1669239999999945
0
LINE
8
BLACK
6
CONTINUOUS
10
177.7806249999999864
20
-72.1669239999999945
11
177.9303549999999916
21
-72.3166539999999998
0
LINE
8
BLACK
6
CONTINUOUS
10
177.9303549999999916
20
-72.3166539999999998
11
178.1595409999999902
21
-72.3930489999999907
0
LINE
8
BLACK
6
CONTINUOUS
10
178.1595409999999902
20
-72.3930489999999907
11
178.3156869999999969
21
-72.3930489999999907
0
LINE
8
BLACK
6
CONTINUOUS
10
178.3156869999999969
20
-72.3930489999999907
11
178.3299949999999967
21
-72.3958949999999959
0
LINE
8
BLACK
6
CONTINUOUS
10
178.3299949999999967
20
-72.3958949999999959
11
178.3502299999999821
21
-72.4161299999999954
0
LINE
8
BLACK
6
CONTINUOUS
10
178.3502299999999821
20
-72.4161299999999954
11
178.3502299999999821
21
-72.444745999999995
0
LINE
8
BLACK
6
CONTINUOUS
10
178.3502299999999821
20
-72.444745999999995
11
178.3299949999999967
21
-72.4649809999999945
0
LINE
8
BLACK
6
CONTINUOUS
10
178.3299949999999967
20
-72.4649809999999945
11
178.3156869999999969
21
-72.4678269999999998
0
LINE
8
BLACK
6
CONTINUOUS
10
178.3156869999999969
20
-72.4678269999999998
11
178.153474999999986
21
-72.4678269999999998
0
LINE
8
BLACK
6
CONTINUOUS
10
178.153474999999986
20
-72.4678269999999998
11
178.1475949999999955
21
-72.4666569999999979
0
LINE
8
BLACK
6
CONTINUOUS
10
178.1475949999999955
20
-72.4666569999999979
11
178.141650999999996
21
-72.4659079999999989
0
LINE
8
BLACK
6
CONTINUOUS
10
178.141650999999996
20
-72.4659079999999989
11
177.898335000000003
21
-72.3848029999999909
0
LINE
8
BLACK
6
CONTINUOUS
10
177.898335000000003
20
-72.3848029999999909
11
177.8967089999999871
21
-72.3838760000000008
0
LINE
8
BLACK
6
CONTINUOUS
10
177.8967089999999871
20
-72.3838760000000008
11
177.8958489999999983
21
-72.3838760000000008
0
LINE
8
BLACK
6
CONTINUOUS
10
177.8958489999999983
20
-72.3838760000000008
11
177.890861000000001
21
-72.380543000000003
0
LINE
8
BLACK
6
CONTINUOUS
10
177.890861000000001
20
-72.380543000000003
11
177.8856609999999989
21
-72.3775789999999972
0
LINE
8
BLACK
6
CONTINUOUS
10
177.8856609999999989
20
-72.3775789999999972
11
177.8852770000000021
21
-72.3768110000000036
0
LINE
8
BLACK
6
CONTINUOUS
10
177.8852770000000021
20
-72.3768110000000036
11
177.8837199999999825
21
-72.3757710000000003
0
LINE
8
BLACK
6
CONTINUOUS
10
177.8837199999999825
20
-72.3757710000000003
11
177.721508
21
-72.2135590000000036
0
LINE
8
BLACK
6
CONTINUOUS
10
177.721508
20
-72.2135590000000036
11
177.7204669999999851
21
-72.2120010000000008
0
LINE
8
BLACK
6
CONTINUOUS
10
177.7204669999999851
20
-72.2120010000000008
11
177.7196999999999889
21
-72.2116180000000014
0
LINE
8
BLACK
6
CONTINUOUS
10
177.7196999999999889
20
-72.2116180000000014
11
177.7167330000000049
21
-72.2064129999999977
0
LINE
8
BLACK
6
CONTINUOUS
10
177.7167330000000049
20
-72.2064129999999977
11
177.7134029999999996
21
-72.2014289999999903
0
LINE
8
BLACK
6
CONTINUOUS
10
177.7134029999999996
20
-72.2014289999999903
11
177.7134029999999996
21
-72.200569999999999
0
LINE
8
BLACK
6
CONTINUOUS
10
177.7134029999999996
20
-72.200569999999999
11
177.712475999999981
21
-72.1989439999999973
0
LINE
8
BLACK
6
CONTINUOUS
10
177.712475999999981
20
-72.1989439999999973
11
177.6313710000000015
21
-71.9556259999999952
0
LINE
8
BLACK
6
CONTINUOUS
10
177.6313710000000015
20
-71.9556259999999952
11
177.6306209999999908
21
-71.9496829999999932
0
LINE
8
BLACK
6
CONTINUOUS
10
177.6306209999999908
20
-71.9496829999999932
11
177.6294519999999864
21
-71.9438030000000026
0
LINE
8
BLACK
6
CONTINUOUS
10
177.6294519999999864
20
-71.9438030000000026
11
177.6294519999999864
21
-70.7272159999999985
0
LINE
8
BLACK
6
CONTINUOUS
10
177.6294519999999864
20
-70.7272159999999985
11
177.6322979999999916
21
-70.7129079999999988
0
LINE
8
BLACK
6
CONTINUOUS
10
177.6322979999999916
20
-70.7129079999999988
11
177.6525330000000054
21
-70.6926729999999992
0
LINE
8
BLACK
6
CONTINUOUS
10
177.6525330000000054
20
-70.6926729999999992
11
177.6811490000000049
21
-70.6926729999999992
0
LINE
8
BLACK
6
CONTINUOUS
10
177.6811490000000049
20
-70.6926729999999992
11
177.7013839999999902
21
-70.7129079999999988
0
LINE
8
BLACK
6
CONTINUOUS
10
199.0664869999999951
20
-71.5633539999999897
11
199.0871789999999919
21
-71.5840460000000007
0
LINE
8
BLACK
6
CONTINUOUS
10
199.0871789999999919
20
-71.5840460000000007
11
199.0983779999999967
21
-71.6110819999999961
0
LINE
8
BLACK
6
CONTINUOUS
10
199.0983779999999967
20
-71.6110819999999961
11
199.0998189999999965
21
-71.6257140000000021
0
LINE
8
BLACK
6
CONTINUOUS
10
199.0998189999999965
20
-71.6257140000000021
11
199.0998189999999965
21
-71.7209519999999969
0
LINE
8
BLACK
6
CONTINUOUS
10
199.0998189999999965
20
-71.7209519999999969
11
199.0990889999999922
21
-71.7283580000000001
0
LINE
8
BLACK
6
CONTINUOUS
10
199.0990889999999922
20
-71.7283580000000001
11
199.0992299999999773
21
-71.7303330000000017
0
LINE
8
BLACK
6
CONTINUOUS
10
199.0992299999999773
20
-71.7303330000000017
11
199.0986389999999915
21
-71.7329299999999961
0
LINE
8
BLACK
6
CONTINUOUS
10
199.0986389999999915
20
-71.7329299999999961
11
199.0983779999999967
21
-71.7355840000000029
0
LINE
8
BLACK
6
CONTINUOUS
10
199.0983779999999967
20
-71.7355840000000029
11
199.0976189999999804
21
-71.7374140000000011
0
LINE
8
BLACK
6
CONTINUOUS
10
199.0976189999999804
20
-71.7374140000000011
11
199.0959699999999941
21
-71.7446699999999993
0
LINE
8
BLACK
6
CONTINUOUS
10
199.0959699999999941
20
-71.7446699999999993
11
199.0483509999999967
21
-71.887525999999994
0
LINE
8
BLACK
6
CONTINUOUS
10
199.0483509999999967
20
-71.887525999999994
11
199.0423569999999813
21
-71.9009520000000037
0
LINE
8
BLACK
6
CONTINUOUS
10
199.0423569999999813
20
-71.9009520000000037
11
199.0405920000000037
21
-71.9029859999999985
0
LINE
8
BLACK
6
CONTINUOUS
10
199.0405920000000037
20
-71.9029859999999985
11
199.039560999999992
21
-71.9054769999999905
0
LINE
8
BLACK
6
CONTINUOUS
10
199.039560999999992
20
-71.9054769999999905
11
199.0302329999999813
21
-71.9168420000000026
0
LINE
8
BLACK
6
CONTINUOUS
10
199.0302329999999813
20
-71.9168420000000026
11
198.934993999999989
21
-72.0120799999999974
0
LINE
8
BLACK
6
CONTINUOUS
10
198.934993999999989
20
-72.0120799999999974
11
198.9236279999999795
21
-72.0214079999999939
0
LINE
8
BLACK
6
CONTINUOUS
10
198.9236279999999795
20
-72.0214079999999939
11
198.9211369999999874
21
-72.0224389999999914
0
LINE
8
BLACK
6
CONTINUOUS
10
198.9211369999999874
20
-72.0224389999999914
11
198.9191029999999785
21
-72.0242039999999974
0
LINE
8
BLACK
6
CONTINUOUS
10
198.9191029999999785
20
-72.0242039999999974
11
198.9056779999999947
21
-72.0301979999999986
0
LINE
8
BLACK
6
CONTINUOUS
10
198.9056779999999947
20
-72.0301979999999986
11
198.7628210000000024
21
-72.077816999999996
0
LINE
8
BLACK
6
CONTINUOUS
10
198.7628210000000024
20
-72.077816999999996
11
198.755566999999985
21
-72.0794659999999965
0
LINE
8
BLACK
6
CONTINUOUS
10
198.755566999999985
20
-72.0794659999999965
11
198.7537360000000035
21
-72.0802249999999987
0
LINE
8
BLACK
6
CONTINUOUS
10
198.7537360000000035
20
-72.0802249999999987
11
198.7510809999999992
21
-72.0804859999999934
0
LINE
8
BLACK
6
CONTINUOUS
10
198.7510809999999992
20
-72.0804859999999934
11
198.7484839999999906
21
-72.0810769999999934
0
LINE
8
BLACK
6
CONTINUOUS
10
198.7484839999999906
20
-72.0810769999999934
11
198.7465090000000032
21
-72.0809359999999941
0
LINE
8
BLACK
6
CONTINUOUS
10
198.7465090000000032
20
-72.0809359999999941
11
198.7391039999999975
21
-72.0816659999999985
0
LINE
8
BLACK
6
CONTINUOUS
10
198.7391039999999975
20
-72.0816659999999985
11
198.0248189999999795
21
-72.0816659999999985
0
LINE
8
BLACK
6
CONTINUOUS
10
198.0248189999999795
20
-72.0816659999999985
11
198.0101870000000019
21
-72.0802249999999987
0
LINE
8
BLACK
6
CONTINUOUS
10
198.0101870000000019
20
-72.0802249999999987
11
197.9831509999999923
21
-72.0690259999999938
0
LINE
8
BLACK
6
CONTINUOUS
10
197.9831509999999923
20
-72.0690259999999938
11
197.9624589999999955
21
-72.048333999999997
0
LINE
8
BLACK
6
CONTINUOUS
10
197.9624589999999955
20
-72.048333999999997
11
197.9512599999999907
21
-72.0212980000000016
0
LINE
8
BLACK
6
CONTINUOUS
10
197.9512599999999907
20
-72.0212980000000016
11
197.9512599999999907
21
-71.9920339999999896
0
LINE
8
BLACK
6
CONTINUOUS
10
197.9512599999999907
20
-71.9920339999999896
11
197.9624589999999955
21
-71.9649979999999942
0
LINE
8
BLACK
6
CONTINUOUS
10
197.9624589999999955
20
-71.9649979999999942
11
197.9831509999999923
21
-71.9443059999999974
0
LINE
8
BLACK
6
CONTINUOUS
10
197.9831509999999923
20
-71.9443059999999974
11
198.0101870000000019
21
-71.9331069999999926
0
LINE
8
BLACK
6
CONTINUOUS
10
198.0101870000000019
20
-71.9331069999999926
11
198.0248189999999795
21
-71.9316659999999928
0
LINE
8
BLACK
6
CONTINUOUS
10
198.0248189999999795
20
-71.9316659999999928
11
198.726934
21
-71.9316659999999928
0
LINE
8
BLACK
6
CONTINUOUS
10
198.726934
20
-71.9316659999999928
11
198.8414469999999881
21
-71.8934939999999898
0
LINE
8
BLACK
6
CONTINUOUS
10
198.8414469999999881
20
-71.8934939999999898
11
198.9116479999999854
21
-71.82329399999999
0
LINE
8
BLACK
6
CONTINUOUS
10
198.9116479999999854
20
-71.82329399999999
11
198.9498189999999909
21
-71.7087819999999994
0
LINE
8
BLACK
6
CONTINUOUS
10
198.9498189999999909
20
-71.7087819999999994
11
198.9498189999999909
21
-71.6257140000000021
0
LINE
8
BLACK
6
CONTINUOUS
10
198.9498189999999909
20
-71.6257140000000021
11
198.9512599999999907
21
-71.6110819999999961
0
LINE
8
BLACK
6
CONTINUOUS
10
198.9512599999999907
20
-71.6110819999999961
11
198.9624589999999955
21
-71.5840460000000007
0
LINE
8
BLACK
6
CONTINUOUS
10
198.9624589999999955
20
-71.5840460000000007
11
198.9831509999999923
21
-71.5633539999999897
0
LINE
8
BLACK
6
CONTINUOUS
10
198.9831509999999923
20
-71.5633539999999897
11
199.0101870000000019
21
-71.5521549999999991
0
LINE
8
BLACK
6
CONTINUOUS
10
199.0101870000000019
20
-71.5521549999999991
11
199.0394509999999855
21
-71.5521549999999991
0
LINE
8
BLACK
6
CONTINUOUS
10
199.0394509999999855
20
-71.5521549999999991
11
199.0664869999999951
21
-71.5633539999999897
0
LINE
8
BLACK
6
CONTINUOUS
10
207.6129609999999843
20
-68.2245669999999933
11
207.645432999999997
21
-68.2570389999999918
0
LINE
8
BLACK
6
CONTINUOUS
10
207.645432999999997
20
-68.2570389999999918
11
207.6499999999999773
21
-68.2800000000000011
0
LINE
8
BLACK
6
CONTINUOUS
10
207.6499999999999773
20
-68.2800000000000011
11
207.6499999999999773
21
-69.2999999999999972
0
LINE
8
BLACK
6
CONTINUOUS
10
207.6499999999999773
20
-69.2999999999999972
11
207.645432999999997
21
-69.3229609999999923
0
LINE
8
BLACK
6
CONTINUOUS
10
207.645432999999997
20
-69.3229609999999923
11
207.6129609999999843
21
-69.3554329999999908
0
LINE
8
BLACK
6
CONTINUOUS
10
207.6129609999999843
20
-69.3554329999999908
11
207.5900000000000034
21
-69.3599999999999994
0
LINE
8
BLACK
6
CONTINUOUS
10
207.5900000000000034
20
-69.3599999999999994
11
206.0499999999999829
21
-69.3599999999999994
0
LINE
8
BLACK
6
CONTINUOUS
10
206.0499999999999829
20
-69.3599999999999994
11
206.0499999999999829
21
-70.5799999999999983
0
LINE
8
BLACK
6
CONTINUOUS
10
206.0499999999999829
20
-70.5799999999999983
11
206.0454330000000027
21
-70.6029609999999934
0
LINE
8
BLACK
6
CONTINUOUS
10
206.0454330000000027
20
-70.6029609999999934
11
206.01296099999999
21
-70.6354329999999919
0
LINE
8
BLACK
6
CONTINUOUS
10
206.01296099999999
20
-70.6354329999999919
11
205.9670389999999998
21
-70.6354329999999919
0
LINE
8
BLACK
6
CONTINUOUS
10
205.9670389999999998
20
-70.6354329999999919
11
205.934566999999987
21
-70.6029609999999934
0
LINE
8
BLACK
6
CONTINUOUS
10
205.934566999999987
20
-70.6029609999999934
11
205.9299999999999784
21
-70.5799999999999983
0
LINE
8
BLACK
6
CONTINUOUS
10
205.9299999999999784
20
-70.5799999999999983
11
205.9299999999999784
21
-69.2999999999999972
0
LINE
8
BLACK
6
CONTINUOUS
10
205.9299999999999784
20
-69.2999999999999972
11
205.934566999999987
21
-69.277039000000002
0
LINE
8
BLACK
6
CONTINUOUS
10
205.934566999999987
20
-69.277039000000002
11
205.9670389999999998
21
-69.2445670000000035
0
LINE
8
BLACK
6
CONTINUOUS
10
205.9670389999999998
20
-69.2445670000000035
11
205.9899999999999807
21
-69.2399999999999949
0
LINE
8
BLACK
6
CONTINUOUS
10
205.9899999999999807
20
-69.2399999999999949
11
207.5300000000000011
21
-69.2399999999999949
0
LINE
8
BLACK
6
CONTINUOUS
10
207.5300000000000011
20
-69.2399999999999949
11
207.5300000000000011
21
-68.3400000000000034
0
LINE
8
BLACK
6
CONTINUOUS
10
207.5300000000000011
20
-68.3400000000000034
11
203.3400000000000034
21
-68.3400000000000034
0
LINE
8
BLACK
6
CONTINUOUS
10
203.3400000000000034
20
-68.3400000000000034
11
203.3170389999999941
21
-68.3354329999999948
0
LINE
8
BLACK
6
CONTINUOUS
10
203.3170389999999941
20
-68.3354329999999948
11
203.2845669999999814
21
-68.3029609999999963
0
LINE
8
BLACK
6
CONTINUOUS
10
203.2845669999999814
20
-68.3029609999999963
11
203.2845669999999814
21
-68.2570389999999918
0
LINE
8
BLACK
6
CONTINUOUS
10
203.2845669999999814
20
-68.2570389999999918
11
203.3170389999999941
21
-68.2245669999999933
0
LINE
8
BLACK
6
CONTINUOUS
10
203.3170389999999941
20
-68.2245669999999933
11
203.3400000000000034
21
-68.2199999999999989
0
LINE
8
BLACK
6
CONTINUOUS
10
203.3400000000000034
20
-68.2199999999999989
11
207.5900000000000034
21
-68.2199999999999989
0
LINE
8
BLACK
6
CONTINUOUS
10
207.5900000000000034
20
-68.2199999999999989
11
207.6129609999999843
21
-68.2245669999999933
0
LINE
8
BLACK
6
CONTINUOUS
10
179.0048659999999927
20
-69.6252640000000014
11
179.0323339999999916
21
-69.6366419999999948
0
LINE
8
BLACK
6
CONTINUOUS
10
179.0323339999999916
20
-69.6366419999999948
11
179.0533580000000029
21
-69.6576659999999919
0
LINE
8
BLACK
6
CONTINUOUS
10
179.0533580000000029
20
-69.6576659999999919
11
179.0647359999999821
21
-69.6851339999999908
0
LINE
8
BLACK
6
CONTINUOUS
10
179.0647359999999821
20
-69.6851339999999908
11
179.0647359999999821
21
-69.7148660000000007
0
LINE
8
BLACK
6
CONTINUOUS
10
179.0647359999999821
20
-69.7148660000000007
11
179.0533580000000029
21
-69.7423339999999996
0
LINE
8
BLACK
6
CONTINUOUS
10
179.0533580000000029
20
-69.7423339999999996
11
179.0323339999999916
21
-69.7633579999999967
0
LINE
8
BLACK
6
CONTINUOUS
10
179.0323339999999916
20
-69.7633579999999967
11
179.0048659999999927
21
-69.7747359999999901
0
LINE
8
BLACK
6
CONTINUOUS
10
179.0048659999999927
20
-69.7747359999999901
11
178.9899999999999807
21
-69.7762000000000029
0
LINE
8
BLACK
6
CONTINUOUS
10
178.9899999999999807
20
-69.7762000000000029
11
174.789999999999992
21
-69.7762000000000029
0
LINE
8
BLACK
6
CONTINUOUS
10
174.789999999999992
20
-69.7762000000000029
11
174.77513399999998
21
-69.7747359999999901
0
LINE
8
BLACK
6
CONTINUOUS
10
174.77513399999998
20
-69.7747359999999901
11
174.7476659999999811
21
-69.7633579999999967
0
LINE
8
BLACK
6
CONTINUOUS
10
174.7476659999999811
20
-69.7633579999999967
11
174.7266419999999982
21
-69.7423339999999996
0
LINE
8
BLACK
6
CONTINUOUS
10
174.7266419999999982
20
-69.7423339999999996
11
174.7152639999999906
21
-69.7148660000000007
0
LINE
8
BLACK
6
CONTINUOUS
10
174.7152639999999906
20
-69.7148660000000007
11
174.7152639999999906
21
-69.6851339999999908
0
LINE
8
BLACK
6
CONTINUOUS
10
174.7152639999999906
20
-69.6851339999999908
11
174.7266419999999982
21
-69.6576659999999919
0
LINE
8
BLACK
6
CONTINUOUS
10
174.7266419999999982
20
-69.6576659999999919
11
174.7476659999999811
21
-69.6366419999999948
0
LINE
8
BLACK
6
CONTINUOUS
10
174.7476659999999811
20
-69.6366419999999948
11
174.77513399999998
21
-69.6252640000000014
0
LINE
8
BLACK
6
CONTINUOUS
10
174.77513399999998
20
-69.6252640000000014
11
174.789999999999992
21
-69.6238000000000028
0
LINE
8
BLACK
6
CONTINUOUS
10
174.789999999999992
20
-69.6238000000000028
11
178.9899999999999807
21
-69.6238000000000028
0
LINE
8
BLACK
6
CONTINUOUS
10
178.9899999999999807
20
-69.6238000000000028
11
179.0048659999999927
21
-69.6252640000000014
  0
ENDSEC
  0
EOF
