%TF.GenerationSoftware,KiCad,Pcbnew,9.0.0*%
%TF.CreationDate,2025-05-17T10:00:08-07:00*%
%TF.ProjectId,nnv2-toupee,6e6e7632-2d74-46f7-9570-65652e6b6963,rev?*%
%TF.SameCoordinates,Original*%
%TF.FileFunction,Legend,Bot*%
%TF.FilePolarity,Positive*%
%FSLAX46Y46*%
G04 Gerber Fmt 4.6, Leading zero omitted, Abs format (unit mm)*
G04 Created by KiCad (PCBNEW 9.0.0) date 2025-05-17 10:00:08*
%MOMM*%
%LPD*%
G01*
G04 APERTURE LIST*
%ADD10C,0.150000*%
%ADD11C,0.100000*%
%ADD12C,0.074778*%
%ADD13C,0.200000*%
%ADD14C,0.152400*%
%ADD15C,0.120000*%
G04 APERTURE END LIST*
D10*
X209588571Y-87824355D02*
X208779048Y-87824355D01*
X208779048Y-87824355D02*
X208683810Y-87776736D01*
X208683810Y-87776736D02*
X208636191Y-87729117D01*
X208636191Y-87729117D02*
X208588571Y-87633879D01*
X208588571Y-87633879D02*
X208588571Y-87443403D01*
X208588571Y-87443403D02*
X208636191Y-87348165D01*
X208636191Y-87348165D02*
X208683810Y-87300546D01*
X208683810Y-87300546D02*
X208779048Y-87252927D01*
X208779048Y-87252927D02*
X209588571Y-87252927D01*
X208636191Y-86824355D02*
X208588571Y-86681498D01*
X208588571Y-86681498D02*
X208588571Y-86443403D01*
X208588571Y-86443403D02*
X208636191Y-86348165D01*
X208636191Y-86348165D02*
X208683810Y-86300546D01*
X208683810Y-86300546D02*
X208779048Y-86252927D01*
X208779048Y-86252927D02*
X208874286Y-86252927D01*
X208874286Y-86252927D02*
X208969524Y-86300546D01*
X208969524Y-86300546D02*
X209017143Y-86348165D01*
X209017143Y-86348165D02*
X209064762Y-86443403D01*
X209064762Y-86443403D02*
X209112381Y-86633879D01*
X209112381Y-86633879D02*
X209160000Y-86729117D01*
X209160000Y-86729117D02*
X209207619Y-86776736D01*
X209207619Y-86776736D02*
X209302857Y-86824355D01*
X209302857Y-86824355D02*
X209398095Y-86824355D01*
X209398095Y-86824355D02*
X209493333Y-86776736D01*
X209493333Y-86776736D02*
X209540952Y-86729117D01*
X209540952Y-86729117D02*
X209588571Y-86633879D01*
X209588571Y-86633879D02*
X209588571Y-86395784D01*
X209588571Y-86395784D02*
X209540952Y-86252927D01*
X209112381Y-85491022D02*
X209064762Y-85348165D01*
X209064762Y-85348165D02*
X209017143Y-85300546D01*
X209017143Y-85300546D02*
X208921905Y-85252927D01*
X208921905Y-85252927D02*
X208779048Y-85252927D01*
X208779048Y-85252927D02*
X208683810Y-85300546D01*
X208683810Y-85300546D02*
X208636191Y-85348165D01*
X208636191Y-85348165D02*
X208588571Y-85443403D01*
X208588571Y-85443403D02*
X208588571Y-85824355D01*
X208588571Y-85824355D02*
X209588571Y-85824355D01*
X209588571Y-85824355D02*
X209588571Y-85491022D01*
X209588571Y-85491022D02*
X209540952Y-85395784D01*
X209540952Y-85395784D02*
X209493333Y-85348165D01*
X209493333Y-85348165D02*
X209398095Y-85300546D01*
X209398095Y-85300546D02*
X209302857Y-85300546D01*
X209302857Y-85300546D02*
X209207619Y-85348165D01*
X209207619Y-85348165D02*
X209160000Y-85395784D01*
X209160000Y-85395784D02*
X209112381Y-85491022D01*
X209112381Y-85491022D02*
X209112381Y-85824355D01*
D11*
X205671585Y-80176897D02*
X205671585Y-80748325D01*
X205671585Y-80462611D02*
X206671585Y-80462611D01*
X206671585Y-80462611D02*
X206528728Y-80557849D01*
X206528728Y-80557849D02*
X206433490Y-80653087D01*
X206433490Y-80653087D02*
X206385871Y-80748325D01*
D12*
X177666841Y-70727216D02*
X177666841Y-71943803D01*
X177666841Y-71943803D02*
X177747946Y-72187121D01*
X177747946Y-72187121D02*
X177910158Y-72349333D01*
X177910158Y-72349333D02*
X178153475Y-72430438D01*
X178153475Y-72430438D02*
X178315687Y-72430438D01*
X176936888Y-70889428D02*
X176855782Y-70808322D01*
X176855782Y-70808322D02*
X176693571Y-70727216D01*
X176693571Y-70727216D02*
X176288042Y-70727216D01*
X176288042Y-70727216D02*
X176125830Y-70808322D01*
X176125830Y-70808322D02*
X176044724Y-70889428D01*
X176044724Y-70889428D02*
X175963619Y-71051640D01*
X175963619Y-71051640D02*
X175963619Y-71213851D01*
X175963619Y-71213851D02*
X176044724Y-71457169D01*
X176044724Y-71457169D02*
X177017994Y-72430438D01*
X177017994Y-72430438D02*
X175963619Y-72430438D01*
D10*
X198024819Y-72006666D02*
X198739104Y-72006666D01*
X198739104Y-72006666D02*
X198881961Y-71959047D01*
X198881961Y-71959047D02*
X198977200Y-71863809D01*
X198977200Y-71863809D02*
X199024819Y-71720952D01*
X199024819Y-71720952D02*
X199024819Y-71625714D01*
X199024819Y-73006666D02*
X199024819Y-72435238D01*
X199024819Y-72720952D02*
X198024819Y-72720952D01*
X198024819Y-72720952D02*
X198167676Y-72625714D01*
X198167676Y-72625714D02*
X198262914Y-72530476D01*
X198262914Y-72530476D02*
X198310533Y-72435238D01*
D11*
%TO.C,U1*%
X204050000Y-81809991D02*
X210550000Y-81809991D01*
X204050000Y-91309991D02*
X204050000Y-81809991D01*
X210550000Y-81809991D02*
X210550000Y-91309991D01*
X210550000Y-91309991D02*
X204050000Y-91309991D01*
D13*
X210038391Y-95452451D02*
X176700010Y-95452451D01*
X176700010Y-77407550D01*
X210038391Y-77407550D01*
X210038391Y-95452451D01*
D14*
%TO.C,J2*%
X173890000Y-71400000D02*
X173890000Y-74000000D01*
X173890000Y-74000000D02*
X174990000Y-74000000D01*
X174790000Y-69700000D02*
X178990000Y-69700000D01*
X178790000Y-74000000D02*
X179990000Y-74000000D01*
X179990000Y-74000000D02*
X179990000Y-71400000D01*
D11*
%TO.C,SW1*%
X208650000Y-83420000D02*
X208650000Y-82620000D01*
X208650000Y-89520000D02*
X208650000Y-90420000D01*
D15*
X208700000Y-85620000D02*
X208700000Y-84920000D01*
X208700000Y-88120000D02*
X208700000Y-87420000D01*
X208700000Y-90420000D02*
X212750000Y-90420000D01*
X212750000Y-82620000D02*
X208650000Y-82620000D01*
X212750000Y-82620000D02*
X212750000Y-90420000D01*
%TO.C,J1*%
X199770000Y-74680000D02*
X199770000Y-70000000D01*
X203340000Y-68280000D02*
X207590000Y-68280000D01*
X203340000Y-76400000D02*
X207590000Y-76400000D01*
X205990000Y-69300000D02*
X205990000Y-70580000D01*
X205990000Y-74100000D02*
X208880000Y-74100000D01*
X205990000Y-75380000D02*
X205990000Y-74100000D01*
X207590000Y-68280000D02*
X207590000Y-69300000D01*
X207590000Y-69300000D02*
X205990000Y-69300000D01*
X207590000Y-75380000D02*
X205990000Y-75380000D01*
X207590000Y-76400000D02*
X207590000Y-75380000D01*
%TD*%
M02*
