%TF.GenerationSoftware,KiCad,Pcbnew,9.0.0*%
%TF.CreationDate,2025-05-17T10:00:07-07:00*%
%TF.ProjectId,nnv2-toupee,6e6e7632-2d74-46f7-9570-65652e6b6963,rev?*%
%TF.SameCoordinates,Original*%
%TF.FileFunction,Legend,Top*%
%TF.FilePolarity,Positive*%
%FSLAX46Y46*%
G04 Gerber Fmt 4.6, Leading zero omitted, Abs format (unit mm)*
G04 Created by KiCad (PCBNEW 9.0.0) date 2025-05-17 10:00:07*
%MOMM*%
%LPD*%
G01*
G04 APERTURE LIST*
%ADD10C,0.150000*%
%ADD11C,0.100000*%
%ADD12C,0.050000*%
%ADD13C,0.254000*%
%ADD14C,0.200000*%
G04 APERTURE END LIST*
D10*
X207855238Y-83943403D02*
X207855238Y-84324355D01*
X208188571Y-84086260D02*
X207331429Y-84086260D01*
X207331429Y-84086260D02*
X207236191Y-84133879D01*
X207236191Y-84133879D02*
X207188571Y-84229117D01*
X207188571Y-84229117D02*
X207188571Y-84324355D01*
X207188571Y-84800546D02*
X207236191Y-84705308D01*
X207236191Y-84705308D02*
X207283810Y-84657689D01*
X207283810Y-84657689D02*
X207379048Y-84610070D01*
X207379048Y-84610070D02*
X207664762Y-84610070D01*
X207664762Y-84610070D02*
X207760000Y-84657689D01*
X207760000Y-84657689D02*
X207807619Y-84705308D01*
X207807619Y-84705308D02*
X207855238Y-84800546D01*
X207855238Y-84800546D02*
X207855238Y-84943403D01*
X207855238Y-84943403D02*
X207807619Y-85038641D01*
X207807619Y-85038641D02*
X207760000Y-85086260D01*
X207760000Y-85086260D02*
X207664762Y-85133879D01*
X207664762Y-85133879D02*
X207379048Y-85133879D01*
X207379048Y-85133879D02*
X207283810Y-85086260D01*
X207283810Y-85086260D02*
X207236191Y-85038641D01*
X207236191Y-85038641D02*
X207188571Y-84943403D01*
X207188571Y-84943403D02*
X207188571Y-84800546D01*
X207855238Y-85562451D02*
X206855238Y-85562451D01*
X207807619Y-85562451D02*
X207855238Y-85657689D01*
X207855238Y-85657689D02*
X207855238Y-85848165D01*
X207855238Y-85848165D02*
X207807619Y-85943403D01*
X207807619Y-85943403D02*
X207760000Y-85991022D01*
X207760000Y-85991022D02*
X207664762Y-86038641D01*
X207664762Y-86038641D02*
X207379048Y-86038641D01*
X207379048Y-86038641D02*
X207283810Y-85991022D01*
X207283810Y-85991022D02*
X207236191Y-85943403D01*
X207236191Y-85943403D02*
X207188571Y-85848165D01*
X207188571Y-85848165D02*
X207188571Y-85657689D01*
X207188571Y-85657689D02*
X207236191Y-85562451D01*
X207236191Y-86419594D02*
X207188571Y-86514832D01*
X207188571Y-86514832D02*
X207188571Y-86705308D01*
X207188571Y-86705308D02*
X207236191Y-86800546D01*
X207236191Y-86800546D02*
X207331429Y-86848165D01*
X207331429Y-86848165D02*
X207379048Y-86848165D01*
X207379048Y-86848165D02*
X207474286Y-86800546D01*
X207474286Y-86800546D02*
X207521905Y-86705308D01*
X207521905Y-86705308D02*
X207521905Y-86562451D01*
X207521905Y-86562451D02*
X207569524Y-86467213D01*
X207569524Y-86467213D02*
X207664762Y-86419594D01*
X207664762Y-86419594D02*
X207712381Y-86419594D01*
X207712381Y-86419594D02*
X207807619Y-86467213D01*
X207807619Y-86467213D02*
X207855238Y-86562451D01*
X207855238Y-86562451D02*
X207855238Y-86705308D01*
X207855238Y-86705308D02*
X207807619Y-86800546D01*
X207188571Y-87276737D02*
X207855238Y-87276737D01*
X208188571Y-87276737D02*
X208140952Y-87229118D01*
X208140952Y-87229118D02*
X208093333Y-87276737D01*
X208093333Y-87276737D02*
X208140952Y-87324356D01*
X208140952Y-87324356D02*
X208188571Y-87276737D01*
X208188571Y-87276737D02*
X208093333Y-87276737D01*
X207188571Y-88181498D02*
X208188571Y-88181498D01*
X207236191Y-88181498D02*
X207188571Y-88086260D01*
X207188571Y-88086260D02*
X207188571Y-87895784D01*
X207188571Y-87895784D02*
X207236191Y-87800546D01*
X207236191Y-87800546D02*
X207283810Y-87752927D01*
X207283810Y-87752927D02*
X207379048Y-87705308D01*
X207379048Y-87705308D02*
X207664762Y-87705308D01*
X207664762Y-87705308D02*
X207760000Y-87752927D01*
X207760000Y-87752927D02*
X207807619Y-87800546D01*
X207807619Y-87800546D02*
X207855238Y-87895784D01*
X207855238Y-87895784D02*
X207855238Y-88086260D01*
X207855238Y-88086260D02*
X207807619Y-88181498D01*
X207236191Y-89038641D02*
X207188571Y-88943403D01*
X207188571Y-88943403D02*
X207188571Y-88752927D01*
X207188571Y-88752927D02*
X207236191Y-88657689D01*
X207236191Y-88657689D02*
X207331429Y-88610070D01*
X207331429Y-88610070D02*
X207712381Y-88610070D01*
X207712381Y-88610070D02*
X207807619Y-88657689D01*
X207807619Y-88657689D02*
X207855238Y-88752927D01*
X207855238Y-88752927D02*
X207855238Y-88943403D01*
X207855238Y-88943403D02*
X207807619Y-89038641D01*
X207807619Y-89038641D02*
X207712381Y-89086260D01*
X207712381Y-89086260D02*
X207617143Y-89086260D01*
X207617143Y-89086260D02*
X207521905Y-88610070D01*
X209588571Y-85300546D02*
X208779048Y-85300546D01*
X208779048Y-85300546D02*
X208683810Y-85348165D01*
X208683810Y-85348165D02*
X208636191Y-85395784D01*
X208636191Y-85395784D02*
X208588571Y-85491022D01*
X208588571Y-85491022D02*
X208588571Y-85681498D01*
X208588571Y-85681498D02*
X208636191Y-85776736D01*
X208636191Y-85776736D02*
X208683810Y-85824355D01*
X208683810Y-85824355D02*
X208779048Y-85871974D01*
X208779048Y-85871974D02*
X209588571Y-85871974D01*
X208636191Y-86300546D02*
X208588571Y-86443403D01*
X208588571Y-86443403D02*
X208588571Y-86681498D01*
X208588571Y-86681498D02*
X208636191Y-86776736D01*
X208636191Y-86776736D02*
X208683810Y-86824355D01*
X208683810Y-86824355D02*
X208779048Y-86871974D01*
X208779048Y-86871974D02*
X208874286Y-86871974D01*
X208874286Y-86871974D02*
X208969524Y-86824355D01*
X208969524Y-86824355D02*
X209017143Y-86776736D01*
X209017143Y-86776736D02*
X209064762Y-86681498D01*
X209064762Y-86681498D02*
X209112381Y-86491022D01*
X209112381Y-86491022D02*
X209160000Y-86395784D01*
X209160000Y-86395784D02*
X209207619Y-86348165D01*
X209207619Y-86348165D02*
X209302857Y-86300546D01*
X209302857Y-86300546D02*
X209398095Y-86300546D01*
X209398095Y-86300546D02*
X209493333Y-86348165D01*
X209493333Y-86348165D02*
X209540952Y-86395784D01*
X209540952Y-86395784D02*
X209588571Y-86491022D01*
X209588571Y-86491022D02*
X209588571Y-86729117D01*
X209588571Y-86729117D02*
X209540952Y-86871974D01*
X209112381Y-87633879D02*
X209064762Y-87776736D01*
X209064762Y-87776736D02*
X209017143Y-87824355D01*
X209017143Y-87824355D02*
X208921905Y-87871974D01*
X208921905Y-87871974D02*
X208779048Y-87871974D01*
X208779048Y-87871974D02*
X208683810Y-87824355D01*
X208683810Y-87824355D02*
X208636191Y-87776736D01*
X208636191Y-87776736D02*
X208588571Y-87681498D01*
X208588571Y-87681498D02*
X208588571Y-87300546D01*
X208588571Y-87300546D02*
X209588571Y-87300546D01*
X209588571Y-87300546D02*
X209588571Y-87633879D01*
X209588571Y-87633879D02*
X209540952Y-87729117D01*
X209540952Y-87729117D02*
X209493333Y-87776736D01*
X209493333Y-87776736D02*
X209398095Y-87824355D01*
X209398095Y-87824355D02*
X209302857Y-87824355D01*
X209302857Y-87824355D02*
X209207619Y-87776736D01*
X209207619Y-87776736D02*
X209160000Y-87729117D01*
X209160000Y-87729117D02*
X209112381Y-87633879D01*
X209112381Y-87633879D02*
X209112381Y-87300546D01*
D11*
X205670562Y-81044483D02*
X205670562Y-80473055D01*
X205670562Y-80758769D02*
X206670562Y-80758769D01*
X206670562Y-80758769D02*
X206527705Y-80663531D01*
X206527705Y-80663531D02*
X206432467Y-80568293D01*
X206432467Y-80568293D02*
X206384848Y-80473055D01*
%TO.C,J3*%
D12*
X143800000Y-100125000D02*
X171800000Y-100125000D01*
X171800000Y-73025000D01*
X143800000Y-73025000D01*
X143800000Y-100125000D01*
D13*
%TO.C,U1*%
X204002450Y-81925531D02*
X204002450Y-82634471D01*
X204002450Y-81925531D02*
X204002450Y-82634471D01*
X204002450Y-82634471D02*
X204002450Y-82688931D01*
X204002450Y-82634471D02*
X204002450Y-82688931D01*
X204002450Y-90171181D02*
X204002450Y-90929981D01*
X204002450Y-90171181D02*
X204002450Y-90929981D01*
X204855310Y-83345571D02*
X204413580Y-83345571D01*
X204855310Y-83345571D02*
X204413580Y-83345571D01*
X204855310Y-83345571D02*
X204855310Y-85095581D01*
X204855310Y-83345571D02*
X204855310Y-85095581D01*
X204855310Y-85095581D02*
X204413580Y-85095581D01*
X204855310Y-85095581D02*
X204413580Y-85095581D01*
X204857440Y-87592471D02*
X204413580Y-87592471D01*
X204857440Y-87592471D02*
X204413580Y-87592471D01*
X204857440Y-87592471D02*
X204857440Y-89342481D01*
X204857440Y-87592471D02*
X204857440Y-89342481D01*
X204857440Y-89342481D02*
X204415100Y-89342481D01*
X204857440Y-89342481D02*
X204415100Y-89342481D01*
X210502440Y-81930001D02*
X204002450Y-81930001D01*
X210502440Y-81930001D02*
X204002450Y-81930001D01*
X210502440Y-81930001D02*
X210502440Y-81979991D01*
X210502440Y-81930001D02*
X210502440Y-81979991D01*
X210502440Y-81979991D02*
X210502440Y-90929981D01*
X210502440Y-90929981D02*
X204002450Y-90929981D01*
D14*
X210038391Y-95452451D02*
X176700010Y-95452451D01*
X176700010Y-77407550D01*
X210038391Y-77407550D01*
X210038391Y-95452451D01*
%TD*%
M02*
