  0
SECTION
  2
HEADER
  9
$ANGBASE
  50
0.0
  9
$ANGDIR
  70
1
  9
$MEASUREMENT
  70
1
  0
ENDSEC
  0
SECTION
  2
TABLES
  0
TABLE
  2
LTYPE
  70
4
  0
LTYPE
  5
40F
  2
CONTINUOUS
  70
0
  3
Solid line
  72
65
  73
0
  40
0.0
  0
LTYPE
  5
410
  2
DASHDOT
 70
0
  3
Dash Dot ____ _ ____ _
 72
65
 73
4
 40
2.0
 49
1.25
 49
-0.25
 49
0.25
 49
-0.25
  0
LTYPE
  5
411
  2
DASHED
 70
0
  3
Dashed __ __ __ __ __
 72
65
 73
2
 40
0.75
 49
0.5
 49
-0.25
  0
LTYPE
  5
43B
  2
DOTTED
 70
0
  3
Dotted .  .  .  .
 72
65
 73
2
 40
0.2
 49
0.0
 49
-0.2
  0
ENDTAB
  0
TABLE
  2
STYLE
  70
4
  0
STYLE
  2
KICAD
  70
0
  40
0
  41
1
  42
1
  50
0
  71
0
  3
isocp.shx
  0
STYLE
  2
KICADB
  70
0
  40
0
  41
1
  42
1
  50
0
  71
0
  3
isocp.shx
  0
STYLE
  2
KICADI
  70
0
  40
0
  41
1
  42
1
  50
15
  71
0
  3
isocp.shx
  0
STYLE
  2
KICADBI
  70
0
  40
0
  41
1
  42
1
  50
15
  71
0
  3
isocp.shx
  0
ENDTAB
  0
TABLE
  2
LAYER
  70
1
  0
LAYER
  2
BLACK
  70
0
  62
7
  6
CONTINUOUS
  0
ENDTAB
  0
ENDSEC
  0
SECTION
  2
ENTITIES
0
LINE
8
BLACK
6
CONTINUOUS
10
145.8560039999999844
20
-96.8921359999999936
11
146.0835919999999817
21
-96.9660839999999951
0
LINE
8
BLACK
6
CONTINUOUS
10
146.0835919999999817
20
-96.9660839999999951
11
146.2968099999999936
21
-97.0747239999999891
0
LINE
8
BLACK
6
CONTINUOUS
10
146.2968099999999936
20
-97.0747239999999891
11
146.4904080000000022
21
-97.2153809999999936
0
LINE
8
BLACK
6
CONTINUOUS
10
146.4904080000000022
20
-97.2153809999999936
11
146.6596189999999922
21
-97.3845919999999978
0
LINE
8
BLACK
6
CONTINUOUS
10
146.6596189999999922
20
-97.3845919999999978
11
146.8002759999999967
21
-97.5781899999999922
0
LINE
8
BLACK
6
CONTINUOUS
10
146.8002759999999967
20
-97.5781899999999922
11
146.9089160000000049
21
-97.7914079999999899
0
LINE
8
BLACK
6
CONTINUOUS
10
146.9089160000000049
20
-97.7914079999999899
11
146.9828640000000064
21
-98.0189960000000013
0
LINE
8
BLACK
6
CONTINUOUS
10
146.9828640000000064
20
-98.0189960000000013
11
147.0202989999999943
21
-98.2553499999999929
0
LINE
8
BLACK
6
CONTINUOUS
10
147.0202989999999943
20
-98.2553499999999929
11
147.0202989999999943
21
-98.4946499999999929
0
LINE
8
BLACK
6
CONTINUOUS
10
147.0202989999999943
20
-98.4946499999999929
11
146.9828640000000064
21
-98.7310039999999987
0
LINE
8
BLACK
6
CONTINUOUS
10
146.9828640000000064
20
-98.7310039999999987
11
146.9089160000000049
21
-98.9585919999999959
0
LINE
8
BLACK
6
CONTINUOUS
10
146.9089160000000049
20
-98.9585919999999959
11
146.8002759999999967
21
-99.1718099999999936
0
LINE
8
BLACK
6
CONTINUOUS
10
146.8002759999999967
20
-99.1718099999999936
11
146.6596189999999922
21
-99.3654080000000022
0
LINE
8
BLACK
6
CONTINUOUS
10
146.6596189999999922
20
-99.3654080000000022
11
146.4904080000000022
21
-99.5346189999999922
0
LINE
8
BLACK
6
CONTINUOUS
10
146.4904080000000022
20
-99.5346189999999922
11
146.2968099999999936
21
-99.6752759999999967
0
LINE
8
BLACK
6
CONTINUOUS
10
146.2968099999999936
20
-99.6752759999999967
11
146.0835919999999817
21
-99.7839159999999907
0
LINE
8
BLACK
6
CONTINUOUS
10
146.0835919999999817
20
-99.7839159999999907
11
145.8560039999999844
21
-99.8578639999999922
0
LINE
8
BLACK
6
CONTINUOUS
10
145.8560039999999844
20
-99.8578639999999922
11
145.6196500000000071
21
-99.8952989999999943
0
LINE
8
BLACK
6
CONTINUOUS
10
145.6196500000000071
20
-99.8952989999999943
11
145.3803499999999929
21
-99.8952989999999943
0
LINE
8
BLACK
6
CONTINUOUS
10
145.3803499999999929
20
-99.8952989999999943
11
145.1439959999999871
21
-99.8578639999999922
0
LINE
8
BLACK
6
CONTINUOUS
10
145.1439959999999871
20
-99.8578639999999922
11
144.9164079999999899
21
-99.7839159999999907
0
LINE
8
BLACK
6
CONTINUOUS
10
144.9164079999999899
20
-99.7839159999999907
11
144.7031900000000064
21
-99.6752759999999967
0
LINE
8
BLACK
6
CONTINUOUS
10
144.7031900000000064
20
-99.6752759999999967
11
144.5095919999999978
21
-99.5346189999999922
0
LINE
8
BLACK
6
CONTINUOUS
10
144.5095919999999978
20
-99.5346189999999922
11
144.3403809999999794
21
-99.3654080000000022
0
LINE
8
BLACK
6
CONTINUOUS
10
144.3403809999999794
20
-99.3654080000000022
11
144.1997240000000033
21
-99.1718099999999936
0
LINE
8
BLACK
6
CONTINUOUS
10
144.1997240000000033
20
-99.1718099999999936
11
144.0910839999999951
21
-98.9585919999999959
0
LINE
8
BLACK
6
CONTINUOUS
10
144.0910839999999951
20
-98.9585919999999959
11
144.0171359999999936
21
-98.7310039999999987
0
LINE
8
BLACK
6
CONTINUOUS
10
144.0171359999999936
20
-98.7310039999999987
11
143.9797010000000057
21
-98.4946499999999929
0
LINE
8
BLACK
6
CONTINUOUS
10
143.9797010000000057
20
-98.4946499999999929
11
143.9797010000000057
21
-98.2589150000000018
0
LINE
8
BLACK
6
CONTINUOUS
10
143.9797010000000057
20
-98.2589150000000018
11
143.9797010000000057
21
-98.2553499999999929
0
LINE
8
BLACK
6
CONTINUOUS
10
143.9797010000000057
20
-98.2553499999999929
11
144.0171359999999936
21
-98.0189960000000013
0
LINE
8
BLACK
6
CONTINUOUS
10
144.0171359999999936
20
-98.0189960000000013
11
144.0910839999999951
21
-97.7914079999999899
0
LINE
8
BLACK
6
CONTINUOUS
10
144.0910839999999951
20
-97.7914079999999899
11
144.1997240000000033
21
-97.5781899999999922
0
LINE
8
BLACK
6
CONTINUOUS
10
144.1997240000000033
20
-97.5781899999999922
11
144.3403809999999794
21
-97.3845919999999978
0
LINE
8
BLACK
6
CONTINUOUS
10
144.3403809999999794
20
-97.3845919999999978
11
144.5095919999999978
21
-97.2153809999999936
0
LINE
8
BLACK
6
CONTINUOUS
10
144.5095919999999978
20
-97.2153809999999936
11
144.7031900000000064
21
-97.0747239999999891
0
LINE
8
BLACK
6
CONTINUOUS
10
144.7031900000000064
20
-97.0747239999999891
11
144.9164079999999899
21
-96.9660839999999951
0
LINE
8
BLACK
6
CONTINUOUS
10
144.9164079999999899
20
-96.9660839999999951
11
145.1439959999999871
21
-96.8921359999999936
0
LINE
8
BLACK
6
CONTINUOUS
10
145.1439959999999871
20
-96.8921359999999936
11
145.3803499999999929
21
-96.8547009999999915
0
LINE
8
BLACK
6
CONTINUOUS
10
145.3803499999999929
20
-96.8547009999999915
11
145.6196500000000071
21
-96.8547009999999915
0
LINE
8
BLACK
6
CONTINUOUS
10
145.6196500000000071
20
-96.8547009999999915
11
145.8560039999999844
21
-96.8921359999999936
0
LINE
8
BLACK
6
CONTINUOUS
10
144.0250000000000057
20
-98.4910849999999982
11
144.0613189999999975
21
-98.7203969999999913
0
LINE
8
BLACK
6
CONTINUOUS
10
144.0613189999999975
20
-98.7203969999999913
11
144.1330639999999903
21
-98.9412030000000016
0
LINE
8
BLACK
6
CONTINUOUS
10
144.1330639999999903
20
-98.9412030000000016
11
144.2384669999999858
21
-99.148067999999995
0
LINE
8
BLACK
6
CONTINUOUS
10
144.2384669999999858
20
-99.148067999999995
11
144.3749329999999986
21
-99.3358980000000003
0
LINE
8
BLACK
6
CONTINUOUS
10
144.3749329999999986
20
-99.3358980000000003
11
144.5391019999999855
21
-99.5000670000000014
0
LINE
8
BLACK
6
CONTINUOUS
10
144.5391019999999855
20
-99.5000670000000014
11
144.726932000000005
21
-99.636533
0
LINE
8
BLACK
6
CONTINUOUS
10
144.726932000000005
20
-99.636533
11
144.9337969999999984
21
-99.7419359999999955
0
LINE
8
BLACK
6
CONTINUOUS
10
144.9337969999999984
20
-99.7419359999999955
11
145.1546029999999803
21
-99.8136810000000025
0
LINE
8
BLACK
6
CONTINUOUS
10
145.1546029999999803
20
-99.8136810000000025
11
145.3839150000000018
21
-99.8499999999999943
0
LINE
8
BLACK
6
CONTINUOUS
10
145.3839150000000018
20
-99.8499999999999943
11
145.6160849999999982
21
-99.8499999999999943
0
LINE
8
BLACK
6
CONTINUOUS
10
145.6160849999999982
20
-99.8499999999999943
11
145.8453969999999913
21
-99.8136810000000025
0
LINE
8
BLACK
6
CONTINUOUS
10
145.8453969999999913
20
-99.8136810000000025
11
146.0662030000000016
21
-99.7419359999999955
0
LINE
8
BLACK
6
CONTINUOUS
10
146.0662030000000016
20
-99.7419359999999955
11
146.273067999999995
21
-99.636533
0
LINE
8
BLACK
6
CONTINUOUS
10
146.273067999999995
20
-99.636533
11
146.460897999999986
21
-99.5000670000000014
0
LINE
8
BLACK
6
CONTINUOUS
10
146.460897999999986
20
-99.5000670000000014
11
146.6250670000000014
21
-99.3358980000000003
0
LINE
8
BLACK
6
CONTINUOUS
10
146.6250670000000014
20
-99.3358980000000003
11
146.7615329999999858
21
-99.148067999999995
0
LINE
8
BLACK
6
CONTINUOUS
10
146.7615329999999858
20
-99.148067999999995
11
146.8669359999999813
21
-98.9412030000000016
0
LINE
8
BLACK
6
CONTINUOUS
10
146.8669359999999813
20
-98.9412030000000016
11
146.9386810000000025
21
-98.7203969999999913
0
LINE
8
BLACK
6
CONTINUOUS
10
146.9386810000000025
20
-98.7203969999999913
11
146.9749999999999943
21
-98.4910849999999982
0
LINE
8
BLACK
6
CONTINUOUS
10
146.9749999999999943
20
-98.4910849999999982
11
146.9749999999999943
21
-98.2589150000000018
0
LINE
8
BLACK
6
CONTINUOUS
10
146.9749999999999943
20
-98.2589150000000018
11
146.9386810000000025
21
-98.0296029999999945
0
LINE
8
BLACK
6
CONTINUOUS
10
146.9386810000000025
20
-98.0296029999999945
11
146.8669359999999813
21
-97.8087969999999984
0
LINE
8
BLACK
6
CONTINUOUS
10
146.8669359999999813
20
-97.8087969999999984
11
146.7615329999999858
21
-97.6019319999999908
0
LINE
8
BLACK
6
CONTINUOUS
10
146.7615329999999858
20
-97.6019319999999908
11
146.6250670000000014
21
-97.4141019999999997
0
LINE
8
BLACK
6
CONTINUOUS
10
146.6250670000000014
20
-97.4141019999999997
11
146.460897999999986
21
-97.2499329999999986
0
LINE
8
BLACK
6
CONTINUOUS
10
146.460897999999986
20
-97.2499329999999986
11
146.273067999999995
21
-97.113467
0
LINE
8
BLACK
6
CONTINUOUS
10
146.273067999999995
20
-97.113467
11
146.0662030000000016
21
-97.0080639999999903
0
LINE
8
BLACK
6
CONTINUOUS
10
146.0662030000000016
20
-97.0080639999999903
11
145.8453969999999913
21
-96.9363189999999975
0
LINE
8
BLACK
6
CONTINUOUS
10
145.8453969999999913
20
-96.9363189999999975
11
145.6160849999999982
21
-96.8999999999999915
0
LINE
8
BLACK
6
CONTINUOUS
10
145.6160849999999982
20
-96.8999999999999915
11
145.3839150000000018
21
-96.8999999999999915
0
LINE
8
BLACK
6
CONTINUOUS
10
145.3839150000000018
20
-96.8999999999999915
11
145.1546029999999803
21
-96.9363189999999975
0
LINE
8
BLACK
6
CONTINUOUS
10
145.1546029999999803
20
-96.9363189999999975
11
144.9337969999999984
21
-97.0080639999999903
0
LINE
8
BLACK
6
CONTINUOUS
10
144.9337969999999984
20
-97.0080639999999903
11
144.726932000000005
21
-97.113467
0
LINE
8
BLACK
6
CONTINUOUS
10
144.726932000000005
20
-97.113467
11
144.5391019999999855
21
-97.2499329999999986
0
LINE
8
BLACK
6
CONTINUOUS
10
144.5391019999999855
20
-97.2499329999999986
11
144.3749329999999986
21
-97.4141019999999997
0
LINE
8
BLACK
6
CONTINUOUS
10
144.3749329999999986
20
-97.4141019999999997
11
144.2384669999999858
21
-97.6019319999999908
0
LINE
8
BLACK
6
CONTINUOUS
10
144.2384669999999858
20
-97.6019319999999908
11
144.1330639999999903
21
-97.8087969999999984
0
LINE
8
BLACK
6
CONTINUOUS
10
144.1330639999999903
20
-97.8087969999999984
11
144.0613189999999975
21
-98.0296029999999945
0
LINE
8
BLACK
6
CONTINUOUS
10
144.0613189999999975
20
-98.0296029999999945
11
144.0250000000000057
21
-98.2589150000000018
0
LINE
8
BLACK
6
CONTINUOUS
10
144.0250000000000057
20
-98.2589150000000018
11
144.0250000000000057
21
-98.4910849999999982
0
LINE
8
BLACK
6
CONTINUOUS
10
170.3560039999999844
20
-96.8921359999999936
11
170.5835919999999817
21
-96.9660839999999951
0
LINE
8
BLACK
6
CONTINUOUS
10
170.5835919999999817
20
-96.9660839999999951
11
170.7968099999999936
21
-97.0747239999999891
0
LINE
8
BLACK
6
CONTINUOUS
10
170.7968099999999936
20
-97.0747239999999891
11
170.9904080000000022
21
-97.2153809999999936
0
LINE
8
BLACK
6
CONTINUOUS
10
170.9904080000000022
20
-97.2153809999999936
11
171.1596189999999922
21
-97.3845919999999978
0
LINE
8
BLACK
6
CONTINUOUS
10
171.1596189999999922
20
-97.3845919999999978
11
171.3002759999999967
21
-97.5781899999999922
0
LINE
8
BLACK
6
CONTINUOUS
10
171.3002759999999967
20
-97.5781899999999922
11
171.4089160000000049
21
-97.7914079999999899
0
LINE
8
BLACK
6
CONTINUOUS
10
171.4089160000000049
20
-97.7914079999999899
11
171.4828640000000064
21
-98.0189960000000013
0
LINE
8
BLACK
6
CONTINUOUS
10
171.4828640000000064
20
-98.0189960000000013
11
171.5202989999999943
21
-98.2553499999999929
0
LINE
8
BLACK
6
CONTINUOUS
10
171.5202989999999943
20
-98.2553499999999929
11
171.5202989999999943
21
-98.4946499999999929
0
LINE
8
BLACK
6
CONTINUOUS
10
171.5202989999999943
20
-98.4946499999999929
11
171.4828640000000064
21
-98.7310039999999987
0
LINE
8
BLACK
6
CONTINUOUS
10
171.4828640000000064
20
-98.7310039999999987
11
171.4089160000000049
21
-98.9585919999999959
0
LINE
8
BLACK
6
CONTINUOUS
10
171.4089160000000049
20
-98.9585919999999959
11
171.3002759999999967
21
-99.1718099999999936
0
LINE
8
BLACK
6
CONTINUOUS
10
171.3002759999999967
20
-99.1718099999999936
11
171.1596189999999922
21
-99.3654080000000022
0
LINE
8
BLACK
6
CONTINUOUS
10
171.1596189999999922
20
-99.3654080000000022
11
170.9904080000000022
21
-99.5346189999999922
0
LINE
8
BLACK
6
CONTINUOUS
10
170.9904080000000022
20
-99.5346189999999922
11
170.7968099999999936
21
-99.6752759999999967
0
LINE
8
BLACK
6
CONTINUOUS
10
170.7968099999999936
20
-99.6752759999999967
11
170.5835919999999817
21
-99.7839159999999907
0
LINE
8
BLACK
6
CONTINUOUS
10
170.5835919999999817
20
-99.7839159999999907
11
170.3560039999999844
21
-99.8578639999999922
0
LINE
8
BLACK
6
CONTINUOUS
10
170.3560039999999844
20
-99.8578639999999922
11
170.1196499999999787
21
-99.8952989999999943
0
LINE
8
BLACK
6
CONTINUOUS
10
170.1196499999999787
20
-99.8952989999999943
11
169.8803499999999929
21
-99.8952989999999943
0
LINE
8
BLACK
6
CONTINUOUS
10
169.8803499999999929
20
-99.8952989999999943
11
169.6439959999999871
21
-99.8578639999999922
0
LINE
8
BLACK
6
CONTINUOUS
10
169.6439959999999871
20
-99.8578639999999922
11
169.4164079999999899
21
-99.7839159999999907
0
LINE
8
BLACK
6
CONTINUOUS
10
169.4164079999999899
20
-99.7839159999999907
11
169.2031900000000064
21
-99.6752759999999967
0
LINE
8
BLACK
6
CONTINUOUS
10
169.2031900000000064
20
-99.6752759999999967
11
169.0095919999999978
21
-99.5346189999999922
0
LINE
8
BLACK
6
CONTINUOUS
10
169.0095919999999978
20
-99.5346189999999922
11
168.8403809999999794
21
-99.3654080000000022
0
LINE
8
BLACK
6
CONTINUOUS
10
168.8403809999999794
20
-99.3654080000000022
11
168.6997240000000033
21
-99.1718099999999936
0
LINE
8
BLACK
6
CONTINUOUS
10
168.6997240000000033
20
-99.1718099999999936
11
168.5910839999999951
21
-98.9585919999999959
0
LINE
8
BLACK
6
CONTINUOUS
10
168.5910839999999951
20
-98.9585919999999959
11
168.5171359999999936
21
-98.7310039999999987
0
LINE
8
BLACK
6
CONTINUOUS
10
168.5171359999999936
20
-98.7310039999999987
11
168.4797010000000057
21
-98.4946499999999929
0
LINE
8
BLACK
6
CONTINUOUS
10
168.4797010000000057
20
-98.4946499999999929
11
168.4797010000000057
21
-98.2589150000000018
0
LINE
8
BLACK
6
CONTINUOUS
10
168.4797010000000057
20
-98.2589150000000018
11
168.4797010000000057
21
-98.2553499999999929
0
LINE
8
BLACK
6
CONTINUOUS
10
168.4797010000000057
20
-98.2553499999999929
11
168.5171359999999936
21
-98.0189960000000013
0
LINE
8
BLACK
6
CONTINUOUS
10
168.5171359999999936
20
-98.0189960000000013
11
168.5910839999999951
21
-97.7914079999999899
0
LINE
8
BLACK
6
CONTINUOUS
10
168.5910839999999951
20
-97.7914079999999899
11
168.6997240000000033
21
-97.5781899999999922
0
LINE
8
BLACK
6
CONTINUOUS
10
168.6997240000000033
20
-97.5781899999999922
11
168.8403809999999794
21
-97.3845919999999978
0
LINE
8
BLACK
6
CONTINUOUS
10
168.8403809999999794
20
-97.3845919999999978
11
169.0095919999999978
21
-97.2153809999999936
0
LINE
8
BLACK
6
CONTINUOUS
10
169.0095919999999978
20
-97.2153809999999936
11
169.2031900000000064
21
-97.0747239999999891
0
LINE
8
BLACK
6
CONTINUOUS
10
169.2031900000000064
20
-97.0747239999999891
11
169.4164079999999899
21
-96.9660839999999951
0
LINE
8
BLACK
6
CONTINUOUS
10
169.4164079999999899
20
-96.9660839999999951
11
169.6439959999999871
21
-96.8921359999999936
0
LINE
8
BLACK
6
CONTINUOUS
10
169.6439959999999871
20
-96.8921359999999936
11
169.8803499999999929
21
-96.8547009999999915
0
LINE
8
BLACK
6
CONTINUOUS
10
169.8803499999999929
20
-96.8547009999999915
11
170.1196499999999787
21
-96.8547009999999915
0
LINE
8
BLACK
6
CONTINUOUS
10
170.1196499999999787
20
-96.8547009999999915
11
170.3560039999999844
21
-96.8921359999999936
0
LINE
8
BLACK
6
CONTINUOUS
10
168.5250000000000057
20
-98.4910849999999982
11
168.5613189999999975
21
-98.7203969999999913
0
LINE
8
BLACK
6
CONTINUOUS
10
168.5613189999999975
20
-98.7203969999999913
11
168.6330639999999903
21
-98.9412030000000016
0
LINE
8
BLACK
6
CONTINUOUS
10
168.6330639999999903
20
-98.9412030000000016
11
168.7384669999999858
21
-99.148067999999995
0
LINE
8
BLACK
6
CONTINUOUS
10
168.7384669999999858
20
-99.148067999999995
11
168.8749329999999986
21
-99.3358980000000003
0
LINE
8
BLACK
6
CONTINUOUS
10
168.8749329999999986
20
-99.3358980000000003
11
169.0391019999999855
21
-99.5000670000000014
0
LINE
8
BLACK
6
CONTINUOUS
10
169.0391019999999855
20
-99.5000670000000014
11
169.226932000000005
21
-99.636533
0
LINE
8
BLACK
6
CONTINUOUS
10
169.226932000000005
20
-99.636533
11
169.4337969999999984
21
-99.7419359999999955
0
LINE
8
BLACK
6
CONTINUOUS
10
169.4337969999999984
20
-99.7419359999999955
11
169.6546029999999803
21
-99.8136810000000025
0
LINE
8
BLACK
6
CONTINUOUS
10
169.6546029999999803
20
-99.8136810000000025
11
169.8839150000000018
21
-99.8499999999999943
0
LINE
8
BLACK
6
CONTINUOUS
10
169.8839150000000018
20
-99.8499999999999943
11
170.1160849999999982
21
-99.8499999999999943
0
LINE
8
BLACK
6
CONTINUOUS
10
170.1160849999999982
20
-99.8499999999999943
11
170.3453969999999913
21
-99.8136810000000025
0
LINE
8
BLACK
6
CONTINUOUS
10
170.3453969999999913
20
-99.8136810000000025
11
170.5662030000000016
21
-99.7419359999999955
0
LINE
8
BLACK
6
CONTINUOUS
10
170.5662030000000016
20
-99.7419359999999955
11
170.773067999999995
21
-99.636533
0
LINE
8
BLACK
6
CONTINUOUS
10
170.773067999999995
20
-99.636533
11
170.960897999999986
21
-99.5000670000000014
0
LINE
8
BLACK
6
CONTINUOUS
10
170.960897999999986
20
-99.5000670000000014
11
171.1250670000000014
21
-99.3358980000000003
0
LINE
8
BLACK
6
CONTINUOUS
10
171.1250670000000014
20
-99.3358980000000003
11
171.2615329999999858
21
-99.148067999999995
0
LINE
8
BLACK
6
CONTINUOUS
10
171.2615329999999858
20
-99.148067999999995
11
171.3669359999999813
21
-98.9412030000000016
0
LINE
8
BLACK
6
CONTINUOUS
10
171.3669359999999813
20
-98.9412030000000016
11
171.4386810000000025
21
-98.7203969999999913
0
LINE
8
BLACK
6
CONTINUOUS
10
171.4386810000000025
20
-98.7203969999999913
11
171.4749999999999943
21
-98.4910849999999982
0
LINE
8
BLACK
6
CONTINUOUS
10
171.4749999999999943
20
-98.4910849999999982
11
171.4749999999999943
21
-98.2589150000000018
0
LINE
8
BLACK
6
CONTINUOUS
10
171.4749999999999943
20
-98.2589150000000018
11
171.4386810000000025
21
-98.0296029999999945
0
LINE
8
BLACK
6
CONTINUOUS
10
171.4386810000000025
20
-98.0296029999999945
11
171.3669359999999813
21
-97.8087969999999984
0
LINE
8
BLACK
6
CONTINUOUS
10
171.3669359999999813
20
-97.8087969999999984
11
171.2615329999999858
21
-97.6019319999999908
0
LINE
8
BLACK
6
CONTINUOUS
10
171.2615329999999858
20
-97.6019319999999908
11
171.1250670000000014
21
-97.4141019999999997
0
LINE
8
BLACK
6
CONTINUOUS
10
171.1250670000000014
20
-97.4141019999999997
11
170.960897999999986
21
-97.2499329999999986
0
LINE
8
BLACK
6
CONTINUOUS
10
170.960897999999986
20
-97.2499329999999986
11
170.773067999999995
21
-97.113467
0
LINE
8
BLACK
6
CONTINUOUS
10
170.773067999999995
20
-97.113467
11
170.5662030000000016
21
-97.0080639999999903
0
LINE
8
BLACK
6
CONTINUOUS
10
170.5662030000000016
20
-97.0080639999999903
11
170.3453969999999913
21
-96.9363189999999975
0
LINE
8
BLACK
6
CONTINUOUS
10
170.3453969999999913
20
-96.9363189999999975
11
170.1160849999999982
21
-96.8999999999999915
0
LINE
8
BLACK
6
CONTINUOUS
10
170.1160849999999982
20
-96.8999999999999915
11
169.8839150000000018
21
-96.8999999999999915
0
LINE
8
BLACK
6
CONTINUOUS
10
169.8839150000000018
20
-96.8999999999999915
11
169.6546029999999803
21
-96.9363189999999975
0
LINE
8
BLACK
6
CONTINUOUS
10
169.6546029999999803
20
-96.9363189999999975
11
169.4337969999999984
21
-97.0080639999999903
0
LINE
8
BLACK
6
CONTINUOUS
10
169.4337969999999984
20
-97.0080639999999903
11
169.226932000000005
21
-97.113467
0
LINE
8
BLACK
6
CONTINUOUS
10
169.226932000000005
20
-97.113467
11
169.0391019999999855
21
-97.2499329999999986
0
LINE
8
BLACK
6
CONTINUOUS
10
169.0391019999999855
20
-97.2499329999999986
11
168.8749329999999986
21
-97.4141019999999997
0
LINE
8
BLACK
6
CONTINUOUS
10
168.8749329999999986
20
-97.4141019999999997
11
168.7384669999999858
21
-97.6019319999999908
0
LINE
8
BLACK
6
CONTINUOUS
10
168.7384669999999858
20
-97.6019319999999908
11
168.6330639999999903
21
-97.8087969999999984
0
LINE
8
BLACK
6
CONTINUOUS
10
168.6330639999999903
20
-97.8087969999999984
11
168.5613189999999975
21
-98.0296029999999945
0
LINE
8
BLACK
6
CONTINUOUS
10
168.5613189999999975
20
-98.0296029999999945
11
168.5250000000000057
21
-98.2589150000000018
0
LINE
8
BLACK
6
CONTINUOUS
10
168.5250000000000057
20
-98.2589150000000018
11
168.5250000000000057
21
-98.4910849999999982
0
LINE
8
BLACK
6
CONTINUOUS
10
210.0768239999999878
20
-96.8186819999999955
11
210.2857569999999896
21
-96.8865689999999944
0
LINE
8
BLACK
6
CONTINUOUS
10
210.2857569999999896
20
-96.8865689999999944
11
210.4814979999999878
21
-96.9863039999999899
0
LINE
8
BLACK
6
CONTINUOUS
10
210.4814979999999878
20
-96.9863039999999899
11
210.6592269999999871
21
-97.1154319999999984
0
LINE
8
BLACK
6
CONTINUOUS
10
210.6592269999999871
20
-97.1154319999999984
11
210.81456799999998
21
-97.2707729999999913
0
LINE
8
BLACK
6
CONTINUOUS
10
210.81456799999998
20
-97.2707729999999913
11
210.9436959999999885
21
-97.4485019999999906
0
LINE
8
BLACK
6
CONTINUOUS
10
210.9436959999999885
20
-97.4485019999999906
11
211.0434309999999982
21
-97.6442429999999888
0
LINE
8
BLACK
6
CONTINUOUS
10
211.0434309999999982
20
-97.6442429999999888
11
211.1113179999999829
21
-97.8531759999999906
0
LINE
8
BLACK
6
CONTINUOUS
10
211.1113179999999829
20
-97.8531759999999906
11
211.1456839999999886
21
-98.0701569999999947
0
LINE
8
BLACK
6
CONTINUOUS
10
211.1456839999999886
20
-98.0701569999999947
11
211.1456839999999886
21
-98.2898429999999905
0
LINE
8
BLACK
6
CONTINUOUS
10
211.1456839999999886
20
-98.2898429999999905
11
211.1113179999999829
21
-98.5068239999999946
0
LINE
8
BLACK
6
CONTINUOUS
10
211.1113179999999829
20
-98.5068239999999946
11
211.0434309999999982
21
-98.7157569999999964
0
LINE
8
BLACK
6
CONTINUOUS
10
211.0434309999999982
20
-98.7157569999999964
11
210.9436959999999885
21
-98.9114979999999946
0
LINE
8
BLACK
6
CONTINUOUS
10
210.9436959999999885
20
-98.9114979999999946
11
210.81456799999998
21
-99.089226999999994
0
LINE
8
BLACK
6
CONTINUOUS
10
210.81456799999998
20
-99.089226999999994
11
210.6592269999999871
21
-99.244568000000001
0
LINE
8
BLACK
6
CONTINUOUS
10
210.6592269999999871
20
-99.244568000000001
11
210.4814979999999878
21
-99.3736959999999954
0
LINE
8
BLACK
6
CONTINUOUS
10
210.4814979999999878
20
-99.3736959999999954
11
210.2857569999999896
21
-99.4734309999999908
0
LINE
8
BLACK
6
CONTINUOUS
10
210.2857569999999896
20
-99.4734309999999908
11
210.0768239999999878
21
-99.5413179999999898
0
LINE
8
BLACK
6
CONTINUOUS
10
210.0768239999999878
20
-99.5413179999999898
11
209.8598429999999837
21
-99.5756839999999954
0
LINE
8
BLACK
6
CONTINUOUS
10
209.8598429999999837
20
-99.5756839999999954
11
209.6401569999999879
21
-99.5756839999999954
0
LINE
8
BLACK
6
CONTINUOUS
10
209.6401569999999879
20
-99.5756839999999954
11
209.4231759999999838
21
-99.5413179999999898
0
LINE
8
BLACK
6
CONTINUOUS
10
209.4231759999999838
20
-99.5413179999999898
11
209.214242999999982
21
-99.4734309999999908
0
LINE
8
BLACK
6
CONTINUOUS
10
209.214242999999982
20
-99.4734309999999908
11
209.0185019999999838
21
-99.3736959999999954
0
LINE
8
BLACK
6
CONTINUOUS
10
209.0185019999999838
20
-99.3736959999999954
11
208.8407729999999844
21
-99.244568000000001
0
LINE
8
BLACK
6
CONTINUOUS
10
208.8407729999999844
20
-99.244568000000001
11
208.6854319999999916
21
-99.089226999999994
0
LINE
8
BLACK
6
CONTINUOUS
10
208.6854319999999916
20
-99.089226999999994
11
208.556303999999983
21
-98.9114979999999946
0
LINE
8
BLACK
6
CONTINUOUS
10
208.556303999999983
20
-98.9114979999999946
11
208.4565690000000018
21
-98.7157569999999964
0
LINE
8
BLACK
6
CONTINUOUS
10
208.4565690000000018
20
-98.7157569999999964
11
208.3886819999999886
21
-98.5068239999999946
0
LINE
8
BLACK
6
CONTINUOUS
10
208.3886819999999886
20
-98.5068239999999946
11
208.354315999999983
21
-98.2898429999999905
0
LINE
8
BLACK
6
CONTINUOUS
10
208.354315999999983
20
-98.2898429999999905
11
208.354315999999983
21
-98.0737529999999964
0
LINE
8
BLACK
6
CONTINUOUS
10
208.354315999999983
20
-98.0737529999999964
11
208.354315999999983
21
-98.0701569999999947
0
LINE
8
BLACK
6
CONTINUOUS
10
208.354315999999983
20
-98.0701569999999947
11
208.3886819999999886
21
-97.8531759999999906
0
LINE
8
BLACK
6
CONTINUOUS
10
208.3886819999999886
20
-97.8531759999999906
11
208.4565690000000018
21
-97.6442429999999888
0
LINE
8
BLACK
6
CONTINUOUS
10
208.4565690000000018
20
-97.6442429999999888
11
208.556303999999983
21
-97.4485019999999906
0
LINE
8
BLACK
6
CONTINUOUS
10
208.556303999999983
20
-97.4485019999999906
11
208.6854319999999916
21
-97.2707729999999913
0
LINE
8
BLACK
6
CONTINUOUS
10
208.6854319999999916
20
-97.2707729999999913
11
208.8407729999999844
21
-97.1154319999999984
0
LINE
8
BLACK
6
CONTINUOUS
10
208.8407729999999844
20
-97.1154319999999984
11
209.0185019999999838
21
-96.9863039999999899
0
LINE
8
BLACK
6
CONTINUOUS
10
209.0185019999999838
20
-96.9863039999999899
11
209.214242999999982
21
-96.8865689999999944
0
LINE
8
BLACK
6
CONTINUOUS
10
209.214242999999982
20
-96.8865689999999944
11
209.4231759999999838
21
-96.8186819999999955
0
LINE
8
BLACK
6
CONTINUOUS
10
209.4231759999999838
20
-96.8186819999999955
11
209.6401569999999879
21
-96.7843159999999898
0
LINE
8
BLACK
6
CONTINUOUS
10
209.6401569999999879
20
-96.7843159999999898
11
209.8598429999999837
21
-96.7843159999999898
0
LINE
8
BLACK
6
CONTINUOUS
10
209.8598429999999837
20
-96.7843159999999898
11
210.0768239999999878
21
-96.8186819999999955
0
LINE
8
BLACK
6
CONTINUOUS
10
208.3999999999999773
20
-98.2862469999999888
11
208.4332419999999786
21
-98.4961259999999896
0
LINE
8
BLACK
6
CONTINUOUS
10
208.4332419999999786
20
-98.4961259999999896
11
208.4989059999999768
21
-98.6982199999999921
0
LINE
8
BLACK
6
CONTINUOUS
10
208.4989059999999768
20
-98.6982199999999921
11
208.5953769999999849
21
-98.8875539999999944
0
LINE
8
BLACK
6
CONTINUOUS
10
208.5953769999999849
20
-98.8875539999999944
11
208.7202779999999791
21
-99.0594660000000005
0
LINE
8
BLACK
6
CONTINUOUS
10
208.7202779999999791
20
-99.0594660000000005
11
208.8705339999999921
21
-99.2097219999999993
0
LINE
8
BLACK
6
CONTINUOUS
10
208.8705339999999921
20
-99.2097219999999993
11
209.042445999999984
21
-99.3346229999999935
0
LINE
8
BLACK
6
CONTINUOUS
10
209.042445999999984
20
-99.3346229999999935
11
209.2317799999999863
21
-99.4310940000000016
0
LINE
8
BLACK
6
CONTINUOUS
10
209.2317799999999863
20
-99.4310940000000016
11
209.433874000000003
21
-99.4967579999999998
0
LINE
8
BLACK
6
CONTINUOUS
10
209.433874000000003
20
-99.4967579999999998
11
209.6437530000000038
21
-99.5300000000000011
0
LINE
8
BLACK
6
CONTINUOUS
10
209.6437530000000038
20
-99.5300000000000011
11
209.8562469999999962
21
-99.5300000000000011
0
LINE
8
BLACK
6
CONTINUOUS
10
209.8562469999999962
20
-99.5300000000000011
11
210.066125999999997
21
-99.4967579999999998
0
LINE
8
BLACK
6
CONTINUOUS
10
210.066125999999997
20
-99.4967579999999998
11
210.2682199999999852
21
-99.4310940000000016
0
LINE
8
BLACK
6
CONTINUOUS
10
210.2682199999999852
20
-99.4310940000000016
11
210.4575539999999876
21
-99.3346229999999935
0
LINE
8
BLACK
6
CONTINUOUS
10
210.4575539999999876
20
-99.3346229999999935
11
210.6294659999999794
21
-99.2097219999999993
0
LINE
8
BLACK
6
CONTINUOUS
10
210.6294659999999794
20
-99.2097219999999993
11
210.7797219999999925
21
-99.0594660000000005
0
LINE
8
BLACK
6
CONTINUOUS
10
210.7797219999999925
20
-99.0594660000000005
11
210.9046229999999866
21
-98.8875539999999944
0
LINE
8
BLACK
6
CONTINUOUS
10
210.9046229999999866
20
-98.8875539999999944
11
211.0010939999999948
21
-98.6982199999999921
0
LINE
8
BLACK
6
CONTINUOUS
10
211.0010939999999948
20
-98.6982199999999921
11
211.066757999999993
21
-98.4961259999999896
0
LINE
8
BLACK
6
CONTINUOUS
10
211.066757999999993
20
-98.4961259999999896
11
211.0999999999999943
21
-98.2862469999999888
0
LINE
8
BLACK
6
CONTINUOUS
10
211.0999999999999943
20
-98.2862469999999888
11
211.0999999999999943
21
-98.0737529999999964
0
LINE
8
BLACK
6
CONTINUOUS
10
211.0999999999999943
20
-98.0737529999999964
11
211.066757999999993
21
-97.8638739999999956
0
LINE
8
BLACK
6
CONTINUOUS
10
211.066757999999993
20
-97.8638739999999956
11
211.0010939999999948
21
-97.6617799999999932
0
LINE
8
BLACK
6
CONTINUOUS
10
211.0010939999999948
20
-97.6617799999999932
11
210.9046229999999866
21
-97.4724459999999908
0
LINE
8
BLACK
6
CONTINUOUS
10
210.9046229999999866
20
-97.4724459999999908
11
210.7797219999999925
21
-97.300533999999999
0
LINE
8
BLACK
6
CONTINUOUS
10
210.7797219999999925
20
-97.300533999999999
11
210.6294659999999794
21
-97.1502780000000001
0
LINE
8
BLACK
6
CONTINUOUS
10
210.6294659999999794
20
-97.1502780000000001
11
210.4575539999999876
21
-97.0253769999999918
0
LINE
8
BLACK
6
CONTINUOUS
10
210.4575539999999876
20
-97.0253769999999918
11
210.2682199999999852
21
-96.9289059999999978
0
LINE
8
BLACK
6
CONTINUOUS
10
210.2682199999999852
20
-96.9289059999999978
11
210.066125999999997
21
-96.8632419999999996
0
LINE
8
BLACK
6
CONTINUOUS
10
210.066125999999997
20
-96.8632419999999996
11
209.8562469999999962
21
-96.8299999999999983
0
LINE
8
BLACK
6
CONTINUOUS
10
209.8562469999999962
20
-96.8299999999999983
11
209.6437530000000038
21
-96.8299999999999983
0
LINE
8
BLACK
6
CONTINUOUS
10
209.6437530000000038
20
-96.8299999999999983
11
209.433874000000003
21
-96.8632419999999996
0
LINE
8
BLACK
6
CONTINUOUS
10
209.433874000000003
20
-96.8632419999999996
11
209.2317799999999863
21
-96.9289059999999978
0
LINE
8
BLACK
6
CONTINUOUS
10
209.2317799999999863
20
-96.9289059999999978
11
209.042445999999984
21
-97.0253769999999918
0
LINE
8
BLACK
6
CONTINUOUS
10
209.042445999999984
20
-97.0253769999999918
11
208.8705339999999921
21
-97.1502780000000001
0
LINE
8
BLACK
6
CONTINUOUS
10
208.8705339999999921
20
-97.1502780000000001
11
208.7202779999999791
21
-97.300533999999999
0
LINE
8
BLACK
6
CONTINUOUS
10
208.7202779999999791
20
-97.300533999999999
11
208.5953769999999849
21
-97.4724459999999908
0
LINE
8
BLACK
6
CONTINUOUS
10
208.5953769999999849
20
-97.4724459999999908
11
208.4989059999999768
21
-97.6617799999999932
0
LINE
8
BLACK
6
CONTINUOUS
10
208.4989059999999768
20
-97.6617799999999932
11
208.4332419999999786
21
-97.8638739999999956
0
LINE
8
BLACK
6
CONTINUOUS
10
208.4332419999999786
20
-97.8638739999999956
11
208.3999999999999773
21
-98.0737529999999964
0
LINE
8
BLACK
6
CONTINUOUS
10
208.3999999999999773
20
-98.0737529999999964
11
208.3999999999999773
21
-98.2862469999999888
0
LINE
8
BLACK
6
CONTINUOUS
10
145.8560039999999844
20
-73.3921359999999936
11
146.0835919999999817
21
-73.4660839999999951
0
LINE
8
BLACK
6
CONTINUOUS
10
146.0835919999999817
20
-73.4660839999999951
11
146.2968099999999936
21
-73.5747240000000033
0
LINE
8
BLACK
6
CONTINUOUS
10
146.2968099999999936
20
-73.5747240000000033
11
146.4904080000000022
21
-73.7153809999999936
0
LINE
8
BLACK
6
CONTINUOUS
10
146.4904080000000022
20
-73.7153809999999936
11
146.6596189999999922
21
-73.8845919999999978
0
LINE
8
BLACK
6
CONTINUOUS
10
146.6596189999999922
20
-73.8845919999999978
11
146.8002759999999967
21
-74.0781899999999922
0
LINE
8
BLACK
6
CONTINUOUS
10
146.8002759999999967
20
-74.0781899999999922
11
146.9089160000000049
21
-74.2914079999999899
0
LINE
8
BLACK
6
CONTINUOUS
10
146.9089160000000049
20
-74.2914079999999899
11
146.9828640000000064
21
-74.5189960000000013
0
LINE
8
BLACK
6
CONTINUOUS
10
146.9828640000000064
20
-74.5189960000000013
11
147.0202989999999943
21
-74.7553499999999929
0
LINE
8
BLACK
6
CONTINUOUS
10
147.0202989999999943
20
-74.7553499999999929
11
147.0202989999999943
21
-74.9946499999999929
0
LINE
8
BLACK
6
CONTINUOUS
10
147.0202989999999943
20
-74.9946499999999929
11
146.9828640000000064
21
-75.2310039999999987
0
LINE
8
BLACK
6
CONTINUOUS
10
146.9828640000000064
20
-75.2310039999999987
11
146.9089160000000049
21
-75.4585919999999959
0
LINE
8
BLACK
6
CONTINUOUS
10
146.9089160000000049
20
-75.4585919999999959
11
146.8002759999999967
21
-75.6718099999999936
0
LINE
8
BLACK
6
CONTINUOUS
10
146.8002759999999967
20
-75.6718099999999936
11
146.6596189999999922
21
-75.8654080000000022
0
LINE
8
BLACK
6
CONTINUOUS
10
146.6596189999999922
20
-75.8654080000000022
11
146.4904080000000022
21
-76.0346189999999922
0
LINE
8
BLACK
6
CONTINUOUS
10
146.4904080000000022
20
-76.0346189999999922
11
146.2968099999999936
21
-76.1752759999999967
0
LINE
8
BLACK
6
CONTINUOUS
10
146.2968099999999936
20
-76.1752759999999967
11
146.0835919999999817
21
-76.2839159999999907
0
LINE
8
BLACK
6
CONTINUOUS
10
146.0835919999999817
20
-76.2839159999999907
11
145.8560039999999844
21
-76.3578639999999922
0
LINE
8
BLACK
6
CONTINUOUS
10
145.8560039999999844
20
-76.3578639999999922
11
145.6196500000000071
21
-76.3952989999999943
0
LINE
8
BLACK
6
CONTINUOUS
10
145.6196500000000071
20
-76.3952989999999943
11
145.3803499999999929
21
-76.3952989999999943
0
LINE
8
BLACK
6
CONTINUOUS
10
145.3803499999999929
20
-76.3952989999999943
11
145.1439959999999871
21
-76.3578639999999922
0
LINE
8
BLACK
6
CONTINUOUS
10
145.1439959999999871
20
-76.3578639999999922
11
144.9164079999999899
21
-76.2839159999999907
0
LINE
8
BLACK
6
CONTINUOUS
10
144.9164079999999899
20
-76.2839159999999907
11
144.7031900000000064
21
-76.1752759999999967
0
LINE
8
BLACK
6
CONTINUOUS
10
144.7031900000000064
20
-76.1752759999999967
11
144.5095919999999978
21
-76.0346189999999922
0
LINE
8
BLACK
6
CONTINUOUS
10
144.5095919999999978
20
-76.0346189999999922
11
144.3403809999999794
21
-75.8654080000000022
0
LINE
8
BLACK
6
CONTINUOUS
10
144.3403809999999794
20
-75.8654080000000022
11
144.1997240000000033
21
-75.6718099999999936
0
LINE
8
BLACK
6
CONTINUOUS
10
144.1997240000000033
20
-75.6718099999999936
11
144.0910839999999951
21
-75.4585919999999959
0
LINE
8
BLACK
6
CONTINUOUS
10
144.0910839999999951
20
-75.4585919999999959
11
144.0171359999999936
21
-75.2310039999999987
0
LINE
8
BLACK
6
CONTINUOUS
10
144.0171359999999936
20
-75.2310039999999987
11
143.9797010000000057
21
-74.9946499999999929
0
LINE
8
BLACK
6
CONTINUOUS
10
143.9797010000000057
20
-74.9946499999999929
11
143.9797010000000057
21
-74.7589150000000018
0
LINE
8
BLACK
6
CONTINUOUS
10
143.9797010000000057
20
-74.7589150000000018
11
143.9797010000000057
21
-74.7553499999999929
0
LINE
8
BLACK
6
CONTINUOUS
10
143.9797010000000057
20
-74.7553499999999929
11
144.0171359999999936
21
-74.5189960000000013
0
LINE
8
BLACK
6
CONTINUOUS
10
144.0171359999999936
20
-74.5189960000000013
11
144.0910839999999951
21
-74.2914079999999899
0
LINE
8
BLACK
6
CONTINUOUS
10
144.0910839999999951
20
-74.2914079999999899
11
144.1997240000000033
21
-74.0781899999999922
0
LINE
8
BLACK
6
CONTINUOUS
10
144.1997240000000033
20
-74.0781899999999922
11
144.3403809999999794
21
-73.8845919999999978
0
LINE
8
BLACK
6
CONTINUOUS
10
144.3403809999999794
20
-73.8845919999999978
11
144.5095919999999978
21
-73.7153809999999936
0
LINE
8
BLACK
6
CONTINUOUS
10
144.5095919999999978
20
-73.7153809999999936
11
144.7031900000000064
21
-73.5747240000000033
0
LINE
8
BLACK
6
CONTINUOUS
10
144.7031900000000064
20
-73.5747240000000033
11
144.9164079999999899
21
-73.4660839999999951
0
LINE
8
BLACK
6
CONTINUOUS
10
144.9164079999999899
20
-73.4660839999999951
11
145.1439959999999871
21
-73.3921359999999936
0
LINE
8
BLACK
6
CONTINUOUS
10
145.1439959999999871
20
-73.3921359999999936
11
145.3803499999999929
21
-73.3547009999999915
0
LINE
8
BLACK
6
CONTINUOUS
10
145.3803499999999929
20
-73.3547009999999915
11
145.6196500000000071
21
-73.3547009999999915
0
LINE
8
BLACK
6
CONTINUOUS
10
145.6196500000000071
20
-73.3547009999999915
11
145.8560039999999844
21
-73.3921359999999936
0
LINE
8
BLACK
6
CONTINUOUS
10
144.0250000000000057
20
-74.9910849999999982
11
144.0613189999999975
21
-75.2203969999999913
0
LINE
8
BLACK
6
CONTINUOUS
10
144.0613189999999975
20
-75.2203969999999913
11
144.1330639999999903
21
-75.4412030000000016
0
LINE
8
BLACK
6
CONTINUOUS
10
144.1330639999999903
20
-75.4412030000000016
11
144.2384669999999858
21
-75.648067999999995
0
LINE
8
BLACK
6
CONTINUOUS
10
144.2384669999999858
20
-75.648067999999995
11
144.3749329999999986
21
-75.8358980000000003
0
LINE
8
BLACK
6
CONTINUOUS
10
144.3749329999999986
20
-75.8358980000000003
11
144.5391019999999855
21
-76.0000670000000014
0
LINE
8
BLACK
6
CONTINUOUS
10
144.5391019999999855
20
-76.0000670000000014
11
144.726932000000005
21
-76.136533
0
LINE
8
BLACK
6
CONTINUOUS
10
144.726932000000005
20
-76.136533
11
144.9337969999999984
21
-76.2419359999999955
0
LINE
8
BLACK
6
CONTINUOUS
10
144.9337969999999984
20
-76.2419359999999955
11
145.1546029999999803
21
-76.3136810000000025
0
LINE
8
BLACK
6
CONTINUOUS
10
145.1546029999999803
20
-76.3136810000000025
11
145.3839150000000018
21
-76.3499999999999943
0
LINE
8
BLACK
6
CONTINUOUS
10
145.3839150000000018
20
-76.3499999999999943
11
145.6160849999999982
21
-76.3499999999999943
0
LINE
8
BLACK
6
CONTINUOUS
10
145.6160849999999982
20
-76.3499999999999943
11
145.8453969999999913
21
-76.3136810000000025
0
LINE
8
BLACK
6
CONTINUOUS
10
145.8453969999999913
20
-76.3136810000000025
11
146.0662030000000016
21
-76.2419359999999955
0
LINE
8
BLACK
6
CONTINUOUS
10
146.0662030000000016
20
-76.2419359999999955
11
146.273067999999995
21
-76.136533
0
LINE
8
BLACK
6
CONTINUOUS
10
146.273067999999995
20
-76.136533
11
146.460897999999986
21
-76.0000670000000014
0
LINE
8
BLACK
6
CONTINUOUS
10
146.460897999999986
20
-76.0000670000000014
11
146.6250670000000014
21
-75.8358980000000003
0
LINE
8
BLACK
6
CONTINUOUS
10
146.6250670000000014
20
-75.8358980000000003
11
146.7615329999999858
21
-75.648067999999995
0
LINE
8
BLACK
6
CONTINUOUS
10
146.7615329999999858
20
-75.648067999999995
11
146.8669359999999813
21
-75.4412030000000016
0
LINE
8
BLACK
6
CONTINUOUS
10
146.8669359999999813
20
-75.4412030000000016
11
146.9386810000000025
21
-75.2203969999999913
0
LINE
8
BLACK
6
CONTINUOUS
10
146.9386810000000025
20
-75.2203969999999913
11
146.9749999999999943
21
-74.9910849999999982
0
LINE
8
BLACK
6
CONTINUOUS
10
146.9749999999999943
20
-74.9910849999999982
11
146.9749999999999943
21
-74.7589150000000018
0
LINE
8
BLACK
6
CONTINUOUS
10
146.9749999999999943
20
-74.7589150000000018
11
146.9386810000000025
21
-74.5296029999999945
0
LINE
8
BLACK
6
CONTINUOUS
10
146.9386810000000025
20
-74.5296029999999945
11
146.8669359999999813
21
-74.3087969999999984
0
LINE
8
BLACK
6
CONTINUOUS
10
146.8669359999999813
20
-74.3087969999999984
11
146.7615329999999858
21
-74.1019319999999908
0
LINE
8
BLACK
6
CONTINUOUS
10
146.7615329999999858
20
-74.1019319999999908
11
146.6250670000000014
21
-73.9141019999999997
0
LINE
8
BLACK
6
CONTINUOUS
10
146.6250670000000014
20
-73.9141019999999997
11
146.460897999999986
21
-73.7499329999999986
0
LINE
8
BLACK
6
CONTINUOUS
10
146.460897999999986
20
-73.7499329999999986
11
146.273067999999995
21
-73.613467
0
LINE
8
BLACK
6
CONTINUOUS
10
146.273067999999995
20
-73.613467
11
146.0662030000000016
21
-73.5080639999999903
0
LINE
8
BLACK
6
CONTINUOUS
10
146.0662030000000016
20
-73.5080639999999903
11
145.8453969999999913
21
-73.4363189999999975
0
LINE
8
BLACK
6
CONTINUOUS
10
145.8453969999999913
20
-73.4363189999999975
11
145.6160849999999982
21
-73.3999999999999915
0
LINE
8
BLACK
6
CONTINUOUS
10
145.6160849999999982
20
-73.3999999999999915
11
145.3839150000000018
21
-73.3999999999999915
0
LINE
8
BLACK
6
CONTINUOUS
10
145.3839150000000018
20
-73.3999999999999915
11
145.1546029999999803
21
-73.4363189999999975
0
LINE
8
BLACK
6
CONTINUOUS
10
145.1546029999999803
20
-73.4363189999999975
11
144.9337969999999984
21
-73.5080639999999903
0
LINE
8
BLACK
6
CONTINUOUS
10
144.9337969999999984
20
-73.5080639999999903
11
144.726932000000005
21
-73.613467
0
LINE
8
BLACK
6
CONTINUOUS
10
144.726932000000005
20
-73.613467
11
144.5391019999999855
21
-73.7499329999999986
0
LINE
8
BLACK
6
CONTINUOUS
10
144.5391019999999855
20
-73.7499329999999986
11
144.3749329999999986
21
-73.9141019999999997
0
LINE
8
BLACK
6
CONTINUOUS
10
144.3749329999999986
20
-73.9141019999999997
11
144.2384669999999858
21
-74.1019319999999908
0
LINE
8
BLACK
6
CONTINUOUS
10
144.2384669999999858
20
-74.1019319999999908
11
144.1330639999999903
21
-74.3087969999999984
0
LINE
8
BLACK
6
CONTINUOUS
10
144.1330639999999903
20
-74.3087969999999984
11
144.0613189999999975
21
-74.5296029999999945
0
LINE
8
BLACK
6
CONTINUOUS
10
144.0613189999999975
20
-74.5296029999999945
11
144.0250000000000057
21
-74.7589150000000018
0
LINE
8
BLACK
6
CONTINUOUS
10
144.0250000000000057
20
-74.7589150000000018
11
144.0250000000000057
21
-74.9910849999999982
0
LINE
8
BLACK
6
CONTINUOUS
10
170.3560039999999844
20
-73.3921359999999936
11
170.5835919999999817
21
-73.4660839999999951
0
LINE
8
BLACK
6
CONTINUOUS
10
170.5835919999999817
20
-73.4660839999999951
11
170.7968099999999936
21
-73.5747240000000033
0
LINE
8
BLACK
6
CONTINUOUS
10
170.7968099999999936
20
-73.5747240000000033
11
170.9904080000000022
21
-73.7153809999999936
0
LINE
8
BLACK
6
CONTINUOUS
10
170.9904080000000022
20
-73.7153809999999936
11
171.1596189999999922
21
-73.8845919999999978
0
LINE
8
BLACK
6
CONTINUOUS
10
171.1596189999999922
20
-73.8845919999999978
11
171.3002759999999967
21
-74.0781899999999922
0
LINE
8
BLACK
6
CONTINUOUS
10
171.3002759999999967
20
-74.0781899999999922
11
171.4089160000000049
21
-74.2914079999999899
0
LINE
8
BLACK
6
CONTINUOUS
10
171.4089160000000049
20
-74.2914079999999899
11
171.4828640000000064
21
-74.5189960000000013
0
LINE
8
BLACK
6
CONTINUOUS
10
171.4828640000000064
20
-74.5189960000000013
11
171.5202989999999943
21
-74.7553499999999929
0
LINE
8
BLACK
6
CONTINUOUS
10
171.5202989999999943
20
-74.7553499999999929
11
171.5202989999999943
21
-74.9946499999999929
0
LINE
8
BLACK
6
CONTINUOUS
10
171.5202989999999943
20
-74.9946499999999929
11
171.4828640000000064
21
-75.2310039999999987
0
LINE
8
BLACK
6
CONTINUOUS
10
171.4828640000000064
20
-75.2310039999999987
11
171.4089160000000049
21
-75.4585919999999959
0
LINE
8
BLACK
6
CONTINUOUS
10
171.4089160000000049
20
-75.4585919999999959
11
171.3002759999999967
21
-75.6718099999999936
0
LINE
8
BLACK
6
CONTINUOUS
10
171.3002759999999967
20
-75.6718099999999936
11
171.1596189999999922
21
-75.8654080000000022
0
LINE
8
BLACK
6
CONTINUOUS
10
171.1596189999999922
20
-75.8654080000000022
11
170.9904080000000022
21
-76.0346189999999922
0
LINE
8
BLACK
6
CONTINUOUS
10
170.9904080000000022
20
-76.0346189999999922
11
170.7968099999999936
21
-76.1752759999999967
0
LINE
8
BLACK
6
CONTINUOUS
10
170.7968099999999936
20
-76.1752759999999967
11
170.5835919999999817
21
-76.2839159999999907
0
LINE
8
BLACK
6
CONTINUOUS
10
170.5835919999999817
20
-76.2839159999999907
11
170.3560039999999844
21
-76.3578639999999922
0
LINE
8
BLACK
6
CONTINUOUS
10
170.3560039999999844
20
-76.3578639999999922
11
170.1196499999999787
21
-76.3952989999999943
0
LINE
8
BLACK
6
CONTINUOUS
10
170.1196499999999787
20
-76.3952989999999943
11
169.8803499999999929
21
-76.3952989999999943
0
LINE
8
BLACK
6
CONTINUOUS
10
169.8803499999999929
20
-76.3952989999999943
11
169.6439959999999871
21
-76.3578639999999922
0
LINE
8
BLACK
6
CONTINUOUS
10
169.6439959999999871
20
-76.3578639999999922
11
169.4164079999999899
21
-76.2839159999999907
0
LINE
8
BLACK
6
CONTINUOUS
10
169.4164079999999899
20
-76.2839159999999907
11
169.2031900000000064
21
-76.1752759999999967
0
LINE
8
BLACK
6
CONTINUOUS
10
169.2031900000000064
20
-76.1752759999999967
11
169.0095919999999978
21
-76.0346189999999922
0
LINE
8
BLACK
6
CONTINUOUS
10
169.0095919999999978
20
-76.0346189999999922
11
168.8403809999999794
21
-75.8654080000000022
0
LINE
8
BLACK
6
CONTINUOUS
10
168.8403809999999794
20
-75.8654080000000022
11
168.6997240000000033
21
-75.6718099999999936
0
LINE
8
BLACK
6
CONTINUOUS
10
168.6997240000000033
20
-75.6718099999999936
11
168.5910839999999951
21
-75.4585919999999959
0
LINE
8
BLACK
6
CONTINUOUS
10
168.5910839999999951
20
-75.4585919999999959
11
168.5171359999999936
21
-75.2310039999999987
0
LINE
8
BLACK
6
CONTINUOUS
10
168.5171359999999936
20
-75.2310039999999987
11
168.4797010000000057
21
-74.9946499999999929
0
LINE
8
BLACK
6
CONTINUOUS
10
168.4797010000000057
20
-74.9946499999999929
11
168.4797010000000057
21
-74.7589150000000018
0
LINE
8
BLACK
6
CONTINUOUS
10
168.4797010000000057
20
-74.7589150000000018
11
168.4797010000000057
21
-74.7553499999999929
0
LINE
8
BLACK
6
CONTINUOUS
10
168.4797010000000057
20
-74.7553499999999929
11
168.5171359999999936
21
-74.5189960000000013
0
LINE
8
BLACK
6
CONTINUOUS
10
168.5171359999999936
20
-74.5189960000000013
11
168.5910839999999951
21
-74.2914079999999899
0
LINE
8
BLACK
6
CONTINUOUS
10
168.5910839999999951
20
-74.2914079999999899
11
168.6997240000000033
21
-74.0781899999999922
0
LINE
8
BLACK
6
CONTINUOUS
10
168.6997240000000033
20
-74.0781899999999922
11
168.8403809999999794
21
-73.8845919999999978
0
LINE
8
BLACK
6
CONTINUOUS
10
168.8403809999999794
20
-73.8845919999999978
11
169.0095919999999978
21
-73.7153809999999936
0
LINE
8
BLACK
6
CONTINUOUS
10
169.0095919999999978
20
-73.7153809999999936
11
169.2031900000000064
21
-73.5747240000000033
0
LINE
8
BLACK
6
CONTINUOUS
10
169.2031900000000064
20
-73.5747240000000033
11
169.4164079999999899
21
-73.4660839999999951
0
LINE
8
BLACK
6
CONTINUOUS
10
169.4164079999999899
20
-73.4660839999999951
11
169.6439959999999871
21
-73.3921359999999936
0
LINE
8
BLACK
6
CONTINUOUS
10
169.6439959999999871
20
-73.3921359999999936
11
169.8803499999999929
21
-73.3547009999999915
0
LINE
8
BLACK
6
CONTINUOUS
10
169.8803499999999929
20
-73.3547009999999915
11
170.1196499999999787
21
-73.3547009999999915
0
LINE
8
BLACK
6
CONTINUOUS
10
170.1196499999999787
20
-73.3547009999999915
11
170.3560039999999844
21
-73.3921359999999936
0
LINE
8
BLACK
6
CONTINUOUS
10
168.5250000000000057
20
-74.9910849999999982
11
168.5613189999999975
21
-75.2203969999999913
0
LINE
8
BLACK
6
CONTINUOUS
10
168.5613189999999975
20
-75.2203969999999913
11
168.6330639999999903
21
-75.4412030000000016
0
LINE
8
BLACK
6
CONTINUOUS
10
168.6330639999999903
20
-75.4412030000000016
11
168.7384669999999858
21
-75.648067999999995
0
LINE
8
BLACK
6
CONTINUOUS
10
168.7384669999999858
20
-75.648067999999995
11
168.8749329999999986
21
-75.8358980000000003
0
LINE
8
BLACK
6
CONTINUOUS
10
168.8749329999999986
20
-75.8358980000000003
11
169.0391019999999855
21
-76.0000670000000014
0
LINE
8
BLACK
6
CONTINUOUS
10
169.0391019999999855
20
-76.0000670000000014
11
169.226932000000005
21
-76.136533
0
LINE
8
BLACK
6
CONTINUOUS
10
169.226932000000005
20
-76.136533
11
169.4337969999999984
21
-76.2419359999999955
0
LINE
8
BLACK
6
CONTINUOUS
10
169.4337969999999984
20
-76.2419359999999955
11
169.6546029999999803
21
-76.3136810000000025
0
LINE
8
BLACK
6
CONTINUOUS
10
169.6546029999999803
20
-76.3136810000000025
11
169.8839150000000018
21
-76.3499999999999943
0
LINE
8
BLACK
6
CONTINUOUS
10
169.8839150000000018
20
-76.3499999999999943
11
170.1160849999999982
21
-76.3499999999999943
0
LINE
8
BLACK
6
CONTINUOUS
10
170.1160849999999982
20
-76.3499999999999943
11
170.3453969999999913
21
-76.3136810000000025
0
LINE
8
BLACK
6
CONTINUOUS
10
170.3453969999999913
20
-76.3136810000000025
11
170.5662030000000016
21
-76.2419359999999955
0
LINE
8
BLACK
6
CONTINUOUS
10
170.5662030000000016
20
-76.2419359999999955
11
170.773067999999995
21
-76.136533
0
LINE
8
BLACK
6
CONTINUOUS
10
170.773067999999995
20
-76.136533
11
170.960897999999986
21
-76.0000670000000014
0
LINE
8
BLACK
6
CONTINUOUS
10
170.960897999999986
20
-76.0000670000000014
11
171.1250670000000014
21
-75.8358980000000003
0
LINE
8
BLACK
6
CONTINUOUS
10
171.1250670000000014
20
-75.8358980000000003
11
171.2615329999999858
21
-75.648067999999995
0
LINE
8
BLACK
6
CONTINUOUS
10
171.2615329999999858
20
-75.648067999999995
11
171.3669359999999813
21
-75.4412030000000016
0
LINE
8
BLACK
6
CONTINUOUS
10
171.3669359999999813
20
-75.4412030000000016
11
171.4386810000000025
21
-75.2203969999999913
0
LINE
8
BLACK
6
CONTINUOUS
10
171.4386810000000025
20
-75.2203969999999913
11
171.4749999999999943
21
-74.9910849999999982
0
LINE
8
BLACK
6
CONTINUOUS
10
171.4749999999999943
20
-74.9910849999999982
11
171.4749999999999943
21
-74.7589150000000018
0
LINE
8
BLACK
6
CONTINUOUS
10
171.4749999999999943
20
-74.7589150000000018
11
171.4386810000000025
21
-74.5296029999999945
0
LINE
8
BLACK
6
CONTINUOUS
10
171.4386810000000025
20
-74.5296029999999945
11
171.3669359999999813
21
-74.3087969999999984
0
LINE
8
BLACK
6
CONTINUOUS
10
171.3669359999999813
20
-74.3087969999999984
11
171.2615329999999858
21
-74.1019319999999908
0
LINE
8
BLACK
6
CONTINUOUS
10
171.2615329999999858
20
-74.1019319999999908
11
171.1250670000000014
21
-73.9141019999999997
0
LINE
8
BLACK
6
CONTINUOUS
10
171.1250670000000014
20
-73.9141019999999997
11
170.960897999999986
21
-73.7499329999999986
0
LINE
8
BLACK
6
CONTINUOUS
10
170.960897999999986
20
-73.7499329999999986
11
170.773067999999995
21
-73.613467
0
LINE
8
BLACK
6
CONTINUOUS
10
170.773067999999995
20
-73.613467
11
170.5662030000000016
21
-73.5080639999999903
0
LINE
8
BLACK
6
CONTINUOUS
10
170.5662030000000016
20
-73.5080639999999903
11
170.3453969999999913
21
-73.4363189999999975
0
LINE
8
BLACK
6
CONTINUOUS
10
170.3453969999999913
20
-73.4363189999999975
11
170.1160849999999982
21
-73.3999999999999915
0
LINE
8
BLACK
6
CONTINUOUS
10
170.1160849999999982
20
-73.3999999999999915
11
169.8839150000000018
21
-73.3999999999999915
0
LINE
8
BLACK
6
CONTINUOUS
10
169.8839150000000018
20
-73.3999999999999915
11
169.6546029999999803
21
-73.4363189999999975
0
LINE
8
BLACK
6
CONTINUOUS
10
169.6546029999999803
20
-73.4363189999999975
11
169.4337969999999984
21
-73.5080639999999903
0
LINE
8
BLACK
6
CONTINUOUS
10
169.4337969999999984
20
-73.5080639999999903
11
169.226932000000005
21
-73.613467
0
LINE
8
BLACK
6
CONTINUOUS
10
169.226932000000005
20
-73.613467
11
169.0391019999999855
21
-73.7499329999999986
0
LINE
8
BLACK
6
CONTINUOUS
10
169.0391019999999855
20
-73.7499329999999986
11
168.8749329999999986
21
-73.9141019999999997
0
LINE
8
BLACK
6
CONTINUOUS
10
168.8749329999999986
20
-73.9141019999999997
11
168.7384669999999858
21
-74.1019319999999908
0
LINE
8
BLACK
6
CONTINUOUS
10
168.7384669999999858
20
-74.1019319999999908
11
168.6330639999999903
21
-74.3087969999999984
0
LINE
8
BLACK
6
CONTINUOUS
10
168.6330639999999903
20
-74.3087969999999984
11
168.5613189999999975
21
-74.5296029999999945
0
LINE
8
BLACK
6
CONTINUOUS
10
168.5613189999999975
20
-74.5296029999999945
11
168.5250000000000057
21
-74.7589150000000018
0
LINE
8
BLACK
6
CONTINUOUS
10
168.5250000000000057
20
-74.7589150000000018
11
168.5250000000000057
21
-74.9910849999999982
0
LINE
8
BLACK
6
CONTINUOUS
10
210.0768239999999878
20
-67.3536819999999921
11
210.2857569999999896
21
-67.421568999999991
0
LINE
8
BLACK
6
CONTINUOUS
10
210.2857569999999896
20
-67.421568999999991
11
210.4814979999999878
21
-67.5213040000000007
0
LINE
8
BLACK
6
CONTINUOUS
10
210.4814979999999878
20
-67.5213040000000007
11
210.6592269999999871
21
-67.650431999999995
0
LINE
8
BLACK
6
CONTINUOUS
10
210.6592269999999871
20
-67.650431999999995
11
210.81456799999998
21
-67.8057730000000021
0
LINE
8
BLACK
6
CONTINUOUS
10
210.81456799999998
20
-67.8057730000000021
11
210.9436959999999885
21
-67.9835020000000014
0
LINE
8
BLACK
6
CONTINUOUS
10
210.9436959999999885
20
-67.9835020000000014
11
211.0434309999999982
21
-68.1792429999999996
0
LINE
8
BLACK
6
CONTINUOUS
10
211.0434309999999982
20
-68.1792429999999996
11
211.1113179999999829
21
-68.3881760000000014
0
LINE
8
BLACK
6
CONTINUOUS
10
211.1113179999999829
20
-68.3881760000000014
11
211.1456839999999886
21
-68.6051569999999913
0
LINE
8
BLACK
6
CONTINUOUS
10
211.1456839999999886
20
-68.6051569999999913
11
211.1456839999999886
21
-68.8248430000000013
0
LINE
8
BLACK
6
CONTINUOUS
10
211.1456839999999886
20
-68.8248430000000013
11
211.1113179999999829
21
-69.0418239999999912
0
LINE
8
BLACK
6
CONTINUOUS
10
211.1113179999999829
20
-69.0418239999999912
11
211.0434309999999982
21
-69.250756999999993
0
LINE
8
BLACK
6
CONTINUOUS
10
211.0434309999999982
20
-69.250756999999993
11
210.9436959999999885
21
-69.4464979999999912
0
LINE
8
BLACK
6
CONTINUOUS
10
210.9436959999999885
20
-69.4464979999999912
11
210.81456799999998
21
-69.6242269999999905
0
LINE
8
BLACK
6
CONTINUOUS
10
210.81456799999998
20
-69.6242269999999905
11
210.6592269999999871
21
-69.7795679999999976
0
LINE
8
BLACK
6
CONTINUOUS
10
210.6592269999999871
20
-69.7795679999999976
11
210.4814979999999878
21
-69.908695999999992
0
LINE
8
BLACK
6
CONTINUOUS
10
210.4814979999999878
20
-69.908695999999992
11
210.2857569999999896
21
-70.0084310000000016
0
LINE
8
BLACK
6
CONTINUOUS
10
210.2857569999999896
20
-70.0084310000000016
11
210.0768239999999878
21
-70.0763180000000006
0
LINE
8
BLACK
6
CONTINUOUS
10
210.0768239999999878
20
-70.0763180000000006
11
209.8598429999999837
21
-70.110683999999992
0
LINE
8
BLACK
6
CONTINUOUS
10
209.8598429999999837
20
-70.110683999999992
11
209.6401569999999879
21
-70.110683999999992
0
LINE
8
BLACK
6
CONTINUOUS
10
209.6401569999999879
20
-70.110683999999992
11
209.4231759999999838
21
-70.0763180000000006
0
LINE
8
BLACK
6
CONTINUOUS
10
209.4231759999999838
20
-70.0763180000000006
11
209.214242999999982
21
-70.0084310000000016
0
LINE
8
BLACK
6
CONTINUOUS
10
209.214242999999982
20
-70.0084310000000016
11
209.0185019999999838
21
-69.908695999999992
0
LINE
8
BLACK
6
CONTINUOUS
10
209.0185019999999838
20
-69.908695999999992
11
208.8407729999999844
21
-69.7795679999999976
0
LINE
8
BLACK
6
CONTINUOUS
10
208.8407729999999844
20
-69.7795679999999976
11
208.6854319999999916
21
-69.6242269999999905
0
LINE
8
BLACK
6
CONTINUOUS
10
208.6854319999999916
20
-69.6242269999999905
11
208.556303999999983
21
-69.4464979999999912
0
LINE
8
BLACK
6
CONTINUOUS
10
208.556303999999983
20
-69.4464979999999912
11
208.4565690000000018
21
-69.250756999999993
0
LINE
8
BLACK
6
CONTINUOUS
10
208.4565690000000018
20
-69.250756999999993
11
208.3886819999999886
21
-69.0418239999999912
0
LINE
8
BLACK
6
CONTINUOUS
10
208.3886819999999886
20
-69.0418239999999912
11
208.354315999999983
21
-68.8248430000000013
0
LINE
8
BLACK
6
CONTINUOUS
10
208.354315999999983
20
-68.8248430000000013
11
208.354315999999983
21
-68.608752999999993
0
LINE
8
BLACK
6
CONTINUOUS
10
208.354315999999983
20
-68.608752999999993
11
208.354315999999983
21
-68.6051569999999913
0
LINE
8
BLACK
6
CONTINUOUS
10
208.354315999999983
20
-68.6051569999999913
11
208.3886819999999886
21
-68.3881760000000014
0
LINE
8
BLACK
6
CONTINUOUS
10
208.3886819999999886
20
-68.3881760000000014
11
208.4565690000000018
21
-68.1792429999999996
0
LINE
8
BLACK
6
CONTINUOUS
10
208.4565690000000018
20
-68.1792429999999996
11
208.556303999999983
21
-67.9835020000000014
0
LINE
8
BLACK
6
CONTINUOUS
10
208.556303999999983
20
-67.9835020000000014
11
208.6854319999999916
21
-67.8057730000000021
0
LINE
8
BLACK
6
CONTINUOUS
10
208.6854319999999916
20
-67.8057730000000021
11
208.8407729999999844
21
-67.650431999999995
0
LINE
8
BLACK
6
CONTINUOUS
10
208.8407729999999844
20
-67.650431999999995
11
209.0185019999999838
21
-67.5213040000000007
0
LINE
8
BLACK
6
CONTINUOUS
10
209.0185019999999838
20
-67.5213040000000007
11
209.214242999999982
21
-67.421568999999991
0
LINE
8
BLACK
6
CONTINUOUS
10
209.214242999999982
20
-67.421568999999991
11
209.4231759999999838
21
-67.3536819999999921
0
LINE
8
BLACK
6
CONTINUOUS
10
209.4231759999999838
20
-67.3536819999999921
11
209.6401569999999879
21
-67.3193160000000006
0
LINE
8
BLACK
6
CONTINUOUS
10
209.6401569999999879
20
-67.3193160000000006
11
209.8598429999999837
21
-67.3193160000000006
0
LINE
8
BLACK
6
CONTINUOUS
10
209.8598429999999837
20
-67.3193160000000006
11
210.0768239999999878
21
-67.3536819999999921
0
LINE
8
BLACK
6
CONTINUOUS
10
208.3999999999999773
20
-68.8212469999999996
11
208.4332419999999786
21
-69.0311260000000004
0
LINE
8
BLACK
6
CONTINUOUS
10
208.4332419999999786
20
-69.0311260000000004
11
208.4989059999999768
21
-69.2332200000000029
0
LINE
8
BLACK
6
CONTINUOUS
10
208.4989059999999768
20
-69.2332200000000029
11
208.5953769999999849
21
-69.422553999999991
0
LINE
8
BLACK
6
CONTINUOUS
10
208.5953769999999849
20
-69.422553999999991
11
208.7202779999999791
21
-69.5944659999999971
0
LINE
8
BLACK
6
CONTINUOUS
10
208.7202779999999791
20
-69.5944659999999971
11
208.8705339999999921
21
-69.7447219999999959
0
LINE
8
BLACK
6
CONTINUOUS
10
208.8705339999999921
20
-69.7447219999999959
11
209.042445999999984
21
-69.86962299999999
0
LINE
8
BLACK
6
CONTINUOUS
10
209.042445999999984
20
-69.86962299999999
11
209.2317799999999863
21
-69.9660939999999982
0
LINE
8
BLACK
6
CONTINUOUS
10
209.2317799999999863
20
-69.9660939999999982
11
209.433874000000003
21
-70.0317579999999964
0
LINE
8
BLACK
6
CONTINUOUS
10
209.433874000000003
20
-70.0317579999999964
11
209.6437530000000038
21
-70.0649999999999977
0
LINE
8
BLACK
6
CONTINUOUS
10
209.6437530000000038
20
-70.0649999999999977
11
209.8562469999999962
21
-70.0649999999999977
0
LINE
8
BLACK
6
CONTINUOUS
10
209.8562469999999962
20
-70.0649999999999977
11
210.066125999999997
21
-70.0317579999999964
0
LINE
8
BLACK
6
CONTINUOUS
10
210.066125999999997
20
-70.0317579999999964
11
210.2682199999999852
21
-69.9660939999999982
0
LINE
8
BLACK
6
CONTINUOUS
10
210.2682199999999852
20
-69.9660939999999982
11
210.4575539999999876
21
-69.86962299999999
0
LINE
8
BLACK
6
CONTINUOUS
10
210.4575539999999876
20
-69.86962299999999
11
210.6294659999999794
21
-69.7447219999999959
0
LINE
8
BLACK
6
CONTINUOUS
10
210.6294659999999794
20
-69.7447219999999959
11
210.7797219999999925
21
-69.5944659999999971
0
LINE
8
BLACK
6
CONTINUOUS
10
210.7797219999999925
20
-69.5944659999999971
11
210.9046229999999866
21
-69.422553999999991
0
LINE
8
BLACK
6
CONTINUOUS
10
210.9046229999999866
20
-69.422553999999991
11
211.0010939999999948
21
-69.2332200000000029
0
LINE
8
BLACK
6
CONTINUOUS
10
211.0010939999999948
20
-69.2332200000000029
11
211.066757999999993
21
-69.0311260000000004
0
LINE
8
BLACK
6
CONTINUOUS
10
211.066757999999993
20
-69.0311260000000004
11
211.0999999999999943
21
-68.8212469999999996
0
LINE
8
BLACK
6
CONTINUOUS
10
211.0999999999999943
20
-68.8212469999999996
11
211.0999999999999943
21
-68.608752999999993
0
LINE
8
BLACK
6
CONTINUOUS
10
211.0999999999999943
20
-68.608752999999993
11
211.066757999999993
21
-68.3988739999999922
0
LINE
8
BLACK
6
CONTINUOUS
10
211.066757999999993
20
-68.3988739999999922
11
211.0010939999999948
21
-68.196780000000004
0
LINE
8
BLACK
6
CONTINUOUS
10
211.0010939999999948
20
-68.196780000000004
11
210.9046229999999866
21
-68.0074460000000016
0
LINE
8
BLACK
6
CONTINUOUS
10
210.9046229999999866
20
-68.0074460000000016
11
210.7797219999999925
21
-67.8355339999999956
0
LINE
8
BLACK
6
CONTINUOUS
10
210.7797219999999925
20
-67.8355339999999956
11
210.6294659999999794
21
-67.6852779999999967
0
LINE
8
BLACK
6
CONTINUOUS
10
210.6294659999999794
20
-67.6852779999999967
11
210.4575539999999876
21
-67.5603770000000026
0
LINE
8
BLACK
6
CONTINUOUS
10
210.4575539999999876
20
-67.5603770000000026
11
210.2682199999999852
21
-67.4639059999999944
0
LINE
8
BLACK
6
CONTINUOUS
10
210.2682199999999852
20
-67.4639059999999944
11
210.066125999999997
21
-67.3982419999999962
0
LINE
8
BLACK
6
CONTINUOUS
10
210.066125999999997
20
-67.3982419999999962
11
209.8562469999999962
21
-67.3649999999999949
0
LINE
8
BLACK
6
CONTINUOUS
10
209.8562469999999962
20
-67.3649999999999949
11
209.6437530000000038
21
-67.3649999999999949
0
LINE
8
BLACK
6
CONTINUOUS
10
209.6437530000000038
20
-67.3649999999999949
11
209.433874000000003
21
-67.3982419999999962
0
LINE
8
BLACK
6
CONTINUOUS
10
209.433874000000003
20
-67.3982419999999962
11
209.2317799999999863
21
-67.4639059999999944
0
LINE
8
BLACK
6
CONTINUOUS
10
209.2317799999999863
20
-67.4639059999999944
11
209.042445999999984
21
-67.5603770000000026
0
LINE
8
BLACK
6
CONTINUOUS
10
209.042445999999984
20
-67.5603770000000026
11
208.8705339999999921
21
-67.6852779999999967
0
LINE
8
BLACK
6
CONTINUOUS
10
208.8705339999999921
20
-67.6852779999999967
11
208.7202779999999791
21
-67.8355339999999956
0
LINE
8
BLACK
6
CONTINUOUS
10
208.7202779999999791
20
-67.8355339999999956
11
208.5953769999999849
21
-68.0074460000000016
0
LINE
8
BLACK
6
CONTINUOUS
10
208.5953769999999849
20
-68.0074460000000016
11
208.4989059999999768
21
-68.196780000000004
0
LINE
8
BLACK
6
CONTINUOUS
10
208.4989059999999768
20
-68.196780000000004
11
208.4332419999999786
21
-68.3988739999999922
0
LINE
8
BLACK
6
CONTINUOUS
10
208.4332419999999786
20
-68.3988739999999922
11
208.3999999999999773
21
-68.608752999999993
0
LINE
8
BLACK
6
CONTINUOUS
10
208.3999999999999773
20
-68.608752999999993
11
208.3999999999999773
21
-68.8212469999999996
0
LINE
8
BLACK
6
CONTINUOUS
10
209.5009039999999914
20
-65.6034159999999957
11
209.8722099999999955
21
-65.6584929999999929
0
LINE
8
BLACK
6
CONTINUOUS
10
209.8722099999999955
20
-65.6584929999999929
11
210.2363299999999811
21
-65.7496989999999926
0
LINE
8
BLACK
6
CONTINUOUS
10
210.2363299999999811
20
-65.7496989999999926
11
210.5897559999999942
21
-65.8761559999999946
0
LINE
8
BLACK
6
CONTINUOUS
10
210.5897559999999942
20
-65.8761559999999946
11
210.9290849999999864
21
-66.0366459999999904
0
LINE
8
BLACK
6
CONTINUOUS
10
210.9290849999999864
20
-66.0366459999999904
11
211.2510499999999922
21
-66.2296230000000037
0
LINE
8
BLACK
6
CONTINUOUS
10
211.2510499999999922
20
-66.2296230000000037
11
211.5525489999999991
21
-66.4532299999999907
0
LINE
8
BLACK
6
CONTINUOUS
10
211.5525489999999991
20
-66.4532299999999907
11
211.830680000000001
21
-66.7053109999999947
0
LINE
8
BLACK
6
CONTINUOUS
10
211.830680000000001
20
-66.7053109999999947
11
212.0827620000000024
21
-66.9834409999999991
0
LINE
8
BLACK
6
CONTINUOUS
10
212.0827620000000024
20
-66.9834409999999991
11
212.3063689999999895
21
-67.2849389999999943
0
LINE
8
BLACK
6
CONTINUOUS
10
212.3063689999999895
20
-67.2849389999999943
11
212.4993479999999977
21
-67.6069030000000026
0
LINE
8
BLACK
6
CONTINUOUS
10
212.4993479999999977
20
-67.6069030000000026
11
212.6598389999999767
21
-67.9462319999999949
0
LINE
8
BLACK
6
CONTINUOUS
10
212.6598389999999767
20
-67.9462319999999949
11
212.7862969999999905
21
-68.2996579999999938
0
LINE
8
BLACK
6
CONTINUOUS
10
212.7862969999999905
20
-68.2996579999999938
11
212.8775039999999876
21
-68.6637769999999961
0
LINE
8
BLACK
6
CONTINUOUS
10
212.8775039999999876
20
-68.6637769999999961
11
212.9325819999999965
21
-69.0350830000000002
0
LINE
8
BLACK
6
CONTINUOUS
10
212.9325819999999965
20
-69.0350830000000002
11
212.9503559999999993
21
-69.3968879999999899
0
LINE
8
BLACK
6
CONTINUOUS
10
212.9503559999999993
20
-69.3968879999999899
11
212.9509879999999953
21
-69.4000609999999938
0
LINE
8
BLACK
6
CONTINUOUS
10
212.9509879999999953
20
-69.4000609999999938
11
212.9509879999999953
21
-69.4097340000000003
0
LINE
8
BLACK
6
CONTINUOUS
10
212.9509879999999953
20
-69.4097340000000003
11
212.9510009999999909
21
-69.4099989999999991
0
LINE
8
BLACK
6
CONTINUOUS
10
212.9510009999999909
20
-69.4099989999999991
11
212.9509879999999953
21
-69.4099989999999991
0
LINE
8
BLACK
6
CONTINUOUS
10
212.9509879999999953
20
-69.4099989999999991
11
212.9509879999999953
21
-97.512993999999992
0
LINE
8
BLACK
6
CONTINUOUS
10
212.9509879999999953
20
-97.512993999999992
11
212.9325699999999983
21
-97.8879099999999909
0
LINE
8
BLACK
6
CONTINUOUS
10
212.9325699999999983
20
-97.8879099999999909
11
212.877492999999987
21
-98.2592140000000001
0
LINE
8
BLACK
6
CONTINUOUS
10
212.877492999999987
20
-98.2592140000000001
11
212.7862859999999898
21
-98.6233330000000024
0
LINE
8
BLACK
6
CONTINUOUS
10
212.7862859999999898
20
-98.6233330000000024
11
212.659829000000002
21
-98.9767579999999896
0
LINE
8
BLACK
6
CONTINUOUS
10
212.659829000000002
20
-98.9767579999999896
11
212.4993379999999945
21
-99.316086999999996
0
LINE
8
BLACK
6
CONTINUOUS
10
212.4993379999999945
20
-99.316086999999996
11
212.3063609999999812
21
-99.6380499999999927
0
LINE
8
BLACK
6
CONTINUOUS
10
212.3063609999999812
20
-99.6380499999999927
11
212.0827549999999917
21
-99.939548000000002
0
LINE
8
BLACK
6
CONTINUOUS
10
212.0827549999999917
20
-99.939548000000002
11
211.8306729999999902
21
-100.2176769999999948
0
LINE
8
BLACK
6
CONTINUOUS
10
211.8306729999999902
20
-100.2176769999999948
11
211.5525429999999858
21
-100.4697579999999988
0
LINE
8
BLACK
6
CONTINUOUS
10
211.5525429999999858
20
-100.4697579999999988
11
211.2510449999999764
21
-100.6933640000000025
0
LINE
8
BLACK
6
CONTINUOUS
10
211.2510449999999764
20
-100.6933640000000025
11
210.9290809999999965
21
-100.8863410000000016
0
LINE
8
BLACK
6
CONTINUOUS
10
210.9290809999999965
20
-100.8863410000000016
11
210.5897530000000017
21
-101.0468309999999974
0
LINE
8
BLACK
6
CONTINUOUS
10
210.5897530000000017
20
-101.0468309999999974
11
210.2363269999999886
21
-101.1732879999999994
0
LINE
8
BLACK
6
CONTINUOUS
10
210.2363269999999886
20
-101.1732879999999994
11
209.872208999999998
21
-101.2644939999999991
0
LINE
8
BLACK
6
CONTINUOUS
10
209.872208999999998
20
-101.2644939999999991
11
209.5009029999999939
21
-101.3195709999999963
0
LINE
8
BLACK
6
CONTINUOUS
10
209.5009029999999939
20
-101.3195709999999963
11
209.1259879999999782
21
-101.3379879999999957
0
LINE
8
BLACK
6
CONTINUOUS
10
209.1259879999999782
20
-101.3379879999999957
11
209.1259879999999782
21
-101.3379939999999948
0
LINE
8
BLACK
6
CONTINUOUS
10
209.1259879999999782
20
-101.3379939999999948
11
209.1259659999999769
21
-101.3379869999999983
0
LINE
8
BLACK
6
CONTINUOUS
10
209.1259659999999769
20
-101.3379869999999983
11
145.1870119999999815
21
-101.3379910000000024
0
LINE
8
BLACK
6
CONTINUOUS
10
145.1870119999999815
20
-101.3379910000000024
11
145.1870059999999967
21
-101.3379939999999948
0
LINE
8
BLACK
6
CONTINUOUS
10
145.1870059999999967
20
-101.3379939999999948
11
144.8120899999999835
21
-101.3195759999999979
0
LINE
8
BLACK
6
CONTINUOUS
10
144.8120899999999835
20
-101.3195759999999979
11
144.4407850000000053
21
-101.2644990000000007
0
LINE
8
BLACK
6
CONTINUOUS
10
144.4407850000000053
20
-101.2644990000000007
11
144.0766659999999888
21
-101.1732919999999893
0
LINE
8
BLACK
6
CONTINUOUS
10
144.0766659999999888
20
-101.1732919999999893
11
143.7232410000000016
21
-101.0468350000000015
0
LINE
8
BLACK
6
CONTINUOUS
10
143.7232410000000016
20
-101.0468350000000015
11
143.3839119999999809
21
-100.8863449999999915
0
LINE
8
BLACK
6
CONTINUOUS
10
143.3839119999999809
20
-100.8863449999999915
11
143.061948000000001
21
-100.693366999999995
0
LINE
8
BLACK
6
CONTINUOUS
10
143.061948000000001
20
-100.693366999999995
11
142.7604499999999916
21
-100.4697609999999912
0
LINE
8
BLACK
6
CONTINUOUS
10
142.7604499999999916
20
-100.4697609999999912
11
142.4823209999999847
21
-100.2176789999999897
0
LINE
8
BLACK
6
CONTINUOUS
10
142.4823209999999847
20
-100.2176789999999897
11
142.2302389999999832
21
-99.939549999999997
0
LINE
8
BLACK
6
CONTINUOUS
10
142.2302389999999832
20
-99.939549999999997
11
142.0066329999999937
21
-99.6380520000000018
0
LINE
8
BLACK
6
CONTINUOUS
10
142.0066329999999937
20
-99.6380520000000018
11
141.8136549999999829
21
-99.3160879999999935
0
LINE
8
BLACK
6
CONTINUOUS
10
141.8136549999999829
20
-99.3160879999999935
11
141.6531650000000013
21
-98.9767590000000013
0
LINE
8
BLACK
6
CONTINUOUS
10
141.6531650000000013
20
-98.9767590000000013
11
141.5267079999999851
21
-98.6233339999999998
0
LINE
8
BLACK
6
CONTINUOUS
10
141.5267079999999851
20
-98.6233339999999998
11
141.4355009999999879
21
-98.2592149999999975
0
LINE
8
BLACK
6
CONTINUOUS
10
141.4355009999999879
20
-98.2592149999999975
11
141.380424000000005
21
-97.8879099999999909
0
LINE
8
BLACK
6
CONTINUOUS
10
141.380424000000005
20
-97.8879099999999909
11
141.3620059999999796
21
-97.512993999999992
0
LINE
8
BLACK
6
CONTINUOUS
10
141.3620059999999796
20
-97.512993999999992
11
141.3620059999999796
21
-69.4099989999999991
0
LINE
8
BLACK
6
CONTINUOUS
10
141.3620059999999796
20
-69.4099989999999991
11
141.3804250000000025
21
-69.0350839999999977
0
LINE
8
BLACK
6
CONTINUOUS
10
141.3804250000000025
20
-69.0350839999999977
11
141.4355029999999829
21
-68.663778999999991
0
LINE
8
BLACK
6
CONTINUOUS
10
141.4355029999999829
20
-68.663778999999991
11
141.52670999999998
21
-68.2996610000000004
0
LINE
8
BLACK
6
CONTINUOUS
10
141.52670999999998
20
-68.2996610000000004
11
141.6531669999999963
21
-67.946235999999999
0
LINE
8
BLACK
6
CONTINUOUS
10
141.6531669999999963
20
-67.946235999999999
11
141.8136580000000038
21
-67.60690799999999
0
LINE
8
BLACK
6
CONTINUOUS
10
141.8136580000000038
20
-67.60690799999999
11
142.0066349999999886
21
-67.2849449999999933
0
LINE
8
BLACK
6
CONTINUOUS
10
142.0066349999999886
20
-67.2849449999999933
11
142.2302420000000041
21
-66.9834469999999982
0
LINE
8
BLACK
6
CONTINUOUS
10
142.2302420000000041
20
-66.9834469999999982
11
142.4823229999999796
21
-66.7053179999999912
0
LINE
8
BLACK
6
CONTINUOUS
10
142.4823229999999796
20
-66.7053179999999912
11
142.7604519999999866
21
-66.4532370000000014
0
LINE
8
BLACK
6
CONTINUOUS
10
142.7604519999999866
20
-66.4532370000000014
11
143.0619509999999934
21
-66.2296309999999977
0
LINE
8
BLACK
6
CONTINUOUS
10
143.0619509999999934
20
-66.2296309999999977
11
143.3839140000000043
21
-66.0366539999999986
0
LINE
8
BLACK
6
CONTINUOUS
10
143.3839140000000043
20
-66.0366539999999986
11
143.7232429999999965
21
-65.8761650000000003
0
LINE
8
BLACK
6
CONTINUOUS
10
143.7232429999999965
20
-65.8761650000000003
11
144.0766679999999837
21
-65.7497070000000008
0
LINE
8
BLACK
6
CONTINUOUS
10
144.0766679999999837
20
-65.7497070000000008
11
144.4407860000000028
21
-65.6585010000000011
0
LINE
8
BLACK
6
CONTINUOUS
10
144.4407860000000028
20
-65.6585010000000011
11
144.812090999999981
21
-65.603424000000004
0
LINE
8
BLACK
6
CONTINUOUS
10
144.812090999999981
20
-65.603424000000004
11
145.1869590000000017
21
-65.585008000000002
0
LINE
8
BLACK
6
CONTINUOUS
10
145.1869590000000017
20
-65.585008000000002
11
145.1870059999999967
21
-65.5849989999999963
0
LINE
8
BLACK
6
CONTINUOUS
10
145.1870059999999967
20
-65.5849989999999963
11
209.1259839999999883
21
-65.5849989999999963
0
LINE
8
BLACK
6
CONTINUOUS
10
209.1259839999999883
20
-65.5849989999999963
11
209.1259879999999782
21
-65.5849989999999963
0
LINE
8
BLACK
6
CONTINUOUS
10
209.1259879999999782
20
-65.5849989999999963
11
209.5009039999999914
21
-65.6034159999999957
0
LINE
8
BLACK
6
CONTINUOUS
10
209.125992999999994
20
-65.634997999999996
11
209.1259879999999782
21
-65.6349999999999909
0
LINE
8
BLACK
6
CONTINUOUS
10
209.1259879999999782
20
-65.6349999999999909
11
145.1870059999999967
21
-65.6349989999999934
0
LINE
8
BLACK
6
CONTINUOUS
10
145.1870059999999967
20
-65.6349989999999934
11
145.1870059999999967
21
-65.63500599999999
0
LINE
8
BLACK
6
CONTINUOUS
10
145.1870059999999967
20
-65.63500599999999
11
145.0015520000000038
21
-65.6350049999999925
0
LINE
8
BLACK
6
CONTINUOUS
10
145.0015520000000038
20
-65.6350049999999925
11
144.6324309999999969
21
-65.6713599999999929
0
LINE
8
BLACK
6
CONTINUOUS
10
144.6324309999999969
20
-65.6713599999999929
11
144.2686499999999796
21
-65.7437199999999962
0
LINE
8
BLACK
6
CONTINUOUS
10
144.2686499999999796
20
-65.7437199999999962
11
143.9137139999999988
21
-65.851388
0
LINE
8
BLACK
6
CONTINUOUS
10
143.9137139999999988
20
-65.851388
11
143.5710399999999822
21
-65.9933279999999911
0
LINE
8
BLACK
6
CONTINUOUS
10
143.5710399999999822
20
-65.9933279999999911
11
143.2439279999999826
21
-66.1681719999999984
0
LINE
8
BLACK
6
CONTINUOUS
10
143.2439279999999826
20
-66.1681719999999984
11
142.93553
21
-66.3742369999999937
0
LINE
8
BLACK
6
CONTINUOUS
10
142.93553
20
-66.3742369999999937
11
142.6488139999999873
21
-66.6095380000000006
0
LINE
8
BLACK
6
CONTINUOUS
10
142.6488139999999873
20
-66.6095380000000006
11
142.386542999999989
21
-66.8718089999999989
0
LINE
8
BLACK
6
CONTINUOUS
10
142.386542999999989
20
-66.8718089999999989
11
142.1512409999999988
21
-67.1585239999999999
0
LINE
8
BLACK
6
CONTINUOUS
10
142.1512409999999988
20
-67.1585239999999999
11
141.9451760000000036
21
-67.4669219999999967
0
LINE
8
BLACK
6
CONTINUOUS
10
141.9451760000000036
20
-67.4669219999999967
11
141.7703309999999988
21
-67.7940329999999989
0
LINE
8
BLACK
6
CONTINUOUS
10
141.7703309999999988
20
-67.7940329999999989
11
141.6283909999999935
21
-68.1367070000000012
0
LINE
8
BLACK
6
CONTINUOUS
10
141.6283909999999935
20
-68.1367070000000012
11
141.5207220000000063
21
-68.4916429999999963
0
LINE
8
BLACK
6
CONTINUOUS
10
141.5207220000000063
20
-68.4916429999999963
11
141.4483610000000056
21
-68.8554239999999993
0
LINE
8
BLACK
6
CONTINUOUS
10
141.4483610000000056
20
-68.8554239999999993
11
141.412005999999991
21
-69.224544999999992
0
LINE
8
BLACK
6
CONTINUOUS
10
141.412005999999991
20
-69.224544999999992
11
141.412005999999991
21
-69.4099989999999991
0
LINE
8
BLACK
6
CONTINUOUS
10
141.412005999999991
20
-69.4099989999999991
11
141.412005999999991
21
-97.512993999999992
0
LINE
8
BLACK
6
CONTINUOUS
10
141.412005999999991
20
-97.512993999999992
11
141.4120049999999935
21
-97.6984479999999991
0
LINE
8
BLACK
6
CONTINUOUS
10
141.4120049999999935
20
-97.6984479999999991
11
141.4483599999999797
21
-98.0675699999999892
0
LINE
8
BLACK
6
CONTINUOUS
10
141.4483599999999797
20
-98.0675699999999892
11
141.520719999999983
21
-98.4313509999999923
0
LINE
8
BLACK
6
CONTINUOUS
10
141.520719999999983
20
-98.4313509999999923
11
141.6283889999999985
21
-98.786287999999999
0
LINE
8
BLACK
6
CONTINUOUS
10
141.6283889999999985
20
-98.786287999999999
11
141.7703290000000038
21
-99.1289620000000014
0
LINE
8
BLACK
6
CONTINUOUS
10
141.7703290000000038
20
-99.1289620000000014
11
141.9451729999999827
21
-99.456074000000001
0
LINE
8
BLACK
6
CONTINUOUS
10
141.9451729999999827
20
-99.456074000000001
11
142.1512390000000039
21
-99.7644729999999953
0
LINE
8
BLACK
6
CONTINUOUS
10
142.1512390000000039
20
-99.7644729999999953
11
142.3865399999999966
21
-100.0511879999999962
0
LINE
8
BLACK
6
CONTINUOUS
10
142.3865399999999966
20
-100.0511879999999962
11
142.6488119999999924
21
-100.3134599999999921
0
LINE
8
BLACK
6
CONTINUOUS
10
142.6488119999999924
20
-100.3134599999999921
11
142.9355270000000075
21
-100.5487609999999989
0
LINE
8
BLACK
6
CONTINUOUS
10
142.9355270000000075
20
-100.5487609999999989
11
143.2439259999999877
21
-100.7548269999999917
0
LINE
8
BLACK
6
CONTINUOUS
10
143.2439259999999877
20
-100.7548269999999917
11
143.5710379999999873
21
-100.929670999999999
0
LINE
8
BLACK
6
CONTINUOUS
10
143.5710379999999873
20
-100.929670999999999
11
143.9137120000000039
21
-101.0716109999999901
0
LINE
8
BLACK
6
CONTINUOUS
10
143.9137120000000039
20
-101.0716109999999901
11
144.2686489999999822
21
-101.1792799999999914
0
LINE
8
BLACK
6
CONTINUOUS
10
144.2686489999999822
20
-101.1792799999999914
11
144.6324299999999994
21
-101.2516399999999948
0
LINE
8
BLACK
6
CONTINUOUS
10
144.6324299999999994
20
-101.2516399999999948
11
145.0015520000000038
21
-101.2879949999999951
0
LINE
8
BLACK
6
CONTINUOUS
10
145.0015520000000038
20
-101.2879949999999951
11
145.1869889999999828
21
-101.2879939999999976
0
LINE
8
BLACK
6
CONTINUOUS
10
145.1869889999999828
20
-101.2879939999999976
11
145.1869999999999834
21
-101.2879919999999885
0
LINE
8
BLACK
6
CONTINUOUS
10
145.1869999999999834
20
-101.2879919999999885
11
209.1259879999999782
21
-101.2879870000000011
0
LINE
8
BLACK
6
CONTINUOUS
10
209.1259879999999782
20
-101.2879870000000011
11
209.125992999999994
21
-101.2879879999999986
0
LINE
8
BLACK
6
CONTINUOUS
10
209.125992999999994
20
-101.2879879999999986
11
209.3114419999999996
21
-101.2879889999999961
0
LINE
8
BLACK
6
CONTINUOUS
10
209.3114419999999996
20
-101.2879889999999961
11
209.6805640000000039
21
-101.2516349999999932
0
LINE
8
BLACK
6
CONTINUOUS
10
209.6805640000000039
20
-101.2516349999999932
11
210.0443449999999928
21
-101.1792749999999899
0
LINE
8
BLACK
6
CONTINUOUS
10
210.0443449999999928
20
-101.1792749999999899
11
210.399281000000002
21
-101.0716070000000002
0
LINE
8
BLACK
6
CONTINUOUS
10
210.399281000000002
20
-101.0716070000000002
11
210.7419559999999876
21
-100.9296679999999924
0
LINE
8
BLACK
6
CONTINUOUS
10
210.7419559999999876
20
-100.9296679999999924
11
211.0690669999999898
21
-100.7548230000000018
0
LINE
8
BLACK
6
CONTINUOUS
10
211.0690669999999898
20
-100.7548230000000018
11
211.3774659999999983
21
-100.5487589999999898
0
LINE
8
BLACK
6
CONTINUOUS
10
211.3774659999999983
20
-100.5487589999999898
11
211.6641819999999825
21
-100.3134579999999971
0
LINE
8
BLACK
6
CONTINUOUS
10
211.6641819999999825
20
-100.3134579999999971
11
211.9264539999999784
21
-100.0511860000000013
0
LINE
8
BLACK
6
CONTINUOUS
10
211.9264539999999784
20
-100.0511860000000013
11
212.1617549999999994
21
-99.7644710000000003
0
LINE
8
BLACK
6
CONTINUOUS
10
212.1617549999999994
20
-99.7644710000000003
11
212.3678199999999947
21
-99.4560729999999893
0
LINE
8
BLACK
6
CONTINUOUS
10
212.3678199999999947
20
-99.4560729999999893
11
212.5426649999999995
21
-99.1289609999999897
0
LINE
8
BLACK
6
CONTINUOUS
10
212.5426649999999995
20
-99.1289609999999897
11
212.6846049999999764
21
-98.7862870000000015
0
LINE
8
BLACK
6
CONTINUOUS
10
212.6846049999999764
20
-98.7862870000000015
11
212.7922739999999919
21
-98.4313499999999948
0
LINE
8
BLACK
6
CONTINUOUS
10
212.7922739999999919
20
-98.4313499999999948
11
212.8646339999999952
21
-98.0675699999999892
0
LINE
8
BLACK
6
CONTINUOUS
10
212.8646339999999952
20
-98.0675699999999892
11
212.9009889999999814
21
-97.6984479999999991
0
LINE
8
BLACK
6
CONTINUOUS
10
212.9009889999999814
20
-97.6984479999999991
11
212.9009879999999839
21
-97.512993999999992
0
LINE
8
BLACK
6
CONTINUOUS
10
212.9009879999999839
20
-97.512993999999992
11
212.9009879999999839
21
-69.4000609999999938
0
LINE
8
BLACK
6
CONTINUOUS
10
212.9009879999999839
20
-69.4000609999999938
11
212.9010009999999795
21
-69.3999949999999899
0
LINE
8
BLACK
6
CONTINUOUS
10
212.9010009999999795
20
-69.3999949999999899
11
212.9010009999999795
21
-69.224544999999992
0
LINE
8
BLACK
6
CONTINUOUS
10
212.9010009999999795
20
-69.224544999999992
11
212.8646459999999934
21
-68.8554219999999901
0
LINE
8
BLACK
6
CONTINUOUS
10
212.8646459999999934
20
-68.8554219999999901
11
212.7922849999999926
21
-68.4916410000000013
0
LINE
8
BLACK
6
CONTINUOUS
10
212.7922849999999926
20
-68.4916410000000013
11
212.6846149999999795
21
-68.1367029999999971
0
LINE
8
BLACK
6
CONTINUOUS
10
212.6846149999999795
20
-68.1367029999999971
11
212.5426750000000027
21
-67.7940289999999948
0
LINE
8
BLACK
6
CONTINUOUS
10
212.5426750000000027
20
-67.7940289999999948
11
212.3678290000000004
21
-67.4669169999999951
0
LINE
8
BLACK
6
CONTINUOUS
10
212.3678290000000004
20
-67.4669169999999951
11
212.1617629999999792
21
-67.1585180000000008
0
LINE
8
BLACK
6
CONTINUOUS
10
212.1617629999999792
20
-67.1585180000000008
11
211.9264609999999891
21
-66.8718020000000024
0
LINE
8
BLACK
6
CONTINUOUS
10
211.9264609999999891
20
-66.8718020000000024
11
211.6641879999999958
21
-66.609531000000004
0
LINE
8
BLACK
6
CONTINUOUS
10
211.6641879999999958
20
-66.609531000000004
11
211.3774719999999832
21
-66.3742289999999997
0
LINE
8
BLACK
6
CONTINUOUS
10
211.3774719999999832
20
-66.3742289999999997
11
211.0690719999999772
21
-66.1681639999999902
0
LINE
8
BLACK
6
CONTINUOUS
10
211.0690719999999772
20
-66.1681639999999902
11
210.7419599999999775
21
-65.9933199999999971
0
LINE
8
BLACK
6
CONTINUOUS
10
210.7419599999999775
20
-65.9933199999999971
11
210.3992839999999944
21
-65.8513799999999918
0
LINE
8
BLACK
6
CONTINUOUS
10
210.3992839999999944
20
-65.8513799999999918
11
210.0443469999999877
21
-65.7437120000000021
0
LINE
8
BLACK
6
CONTINUOUS
10
210.0443469999999877
20
-65.7437120000000021
11
209.6805650000000014
21
-65.6713519999999988
0
LINE
8
BLACK
6
CONTINUOUS
10
209.6805650000000014
20
-65.6713519999999988
11
209.3114419999999996
21
-65.634997999999996
0
LINE
8
BLACK
6
CONTINUOUS
10
209.3114419999999996
20
-65.634997999999996
11
209.125992999999994
21
-65.634997999999996
  0
ENDSEC
  0
EOF
