%TF.GenerationSoftware,KiCad,Pcbnew,9.0.0*%
%TF.CreationDate,2025-05-17T10:00:08-07:00*%
%TF.ProjectId,nnv2-toupee,6e6e7632-2d74-46f7-9570-65652e6b6963,rev?*%
%TF.SameCoordinates,Original*%
%TF.FileFunction,Profile,NP*%
%FSLAX46Y46*%
G04 Gerber Fmt 4.6, Leading zero omitted, Abs format (unit mm)*
G04 Created by KiCad (PCBNEW 9.0.0) date 2025-05-17 10:00:08*
%MOMM*%
%LPD*%
G01*
G04 APERTURE LIST*
%TA.AperFunction,Profile*%
%ADD10C,0.050000*%
%TD*%
G04 APERTURE END LIST*
D10*
X211125000Y-68715000D02*
G75*
G02*
X208375000Y-68715000I-1375000J0D01*
G01*
X208375000Y-68715000D02*
G75*
G02*
X211125000Y-68715000I1375000J0D01*
G01*
X211125000Y-98180000D02*
G75*
G02*
X208375000Y-98180000I-1375000J0D01*
G01*
X208375000Y-98180000D02*
G75*
G02*
X211125000Y-98180000I1375000J0D01*
G01*
X209125988Y-65610000D02*
X145187006Y-65609999D01*
X212925988Y-97512994D02*
G75*
G02*
X209125988Y-101312988I-3799988J-6D01*
G01*
X209125988Y-65609999D02*
G75*
G02*
X212926001Y-69409999I12J-3800001D01*
G01*
X212925988Y-97512994D02*
X212925988Y-69400061D01*
X141387006Y-69409999D02*
X141387006Y-97512994D01*
X145187006Y-101312994D02*
G75*
G02*
X141387006Y-97512994I-6J3799994D01*
G01*
X209125988Y-101312987D02*
X145187000Y-101312992D01*
X141387006Y-69409999D02*
G75*
G02*
X145187006Y-65610006I3799994J-1D01*
G01*
%TO.C,J3*%
X147000000Y-74875000D02*
G75*
G02*
X144000000Y-74875000I-1500000J0D01*
G01*
X144000000Y-74875000D02*
G75*
G02*
X147000000Y-74875000I1500000J0D01*
G01*
X147000000Y-98375000D02*
G75*
G02*
X144000000Y-98375000I-1500000J0D01*
G01*
X144000000Y-98375000D02*
G75*
G02*
X147000000Y-98375000I1500000J0D01*
G01*
X171500000Y-74875000D02*
G75*
G02*
X168500000Y-74875000I-1500000J0D01*
G01*
X168500000Y-74875000D02*
G75*
G02*
X171500000Y-74875000I1500000J0D01*
G01*
X171500000Y-98375000D02*
G75*
G02*
X168500000Y-98375000I-1500000J0D01*
G01*
X168500000Y-98375000D02*
G75*
G02*
X171500000Y-98375000I1500000J0D01*
G01*
%TD*%
M02*
