  0
SECTION
  2
HEADER
  9
$ANGBASE
  50
0.0
  9
$ANGDIR
  70
1
  9
$MEASUREMENT
  70
1
  0
ENDSEC
  0
SECTION
  2
TABLES
  0
TABLE
  2
LTYPE
  70
4
  0
LTYPE
  5
40F
  2
CONTINUOUS
  70
0
  3
Solid line
  72
65
  73
0
  40
0.0
  0
LTYPE
  5
410
  2
DASHDOT
 70
0
  3
Dash Dot ____ _ ____ _
 72
65
 73
4
 40
2.0
 49
1.25
 49
-0.25
 49
0.25
 49
-0.25
  0
LTYPE
  5
411
  2
DASHED
 70
0
  3
Dashed __ __ __ __ __
 72
65
 73
2
 40
0.75
 49
0.5
 49
-0.25
  0
LTYPE
  5
43B
  2
DOTTED
 70
0
  3
Dotted .  .  .  .
 72
65
 73
2
 40
0.2
 49
0.0
 49
-0.2
  0
ENDTAB
  0
TABLE
  2
STYLE
  70
4
  0
STYLE
  2
KICAD
  70
0
  40
0
  41
1
  42
1
  50
0
  71
0
  3
isocp.shx
  0
STYLE
  2
KICADB
  70
0
  40
0
  41
1
  42
1
  50
0
  71
0
  3
isocp.shx
  0
STYLE
  2
KICADI
  70
0
  40
0
  41
1
  42
1
  50
15
  71
0
  3
isocp.shx
  0
STYLE
  2
KICADBI
  70
0
  40
0
  41
1
  42
1
  50
15
  71
0
  3
isocp.shx
  0
ENDTAB
  0
TABLE
  2
LAYER
  70
1
  0
LAYER
  2
BLACK
  70
0
  62
7
  6
CONTINUOUS
  0
ENDTAB
  0
ENDSEC
  0
SECTION
  2
ENTITIES
0
LINE
8
BLACK
6
CONTINUOUS
10
178.3602949999999794
20
-93.0930609999999916
11
178.5414069999999924
21
-93.1680799999999891
0
LINE
8
BLACK
6
CONTINUOUS
10
178.5414069999999924
20
-93.1680799999999891
11
178.704402999999985
21
-93.2769909999999953
0
LINE
8
BLACK
6
CONTINUOUS
10
178.704402999999985
20
-93.2769909999999953
11
178.8430199999999957
21
-93.4156079999999918
0
LINE
8
BLACK
6
CONTINUOUS
10
178.8430199999999957
20
-93.4156079999999918
11
178.9519310000000019
21
-93.5786039999999986
0
LINE
8
BLACK
6
CONTINUOUS
10
178.9519310000000019
20
-93.5786039999999986
11
179.0269499999999994
21
-93.7597159999999974
0
LINE
8
BLACK
6
CONTINUOUS
10
179.0269499999999994
20
-93.7597159999999974
11
179.0651949999999886
21
-93.9519839999999959
0
LINE
8
BLACK
6
CONTINUOUS
10
179.0651949999999886
20
-93.9519839999999959
11
179.0651949999999886
21
-94.1480179999999933
0
LINE
8
BLACK
6
CONTINUOUS
10
179.0651949999999886
20
-94.1480179999999933
11
179.0269499999999994
21
-94.3402859999999919
0
LINE
8
BLACK
6
CONTINUOUS
10
179.0269499999999994
20
-94.3402859999999919
11
178.9519310000000019
21
-94.5213979999999907
0
LINE
8
BLACK
6
CONTINUOUS
10
178.9519310000000019
20
-94.5213979999999907
11
178.8430199999999957
21
-94.6843939999999975
0
LINE
8
BLACK
6
CONTINUOUS
10
178.8430199999999957
20
-94.6843939999999975
11
178.704402999999985
21
-94.8230109999999939
0
LINE
8
BLACK
6
CONTINUOUS
10
178.704402999999985
20
-94.8230109999999939
11
178.5414069999999924
21
-94.9319220000000001
0
LINE
8
BLACK
6
CONTINUOUS
10
178.5414069999999924
20
-94.9319220000000001
11
178.3602949999999794
21
-95.0069409999999976
0
LINE
8
BLACK
6
CONTINUOUS
10
178.3602949999999794
20
-95.0069409999999976
11
178.168026999999995
21
-95.0451860000000011
0
LINE
8
BLACK
6
CONTINUOUS
10
178.168026999999995
20
-95.0451860000000011
11
177.9719929999999977
21
-95.0451860000000011
0
LINE
8
BLACK
6
CONTINUOUS
10
177.9719929999999977
20
-95.0451860000000011
11
177.7797249999999849
21
-95.0069409999999976
0
LINE
8
BLACK
6
CONTINUOUS
10
177.7797249999999849
20
-95.0069409999999976
11
177.5986130000000003
21
-94.9319220000000001
0
LINE
8
BLACK
6
CONTINUOUS
10
177.5986130000000003
20
-94.9319220000000001
11
177.4356169999999793
21
-94.8230109999999939
0
LINE
8
BLACK
6
CONTINUOUS
10
177.4356169999999793
20
-94.8230109999999939
11
177.296999999999997
21
-94.6843939999999975
0
LINE
8
BLACK
6
CONTINUOUS
10
177.296999999999997
20
-94.6843939999999975
11
177.1880889999999908
21
-94.5213979999999907
0
LINE
8
BLACK
6
CONTINUOUS
10
177.1880889999999908
20
-94.5213979999999907
11
177.1130699999999933
21
-94.3402859999999919
0
LINE
8
BLACK
6
CONTINUOUS
10
177.1130699999999933
20
-94.3402859999999919
11
177.0748250000000041
21
-94.1480179999999933
0
LINE
8
BLACK
6
CONTINUOUS
10
177.0748250000000041
20
-94.1480179999999933
11
177.0748250000000041
21
-93.9519839999999959
0
LINE
8
BLACK
6
CONTINUOUS
10
177.0748250000000041
20
-93.9519839999999959
11
177.1130699999999933
21
-93.7597159999999974
0
LINE
8
BLACK
6
CONTINUOUS
10
177.1130699999999933
20
-93.7597159999999974
11
177.1880889999999908
21
-93.5786039999999986
0
LINE
8
BLACK
6
CONTINUOUS
10
177.1880889999999908
20
-93.5786039999999986
11
177.296999999999997
21
-93.4156079999999918
0
LINE
8
BLACK
6
CONTINUOUS
10
177.296999999999997
20
-93.4156079999999918
11
177.4356169999999793
21
-93.2769909999999953
0
LINE
8
BLACK
6
CONTINUOUS
10
177.4356169999999793
20
-93.2769909999999953
11
177.5986130000000003
21
-93.1680799999999891
0
LINE
8
BLACK
6
CONTINUOUS
10
177.5986130000000003
20
-93.1680799999999891
11
177.7797249999999849
21
-93.0930609999999916
0
LINE
8
BLACK
6
CONTINUOUS
10
177.7797249999999849
20
-93.0930609999999916
11
177.9719929999999977
21
-93.0548160000000024
0
LINE
8
BLACK
6
CONTINUOUS
10
177.9719929999999977
20
-93.0548160000000024
11
178.168026999999995
21
-93.0548160000000024
0
LINE
8
BLACK
6
CONTINUOUS
10
178.168026999999995
20
-93.0548160000000024
11
178.3602949999999794
21
-93.0930609999999916
0
LINE
8
BLACK
6
CONTINUOUS
10
180.9002949999999998
20
-93.0930609999999916
11
181.0814069999999845
21
-93.1680799999999891
0
LINE
8
BLACK
6
CONTINUOUS
10
181.0814069999999845
20
-93.1680799999999891
11
181.2444030000000055
21
-93.2769909999999953
0
LINE
8
BLACK
6
CONTINUOUS
10
181.2444030000000055
20
-93.2769909999999953
11
181.3830199999999877
21
-93.4156079999999918
0
LINE
8
BLACK
6
CONTINUOUS
10
181.3830199999999877
20
-93.4156079999999918
11
181.4919309999999939
21
-93.5786039999999986
0
LINE
8
BLACK
6
CONTINUOUS
10
181.4919309999999939
20
-93.5786039999999986
11
181.5669499999999914
21
-93.7597159999999974
0
LINE
8
BLACK
6
CONTINUOUS
10
181.5669499999999914
20
-93.7597159999999974
11
181.6051949999999806
21
-93.9519839999999959
0
LINE
8
BLACK
6
CONTINUOUS
10
181.6051949999999806
20
-93.9519839999999959
11
181.6051949999999806
21
-94.1480179999999933
0
LINE
8
BLACK
6
CONTINUOUS
10
181.6051949999999806
20
-94.1480179999999933
11
181.5669499999999914
21
-94.3402859999999919
0
LINE
8
BLACK
6
CONTINUOUS
10
181.5669499999999914
20
-94.3402859999999919
11
181.4919309999999939
21
-94.5213979999999907
0
LINE
8
BLACK
6
CONTINUOUS
10
181.4919309999999939
20
-94.5213979999999907
11
181.3830199999999877
21
-94.6843939999999975
0
LINE
8
BLACK
6
CONTINUOUS
10
181.3830199999999877
20
-94.6843939999999975
11
181.2444030000000055
21
-94.8230109999999939
0
LINE
8
BLACK
6
CONTINUOUS
10
181.2444030000000055
20
-94.8230109999999939
11
181.0814069999999845
21
-94.9319220000000001
0
LINE
8
BLACK
6
CONTINUOUS
10
181.0814069999999845
20
-94.9319220000000001
11
180.9002949999999998
21
-95.0069409999999976
0
LINE
8
BLACK
6
CONTINUOUS
10
180.9002949999999998
20
-95.0069409999999976
11
180.7080269999999871
21
-95.0451860000000011
0
LINE
8
BLACK
6
CONTINUOUS
10
180.7080269999999871
20
-95.0451860000000011
11
180.5119929999999897
21
-95.0451860000000011
0
LINE
8
BLACK
6
CONTINUOUS
10
180.5119929999999897
20
-95.0451860000000011
11
180.3197250000000054
21
-95.0069409999999976
0
LINE
8
BLACK
6
CONTINUOUS
10
180.3197250000000054
20
-95.0069409999999976
11
180.1386129999999923
21
-94.9319220000000001
0
LINE
8
BLACK
6
CONTINUOUS
10
180.1386129999999923
20
-94.9319220000000001
11
179.9756169999999997
21
-94.8230109999999939
0
LINE
8
BLACK
6
CONTINUOUS
10
179.9756169999999997
20
-94.8230109999999939
11
179.8369999999999891
21
-94.6843939999999975
0
LINE
8
BLACK
6
CONTINUOUS
10
179.8369999999999891
20
-94.6843939999999975
11
179.7280889999999829
21
-94.5213979999999907
0
LINE
8
BLACK
6
CONTINUOUS
10
179.7280889999999829
20
-94.5213979999999907
11
179.6530699999999854
21
-94.3402859999999919
0
LINE
8
BLACK
6
CONTINUOUS
10
179.6530699999999854
20
-94.3402859999999919
11
179.6148249999999962
21
-94.1480179999999933
0
LINE
8
BLACK
6
CONTINUOUS
10
179.6148249999999962
20
-94.1480179999999933
11
179.6148249999999962
21
-93.9519839999999959
0
LINE
8
BLACK
6
CONTINUOUS
10
179.6148249999999962
20
-93.9519839999999959
11
179.6530699999999854
21
-93.7597159999999974
0
LINE
8
BLACK
6
CONTINUOUS
10
179.6530699999999854
20
-93.7597159999999974
11
179.7280889999999829
21
-93.5786039999999986
0
LINE
8
BLACK
6
CONTINUOUS
10
179.7280889999999829
20
-93.5786039999999986
11
179.8369999999999891
21
-93.4156079999999918
0
LINE
8
BLACK
6
CONTINUOUS
10
179.8369999999999891
20
-93.4156079999999918
11
179.9756169999999997
21
-93.2769909999999953
0
LINE
8
BLACK
6
CONTINUOUS
10
179.9756169999999997
20
-93.2769909999999953
11
180.1386129999999923
21
-93.1680799999999891
0
LINE
8
BLACK
6
CONTINUOUS
10
180.1386129999999923
20
-93.1680799999999891
11
180.3197250000000054
21
-93.0930609999999916
0
LINE
8
BLACK
6
CONTINUOUS
10
180.3197250000000054
20
-93.0930609999999916
11
180.5119929999999897
21
-93.0548160000000024
0
LINE
8
BLACK
6
CONTINUOUS
10
180.5119929999999897
20
-93.0548160000000024
11
180.7080269999999871
21
-93.0548160000000024
0
LINE
8
BLACK
6
CONTINUOUS
10
180.7080269999999871
20
-93.0548160000000024
11
180.9002949999999998
21
-93.0930609999999916
0
LINE
8
BLACK
6
CONTINUOUS
10
183.4402949999999919
20
-93.0930609999999916
11
183.6214070000000049
21
-93.1680799999999891
0
LINE
8
BLACK
6
CONTINUOUS
10
183.6214070000000049
20
-93.1680799999999891
11
183.7844029999999975
21
-93.2769909999999953
0
LINE
8
BLACK
6
CONTINUOUS
10
183.7844029999999975
20
-93.2769909999999953
11
183.9230199999999797
21
-93.4156079999999918
0
LINE
8
BLACK
6
CONTINUOUS
10
183.9230199999999797
20
-93.4156079999999918
11
184.0319309999999859
21
-93.5786039999999986
0
LINE
8
BLACK
6
CONTINUOUS
10
184.0319309999999859
20
-93.5786039999999986
11
184.1069499999999834
21
-93.7597159999999974
0
LINE
8
BLACK
6
CONTINUOUS
10
184.1069499999999834
20
-93.7597159999999974
11
184.1451950000000011
21
-93.9519839999999959
0
LINE
8
BLACK
6
CONTINUOUS
10
184.1451950000000011
20
-93.9519839999999959
11
184.1451950000000011
21
-94.1480179999999933
0
LINE
8
BLACK
6
CONTINUOUS
10
184.1451950000000011
20
-94.1480179999999933
11
184.1069499999999834
21
-94.3402859999999919
0
LINE
8
BLACK
6
CONTINUOUS
10
184.1069499999999834
20
-94.3402859999999919
11
184.0319309999999859
21
-94.5213979999999907
0
LINE
8
BLACK
6
CONTINUOUS
10
184.0319309999999859
20
-94.5213979999999907
11
183.9230199999999797
21
-94.6843939999999975
0
LINE
8
BLACK
6
CONTINUOUS
10
183.9230199999999797
20
-94.6843939999999975
11
183.7844029999999975
21
-94.8230109999999939
0
LINE
8
BLACK
6
CONTINUOUS
10
183.7844029999999975
20
-94.8230109999999939
11
183.6214070000000049
21
-94.9319220000000001
0
LINE
8
BLACK
6
CONTINUOUS
10
183.6214070000000049
20
-94.9319220000000001
11
183.4402949999999919
21
-95.0069409999999976
0
LINE
8
BLACK
6
CONTINUOUS
10
183.4402949999999919
20
-95.0069409999999976
11
183.2480269999999791
21
-95.0451860000000011
0
LINE
8
BLACK
6
CONTINUOUS
10
183.2480269999999791
20
-95.0451860000000011
11
183.0519929999999817
21
-95.0451860000000011
0
LINE
8
BLACK
6
CONTINUOUS
10
183.0519929999999817
20
-95.0451860000000011
11
182.8597249999999974
21
-95.0069409999999976
0
LINE
8
BLACK
6
CONTINUOUS
10
182.8597249999999974
20
-95.0069409999999976
11
182.6786129999999844
21
-94.9319220000000001
0
LINE
8
BLACK
6
CONTINUOUS
10
182.6786129999999844
20
-94.9319220000000001
11
182.5156169999999918
21
-94.8230109999999939
0
LINE
8
BLACK
6
CONTINUOUS
10
182.5156169999999918
20
-94.8230109999999939
11
182.3769999999999811
21
-94.6843939999999975
0
LINE
8
BLACK
6
CONTINUOUS
10
182.3769999999999811
20
-94.6843939999999975
11
182.2680890000000034
21
-94.5213979999999907
0
LINE
8
BLACK
6
CONTINUOUS
10
182.2680890000000034
20
-94.5213979999999907
11
182.1930700000000058
21
-94.3402859999999919
0
LINE
8
BLACK
6
CONTINUOUS
10
182.1930700000000058
20
-94.3402859999999919
11
182.1548249999999882
21
-94.1480179999999933
0
LINE
8
BLACK
6
CONTINUOUS
10
182.1548249999999882
20
-94.1480179999999933
11
182.1548249999999882
21
-93.9519839999999959
0
LINE
8
BLACK
6
CONTINUOUS
10
182.1548249999999882
20
-93.9519839999999959
11
182.1930700000000058
21
-93.7597159999999974
0
LINE
8
BLACK
6
CONTINUOUS
10
182.1930700000000058
20
-93.7597159999999974
11
182.2680890000000034
21
-93.5786039999999986
0
LINE
8
BLACK
6
CONTINUOUS
10
182.2680890000000034
20
-93.5786039999999986
11
182.3769999999999811
21
-93.4156079999999918
0
LINE
8
BLACK
6
CONTINUOUS
10
182.3769999999999811
20
-93.4156079999999918
11
182.5156169999999918
21
-93.2769909999999953
0
LINE
8
BLACK
6
CONTINUOUS
10
182.5156169999999918
20
-93.2769909999999953
11
182.6786129999999844
21
-93.1680799999999891
0
LINE
8
BLACK
6
CONTINUOUS
10
182.6786129999999844
20
-93.1680799999999891
11
182.8597249999999974
21
-93.0930609999999916
0
LINE
8
BLACK
6
CONTINUOUS
10
182.8597249999999974
20
-93.0930609999999916
11
183.0519929999999817
21
-93.0548160000000024
0
LINE
8
BLACK
6
CONTINUOUS
10
183.0519929999999817
20
-93.0548160000000024
11
183.2480269999999791
21
-93.0548160000000024
0
LINE
8
BLACK
6
CONTINUOUS
10
183.2480269999999791
20
-93.0548160000000024
11
183.4402949999999919
21
-93.0930609999999916
0
LINE
8
BLACK
6
CONTINUOUS
10
185.9802949999999839
20
-93.0930609999999916
11
186.161406999999997
21
-93.1680799999999891
0
LINE
8
BLACK
6
CONTINUOUS
10
186.161406999999997
20
-93.1680799999999891
11
186.3244029999999896
21
-93.2769909999999953
0
LINE
8
BLACK
6
CONTINUOUS
10
186.3244029999999896
20
-93.2769909999999953
11
186.4630200000000002
21
-93.4156079999999918
0
LINE
8
BLACK
6
CONTINUOUS
10
186.4630200000000002
20
-93.4156079999999918
11
186.571930999999978
21
-93.5786039999999986
0
LINE
8
BLACK
6
CONTINUOUS
10
186.571930999999978
20
-93.5786039999999986
11
186.6469500000000039
21
-93.7597159999999974
0
LINE
8
BLACK
6
CONTINUOUS
10
186.6469500000000039
20
-93.7597159999999974
11
186.6851949999999931
21
-93.9519839999999959
0
LINE
8
BLACK
6
CONTINUOUS
10
186.6851949999999931
20
-93.9519839999999959
11
186.6851949999999931
21
-94.1480179999999933
0
LINE
8
BLACK
6
CONTINUOUS
10
186.6851949999999931
20
-94.1480179999999933
11
186.6469500000000039
21
-94.3402859999999919
0
LINE
8
BLACK
6
CONTINUOUS
10
186.6469500000000039
20
-94.3402859999999919
11
186.571930999999978
21
-94.5213979999999907
0
LINE
8
BLACK
6
CONTINUOUS
10
186.571930999999978
20
-94.5213979999999907
11
186.4630200000000002
21
-94.6843939999999975
0
LINE
8
BLACK
6
CONTINUOUS
10
186.4630200000000002
20
-94.6843939999999975
11
186.3244029999999896
21
-94.8230109999999939
0
LINE
8
BLACK
6
CONTINUOUS
10
186.3244029999999896
20
-94.8230109999999939
11
186.161406999999997
21
-94.9319220000000001
0
LINE
8
BLACK
6
CONTINUOUS
10
186.161406999999997
20
-94.9319220000000001
11
185.9802949999999839
21
-95.0069409999999976
0
LINE
8
BLACK
6
CONTINUOUS
10
185.9802949999999839
20
-95.0069409999999976
11
185.7880269999999996
21
-95.0451860000000011
0
LINE
8
BLACK
6
CONTINUOUS
10
185.7880269999999996
20
-95.0451860000000011
11
185.5919930000000022
21
-95.0451860000000011
0
LINE
8
BLACK
6
CONTINUOUS
10
185.5919930000000022
20
-95.0451860000000011
11
185.3997249999999894
21
-95.0069409999999976
0
LINE
8
BLACK
6
CONTINUOUS
10
185.3997249999999894
20
-95.0069409999999976
11
185.2186130000000048
21
-94.9319220000000001
0
LINE
8
BLACK
6
CONTINUOUS
10
185.2186130000000048
20
-94.9319220000000001
11
185.0556169999999838
21
-94.8230109999999939
0
LINE
8
BLACK
6
CONTINUOUS
10
185.0556169999999838
20
-94.8230109999999939
11
184.9170000000000016
21
-94.6843939999999975
0
LINE
8
BLACK
6
CONTINUOUS
10
184.9170000000000016
20
-94.6843939999999975
11
184.8080889999999954
21
-94.5213979999999907
0
LINE
8
BLACK
6
CONTINUOUS
10
184.8080889999999954
20
-94.5213979999999907
11
184.7330699999999979
21
-94.3402859999999919
0
LINE
8
BLACK
6
CONTINUOUS
10
184.7330699999999979
20
-94.3402859999999919
11
184.6948249999999803
21
-94.1480179999999933
0
LINE
8
BLACK
6
CONTINUOUS
10
184.6948249999999803
20
-94.1480179999999933
11
184.6948249999999803
21
-93.9519839999999959
0
LINE
8
BLACK
6
CONTINUOUS
10
184.6948249999999803
20
-93.9519839999999959
11
184.7330699999999979
21
-93.7597159999999974
0
LINE
8
BLACK
6
CONTINUOUS
10
184.7330699999999979
20
-93.7597159999999974
11
184.8080889999999954
21
-93.5786039999999986
0
LINE
8
BLACK
6
CONTINUOUS
10
184.8080889999999954
20
-93.5786039999999986
11
184.9170000000000016
21
-93.4156079999999918
0
LINE
8
BLACK
6
CONTINUOUS
10
184.9170000000000016
20
-93.4156079999999918
11
185.0556169999999838
21
-93.2769909999999953
0
LINE
8
BLACK
6
CONTINUOUS
10
185.0556169999999838
20
-93.2769909999999953
11
185.2186130000000048
21
-93.1680799999999891
0
LINE
8
BLACK
6
CONTINUOUS
10
185.2186130000000048
20
-93.1680799999999891
11
185.3997249999999894
21
-93.0930609999999916
0
LINE
8
BLACK
6
CONTINUOUS
10
185.3997249999999894
20
-93.0930609999999916
11
185.5919930000000022
21
-93.0548160000000024
0
LINE
8
BLACK
6
CONTINUOUS
10
185.5919930000000022
20
-93.0548160000000024
11
185.7880269999999996
21
-93.0548160000000024
0
LINE
8
BLACK
6
CONTINUOUS
10
185.7880269999999996
20
-93.0548160000000024
11
185.9802949999999839
21
-93.0930609999999916
0
LINE
8
BLACK
6
CONTINUOUS
10
188.5202950000000044
20
-93.0930609999999916
11
188.701406999999989
21
-93.1680799999999891
0
LINE
8
BLACK
6
CONTINUOUS
10
188.701406999999989
20
-93.1680799999999891
11
188.8644029999999816
21
-93.2769909999999953
0
LINE
8
BLACK
6
CONTINUOUS
10
188.8644029999999816
20
-93.2769909999999953
11
189.0030199999999923
21
-93.4156079999999918
0
LINE
8
BLACK
6
CONTINUOUS
10
189.0030199999999923
20
-93.4156079999999918
11
189.1119309999999984
21
-93.5786039999999986
0
LINE
8
BLACK
6
CONTINUOUS
10
189.1119309999999984
20
-93.5786039999999986
11
189.186949999999996
21
-93.7597159999999974
0
LINE
8
BLACK
6
CONTINUOUS
10
189.186949999999996
20
-93.7597159999999974
11
189.2251949999999852
21
-93.9519839999999959
0
LINE
8
BLACK
6
CONTINUOUS
10
189.2251949999999852
20
-93.9519839999999959
11
189.2251949999999852
21
-94.1480179999999933
0
LINE
8
BLACK
6
CONTINUOUS
10
189.2251949999999852
20
-94.1480179999999933
11
189.186949999999996
21
-94.3402859999999919
0
LINE
8
BLACK
6
CONTINUOUS
10
189.186949999999996
20
-94.3402859999999919
11
189.1119309999999984
21
-94.5213979999999907
0
LINE
8
BLACK
6
CONTINUOUS
10
189.1119309999999984
20
-94.5213979999999907
11
189.0030199999999923
21
-94.6843939999999975
0
LINE
8
BLACK
6
CONTINUOUS
10
189.0030199999999923
20
-94.6843939999999975
11
188.8644029999999816
21
-94.8230109999999939
0
LINE
8
BLACK
6
CONTINUOUS
10
188.8644029999999816
20
-94.8230109999999939
11
188.701406999999989
21
-94.9319220000000001
0
LINE
8
BLACK
6
CONTINUOUS
10
188.701406999999989
20
-94.9319220000000001
11
188.5202950000000044
21
-95.0069409999999976
0
LINE
8
BLACK
6
CONTINUOUS
10
188.5202950000000044
20
-95.0069409999999976
11
188.3280269999999916
21
-95.0451860000000011
0
LINE
8
BLACK
6
CONTINUOUS
10
188.3280269999999916
20
-95.0451860000000011
11
188.1319929999999943
21
-95.0451860000000011
0
LINE
8
BLACK
6
CONTINUOUS
10
188.1319929999999943
20
-95.0451860000000011
11
187.9397249999999815
21
-95.0069409999999976
0
LINE
8
BLACK
6
CONTINUOUS
10
187.9397249999999815
20
-95.0069409999999976
11
187.7586129999999969
21
-94.9319220000000001
0
LINE
8
BLACK
6
CONTINUOUS
10
187.7586129999999969
20
-94.9319220000000001
11
187.5956170000000043
21
-94.8230109999999939
0
LINE
8
BLACK
6
CONTINUOUS
10
187.5956170000000043
20
-94.8230109999999939
11
187.4569999999999936
21
-94.6843939999999975
0
LINE
8
BLACK
6
CONTINUOUS
10
187.4569999999999936
20
-94.6843939999999975
11
187.3480889999999874
21
-94.5213979999999907
0
LINE
8
BLACK
6
CONTINUOUS
10
187.3480889999999874
20
-94.5213979999999907
11
187.2730699999999899
21
-94.3402859999999919
0
LINE
8
BLACK
6
CONTINUOUS
10
187.2730699999999899
20
-94.3402859999999919
11
187.2348250000000007
21
-94.1480179999999933
0
LINE
8
BLACK
6
CONTINUOUS
10
187.2348250000000007
20
-94.1480179999999933
11
187.2348250000000007
21
-93.9519839999999959
0
LINE
8
BLACK
6
CONTINUOUS
10
187.2348250000000007
20
-93.9519839999999959
11
187.2730699999999899
21
-93.7597159999999974
0
LINE
8
BLACK
6
CONTINUOUS
10
187.2730699999999899
20
-93.7597159999999974
11
187.3480889999999874
21
-93.5786039999999986
0
LINE
8
BLACK
6
CONTINUOUS
10
187.3480889999999874
20
-93.5786039999999986
11
187.4569999999999936
21
-93.4156079999999918
0
LINE
8
BLACK
6
CONTINUOUS
10
187.4569999999999936
20
-93.4156079999999918
11
187.5956170000000043
21
-93.2769909999999953
0
LINE
8
BLACK
6
CONTINUOUS
10
187.5956170000000043
20
-93.2769909999999953
11
187.7586129999999969
21
-93.1680799999999891
0
LINE
8
BLACK
6
CONTINUOUS
10
187.7586129999999969
20
-93.1680799999999891
11
187.9397249999999815
21
-93.0930609999999916
0
LINE
8
BLACK
6
CONTINUOUS
10
187.9397249999999815
20
-93.0930609999999916
11
188.1319929999999943
21
-93.0548160000000024
0
LINE
8
BLACK
6
CONTINUOUS
10
188.1319929999999943
20
-93.0548160000000024
11
188.3280269999999916
21
-93.0548160000000024
0
LINE
8
BLACK
6
CONTINUOUS
10
188.3280269999999916
20
-93.0548160000000024
11
188.5202950000000044
21
-93.0930609999999916
0
LINE
8
BLACK
6
CONTINUOUS
10
191.0602949999999964
20
-93.0930609999999916
11
191.2414069999999811
21
-93.1680799999999891
0
LINE
8
BLACK
6
CONTINUOUS
10
191.2414069999999811
20
-93.1680799999999891
11
191.4044030000000021
21
-93.2769909999999953
0
LINE
8
BLACK
6
CONTINUOUS
10
191.4044030000000021
20
-93.2769909999999953
11
191.5430199999999843
21
-93.4156079999999918
0
LINE
8
BLACK
6
CONTINUOUS
10
191.5430199999999843
20
-93.4156079999999918
11
191.6519309999999905
21
-93.5786039999999986
0
LINE
8
BLACK
6
CONTINUOUS
10
191.6519309999999905
20
-93.5786039999999986
11
191.726949999999988
21
-93.7597159999999974
0
LINE
8
BLACK
6
CONTINUOUS
10
191.726949999999988
20
-93.7597159999999974
11
191.7651949999999772
21
-93.9519839999999959
0
LINE
8
BLACK
6
CONTINUOUS
10
191.7651949999999772
20
-93.9519839999999959
11
191.7651949999999772
21
-94.1480179999999933
0
LINE
8
BLACK
6
CONTINUOUS
10
191.7651949999999772
20
-94.1480179999999933
11
191.726949999999988
21
-94.3402859999999919
0
LINE
8
BLACK
6
CONTINUOUS
10
191.726949999999988
20
-94.3402859999999919
11
191.6519309999999905
21
-94.5213979999999907
0
LINE
8
BLACK
6
CONTINUOUS
10
191.6519309999999905
20
-94.5213979999999907
11
191.5430199999999843
21
-94.6843939999999975
0
LINE
8
BLACK
6
CONTINUOUS
10
191.5430199999999843
20
-94.6843939999999975
11
191.4044030000000021
21
-94.8230109999999939
0
LINE
8
BLACK
6
CONTINUOUS
10
191.4044030000000021
20
-94.8230109999999939
11
191.2414069999999811
21
-94.9319220000000001
0
LINE
8
BLACK
6
CONTINUOUS
10
191.2414069999999811
20
-94.9319220000000001
11
191.0602949999999964
21
-95.0069409999999976
0
LINE
8
BLACK
6
CONTINUOUS
10
191.0602949999999964
20
-95.0069409999999976
11
190.8680269999999837
21
-95.0451860000000011
0
LINE
8
BLACK
6
CONTINUOUS
10
190.8680269999999837
20
-95.0451860000000011
11
190.6719929999999863
21
-95.0451860000000011
0
LINE
8
BLACK
6
CONTINUOUS
10
190.6719929999999863
20
-95.0451860000000011
11
190.479725000000002
21
-95.0069409999999976
0
LINE
8
BLACK
6
CONTINUOUS
10
190.479725000000002
20
-95.0069409999999976
11
190.2986129999999889
21
-94.9319220000000001
0
LINE
8
BLACK
6
CONTINUOUS
10
190.2986129999999889
20
-94.9319220000000001
11
190.1356169999999963
21
-94.8230109999999939
0
LINE
8
BLACK
6
CONTINUOUS
10
190.1356169999999963
20
-94.8230109999999939
11
189.9969999999999857
21
-94.6843939999999975
0
LINE
8
BLACK
6
CONTINUOUS
10
189.9969999999999857
20
-94.6843939999999975
11
189.8880889999999795
21
-94.5213979999999907
0
LINE
8
BLACK
6
CONTINUOUS
10
189.8880889999999795
20
-94.5213979999999907
11
189.813069999999982
21
-94.3402859999999919
0
LINE
8
BLACK
6
CONTINUOUS
10
189.813069999999982
20
-94.3402859999999919
11
189.7748249999999928
21
-94.1480179999999933
0
LINE
8
BLACK
6
CONTINUOUS
10
189.7748249999999928
20
-94.1480179999999933
11
189.7748249999999928
21
-93.9519839999999959
0
LINE
8
BLACK
6
CONTINUOUS
10
189.7748249999999928
20
-93.9519839999999959
11
189.813069999999982
21
-93.7597159999999974
0
LINE
8
BLACK
6
CONTINUOUS
10
189.813069999999982
20
-93.7597159999999974
11
189.8880889999999795
21
-93.5786039999999986
0
LINE
8
BLACK
6
CONTINUOUS
10
189.8880889999999795
20
-93.5786039999999986
11
189.9969999999999857
21
-93.4156079999999918
0
LINE
8
BLACK
6
CONTINUOUS
10
189.9969999999999857
20
-93.4156079999999918
11
190.1356169999999963
21
-93.2769909999999953
0
LINE
8
BLACK
6
CONTINUOUS
10
190.1356169999999963
20
-93.2769909999999953
11
190.2986129999999889
21
-93.1680799999999891
0
LINE
8
BLACK
6
CONTINUOUS
10
190.2986129999999889
20
-93.1680799999999891
11
190.479725000000002
21
-93.0930609999999916
0
LINE
8
BLACK
6
CONTINUOUS
10
190.479725000000002
20
-93.0930609999999916
11
190.6719929999999863
21
-93.0548160000000024
0
LINE
8
BLACK
6
CONTINUOUS
10
190.6719929999999863
20
-93.0548160000000024
11
190.8680269999999837
21
-93.0548160000000024
0
LINE
8
BLACK
6
CONTINUOUS
10
190.8680269999999837
20
-93.0548160000000024
11
191.0602949999999964
21
-93.0930609999999916
0
LINE
8
BLACK
6
CONTINUOUS
10
193.6002949999999885
20
-93.0930609999999916
11
193.7814070000000015
21
-93.1680799999999891
0
LINE
8
BLACK
6
CONTINUOUS
10
193.7814070000000015
20
-93.1680799999999891
11
193.9444029999999941
21
-93.2769909999999953
0
LINE
8
BLACK
6
CONTINUOUS
10
193.9444029999999941
20
-93.2769909999999953
11
194.0830200000000048
21
-93.4156079999999918
0
LINE
8
BLACK
6
CONTINUOUS
10
194.0830200000000048
20
-93.4156079999999918
11
194.1919309999999825
21
-93.5786039999999986
0
LINE
8
BLACK
6
CONTINUOUS
10
194.1919309999999825
20
-93.5786039999999986
11
194.26694999999998
21
-93.7597159999999974
0
LINE
8
BLACK
6
CONTINUOUS
10
194.26694999999998
20
-93.7597159999999974
11
194.3051949999999977
21
-93.9519839999999959
0
LINE
8
BLACK
6
CONTINUOUS
10
194.3051949999999977
20
-93.9519839999999959
11
194.3051949999999977
21
-94.1480179999999933
0
LINE
8
BLACK
6
CONTINUOUS
10
194.3051949999999977
20
-94.1480179999999933
11
194.26694999999998
21
-94.3402859999999919
0
LINE
8
BLACK
6
CONTINUOUS
10
194.26694999999998
20
-94.3402859999999919
11
194.1919309999999825
21
-94.5213979999999907
0
LINE
8
BLACK
6
CONTINUOUS
10
194.1919309999999825
20
-94.5213979999999907
11
194.0830200000000048
21
-94.6843939999999975
0
LINE
8
BLACK
6
CONTINUOUS
10
194.0830200000000048
20
-94.6843939999999975
11
193.9444029999999941
21
-94.8230109999999939
0
LINE
8
BLACK
6
CONTINUOUS
10
193.9444029999999941
20
-94.8230109999999939
11
193.7814070000000015
21
-94.9319220000000001
0
LINE
8
BLACK
6
CONTINUOUS
10
193.7814070000000015
20
-94.9319220000000001
11
193.6002949999999885
21
-95.0069409999999976
0
LINE
8
BLACK
6
CONTINUOUS
10
193.6002949999999885
20
-95.0069409999999976
11
193.4080270000000041
21
-95.0451860000000011
0
LINE
8
BLACK
6
CONTINUOUS
10
193.4080270000000041
20
-95.0451860000000011
11
193.2119929999999783
21
-95.0451860000000011
0
LINE
8
BLACK
6
CONTINUOUS
10
193.2119929999999783
20
-95.0451860000000011
11
193.019724999999994
21
-95.0069409999999976
0
LINE
8
BLACK
6
CONTINUOUS
10
193.019724999999994
20
-95.0069409999999976
11
192.838612999999981
21
-94.9319220000000001
0
LINE
8
BLACK
6
CONTINUOUS
10
192.838612999999981
20
-94.9319220000000001
11
192.6756169999999884
21
-94.8230109999999939
0
LINE
8
BLACK
6
CONTINUOUS
10
192.6756169999999884
20
-94.8230109999999939
11
192.5369999999999777
21
-94.6843939999999975
0
LINE
8
BLACK
6
CONTINUOUS
10
192.5369999999999777
20
-94.6843939999999975
11
192.4280889999999999
21
-94.5213979999999907
0
LINE
8
BLACK
6
CONTINUOUS
10
192.4280889999999999
20
-94.5213979999999907
11
192.3530700000000024
21
-94.3402859999999919
0
LINE
8
BLACK
6
CONTINUOUS
10
192.3530700000000024
20
-94.3402859999999919
11
192.3148249999999848
21
-94.1480179999999933
0
LINE
8
BLACK
6
CONTINUOUS
10
192.3148249999999848
20
-94.1480179999999933
11
192.3148249999999848
21
-93.9519839999999959
0
LINE
8
BLACK
6
CONTINUOUS
10
192.3148249999999848
20
-93.9519839999999959
11
192.3530700000000024
21
-93.7597159999999974
0
LINE
8
BLACK
6
CONTINUOUS
10
192.3530700000000024
20
-93.7597159999999974
11
192.4280889999999999
21
-93.5786039999999986
0
LINE
8
BLACK
6
CONTINUOUS
10
192.4280889999999999
20
-93.5786039999999986
11
192.5369999999999777
21
-93.4156079999999918
0
LINE
8
BLACK
6
CONTINUOUS
10
192.5369999999999777
20
-93.4156079999999918
11
192.6756169999999884
21
-93.2769909999999953
0
LINE
8
BLACK
6
CONTINUOUS
10
192.6756169999999884
20
-93.2769909999999953
11
192.838612999999981
21
-93.1680799999999891
0
LINE
8
BLACK
6
CONTINUOUS
10
192.838612999999981
20
-93.1680799999999891
11
193.019724999999994
21
-93.0930609999999916
0
LINE
8
BLACK
6
CONTINUOUS
10
193.019724999999994
20
-93.0930609999999916
11
193.2119929999999783
21
-93.0548160000000024
0
LINE
8
BLACK
6
CONTINUOUS
10
193.2119929999999783
20
-93.0548160000000024
11
193.4080270000000041
21
-93.0548160000000024
0
LINE
8
BLACK
6
CONTINUOUS
10
193.4080270000000041
20
-93.0548160000000024
11
193.6002949999999885
21
-93.0930609999999916
0
LINE
8
BLACK
6
CONTINUOUS
10
196.1402949999999805
20
-93.0930609999999916
11
196.3214069999999936
21
-93.1680799999999891
0
LINE
8
BLACK
6
CONTINUOUS
10
196.3214069999999936
20
-93.1680799999999891
11
196.4844029999999862
21
-93.2769909999999953
0
LINE
8
BLACK
6
CONTINUOUS
10
196.4844029999999862
20
-93.2769909999999953
11
196.6230199999999968
21
-93.4156079999999918
0
LINE
8
BLACK
6
CONTINUOUS
10
196.6230199999999968
20
-93.4156079999999918
11
196.731931000000003
21
-93.5786039999999986
0
LINE
8
BLACK
6
CONTINUOUS
10
196.731931000000003
20
-93.5786039999999986
11
196.8069500000000005
21
-93.7597159999999974
0
LINE
8
BLACK
6
CONTINUOUS
10
196.8069500000000005
20
-93.7597159999999974
11
196.8451949999999897
21
-93.9519839999999959
0
LINE
8
BLACK
6
CONTINUOUS
10
196.8451949999999897
20
-93.9519839999999959
11
196.8451949999999897
21
-94.1480179999999933
0
LINE
8
BLACK
6
CONTINUOUS
10
196.8451949999999897
20
-94.1480179999999933
11
196.8069500000000005
21
-94.3402859999999919
0
LINE
8
BLACK
6
CONTINUOUS
10
196.8069500000000005
20
-94.3402859999999919
11
196.731931000000003
21
-94.5213979999999907
0
LINE
8
BLACK
6
CONTINUOUS
10
196.731931000000003
20
-94.5213979999999907
11
196.6230199999999968
21
-94.6843939999999975
0
LINE
8
BLACK
6
CONTINUOUS
10
196.6230199999999968
20
-94.6843939999999975
11
196.4844029999999862
21
-94.8230109999999939
0
LINE
8
BLACK
6
CONTINUOUS
10
196.4844029999999862
20
-94.8230109999999939
11
196.3214069999999936
21
-94.9319220000000001
0
LINE
8
BLACK
6
CONTINUOUS
10
196.3214069999999936
20
-94.9319220000000001
11
196.1402949999999805
21
-95.0069409999999976
0
LINE
8
BLACK
6
CONTINUOUS
10
196.1402949999999805
20
-95.0069409999999976
11
195.9480269999999962
21
-95.0451860000000011
0
LINE
8
BLACK
6
CONTINUOUS
10
195.9480269999999962
20
-95.0451860000000011
11
195.7519929999999988
21
-95.0451860000000011
0
LINE
8
BLACK
6
CONTINUOUS
10
195.7519929999999988
20
-95.0451860000000011
11
195.559724999999986
21
-95.0069409999999976
0
LINE
8
BLACK
6
CONTINUOUS
10
195.559724999999986
20
-95.0069409999999976
11
195.3786130000000014
21
-94.9319220000000001
0
LINE
8
BLACK
6
CONTINUOUS
10
195.3786130000000014
20
-94.9319220000000001
11
195.2156169999999804
21
-94.8230109999999939
0
LINE
8
BLACK
6
CONTINUOUS
10
195.2156169999999804
20
-94.8230109999999939
11
195.0769999999999982
21
-94.6843939999999975
0
LINE
8
BLACK
6
CONTINUOUS
10
195.0769999999999982
20
-94.6843939999999975
11
194.968088999999992
21
-94.5213979999999907
0
LINE
8
BLACK
6
CONTINUOUS
10
194.968088999999992
20
-94.5213979999999907
11
194.8930699999999945
21
-94.3402859999999919
0
LINE
8
BLACK
6
CONTINUOUS
10
194.8930699999999945
20
-94.3402859999999919
11
194.8548250000000053
21
-94.1480179999999933
0
LINE
8
BLACK
6
CONTINUOUS
10
194.8548250000000053
20
-94.1480179999999933
11
194.8548250000000053
21
-93.9519839999999959
0
LINE
8
BLACK
6
CONTINUOUS
10
194.8548250000000053
20
-93.9519839999999959
11
194.8930699999999945
21
-93.7597159999999974
0
LINE
8
BLACK
6
CONTINUOUS
10
194.8930699999999945
20
-93.7597159999999974
11
194.968088999999992
21
-93.5786039999999986
0
LINE
8
BLACK
6
CONTINUOUS
10
194.968088999999992
20
-93.5786039999999986
11
195.0769999999999982
21
-93.4156079999999918
0
LINE
8
BLACK
6
CONTINUOUS
10
195.0769999999999982
20
-93.4156079999999918
11
195.2156169999999804
21
-93.2769909999999953
0
LINE
8
BLACK
6
CONTINUOUS
10
195.2156169999999804
20
-93.2769909999999953
11
195.3786130000000014
21
-93.1680799999999891
0
LINE
8
BLACK
6
CONTINUOUS
10
195.3786130000000014
20
-93.1680799999999891
11
195.559724999999986
21
-93.0930609999999916
0
LINE
8
BLACK
6
CONTINUOUS
10
195.559724999999986
20
-93.0930609999999916
11
195.7519929999999988
21
-93.0548160000000024
0
LINE
8
BLACK
6
CONTINUOUS
10
195.7519929999999988
20
-93.0548160000000024
11
195.9480269999999962
21
-93.0548160000000024
0
LINE
8
BLACK
6
CONTINUOUS
10
195.9480269999999962
20
-93.0548160000000024
11
196.1402949999999805
21
-93.0930609999999916
0
LINE
8
BLACK
6
CONTINUOUS
10
198.680295000000001
20
-93.0930609999999916
11
198.8614069999999856
21
-93.1680799999999891
0
LINE
8
BLACK
6
CONTINUOUS
10
198.8614069999999856
20
-93.1680799999999891
11
199.0244029999999782
21
-93.2769909999999953
0
LINE
8
BLACK
6
CONTINUOUS
10
199.0244029999999782
20
-93.2769909999999953
11
199.1630199999999888
21
-93.4156079999999918
0
LINE
8
BLACK
6
CONTINUOUS
10
199.1630199999999888
20
-93.4156079999999918
11
199.271930999999995
21
-93.5786039999999986
0
LINE
8
BLACK
6
CONTINUOUS
10
199.271930999999995
20
-93.5786039999999986
11
199.3469499999999925
21
-93.7597159999999974
0
LINE
8
BLACK
6
CONTINUOUS
10
199.3469499999999925
20
-93.7597159999999974
11
199.3851949999999817
21
-93.9519839999999959
0
LINE
8
BLACK
6
CONTINUOUS
10
199.3851949999999817
20
-93.9519839999999959
11
199.3851949999999817
21
-94.1480179999999933
0
LINE
8
BLACK
6
CONTINUOUS
10
199.3851949999999817
20
-94.1480179999999933
11
199.3469499999999925
21
-94.3402859999999919
0
LINE
8
BLACK
6
CONTINUOUS
10
199.3469499999999925
20
-94.3402859999999919
11
199.271930999999995
21
-94.5213979999999907
0
LINE
8
BLACK
6
CONTINUOUS
10
199.271930999999995
20
-94.5213979999999907
11
199.1630199999999888
21
-94.6843939999999975
0
LINE
8
BLACK
6
CONTINUOUS
10
199.1630199999999888
20
-94.6843939999999975
11
199.0244029999999782
21
-94.8230109999999939
0
LINE
8
BLACK
6
CONTINUOUS
10
199.0244029999999782
20
-94.8230109999999939
11
198.8614069999999856
21
-94.9319220000000001
0
LINE
8
BLACK
6
CONTINUOUS
10
198.8614069999999856
20
-94.9319220000000001
11
198.680295000000001
21
-95.0069409999999976
0
LINE
8
BLACK
6
CONTINUOUS
10
198.680295000000001
20
-95.0069409999999976
11
198.4880269999999882
21
-95.0451860000000011
0
LINE
8
BLACK
6
CONTINUOUS
10
198.4880269999999882
20
-95.0451860000000011
11
198.2919929999999908
21
-95.0451860000000011
0
LINE
8
BLACK
6
CONTINUOUS
10
198.2919929999999908
20
-95.0451860000000011
11
198.0997249999999781
21
-95.0069409999999976
0
LINE
8
BLACK
6
CONTINUOUS
10
198.0997249999999781
20
-95.0069409999999976
11
197.9186129999999935
21
-94.9319220000000001
0
LINE
8
BLACK
6
CONTINUOUS
10
197.9186129999999935
20
-94.9319220000000001
11
197.7556170000000009
21
-94.8230109999999939
0
LINE
8
BLACK
6
CONTINUOUS
10
197.7556170000000009
20
-94.8230109999999939
11
197.6169999999999902
21
-94.6843939999999975
0
LINE
8
BLACK
6
CONTINUOUS
10
197.6169999999999902
20
-94.6843939999999975
11
197.508088999999984
21
-94.5213979999999907
0
LINE
8
BLACK
6
CONTINUOUS
10
197.508088999999984
20
-94.5213979999999907
11
197.4330699999999865
21
-94.3402859999999919
0
LINE
8
BLACK
6
CONTINUOUS
10
197.4330699999999865
20
-94.3402859999999919
11
197.3948249999999973
21
-94.1480179999999933
0
LINE
8
BLACK
6
CONTINUOUS
10
197.3948249999999973
20
-94.1480179999999933
11
197.3948249999999973
21
-93.9519839999999959
0
LINE
8
BLACK
6
CONTINUOUS
10
197.3948249999999973
20
-93.9519839999999959
11
197.4330699999999865
21
-93.7597159999999974
0
LINE
8
BLACK
6
CONTINUOUS
10
197.4330699999999865
20
-93.7597159999999974
11
197.508088999999984
21
-93.5786039999999986
0
LINE
8
BLACK
6
CONTINUOUS
10
197.508088999999984
20
-93.5786039999999986
11
197.6169999999999902
21
-93.4156079999999918
0
LINE
8
BLACK
6
CONTINUOUS
10
197.6169999999999902
20
-93.4156079999999918
11
197.7556170000000009
21
-93.2769909999999953
0
LINE
8
BLACK
6
CONTINUOUS
10
197.7556170000000009
20
-93.2769909999999953
11
197.9186129999999935
21
-93.1680799999999891
0
LINE
8
BLACK
6
CONTINUOUS
10
197.9186129999999935
20
-93.1680799999999891
11
198.0997249999999781
21
-93.0930609999999916
0
LINE
8
BLACK
6
CONTINUOUS
10
198.0997249999999781
20
-93.0930609999999916
11
198.2919929999999908
21
-93.0548160000000024
0
LINE
8
BLACK
6
CONTINUOUS
10
198.2919929999999908
20
-93.0548160000000024
11
198.4880269999999882
21
-93.0548160000000024
0
LINE
8
BLACK
6
CONTINUOUS
10
198.4880269999999882
20
-93.0548160000000024
11
198.680295000000001
21
-93.0930609999999916
0
LINE
8
BLACK
6
CONTINUOUS
10
201.220294999999993
20
-93.0930609999999916
11
201.4014069999999776
21
-93.1680799999999891
0
LINE
8
BLACK
6
CONTINUOUS
10
201.4014069999999776
20
-93.1680799999999891
11
201.5644029999999987
21
-93.2769909999999953
0
LINE
8
BLACK
6
CONTINUOUS
10
201.5644029999999987
20
-93.2769909999999953
11
201.7030199999999809
21
-93.4156079999999918
0
LINE
8
BLACK
6
CONTINUOUS
10
201.7030199999999809
20
-93.4156079999999918
11
201.8119309999999871
21
-93.5786039999999986
0
LINE
8
BLACK
6
CONTINUOUS
10
201.8119309999999871
20
-93.5786039999999986
11
201.8869499999999846
21
-93.7597159999999974
0
LINE
8
BLACK
6
CONTINUOUS
10
201.8869499999999846
20
-93.7597159999999974
11
201.9251950000000022
21
-93.9519839999999959
0
LINE
8
BLACK
6
CONTINUOUS
10
201.9251950000000022
20
-93.9519839999999959
11
201.9251950000000022
21
-94.1480179999999933
0
LINE
8
BLACK
6
CONTINUOUS
10
201.9251950000000022
20
-94.1480179999999933
11
201.8869499999999846
21
-94.3402859999999919
0
LINE
8
BLACK
6
CONTINUOUS
10
201.8869499999999846
20
-94.3402859999999919
11
201.8119309999999871
21
-94.5213979999999907
0
LINE
8
BLACK
6
CONTINUOUS
10
201.8119309999999871
20
-94.5213979999999907
11
201.7030199999999809
21
-94.6843939999999975
0
LINE
8
BLACK
6
CONTINUOUS
10
201.7030199999999809
20
-94.6843939999999975
11
201.5644029999999987
21
-94.8230109999999939
0
LINE
8
BLACK
6
CONTINUOUS
10
201.5644029999999987
20
-94.8230109999999939
11
201.4014069999999776
21
-94.9319220000000001
0
LINE
8
BLACK
6
CONTINUOUS
10
201.4014069999999776
20
-94.9319220000000001
11
201.220294999999993
21
-95.0069409999999976
0
LINE
8
BLACK
6
CONTINUOUS
10
201.220294999999993
20
-95.0069409999999976
11
201.0280269999999803
21
-95.0451860000000011
0
LINE
8
BLACK
6
CONTINUOUS
10
201.0280269999999803
20
-95.0451860000000011
11
200.8319929999999829
21
-95.0451860000000011
0
LINE
8
BLACK
6
CONTINUOUS
10
200.8319929999999829
20
-95.0451860000000011
11
200.6397249999999985
21
-95.0069409999999976
0
LINE
8
BLACK
6
CONTINUOUS
10
200.6397249999999985
20
-95.0069409999999976
11
200.4586129999999855
21
-94.9319220000000001
0
LINE
8
BLACK
6
CONTINUOUS
10
200.4586129999999855
20
-94.9319220000000001
11
200.2956169999999929
21
-94.8230109999999939
0
LINE
8
BLACK
6
CONTINUOUS
10
200.2956169999999929
20
-94.8230109999999939
11
200.1569999999999823
21
-94.6843939999999975
0
LINE
8
BLACK
6
CONTINUOUS
10
200.1569999999999823
20
-94.6843939999999975
11
200.0480890000000045
21
-94.5213979999999907
0
LINE
8
BLACK
6
CONTINUOUS
10
200.0480890000000045
20
-94.5213979999999907
11
199.9730699999999786
21
-94.3402859999999919
0
LINE
8
BLACK
6
CONTINUOUS
10
199.9730699999999786
20
-94.3402859999999919
11
199.9348249999999894
21
-94.1480179999999933
0
LINE
8
BLACK
6
CONTINUOUS
10
199.9348249999999894
20
-94.1480179999999933
11
199.9348249999999894
21
-93.9519839999999959
0
LINE
8
BLACK
6
CONTINUOUS
10
199.9348249999999894
20
-93.9519839999999959
11
199.9730699999999786
21
-93.7597159999999974
0
LINE
8
BLACK
6
CONTINUOUS
10
199.9730699999999786
20
-93.7597159999999974
11
200.0480890000000045
21
-93.5786039999999986
0
LINE
8
BLACK
6
CONTINUOUS
10
200.0480890000000045
20
-93.5786039999999986
11
200.1569999999999823
21
-93.4156079999999918
0
LINE
8
BLACK
6
CONTINUOUS
10
200.1569999999999823
20
-93.4156079999999918
11
200.2956169999999929
21
-93.2769909999999953
0
LINE
8
BLACK
6
CONTINUOUS
10
200.2956169999999929
20
-93.2769909999999953
11
200.4586129999999855
21
-93.1680799999999891
0
LINE
8
BLACK
6
CONTINUOUS
10
200.4586129999999855
20
-93.1680799999999891
11
200.6397249999999985
21
-93.0930609999999916
0
LINE
8
BLACK
6
CONTINUOUS
10
200.6397249999999985
20
-93.0930609999999916
11
200.8319929999999829
21
-93.0548160000000024
0
LINE
8
BLACK
6
CONTINUOUS
10
200.8319929999999829
20
-93.0548160000000024
11
201.0280269999999803
21
-93.0548160000000024
0
LINE
8
BLACK
6
CONTINUOUS
10
201.0280269999999803
20
-93.0548160000000024
11
201.220294999999993
21
-93.0930609999999916
0
LINE
8
BLACK
6
CONTINUOUS
10
203.7602949999999851
20
-93.0930609999999916
11
203.9414069999999981
21
-93.1680799999999891
0
LINE
8
BLACK
6
CONTINUOUS
10
203.9414069999999981
20
-93.1680799999999891
11
204.1044029999999907
21
-93.2769909999999953
0
LINE
8
BLACK
6
CONTINUOUS
10
204.1044029999999907
20
-93.2769909999999953
11
204.2430200000000013
21
-93.4156079999999918
0
LINE
8
BLACK
6
CONTINUOUS
10
204.2430200000000013
20
-93.4156079999999918
11
204.3519309999999791
21
-93.5786039999999986
0
LINE
8
BLACK
6
CONTINUOUS
10
204.3519309999999791
20
-93.5786039999999986
11
204.4269499999999766
21
-93.7597159999999974
0
LINE
8
BLACK
6
CONTINUOUS
10
204.4269499999999766
20
-93.7597159999999974
11
204.4651949999999943
21
-93.9519839999999959
0
LINE
8
BLACK
6
CONTINUOUS
10
204.4651949999999943
20
-93.9519839999999959
11
204.4651949999999943
21
-94.1480179999999933
0
LINE
8
BLACK
6
CONTINUOUS
10
204.4651949999999943
20
-94.1480179999999933
11
204.4269499999999766
21
-94.3402859999999919
0
LINE
8
BLACK
6
CONTINUOUS
10
204.4269499999999766
20
-94.3402859999999919
11
204.3519309999999791
21
-94.5213979999999907
0
LINE
8
BLACK
6
CONTINUOUS
10
204.3519309999999791
20
-94.5213979999999907
11
204.2430200000000013
21
-94.6843939999999975
0
LINE
8
BLACK
6
CONTINUOUS
10
204.2430200000000013
20
-94.6843939999999975
11
204.1044029999999907
21
-94.8230109999999939
0
LINE
8
BLACK
6
CONTINUOUS
10
204.1044029999999907
20
-94.8230109999999939
11
203.9414069999999981
21
-94.9319220000000001
0
LINE
8
BLACK
6
CONTINUOUS
10
203.9414069999999981
20
-94.9319220000000001
11
203.7602949999999851
21
-95.0069409999999976
0
LINE
8
BLACK
6
CONTINUOUS
10
203.7602949999999851
20
-95.0069409999999976
11
203.5680270000000007
21
-95.0451860000000011
0
LINE
8
BLACK
6
CONTINUOUS
10
203.5680270000000007
20
-95.0451860000000011
11
203.3719930000000033
21
-95.0451860000000011
0
LINE
8
BLACK
6
CONTINUOUS
10
203.3719930000000033
20
-95.0451860000000011
11
203.1797249999999906
21
-95.0069409999999976
0
LINE
8
BLACK
6
CONTINUOUS
10
203.1797249999999906
20
-95.0069409999999976
11
202.9986129999999775
21
-94.9319220000000001
0
LINE
8
BLACK
6
CONTINUOUS
10
202.9986129999999775
20
-94.9319220000000001
11
202.835616999999985
21
-94.8230109999999939
0
LINE
8
BLACK
6
CONTINUOUS
10
202.835616999999985
20
-94.8230109999999939
11
202.6970000000000027
21
-94.6843939999999975
0
LINE
8
BLACK
6
CONTINUOUS
10
202.6970000000000027
20
-94.6843939999999975
11
202.5880889999999965
21
-94.5213979999999907
0
LINE
8
BLACK
6
CONTINUOUS
10
202.5880889999999965
20
-94.5213979999999907
11
202.513069999999999
21
-94.3402859999999919
0
LINE
8
BLACK
6
CONTINUOUS
10
202.513069999999999
20
-94.3402859999999919
11
202.4748249999999814
21
-94.1480179999999933
0
LINE
8
BLACK
6
CONTINUOUS
10
202.4748249999999814
20
-94.1480179999999933
11
202.4748249999999814
21
-93.9519839999999959
0
LINE
8
BLACK
6
CONTINUOUS
10
202.4748249999999814
20
-93.9519839999999959
11
202.513069999999999
21
-93.7597159999999974
0
LINE
8
BLACK
6
CONTINUOUS
10
202.513069999999999
20
-93.7597159999999974
11
202.5880889999999965
21
-93.5786039999999986
0
LINE
8
BLACK
6
CONTINUOUS
10
202.5880889999999965
20
-93.5786039999999986
11
202.6970000000000027
21
-93.4156079999999918
0
LINE
8
BLACK
6
CONTINUOUS
10
202.6970000000000027
20
-93.4156079999999918
11
202.835616999999985
21
-93.2769909999999953
0
LINE
8
BLACK
6
CONTINUOUS
10
202.835616999999985
20
-93.2769909999999953
11
202.9986129999999775
21
-93.1680799999999891
0
LINE
8
BLACK
6
CONTINUOUS
10
202.9986129999999775
20
-93.1680799999999891
11
203.1797249999999906
21
-93.0930609999999916
0
LINE
8
BLACK
6
CONTINUOUS
10
203.1797249999999906
20
-93.0930609999999916
11
203.3719930000000033
21
-93.0548160000000024
0
LINE
8
BLACK
6
CONTINUOUS
10
203.3719930000000033
20
-93.0548160000000024
11
203.5680270000000007
21
-93.0548160000000024
0
LINE
8
BLACK
6
CONTINUOUS
10
203.5680270000000007
20
-93.0548160000000024
11
203.7602949999999851
21
-93.0930609999999916
0
LINE
8
BLACK
6
CONTINUOUS
10
206.3002949999999771
20
-93.0930609999999916
11
206.4814069999999901
21
-93.1680799999999891
0
LINE
8
BLACK
6
CONTINUOUS
10
206.4814069999999901
20
-93.1680799999999891
11
206.6444029999999827
21
-93.2769909999999953
0
LINE
8
BLACK
6
CONTINUOUS
10
206.6444029999999827
20
-93.2769909999999953
11
206.7830199999999934
21
-93.4156079999999918
0
LINE
8
BLACK
6
CONTINUOUS
10
206.7830199999999934
20
-93.4156079999999918
11
206.8919309999999996
21
-93.5786039999999986
0
LINE
8
BLACK
6
CONTINUOUS
10
206.8919309999999996
20
-93.5786039999999986
11
206.9669499999999971
21
-93.7597159999999974
0
LINE
8
BLACK
6
CONTINUOUS
10
206.9669499999999971
20
-93.7597159999999974
11
207.0051949999999863
21
-93.9519839999999959
0
LINE
8
BLACK
6
CONTINUOUS
10
207.0051949999999863
20
-93.9519839999999959
11
207.0051949999999863
21
-94.1480179999999933
0
LINE
8
BLACK
6
CONTINUOUS
10
207.0051949999999863
20
-94.1480179999999933
11
206.9669499999999971
21
-94.3402859999999919
0
LINE
8
BLACK
6
CONTINUOUS
10
206.9669499999999971
20
-94.3402859999999919
11
206.8919309999999996
21
-94.5213979999999907
0
LINE
8
BLACK
6
CONTINUOUS
10
206.8919309999999996
20
-94.5213979999999907
11
206.7830199999999934
21
-94.6843939999999975
0
LINE
8
BLACK
6
CONTINUOUS
10
206.7830199999999934
20
-94.6843939999999975
11
206.6444029999999827
21
-94.8230109999999939
0
LINE
8
BLACK
6
CONTINUOUS
10
206.6444029999999827
20
-94.8230109999999939
11
206.4814069999999901
21
-94.9319220000000001
0
LINE
8
BLACK
6
CONTINUOUS
10
206.4814069999999901
20
-94.9319220000000001
11
206.3002949999999771
21
-95.0069409999999976
0
LINE
8
BLACK
6
CONTINUOUS
10
206.3002949999999771
20
-95.0069409999999976
11
206.1080269999999928
21
-95.0451860000000011
0
LINE
8
BLACK
6
CONTINUOUS
10
206.1080269999999928
20
-95.0451860000000011
11
205.9119929999999954
21
-95.0451860000000011
0
LINE
8
BLACK
6
CONTINUOUS
10
205.9119929999999954
20
-95.0451860000000011
11
205.7197249999999826
21
-95.0069409999999976
0
LINE
8
BLACK
6
CONTINUOUS
10
205.7197249999999826
20
-95.0069409999999976
11
205.538612999999998
21
-94.9319220000000001
0
LINE
8
BLACK
6
CONTINUOUS
10
205.538612999999998
20
-94.9319220000000001
11
205.375616999999977
21
-94.8230109999999939
0
LINE
8
BLACK
6
CONTINUOUS
10
205.375616999999977
20
-94.8230109999999939
11
205.2369999999999948
21
-94.6843939999999975
0
LINE
8
BLACK
6
CONTINUOUS
10
205.2369999999999948
20
-94.6843939999999975
11
205.1280889999999886
21
-94.5213979999999907
0
LINE
8
BLACK
6
CONTINUOUS
10
205.1280889999999886
20
-94.5213979999999907
11
205.0530699999999911
21
-94.3402859999999919
0
LINE
8
BLACK
6
CONTINUOUS
10
205.0530699999999911
20
-94.3402859999999919
11
205.0148250000000019
21
-94.1480179999999933
0
LINE
8
BLACK
6
CONTINUOUS
10
205.0148250000000019
20
-94.1480179999999933
11
205.0148250000000019
21
-93.9519839999999959
0
LINE
8
BLACK
6
CONTINUOUS
10
205.0148250000000019
20
-93.9519839999999959
11
205.0530699999999911
21
-93.7597159999999974
0
LINE
8
BLACK
6
CONTINUOUS
10
205.0530699999999911
20
-93.7597159999999974
11
205.1280889999999886
21
-93.5786039999999986
0
LINE
8
BLACK
6
CONTINUOUS
10
205.1280889999999886
20
-93.5786039999999986
11
205.2369999999999948
21
-93.4156079999999918
0
LINE
8
BLACK
6
CONTINUOUS
10
205.2369999999999948
20
-93.4156079999999918
11
205.375616999999977
21
-93.2769909999999953
0
LINE
8
BLACK
6
CONTINUOUS
10
205.375616999999977
20
-93.2769909999999953
11
205.538612999999998
21
-93.1680799999999891
0
LINE
8
BLACK
6
CONTINUOUS
10
205.538612999999998
20
-93.1680799999999891
11
205.7197249999999826
21
-93.0930609999999916
0
LINE
8
BLACK
6
CONTINUOUS
10
205.7197249999999826
20
-93.0930609999999916
11
205.9119929999999954
21
-93.0548160000000024
0
LINE
8
BLACK
6
CONTINUOUS
10
205.9119929999999954
20
-93.0548160000000024
11
206.1080269999999928
21
-93.0548160000000024
0
LINE
8
BLACK
6
CONTINUOUS
10
206.1080269999999928
20
-93.0548160000000024
11
206.3002949999999771
21
-93.0930609999999916
0
LINE
8
BLACK
6
CONTINUOUS
10
208.8402949999999976
20
-93.0930609999999916
11
209.0214069999999822
21
-93.1680799999999891
0
LINE
8
BLACK
6
CONTINUOUS
10
209.0214069999999822
20
-93.1680799999999891
11
209.1844030000000032
21
-93.2769909999999953
0
LINE
8
BLACK
6
CONTINUOUS
10
209.1844030000000032
20
-93.2769909999999953
11
209.3230199999999854
21
-93.4156079999999918
0
LINE
8
BLACK
6
CONTINUOUS
10
209.3230199999999854
20
-93.4156079999999918
11
209.4319309999999916
21
-93.5786039999999986
0
LINE
8
BLACK
6
CONTINUOUS
10
209.4319309999999916
20
-93.5786039999999986
11
209.5069499999999891
21
-93.7597159999999974
0
LINE
8
BLACK
6
CONTINUOUS
10
209.5069499999999891
20
-93.7597159999999974
11
209.5451949999999783
21
-93.9519839999999959
0
LINE
8
BLACK
6
CONTINUOUS
10
209.5451949999999783
20
-93.9519839999999959
11
209.5451949999999783
21
-94.1480179999999933
0
LINE
8
BLACK
6
CONTINUOUS
10
209.5451949999999783
20
-94.1480179999999933
11
209.5069499999999891
21
-94.3402859999999919
0
LINE
8
BLACK
6
CONTINUOUS
10
209.5069499999999891
20
-94.3402859999999919
11
209.4319309999999916
21
-94.5213979999999907
0
LINE
8
BLACK
6
CONTINUOUS
10
209.4319309999999916
20
-94.5213979999999907
11
209.3230199999999854
21
-94.6843939999999975
0
LINE
8
BLACK
6
CONTINUOUS
10
209.3230199999999854
20
-94.6843939999999975
11
209.1844030000000032
21
-94.8230109999999939
0
LINE
8
BLACK
6
CONTINUOUS
10
209.1844030000000032
20
-94.8230109999999939
11
209.0214069999999822
21
-94.9319220000000001
0
LINE
8
BLACK
6
CONTINUOUS
10
209.0214069999999822
20
-94.9319220000000001
11
208.8402949999999976
21
-95.0069409999999976
0
LINE
8
BLACK
6
CONTINUOUS
10
208.8402949999999976
20
-95.0069409999999976
11
208.6480269999999848
21
-95.0451860000000011
0
LINE
8
BLACK
6
CONTINUOUS
10
208.6480269999999848
20
-95.0451860000000011
11
208.4519929999999874
21
-95.0451860000000011
0
LINE
8
BLACK
6
CONTINUOUS
10
208.4519929999999874
20
-95.0451860000000011
11
208.2597250000000031
21
-95.0069409999999976
0
LINE
8
BLACK
6
CONTINUOUS
10
208.2597250000000031
20
-95.0069409999999976
11
208.0786129999999901
21
-94.9319220000000001
0
LINE
8
BLACK
6
CONTINUOUS
10
208.0786129999999901
20
-94.9319220000000001
11
207.9156169999999975
21
-94.8230109999999939
0
LINE
8
BLACK
6
CONTINUOUS
10
207.9156169999999975
20
-94.8230109999999939
11
207.7769999999999868
21
-94.6843939999999975
0
LINE
8
BLACK
6
CONTINUOUS
10
207.7769999999999868
20
-94.6843939999999975
11
207.6680889999999806
21
-94.5213979999999907
0
LINE
8
BLACK
6
CONTINUOUS
10
207.6680889999999806
20
-94.5213979999999907
11
207.5930699999999831
21
-94.3402859999999919
0
LINE
8
BLACK
6
CONTINUOUS
10
207.5930699999999831
20
-94.3402859999999919
11
207.5548249999999939
21
-94.1480179999999933
0
LINE
8
BLACK
6
CONTINUOUS
10
207.5548249999999939
20
-94.1480179999999933
11
207.5548249999999939
21
-93.9519839999999959
0
LINE
8
BLACK
6
CONTINUOUS
10
207.5548249999999939
20
-93.9519839999999959
11
207.5930699999999831
21
-93.7597159999999974
0
LINE
8
BLACK
6
CONTINUOUS
10
207.5930699999999831
20
-93.7597159999999974
11
207.6680889999999806
21
-93.5786039999999986
0
LINE
8
BLACK
6
CONTINUOUS
10
207.6680889999999806
20
-93.5786039999999986
11
207.7769999999999868
21
-93.4156079999999918
0
LINE
8
BLACK
6
CONTINUOUS
10
207.7769999999999868
20
-93.4156079999999918
11
207.9156169999999975
21
-93.2769909999999953
0
LINE
8
BLACK
6
CONTINUOUS
10
207.9156169999999975
20
-93.2769909999999953
11
208.0786129999999901
21
-93.1680799999999891
0
LINE
8
BLACK
6
CONTINUOUS
10
208.0786129999999901
20
-93.1680799999999891
11
208.2597250000000031
21
-93.0930609999999916
0
LINE
8
BLACK
6
CONTINUOUS
10
208.2597250000000031
20
-93.0930609999999916
11
208.4519929999999874
21
-93.0548160000000024
0
LINE
8
BLACK
6
CONTINUOUS
10
208.4519929999999874
20
-93.0548160000000024
11
208.6480269999999848
21
-93.0548160000000024
0
LINE
8
BLACK
6
CONTINUOUS
10
208.6480269999999848
20
-93.0548160000000024
11
208.8402949999999976
21
-93.0930609999999916
0
LINE
8
BLACK
6
CONTINUOUS
10
146.
20
-91.4949999999999903
11
144.
21
-91.4949999999999903
0
LINE
8
BLACK
6
CONTINUOUS
10
144.
20
-91.4949999999999903
11
144.
21
-89.4949999999999903
0
LINE
8
BLACK
6
CONTINUOUS
10
144.
20
-89.4949999999999903
11
146.
21
-89.4949999999999903
0
LINE
8
BLACK
6
CONTINUOUS
10
146.
20
-89.4949999999999903
11
146.
21
-91.4949999999999903
0
LINE
8
BLACK
6
CONTINUOUS
10
145.290284999999983
20
-86.9980599999999953
11
145.4713969999999961
21
-87.0730789999999928
0
LINE
8
BLACK
6
CONTINUOUS
10
145.4713969999999961
20
-87.0730789999999928
11
145.6343929999999887
21
-87.181989999999999
0
LINE
8
BLACK
6
CONTINUOUS
10
145.6343929999999887
20
-87.181989999999999
11
145.7730099999999993
21
-87.3206069999999954
0
LINE
8
BLACK
6
CONTINUOUS
10
145.7730099999999993
20
-87.3206069999999954
11
145.8819210000000055
21
-87.4836030000000022
0
LINE
8
BLACK
6
CONTINUOUS
10
145.8819210000000055
20
-87.4836030000000022
11
145.956940000000003
21
-87.6647150000000011
0
LINE
8
BLACK
6
CONTINUOUS
10
145.956940000000003
20
-87.6647150000000011
11
145.9951849999999922
21
-87.8569829999999996
0
LINE
8
BLACK
6
CONTINUOUS
10
145.9951849999999922
20
-87.8569829999999996
11
145.9951849999999922
21
-88.053016999999997
0
LINE
8
BLACK
6
CONTINUOUS
10
145.9951849999999922
20
-88.053016999999997
11
145.956940000000003
21
-88.2452849999999955
0
LINE
8
BLACK
6
CONTINUOUS
10
145.956940000000003
20
-88.2452849999999955
11
145.8819210000000055
21
-88.4263969999999944
0
LINE
8
BLACK
6
CONTINUOUS
10
145.8819210000000055
20
-88.4263969999999944
11
145.7730099999999993
21
-88.5893930000000012
0
LINE
8
BLACK
6
CONTINUOUS
10
145.7730099999999993
20
-88.5893930000000012
11
145.6343929999999887
21
-88.7280099999999976
0
LINE
8
BLACK
6
CONTINUOUS
10
145.6343929999999887
20
-88.7280099999999976
11
145.4713969999999961
21
-88.8369209999999896
0
LINE
8
BLACK
6
CONTINUOUS
10
145.4713969999999961
20
-88.8369209999999896
11
145.290284999999983
21
-88.9119400000000013
0
LINE
8
BLACK
6
CONTINUOUS
10
145.290284999999983
20
-88.9119400000000013
11
145.0980169999999987
21
-88.9501849999999905
0
LINE
8
BLACK
6
CONTINUOUS
10
145.0980169999999987
20
-88.9501849999999905
11
144.9019830000000013
21
-88.9501849999999905
0
LINE
8
BLACK
6
CONTINUOUS
10
144.9019830000000013
20
-88.9501849999999905
11
144.7097149999999885
21
-88.9119400000000013
0
LINE
8
BLACK
6
CONTINUOUS
10
144.7097149999999885
20
-88.9119400000000013
11
144.5286030000000039
21
-88.8369209999999896
0
LINE
8
BLACK
6
CONTINUOUS
10
144.5286030000000039
20
-88.8369209999999896
11
144.3656069999999829
21
-88.7280099999999976
0
LINE
8
BLACK
6
CONTINUOUS
10
144.3656069999999829
20
-88.7280099999999976
11
144.2269900000000007
21
-88.5893930000000012
0
LINE
8
BLACK
6
CONTINUOUS
10
144.2269900000000007
20
-88.5893930000000012
11
144.1180789999999945
21
-88.4263969999999944
0
LINE
8
BLACK
6
CONTINUOUS
10
144.1180789999999945
20
-88.4263969999999944
11
144.043059999999997
21
-88.2452849999999955
0
LINE
8
BLACK
6
CONTINUOUS
10
144.043059999999997
20
-88.2452849999999955
11
144.0048149999999794
21
-88.053016999999997
0
LINE
8
BLACK
6
CONTINUOUS
10
144.0048149999999794
20
-88.053016999999997
11
144.0048149999999794
21
-87.8569829999999996
0
LINE
8
BLACK
6
CONTINUOUS
10
144.0048149999999794
20
-87.8569829999999996
11
144.043059999999997
21
-87.6647150000000011
0
LINE
8
BLACK
6
CONTINUOUS
10
144.043059999999997
20
-87.6647150000000011
11
144.1180789999999945
21
-87.4836030000000022
0
LINE
8
BLACK
6
CONTINUOUS
10
144.1180789999999945
20
-87.4836030000000022
11
144.2269900000000007
21
-87.3206069999999954
0
LINE
8
BLACK
6
CONTINUOUS
10
144.2269900000000007
20
-87.3206069999999954
11
144.3656069999999829
21
-87.181989999999999
0
LINE
8
BLACK
6
CONTINUOUS
10
144.3656069999999829
20
-87.181989999999999
11
144.5286030000000039
21
-87.0730789999999928
0
LINE
8
BLACK
6
CONTINUOUS
10
144.5286030000000039
20
-87.0730789999999928
11
144.7097149999999885
21
-86.9980599999999953
0
LINE
8
BLACK
6
CONTINUOUS
10
144.7097149999999885
20
-86.9980599999999953
11
144.9019830000000013
21
-86.9598149999999919
0
LINE
8
BLACK
6
CONTINUOUS
10
144.9019830000000013
20
-86.9598149999999919
11
145.0980169999999987
21
-86.9598149999999919
0
LINE
8
BLACK
6
CONTINUOUS
10
145.0980169999999987
20
-86.9598149999999919
11
145.290284999999983
21
-86.9980599999999953
0
LINE
8
BLACK
6
CONTINUOUS
10
210.7722079999999778
20
-87.6042539999999974
11
210.873942999999997
21
-87.662990999999991
0
LINE
8
BLACK
6
CONTINUOUS
10
210.873942999999997
20
-87.662990999999991
11
210.9570089999999993
21
-87.7460569999999933
0
LINE
8
BLACK
6
CONTINUOUS
10
210.9570089999999993
20
-87.7460569999999933
11
211.0157459999999787
21
-87.8477919999999983
0
LINE
8
BLACK
6
CONTINUOUS
10
211.0157459999999787
20
-87.8477919999999983
11
211.046149999999983
21
-87.9612630000000024
0
LINE
8
BLACK
6
CONTINUOUS
10
211.046149999999983
20
-87.9612630000000024
11
211.046149999999983
21
-88.0787369999999896
0
LINE
8
BLACK
6
CONTINUOUS
10
211.046149999999983
20
-88.0787369999999896
11
211.0157459999999787
21
-88.1922079999999937
0
LINE
8
BLACK
6
CONTINUOUS
10
211.0157459999999787
20
-88.1922079999999937
11
210.9570089999999993
21
-88.2939429999999987
0
LINE
8
BLACK
6
CONTINUOUS
10
210.9570089999999993
20
-88.2939429999999987
11
210.873942999999997
21
-88.377009000000001
0
LINE
8
BLACK
6
CONTINUOUS
10
210.873942999999997
20
-88.377009000000001
11
210.7722079999999778
21
-88.4357459999999946
0
LINE
8
BLACK
6
CONTINUOUS
10
210.7722079999999778
20
-88.4357459999999946
11
210.6587370000000021
21
-88.466149999999999
0
LINE
8
BLACK
6
CONTINUOUS
10
210.6587370000000021
20
-88.466149999999999
11
210.5412629999999865
21
-88.466149999999999
0
LINE
8
BLACK
6
CONTINUOUS
10
210.5412629999999865
20
-88.466149999999999
11
210.4277919999999824
21
-88.4357459999999946
0
LINE
8
BLACK
6
CONTINUOUS
10
210.4277919999999824
20
-88.4357459999999946
11
210.3260569999999916
21
-88.377009000000001
0
LINE
8
BLACK
6
CONTINUOUS
10
210.3260569999999916
20
-88.377009000000001
11
210.2429909999999893
21
-88.2939429999999987
0
LINE
8
BLACK
6
CONTINUOUS
10
210.2429909999999893
20
-88.2939429999999987
11
210.1842539999999815
21
-88.1922079999999937
0
LINE
8
BLACK
6
CONTINUOUS
10
210.1842539999999815
20
-88.1922079999999937
11
210.1538499999999772
21
-88.0787369999999896
0
LINE
8
BLACK
6
CONTINUOUS
10
210.1538499999999772
20
-88.0787369999999896
11
210.1538499999999772
21
-87.9612630000000024
0
LINE
8
BLACK
6
CONTINUOUS
10
210.1538499999999772
20
-87.9612630000000024
11
210.1842539999999815
21
-87.8477919999999983
0
LINE
8
BLACK
6
CONTINUOUS
10
210.1842539999999815
20
-87.8477919999999983
11
210.2429909999999893
21
-87.7460569999999933
0
LINE
8
BLACK
6
CONTINUOUS
10
210.2429909999999893
20
-87.7460569999999933
11
210.3260569999999916
21
-87.662990999999991
0
LINE
8
BLACK
6
CONTINUOUS
10
210.3260569999999916
20
-87.662990999999991
11
210.4277919999999824
21
-87.6042539999999974
0
LINE
8
BLACK
6
CONTINUOUS
10
210.4277919999999824
20
-87.6042539999999974
11
210.5412629999999865
21
-87.5738499999999931
0
LINE
8
BLACK
6
CONTINUOUS
10
210.5412629999999865
20
-87.5738499999999931
11
210.6587370000000021
21
-87.5738499999999931
0
LINE
8
BLACK
6
CONTINUOUS
10
210.6587370000000021
20
-87.5738499999999931
11
210.7722079999999778
21
-87.6042539999999974
0
LINE
8
BLACK
6
CONTINUOUS
10
145.290284999999983
20
-84.4580600000000032
11
145.4713969999999961
21
-84.5330790000000007
0
LINE
8
BLACK
6
CONTINUOUS
10
145.4713969999999961
20
-84.5330790000000007
11
145.6343929999999887
21
-84.6419899999999927
0
LINE
8
BLACK
6
CONTINUOUS
10
145.6343929999999887
20
-84.6419899999999927
11
145.7730099999999993
21
-84.7806069999999892
0
LINE
8
BLACK
6
CONTINUOUS
10
145.7730099999999993
20
-84.7806069999999892
11
145.8819210000000055
21
-84.943602999999996
0
LINE
8
BLACK
6
CONTINUOUS
10
145.8819210000000055
20
-84.943602999999996
11
145.956940000000003
21
-85.1247149999999948
0
LINE
8
BLACK
6
CONTINUOUS
10
145.956940000000003
20
-85.1247149999999948
11
145.9951849999999922
21
-85.3169829999999934
0
LINE
8
BLACK
6
CONTINUOUS
10
145.9951849999999922
20
-85.3169829999999934
11
145.9951849999999922
21
-85.5130169999999907
0
LINE
8
BLACK
6
CONTINUOUS
10
145.9951849999999922
20
-85.5130169999999907
11
145.956940000000003
21
-85.7052849999999893
0
LINE
8
BLACK
6
CONTINUOUS
10
145.956940000000003
20
-85.7052849999999893
11
145.8819210000000055
21
-85.8863970000000023
0
LINE
8
BLACK
6
CONTINUOUS
10
145.8819210000000055
20
-85.8863970000000023
11
145.7730099999999993
21
-86.0493929999999949
0
LINE
8
BLACK
6
CONTINUOUS
10
145.7730099999999993
20
-86.0493929999999949
11
145.6343929999999887
21
-86.1880099999999914
0
LINE
8
BLACK
6
CONTINUOUS
10
145.6343929999999887
20
-86.1880099999999914
11
145.4713969999999961
21
-86.2969209999999975
0
LINE
8
BLACK
6
CONTINUOUS
10
145.4713969999999961
20
-86.2969209999999975
11
145.290284999999983
21
-86.3719399999999951
0
LINE
8
BLACK
6
CONTINUOUS
10
145.290284999999983
20
-86.3719399999999951
11
145.0980169999999987
21
-86.4101849999999985
0
LINE
8
BLACK
6
CONTINUOUS
10
145.0980169999999987
20
-86.4101849999999985
11
144.9019830000000013
21
-86.4101849999999985
0
LINE
8
BLACK
6
CONTINUOUS
10
144.9019830000000013
20
-86.4101849999999985
11
144.7097149999999885
21
-86.3719399999999951
0
LINE
8
BLACK
6
CONTINUOUS
10
144.7097149999999885
20
-86.3719399999999951
11
144.5286030000000039
21
-86.2969209999999975
0
LINE
8
BLACK
6
CONTINUOUS
10
144.5286030000000039
20
-86.2969209999999975
11
144.3656069999999829
21
-86.1880099999999914
0
LINE
8
BLACK
6
CONTINUOUS
10
144.3656069999999829
20
-86.1880099999999914
11
144.2269900000000007
21
-86.0493929999999949
0
LINE
8
BLACK
6
CONTINUOUS
10
144.2269900000000007
20
-86.0493929999999949
11
144.1180789999999945
21
-85.8863970000000023
0
LINE
8
BLACK
6
CONTINUOUS
10
144.1180789999999945
20
-85.8863970000000023
11
144.043059999999997
21
-85.7052849999999893
0
LINE
8
BLACK
6
CONTINUOUS
10
144.043059999999997
20
-85.7052849999999893
11
144.0048149999999794
21
-85.5130169999999907
0
LINE
8
BLACK
6
CONTINUOUS
10
144.0048149999999794
20
-85.5130169999999907
11
144.0048149999999794
21
-85.3169829999999934
0
LINE
8
BLACK
6
CONTINUOUS
10
144.0048149999999794
20
-85.3169829999999934
11
144.043059999999997
21
-85.1247149999999948
0
LINE
8
BLACK
6
CONTINUOUS
10
144.043059999999997
20
-85.1247149999999948
11
144.1180789999999945
21
-84.943602999999996
0
LINE
8
BLACK
6
CONTINUOUS
10
144.1180789999999945
20
-84.943602999999996
11
144.2269900000000007
21
-84.7806069999999892
0
LINE
8
BLACK
6
CONTINUOUS
10
144.2269900000000007
20
-84.7806069999999892
11
144.3656069999999829
21
-84.6419899999999927
0
LINE
8
BLACK
6
CONTINUOUS
10
144.3656069999999829
20
-84.6419899999999927
11
144.5286030000000039
21
-84.5330790000000007
0
LINE
8
BLACK
6
CONTINUOUS
10
144.5286030000000039
20
-84.5330790000000007
11
144.7097149999999885
21
-84.4580600000000032
0
LINE
8
BLACK
6
CONTINUOUS
10
144.7097149999999885
20
-84.4580600000000032
11
144.9019830000000013
21
-84.4198149999999998
0
LINE
8
BLACK
6
CONTINUOUS
10
144.9019830000000013
20
-84.4198149999999998
11
145.0980169999999987
21
-84.4198149999999998
0
LINE
8
BLACK
6
CONTINUOUS
10
145.0980169999999987
20
-84.4198149999999998
11
145.290284999999983
21
-84.4580600000000032
0
LINE
8
BLACK
6
CONTINUOUS
10
210.7722079999999778
20
-84.6042539999999974
11
210.873942999999997
21
-84.662990999999991
0
LINE
8
BLACK
6
CONTINUOUS
10
210.873942999999997
20
-84.662990999999991
11
210.9570089999999993
21
-84.7460569999999933
0
LINE
8
BLACK
6
CONTINUOUS
10
210.9570089999999993
20
-84.7460569999999933
11
211.0157459999999787
21
-84.8477919999999983
0
LINE
8
BLACK
6
CONTINUOUS
10
211.0157459999999787
20
-84.8477919999999983
11
211.046149999999983
21
-84.9612630000000024
0
LINE
8
BLACK
6
CONTINUOUS
10
211.046149999999983
20
-84.9612630000000024
11
211.046149999999983
21
-85.0787369999999896
0
LINE
8
BLACK
6
CONTINUOUS
10
211.046149999999983
20
-85.0787369999999896
11
211.0157459999999787
21
-85.1922079999999937
0
LINE
8
BLACK
6
CONTINUOUS
10
211.0157459999999787
20
-85.1922079999999937
11
210.9570089999999993
21
-85.2939429999999987
0
LINE
8
BLACK
6
CONTINUOUS
10
210.9570089999999993
20
-85.2939429999999987
11
210.873942999999997
21
-85.377009000000001
0
LINE
8
BLACK
6
CONTINUOUS
10
210.873942999999997
20
-85.377009000000001
11
210.7722079999999778
21
-85.4357459999999946
0
LINE
8
BLACK
6
CONTINUOUS
10
210.7722079999999778
20
-85.4357459999999946
11
210.6587370000000021
21
-85.466149999999999
0
LINE
8
BLACK
6
CONTINUOUS
10
210.6587370000000021
20
-85.466149999999999
11
210.5412629999999865
21
-85.466149999999999
0
LINE
8
BLACK
6
CONTINUOUS
10
210.5412629999999865
20
-85.466149999999999
11
210.4277919999999824
21
-85.4357459999999946
0
LINE
8
BLACK
6
CONTINUOUS
10
210.4277919999999824
20
-85.4357459999999946
11
210.3260569999999916
21
-85.377009000000001
0
LINE
8
BLACK
6
CONTINUOUS
10
210.3260569999999916
20
-85.377009000000001
11
210.2429909999999893
21
-85.2939429999999987
0
LINE
8
BLACK
6
CONTINUOUS
10
210.2429909999999893
20
-85.2939429999999987
11
210.1842539999999815
21
-85.1922079999999937
0
LINE
8
BLACK
6
CONTINUOUS
10
210.1842539999999815
20
-85.1922079999999937
11
210.1538499999999772
21
-85.0787369999999896
0
LINE
8
BLACK
6
CONTINUOUS
10
210.1538499999999772
20
-85.0787369999999896
11
210.1538499999999772
21
-84.9612630000000024
0
LINE
8
BLACK
6
CONTINUOUS
10
210.1538499999999772
20
-84.9612630000000024
11
210.1842539999999815
21
-84.8477919999999983
0
LINE
8
BLACK
6
CONTINUOUS
10
210.1842539999999815
20
-84.8477919999999983
11
210.2429909999999893
21
-84.7460569999999933
0
LINE
8
BLACK
6
CONTINUOUS
10
210.2429909999999893
20
-84.7460569999999933
11
210.3260569999999916
21
-84.662990999999991
0
LINE
8
BLACK
6
CONTINUOUS
10
210.3260569999999916
20
-84.662990999999991
11
210.4277919999999824
21
-84.6042539999999974
0
LINE
8
BLACK
6
CONTINUOUS
10
210.4277919999999824
20
-84.6042539999999974
11
210.5412629999999865
21
-84.5738499999999931
0
LINE
8
BLACK
6
CONTINUOUS
10
210.5412629999999865
20
-84.5738499999999931
11
210.6587370000000021
21
-84.5738499999999931
0
LINE
8
BLACK
6
CONTINUOUS
10
210.6587370000000021
20
-84.5738499999999931
11
210.7722079999999778
21
-84.6042539999999974
0
LINE
8
BLACK
6
CONTINUOUS
10
145.290284999999983
20
-81.918059999999997
11
145.4713969999999961
21
-81.9930789999999945
0
LINE
8
BLACK
6
CONTINUOUS
10
145.4713969999999961
20
-81.9930789999999945
11
145.6343929999999887
21
-82.1019900000000007
0
LINE
8
BLACK
6
CONTINUOUS
10
145.6343929999999887
20
-82.1019900000000007
11
145.7730099999999993
21
-82.2406069999999971
0
LINE
8
BLACK
6
CONTINUOUS
10
145.7730099999999993
20
-82.2406069999999971
11
145.8819210000000055
21
-82.4036029999999897
0
LINE
8
BLACK
6
CONTINUOUS
10
145.8819210000000055
20
-82.4036029999999897
11
145.956940000000003
21
-82.5847150000000028
0
LINE
8
BLACK
6
CONTINUOUS
10
145.956940000000003
20
-82.5847150000000028
11
145.9951849999999922
21
-82.7769830000000013
0
LINE
8
BLACK
6
CONTINUOUS
10
145.9951849999999922
20
-82.7769830000000013
11
145.9951849999999922
21
-82.9730169999999987
0
LINE
8
BLACK
6
CONTINUOUS
10
145.9951849999999922
20
-82.9730169999999987
11
145.956940000000003
21
-83.1652849999999972
0
LINE
8
BLACK
6
CONTINUOUS
10
145.956940000000003
20
-83.1652849999999972
11
145.8819210000000055
21
-83.3463969999999961
0
LINE
8
BLACK
6
CONTINUOUS
10
145.8819210000000055
20
-83.3463969999999961
11
145.7730099999999993
21
-83.5093930000000029
0
LINE
8
BLACK
6
CONTINUOUS
10
145.7730099999999993
20
-83.5093930000000029
11
145.6343929999999887
21
-83.6480099999999993
0
LINE
8
BLACK
6
CONTINUOUS
10
145.6343929999999887
20
-83.6480099999999993
11
145.4713969999999961
21
-83.7569209999999913
0
LINE
8
BLACK
6
CONTINUOUS
10
145.4713969999999961
20
-83.7569209999999913
11
145.290284999999983
21
-83.831940000000003
0
LINE
8
BLACK
6
CONTINUOUS
10
145.290284999999983
20
-83.831940000000003
11
145.0980169999999987
21
-83.8701849999999922
0
LINE
8
BLACK
6
CONTINUOUS
10
145.0980169999999987
20
-83.8701849999999922
11
144.9019830000000013
21
-83.8701849999999922
0
LINE
8
BLACK
6
CONTINUOUS
10
144.9019830000000013
20
-83.8701849999999922
11
144.7097149999999885
21
-83.831940000000003
0
LINE
8
BLACK
6
CONTINUOUS
10
144.7097149999999885
20
-83.831940000000003
11
144.5286030000000039
21
-83.7569209999999913
0
LINE
8
BLACK
6
CONTINUOUS
10
144.5286030000000039
20
-83.7569209999999913
11
144.3656069999999829
21
-83.6480099999999993
0
LINE
8
BLACK
6
CONTINUOUS
10
144.3656069999999829
20
-83.6480099999999993
11
144.2269900000000007
21
-83.5093930000000029
0
LINE
8
BLACK
6
CONTINUOUS
10
144.2269900000000007
20
-83.5093930000000029
11
144.1180789999999945
21
-83.3463969999999961
0
LINE
8
BLACK
6
CONTINUOUS
10
144.1180789999999945
20
-83.3463969999999961
11
144.043059999999997
21
-83.1652849999999972
0
LINE
8
BLACK
6
CONTINUOUS
10
144.043059999999997
20
-83.1652849999999972
11
144.0048149999999794
21
-82.9730169999999987
0
LINE
8
BLACK
6
CONTINUOUS
10
144.0048149999999794
20
-82.9730169999999987
11
144.0048149999999794
21
-82.7769830000000013
0
LINE
8
BLACK
6
CONTINUOUS
10
144.0048149999999794
20
-82.7769830000000013
11
144.043059999999997
21
-82.5847150000000028
0
LINE
8
BLACK
6
CONTINUOUS
10
144.043059999999997
20
-82.5847150000000028
11
144.1180789999999945
21
-82.4036029999999897
0
LINE
8
BLACK
6
CONTINUOUS
10
144.1180789999999945
20
-82.4036029999999897
11
144.2269900000000007
21
-82.2406069999999971
0
LINE
8
BLACK
6
CONTINUOUS
10
144.2269900000000007
20
-82.2406069999999971
11
144.3656069999999829
21
-82.1019900000000007
0
LINE
8
BLACK
6
CONTINUOUS
10
144.3656069999999829
20
-82.1019900000000007
11
144.5286030000000039
21
-81.9930789999999945
0
LINE
8
BLACK
6
CONTINUOUS
10
144.5286030000000039
20
-81.9930789999999945
11
144.7097149999999885
21
-81.918059999999997
0
LINE
8
BLACK
6
CONTINUOUS
10
144.7097149999999885
20
-81.918059999999997
11
144.9019830000000013
21
-81.8798149999999936
0
LINE
8
BLACK
6
CONTINUOUS
10
144.9019830000000013
20
-81.8798149999999936
11
145.0980169999999987
21
-81.8798149999999936
0
LINE
8
BLACK
6
CONTINUOUS
10
145.0980169999999987
20
-81.8798149999999936
11
145.290284999999983
21
-81.918059999999997
0
LINE
8
BLACK
6
CONTINUOUS
10
178.3602850000000046
20
-77.8530509999999936
11
178.5413969999999892
21
-77.9280699999999911
0
LINE
8
BLACK
6
CONTINUOUS
10
178.5413969999999892
20
-77.9280699999999911
11
178.7043929999999818
21
-78.0369809999999973
0
LINE
8
BLACK
6
CONTINUOUS
10
178.7043929999999818
20
-78.0369809999999973
11
178.8430099999999925
21
-78.1755979999999937
0
LINE
8
BLACK
6
CONTINUOUS
10
178.8430099999999925
20
-78.1755979999999937
11
178.9519209999999987
21
-78.3385940000000005
0
LINE
8
BLACK
6
CONTINUOUS
10
178.9519209999999987
20
-78.3385940000000005
11
179.0269399999999962
21
-78.5197059999999993
0
LINE
8
BLACK
6
CONTINUOUS
10
179.0269399999999962
20
-78.5197059999999993
11
179.0651849999999854
21
-78.7119739999999979
0
LINE
8
BLACK
6
CONTINUOUS
10
179.0651849999999854
20
-78.7119739999999979
11
179.0651849999999854
21
-78.9080079999999953
0
LINE
8
BLACK
6
CONTINUOUS
10
179.0651849999999854
20
-78.9080079999999953
11
179.0269399999999962
21
-79.1002759999999938
0
LINE
8
BLACK
6
CONTINUOUS
10
179.0269399999999962
20
-79.1002759999999938
11
178.9519209999999987
21
-79.2813879999999926
0
LINE
8
BLACK
6
CONTINUOUS
10
178.9519209999999987
20
-79.2813879999999926
11
178.8430099999999925
21
-79.4443839999999994
0
LINE
8
BLACK
6
CONTINUOUS
10
178.8430099999999925
20
-79.4443839999999994
11
178.7043929999999818
21
-79.5830009999999959
0
LINE
8
BLACK
6
CONTINUOUS
10
178.7043929999999818
20
-79.5830009999999959
11
178.5413969999999892
21
-79.6919120000000021
0
LINE
8
BLACK
6
CONTINUOUS
10
178.5413969999999892
20
-79.6919120000000021
11
178.3602850000000046
21
-79.7669309999999996
0
LINE
8
BLACK
6
CONTINUOUS
10
178.3602850000000046
20
-79.7669309999999996
11
178.1680169999999919
21
-79.805176000000003
0
LINE
8
BLACK
6
CONTINUOUS
10
178.1680169999999919
20
-79.805176000000003
11
177.9719829999999945
21
-79.805176000000003
0
LINE
8
BLACK
6
CONTINUOUS
10
177.9719829999999945
20
-79.805176000000003
11
177.7797149999999817
21
-79.7669309999999996
0
LINE
8
BLACK
6
CONTINUOUS
10
177.7797149999999817
20
-79.7669309999999996
11
177.5986029999999971
21
-79.6919120000000021
0
LINE
8
BLACK
6
CONTINUOUS
10
177.5986029999999971
20
-79.6919120000000021
11
177.4356070000000045
21
-79.5830009999999959
0
LINE
8
BLACK
6
CONTINUOUS
10
177.4356070000000045
20
-79.5830009999999959
11
177.2969899999999939
21
-79.4443839999999994
0
LINE
8
BLACK
6
CONTINUOUS
10
177.2969899999999939
20
-79.4443839999999994
11
177.1880789999999877
21
-79.2813879999999926
0
LINE
8
BLACK
6
CONTINUOUS
10
177.1880789999999877
20
-79.2813879999999926
11
177.1130599999999902
21
-79.1002759999999938
0
LINE
8
BLACK
6
CONTINUOUS
10
177.1130599999999902
20
-79.1002759999999938
11
177.074815000000001
21
-78.9080079999999953
0
LINE
8
BLACK
6
CONTINUOUS
10
177.074815000000001
20
-78.9080079999999953
11
177.074815000000001
21
-78.7119739999999979
0
LINE
8
BLACK
6
CONTINUOUS
10
177.074815000000001
20
-78.7119739999999979
11
177.1130599999999902
21
-78.5197059999999993
0
LINE
8
BLACK
6
CONTINUOUS
10
177.1130599999999902
20
-78.5197059999999993
11
177.1880789999999877
21
-78.3385940000000005
0
LINE
8
BLACK
6
CONTINUOUS
10
177.1880789999999877
20
-78.3385940000000005
11
177.2969899999999939
21
-78.1755979999999937
0
LINE
8
BLACK
6
CONTINUOUS
10
177.2969899999999939
20
-78.1755979999999937
11
177.4356070000000045
21
-78.0369809999999973
0
LINE
8
BLACK
6
CONTINUOUS
10
177.4356070000000045
20
-78.0369809999999973
11
177.5986029999999971
21
-77.9280699999999911
0
LINE
8
BLACK
6
CONTINUOUS
10
177.5986029999999971
20
-77.9280699999999911
11
177.7797149999999817
21
-77.8530509999999936
0
LINE
8
BLACK
6
CONTINUOUS
10
177.7797149999999817
20
-77.8530509999999936
11
177.9719829999999945
21
-77.8148059999999901
0
LINE
8
BLACK
6
CONTINUOUS
10
177.9719829999999945
20
-77.8148059999999901
11
178.1680169999999919
21
-77.8148059999999901
0
LINE
8
BLACK
6
CONTINUOUS
10
178.1680169999999919
20
-77.8148059999999901
11
178.3602850000000046
21
-77.8530509999999936
0
LINE
8
BLACK
6
CONTINUOUS
10
180.9002849999999967
20
-77.8530509999999936
11
181.0813969999999813
21
-77.9280699999999911
0
LINE
8
BLACK
6
CONTINUOUS
10
181.0813969999999813
20
-77.9280699999999911
11
181.2443930000000023
21
-78.0369809999999973
0
LINE
8
BLACK
6
CONTINUOUS
10
181.2443930000000023
20
-78.0369809999999973
11
181.3830099999999845
21
-78.1755979999999937
0
LINE
8
BLACK
6
CONTINUOUS
10
181.3830099999999845
20
-78.1755979999999937
11
181.4919209999999907
21
-78.3385940000000005
0
LINE
8
BLACK
6
CONTINUOUS
10
181.4919209999999907
20
-78.3385940000000005
11
181.5669399999999882
21
-78.5197059999999993
0
LINE
8
BLACK
6
CONTINUOUS
10
181.5669399999999882
20
-78.5197059999999993
11
181.6051850000000059
21
-78.7119739999999979
0
LINE
8
BLACK
6
CONTINUOUS
10
181.6051850000000059
20
-78.7119739999999979
11
181.6051850000000059
21
-78.9080079999999953
0
LINE
8
BLACK
6
CONTINUOUS
10
181.6051850000000059
20
-78.9080079999999953
11
181.5669399999999882
21
-79.1002759999999938
0
LINE
8
BLACK
6
CONTINUOUS
10
181.5669399999999882
20
-79.1002759999999938
11
181.4919209999999907
21
-79.2813879999999926
0
LINE
8
BLACK
6
CONTINUOUS
10
181.4919209999999907
20
-79.2813879999999926
11
181.3830099999999845
21
-79.4443839999999994
0
LINE
8
BLACK
6
CONTINUOUS
10
181.3830099999999845
20
-79.4443839999999994
11
181.2443930000000023
21
-79.5830009999999959
0
LINE
8
BLACK
6
CONTINUOUS
10
181.2443930000000023
20
-79.5830009999999959
11
181.0813969999999813
21
-79.6919120000000021
0
LINE
8
BLACK
6
CONTINUOUS
10
181.0813969999999813
20
-79.6919120000000021
11
180.9002849999999967
21
-79.7669309999999996
0
LINE
8
BLACK
6
CONTINUOUS
10
180.9002849999999967
20
-79.7669309999999996
11
180.7080169999999839
21
-79.805176000000003
0
LINE
8
BLACK
6
CONTINUOUS
10
180.7080169999999839
20
-79.805176000000003
11
180.5119829999999865
21
-79.805176000000003
0
LINE
8
BLACK
6
CONTINUOUS
10
180.5119829999999865
20
-79.805176000000003
11
180.3197150000000022
21
-79.7669309999999996
0
LINE
8
BLACK
6
CONTINUOUS
10
180.3197150000000022
20
-79.7669309999999996
11
180.1386029999999892
21
-79.6919120000000021
0
LINE
8
BLACK
6
CONTINUOUS
10
180.1386029999999892
20
-79.6919120000000021
11
179.9756069999999966
21
-79.5830009999999959
0
LINE
8
BLACK
6
CONTINUOUS
10
179.9756069999999966
20
-79.5830009999999959
11
179.8369899999999859
21
-79.4443839999999994
0
LINE
8
BLACK
6
CONTINUOUS
10
179.8369899999999859
20
-79.4443839999999994
11
179.7280789999999797
21
-79.2813879999999926
0
LINE
8
BLACK
6
CONTINUOUS
10
179.7280789999999797
20
-79.2813879999999926
11
179.6530599999999822
21
-79.1002759999999938
0
LINE
8
BLACK
6
CONTINUOUS
10
179.6530599999999822
20
-79.1002759999999938
11
179.614814999999993
21
-78.9080079999999953
0
LINE
8
BLACK
6
CONTINUOUS
10
179.614814999999993
20
-78.9080079999999953
11
179.614814999999993
21
-78.7119739999999979
0
LINE
8
BLACK
6
CONTINUOUS
10
179.614814999999993
20
-78.7119739999999979
11
179.6530599999999822
21
-78.5197059999999993
0
LINE
8
BLACK
6
CONTINUOUS
10
179.6530599999999822
20
-78.5197059999999993
11
179.7280789999999797
21
-78.3385940000000005
0
LINE
8
BLACK
6
CONTINUOUS
10
179.7280789999999797
20
-78.3385940000000005
11
179.8369899999999859
21
-78.1755979999999937
0
LINE
8
BLACK
6
CONTINUOUS
10
179.8369899999999859
20
-78.1755979999999937
11
179.9756069999999966
21
-78.0369809999999973
0
LINE
8
BLACK
6
CONTINUOUS
10
179.9756069999999966
20
-78.0369809999999973
11
180.1386029999999892
21
-77.9280699999999911
0
LINE
8
BLACK
6
CONTINUOUS
10
180.1386029999999892
20
-77.9280699999999911
11
180.3197150000000022
21
-77.8530509999999936
0
LINE
8
BLACK
6
CONTINUOUS
10
180.3197150000000022
20
-77.8530509999999936
11
180.5119829999999865
21
-77.8148059999999901
0
LINE
8
BLACK
6
CONTINUOUS
10
180.5119829999999865
20
-77.8148059999999901
11
180.7080169999999839
21
-77.8148059999999901
0
LINE
8
BLACK
6
CONTINUOUS
10
180.7080169999999839
20
-77.8148059999999901
11
180.9002849999999967
21
-77.8530509999999936
0
LINE
8
BLACK
6
CONTINUOUS
10
183.4402849999999887
20
-77.8530509999999936
11
183.6213970000000018
21
-77.9280699999999911
0
LINE
8
BLACK
6
CONTINUOUS
10
183.6213970000000018
20
-77.9280699999999911
11
183.7843929999999943
21
-78.0369809999999973
0
LINE
8
BLACK
6
CONTINUOUS
10
183.7843929999999943
20
-78.0369809999999973
11
183.923010000000005
21
-78.1755979999999937
0
LINE
8
BLACK
6
CONTINUOUS
10
183.923010000000005
20
-78.1755979999999937
11
184.0319209999999828
21
-78.3385940000000005
0
LINE
8
BLACK
6
CONTINUOUS
10
184.0319209999999828
20
-78.3385940000000005
11
184.1069399999999803
21
-78.5197059999999993
0
LINE
8
BLACK
6
CONTINUOUS
10
184.1069399999999803
20
-78.5197059999999993
11
184.1451849999999979
21
-78.7119739999999979
0
LINE
8
BLACK
6
CONTINUOUS
10
184.1451849999999979
20
-78.7119739999999979
11
184.1451849999999979
21
-78.9080079999999953
0
LINE
8
BLACK
6
CONTINUOUS
10
184.1451849999999979
20
-78.9080079999999953
11
184.1069399999999803
21
-79.1002759999999938
0
LINE
8
BLACK
6
CONTINUOUS
10
184.1069399999999803
20
-79.1002759999999938
11
184.0319209999999828
21
-79.2813879999999926
0
LINE
8
BLACK
6
CONTINUOUS
10
184.0319209999999828
20
-79.2813879999999926
11
183.923010000000005
21
-79.4443839999999994
0
LINE
8
BLACK
6
CONTINUOUS
10
183.923010000000005
20
-79.4443839999999994
11
183.7843929999999943
21
-79.5830009999999959
0
LINE
8
BLACK
6
CONTINUOUS
10
183.7843929999999943
20
-79.5830009999999959
11
183.6213970000000018
21
-79.6919120000000021
0
LINE
8
BLACK
6
CONTINUOUS
10
183.6213970000000018
20
-79.6919120000000021
11
183.4402849999999887
21
-79.7669309999999996
0
LINE
8
BLACK
6
CONTINUOUS
10
183.4402849999999887
20
-79.7669309999999996
11
183.2480170000000044
21
-79.805176000000003
0
LINE
8
BLACK
6
CONTINUOUS
10
183.2480170000000044
20
-79.805176000000003
11
183.0519829999999786
21
-79.805176000000003
0
LINE
8
BLACK
6
CONTINUOUS
10
183.0519829999999786
20
-79.805176000000003
11
182.8597149999999942
21
-79.7669309999999996
0
LINE
8
BLACK
6
CONTINUOUS
10
182.8597149999999942
20
-79.7669309999999996
11
182.6786029999999812
21
-79.6919120000000021
0
LINE
8
BLACK
6
CONTINUOUS
10
182.6786029999999812
20
-79.6919120000000021
11
182.5156069999999886
21
-79.5830009999999959
0
LINE
8
BLACK
6
CONTINUOUS
10
182.5156069999999886
20
-79.5830009999999959
11
182.376989999999978
21
-79.4443839999999994
0
LINE
8
BLACK
6
CONTINUOUS
10
182.376989999999978
20
-79.4443839999999994
11
182.2680790000000002
21
-79.2813879999999926
0
LINE
8
BLACK
6
CONTINUOUS
10
182.2680790000000002
20
-79.2813879999999926
11
182.1930600000000027
21
-79.1002759999999938
0
LINE
8
BLACK
6
CONTINUOUS
10
182.1930600000000027
20
-79.1002759999999938
11
182.154814999999985
21
-78.9080079999999953
0
LINE
8
BLACK
6
CONTINUOUS
10
182.154814999999985
20
-78.9080079999999953
11
182.154814999999985
21
-78.7119739999999979
0
LINE
8
BLACK
6
CONTINUOUS
10
182.154814999999985
20
-78.7119739999999979
11
182.1930600000000027
21
-78.5197059999999993
0
LINE
8
BLACK
6
CONTINUOUS
10
182.1930600000000027
20
-78.5197059999999993
11
182.2680790000000002
21
-78.3385940000000005
0
LINE
8
BLACK
6
CONTINUOUS
10
182.2680790000000002
20
-78.3385940000000005
11
182.376989999999978
21
-78.1755979999999937
0
LINE
8
BLACK
6
CONTINUOUS
10
182.376989999999978
20
-78.1755979999999937
11
182.5156069999999886
21
-78.0369809999999973
0
LINE
8
BLACK
6
CONTINUOUS
10
182.5156069999999886
20
-78.0369809999999973
11
182.6786029999999812
21
-77.9280699999999911
0
LINE
8
BLACK
6
CONTINUOUS
10
182.6786029999999812
20
-77.9280699999999911
11
182.8597149999999942
21
-77.8530509999999936
0
LINE
8
BLACK
6
CONTINUOUS
10
182.8597149999999942
20
-77.8530509999999936
11
183.0519829999999786
21
-77.8148059999999901
0
LINE
8
BLACK
6
CONTINUOUS
10
183.0519829999999786
20
-77.8148059999999901
11
183.2480170000000044
21
-77.8148059999999901
0
LINE
8
BLACK
6
CONTINUOUS
10
183.2480170000000044
20
-77.8148059999999901
11
183.4402849999999887
21
-77.8530509999999936
0
LINE
8
BLACK
6
CONTINUOUS
10
185.9802849999999808
20
-77.8530509999999936
11
186.1613969999999938
21
-77.9280699999999911
0
LINE
8
BLACK
6
CONTINUOUS
10
186.1613969999999938
20
-77.9280699999999911
11
186.3243929999999864
21
-78.0369809999999973
0
LINE
8
BLACK
6
CONTINUOUS
10
186.3243929999999864
20
-78.0369809999999973
11
186.463009999999997
21
-78.1755979999999937
0
LINE
8
BLACK
6
CONTINUOUS
10
186.463009999999997
20
-78.1755979999999937
11
186.5719210000000032
21
-78.3385940000000005
0
LINE
8
BLACK
6
CONTINUOUS
10
186.5719210000000032
20
-78.3385940000000005
11
186.6469400000000007
21
-78.5197059999999993
0
LINE
8
BLACK
6
CONTINUOUS
10
186.6469400000000007
20
-78.5197059999999993
11
186.6851849999999899
21
-78.7119739999999979
0
LINE
8
BLACK
6
CONTINUOUS
10
186.6851849999999899
20
-78.7119739999999979
11
186.6851849999999899
21
-78.9080079999999953
0
LINE
8
BLACK
6
CONTINUOUS
10
186.6851849999999899
20
-78.9080079999999953
11
186.6469400000000007
21
-79.1002759999999938
0
LINE
8
BLACK
6
CONTINUOUS
10
186.6469400000000007
20
-79.1002759999999938
11
186.5719210000000032
21
-79.2813879999999926
0
LINE
8
BLACK
6
CONTINUOUS
10
186.5719210000000032
20
-79.2813879999999926
11
186.463009999999997
21
-79.4443839999999994
0
LINE
8
BLACK
6
CONTINUOUS
10
186.463009999999997
20
-79.4443839999999994
11
186.3243929999999864
21
-79.5830009999999959
0
LINE
8
BLACK
6
CONTINUOUS
10
186.3243929999999864
20
-79.5830009999999959
11
186.1613969999999938
21
-79.6919120000000021
0
LINE
8
BLACK
6
CONTINUOUS
10
186.1613969999999938
20
-79.6919120000000021
11
185.9802849999999808
21
-79.7669309999999996
0
LINE
8
BLACK
6
CONTINUOUS
10
185.9802849999999808
20
-79.7669309999999996
11
185.7880169999999964
21
-79.805176000000003
0
LINE
8
BLACK
6
CONTINUOUS
10
185.7880169999999964
20
-79.805176000000003
11
185.591982999999999
21
-79.805176000000003
0
LINE
8
BLACK
6
CONTINUOUS
10
185.591982999999999
20
-79.805176000000003
11
185.3997149999999863
21
-79.7669309999999996
0
LINE
8
BLACK
6
CONTINUOUS
10
185.3997149999999863
20
-79.7669309999999996
11
185.2186030000000017
21
-79.6919120000000021
0
LINE
8
BLACK
6
CONTINUOUS
10
185.2186030000000017
20
-79.6919120000000021
11
185.0556069999999806
21
-79.5830009999999959
0
LINE
8
BLACK
6
CONTINUOUS
10
185.0556069999999806
20
-79.5830009999999959
11
184.9169899999999984
21
-79.4443839999999994
0
LINE
8
BLACK
6
CONTINUOUS
10
184.9169899999999984
20
-79.4443839999999994
11
184.8080789999999922
21
-79.2813879999999926
0
LINE
8
BLACK
6
CONTINUOUS
10
184.8080789999999922
20
-79.2813879999999926
11
184.7330599999999947
21
-79.1002759999999938
0
LINE
8
BLACK
6
CONTINUOUS
10
184.7330599999999947
20
-79.1002759999999938
11
184.6948150000000055
21
-78.9080079999999953
0
LINE
8
BLACK
6
CONTINUOUS
10
184.6948150000000055
20
-78.9080079999999953
11
184.6948150000000055
21
-78.7119739999999979
0
LINE
8
BLACK
6
CONTINUOUS
10
184.6948150000000055
20
-78.7119739999999979
11
184.7330599999999947
21
-78.5197059999999993
0
LINE
8
BLACK
6
CONTINUOUS
10
184.7330599999999947
20
-78.5197059999999993
11
184.8080789999999922
21
-78.3385940000000005
0
LINE
8
BLACK
6
CONTINUOUS
10
184.8080789999999922
20
-78.3385940000000005
11
184.9169899999999984
21
-78.1755979999999937
0
LINE
8
BLACK
6
CONTINUOUS
10
184.9169899999999984
20
-78.1755979999999937
11
185.0556069999999806
21
-78.0369809999999973
0
LINE
8
BLACK
6
CONTINUOUS
10
185.0556069999999806
20
-78.0369809999999973
11
185.2186030000000017
21
-77.9280699999999911
0
LINE
8
BLACK
6
CONTINUOUS
10
185.2186030000000017
20
-77.9280699999999911
11
185.3997149999999863
21
-77.8530509999999936
0
LINE
8
BLACK
6
CONTINUOUS
10
185.3997149999999863
20
-77.8530509999999936
11
185.591982999999999
21
-77.8148059999999901
0
LINE
8
BLACK
6
CONTINUOUS
10
185.591982999999999
20
-77.8148059999999901
11
185.7880169999999964
21
-77.8148059999999901
0
LINE
8
BLACK
6
CONTINUOUS
10
185.7880169999999964
20
-77.8148059999999901
11
185.9802849999999808
21
-77.8530509999999936
0
LINE
8
BLACK
6
CONTINUOUS
10
188.5202850000000012
20
-77.8530509999999936
11
188.7013969999999858
21
-77.9280699999999911
0
LINE
8
BLACK
6
CONTINUOUS
10
188.7013969999999858
20
-77.9280699999999911
11
188.8643929999999784
21
-78.0369809999999973
0
LINE
8
BLACK
6
CONTINUOUS
10
188.8643929999999784
20
-78.0369809999999973
11
189.0030099999999891
21
-78.1755979999999937
0
LINE
8
BLACK
6
CONTINUOUS
10
189.0030099999999891
20
-78.1755979999999937
11
189.1119209999999953
21
-78.3385940000000005
0
LINE
8
BLACK
6
CONTINUOUS
10
189.1119209999999953
20
-78.3385940000000005
11
189.1869399999999928
21
-78.5197059999999993
0
LINE
8
BLACK
6
CONTINUOUS
10
189.1869399999999928
20
-78.5197059999999993
11
189.225184999999982
21
-78.7119739999999979
0
LINE
8
BLACK
6
CONTINUOUS
10
189.225184999999982
20
-78.7119739999999979
11
189.225184999999982
21
-78.9080079999999953
0
LINE
8
BLACK
6
CONTINUOUS
10
189.225184999999982
20
-78.9080079999999953
11
189.1869399999999928
21
-79.1002759999999938
0
LINE
8
BLACK
6
CONTINUOUS
10
189.1869399999999928
20
-79.1002759999999938
11
189.1119209999999953
21
-79.2813879999999926
0
LINE
8
BLACK
6
CONTINUOUS
10
189.1119209999999953
20
-79.2813879999999926
11
189.0030099999999891
21
-79.4443839999999994
0
LINE
8
BLACK
6
CONTINUOUS
10
189.0030099999999891
20
-79.4443839999999994
11
188.8643929999999784
21
-79.5830009999999959
0
LINE
8
BLACK
6
CONTINUOUS
10
188.8643929999999784
20
-79.5830009999999959
11
188.7013969999999858
21
-79.6919120000000021
0
LINE
8
BLACK
6
CONTINUOUS
10
188.7013969999999858
20
-79.6919120000000021
11
188.5202850000000012
21
-79.7669309999999996
0
LINE
8
BLACK
6
CONTINUOUS
10
188.5202850000000012
20
-79.7669309999999996
11
188.3280169999999885
21
-79.805176000000003
0
LINE
8
BLACK
6
CONTINUOUS
10
188.3280169999999885
20
-79.805176000000003
11
188.1319829999999911
21
-79.805176000000003
0
LINE
8
BLACK
6
CONTINUOUS
10
188.1319829999999911
20
-79.805176000000003
11
187.9397149999999783
21
-79.7669309999999996
0
LINE
8
BLACK
6
CONTINUOUS
10
187.9397149999999783
20
-79.7669309999999996
11
187.7586029999999937
21
-79.6919120000000021
0
LINE
8
BLACK
6
CONTINUOUS
10
187.7586029999999937
20
-79.6919120000000021
11
187.5956070000000011
21
-79.5830009999999959
0
LINE
8
BLACK
6
CONTINUOUS
10
187.5956070000000011
20
-79.5830009999999959
11
187.4569899999999905
21
-79.4443839999999994
0
LINE
8
BLACK
6
CONTINUOUS
10
187.4569899999999905
20
-79.4443839999999994
11
187.3480789999999843
21
-79.2813879999999926
0
LINE
8
BLACK
6
CONTINUOUS
10
187.3480789999999843
20
-79.2813879999999926
11
187.2730599999999868
21
-79.1002759999999938
0
LINE
8
BLACK
6
CONTINUOUS
10
187.2730599999999868
20
-79.1002759999999938
11
187.2348149999999976
21
-78.9080079999999953
0
LINE
8
BLACK
6
CONTINUOUS
10
187.2348149999999976
20
-78.9080079999999953
11
187.2348149999999976
21
-78.7119739999999979
0
LINE
8
BLACK
6
CONTINUOUS
10
187.2348149999999976
20
-78.7119739999999979
11
187.2730599999999868
21
-78.5197059999999993
0
LINE
8
BLACK
6
CONTINUOUS
10
187.2730599999999868
20
-78.5197059999999993
11
187.3480789999999843
21
-78.3385940000000005
0
LINE
8
BLACK
6
CONTINUOUS
10
187.3480789999999843
20
-78.3385940000000005
11
187.4569899999999905
21
-78.1755979999999937
0
LINE
8
BLACK
6
CONTINUOUS
10
187.4569899999999905
20
-78.1755979999999937
11
187.5956070000000011
21
-78.0369809999999973
0
LINE
8
BLACK
6
CONTINUOUS
10
187.5956070000000011
20
-78.0369809999999973
11
187.7586029999999937
21
-77.9280699999999911
0
LINE
8
BLACK
6
CONTINUOUS
10
187.7586029999999937
20
-77.9280699999999911
11
187.9397149999999783
21
-77.8530509999999936
0
LINE
8
BLACK
6
CONTINUOUS
10
187.9397149999999783
20
-77.8530509999999936
11
188.1319829999999911
21
-77.8148059999999901
0
LINE
8
BLACK
6
CONTINUOUS
10
188.1319829999999911
20
-77.8148059999999901
11
188.3280169999999885
21
-77.8148059999999901
0
LINE
8
BLACK
6
CONTINUOUS
10
188.3280169999999885
20
-77.8148059999999901
11
188.5202850000000012
21
-77.8530509999999936
0
LINE
8
BLACK
6
CONTINUOUS
10
191.0602849999999933
20
-77.8530509999999936
11
191.2413969999999779
21
-77.9280699999999911
0
LINE
8
BLACK
6
CONTINUOUS
10
191.2413969999999779
20
-77.9280699999999911
11
191.4043929999999989
21
-78.0369809999999973
0
LINE
8
BLACK
6
CONTINUOUS
10
191.4043929999999989
20
-78.0369809999999973
11
191.5430099999999811
21
-78.1755979999999937
0
LINE
8
BLACK
6
CONTINUOUS
10
191.5430099999999811
20
-78.1755979999999937
11
191.6519209999999873
21
-78.3385940000000005
0
LINE
8
BLACK
6
CONTINUOUS
10
191.6519209999999873
20
-78.3385940000000005
11
191.7269399999999848
21
-78.5197059999999993
0
LINE
8
BLACK
6
CONTINUOUS
10
191.7269399999999848
20
-78.5197059999999993
11
191.7651850000000024
21
-78.7119739999999979
0
LINE
8
BLACK
6
CONTINUOUS
10
191.7651850000000024
20
-78.7119739999999979
11
191.7651850000000024
21
-78.9080079999999953
0
LINE
8
BLACK
6
CONTINUOUS
10
191.7651850000000024
20
-78.9080079999999953
11
191.7269399999999848
21
-79.1002759999999938
0
LINE
8
BLACK
6
CONTINUOUS
10
191.7269399999999848
20
-79.1002759999999938
11
191.6519209999999873
21
-79.2813879999999926
0
LINE
8
BLACK
6
CONTINUOUS
10
191.6519209999999873
20
-79.2813879999999926
11
191.5430099999999811
21
-79.4443839999999994
0
LINE
8
BLACK
6
CONTINUOUS
10
191.5430099999999811
20
-79.4443839999999994
11
191.4043929999999989
21
-79.5830009999999959
0
LINE
8
BLACK
6
CONTINUOUS
10
191.4043929999999989
20
-79.5830009999999959
11
191.2413969999999779
21
-79.6919120000000021
0
LINE
8
BLACK
6
CONTINUOUS
10
191.2413969999999779
20
-79.6919120000000021
11
191.0602849999999933
21
-79.7669309999999996
0
LINE
8
BLACK
6
CONTINUOUS
10
191.0602849999999933
20
-79.7669309999999996
11
190.8680169999999805
21
-79.805176000000003
0
LINE
8
BLACK
6
CONTINUOUS
10
190.8680169999999805
20
-79.805176000000003
11
190.6719829999999831
21
-79.805176000000003
0
LINE
8
BLACK
6
CONTINUOUS
10
190.6719829999999831
20
-79.805176000000003
11
190.4797149999999988
21
-79.7669309999999996
0
LINE
8
BLACK
6
CONTINUOUS
10
190.4797149999999988
20
-79.7669309999999996
11
190.2986029999999857
21
-79.6919120000000021
0
LINE
8
BLACK
6
CONTINUOUS
10
190.2986029999999857
20
-79.6919120000000021
11
190.1356069999999931
21
-79.5830009999999959
0
LINE
8
BLACK
6
CONTINUOUS
10
190.1356069999999931
20
-79.5830009999999959
11
189.9969899999999825
21
-79.4443839999999994
0
LINE
8
BLACK
6
CONTINUOUS
10
189.9969899999999825
20
-79.4443839999999994
11
189.8880790000000047
21
-79.2813879999999926
0
LINE
8
BLACK
6
CONTINUOUS
10
189.8880790000000047
20
-79.2813879999999926
11
189.8130599999999788
21
-79.1002759999999938
0
LINE
8
BLACK
6
CONTINUOUS
10
189.8130599999999788
20
-79.1002759999999938
11
189.7748149999999896
21
-78.9080079999999953
0
LINE
8
BLACK
6
CONTINUOUS
10
189.7748149999999896
20
-78.9080079999999953
11
189.7748149999999896
21
-78.7119739999999979
0
LINE
8
BLACK
6
CONTINUOUS
10
189.7748149999999896
20
-78.7119739999999979
11
189.8130599999999788
21
-78.5197059999999993
0
LINE
8
BLACK
6
CONTINUOUS
10
189.8130599999999788
20
-78.5197059999999993
11
189.8880790000000047
21
-78.3385940000000005
0
LINE
8
BLACK
6
CONTINUOUS
10
189.8880790000000047
20
-78.3385940000000005
11
189.9969899999999825
21
-78.1755979999999937
0
LINE
8
BLACK
6
CONTINUOUS
10
189.9969899999999825
20
-78.1755979999999937
11
190.1356069999999931
21
-78.0369809999999973
0
LINE
8
BLACK
6
CONTINUOUS
10
190.1356069999999931
20
-78.0369809999999973
11
190.2986029999999857
21
-77.9280699999999911
0
LINE
8
BLACK
6
CONTINUOUS
10
190.2986029999999857
20
-77.9280699999999911
11
190.4797149999999988
21
-77.8530509999999936
0
LINE
8
BLACK
6
CONTINUOUS
10
190.4797149999999988
20
-77.8530509999999936
11
190.6719829999999831
21
-77.8148059999999901
0
LINE
8
BLACK
6
CONTINUOUS
10
190.6719829999999831
20
-77.8148059999999901
11
190.8680169999999805
21
-77.8148059999999901
0
LINE
8
BLACK
6
CONTINUOUS
10
190.8680169999999805
20
-77.8148059999999901
11
191.0602849999999933
21
-77.8530509999999936
0
LINE
8
BLACK
6
CONTINUOUS
10
193.6002849999999853
20
-77.8530509999999936
11
193.7813969999999983
21
-77.9280699999999911
0
LINE
8
BLACK
6
CONTINUOUS
10
193.7813969999999983
20
-77.9280699999999911
11
193.9443929999999909
21
-78.0369809999999973
0
LINE
8
BLACK
6
CONTINUOUS
10
193.9443929999999909
20
-78.0369809999999973
11
194.0830100000000016
21
-78.1755979999999937
0
LINE
8
BLACK
6
CONTINUOUS
10
194.0830100000000016
20
-78.1755979999999937
11
194.1919209999999794
21
-78.3385940000000005
0
LINE
8
BLACK
6
CONTINUOUS
10
194.1919209999999794
20
-78.3385940000000005
11
194.2669400000000053
21
-78.5197059999999993
0
LINE
8
BLACK
6
CONTINUOUS
10
194.2669400000000053
20
-78.5197059999999993
11
194.3051849999999945
21
-78.7119739999999979
0
LINE
8
BLACK
6
CONTINUOUS
10
194.3051849999999945
20
-78.7119739999999979
11
194.3051849999999945
21
-78.9080079999999953
0
LINE
8
BLACK
6
CONTINUOUS
10
194.3051849999999945
20
-78.9080079999999953
11
194.2669400000000053
21
-79.1002759999999938
0
LINE
8
BLACK
6
CONTINUOUS
10
194.2669400000000053
20
-79.1002759999999938
11
194.1919209999999794
21
-79.2813879999999926
0
LINE
8
BLACK
6
CONTINUOUS
10
194.1919209999999794
20
-79.2813879999999926
11
194.0830100000000016
21
-79.4443839999999994
0
LINE
8
BLACK
6
CONTINUOUS
10
194.0830100000000016
20
-79.4443839999999994
11
193.9443929999999909
21
-79.5830009999999959
0
LINE
8
BLACK
6
CONTINUOUS
10
193.9443929999999909
20
-79.5830009999999959
11
193.7813969999999983
21
-79.6919120000000021
0
LINE
8
BLACK
6
CONTINUOUS
10
193.7813969999999983
20
-79.6919120000000021
11
193.6002849999999853
21
-79.7669309999999996
0
LINE
8
BLACK
6
CONTINUOUS
10
193.6002849999999853
20
-79.7669309999999996
11
193.408017000000001
21
-79.805176000000003
0
LINE
8
BLACK
6
CONTINUOUS
10
193.408017000000001
20
-79.805176000000003
11
193.2119830000000036
21
-79.805176000000003
0
LINE
8
BLACK
6
CONTINUOUS
10
193.2119830000000036
20
-79.805176000000003
11
193.0197149999999908
21
-79.7669309999999996
0
LINE
8
BLACK
6
CONTINUOUS
10
193.0197149999999908
20
-79.7669309999999996
11
192.8386029999999778
21
-79.6919120000000021
0
LINE
8
BLACK
6
CONTINUOUS
10
192.8386029999999778
20
-79.6919120000000021
11
192.6756069999999852
21
-79.5830009999999959
0
LINE
8
BLACK
6
CONTINUOUS
10
192.6756069999999852
20
-79.5830009999999959
11
192.536990000000003
21
-79.4443839999999994
0
LINE
8
BLACK
6
CONTINUOUS
10
192.536990000000003
20
-79.4443839999999994
11
192.4280789999999968
21
-79.2813879999999926
0
LINE
8
BLACK
6
CONTINUOUS
10
192.4280789999999968
20
-79.2813879999999926
11
192.3530599999999993
21
-79.1002759999999938
0
LINE
8
BLACK
6
CONTINUOUS
10
192.3530599999999993
20
-79.1002759999999938
11
192.3148149999999816
21
-78.9080079999999953
0
LINE
8
BLACK
6
CONTINUOUS
10
192.3148149999999816
20
-78.9080079999999953
11
192.3148149999999816
21
-78.7119739999999979
0
LINE
8
BLACK
6
CONTINUOUS
10
192.3148149999999816
20
-78.7119739999999979
11
192.3530599999999993
21
-78.5197059999999993
0
LINE
8
BLACK
6
CONTINUOUS
10
192.3530599999999993
20
-78.5197059999999993
11
192.4280789999999968
21
-78.3385940000000005
0
LINE
8
BLACK
6
CONTINUOUS
10
192.4280789999999968
20
-78.3385940000000005
11
192.536990000000003
21
-78.1755979999999937
0
LINE
8
BLACK
6
CONTINUOUS
10
192.536990000000003
20
-78.1755979999999937
11
192.6756069999999852
21
-78.0369809999999973
0
LINE
8
BLACK
6
CONTINUOUS
10
192.6756069999999852
20
-78.0369809999999973
11
192.8386029999999778
21
-77.9280699999999911
0
LINE
8
BLACK
6
CONTINUOUS
10
192.8386029999999778
20
-77.9280699999999911
11
193.0197149999999908
21
-77.8530509999999936
0
LINE
8
BLACK
6
CONTINUOUS
10
193.0197149999999908
20
-77.8530509999999936
11
193.2119830000000036
21
-77.8148059999999901
0
LINE
8
BLACK
6
CONTINUOUS
10
193.2119830000000036
20
-77.8148059999999901
11
193.408017000000001
21
-77.8148059999999901
0
LINE
8
BLACK
6
CONTINUOUS
10
193.408017000000001
20
-77.8148059999999901
11
193.6002849999999853
21
-77.8530509999999936
0
LINE
8
BLACK
6
CONTINUOUS
10
196.1402849999999773
20
-77.8530509999999936
11
196.3213969999999904
21
-77.9280699999999911
0
LINE
8
BLACK
6
CONTINUOUS
10
196.3213969999999904
20
-77.9280699999999911
11
196.484392999999983
21
-78.0369809999999973
0
LINE
8
BLACK
6
CONTINUOUS
10
196.484392999999983
20
-78.0369809999999973
11
196.6230099999999936
21
-78.1755979999999937
0
LINE
8
BLACK
6
CONTINUOUS
10
196.6230099999999936
20
-78.1755979999999937
11
196.7319209999999998
21
-78.3385940000000005
0
LINE
8
BLACK
6
CONTINUOUS
10
196.7319209999999998
20
-78.3385940000000005
11
196.8069399999999973
21
-78.5197059999999993
0
LINE
8
BLACK
6
CONTINUOUS
10
196.8069399999999973
20
-78.5197059999999993
11
196.8451849999999865
21
-78.7119739999999979
0
LINE
8
BLACK
6
CONTINUOUS
10
196.8451849999999865
20
-78.7119739999999979
11
196.8451849999999865
21
-78.9080079999999953
0
LINE
8
BLACK
6
CONTINUOUS
10
196.8451849999999865
20
-78.9080079999999953
11
196.8069399999999973
21
-79.1002759999999938
0
LINE
8
BLACK
6
CONTINUOUS
10
196.8069399999999973
20
-79.1002759999999938
11
196.7319209999999998
21
-79.2813879999999926
0
LINE
8
BLACK
6
CONTINUOUS
10
196.7319209999999998
20
-79.2813879999999926
11
196.6230099999999936
21
-79.4443839999999994
0
LINE
8
BLACK
6
CONTINUOUS
10
196.6230099999999936
20
-79.4443839999999994
11
196.484392999999983
21
-79.5830009999999959
0
LINE
8
BLACK
6
CONTINUOUS
10
196.484392999999983
20
-79.5830009999999959
11
196.3213969999999904
21
-79.6919120000000021
0
LINE
8
BLACK
6
CONTINUOUS
10
196.3213969999999904
20
-79.6919120000000021
11
196.1402849999999773
21
-79.7669309999999996
0
LINE
8
BLACK
6
CONTINUOUS
10
196.1402849999999773
20
-79.7669309999999996
11
195.948016999999993
21
-79.805176000000003
0
LINE
8
BLACK
6
CONTINUOUS
10
195.948016999999993
20
-79.805176000000003
11
195.7519829999999956
21
-79.805176000000003
0
LINE
8
BLACK
6
CONTINUOUS
10
195.7519829999999956
20
-79.805176000000003
11
195.5597149999999829
21
-79.7669309999999996
0
LINE
8
BLACK
6
CONTINUOUS
10
195.5597149999999829
20
-79.7669309999999996
11
195.3786029999999982
21
-79.6919120000000021
0
LINE
8
BLACK
6
CONTINUOUS
10
195.3786029999999982
20
-79.6919120000000021
11
195.2156069999999772
21
-79.5830009999999959
0
LINE
8
BLACK
6
CONTINUOUS
10
195.2156069999999772
20
-79.5830009999999959
11
195.076989999999995
21
-79.4443839999999994
0
LINE
8
BLACK
6
CONTINUOUS
10
195.076989999999995
20
-79.4443839999999994
11
194.9680789999999888
21
-79.2813879999999926
0
LINE
8
BLACK
6
CONTINUOUS
10
194.9680789999999888
20
-79.2813879999999926
11
194.8930599999999913
21
-79.1002759999999938
0
LINE
8
BLACK
6
CONTINUOUS
10
194.8930599999999913
20
-79.1002759999999938
11
194.8548150000000021
21
-78.9080079999999953
0
LINE
8
BLACK
6
CONTINUOUS
10
194.8548150000000021
20
-78.9080079999999953
11
194.8548150000000021
21
-78.7119739999999979
0
LINE
8
BLACK
6
CONTINUOUS
10
194.8548150000000021
20
-78.7119739999999979
11
194.8930599999999913
21
-78.5197059999999993
0
LINE
8
BLACK
6
CONTINUOUS
10
194.8930599999999913
20
-78.5197059999999993
11
194.9680789999999888
21
-78.3385940000000005
0
LINE
8
BLACK
6
CONTINUOUS
10
194.9680789999999888
20
-78.3385940000000005
11
195.076989999999995
21
-78.1755979999999937
0
LINE
8
BLACK
6
CONTINUOUS
10
195.076989999999995
20
-78.1755979999999937
11
195.2156069999999772
21
-78.0369809999999973
0
LINE
8
BLACK
6
CONTINUOUS
10
195.2156069999999772
20
-78.0369809999999973
11
195.3786029999999982
21
-77.9280699999999911
0
LINE
8
BLACK
6
CONTINUOUS
10
195.3786029999999982
20
-77.9280699999999911
11
195.5597149999999829
21
-77.8530509999999936
0
LINE
8
BLACK
6
CONTINUOUS
10
195.5597149999999829
20
-77.8530509999999936
11
195.7519829999999956
21
-77.8148059999999901
0
LINE
8
BLACK
6
CONTINUOUS
10
195.7519829999999956
20
-77.8148059999999901
11
195.948016999999993
21
-77.8148059999999901
0
LINE
8
BLACK
6
CONTINUOUS
10
195.948016999999993
20
-77.8148059999999901
11
196.1402849999999773
21
-77.8530509999999936
0
LINE
8
BLACK
6
CONTINUOUS
10
198.6802849999999978
20
-77.8530509999999936
11
198.8613969999999824
21
-77.9280699999999911
0
LINE
8
BLACK
6
CONTINUOUS
10
198.8613969999999824
20
-77.9280699999999911
11
199.0243930000000034
21
-78.0369809999999973
0
LINE
8
BLACK
6
CONTINUOUS
10
199.0243930000000034
20
-78.0369809999999973
11
199.1630099999999857
21
-78.1755979999999937
0
LINE
8
BLACK
6
CONTINUOUS
10
199.1630099999999857
20
-78.1755979999999937
11
199.2719209999999919
21
-78.3385940000000005
0
LINE
8
BLACK
6
CONTINUOUS
10
199.2719209999999919
20
-78.3385940000000005
11
199.3469399999999894
21
-78.5197059999999993
0
LINE
8
BLACK
6
CONTINUOUS
10
199.3469399999999894
20
-78.5197059999999993
11
199.3851849999999786
21
-78.7119739999999979
0
LINE
8
BLACK
6
CONTINUOUS
10
199.3851849999999786
20
-78.7119739999999979
11
199.3851849999999786
21
-78.9080079999999953
0
LINE
8
BLACK
6
CONTINUOUS
10
199.3851849999999786
20
-78.9080079999999953
11
199.3469399999999894
21
-79.1002759999999938
0
LINE
8
BLACK
6
CONTINUOUS
10
199.3469399999999894
20
-79.1002759999999938
11
199.2719209999999919
21
-79.2813879999999926
0
LINE
8
BLACK
6
CONTINUOUS
10
199.2719209999999919
20
-79.2813879999999926
11
199.1630099999999857
21
-79.4443839999999994
0
LINE
8
BLACK
6
CONTINUOUS
10
199.1630099999999857
20
-79.4443839999999994
11
199.0243930000000034
21
-79.5830009999999959
0
LINE
8
BLACK
6
CONTINUOUS
10
199.0243930000000034
20
-79.5830009999999959
11
198.8613969999999824
21
-79.6919120000000021
0
LINE
8
BLACK
6
CONTINUOUS
10
198.8613969999999824
20
-79.6919120000000021
11
198.6802849999999978
21
-79.7669309999999996
0
LINE
8
BLACK
6
CONTINUOUS
10
198.6802849999999978
20
-79.7669309999999996
11
198.488016999999985
21
-79.805176000000003
0
LINE
8
BLACK
6
CONTINUOUS
10
198.488016999999985
20
-79.805176000000003
11
198.2919829999999877
21
-79.805176000000003
0
LINE
8
BLACK
6
CONTINUOUS
10
198.2919829999999877
20
-79.805176000000003
11
198.0997150000000033
21
-79.7669309999999996
0
LINE
8
BLACK
6
CONTINUOUS
10
198.0997150000000033
20
-79.7669309999999996
11
197.9186029999999903
21
-79.6919120000000021
0
LINE
8
BLACK
6
CONTINUOUS
10
197.9186029999999903
20
-79.6919120000000021
11
197.7556069999999977
21
-79.5830009999999959
0
LINE
8
BLACK
6
CONTINUOUS
10
197.7556069999999977
20
-79.5830009999999959
11
197.616989999999987
21
-79.4443839999999994
0
LINE
8
BLACK
6
CONTINUOUS
10
197.616989999999987
20
-79.4443839999999994
11
197.5080789999999809
21
-79.2813879999999926
0
LINE
8
BLACK
6
CONTINUOUS
10
197.5080789999999809
20
-79.2813879999999926
11
197.4330599999999833
21
-79.1002759999999938
0
LINE
8
BLACK
6
CONTINUOUS
10
197.4330599999999833
20
-79.1002759999999938
11
197.3948149999999941
21
-78.9080079999999953
0
LINE
8
BLACK
6
CONTINUOUS
10
197.3948149999999941
20
-78.9080079999999953
11
197.3948149999999941
21
-78.7119739999999979
0
LINE
8
BLACK
6
CONTINUOUS
10
197.3948149999999941
20
-78.7119739999999979
11
197.4330599999999833
21
-78.5197059999999993
0
LINE
8
BLACK
6
CONTINUOUS
10
197.4330599999999833
20
-78.5197059999999993
11
197.5080789999999809
21
-78.3385940000000005
0
LINE
8
BLACK
6
CONTINUOUS
10
197.5080789999999809
20
-78.3385940000000005
11
197.616989999999987
21
-78.1755979999999937
0
LINE
8
BLACK
6
CONTINUOUS
10
197.616989999999987
20
-78.1755979999999937
11
197.7556069999999977
21
-78.0369809999999973
0
LINE
8
BLACK
6
CONTINUOUS
10
197.7556069999999977
20
-78.0369809999999973
11
197.9186029999999903
21
-77.9280699999999911
0
LINE
8
BLACK
6
CONTINUOUS
10
197.9186029999999903
20
-77.9280699999999911
11
198.0997150000000033
21
-77.8530509999999936
0
LINE
8
BLACK
6
CONTINUOUS
10
198.0997150000000033
20
-77.8530509999999936
11
198.2919829999999877
21
-77.8148059999999901
0
LINE
8
BLACK
6
CONTINUOUS
10
198.2919829999999877
20
-77.8148059999999901
11
198.488016999999985
21
-77.8148059999999901
0
LINE
8
BLACK
6
CONTINUOUS
10
198.488016999999985
20
-77.8148059999999901
11
198.6802849999999978
21
-77.8530509999999936
0
LINE
8
BLACK
6
CONTINUOUS
10
201.2202849999999899
20
-77.8530509999999936
11
201.4013970000000029
21
-77.9280699999999911
0
LINE
8
BLACK
6
CONTINUOUS
10
201.4013970000000029
20
-77.9280699999999911
11
201.5643929999999955
21
-78.0369809999999973
0
LINE
8
BLACK
6
CONTINUOUS
10
201.5643929999999955
20
-78.0369809999999973
11
201.7030099999999777
21
-78.1755979999999937
0
LINE
8
BLACK
6
CONTINUOUS
10
201.7030099999999777
20
-78.1755979999999937
11
201.8119209999999839
21
-78.3385940000000005
0
LINE
8
BLACK
6
CONTINUOUS
10
201.8119209999999839
20
-78.3385940000000005
11
201.8869399999999814
21
-78.5197059999999993
0
LINE
8
BLACK
6
CONTINUOUS
10
201.8869399999999814
20
-78.5197059999999993
11
201.925184999999999
21
-78.7119739999999979
0
LINE
8
BLACK
6
CONTINUOUS
10
201.925184999999999
20
-78.7119739999999979
11
201.925184999999999
21
-78.9080079999999953
0
LINE
8
BLACK
6
CONTINUOUS
10
201.925184999999999
20
-78.9080079999999953
11
201.8869399999999814
21
-79.1002759999999938
0
LINE
8
BLACK
6
CONTINUOUS
10
201.8869399999999814
20
-79.1002759999999938
11
201.8119209999999839
21
-79.2813879999999926
0
LINE
8
BLACK
6
CONTINUOUS
10
201.8119209999999839
20
-79.2813879999999926
11
201.7030099999999777
21
-79.4443839999999994
0
LINE
8
BLACK
6
CONTINUOUS
10
201.7030099999999777
20
-79.4443839999999994
11
201.5643929999999955
21
-79.5830009999999959
0
LINE
8
BLACK
6
CONTINUOUS
10
201.5643929999999955
20
-79.5830009999999959
11
201.4013970000000029
21
-79.6919120000000021
0
LINE
8
BLACK
6
CONTINUOUS
10
201.4013970000000029
20
-79.6919120000000021
11
201.2202849999999899
21
-79.7669309999999996
0
LINE
8
BLACK
6
CONTINUOUS
10
201.2202849999999899
20
-79.7669309999999996
11
201.0280169999999771
21
-79.805176000000003
0
LINE
8
BLACK
6
CONTINUOUS
10
201.0280169999999771
20
-79.805176000000003
11
200.8319829999999797
21
-79.805176000000003
0
LINE
8
BLACK
6
CONTINUOUS
10
200.8319829999999797
20
-79.805176000000003
11
200.6397149999999954
21
-79.7669309999999996
0
LINE
8
BLACK
6
CONTINUOUS
10
200.6397149999999954
20
-79.7669309999999996
11
200.4586029999999823
21
-79.6919120000000021
0
LINE
8
BLACK
6
CONTINUOUS
10
200.4586029999999823
20
-79.6919120000000021
11
200.2956069999999897
21
-79.5830009999999959
0
LINE
8
BLACK
6
CONTINUOUS
10
200.2956069999999897
20
-79.5830009999999959
11
200.1569899999999791
21
-79.4443839999999994
0
LINE
8
BLACK
6
CONTINUOUS
10
200.1569899999999791
20
-79.4443839999999994
11
200.0480790000000013
21
-79.2813879999999926
0
LINE
8
BLACK
6
CONTINUOUS
10
200.0480790000000013
20
-79.2813879999999926
11
199.9730600000000038
21
-79.1002759999999938
0
LINE
8
BLACK
6
CONTINUOUS
10
199.9730600000000038
20
-79.1002759999999938
11
199.9348149999999862
21
-78.9080079999999953
0
LINE
8
BLACK
6
CONTINUOUS
10
199.9348149999999862
20
-78.9080079999999953
11
199.9348149999999862
21
-78.7119739999999979
0
LINE
8
BLACK
6
CONTINUOUS
10
199.9348149999999862
20
-78.7119739999999979
11
199.9730600000000038
21
-78.5197059999999993
0
LINE
8
BLACK
6
CONTINUOUS
10
199.9730600000000038
20
-78.5197059999999993
11
200.0480790000000013
21
-78.3385940000000005
0
LINE
8
BLACK
6
CONTINUOUS
10
200.0480790000000013
20
-78.3385940000000005
11
200.1569899999999791
21
-78.1755979999999937
0
LINE
8
BLACK
6
CONTINUOUS
10
200.1569899999999791
20
-78.1755979999999937
11
200.2956069999999897
21
-78.0369809999999973
0
LINE
8
BLACK
6
CONTINUOUS
10
200.2956069999999897
20
-78.0369809999999973
11
200.4586029999999823
21
-77.9280699999999911
0
LINE
8
BLACK
6
CONTINUOUS
10
200.4586029999999823
20
-77.9280699999999911
11
200.6397149999999954
21
-77.8530509999999936
0
LINE
8
BLACK
6
CONTINUOUS
10
200.6397149999999954
20
-77.8530509999999936
11
200.8319829999999797
21
-77.8148059999999901
0
LINE
8
BLACK
6
CONTINUOUS
10
200.8319829999999797
20
-77.8148059999999901
11
201.0280169999999771
21
-77.8148059999999901
0
LINE
8
BLACK
6
CONTINUOUS
10
201.0280169999999771
20
-77.8148059999999901
11
201.2202849999999899
21
-77.8530509999999936
0
LINE
8
BLACK
6
CONTINUOUS
10
203.7602849999999819
20
-77.8530509999999936
11
203.9413969999999949
21
-77.9280699999999911
0
LINE
8
BLACK
6
CONTINUOUS
10
203.9413969999999949
20
-77.9280699999999911
11
204.1043929999999875
21
-78.0369809999999973
0
LINE
8
BLACK
6
CONTINUOUS
10
204.1043929999999875
20
-78.0369809999999973
11
204.2430099999999982
21
-78.1755979999999937
0
LINE
8
BLACK
6
CONTINUOUS
10
204.2430099999999982
20
-78.1755979999999937
11
204.3519210000000044
21
-78.3385940000000005
0
LINE
8
BLACK
6
CONTINUOUS
10
204.3519210000000044
20
-78.3385940000000005
11
204.4269400000000019
21
-78.5197059999999993
0
LINE
8
BLACK
6
CONTINUOUS
10
204.4269400000000019
20
-78.5197059999999993
11
204.4651849999999911
21
-78.7119739999999979
0
LINE
8
BLACK
6
CONTINUOUS
10
204.4651849999999911
20
-78.7119739999999979
11
204.4651849999999911
21
-78.9080079999999953
0
LINE
8
BLACK
6
CONTINUOUS
10
204.4651849999999911
20
-78.9080079999999953
11
204.4269400000000019
21
-79.1002759999999938
0
LINE
8
BLACK
6
CONTINUOUS
10
204.4269400000000019
20
-79.1002759999999938
11
204.3519210000000044
21
-79.2813879999999926
0
LINE
8
BLACK
6
CONTINUOUS
10
204.3519210000000044
20
-79.2813879999999926
11
204.2430099999999982
21
-79.4443839999999994
0
LINE
8
BLACK
6
CONTINUOUS
10
204.2430099999999982
20
-79.4443839999999994
11
204.1043929999999875
21
-79.5830009999999959
0
LINE
8
BLACK
6
CONTINUOUS
10
204.1043929999999875
20
-79.5830009999999959
11
203.9413969999999949
21
-79.6919120000000021
0
LINE
8
BLACK
6
CONTINUOUS
10
203.9413969999999949
20
-79.6919120000000021
11
203.7602849999999819
21
-79.7669309999999996
0
LINE
8
BLACK
6
CONTINUOUS
10
203.7602849999999819
20
-79.7669309999999996
11
203.5680169999999976
21
-79.805176000000003
0
LINE
8
BLACK
6
CONTINUOUS
10
203.5680169999999976
20
-79.805176000000003
11
203.3719830000000002
21
-79.805176000000003
0
LINE
8
BLACK
6
CONTINUOUS
10
203.3719830000000002
20
-79.805176000000003
11
203.1797149999999874
21
-79.7669309999999996
0
LINE
8
BLACK
6
CONTINUOUS
10
203.1797149999999874
20
-79.7669309999999996
11
202.9986030000000028
21
-79.6919120000000021
0
LINE
8
BLACK
6
CONTINUOUS
10
202.9986030000000028
20
-79.6919120000000021
11
202.8356069999999818
21
-79.5830009999999959
0
LINE
8
BLACK
6
CONTINUOUS
10
202.8356069999999818
20
-79.5830009999999959
11
202.6969899999999996
21
-79.4443839999999994
0
LINE
8
BLACK
6
CONTINUOUS
10
202.6969899999999996
20
-79.4443839999999994
11
202.5880789999999934
21
-79.2813879999999926
0
LINE
8
BLACK
6
CONTINUOUS
10
202.5880789999999934
20
-79.2813879999999926
11
202.5130599999999959
21
-79.1002759999999938
0
LINE
8
BLACK
6
CONTINUOUS
10
202.5130599999999959
20
-79.1002759999999938
11
202.4748149999999782
21
-78.9080079999999953
0
LINE
8
BLACK
6
CONTINUOUS
10
202.4748149999999782
20
-78.9080079999999953
11
202.4748149999999782
21
-78.7119739999999979
0
LINE
8
BLACK
6
CONTINUOUS
10
202.4748149999999782
20
-78.7119739999999979
11
202.5130599999999959
21
-78.5197059999999993
0
LINE
8
BLACK
6
CONTINUOUS
10
202.5130599999999959
20
-78.5197059999999993
11
202.5880789999999934
21
-78.3385940000000005
0
LINE
8
BLACK
6
CONTINUOUS
10
202.5880789999999934
20
-78.3385940000000005
11
202.6969899999999996
21
-78.1755979999999937
0
LINE
8
BLACK
6
CONTINUOUS
10
202.6969899999999996
20
-78.1755979999999937
11
202.8356069999999818
21
-78.0369809999999973
0
LINE
8
BLACK
6
CONTINUOUS
10
202.8356069999999818
20
-78.0369809999999973
11
202.9986030000000028
21
-77.9280699999999911
0
LINE
8
BLACK
6
CONTINUOUS
10
202.9986030000000028
20
-77.9280699999999911
11
203.1797149999999874
21
-77.8530509999999936
0
LINE
8
BLACK
6
CONTINUOUS
10
203.1797149999999874
20
-77.8530509999999936
11
203.3719830000000002
21
-77.8148059999999901
0
LINE
8
BLACK
6
CONTINUOUS
10
203.3719830000000002
20
-77.8148059999999901
11
203.5680169999999976
21
-77.8148059999999901
0
LINE
8
BLACK
6
CONTINUOUS
10
203.5680169999999976
20
-77.8148059999999901
11
203.7602849999999819
21
-77.8530509999999936
0
LINE
8
BLACK
6
CONTINUOUS
10
206.3002850000000024
20
-77.8530509999999936
11
206.481396999999987
21
-77.9280699999999911
0
LINE
8
BLACK
6
CONTINUOUS
10
206.481396999999987
20
-77.9280699999999911
11
206.6443929999999796
21
-78.0369809999999973
0
LINE
8
BLACK
6
CONTINUOUS
10
206.6443929999999796
20
-78.0369809999999973
11
206.7830099999999902
21
-78.1755979999999937
0
LINE
8
BLACK
6
CONTINUOUS
10
206.7830099999999902
20
-78.1755979999999937
11
206.8919209999999964
21
-78.3385940000000005
0
LINE
8
BLACK
6
CONTINUOUS
10
206.8919209999999964
20
-78.3385940000000005
11
206.9669399999999939
21
-78.5197059999999993
0
LINE
8
BLACK
6
CONTINUOUS
10
206.9669399999999939
20
-78.5197059999999993
11
207.0051849999999831
21
-78.7119739999999979
0
LINE
8
BLACK
6
CONTINUOUS
10
207.0051849999999831
20
-78.7119739999999979
11
207.0051849999999831
21
-78.9080079999999953
0
LINE
8
BLACK
6
CONTINUOUS
10
207.0051849999999831
20
-78.9080079999999953
11
206.9669399999999939
21
-79.1002759999999938
0
LINE
8
BLACK
6
CONTINUOUS
10
206.9669399999999939
20
-79.1002759999999938
11
206.8919209999999964
21
-79.2813879999999926
0
LINE
8
BLACK
6
CONTINUOUS
10
206.8919209999999964
20
-79.2813879999999926
11
206.7830099999999902
21
-79.4443839999999994
0
LINE
8
BLACK
6
CONTINUOUS
10
206.7830099999999902
20
-79.4443839999999994
11
206.6443929999999796
21
-79.5830009999999959
0
LINE
8
BLACK
6
CONTINUOUS
10
206.6443929999999796
20
-79.5830009999999959
11
206.481396999999987
21
-79.6919120000000021
0
LINE
8
BLACK
6
CONTINUOUS
10
206.481396999999987
20
-79.6919120000000021
11
206.3002850000000024
21
-79.7669309999999996
0
LINE
8
BLACK
6
CONTINUOUS
10
206.3002850000000024
20
-79.7669309999999996
11
206.1080169999999896
21
-79.805176000000003
0
LINE
8
BLACK
6
CONTINUOUS
10
206.1080169999999896
20
-79.805176000000003
11
205.9119829999999922
21
-79.805176000000003
0
LINE
8
BLACK
6
CONTINUOUS
10
205.9119829999999922
20
-79.805176000000003
11
205.7197149999999795
21
-79.7669309999999996
0
LINE
8
BLACK
6
CONTINUOUS
10
205.7197149999999795
20
-79.7669309999999996
11
205.5386029999999948
21
-79.6919120000000021
0
LINE
8
BLACK
6
CONTINUOUS
10
205.5386029999999948
20
-79.6919120000000021
11
205.3756070000000022
21
-79.5830009999999959
0
LINE
8
BLACK
6
CONTINUOUS
10
205.3756070000000022
20
-79.5830009999999959
11
205.2369899999999916
21
-79.4443839999999994
0
LINE
8
BLACK
6
CONTINUOUS
10
205.2369899999999916
20
-79.4443839999999994
11
205.1280789999999854
21
-79.2813879999999926
0
LINE
8
BLACK
6
CONTINUOUS
10
205.1280789999999854
20
-79.2813879999999926
11
205.0530599999999879
21
-79.1002759999999938
0
LINE
8
BLACK
6
CONTINUOUS
10
205.0530599999999879
20
-79.1002759999999938
11
205.0148149999999987
21
-78.9080079999999953
0
LINE
8
BLACK
6
CONTINUOUS
10
205.0148149999999987
20
-78.9080079999999953
11
205.0148149999999987
21
-78.7119739999999979
0
LINE
8
BLACK
6
CONTINUOUS
10
205.0148149999999987
20
-78.7119739999999979
11
205.0530599999999879
21
-78.5197059999999993
0
LINE
8
BLACK
6
CONTINUOUS
10
205.0530599999999879
20
-78.5197059999999993
11
205.1280789999999854
21
-78.3385940000000005
0
LINE
8
BLACK
6
CONTINUOUS
10
205.1280789999999854
20
-78.3385940000000005
11
205.2369899999999916
21
-78.1755979999999937
0
LINE
8
BLACK
6
CONTINUOUS
10
205.2369899999999916
20
-78.1755979999999937
11
205.3756070000000022
21
-78.0369809999999973
0
LINE
8
BLACK
6
CONTINUOUS
10
205.3756070000000022
20
-78.0369809999999973
11
205.5386029999999948
21
-77.9280699999999911
0
LINE
8
BLACK
6
CONTINUOUS
10
205.5386029999999948
20
-77.9280699999999911
11
205.7197149999999795
21
-77.8530509999999936
0
LINE
8
BLACK
6
CONTINUOUS
10
205.7197149999999795
20
-77.8530509999999936
11
205.9119829999999922
21
-77.8148059999999901
0
LINE
8
BLACK
6
CONTINUOUS
10
205.9119829999999922
20
-77.8148059999999901
11
206.1080169999999896
21
-77.8148059999999901
0
LINE
8
BLACK
6
CONTINUOUS
10
206.1080169999999896
20
-77.8148059999999901
11
206.3002850000000024
21
-77.8530509999999936
0
LINE
8
BLACK
6
CONTINUOUS
10
208.8402849999999944
20
-77.8530509999999936
11
209.021396999999979
21
-77.9280699999999911
0
LINE
8
BLACK
6
CONTINUOUS
10
209.021396999999979
20
-77.9280699999999911
11
209.184393
21
-78.0369809999999973
0
LINE
8
BLACK
6
CONTINUOUS
10
209.184393
20
-78.0369809999999973
11
209.3230099999999823
21
-78.1755979999999937
0
LINE
8
BLACK
6
CONTINUOUS
10
209.3230099999999823
20
-78.1755979999999937
11
209.4319209999999885
21
-78.3385940000000005
0
LINE
8
BLACK
6
CONTINUOUS
10
209.4319209999999885
20
-78.3385940000000005
11
209.506939999999986
21
-78.5197059999999993
0
LINE
8
BLACK
6
CONTINUOUS
10
209.506939999999986
20
-78.5197059999999993
11
209.5451850000000036
21
-78.7119739999999979
0
LINE
8
BLACK
6
CONTINUOUS
10
209.5451850000000036
20
-78.7119739999999979
11
209.5451850000000036
21
-78.9080079999999953
0
LINE
8
BLACK
6
CONTINUOUS
10
209.5451850000000036
20
-78.9080079999999953
11
209.506939999999986
21
-79.1002759999999938
0
LINE
8
BLACK
6
CONTINUOUS
10
209.506939999999986
20
-79.1002759999999938
11
209.4319209999999885
21
-79.2813879999999926
0
LINE
8
BLACK
6
CONTINUOUS
10
209.4319209999999885
20
-79.2813879999999926
11
209.3230099999999823
21
-79.4443839999999994
0
LINE
8
BLACK
6
CONTINUOUS
10
209.3230099999999823
20
-79.4443839999999994
11
209.184393
21
-79.5830009999999959
0
LINE
8
BLACK
6
CONTINUOUS
10
209.184393
20
-79.5830009999999959
11
209.021396999999979
21
-79.6919120000000021
0
LINE
8
BLACK
6
CONTINUOUS
10
209.021396999999979
20
-79.6919120000000021
11
208.8402849999999944
21
-79.7669309999999996
0
LINE
8
BLACK
6
CONTINUOUS
10
208.8402849999999944
20
-79.7669309999999996
11
208.6480169999999816
21
-79.805176000000003
0
LINE
8
BLACK
6
CONTINUOUS
10
208.6480169999999816
20
-79.805176000000003
11
208.4519829999999843
21
-79.805176000000003
0
LINE
8
BLACK
6
CONTINUOUS
10
208.4519829999999843
20
-79.805176000000003
11
208.2597149999999999
21
-79.7669309999999996
0
LINE
8
BLACK
6
CONTINUOUS
10
208.2597149999999999
20
-79.7669309999999996
11
208.0786029999999869
21
-79.6919120000000021
0
LINE
8
BLACK
6
CONTINUOUS
10
208.0786029999999869
20
-79.6919120000000021
11
207.9156069999999943
21
-79.5830009999999959
0
LINE
8
BLACK
6
CONTINUOUS
10
207.9156069999999943
20
-79.5830009999999959
11
207.7769899999999836
21
-79.4443839999999994
0
LINE
8
BLACK
6
CONTINUOUS
10
207.7769899999999836
20
-79.4443839999999994
11
207.6680789999999774
21
-79.2813879999999926
0
LINE
8
BLACK
6
CONTINUOUS
10
207.6680789999999774
20
-79.2813879999999926
11
207.5930599999999799
21
-79.1002759999999938
0
LINE
8
BLACK
6
CONTINUOUS
10
207.5930599999999799
20
-79.1002759999999938
11
207.5548149999999907
21
-78.9080079999999953
0
LINE
8
BLACK
6
CONTINUOUS
10
207.5548149999999907
20
-78.9080079999999953
11
207.5548149999999907
21
-78.7119739999999979
0
LINE
8
BLACK
6
CONTINUOUS
10
207.5548149999999907
20
-78.7119739999999979
11
207.5930599999999799
21
-78.5197059999999993
0
LINE
8
BLACK
6
CONTINUOUS
10
207.5930599999999799
20
-78.5197059999999993
11
207.6680789999999774
21
-78.3385940000000005
0
LINE
8
BLACK
6
CONTINUOUS
10
207.6680789999999774
20
-78.3385940000000005
11
207.7769899999999836
21
-78.1755979999999937
0
LINE
8
BLACK
6
CONTINUOUS
10
207.7769899999999836
20
-78.1755979999999937
11
207.9156069999999943
21
-78.0369809999999973
0
LINE
8
BLACK
6
CONTINUOUS
10
207.9156069999999943
20
-78.0369809999999973
11
208.0786029999999869
21
-77.9280699999999911
0
LINE
8
BLACK
6
CONTINUOUS
10
208.0786029999999869
20
-77.9280699999999911
11
208.2597149999999999
21
-77.8530509999999936
0
LINE
8
BLACK
6
CONTINUOUS
10
208.2597149999999999
20
-77.8530509999999936
11
208.4519829999999843
21
-77.8148059999999901
0
LINE
8
BLACK
6
CONTINUOUS
10
208.4519829999999843
20
-77.8148059999999901
11
208.6480169999999816
21
-77.8148059999999901
0
LINE
8
BLACK
6
CONTINUOUS
10
208.6480169999999816
20
-77.8148059999999901
11
208.8402849999999944
21
-77.8530509999999936
  0
ENDSEC
  0
EOF
