  0
SECTION
  2
HEADER
  9
$ANGBASE
  50
0.0
  9
$ANGDIR
  70
1
  9
$MEASUREMENT
  70
1
  0
ENDSEC
  0
SECTION
  2
TABLES
  0
TABLE
  2
LTYPE
  70
4
  0
LTYPE
  5
40F
  2
CONTINUOUS
  70
0
  3
Solid line
  72
65
  73
0
  40
0.0
  0
LTYPE
  5
410
  2
DASHDOT
 70
0
  3
Dash Dot ____ _ ____ _
 72
65
 73
4
 40
2.0
 49
1.25
 49
-0.25
 49
0.25
 49
-0.25
  0
LTYPE
  5
411
  2
DASHED
 70
0
  3
Dashed __ __ __ __ __
 72
65
 73
2
 40
0.75
 49
0.5
 49
-0.25
  0
LTYPE
  5
43B
  2
DOTTED
 70
0
  3
Dotted .  .  .  .
 72
65
 73
2
 40
0.2
 49
0.0
 49
-0.2
  0
ENDTAB
  0
TABLE
  2
STYLE
  70
4
  0
STYLE
  2
KICAD
  70
0
  40
0
  41
1
  42
1
  50
0
  71
0
  3
isocp.shx
  0
STYLE
  2
KICADB
  70
0
  40
0
  41
1
  42
1
  50
0
  71
0
  3
isocp.shx
  0
STYLE
  2
KICADI
  70
0
  40
0
  41
1
  42
1
  50
15
  71
0
  3
isocp.shx
  0
STYLE
  2
KICADBI
  70
0
  40
0
  41
1
  42
1
  50
15
  71
0
  3
isocp.shx
  0
ENDTAB
  0
TABLE
  2
LAYER
  70
1
  0
LAYER
  2
BLACK
  70
0
  62
7
  6
CONTINUOUS
  0
ENDTAB
  0
ENDSEC
  0
SECTION
  2
ENTITIES
0
LINE
8
BLACK
6
CONTINUOUS
10
171.809566999999987
20
-73.0019029999999987
11
171.82309699999999
21
-73.0154330000000016
0
LINE
8
BLACK
6
CONTINUOUS
10
171.82309699999999
20
-73.0154330000000016
11
171.8249999999999886
21
-73.0249999999999915
0
LINE
8
BLACK
6
CONTINUOUS
10
171.8249999999999886
20
-73.0249999999999915
11
171.8249999999999886
21
-100.125
0
LINE
8
BLACK
6
CONTINUOUS
10
171.8249999999999886
20
-100.125
11
171.82309699999999
21
-100.1345669999999899
0
LINE
8
BLACK
6
CONTINUOUS
10
171.82309699999999
20
-100.1345669999999899
11
171.809566999999987
21
-100.1480969999999928
0
LINE
8
BLACK
6
CONTINUOUS
10
171.809566999999987
20
-100.1480969999999928
11
171.7999999999999829
21
-100.1499999999999915
0
LINE
8
BLACK
6
CONTINUOUS
10
171.7999999999999829
20
-100.1499999999999915
11
143.7999999999999829
21
-100.1499999999999915
0
LINE
8
BLACK
6
CONTINUOUS
10
143.7999999999999829
20
-100.1499999999999915
11
143.7904330000000073
21
-100.1480969999999928
0
LINE
8
BLACK
6
CONTINUOUS
10
143.7904330000000073
20
-100.1480969999999928
11
143.7769030000000043
21
-100.1345669999999899
0
LINE
8
BLACK
6
CONTINUOUS
10
143.7769030000000043
20
-100.1345669999999899
11
143.7750000000000057
21
-100.125
0
LINE
8
BLACK
6
CONTINUOUS
10
143.7750000000000057
20
-100.125
11
143.7750000000000057
21
-73.0249999999999915
0
LINE
8
BLACK
6
CONTINUOUS
10
143.7750000000000057
20
-73.0249999999999915
11
143.7769030000000043
21
-73.0154330000000016
0
LINE
8
BLACK
6
CONTINUOUS
10
143.7769030000000043
20
-73.0154330000000016
11
143.7904330000000073
21
-73.0019029999999987
0
LINE
8
BLACK
6
CONTINUOUS
10
143.7904330000000073
20
-73.0019029999999987
11
143.7999999999999829
21
-73.
0
LINE
8
BLACK
6
CONTINUOUS
10
143.7999999999999829
20
-73.
11
171.7999999999999829
21
-73.
0
LINE
8
BLACK
6
CONTINUOUS
10
171.7999999999999829
20
-73.
11
171.809566999999987
21
-73.0019029999999987
0
LINE
8
BLACK
6
CONTINUOUS
10
143.8249999999999886
20
-73.0499999999999972
11
143.8249999999999886
21
-100.0999999999999943
0
LINE
8
BLACK
6
CONTINUOUS
10
143.8249999999999886
20
-100.0999999999999943
11
171.7750000000000057
21
-100.0999999999999943
0
LINE
8
BLACK
6
CONTINUOUS
10
171.7750000000000057
20
-100.0999999999999943
11
171.7750000000000057
21
-73.0499999999999972
0
LINE
8
BLACK
6
CONTINUOUS
10
171.7750000000000057
20
-73.0499999999999972
11
143.8249999999999886
21
-73.0499999999999972
0
LINE
8
BLACK
6
CONTINUOUS
10
204.8822159999999997
20
-87.4679110000000009
11
204.9279970000000048
21
-87.4868740000000003
0
LINE
8
BLACK
6
CONTINUOUS
10
204.9279970000000048
20
-87.4868740000000003
11
204.9630369999999857
21
-87.5219139999999953
0
LINE
8
BLACK
6
CONTINUOUS
10
204.9630369999999857
20
-87.5219139999999953
11
204.9819999999999993
21
-87.5676950000000005
0
LINE
8
BLACK
6
CONTINUOUS
10
204.9819999999999993
20
-87.5676950000000005
11
204.984439999999978
21
-87.5924709999999891
0
LINE
8
BLACK
6
CONTINUOUS
10
204.984439999999978
20
-87.5924709999999891
11
204.984439999999978
21
-89.3424809999999923
0
LINE
8
BLACK
6
CONTINUOUS
10
204.984439999999978
20
-89.3424809999999923
11
204.9819999999999993
21
-89.3672569999999951
0
LINE
8
BLACK
6
CONTINUOUS
10
204.9819999999999993
20
-89.3672569999999951
11
204.9630369999999857
21
-89.4130380000000002
0
LINE
8
BLACK
6
CONTINUOUS
10
204.9630369999999857
20
-89.4130380000000002
11
204.9279970000000048
21
-89.4480779999999953
0
LINE
8
BLACK
6
CONTINUOUS
10
204.9279970000000048
20
-89.4480779999999953
11
204.8822159999999997
21
-89.4670409999999947
0
LINE
8
BLACK
6
CONTINUOUS
10
204.8822159999999997
20
-89.4670409999999947
11
204.8574399999999969
21
-89.4694810000000018
0
LINE
8
BLACK
6
CONTINUOUS
10
204.8574399999999969
20
-89.4694810000000018
11
204.4150999999999954
21
-89.4694810000000018
0
LINE
8
BLACK
6
CONTINUOUS
10
204.4150999999999954
20
-89.4694810000000018
11
204.3903239999999926
21
-89.4670409999999947
0
LINE
8
BLACK
6
CONTINUOUS
10
204.3903239999999926
20
-89.4670409999999947
11
204.3445429999999874
21
-89.4480779999999953
0
LINE
8
BLACK
6
CONTINUOUS
10
204.3445429999999874
20
-89.4480779999999953
11
204.3095029999999781
21
-89.4130380000000002
0
LINE
8
BLACK
6
CONTINUOUS
10
204.3095029999999781
20
-89.4130380000000002
11
204.2905399999999929
21
-89.3672569999999951
0
LINE
8
BLACK
6
CONTINUOUS
10
204.2905399999999929
20
-89.3672569999999951
11
204.2905399999999929
21
-89.3177049999999895
0
LINE
8
BLACK
6
CONTINUOUS
10
204.2905399999999929
20
-89.3177049999999895
11
204.3095029999999781
21
-89.2719239999999985
0
LINE
8
BLACK
6
CONTINUOUS
10
204.3095029999999781
20
-89.2719239999999985
11
204.3445429999999874
21
-89.2368839999999892
0
LINE
8
BLACK
6
CONTINUOUS
10
204.3445429999999874
20
-89.2368839999999892
11
204.3903239999999926
21
-89.2179209999999898
0
LINE
8
BLACK
6
CONTINUOUS
10
204.3903239999999926
20
-89.2179209999999898
11
204.4150999999999954
21
-89.2154809999999969
0
LINE
8
BLACK
6
CONTINUOUS
10
204.4150999999999954
20
-89.2154809999999969
11
204.7304399999999873
21
-89.2154809999999969
0
LINE
8
BLACK
6
CONTINUOUS
10
204.7304399999999873
20
-89.2154809999999969
11
204.7304399999999873
21
-87.7194709999999986
0
LINE
8
BLACK
6
CONTINUOUS
10
204.7304399999999873
20
-87.7194709999999986
11
204.4135799999999961
21
-87.7194709999999986
0
LINE
8
BLACK
6
CONTINUOUS
10
204.4135799999999961
20
-87.7194709999999986
11
204.3888039999999933
21
-87.7170309999999915
0
LINE
8
BLACK
6
CONTINUOUS
10
204.3888039999999933
20
-87.7170309999999915
11
204.3430229999999881
21
-87.6980679999999921
0
LINE
8
BLACK
6
CONTINUOUS
10
204.3430229999999881
20
-87.6980679999999921
11
204.3079829999999788
21
-87.6630279999999971
0
LINE
8
BLACK
6
CONTINUOUS
10
204.3079829999999788
20
-87.6630279999999971
11
204.2890199999999936
21
-87.6172469999999919
0
LINE
8
BLACK
6
CONTINUOUS
10
204.2890199999999936
20
-87.6172469999999919
11
204.2890199999999936
21
-87.5676950000000005
0
LINE
8
BLACK
6
CONTINUOUS
10
204.2890199999999936
20
-87.5676950000000005
11
204.3079829999999788
21
-87.5219139999999953
0
LINE
8
BLACK
6
CONTINUOUS
10
204.3079829999999788
20
-87.5219139999999953
11
204.3430229999999881
21
-87.4868740000000003
0
LINE
8
BLACK
6
CONTINUOUS
10
204.3430229999999881
20
-87.4868740000000003
11
204.3888039999999933
21
-87.4679110000000009
0
LINE
8
BLACK
6
CONTINUOUS
10
204.3888039999999933
20
-87.4679110000000009
11
204.4135799999999961
21
-87.4654709999999938
0
LINE
8
BLACK
6
CONTINUOUS
10
204.4135799999999961
20
-87.4654709999999938
11
204.8574399999999969
21
-87.4654709999999938
0
LINE
8
BLACK
6
CONTINUOUS
10
204.8574399999999969
20
-87.4654709999999938
11
204.8822159999999997
21
-87.4679110000000009
0
LINE
8
BLACK
6
CONTINUOUS
10
207.7270129999999995
20
-88.5365109999999902
11
207.7295019999999965
21
-88.537542000000002
0
LINE
8
BLACK
6
CONTINUOUS
10
207.7295019999999965
20
-88.537542000000002
11
207.7321900000000028
21
-88.5377330000000029
0
LINE
8
BLACK
6
CONTINUOUS
10
207.7321900000000028
20
-88.5377330000000029
11
207.7459219999999789
21
-88.542987999999994
0
LINE
8
BLACK
6
CONTINUOUS
10
207.7459219999999789
20
-88.542987999999994
11
207.8411600000000021
21
-88.5906069999999914
0
LINE
8
BLACK
6
CONTINUOUS
10
207.8411600000000021
20
-88.5906069999999914
11
207.8436069999999916
21
-88.5921469999999971
0
LINE
8
BLACK
6
CONTINUOUS
10
207.8436069999999916
20
-88.5921469999999971
11
207.844760999999977
21
-88.5925319999999914
0
LINE
8
BLACK
6
CONTINUOUS
10
207.844760999999977
20
-88.5925319999999914
11
207.8461969999999894
21
-88.5937770000000029
0
LINE
8
BLACK
6
CONTINUOUS
10
207.8461969999999894
20
-88.5937770000000029
11
207.8536029999999926
21
-88.5984389999999991
0
LINE
8
BLACK
6
CONTINUOUS
10
207.8536029999999926
20
-88.5984389999999991
11
207.8597639999999842
21
-88.6055429999999973
0
LINE
8
BLACK
6
CONTINUOUS
10
207.8597639999999842
20
-88.6055429999999973
11
207.8668689999999799
21
-88.6117050000000006
0
LINE
8
BLACK
6
CONTINUOUS
10
207.8668689999999799
20
-88.6117050000000006
11
207.8715299999999786
21
-88.6191099999999921
0
LINE
8
BLACK
6
CONTINUOUS
10
207.8715299999999786
20
-88.6191099999999921
11
207.8727759999999876
21
-88.620547000000002
0
LINE
8
BLACK
6
CONTINUOUS
10
207.8727759999999876
20
-88.620547000000002
11
207.8731599999999844
21
-88.6216999999999899
0
LINE
8
BLACK
6
CONTINUOUS
10
207.8731599999999844
20
-88.6216999999999899
11
207.8747009999999875
21
-88.624147999999991
0
LINE
8
BLACK
6
CONTINUOUS
10
207.8747009999999875
20
-88.624147999999991
11
207.9223199999999849
21
-88.7193860000000001
0
LINE
8
BLACK
6
CONTINUOUS
10
207.9223199999999849
20
-88.7193860000000001
11
207.9275749999999903
21
-88.7331169999999929
0
LINE
8
BLACK
6
CONTINUOUS
10
207.9275749999999903
20
-88.7331169999999929
11
207.9277659999999912
21
-88.7358059999999966
0
LINE
8
BLACK
6
CONTINUOUS
10
207.9277659999999912
20
-88.7358059999999966
11
207.928797000000003
21
-88.7382949999999937
0
LINE
8
BLACK
6
CONTINUOUS
10
207.928797000000003
20
-88.7382949999999937
11
207.9302380000000028
21
-88.7529269999999997
0
LINE
8
BLACK
6
CONTINUOUS
10
207.9302380000000028
20
-88.7529269999999997
11
207.9302380000000028
21
-88.9434029999999893
0
LINE
8
BLACK
6
CONTINUOUS
10
207.9302380000000028
20
-88.9434029999999893
11
207.928797000000003
21
-88.9580349999999953
0
LINE
8
BLACK
6
CONTINUOUS
10
207.928797000000003
20
-88.9580349999999953
11
207.9277659999999912
21
-88.9605229999999949
0
LINE
8
BLACK
6
CONTINUOUS
10
207.9277659999999912
20
-88.9605229999999949
11
207.9275749999999903
21
-88.9632129999999961
0
LINE
8
BLACK
6
CONTINUOUS
10
207.9275749999999903
20
-88.9632129999999961
11
207.9223199999999849
21
-88.9769439999999889
0
LINE
8
BLACK
6
CONTINUOUS
10
207.9223199999999849
20
-88.9769439999999889
11
207.8747009999999875
21
-89.072181999999998
0
LINE
8
BLACK
6
CONTINUOUS
10
207.8747009999999875
20
-89.072181999999998
11
207.8731599999999844
21
-89.0746290000000016
0
LINE
8
BLACK
6
CONTINUOUS
10
207.8731599999999844
20
-89.0746290000000016
11
207.8727759999999876
21
-89.0757830000000013
0
LINE
8
BLACK
6
CONTINUOUS
10
207.8727759999999876
20
-89.0757830000000013
11
207.8715299999999786
21
-89.0772189999999995
0
LINE
8
BLACK
6
CONTINUOUS
10
207.8715299999999786
20
-89.0772189999999995
11
207.8668689999999799
21
-89.0846250000000026
0
LINE
8
BLACK
6
CONTINUOUS
10
207.8668689999999799
20
-89.0846250000000026
11
207.8597639999999842
21
-89.0907859999999943
0
LINE
8
BLACK
6
CONTINUOUS
10
207.8597639999999842
20
-89.0907859999999943
11
207.8536029999999926
21
-89.09789099999999
0
LINE
8
BLACK
6
CONTINUOUS
10
207.8536029999999926
20
-89.09789099999999
11
207.8461969999999894
21
-89.1025520000000029
0
LINE
8
BLACK
6
CONTINUOUS
10
207.8461969999999894
20
-89.1025520000000029
11
207.844760999999977
21
-89.1037979999999976
0
LINE
8
BLACK
6
CONTINUOUS
10
207.844760999999977
20
-89.1037979999999976
11
207.8436069999999916
21
-89.1041819999999944
0
LINE
8
BLACK
6
CONTINUOUS
10
207.8436069999999916
20
-89.1041819999999944
11
207.8411600000000021
21
-89.1057229999999976
0
LINE
8
BLACK
6
CONTINUOUS
10
207.8411600000000021
20
-89.1057229999999976
11
207.7459219999999789
21
-89.153341999999995
0
LINE
8
BLACK
6
CONTINUOUS
10
207.7459219999999789
20
-89.153341999999995
11
207.7321900000000028
21
-89.1585970000000003
0
LINE
8
BLACK
6
CONTINUOUS
10
207.7321900000000028
20
-89.1585970000000003
11
207.7295019999999965
21
-89.1587869999999896
0
LINE
8
BLACK
6
CONTINUOUS
10
207.7295019999999965
20
-89.1587869999999896
11
207.7270129999999995
21
-89.1598189999999988
0
LINE
8
BLACK
6
CONTINUOUS
10
207.7270129999999995
20
-89.1598189999999988
11
207.7123809999999935
21
-89.1612599999999986
0
LINE
8
BLACK
6
CONTINUOUS
10
207.7123809999999935
20
-89.1612599999999986
11
207.6172210000000007
21
-89.1612599999999986
0
LINE
8
BLACK
6
CONTINUOUS
10
207.6172210000000007
20
-89.1612599999999986
11
207.6171429999999987
21
-89.1612599999999986
0
LINE
8
BLACK
6
CONTINUOUS
10
207.6171429999999987
20
-89.1612599999999986
11
207.6025109999999927
21
-89.1598189999999988
0
LINE
8
BLACK
6
CONTINUOUS
10
207.6025109999999927
20
-89.1598189999999988
11
207.5957190000000026
21
-89.1570049999999981
0
LINE
8
BLACK
6
CONTINUOUS
10
207.5957190000000026
20
-89.1570049999999981
11
207.5885140000000035
21
-89.1555800000000005
0
LINE
8
BLACK
6
CONTINUOUS
10
207.5885140000000035
20
-89.1555800000000005
11
207.5823379999999929
21
-89.1514629999999926
0
LINE
8
BLACK
6
CONTINUOUS
10
207.5823379999999929
20
-89.1514629999999926
11
207.5754749999999831
21
-89.148619999999994
0
LINE
8
BLACK
6
CONTINUOUS
10
207.5754749999999831
20
-89.148619999999994
11
207.5702770000000044
21
-89.143422000000001
0
LINE
8
BLACK
6
CONTINUOUS
10
207.5702770000000044
20
-89.143422000000001
11
207.5641660000000002
21
-89.1393479999999983
0
LINE
8
BLACK
6
CONTINUOUS
10
207.5641660000000002
20
-89.1393479999999983
11
207.5600349999999992
21
-89.1331799999999959
0
LINE
8
BLACK
6
CONTINUOUS
10
207.5600349999999992
20
-89.1331799999999959
11
207.5547829999999863
21
-89.1279279999999972
0
LINE
8
BLACK
6
CONTINUOUS
10
207.5547829999999863
20
-89.1279279999999972
11
207.551969999999983
21
-89.1211389999999994
0
LINE
8
BLACK
6
CONTINUOUS
10
207.551969999999983
20
-89.1211389999999994
11
207.5478819999999871
21
-89.1150339999999943
0
LINE
8
BLACK
6
CONTINUOUS
10
207.5478819999999871
20
-89.1150339999999943
11
207.5435990000000004
21
-89.1009679999999946
0
LINE
8
BLACK
6
CONTINUOUS
10
207.5435990000000004
20
-89.1009679999999946
11
207.4604190000000017
21
-88.6850699999999961
0
LINE
8
BLACK
6
CONTINUOUS
10
207.4604190000000017
20
-88.6850699999999961
11
207.3491339999999923
21
-88.6850699999999961
0
LINE
8
BLACK
6
CONTINUOUS
10
207.3491339999999923
20
-88.6850699999999961
11
207.2920919999999967
21
-88.7135899999999964
0
LINE
8
BLACK
6
CONTINUOUS
10
207.2920919999999967
20
-88.7135899999999964
11
207.2635709999999847
21
-88.7706329999999895
0
LINE
8
BLACK
6
CONTINUOUS
10
207.2635709999999847
20
-88.7706329999999895
11
207.2635709999999847
21
-88.9256960000000021
0
LINE
8
BLACK
6
CONTINUOUS
10
207.2635709999999847
20
-88.9256960000000021
11
207.3032729999999901
21
-89.0050999999999988
0
LINE
8
BLACK
6
CONTINUOUS
10
207.3032729999999901
20
-89.0050999999999988
11
207.3085279999999955
21
-89.0188309999999916
0
LINE
8
BLACK
6
CONTINUOUS
10
207.3085279999999955
20
-89.0188309999999916
11
207.3106019999999887
21
-89.0480209999999914
0
LINE
8
BLACK
6
CONTINUOUS
10
207.3106019999999887
20
-89.0480209999999914
11
207.3013489999999877
21
-89.0757830000000013
0
LINE
8
BLACK
6
CONTINUOUS
10
207.3013489999999877
20
-89.0757830000000013
11
207.2821749999999952
21
-89.0978899999999925
0
LINE
8
BLACK
6
CONTINUOUS
10
207.2821749999999952
20
-89.0978899999999925
11
207.2560009999999977
21
-89.1109780000000029
0
LINE
8
BLACK
6
CONTINUOUS
10
207.2560009999999977
20
-89.1109780000000029
11
207.2268109999999979
21
-89.1130519999999962
0
LINE
8
BLACK
6
CONTINUOUS
10
207.2268109999999979
20
-89.1130519999999962
11
207.1990499999999997
21
-89.1037989999999951
0
LINE
8
BLACK
6
CONTINUOUS
10
207.1990499999999997
20
-89.1037989999999951
11
207.1769419999999968
21
-89.0846260000000001
0
LINE
8
BLACK
6
CONTINUOUS
10
207.1769419999999968
20
-89.0846260000000001
11
207.1691089999999917
21
-89.0721829999999954
0
LINE
8
BLACK
6
CONTINUOUS
10
207.1691089999999917
20
-89.0721829999999954
11
207.1214889999999968
21
-88.9769450000000006
0
LINE
8
BLACK
6
CONTINUOUS
10
207.1214889999999968
20
-88.9769450000000006
11
207.1162339999999915
21
-88.9632129999999961
0
LINE
8
BLACK
6
CONTINUOUS
10
207.1162339999999915
20
-88.9632129999999961
11
207.1160419999999931
21
-88.9605229999999949
0
LINE
8
BLACK
6
CONTINUOUS
10
207.1160419999999931
20
-88.9605229999999949
11
207.1150119999999788
21
-88.9580349999999953
0
LINE
8
BLACK
6
CONTINUOUS
10
207.1150119999999788
20
-88.9580349999999953
11
207.113570999999979
21
-88.9434029999999893
0
LINE
8
BLACK
6
CONTINUOUS
10
207.113570999999979
20
-88.9434029999999893
11
207.113570999999979
21
-88.7529269999999997
0
LINE
8
BLACK
6
CONTINUOUS
10
207.113570999999979
20
-88.7529269999999997
11
207.1150119999999788
21
-88.7382949999999937
0
LINE
8
BLACK
6
CONTINUOUS
10
207.1150119999999788
20
-88.7382949999999937
11
207.1160419999999931
21
-88.7358059999999966
0
LINE
8
BLACK
6
CONTINUOUS
10
207.1160419999999931
20
-88.7358059999999966
11
207.1162339999999915
21
-88.7331169999999929
0
LINE
8
BLACK
6
CONTINUOUS
10
207.1162339999999915
20
-88.7331169999999929
11
207.1214889999999968
21
-88.7193850000000026
0
LINE
8
BLACK
6
CONTINUOUS
10
207.1214889999999968
20
-88.7193850000000026
11
207.1691089999999917
21
-88.6241469999999936
0
LINE
8
BLACK
6
CONTINUOUS
10
207.1691089999999917
20
-88.6241469999999936
11
207.1706489999999974
21
-88.6216989999999925
0
LINE
8
BLACK
6
CONTINUOUS
10
207.1706489999999974
20
-88.6216989999999925
11
207.1710339999999917
21
-88.620547000000002
0
LINE
8
BLACK
6
CONTINUOUS
10
207.1710339999999917
20
-88.620547000000002
11
207.1722779999999773
21
-88.6191109999999895
0
LINE
8
BLACK
6
CONTINUOUS
10
207.1722779999999773
20
-88.6191109999999895
11
207.1769419999999968
21
-88.6117039999999889
0
LINE
8
BLACK
6
CONTINUOUS
10
207.1769419999999968
20
-88.6117039999999889
11
207.184045999999995
21
-88.6055429999999973
0
LINE
8
BLACK
6
CONTINUOUS
10
207.184045999999995
20
-88.6055429999999973
11
207.1902069999999867
21
-88.5984389999999991
0
LINE
8
BLACK
6
CONTINUOUS
10
207.1902069999999867
20
-88.5984389999999991
11
207.1976119999999923
21
-88.5937780000000004
0
LINE
8
BLACK
6
CONTINUOUS
10
207.1976119999999923
20
-88.5937780000000004
11
207.1990499999999997
21
-88.5925309999999939
0
LINE
8
BLACK
6
CONTINUOUS
10
207.1990499999999997
20
-88.5925309999999939
11
207.2002039999999852
21
-88.5921459999999996
0
LINE
8
BLACK
6
CONTINUOUS
10
207.2002039999999852
20
-88.5921459999999996
11
207.2026499999999771
21
-88.5906069999999914
0
LINE
8
BLACK
6
CONTINUOUS
10
207.2026499999999771
20
-88.5906069999999914
11
207.2978880000000004
21
-88.542987999999994
0
LINE
8
BLACK
6
CONTINUOUS
10
207.2978880000000004
20
-88.542987999999994
11
207.311618999999979
21
-88.5377330000000029
0
LINE
8
BLACK
6
CONTINUOUS
10
207.311618999999979
20
-88.5377330000000029
11
207.3143079999999827
21
-88.5375409999999903
0
LINE
8
BLACK
6
CONTINUOUS
10
207.3143079999999827
20
-88.5375409999999903
11
207.3167969999999798
21
-88.5365109999999902
0
LINE
8
BLACK
6
CONTINUOUS
10
207.3167969999999798
20
-88.5365109999999902
11
207.3314289999999858
21
-88.5350699999999904
0
LINE
8
BLACK
6
CONTINUOUS
10
207.3314289999999858
20
-88.5350699999999904
11
207.7123809999999935
21
-88.5350699999999904
0
LINE
8
BLACK
6
CONTINUOUS
10
207.7123809999999935
20
-88.5350699999999904
11
207.7270129999999995
21
-88.5365109999999902
0
LINE
8
BLACK
6
CONTINUOUS
10
207.6786280000000033
20
-89.0112599999999929
11
207.694675999999987
21
-89.0112599999999929
0
LINE
8
BLACK
6
CONTINUOUS
10
207.694675999999987
20
-89.0112599999999929
11
207.7517169999999851
21
-88.9827389999999951
0
LINE
8
BLACK
6
CONTINUOUS
10
207.7517169999999851
20
-88.9827389999999951
11
207.7802379999999971
21
-88.925697999999997
0
LINE
8
BLACK
6
CONTINUOUS
10
207.7802379999999971
20
-88.925697999999997
11
207.7802379999999971
21
-88.770631999999992
0
LINE
8
BLACK
6
CONTINUOUS
10
207.7802379999999971
20
-88.770631999999992
11
207.7517169999999851
21
-88.7135899999999964
0
LINE
8
BLACK
6
CONTINUOUS
10
207.7517169999999851
20
-88.7135899999999964
11
207.694675999999987
21
-88.6850699999999961
0
LINE
8
BLACK
6
CONTINUOUS
10
207.694675999999987
20
-88.6850699999999961
11
207.6133909999999787
21
-88.6850699999999961
0
LINE
8
BLACK
6
CONTINUOUS
10
207.6133909999999787
20
-88.6850699999999961
11
207.6786280000000033
21
-89.0112599999999929
0
LINE
8
BLACK
6
CONTINUOUS
10
207.6793940000000021
20
-87.6317489999999992
11
207.6818829999999991
21
-87.6327799999999968
0
LINE
8
BLACK
6
CONTINUOUS
10
207.6818829999999991
20
-87.6327799999999968
11
207.6845709999999769
21
-87.6329709999999977
0
LINE
8
BLACK
6
CONTINUOUS
10
207.6845709999999769
20
-87.6329709999999977
11
207.6983029999999815
21
-87.6382260000000031
0
LINE
8
BLACK
6
CONTINUOUS
10
207.6983029999999815
20
-87.6382260000000031
11
207.7935410000000047
21
-87.6858450000000005
0
LINE
8
BLACK
6
CONTINUOUS
10
207.7935410000000047
20
-87.6858450000000005
11
207.799839999999989
21
-87.6898089999999968
0
LINE
8
BLACK
6
CONTINUOUS
10
207.799839999999989
20
-87.6898089999999968
11
207.8016679999999781
21
-87.6905670000000015
0
LINE
8
BLACK
6
CONTINUOUS
10
207.8016679999999781
20
-87.6905670000000015
11
207.8037239999999883
21
-87.692255000000003
0
LINE
8
BLACK
6
CONTINUOUS
10
207.8037239999999883
20
-87.692255000000003
11
207.8059839999999951
21
-87.6936769999999939
0
LINE
8
BLACK
6
CONTINUOUS
10
207.8059839999999951
20
-87.6936769999999939
11
207.807282999999984
21
-87.6951749999999919
0
LINE
8
BLACK
6
CONTINUOUS
10
207.807282999999984
20
-87.6951749999999919
11
207.8130329999999901
21
-87.6998940000000005
0
LINE
8
BLACK
6
CONTINUOUS
10
207.8130329999999901
20
-87.6998940000000005
11
207.8606519999999875
21
-87.7475129999999979
0
LINE
8
BLACK
6
CONTINUOUS
10
207.8606519999999875
20
-87.7475129999999979
11
207.8653699999999844
21
-87.7532619999999923
0
LINE
8
BLACK
6
CONTINUOUS
10
207.8653699999999844
20
-87.7532619999999923
11
207.8668689999999799
21
-87.7545619999999928
0
LINE
8
BLACK
6
CONTINUOUS
10
207.8668689999999799
20
-87.7545619999999928
11
207.8682900000000018
21
-87.7568210000000022
0
LINE
8
BLACK
6
CONTINUOUS
10
207.8682900000000018
20
-87.7568210000000022
11
207.8699790000000007
21
-87.7588779999999957
0
LINE
8
BLACK
6
CONTINUOUS
10
207.8699790000000007
20
-87.7588779999999957
11
207.8707359999999937
21
-87.7607050000000015
0
LINE
8
BLACK
6
CONTINUOUS
10
207.8707359999999937
20
-87.7607050000000015
11
207.8747009999999875
21
-87.7670049999999975
0
LINE
8
BLACK
6
CONTINUOUS
10
207.8747009999999875
20
-87.7670049999999975
11
207.9223199999999849
21
-87.8622429999999923
0
LINE
8
BLACK
6
CONTINUOUS
10
207.9223199999999849
20
-87.8622429999999923
11
207.9275749999999903
21
-87.8759739999999994
0
LINE
8
BLACK
6
CONTINUOUS
10
207.9275749999999903
20
-87.8759739999999994
11
207.9277659999999912
21
-87.8786630000000031
0
LINE
8
BLACK
6
CONTINUOUS
10
207.9277659999999912
20
-87.8786630000000031
11
207.928797000000003
21
-87.8811520000000002
0
LINE
8
BLACK
6
CONTINUOUS
10
207.928797000000003
20
-87.8811520000000002
11
207.9302380000000028
21
-87.8957839999999919
0
LINE
8
BLACK
6
CONTINUOUS
10
207.9302380000000028
20
-87.8957839999999919
11
207.9302380000000028
21
-88.0862599999999958
0
LINE
8
BLACK
6
CONTINUOUS
10
207.9302380000000028
20
-88.0862599999999958
11
207.928797000000003
21
-88.1008920000000018
0
LINE
8
BLACK
6
CONTINUOUS
10
207.928797000000003
20
-88.1008920000000018
11
207.9277659999999912
21
-88.1033800000000014
0
LINE
8
BLACK
6
CONTINUOUS
10
207.9277659999999912
20
-88.1033800000000014
11
207.9275749999999903
21
-88.1060700000000026
0
LINE
8
BLACK
6
CONTINUOUS
10
207.9275749999999903
20
-88.1060700000000026
11
207.927410999999978
21
-88.106498000000002
0
LINE
8
BLACK
6
CONTINUOUS
10
207.927410999999978
20
-88.106498000000002
11
208.188570999999996
21
-88.106498000000002
0
LINE
8
BLACK
6
CONTINUOUS
10
208.188570999999996
20
-88.106498000000002
11
208.203203000000002
21
-88.1079390000000018
0
LINE
8
BLACK
6
CONTINUOUS
10
208.203203000000002
20
-88.1079390000000018
11
208.2302389999999832
21
-88.1191379999999924
0
LINE
8
BLACK
6
CONTINUOUS
10
208.2302389999999832
20
-88.1191379999999924
11
208.25093099999998
21
-88.1398299999999892
0
LINE
8
BLACK
6
CONTINUOUS
10
208.25093099999998
20
-88.1398299999999892
11
208.2621299999999849
21
-88.1668659999999988
0
LINE
8
BLACK
6
CONTINUOUS
10
208.2621299999999849
20
-88.1668659999999988
11
208.2621299999999849
21
-88.1961299999999966
0
LINE
8
BLACK
6
CONTINUOUS
10
208.2621299999999849
20
-88.1961299999999966
11
208.25093099999998
21
-88.223165999999992
0
LINE
8
BLACK
6
CONTINUOUS
10
208.25093099999998
20
-88.223165999999992
11
208.2302389999999832
21
-88.243858000000003
0
LINE
8
BLACK
6
CONTINUOUS
10
208.2302389999999832
20
-88.243858000000003
11
208.203203000000002
21
-88.2550569999999936
0
LINE
8
BLACK
6
CONTINUOUS
10
208.203203000000002
20
-88.2550569999999936
11
208.188570999999996
21
-88.2564979999999935
0
LINE
8
BLACK
6
CONTINUOUS
10
208.188570999999996
20
-88.2564979999999935
11
207.188570999999996
21
-88.2564979999999935
0
LINE
8
BLACK
6
CONTINUOUS
10
207.188570999999996
20
-88.2564979999999935
11
207.1739389999999901
21
-88.2550569999999936
0
LINE
8
BLACK
6
CONTINUOUS
10
207.1739389999999901
20
-88.2550569999999936
11
207.1469029999999805
21
-88.243858000000003
0
LINE
8
BLACK
6
CONTINUOUS
10
207.1469029999999805
20
-88.243858000000003
11
207.1262109999999836
21
-88.223165999999992
0
LINE
8
BLACK
6
CONTINUOUS
10
207.1262109999999836
20
-88.223165999999992
11
207.1150119999999788
21
-88.1961299999999966
0
LINE
8
BLACK
6
CONTINUOUS
10
207.1150119999999788
20
-88.1961299999999966
11
207.1150119999999788
21
-88.1668659999999988
0
LINE
8
BLACK
6
CONTINUOUS
10
207.1150119999999788
20
-88.1668659999999988
11
207.1262109999999836
21
-88.1398299999999892
0
LINE
8
BLACK
6
CONTINUOUS
10
207.1262109999999836
20
-88.1398299999999892
11
207.1297390000000007
21
-88.1363010000000031
0
LINE
8
BLACK
6
CONTINUOUS
10
207.1297390000000007
20
-88.1363010000000031
11
207.1214889999999968
21
-88.1198019999999929
0
LINE
8
BLACK
6
CONTINUOUS
10
207.1214889999999968
20
-88.1198019999999929
11
207.1162339999999915
21
-88.1060700000000026
0
LINE
8
BLACK
6
CONTINUOUS
10
207.1162339999999915
20
-88.1060700000000026
11
207.1160419999999931
21
-88.1033800000000014
0
LINE
8
BLACK
6
CONTINUOUS
10
207.1160419999999931
20
-88.1033800000000014
11
207.1150119999999788
21
-88.1008920000000018
0
LINE
8
BLACK
6
CONTINUOUS
10
207.1150119999999788
20
-88.1008920000000018
11
207.113570999999979
21
-88.0862599999999958
0
LINE
8
BLACK
6
CONTINUOUS
10
207.113570999999979
20
-88.0862599999999958
11
207.113570999999979
21
-87.8957839999999919
0
LINE
8
BLACK
6
CONTINUOUS
10
207.113570999999979
20
-87.8957839999999919
11
207.1150119999999788
21
-87.8811520000000002
0
LINE
8
BLACK
6
CONTINUOUS
10
207.1150119999999788
20
-87.8811520000000002
11
207.1160419999999931
21
-87.8786630000000031
0
LINE
8
BLACK
6
CONTINUOUS
10
207.1160419999999931
20
-87.8786630000000031
11
207.1162339999999915
21
-87.8759739999999994
0
LINE
8
BLACK
6
CONTINUOUS
10
207.1162339999999915
20
-87.8759739999999994
11
207.1214889999999968
21
-87.8622419999999948
0
LINE
8
BLACK
6
CONTINUOUS
10
207.1214889999999968
20
-87.8622419999999948
11
207.1691089999999917
21
-87.767004
0
LINE
8
BLACK
6
CONTINUOUS
10
207.1691089999999917
20
-87.767004
11
207.1730739999999855
21
-87.7607050000000015
0
LINE
8
BLACK
6
CONTINUOUS
10
207.1730739999999855
20
-87.7607050000000015
11
207.1738309999999785
21
-87.7588779999999957
0
LINE
8
BLACK
6
CONTINUOUS
10
207.1738309999999785
20
-87.7588779999999957
11
207.17551899999998
21
-87.7568199999999905
0
LINE
8
BLACK
6
CONTINUOUS
10
207.17551899999998
20
-87.7568199999999905
11
207.1769419999999968
21
-87.7545609999999954
0
LINE
8
BLACK
6
CONTINUOUS
10
207.1769419999999968
20
-87.7545609999999954
11
207.1784399999999948
21
-87.7532609999999949
0
LINE
8
BLACK
6
CONTINUOUS
10
207.1784399999999948
20
-87.7532609999999949
11
207.1831579999999917
21
-87.7475129999999979
0
LINE
8
BLACK
6
CONTINUOUS
10
207.1831579999999917
20
-87.7475129999999979
11
207.2307769999999891
21
-87.6998940000000005
0
LINE
8
BLACK
6
CONTINUOUS
10
207.2307769999999891
20
-87.6998940000000005
11
207.2365259999999978
21
-87.6951749999999919
0
LINE
8
BLACK
6
CONTINUOUS
10
207.2365259999999978
20
-87.6951749999999919
11
207.2378259999999841
21
-87.6936769999999939
0
LINE
8
BLACK
6
CONTINUOUS
10
207.2378259999999841
20
-87.6936769999999939
11
207.2400849999999934
21
-87.692255000000003
0
LINE
8
BLACK
6
CONTINUOUS
10
207.2400849999999934
20
-87.692255000000003
11
207.2421420000000012
21
-87.6905670000000015
0
LINE
8
BLACK
6
CONTINUOUS
10
207.2421420000000012
20
-87.6905670000000015
11
207.2439689999999928
21
-87.6898089999999968
0
LINE
8
BLACK
6
CONTINUOUS
10
207.2439689999999928
20
-87.6898089999999968
11
207.250269000000003
21
-87.6858450000000005
0
LINE
8
BLACK
6
CONTINUOUS
10
207.250269000000003
20
-87.6858450000000005
11
207.3455069999999978
21
-87.6382260000000031
0
LINE
8
BLACK
6
CONTINUOUS
10
207.3455069999999978
20
-87.6382260000000031
11
207.3592379999999764
21
-87.6329709999999977
0
LINE
8
BLACK
6
CONTINUOUS
10
207.3592379999999764
20
-87.6329709999999977
11
207.3619269999999801
21
-87.6327789999999993
0
LINE
8
BLACK
6
CONTINUOUS
10
207.3619269999999801
20
-87.6327789999999993
11
207.3644159999999772
21
-87.6317489999999992
0
LINE
8
BLACK
6
CONTINUOUS
10
207.3644159999999772
20
-87.6317489999999992
11
207.3790479999999832
21
-87.6303079999999994
0
LINE
8
BLACK
6
CONTINUOUS
10
207.3790479999999832
20
-87.6303079999999994
11
207.6647619999999961
21
-87.6303079999999994
0
LINE
8
BLACK
6
CONTINUOUS
10
207.6647619999999961
20
-87.6303079999999994
11
207.6793940000000021
21
-87.6317489999999992
0
LINE
8
BLACK
6
CONTINUOUS
10
207.3282370000000014
20
-87.8145659999999992
11
207.2978289999999788
21
-87.844972999999996
0
LINE
8
BLACK
6
CONTINUOUS
10
207.2978289999999788
20
-87.844972999999996
11
207.2635709999999847
21
-87.9134899999999959
0
LINE
8
BLACK
6
CONTINUOUS
10
207.2635709999999847
20
-87.9134899999999959
11
207.2635709999999847
21
-88.0685529999999943
0
LINE
8
BLACK
6
CONTINUOUS
10
207.2635709999999847
20
-88.0685529999999943
11
207.282543000000004
21
-88.106498000000002
0
LINE
8
BLACK
6
CONTINUOUS
10
207.282543000000004
20
-88.106498000000002
11
207.7612670000000037
21
-88.106498000000002
0
LINE
8
BLACK
6
CONTINUOUS
10
207.7612670000000037
20
-88.106498000000002
11
207.7802379999999971
21
-88.0685549999999893
0
LINE
8
BLACK
6
CONTINUOUS
10
207.7802379999999971
20
-88.0685549999999893
11
207.7802379999999971
21
-87.9134889999999984
0
LINE
8
BLACK
6
CONTINUOUS
10
207.7802379999999971
20
-87.9134889999999984
11
207.745980000000003
21
-87.844972999999996
0
LINE
8
BLACK
6
CONTINUOUS
10
207.745980000000003
20
-87.844972999999996
11
207.7155729999999778
21
-87.8145659999999992
0
LINE
8
BLACK
6
CONTINUOUS
10
207.7155729999999778
20
-87.8145659999999992
11
207.6470569999999896
21
-87.7803079999999909
0
LINE
8
BLACK
6
CONTINUOUS
10
207.6470569999999896
20
-87.7803079999999909
11
207.3967529999999897
21
-87.7803079999999909
0
LINE
8
BLACK
6
CONTINUOUS
10
207.3967529999999897
20
-87.7803079999999909
11
207.3282370000000014
21
-87.8145659999999992
0
LINE
8
BLACK
6
CONTINUOUS
10
209.6032029999999793
20
-87.2269869999999941
11
209.6302389999999889
21
-87.2381859999999989
0
LINE
8
BLACK
6
CONTINUOUS
10
209.6302389999999889
20
-87.2381859999999989
11
209.6509309999999857
21
-87.2588779999999957
0
LINE
8
BLACK
6
CONTINUOUS
10
209.6509309999999857
20
-87.2588779999999957
11
209.6621299999999906
21
-87.2859139999999911
0
LINE
8
BLACK
6
CONTINUOUS
10
209.6621299999999906
20
-87.2859139999999911
11
209.6635709999999904
21
-87.3005459999999971
0
LINE
8
BLACK
6
CONTINUOUS
10
209.6635709999999904
20
-87.3005459999999971
11
209.6635709999999904
21
-87.6338789999999932
0
LINE
8
BLACK
6
CONTINUOUS
10
209.6635709999999904
20
-87.6338789999999932
11
209.6621299999999906
21
-87.6485109999999992
0
LINE
8
BLACK
6
CONTINUOUS
10
209.6621299999999906
20
-87.6485109999999992
11
209.6610989999999788
21
-87.6509989999999988
0
LINE
8
BLACK
6
CONTINUOUS
10
209.6610989999999788
20
-87.6509989999999988
11
209.6609079999999778
21
-87.653689
0
LINE
8
BLACK
6
CONTINUOUS
10
209.6609079999999778
20
-87.653689
11
209.6556530000000009
21
-87.6674199999999928
0
LINE
8
BLACK
6
CONTINUOUS
10
209.6556530000000009
20
-87.6674199999999928
11
209.6080340000000035
21
-87.7626580000000018
0
LINE
8
BLACK
6
CONTINUOUS
10
209.6080340000000035
20
-87.7626580000000018
11
209.6040689999999813
21
-87.7689570000000003
0
LINE
8
BLACK
6
CONTINUOUS
10
209.6040689999999813
20
-87.7689570000000003
11
209.6033119999999883
21
-87.7707849999999894
0
LINE
8
BLACK
6
CONTINUOUS
10
209.6033119999999883
20
-87.7707849999999894
11
209.6016229999999894
21
-87.7728409999999997
0
LINE
8
BLACK
6
CONTINUOUS
10
209.6016229999999894
20
-87.7728409999999997
11
209.6002019999999959
21
-87.7751009999999923
0
LINE
8
BLACK
6
CONTINUOUS
10
209.6002019999999959
20
-87.7751009999999923
11
209.5987030000000004
21
-87.7763999999999953
0
LINE
8
BLACK
6
CONTINUOUS
10
209.5987030000000004
20
-87.7763999999999953
11
209.5939850000000035
21
-87.7821500000000015
0
LINE
8
BLACK
6
CONTINUOUS
10
209.5939850000000035
20
-87.7821500000000015
11
209.5463659999999777
21
-87.8297689999999989
0
LINE
8
BLACK
6
CONTINUOUS
10
209.5463659999999777
20
-87.8297689999999989
11
209.540616
21
-87.8344869999999958
0
LINE
8
BLACK
6
CONTINUOUS
10
209.540616
20
-87.8344869999999958
11
209.5393169999999827
21
-87.8359859999999912
0
LINE
8
BLACK
6
CONTINUOUS
10
209.5393169999999827
20
-87.8359859999999912
11
209.5370570000000043
21
-87.8374069999999989
0
LINE
8
BLACK
6
CONTINUOUS
10
209.5370570000000043
20
-87.8374069999999989
11
209.5350009999999941
21
-87.8390959999999978
0
LINE
8
BLACK
6
CONTINUOUS
10
209.5350009999999941
20
-87.8390959999999978
11
209.5331729999999766
21
-87.8398529999999909
0
LINE
8
BLACK
6
CONTINUOUS
10
209.5331729999999766
20
-87.8398529999999909
11
209.5268739999999923
21
-87.8438179999999988
0
LINE
8
BLACK
6
CONTINUOUS
10
209.5268739999999923
20
-87.8438179999999988
11
209.4316359999999975
21
-87.8914369999999963
0
LINE
8
BLACK
6
CONTINUOUS
10
209.4316359999999975
20
-87.8914369999999963
11
209.4179039999999929
21
-87.8966920000000016
0
LINE
8
BLACK
6
CONTINUOUS
10
209.4179039999999929
20
-87.8966920000000016
11
209.4152159999999867
21
-87.8968819999999909
0
LINE
8
BLACK
6
CONTINUOUS
10
209.4152159999999867
20
-87.8968819999999909
11
209.4127269999999896
21
-87.8979140000000001
0
LINE
8
BLACK
6
CONTINUOUS
10
209.4127269999999896
20
-87.8979140000000001
11
209.3980949999999837
21
-87.8993549999999999
0
LINE
8
BLACK
6
CONTINUOUS
10
209.3980949999999837
20
-87.8993549999999999
11
209.3028569999999888
21
-87.8993549999999999
0
LINE
8
BLACK
6
CONTINUOUS
10
209.3028569999999888
20
-87.8993549999999999
11
209.2882249999999829
21
-87.8979140000000001
0
LINE
8
BLACK
6
CONTINUOUS
10
209.2882249999999829
20
-87.8979140000000001
11
209.2857359999999858
21
-87.8968830000000025
0
LINE
8
BLACK
6
CONTINUOUS
10
209.2857359999999858
20
-87.8968830000000025
11
209.2830469999999821
21
-87.8966920000000016
0
LINE
8
BLACK
6
CONTINUOUS
10
209.2830469999999821
20
-87.8966920000000016
11
209.2693160000000034
21
-87.8914369999999963
0
LINE
8
BLACK
6
CONTINUOUS
10
209.2693160000000034
20
-87.8914369999999963
11
209.1740779999999802
21
-87.8438179999999988
0
LINE
8
BLACK
6
CONTINUOUS
10
209.1740779999999802
20
-87.8438179999999988
11
209.1677779999999984
21
-87.8398529999999909
0
LINE
8
BLACK
6
CONTINUOUS
10
209.1677779999999984
20
-87.8398529999999909
11
209.1659509999999784
21
-87.8390959999999978
0
LINE
8
BLACK
6
CONTINUOUS
10
209.1659509999999784
20
-87.8390959999999978
11
209.1638939999999991
21
-87.8374069999999989
0
LINE
8
BLACK
6
CONTINUOUS
10
209.1638939999999991
20
-87.8374069999999989
11
209.1616349999999898
21
-87.8359859999999912
0
LINE
8
BLACK
6
CONTINUOUS
10
209.1616349999999898
20
-87.8359859999999912
11
209.1603350000000034
21
-87.8344869999999958
0
LINE
8
BLACK
6
CONTINUOUS
10
209.1603350000000034
20
-87.8344869999999958
11
209.1545859999999948
21
-87.8297689999999989
0
LINE
8
BLACK
6
CONTINUOUS
10
209.1545859999999948
20
-87.8297689999999989
11
209.1326279999999826
21
-87.8078110000000009
0
LINE
8
BLACK
6
CONTINUOUS
10
209.1326279999999826
20
-87.8078110000000009
11
209.129919000000001
21
-87.813879
0
LINE
8
BLACK
6
CONTINUOUS
10
209.129919000000001
20
-87.813879
11
209.128152
21
-87.8159149999999897
0
LINE
8
BLACK
6
CONTINUOUS
10
209.128152
20
-87.8159149999999897
11
209.1271219999999857
21
-87.818404000000001
0
LINE
8
BLACK
6
CONTINUOUS
10
209.1271219999999857
20
-87.818404000000001
11
209.117795000000001
21
-87.8297689999999989
0
LINE
8
BLACK
6
CONTINUOUS
10
209.117795000000001
20
-87.8297689999999989
11
209.0701760000000036
21
-87.8773879999999963
0
LINE
8
BLACK
6
CONTINUOUS
10
209.0701760000000036
20
-87.8773879999999963
11
209.0644259999999974
21
-87.8821059999999932
0
LINE
8
BLACK
6
CONTINUOUS
10
209.0644259999999974
20
-87.8821059999999932
11
209.0631269999999802
21
-87.8836050000000029
0
LINE
8
BLACK
6
CONTINUOUS
10
209.0631269999999802
20
-87.8836050000000029
11
209.0608670000000018
21
-87.8850259999999963
0
LINE
8
BLACK
6
CONTINUOUS
10
209.0608670000000018
20
-87.8850259999999963
11
209.0588109999999915
21
-87.8867149999999953
0
LINE
8
BLACK
6
CONTINUOUS
10
209.0588109999999915
20
-87.8867149999999953
11
209.0569830000000024
21
-87.8874720000000025
0
LINE
8
BLACK
6
CONTINUOUS
10
209.0569830000000024
20
-87.8874720000000025
11
209.0506839999999897
21
-87.8914369999999963
0
LINE
8
BLACK
6
CONTINUOUS
10
209.0506839999999897
20
-87.8914369999999963
11
208.9554459999999949
21
-87.9390559999999937
0
LINE
8
BLACK
6
CONTINUOUS
10
208.9554459999999949
20
-87.9390559999999937
11
208.9417139999999904
21
-87.944310999999999
0
LINE
8
BLACK
6
CONTINUOUS
10
208.9417139999999904
20
-87.944310999999999
11
208.9390259999999842
21
-87.9445010000000025
0
LINE
8
BLACK
6
CONTINUOUS
10
208.9390259999999842
20
-87.9445010000000025
11
208.9365369999999871
21
-87.9455329999999975
0
LINE
8
BLACK
6
CONTINUOUS
10
208.9365369999999871
20
-87.9455329999999975
11
208.9219049999999811
21
-87.9469739999999973
0
LINE
8
BLACK
6
CONTINUOUS
10
208.9219049999999811
20
-87.9469739999999973
11
208.7790479999999889
21
-87.9469739999999973
0
LINE
8
BLACK
6
CONTINUOUS
10
208.7790479999999889
20
-87.9469739999999973
11
208.7644159999999829
21
-87.9455329999999975
0
LINE
8
BLACK
6
CONTINUOUS
10
208.7644159999999829
20
-87.9455329999999975
11
208.7619269999999858
21
-87.944502
0
LINE
8
BLACK
6
CONTINUOUS
10
208.7619269999999858
20
-87.944502
11
208.7592379999999821
21
-87.944310999999999
0
LINE
8
BLACK
6
CONTINUOUS
10
208.7592379999999821
20
-87.944310999999999
11
208.7455070000000035
21
-87.9390559999999937
0
LINE
8
BLACK
6
CONTINUOUS
10
208.7455070000000035
20
-87.9390559999999937
11
208.6502689999999802
21
-87.8914369999999963
0
LINE
8
BLACK
6
CONTINUOUS
10
208.6502689999999802
20
-87.8914369999999963
11
208.6439689999999985
21
-87.8874720000000025
0
LINE
8
BLACK
6
CONTINUOUS
10
208.6439689999999985
20
-87.8874720000000025
11
208.6421419999999785
21
-87.8867149999999953
0
LINE
8
BLACK
6
CONTINUOUS
10
208.6421419999999785
20
-87.8867149999999953
11
208.6400849999999991
21
-87.8850259999999963
0
LINE
8
BLACK
6
CONTINUOUS
10
208.6400849999999991
20
-87.8850259999999963
11
208.6378259999999898
21
-87.8836050000000029
0
LINE
8
BLACK
6
CONTINUOUS
10
208.6378259999999898
20
-87.8836050000000029
11
208.6365260000000035
21
-87.8821059999999932
0
LINE
8
BLACK
6
CONTINUOUS
10
208.6365260000000035
20
-87.8821059999999932
11
208.6307769999999948
21
-87.8773879999999963
0
LINE
8
BLACK
6
CONTINUOUS
10
208.6307769999999948
20
-87.8773879999999963
11
208.5831579999999974
21
-87.8297689999999989
0
LINE
8
BLACK
6
CONTINUOUS
10
208.5831579999999974
20
-87.8297689999999989
11
208.5784400000000005
21
-87.8240199999999902
0
LINE
8
BLACK
6
CONTINUOUS
10
208.5784400000000005
20
-87.8240199999999902
11
208.5769420000000025
21
-87.8227210000000014
0
LINE
8
BLACK
6
CONTINUOUS
10
208.5769420000000025
20
-87.8227210000000014
11
208.5755189999999857
21
-87.8204609999999946
0
LINE
8
BLACK
6
CONTINUOUS
10
208.5755189999999857
20
-87.8204609999999946
11
208.5738309999999842
21
-87.818404000000001
0
LINE
8
BLACK
6
CONTINUOUS
10
208.5738309999999842
20
-87.818404000000001
11
208.5730739999999912
21
-87.8165759999999977
0
LINE
8
BLACK
6
CONTINUOUS
10
208.5730739999999912
20
-87.8165759999999977
11
208.5691089999999974
21
-87.8102779999999967
0
LINE
8
BLACK
6
CONTINUOUS
10
208.5691089999999974
20
-87.8102779999999967
11
208.5214890000000025
21
-87.7150400000000019
0
LINE
8
BLACK
6
CONTINUOUS
10
208.5214890000000025
20
-87.7150400000000019
11
208.5162339999999972
21
-87.7013079999999974
0
LINE
8
BLACK
6
CONTINUOUS
10
208.5162339999999972
20
-87.7013079999999974
11
208.5160419999999988
21
-87.6986179999999962
0
LINE
8
BLACK
6
CONTINUOUS
10
208.5160419999999988
20
-87.6986179999999962
11
208.5150119999999845
21
-87.6961299999999966
0
LINE
8
BLACK
6
CONTINUOUS
10
208.5150119999999845
20
-87.6961299999999966
11
208.5135709999999847
21
-87.6814979999999906
0
LINE
8
BLACK
6
CONTINUOUS
10
208.5135709999999847
20
-87.6814979999999906
11
208.5135709999999847
21
-87.3005459999999971
0
LINE
8
BLACK
6
CONTINUOUS
10
208.5135709999999847
20
-87.3005459999999971
11
208.5150119999999845
21
-87.2859139999999911
0
LINE
8
BLACK
6
CONTINUOUS
10
208.5150119999999845
20
-87.2859139999999911
11
208.5262109999999893
21
-87.2588779999999957
0
LINE
8
BLACK
6
CONTINUOUS
10
208.5262109999999893
20
-87.2588779999999957
11
208.5469029999999862
21
-87.2381859999999989
0
LINE
8
BLACK
6
CONTINUOUS
10
208.5469029999999862
20
-87.2381859999999989
11
208.5739389999999958
21
-87.2269869999999941
0
LINE
8
BLACK
6
CONTINUOUS
10
208.5739389999999958
20
-87.2269869999999941
11
208.5885710000000017
21
-87.2255459999999943
0
LINE
8
BLACK
6
CONTINUOUS
10
208.5885710000000017
20
-87.2255459999999943
11
209.5885710000000017
21
-87.2255459999999943
0
LINE
8
BLACK
6
CONTINUOUS
10
209.5885710000000017
20
-87.2255459999999943
11
209.6032029999999793
21
-87.2269869999999941
0
LINE
8
BLACK
6
CONTINUOUS
10
208.6635709999999904
20
-87.6637909999999891
11
208.6978289999999845
21
-87.7323079999999891
0
LINE
8
BLACK
6
CONTINUOUS
10
208.6978289999999845
20
-87.7323079999999891
11
208.7282369999999787
21
-87.7627159999999975
0
LINE
8
BLACK
6
CONTINUOUS
10
208.7282369999999787
20
-87.7627159999999975
11
208.7967529999999954
21
-87.7969739999999916
0
LINE
8
BLACK
6
CONTINUOUS
10
208.7967529999999954
20
-87.7969739999999916
11
208.904200000000003
21
-87.7969739999999916
0
LINE
8
BLACK
6
CONTINUOUS
10
208.904200000000003
20
-87.7969739999999916
11
208.9727159999999913
21
-87.7627159999999975
0
LINE
8
BLACK
6
CONTINUOUS
10
208.9727159999999913
20
-87.7627159999999975
11
208.9992099999999766
21
-87.7362219999999979
0
LINE
8
BLACK
6
CONTINUOUS
10
208.9992099999999766
20
-87.7362219999999979
11
209.0373809999999821
21
-87.6217089999999956
0
LINE
8
BLACK
6
CONTINUOUS
10
209.0373809999999821
20
-87.6217089999999956
11
209.0373809999999821
21
-87.3755459999999999
0
LINE
8
BLACK
6
CONTINUOUS
10
209.0373809999999821
20
-87.3755459999999999
11
208.6635709999999904
21
-87.3755459999999999
0
LINE
8
BLACK
6
CONTINUOUS
10
208.6635709999999904
20
-87.3755459999999999
11
208.6635709999999904
21
-87.6637909999999891
0
LINE
8
BLACK
6
CONTINUOUS
10
209.1873809999999878
20
-87.6161740000000009
11
209.2216389999999819
21
-87.6846899999999891
0
LINE
8
BLACK
6
CONTINUOUS
10
209.2216389999999819
20
-87.6846899999999891
11
209.2520459999999787
21
-87.7150970000000001
0
LINE
8
BLACK
6
CONTINUOUS
10
209.2520459999999787
20
-87.7150970000000001
11
209.3205619999999954
21
-87.7493549999999942
0
LINE
8
BLACK
6
CONTINUOUS
10
209.3205619999999954
20
-87.7493549999999942
11
209.3803899999999771
21
-87.7493549999999942
0
LINE
8
BLACK
6
CONTINUOUS
10
209.3803899999999771
20
-87.7493549999999942
11
209.4489059999999938
21
-87.7150970000000001
0
LINE
8
BLACK
6
CONTINUOUS
10
209.4489059999999938
20
-87.7150970000000001
11
209.4793129999999906
21
-87.6846899999999891
0
LINE
8
BLACK
6
CONTINUOUS
10
209.4793129999999906
20
-87.6846899999999891
11
209.5135709999999847
21
-87.6161740000000009
0
LINE
8
BLACK
6
CONTINUOUS
10
209.5135709999999847
20
-87.6161740000000009
11
209.5135709999999847
21
-87.3755459999999999
0
LINE
8
BLACK
6
CONTINUOUS
10
209.5135709999999847
20
-87.3755459999999999
11
209.1873809999999878
21
-87.3755459999999999
0
LINE
8
BLACK
6
CONTINUOUS
10
209.1873809999999878
20
-87.3755459999999999
11
209.1873809999999878
21
-87.6161740000000009
0
LINE
8
BLACK
6
CONTINUOUS
10
208.1826199999999858
20
-87.1667580000000015
11
208.1939849999999979
21
-87.1760850000000005
0
LINE
8
BLACK
6
CONTINUOUS
10
208.1939849999999979
20
-87.1760850000000005
11
208.2416039999999953
21
-87.2237039999999979
0
LINE
8
BLACK
6
CONTINUOUS
10
208.2416039999999953
20
-87.2237039999999979
11
208.25093099999998
21
-87.2350689999999958
0
LINE
8
BLACK
6
CONTINUOUS
10
208.25093099999998
20
-87.2350689999999958
11
208.254526999999996
21
-87.2437499999999915
0
LINE
8
BLACK
6
CONTINUOUS
10
208.254526999999996
20
-87.2437499999999915
11
208.2621299999999849
21
-87.2621060000000028
0
LINE
8
BLACK
6
CONTINUOUS
10
208.2621299999999849
20
-87.2621060000000028
11
208.2621299999999849
21
-87.2913690000000031
0
LINE
8
BLACK
6
CONTINUOUS
10
208.2621299999999849
20
-87.2913690000000031
11
208.25093099999998
21
-87.3184049999999985
0
LINE
8
BLACK
6
CONTINUOUS
10
208.25093099999998
20
-87.3184049999999985
11
208.2416039999999953
21
-87.3297699999999963
0
LINE
8
BLACK
6
CONTINUOUS
10
208.2416039999999953
20
-87.3297699999999963
11
208.1939849999999979
21
-87.3773889999999938
0
LINE
8
BLACK
6
CONTINUOUS
10
208.1939849999999979
20
-87.3773889999999938
11
208.1826199999999858
21
-87.3867159999999927
0
LINE
8
BLACK
6
CONTINUOUS
10
208.1826199999999858
20
-87.3867159999999927
11
208.1555829999999787
21
-87.3979149999999976
0
LINE
8
BLACK
6
CONTINUOUS
10
208.1555829999999787
20
-87.3979149999999976
11
208.1263209999999901
21
-87.3979149999999976
0
LINE
8
BLACK
6
CONTINUOUS
10
208.1263209999999901
20
-87.3979149999999976
11
208.1263199999999927
21
-87.3979149999999976
0
LINE
8
BLACK
6
CONTINUOUS
10
208.1263199999999927
20
-87.3979149999999976
11
208.0992839999999831
21
-87.3867159999999927
0
LINE
8
BLACK
6
CONTINUOUS
10
208.0992839999999831
20
-87.3867159999999927
11
208.0879189999999994
21
-87.3773889999999938
0
LINE
8
BLACK
6
CONTINUOUS
10
208.0879189999999994
20
-87.3773889999999938
11
208.040300000000002
21
-87.3297699999999963
0
LINE
8
BLACK
6
CONTINUOUS
10
208.040300000000002
20
-87.3297699999999963
11
208.0309729999999888
21
-87.3184049999999985
0
LINE
8
BLACK
6
CONTINUOUS
10
208.0309729999999888
20
-87.3184049999999985
11
208.019773999999984
21
-87.2913679999999914
0
LINE
8
BLACK
6
CONTINUOUS
10
208.019773999999984
20
-87.2913679999999914
11
208.019773999999984
21
-87.2621060000000028
0
LINE
8
BLACK
6
CONTINUOUS
10
208.019773999999984
20
-87.2621060000000028
11
208.0309729999999888
21
-87.2350689999999958
0
LINE
8
BLACK
6
CONTINUOUS
10
208.0309729999999888
20
-87.2350689999999958
11
208.040300000000002
21
-87.2237039999999979
0
LINE
8
BLACK
6
CONTINUOUS
10
208.040300000000002
20
-87.2237039999999979
11
208.0879189999999994
21
-87.1760850000000005
0
LINE
8
BLACK
6
CONTINUOUS
10
208.0879189999999994
20
-87.1760850000000005
11
208.0992839999999831
21
-87.1667580000000015
0
LINE
8
BLACK
6
CONTINUOUS
10
208.0992839999999831
20
-87.1667580000000015
11
208.1263199999999927
21
-87.1555589999999967
0
LINE
8
BLACK
6
CONTINUOUS
10
208.1263199999999927
20
-87.1555589999999967
11
208.1555829999999787
21
-87.1555589999999967
0
LINE
8
BLACK
6
CONTINUOUS
10
208.1555829999999787
20
-87.1555589999999967
11
208.1826199999999858
21
-87.1667580000000015
0
LINE
8
BLACK
6
CONTINUOUS
10
207.8698699999999917
20
-87.2031779999999941
11
207.8969060000000013
21
-87.2143769999999989
0
LINE
8
BLACK
6
CONTINUOUS
10
207.8969060000000013
20
-87.2143769999999989
11
207.9175979999999981
21
-87.2350689999999958
0
LINE
8
BLACK
6
CONTINUOUS
10
207.9175979999999981
20
-87.2350689999999958
11
207.928797000000003
21
-87.2621049999999912
0
LINE
8
BLACK
6
CONTINUOUS
10
207.928797000000003
20
-87.2621049999999912
11
207.928797000000003
21
-87.2913690000000031
0
LINE
8
BLACK
6
CONTINUOUS
10
207.928797000000003
20
-87.2913690000000031
11
207.9175979999999981
21
-87.3184049999999985
0
LINE
8
BLACK
6
CONTINUOUS
10
207.9175979999999981
20
-87.3184049999999985
11
207.8969060000000013
21
-87.3390969999999953
0
LINE
8
BLACK
6
CONTINUOUS
10
207.8969060000000013
20
-87.3390969999999953
11
207.8698699999999917
21
-87.3502960000000002
0
LINE
8
BLACK
6
CONTINUOUS
10
207.8698699999999917
20
-87.3502960000000002
11
207.8552379999999857
21
-87.351737
0
LINE
8
BLACK
6
CONTINUOUS
10
207.8552379999999857
20
-87.351737
11
207.188570999999996
21
-87.351737
0
LINE
8
BLACK
6
CONTINUOUS
10
207.188570999999996
20
-87.351737
11
207.1739389999999901
21
-87.3502960000000002
0
LINE
8
BLACK
6
CONTINUOUS
10
207.1739389999999901
20
-87.3502960000000002
11
207.1469029999999805
21
-87.3390969999999953
0
LINE
8
BLACK
6
CONTINUOUS
10
207.1469029999999805
20
-87.3390969999999953
11
207.1262109999999836
21
-87.3184049999999985
0
LINE
8
BLACK
6
CONTINUOUS
10
207.1262109999999836
20
-87.3184049999999985
11
207.1150119999999788
21
-87.2913690000000031
0
LINE
8
BLACK
6
CONTINUOUS
10
207.1150119999999788
20
-87.2913690000000031
11
207.1150119999999788
21
-87.2621049999999912
0
LINE
8
BLACK
6
CONTINUOUS
10
207.1150119999999788
20
-87.2621049999999912
11
207.1262109999999836
21
-87.2350689999999958
0
LINE
8
BLACK
6
CONTINUOUS
10
207.1262109999999836
20
-87.2350689999999958
11
207.1469029999999805
21
-87.2143769999999989
0
LINE
8
BLACK
6
CONTINUOUS
10
207.1469029999999805
20
-87.2143769999999989
11
207.1739389999999901
21
-87.2031779999999941
0
LINE
8
BLACK
6
CONTINUOUS
10
207.1739389999999901
20
-87.2031779999999941
11
207.188570999999996
21
-87.2017369999999943
0
LINE
8
BLACK
6
CONTINUOUS
10
207.188570999999996
20
-87.2017369999999943
11
207.8552379999999857
21
-87.2017369999999943
0
LINE
8
BLACK
6
CONTINUOUS
10
207.8552379999999857
20
-87.2017369999999943
11
207.8698699999999917
21
-87.2031779999999941
0
LINE
8
BLACK
6
CONTINUOUS
10
209.4127269999999896
20
-86.2269869999999941
11
209.4152159999999867
21
-86.2280179999999916
0
LINE
8
BLACK
6
CONTINUOUS
10
209.4152159999999867
20
-86.2280179999999916
11
209.4179039999999929
21
-86.2282089999999926
0
LINE
8
BLACK
6
CONTINUOUS
10
209.4179039999999929
20
-86.2282089999999926
11
209.4316359999999975
21
-86.2334639999999979
0
LINE
8
BLACK
6
CONTINUOUS
10
209.4316359999999975
20
-86.2334639999999979
11
209.5268739999999923
21
-86.2810829999999953
0
LINE
8
BLACK
6
CONTINUOUS
10
209.5268739999999923
20
-86.2810829999999953
11
209.5331729999999766
21
-86.2850469999999916
0
LINE
8
BLACK
6
CONTINUOUS
10
209.5331729999999766
20
-86.2850469999999916
11
209.5350009999999941
21
-86.2858049999999963
0
LINE
8
BLACK
6
CONTINUOUS
10
209.5350009999999941
20
-86.2858049999999963
11
209.5370570000000043
21
-86.2874929999999978
0
LINE
8
BLACK
6
CONTINUOUS
10
209.5370570000000043
20
-86.2874929999999978
11
209.5393169999999827
21
-86.2889150000000029
0
LINE
8
BLACK
6
CONTINUOUS
10
209.5393169999999827
20
-86.2889150000000029
11
209.540616
21
-86.2904130000000009
0
LINE
8
BLACK
6
CONTINUOUS
10
209.540616
20
-86.2904130000000009
11
209.5463659999999777
21
-86.2951319999999953
0
LINE
8
BLACK
6
CONTINUOUS
10
209.5463659999999777
20
-86.2951319999999953
11
209.5939850000000035
21
-86.3427509999999927
0
LINE
8
BLACK
6
CONTINUOUS
10
209.5939850000000035
20
-86.3427509999999927
11
209.5987030000000004
21
-86.3485000000000014
0
LINE
8
BLACK
6
CONTINUOUS
10
209.5987030000000004
20
-86.3485000000000014
11
209.6002019999999959
21
-86.3498000000000019
0
LINE
8
BLACK
6
CONTINUOUS
10
209.6002019999999959
20
-86.3498000000000019
11
209.6016229999999894
21
-86.352058999999997
0
LINE
8
BLACK
6
CONTINUOUS
10
209.6016229999999894
20
-86.352058999999997
11
209.6033119999999883
21
-86.3541159999999905
0
LINE
8
BLACK
6
CONTINUOUS
10
209.6033119999999883
20
-86.3541159999999905
11
209.6040689999999813
21
-86.3559429999999963
0
LINE
8
BLACK
6
CONTINUOUS
10
209.6040689999999813
20
-86.3559429999999963
11
209.6080340000000035
21
-86.3622429999999923
0
LINE
8
BLACK
6
CONTINUOUS
10
209.6080340000000035
20
-86.3622429999999923
11
209.6556530000000009
21
-86.4574810000000014
0
LINE
8
BLACK
6
CONTINUOUS
10
209.6556530000000009
20
-86.4574810000000014
11
209.6609079999999778
21
-86.4712119999999942
0
LINE
8
BLACK
6
CONTINUOUS
10
209.6609079999999778
20
-86.4712119999999942
11
209.6610989999999788
21
-86.4739009999999979
0
LINE
8
BLACK
6
CONTINUOUS
10
209.6610989999999788
20
-86.4739009999999979
11
209.6621299999999906
21
-86.476389999999995
0
LINE
8
BLACK
6
CONTINUOUS
10
209.6621299999999906
20
-86.476389999999995
11
209.6635709999999904
21
-86.491022000000001
0
LINE
8
BLACK
6
CONTINUOUS
10
209.6635709999999904
20
-86.491022000000001
11
209.6635709999999904
21
-86.7291170000000022
0
LINE
8
BLACK
6
CONTINUOUS
10
209.6635709999999904
20
-86.7291170000000022
11
209.662840999999986
21
-86.7365229999999912
0
LINE
8
BLACK
6
CONTINUOUS
10
209.662840999999986
20
-86.7365229999999912
11
209.6629819999999995
21
-86.7384979999999928
0
LINE
8
BLACK
6
CONTINUOUS
10
209.6629819999999995
20
-86.7384979999999928
11
209.6623909999999853
21
-86.7410950000000014
0
LINE
8
BLACK
6
CONTINUOUS
10
209.6623909999999853
20
-86.7410950000000014
11
209.6621299999999906
21
-86.743748999999994
0
LINE
8
BLACK
6
CONTINUOUS
10
209.6621299999999906
20
-86.743748999999994
11
209.6613710000000026
21
-86.7455789999999922
0
LINE
8
BLACK
6
CONTINUOUS
10
209.6613710000000026
20
-86.7455789999999922
11
209.6597219999999879
21
-86.7528349999999904
0
LINE
8
BLACK
6
CONTINUOUS
10
209.6597219999999879
20
-86.7528349999999904
11
209.6121029999999905
21
-86.8956909999999993
0
LINE
8
BLACK
6
CONTINUOUS
10
209.6121029999999905
20
-86.8956909999999993
11
209.6061090000000036
21
-86.9091169999999948
0
LINE
8
BLACK
6
CONTINUOUS
10
209.6061090000000036
20
-86.9091169999999948
11
209.5869349999999827
21
-86.9312240000000003
0
LINE
8
BLACK
6
CONTINUOUS
10
209.5869349999999827
20
-86.9312240000000003
11
209.5607619999999827
21
-86.9443100000000015
0
LINE
8
BLACK
6
CONTINUOUS
10
209.5607619999999827
20
-86.9443100000000015
11
209.5315719999999828
21
-86.9463849999999923
0
LINE
8
BLACK
6
CONTINUOUS
10
209.5315719999999828
20
-86.9463849999999923
11
209.5038089999999897
21
-86.9371309999999937
0
LINE
8
BLACK
6
CONTINUOUS
10
209.5038089999999897
20
-86.9371309999999937
11
209.4817019999999843
21
-86.9179570000000012
0
LINE
8
BLACK
6
CONTINUOUS
10
209.4817019999999843
20
-86.9179570000000012
11
209.4686159999999973
21
-86.8917840000000012
0
LINE
8
BLACK
6
CONTINUOUS
10
209.4686159999999973
20
-86.8917840000000012
11
209.4665409999999781
21
-86.8625940000000014
0
LINE
8
BLACK
6
CONTINUOUS
10
209.4665409999999781
20
-86.8625940000000014
11
209.4698009999999897
21
-86.8482569999999896
0
LINE
8
BLACK
6
CONTINUOUS
10
209.4698009999999897
20
-86.8482569999999896
11
209.5135709999999847
21
-86.7169469999999905
0
LINE
8
BLACK
6
CONTINUOUS
10
209.5135709999999847
20
-86.7169469999999905
11
209.5135709999999847
21
-86.5087269999999933
0
LINE
8
BLACK
6
CONTINUOUS
10
209.5135709999999847
20
-86.5087269999999933
11
209.4793129999999906
21
-86.4402109999999908
0
LINE
8
BLACK
6
CONTINUOUS
10
209.4793129999999906
20
-86.4402109999999908
11
209.4489059999999938
21
-86.4098039999999941
0
LINE
8
BLACK
6
CONTINUOUS
10
209.4489059999999938
20
-86.4098039999999941
11
209.3803899999999771
21
-86.3755459999999999
0
LINE
8
BLACK
6
CONTINUOUS
10
209.3803899999999771
20
-86.3755459999999999
11
209.3205619999999954
21
-86.3755459999999999
0
LINE
8
BLACK
6
CONTINUOUS
10
209.3205619999999954
20
-86.3755459999999999
11
209.2520459999999787
21
-86.4098039999999941
0
LINE
8
BLACK
6
CONTINUOUS
10
209.2520459999999787
20
-86.4098039999999941
11
209.2216389999999819
21
-86.4402109999999908
0
LINE
8
BLACK
6
CONTINUOUS
10
209.2216389999999819
20
-86.4402109999999908
11
209.1831449999999961
21
-86.5171979999999934
0
LINE
8
BLACK
6
CONTINUOUS
10
209.1831449999999961
20
-86.5171979999999934
11
209.1375229999999874
21
-86.6996879999999948
0
LINE
8
BLACK
6
CONTINUOUS
10
209.1375229999999874
20
-86.6996879999999948
11
209.1371369999999956
21
-86.700766999999999
0
LINE
8
BLACK
6
CONTINUOUS
10
209.1371369999999956
20
-86.700766999999999
11
209.1370989999999779
21
-86.7013079999999974
0
LINE
8
BLACK
6
CONTINUOUS
10
209.1370989999999779
20
-86.7013079999999974
11
209.1347679999999798
21
-86.7073970000000003
0
LINE
8
BLACK
6
CONTINUOUS
10
209.1347679999999798
20
-86.7073970000000003
11
209.1325760000000002
21
-86.7135339999999957
0
LINE
8
BLACK
6
CONTINUOUS
10
209.1325760000000002
20
-86.7135339999999957
11
209.1322529999999915
21
-86.7139689999999916
0
LINE
8
BLACK
6
CONTINUOUS
10
209.1322529999999915
20
-86.7139689999999916
11
209.131844000000001
21
-86.7150389999999902
0
LINE
8
BLACK
6
CONTINUOUS
10
209.131844000000001
20
-86.7150389999999902
11
209.0842250000000035
21
-86.8102769999999992
0
LINE
8
BLACK
6
CONTINUOUS
10
209.0842250000000035
20
-86.8102769999999992
11
209.0802599999999813
21
-86.8165759999999977
0
LINE
8
BLACK
6
CONTINUOUS
10
209.0802599999999813
20
-86.8165759999999977
11
209.0795029999999883
21
-86.818404000000001
0
LINE
8
BLACK
6
CONTINUOUS
10
209.0795029999999883
20
-86.818404000000001
11
209.0778139999999894
21
-86.8204599999999971
0
LINE
8
BLACK
6
CONTINUOUS
10
209.0778139999999894
20
-86.8204599999999971
11
209.0763929999999959
21
-86.8227199999999897
0
LINE
8
BLACK
6
CONTINUOUS
10
209.0763929999999959
20
-86.8227199999999897
11
209.0748940000000005
21
-86.8240189999999927
0
LINE
8
BLACK
6
CONTINUOUS
10
209.0748940000000005
20
-86.8240189999999927
11
209.0701760000000036
21
-86.8297689999999989
0
LINE
8
BLACK
6
CONTINUOUS
10
209.0701760000000036
20
-86.8297689999999989
11
209.0225569999999777
21
-86.8773879999999963
0
LINE
8
BLACK
6
CONTINUOUS
10
209.0225569999999777
20
-86.8773879999999963
11
209.016807
21
-86.8821059999999932
0
LINE
8
BLACK
6
CONTINUOUS
10
209.016807
20
-86.8821059999999932
11
209.0155079999999828
21
-86.8836050000000029
0
LINE
8
BLACK
6
CONTINUOUS
10
209.0155079999999828
20
-86.8836050000000029
11
209.0132480000000044
21
-86.8850259999999963
0
LINE
8
BLACK
6
CONTINUOUS
10
209.0132480000000044
20
-86.8850259999999963
11
209.0111919999999941
21
-86.8867149999999953
0
LINE
8
BLACK
6
CONTINUOUS
10
209.0111919999999941
20
-86.8867149999999953
11
209.0093639999999766
21
-86.8874720000000025
0
LINE
8
BLACK
6
CONTINUOUS
10
209.0093639999999766
20
-86.8874720000000025
11
209.0030649999999923
21
-86.8914369999999963
0
LINE
8
BLACK
6
CONTINUOUS
10
209.0030649999999923
20
-86.8914369999999963
11
208.9078269999999975
21
-86.9390559999999937
0
LINE
8
BLACK
6
CONTINUOUS
10
208.9078269999999975
20
-86.9390559999999937
11
208.894094999999993
21
-86.944310999999999
0
LINE
8
BLACK
6
CONTINUOUS
10
208.894094999999993
20
-86.944310999999999
11
208.8914069999999867
21
-86.9445010000000025
0
LINE
8
BLACK
6
CONTINUOUS
10
208.8914069999999867
20
-86.9445010000000025
11
208.8889179999999897
21
-86.9455329999999975
0
LINE
8
BLACK
6
CONTINUOUS
10
208.8889179999999897
20
-86.9455329999999975
11
208.8742859999999837
21
-86.9469739999999973
0
LINE
8
BLACK
6
CONTINUOUS
10
208.8742859999999837
20
-86.9469739999999973
11
208.7790479999999889
21
-86.9469739999999973
0
LINE
8
BLACK
6
CONTINUOUS
10
208.7790479999999889
20
-86.9469739999999973
11
208.7644159999999829
21
-86.9455329999999975
0
LINE
8
BLACK
6
CONTINUOUS
10
208.7644159999999829
20
-86.9455329999999975
11
208.7619269999999858
21
-86.944502
0
LINE
8
BLACK
6
CONTINUOUS
10
208.7619269999999858
20
-86.944502
11
208.7592379999999821
21
-86.944310999999999
0
LINE
8
BLACK
6
CONTINUOUS
10
208.7592379999999821
20
-86.944310999999999
11
208.7455070000000035
21
-86.9390559999999937
0
LINE
8
BLACK
6
CONTINUOUS
10
208.7455070000000035
20
-86.9390559999999937
11
208.6502689999999802
21
-86.8914369999999963
0
LINE
8
BLACK
6
CONTINUOUS
10
208.6502689999999802
20
-86.8914369999999963
11
208.6439689999999985
21
-86.8874720000000025
0
LINE
8
BLACK
6
CONTINUOUS
10
208.6439689999999985
20
-86.8874720000000025
11
208.6421419999999785
21
-86.8867149999999953
0
LINE
8
BLACK
6
CONTINUOUS
10
208.6421419999999785
20
-86.8867149999999953
11
208.6400849999999991
21
-86.8850259999999963
0
LINE
8
BLACK
6
CONTINUOUS
10
208.6400849999999991
20
-86.8850259999999963
11
208.6378259999999898
21
-86.8836050000000029
0
LINE
8
BLACK
6
CONTINUOUS
10
208.6378259999999898
20
-86.8836050000000029
11
208.6365260000000035
21
-86.8821059999999932
0
LINE
8
BLACK
6
CONTINUOUS
10
208.6365260000000035
20
-86.8821059999999932
11
208.6307769999999948
21
-86.8773879999999963
0
LINE
8
BLACK
6
CONTINUOUS
10
208.6307769999999948
20
-86.8773879999999963
11
208.5831579999999974
21
-86.8297689999999989
0
LINE
8
BLACK
6
CONTINUOUS
10
208.5831579999999974
20
-86.8297689999999989
11
208.5784400000000005
21
-86.8240199999999902
0
LINE
8
BLACK
6
CONTINUOUS
10
208.5784400000000005
20
-86.8240199999999902
11
208.5769420000000025
21
-86.8227210000000014
0
LINE
8
BLACK
6
CONTINUOUS
10
208.5769420000000025
20
-86.8227210000000014
11
208.5755189999999857
21
-86.8204609999999946
0
LINE
8
BLACK
6
CONTINUOUS
10
208.5755189999999857
20
-86.8204609999999946
11
208.5738309999999842
21
-86.818404000000001
0
LINE
8
BLACK
6
CONTINUOUS
10
208.5738309999999842
20
-86.818404000000001
11
208.5730739999999912
21
-86.8165759999999977
0
LINE
8
BLACK
6
CONTINUOUS
10
208.5730739999999912
20
-86.8165759999999977
11
208.5691089999999974
21
-86.8102779999999967
0
LINE
8
BLACK
6
CONTINUOUS
10
208.5691089999999974
20
-86.8102779999999967
11
208.5214890000000025
21
-86.7150400000000019
0
LINE
8
BLACK
6
CONTINUOUS
10
208.5214890000000025
20
-86.7150400000000019
11
208.5162339999999972
21
-86.7013079999999974
0
LINE
8
BLACK
6
CONTINUOUS
10
208.5162339999999972
20
-86.7013079999999974
11
208.5160419999999988
21
-86.6986179999999962
0
LINE
8
BLACK
6
CONTINUOUS
10
208.5160419999999988
20
-86.6986179999999962
11
208.5150119999999845
21
-86.6961299999999966
0
LINE
8
BLACK
6
CONTINUOUS
10
208.5150119999999845
20
-86.6961299999999966
11
208.5135709999999847
21
-86.6814979999999906
0
LINE
8
BLACK
6
CONTINUOUS
10
208.5135709999999847
20
-86.6814979999999906
11
208.5135709999999847
21
-86.4434029999999893
0
LINE
8
BLACK
6
CONTINUOUS
10
208.5135709999999847
20
-86.4434029999999893
11
208.5142999999999915
21
-86.4359970000000004
0
LINE
8
BLACK
6
CONTINUOUS
10
208.5142999999999915
20
-86.4359970000000004
11
208.5141600000000039
21
-86.4340219999999988
0
LINE
8
BLACK
6
CONTINUOUS
10
208.5141600000000039
20
-86.4340219999999988
11
208.5147499999999923
21
-86.4314239999999927
0
LINE
8
BLACK
6
CONTINUOUS
10
208.5147499999999923
20
-86.4314239999999927
11
208.5150119999999845
21
-86.4287709999999976
0
LINE
8
BLACK
6
CONTINUOUS
10
208.5150119999999845
20
-86.4287709999999976
11
208.5157700000000034
21
-86.4269400000000019
0
LINE
8
BLACK
6
CONTINUOUS
10
208.5157700000000034
20
-86.4269400000000019
11
208.5174199999999871
21
-86.4196850000000012
0
LINE
8
BLACK
6
CONTINUOUS
10
208.5174199999999871
20
-86.4196850000000012
11
208.565039999999982
21
-86.2768279999999947
0
LINE
8
BLACK
6
CONTINUOUS
10
208.565039999999982
20
-86.2768279999999947
11
208.5710339999999974
21
-86.2634029999999967
0
LINE
8
BLACK
6
CONTINUOUS
10
208.5710339999999974
20
-86.2634029999999967
11
208.5902079999999899
21
-86.2412959999999913
0
LINE
8
BLACK
6
CONTINUOUS
10
208.5902079999999899
20
-86.2412959999999913
11
208.6163819999999873
21
-86.2282089999999926
0
LINE
8
BLACK
6
CONTINUOUS
10
208.6163819999999873
20
-86.2282089999999926
11
208.6455719999999872
21
-86.2261349999999993
0
LINE
8
BLACK
6
CONTINUOUS
10
208.6455719999999872
20
-86.2261349999999993
11
208.6733339999999828
21
-86.2353889999999978
0
LINE
8
BLACK
6
CONTINUOUS
10
208.6733339999999828
20
-86.2353889999999978
11
208.6954409999999882
21
-86.2545629999999903
0
LINE
8
BLACK
6
CONTINUOUS
10
208.6954409999999882
20
-86.2545629999999903
11
208.7085280000000012
21
-86.280737000000002
0
LINE
8
BLACK
6
CONTINUOUS
10
208.7085280000000012
20
-86.280737000000002
11
208.7106019999999944
21
-86.3099270000000018
0
LINE
8
BLACK
6
CONTINUOUS
10
208.7106019999999944
20
-86.3099270000000018
11
208.7073419999999828
21
-86.324263000000002
0
LINE
8
BLACK
6
CONTINUOUS
10
208.7073419999999828
20
-86.324263000000002
11
208.6635709999999904
21
-86.4555739999999986
0
LINE
8
BLACK
6
CONTINUOUS
10
208.6635709999999904
20
-86.4555739999999986
11
208.6635709999999904
21
-86.6637909999999891
0
LINE
8
BLACK
6
CONTINUOUS
10
208.6635709999999904
20
-86.6637909999999891
11
208.6978289999999845
21
-86.7323079999999891
0
LINE
8
BLACK
6
CONTINUOUS
10
208.6978289999999845
20
-86.7323079999999891
11
208.7282369999999787
21
-86.7627159999999975
0
LINE
8
BLACK
6
CONTINUOUS
10
208.7282369999999787
20
-86.7627159999999975
11
208.7967529999999954
21
-86.7969739999999916
0
LINE
8
BLACK
6
CONTINUOUS
10
208.7967529999999954
20
-86.7969739999999916
11
208.8565809999999772
21
-86.7969739999999916
0
LINE
8
BLACK
6
CONTINUOUS
10
208.8565809999999772
20
-86.7969739999999916
11
208.9250969999999938
21
-86.7627159999999975
0
LINE
8
BLACK
6
CONTINUOUS
10
208.9250969999999938
20
-86.7627159999999975
11
208.9555039999999906
21
-86.7323090000000008
0
LINE
8
BLACK
6
CONTINUOUS
10
208.9555039999999906
20
-86.7323090000000008
11
208.9939969999999789
21
-86.6553219999999982
0
LINE
8
BLACK
6
CONTINUOUS
10
208.9939969999999789
20
-86.6553219999999982
11
209.0396199999999851
21
-86.4728319999999968
0
LINE
8
BLACK
6
CONTINUOUS
10
209.0396199999999851
20
-86.4728319999999968
11
209.0400049999999794
21
-86.4717519999999951
0
LINE
8
BLACK
6
CONTINUOUS
10
209.0400049999999794
20
-86.4717519999999951
11
209.0400439999999946
21
-86.4712129999999917
0
LINE
8
BLACK
6
CONTINUOUS
10
209.0400439999999946
20
-86.4712129999999917
11
209.0423710000000028
21
-86.4651309999999995
0
LINE
8
BLACK
6
CONTINUOUS
10
209.0423710000000028
20
-86.4651309999999995
11
209.0445670000000007
21
-86.4589859999999959
0
LINE
8
BLACK
6
CONTINUOUS
10
209.0445670000000007
20
-86.4589859999999959
11
209.0448889999999835
21
-86.4585500000000025
0
LINE
8
BLACK
6
CONTINUOUS
10
209.0448889999999835
20
-86.4585500000000025
11
209.045299
21
-86.4574810000000014
0
LINE
8
BLACK
6
CONTINUOUS
10
209.045299
20
-86.4574810000000014
11
209.0929179999999974
21
-86.3622429999999923
0
LINE
8
BLACK
6
CONTINUOUS
10
209.0929179999999974
20
-86.3622429999999923
11
209.0968819999999937
21
-86.3559429999999963
0
LINE
8
BLACK
6
CONTINUOUS
10
209.0968819999999937
20
-86.3559429999999963
11
209.0976399999999842
21
-86.3541159999999905
0
LINE
8
BLACK
6
CONTINUOUS
10
209.0976399999999842
20
-86.3541159999999905
11
209.0993279999999856
21
-86.352058999999997
0
LINE
8
BLACK
6
CONTINUOUS
10
209.0993279999999856
20
-86.352058999999997
11
209.1007499999999766
21
-86.3498000000000019
0
LINE
8
BLACK
6
CONTINUOUS
10
209.1007499999999766
20
-86.3498000000000019
11
209.102248000000003
21
-86.3485000000000014
0
LINE
8
BLACK
6
CONTINUOUS
10
209.102248000000003
20
-86.3485000000000014
11
209.1069669999999974
21
-86.3427509999999927
0
LINE
8
BLACK
6
CONTINUOUS
10
209.1069669999999974
20
-86.3427509999999927
11
209.1545859999999948
21
-86.2951319999999953
0
LINE
8
BLACK
6
CONTINUOUS
10
209.1545859999999948
20
-86.2951319999999953
11
209.1603350000000034
21
-86.2904130000000009
0
LINE
8
BLACK
6
CONTINUOUS
10
209.1603350000000034
20
-86.2904130000000009
11
209.1616349999999898
21
-86.2889150000000029
0
LINE
8
BLACK
6
CONTINUOUS
10
209.1616349999999898
20
-86.2889150000000029
11
209.1638939999999991
21
-86.2874929999999978
0
LINE
8
BLACK
6
CONTINUOUS
10
209.1638939999999991
20
-86.2874929999999978
11
209.1659509999999784
21
-86.2858049999999963
0
LINE
8
BLACK
6
CONTINUOUS
10
209.1659509999999784
20
-86.2858049999999963
11
209.1677779999999984
21
-86.2850469999999916
0
LINE
8
BLACK
6
CONTINUOUS
10
209.1677779999999984
20
-86.2850469999999916
11
209.1740779999999802
21
-86.2810829999999953
0
LINE
8
BLACK
6
CONTINUOUS
10
209.1740779999999802
20
-86.2810829999999953
11
209.2693160000000034
21
-86.2334639999999979
0
LINE
8
BLACK
6
CONTINUOUS
10
209.2693160000000034
20
-86.2334639999999979
11
209.2830469999999821
21
-86.2282089999999926
0
LINE
8
BLACK
6
CONTINUOUS
10
209.2830469999999821
20
-86.2282089999999926
11
209.2857359999999858
21
-86.2280169999999941
0
LINE
8
BLACK
6
CONTINUOUS
10
209.2857359999999858
20
-86.2280169999999941
11
209.2882249999999829
21
-86.2269869999999941
0
LINE
8
BLACK
6
CONTINUOUS
10
209.2882249999999829
20
-86.2269869999999941
11
209.3028569999999888
21
-86.2255459999999943
0
LINE
8
BLACK
6
CONTINUOUS
10
209.3028569999999888
20
-86.2255459999999943
11
209.3980949999999837
21
-86.2255459999999943
0
LINE
8
BLACK
6
CONTINUOUS
10
209.3980949999999837
20
-86.2255459999999943
11
209.4127269999999896
21
-86.2269869999999941
0
LINE
8
BLACK
6
CONTINUOUS
10
207.7270129999999995
20
-86.3460350000000005
11
207.7295019999999965
21
-86.3470659999999981
0
LINE
8
BLACK
6
CONTINUOUS
10
207.7295019999999965
20
-86.3470659999999981
11
207.7321900000000028
21
-86.347256999999999
0
LINE
8
BLACK
6
CONTINUOUS
10
207.7321900000000028
20
-86.347256999999999
11
207.7459219999999789
21
-86.3525119999999902
0
LINE
8
BLACK
6
CONTINUOUS
10
207.7459219999999789
20
-86.3525119999999902
11
207.8411600000000021
21
-86.4001310000000018
0
LINE
8
BLACK
6
CONTINUOUS
10
207.8411600000000021
20
-86.4001310000000018
11
207.8436069999999916
21
-86.4016709999999932
0
LINE
8
BLACK
6
CONTINUOUS
10
207.8436069999999916
20
-86.4016709999999932
11
207.844760999999977
21
-86.4020560000000017
0
LINE
8
BLACK
6
CONTINUOUS
10
207.844760999999977
20
-86.4020560000000017
11
207.8461969999999894
21
-86.403300999999999
0
LINE
8
BLACK
6
CONTINUOUS
10
207.8461969999999894
20
-86.403300999999999
11
207.8536029999999926
21
-86.4079629999999952
0
LINE
8
BLACK
6
CONTINUOUS
10
207.8536029999999926
20
-86.4079629999999952
11
207.8597639999999842
21
-86.4150669999999934
0
LINE
8
BLACK
6
CONTINUOUS
10
207.8597639999999842
20
-86.4150669999999934
11
207.8668689999999799
21
-86.4212289999999967
0
LINE
8
BLACK
6
CONTINUOUS
10
207.8668689999999799
20
-86.4212289999999967
11
207.8715299999999786
21
-86.4286340000000024
0
LINE
8
BLACK
6
CONTINUOUS
10
207.8715299999999786
20
-86.4286340000000024
11
207.8727759999999876
21
-86.4300709999999981
0
LINE
8
BLACK
6
CONTINUOUS
10
207.8727759999999876
20
-86.4300709999999981
11
207.8731599999999844
21
-86.4312240000000003
0
LINE
8
BLACK
6
CONTINUOUS
10
207.8731599999999844
20
-86.4312240000000003
11
207.8747009999999875
21
-86.4336720000000014
0
LINE
8
BLACK
6
CONTINUOUS
10
207.8747009999999875
20
-86.4336720000000014
11
207.9223199999999849
21
-86.5289099999999962
0
LINE
8
BLACK
6
CONTINUOUS
10
207.9223199999999849
20
-86.5289099999999962
11
207.9275749999999903
21
-86.542640999999989
0
LINE
8
BLACK
6
CONTINUOUS
10
207.9275749999999903
20
-86.542640999999989
11
207.9277659999999912
21
-86.5453299999999928
0
LINE
8
BLACK
6
CONTINUOUS
10
207.9277659999999912
20
-86.5453299999999928
11
207.928797000000003
21
-86.5478189999999898
0
LINE
8
BLACK
6
CONTINUOUS
10
207.928797000000003
20
-86.5478189999999898
11
207.9302380000000028
21
-86.5624509999999958
0
LINE
8
BLACK
6
CONTINUOUS
10
207.9302380000000028
20
-86.5624509999999958
11
207.9302380000000028
21
-86.7053080000000023
0
LINE
8
BLACK
6
CONTINUOUS
10
207.9302380000000028
20
-86.7053080000000023
11
207.928797000000003
21
-86.719939999999994
0
LINE
8
BLACK
6
CONTINUOUS
10
207.928797000000003
20
-86.719939999999994
11
207.9277659999999912
21
-86.7224279999999936
0
LINE
8
BLACK
6
CONTINUOUS
10
207.9277659999999912
20
-86.7224279999999936
11
207.9275749999999903
21
-86.7251179999999948
0
LINE
8
BLACK
6
CONTINUOUS
10
207.9275749999999903
20
-86.7251179999999948
11
207.9223199999999849
21
-86.7388490000000019
0
LINE
8
BLACK
6
CONTINUOUS
10
207.9223199999999849
20
-86.7388490000000019
11
207.8747009999999875
21
-86.8340869999999967
0
LINE
8
BLACK
6
CONTINUOUS
10
207.8747009999999875
20
-86.8340869999999967
11
207.8668689999999799
21
-86.8465300000000013
0
LINE
8
BLACK
6
CONTINUOUS
10
207.8668689999999799
20
-86.8465300000000013
11
207.844760999999977
21
-86.8657029999999963
0
LINE
8
BLACK
6
CONTINUOUS
10
207.844760999999977
20
-86.8657029999999963
11
207.8169999999999789
21
-86.8749569999999949
0
LINE
8
BLACK
6
CONTINUOUS
10
207.8169999999999789
20
-86.8749569999999949
11
207.787809999999979
21
-86.8728830000000016
0
LINE
8
BLACK
6
CONTINUOUS
10
207.787809999999979
20
-86.8728830000000016
11
207.7616349999999841
21
-86.8597960000000029
0
LINE
8
BLACK
6
CONTINUOUS
10
207.7616349999999841
20
-86.8597960000000029
11
207.7424619999999891
21
-86.837688
0
LINE
8
BLACK
6
CONTINUOUS
10
207.7424619999999891
20
-86.837688
11
207.7332079999999905
21
-86.8099270000000018
0
LINE
8
BLACK
6
CONTINUOUS
10
207.7332079999999905
20
-86.8099270000000018
11
207.7352819999999838
21
-86.780737000000002
0
LINE
8
BLACK
6
CONTINUOUS
10
207.7352819999999838
20
-86.780737000000002
11
207.7405369999999891
21
-86.7670049999999975
0
LINE
8
BLACK
6
CONTINUOUS
10
207.7405369999999891
20
-86.7670049999999975
11
207.7802379999999971
21
-86.6876029999999957
0
LINE
8
BLACK
6
CONTINUOUS
10
207.7802379999999971
20
-86.6876029999999957
11
207.7802379999999971
21
-86.5801560000000023
0
LINE
8
BLACK
6
CONTINUOUS
10
207.7802379999999971
20
-86.5801560000000023
11
207.7517169999999851
21
-86.5231139999999925
0
LINE
8
BLACK
6
CONTINUOUS
10
207.7517169999999851
20
-86.5231139999999925
11
207.694675999999987
21
-86.4945939999999922
0
LINE
8
BLACK
6
CONTINUOUS
10
207.694675999999987
20
-86.4945939999999922
11
207.6824670000000026
21
-86.4945939999999922
0
LINE
8
BLACK
6
CONTINUOUS
10
207.6824670000000026
20
-86.4945939999999922
11
207.6254249999999786
21
-86.5231139999999925
0
LINE
8
BLACK
6
CONTINUOUS
10
207.6254249999999786
20
-86.5231139999999925
11
207.5969049999999925
21
-86.5801560000000023
0
LINE
8
BLACK
6
CONTINUOUS
10
207.5969049999999925
20
-86.5801560000000023
11
207.5969049999999925
21
-86.7053080000000023
0
LINE
8
BLACK
6
CONTINUOUS
10
207.5969049999999925
20
-86.7053080000000023
11
207.5954639999999927
21
-86.719939999999994
0
LINE
8
BLACK
6
CONTINUOUS
10
207.5954639999999927
20
-86.719939999999994
11
207.5944329999999809
21
-86.7224279999999936
0
LINE
8
BLACK
6
CONTINUOUS
10
207.5944329999999809
20
-86.7224279999999936
11
207.59424199999998
21
-86.7251179999999948
0
LINE
8
BLACK
6
CONTINUOUS
10
207.59424199999998
20
-86.7251179999999948
11
207.588987000000003
21
-86.7388490000000019
0
LINE
8
BLACK
6
CONTINUOUS
10
207.588987000000003
20
-86.7388490000000019
11
207.5413679999999772
21
-86.8340869999999967
0
LINE
8
BLACK
6
CONTINUOUS
10
207.5413679999999772
20
-86.8340869999999967
11
207.5398270000000025
21
-86.8365340000000003
0
LINE
8
BLACK
6
CONTINUOUS
10
207.5398270000000025
20
-86.8365340000000003
11
207.5394429999999772
21
-86.837688
0
LINE
8
BLACK
6
CONTINUOUS
10
207.5394429999999772
20
-86.837688
11
207.5381969999999967
21
-86.8391239999999982
0
LINE
8
BLACK
6
CONTINUOUS
10
207.5381969999999967
20
-86.8391239999999982
11
207.533535999999998
21
-86.8465300000000013
0
LINE
8
BLACK
6
CONTINUOUS
10
207.533535999999998
20
-86.8465300000000013
11
207.5264310000000023
21
-86.852690999999993
0
LINE
8
BLACK
6
CONTINUOUS
10
207.5264310000000023
20
-86.852690999999993
11
207.5202699999999822
21
-86.8597960000000029
0
LINE
8
BLACK
6
CONTINUOUS
10
207.5202699999999822
20
-86.8597960000000029
11
207.5128639999999791
21
-86.8644570000000016
0
LINE
8
BLACK
6
CONTINUOUS
10
207.5128639999999791
20
-86.8644570000000016
11
207.5114279999999951
21
-86.8657029999999963
0
LINE
8
BLACK
6
CONTINUOUS
10
207.5114279999999951
20
-86.8657029999999963
11
207.5102739999999812
21
-86.8660869999999932
0
LINE
8
BLACK
6
CONTINUOUS
10
207.5102739999999812
20
-86.8660869999999932
11
207.5078269999999918
21
-86.8676279999999963
0
LINE
8
BLACK
6
CONTINUOUS
10
207.5078269999999918
20
-86.8676279999999963
11
207.412588999999997
21
-86.9152469999999937
0
LINE
8
BLACK
6
CONTINUOUS
10
207.412588999999997
20
-86.9152469999999937
11
207.3988569999999925
21
-86.920501999999999
0
LINE
8
BLACK
6
CONTINUOUS
10
207.3988569999999925
20
-86.920501999999999
11
207.3961689999999862
21
-86.9206920000000025
0
LINE
8
BLACK
6
CONTINUOUS
10
207.3961689999999862
20
-86.9206920000000025
11
207.3936799999999891
21
-86.9217239999999975
0
LINE
8
BLACK
6
CONTINUOUS
10
207.3936799999999891
20
-86.9217239999999975
11
207.3790479999999832
21
-86.9231649999999973
0
LINE
8
BLACK
6
CONTINUOUS
10
207.3790479999999832
20
-86.9231649999999973
11
207.3314289999999858
21
-86.9231649999999973
0
LINE
8
BLACK
6
CONTINUOUS
10
207.3314289999999858
20
-86.9231649999999973
11
207.3167969999999798
21
-86.9217239999999975
0
LINE
8
BLACK
6
CONTINUOUS
10
207.3167969999999798
20
-86.9217239999999975
11
207.3143079999999827
21
-86.920693
0
LINE
8
BLACK
6
CONTINUOUS
10
207.3143079999999827
20
-86.920693
11
207.311618999999979
21
-86.920501999999999
0
LINE
8
BLACK
6
CONTINUOUS
10
207.311618999999979
20
-86.920501999999999
11
207.2978880000000004
21
-86.9152469999999937
0
LINE
8
BLACK
6
CONTINUOUS
10
207.2978880000000004
20
-86.9152469999999937
11
207.2026499999999771
21
-86.8676279999999963
0
LINE
8
BLACK
6
CONTINUOUS
10
207.2026499999999771
20
-86.8676279999999963
11
207.2002039999999852
21
-86.8660879999999906
0
LINE
8
BLACK
6
CONTINUOUS
10
207.2002039999999852
20
-86.8660879999999906
11
207.1990499999999997
21
-86.8657039999999938
0
LINE
8
BLACK
6
CONTINUOUS
10
207.1990499999999997
20
-86.8657039999999938
11
207.1976119999999923
21
-86.8644559999999899
0
LINE
8
BLACK
6
CONTINUOUS
10
207.1976119999999923
20
-86.8644559999999899
11
207.1902069999999867
21
-86.8597960000000029
0
LINE
8
BLACK
6
CONTINUOUS
10
207.1902069999999867
20
-86.8597960000000029
11
207.184045999999995
21
-86.852690999999993
0
LINE
8
BLACK
6
CONTINUOUS
10
207.184045999999995
20
-86.852690999999993
11
207.1769419999999968
21
-86.8465309999999988
0
LINE
8
BLACK
6
CONTINUOUS
10
207.1769419999999968
20
-86.8465309999999988
11
207.1722779999999773
21
-86.8391230000000007
0
LINE
8
BLACK
6
CONTINUOUS
10
207.1722779999999773
20
-86.8391230000000007
11
207.1710339999999917
21
-86.837688
0
LINE
8
BLACK
6
CONTINUOUS
10
207.1710339999999917
20
-86.837688
11
207.1706489999999974
21
-86.8365349999999978
0
LINE
8
BLACK
6
CONTINUOUS
10
207.1706489999999974
20
-86.8365349999999978
11
207.1691089999999917
21
-86.8340879999999942
0
LINE
8
BLACK
6
CONTINUOUS
10
207.1691089999999917
20
-86.8340879999999942
11
207.1214889999999968
21
-86.7388499999999993
0
LINE
8
BLACK
6
CONTINUOUS
10
207.1214889999999968
20
-86.7388499999999993
11
207.1162339999999915
21
-86.7251179999999948
0
LINE
8
BLACK
6
CONTINUOUS
10
207.1162339999999915
20
-86.7251179999999948
11
207.1160419999999931
21
-86.7224279999999936
0
LINE
8
BLACK
6
CONTINUOUS
10
207.1160419999999931
20
-86.7224279999999936
11
207.1150119999999788
21
-86.719939999999994
0
LINE
8
BLACK
6
CONTINUOUS
10
207.1150119999999788
20
-86.719939999999994
11
207.113570999999979
21
-86.7053080000000023
0
LINE
8
BLACK
6
CONTINUOUS
10
207.113570999999979
20
-86.7053080000000023
11
207.113570999999979
21
-86.5148319999999984
0
LINE
8
BLACK
6
CONTINUOUS
10
207.113570999999979
20
-86.5148319999999984
11
207.1150119999999788
21
-86.5001999999999924
0
LINE
8
BLACK
6
CONTINUOUS
10
207.1150119999999788
20
-86.5001999999999924
11
207.1160419999999931
21
-86.4977109999999954
0
LINE
8
BLACK
6
CONTINUOUS
10
207.1160419999999931
20
-86.4977109999999954
11
207.1162339999999915
21
-86.4950219999999916
0
LINE
8
BLACK
6
CONTINUOUS
10
207.1162339999999915
20
-86.4950219999999916
11
207.1214889999999968
21
-86.4812900000000013
0
LINE
8
BLACK
6
CONTINUOUS
10
207.1214889999999968
20
-86.4812900000000013
11
207.1691089999999917
21
-86.3860519999999923
0
LINE
8
BLACK
6
CONTINUOUS
10
207.1691089999999917
20
-86.3860519999999923
11
207.1769419999999968
21
-86.3736090000000019
0
LINE
8
BLACK
6
CONTINUOUS
10
207.1769419999999968
20
-86.3736090000000019
11
207.1990499999999997
21
-86.3544359999999926
0
LINE
8
BLACK
6
CONTINUOUS
10
207.1990499999999997
20
-86.3544359999999926
11
207.2268109999999979
21
-86.3451829999999916
0
LINE
8
BLACK
6
CONTINUOUS
10
207.2268109999999979
20
-86.3451829999999916
11
207.2560009999999977
21
-86.347256999999999
0
LINE
8
BLACK
6
CONTINUOUS
10
207.2560009999999977
20
-86.347256999999999
11
207.2821749999999952
21
-86.3603449999999953
0
LINE
8
BLACK
6
CONTINUOUS
10
207.2821749999999952
20
-86.3603449999999953
11
207.3013489999999877
21
-86.3824520000000007
0
LINE
8
BLACK
6
CONTINUOUS
10
207.3013489999999877
20
-86.3824520000000007
11
207.3106019999999887
21
-86.4102139999999963
0
LINE
8
BLACK
6
CONTINUOUS
10
207.3106019999999887
20
-86.4102139999999963
11
207.3085279999999955
21
-86.4394039999999961
0
LINE
8
BLACK
6
CONTINUOUS
10
207.3085279999999955
20
-86.4394039999999961
11
207.3032729999999901
21
-86.4531350000000032
0
LINE
8
BLACK
6
CONTINUOUS
10
207.3032729999999901
20
-86.4531350000000032
11
207.2635709999999847
21
-86.5325380000000024
0
LINE
8
BLACK
6
CONTINUOUS
10
207.2635709999999847
20
-86.5325380000000024
11
207.2635709999999847
21
-86.6876010000000008
0
LINE
8
BLACK
6
CONTINUOUS
10
207.2635709999999847
20
-86.6876010000000008
11
207.2920919999999967
21
-86.7446439999999939
0
LINE
8
BLACK
6
CONTINUOUS
10
207.2920919999999967
20
-86.7446439999999939
11
207.3491339999999923
21
-86.7731649999999917
0
LINE
8
BLACK
6
CONTINUOUS
10
207.3491339999999923
20
-86.7731649999999917
11
207.3613429999999767
21
-86.7731649999999917
0
LINE
8
BLACK
6
CONTINUOUS
10
207.3613429999999767
20
-86.7731649999999917
11
207.4183840000000032
21
-86.7446439999999939
0
LINE
8
BLACK
6
CONTINUOUS
10
207.4183840000000032
20
-86.7446439999999939
11
207.4469049999999868
21
-86.6876029999999957
0
LINE
8
BLACK
6
CONTINUOUS
10
207.4469049999999868
20
-86.6876029999999957
11
207.4469049999999868
21
-86.5624509999999958
0
LINE
8
BLACK
6
CONTINUOUS
10
207.4469049999999868
20
-86.5624509999999958
11
207.4483459999999866
21
-86.5478189999999898
0
LINE
8
BLACK
6
CONTINUOUS
10
207.4483459999999866
20
-86.5478189999999898
11
207.4493769999999984
21
-86.5453289999999953
0
LINE
8
BLACK
6
CONTINUOUS
10
207.4493769999999984
20
-86.5453289999999953
11
207.4495679999999993
21
-86.5426420000000007
0
LINE
8
BLACK
6
CONTINUOUS
10
207.4495679999999993
20
-86.5426420000000007
11
207.4548230000000046
21
-86.5289099999999962
0
LINE
8
BLACK
6
CONTINUOUS
10
207.4548230000000046
20
-86.5289099999999962
11
207.5024420000000021
21
-86.4336720000000014
0
LINE
8
BLACK
6
CONTINUOUS
10
207.5024420000000021
20
-86.4336720000000014
11
207.5039819999999793
21
-86.4312240000000003
0
LINE
8
BLACK
6
CONTINUOUS
10
207.5039819999999793
20
-86.4312240000000003
11
207.504367000000002
21
-86.4300709999999981
0
LINE
8
BLACK
6
CONTINUOUS
10
207.504367000000002
20
-86.4300709999999981
11
207.5056119999999851
21
-86.4286340000000024
0
LINE
8
BLACK
6
CONTINUOUS
10
207.5056119999999851
20
-86.4286340000000024
11
207.5102739999999812
21
-86.4212289999999967
0
LINE
8
BLACK
6
CONTINUOUS
10
207.5102739999999812
20
-86.4212289999999967
11
207.5173779999999795
21
-86.4150669999999934
0
LINE
8
BLACK
6
CONTINUOUS
10
207.5173779999999795
20
-86.4150669999999934
11
207.523539999999997
21
-86.4079629999999952
0
LINE
8
BLACK
6
CONTINUOUS
10
207.523539999999997
20
-86.4079629999999952
11
207.5309450000000027
21
-86.403300999999999
0
LINE
8
BLACK
6
CONTINUOUS
10
207.5309450000000027
20
-86.403300999999999
11
207.5323819999999841
21
-86.4020560000000017
0
LINE
8
BLACK
6
CONTINUOUS
10
207.5323819999999841
20
-86.4020560000000017
11
207.5335350000000005
21
-86.4016709999999932
0
LINE
8
BLACK
6
CONTINUOUS
10
207.5335350000000005
20
-86.4016709999999932
11
207.5359829999999874
21
-86.4001310000000018
0
LINE
8
BLACK
6
CONTINUOUS
10
207.5359829999999874
20
-86.4001310000000018
11
207.6312209999999823
21
-86.3525119999999902
0
LINE
8
BLACK
6
CONTINUOUS
10
207.6312209999999823
20
-86.3525119999999902
11
207.6449519999999893
21
-86.347256999999999
0
LINE
8
BLACK
6
CONTINUOUS
10
207.6449519999999893
20
-86.347256999999999
11
207.647640999999993
21
-86.3470650000000006
0
LINE
8
BLACK
6
CONTINUOUS
10
207.647640999999993
20
-86.3470650000000006
11
207.6501299999999901
21
-86.3460350000000005
0
LINE
8
BLACK
6
CONTINUOUS
10
207.6501299999999901
20
-86.3460350000000005
11
207.6647619999999961
21
-86.3445940000000007
0
LINE
8
BLACK
6
CONTINUOUS
10
207.6647619999999961
20
-86.3445940000000007
11
207.7123809999999935
21
-86.3445940000000007
0
LINE
8
BLACK
6
CONTINUOUS
10
207.7123809999999935
20
-86.3445940000000007
11
207.7270129999999995
21
-86.3460350000000005
0
LINE
8
BLACK
6
CONTINUOUS
10
207.8698699999999917
20
-85.4888919999999928
11
207.8969060000000013
21
-85.5000909999999976
0
LINE
8
BLACK
6
CONTINUOUS
10
207.8969060000000013
20
-85.5000909999999976
11
207.9175979999999981
21
-85.5207829999999944
0
LINE
8
BLACK
6
CONTINUOUS
10
207.9175979999999981
20
-85.5207829999999944
11
207.928797000000003
21
-85.5478189999999898
0
LINE
8
BLACK
6
CONTINUOUS
10
207.928797000000003
20
-85.5478189999999898
11
207.928797000000003
21
-85.5770830000000018
0
LINE
8
BLACK
6
CONTINUOUS
10
207.928797000000003
20
-85.5770830000000018
11
207.9175979999999981
21
-85.6041189999999972
0
LINE
8
BLACK
6
CONTINUOUS
10
207.9175979999999981
20
-85.6041189999999972
11
207.9140689999999836
21
-85.607647
0
LINE
8
BLACK
6
CONTINUOUS
10
207.9140689999999836
20
-85.607647
11
207.9223199999999849
21
-85.624147999999991
0
LINE
8
BLACK
6
CONTINUOUS
10
207.9223199999999849
20
-85.624147999999991
11
207.9275749999999903
21
-85.6378789999999981
0
LINE
8
BLACK
6
CONTINUOUS
10
207.9275749999999903
20
-85.6378789999999981
11
207.9277659999999912
21
-85.6405680000000018
0
LINE
8
BLACK
6
CONTINUOUS
10
207.9277659999999912
20
-85.6405680000000018
11
207.928797000000003
21
-85.6430569999999989
0
LINE
8
BLACK
6
CONTINUOUS
10
207.928797000000003
20
-85.6430569999999989
11
207.9302380000000028
21
-85.6576889999999906
0
LINE
8
BLACK
6
CONTINUOUS
10
207.9302380000000028
20
-85.6576889999999906
11
207.9302380000000028
21
-85.8481649999999945
0
LINE
8
BLACK
6
CONTINUOUS
10
207.9302380000000028
20
-85.8481649999999945
11
207.928797000000003
21
-85.8627970000000005
0
LINE
8
BLACK
6
CONTINUOUS
10
207.928797000000003
20
-85.8627970000000005
11
207.9277659999999912
21
-85.8652850000000001
0
LINE
8
BLACK
6
CONTINUOUS
10
207.9277659999999912
20
-85.8652850000000001
11
207.9275749999999903
21
-85.8679750000000013
0
LINE
8
BLACK
6
CONTINUOUS
10
207.9275749999999903
20
-85.8679750000000013
11
207.9223199999999849
21
-85.8817059999999941
0
LINE
8
BLACK
6
CONTINUOUS
10
207.9223199999999849
20
-85.8817059999999941
11
207.8747009999999875
21
-85.9769440000000031
0
LINE
8
BLACK
6
CONTINUOUS
10
207.8747009999999875
20
-85.9769440000000031
11
207.8707359999999937
21
-85.9832430000000016
0
LINE
8
BLACK
6
CONTINUOUS
10
207.8707359999999937
20
-85.9832430000000016
11
207.8699790000000007
21
-85.9850709999999907
0
LINE
8
BLACK
6
CONTINUOUS
10
207.8699790000000007
20
-85.9850709999999907
11
207.8682900000000018
21
-85.987127000000001
0
LINE
8
BLACK
6
CONTINUOUS
10
207.8682900000000018
20
-85.987127000000001
11
207.8668689999999799
21
-85.9893869999999936
0
LINE
8
BLACK
6
CONTINUOUS
10
207.8668689999999799
20
-85.9893869999999936
11
207.8653699999999844
21
-85.9906859999999966
0
LINE
8
BLACK
6
CONTINUOUS
10
207.8653699999999844
20
-85.9906859999999966
11
207.8606519999999875
21
-85.9964360000000028
0
LINE
8
BLACK
6
CONTINUOUS
10
207.8606519999999875
20
-85.9964360000000028
11
207.8130329999999901
21
-86.0440550000000002
0
LINE
8
BLACK
6
CONTINUOUS
10
207.8130329999999901
20
-86.0440550000000002
11
207.807282999999984
21
-86.0487729999999971
0
LINE
8
BLACK
6
CONTINUOUS
10
207.807282999999984
20
-86.0487729999999971
11
207.8059839999999951
21
-86.0502719999999925
0
LINE
8
BLACK
6
CONTINUOUS
10
207.8059839999999951
20
-86.0502719999999925
11
207.8037239999999883
21
-86.0516930000000002
0
LINE
8
BLACK
6
CONTINUOUS
10
207.8037239999999883
20
-86.0516930000000002
11
207.8016679999999781
21
-86.0533819999999992
0
LINE
8
BLACK
6
CONTINUOUS
10
207.8016679999999781
20
-86.0533819999999992
11
207.799839999999989
21
-86.0541389999999922
0
LINE
8
BLACK
6
CONTINUOUS
10
207.799839999999989
20
-86.0541389999999922
11
207.7935410000000047
21
-86.0581040000000002
0
LINE
8
BLACK
6
CONTINUOUS
10
207.7935410000000047
20
-86.0581040000000002
11
207.6983029999999815
21
-86.1057229999999976
0
LINE
8
BLACK
6
CONTINUOUS
10
207.6983029999999815
20
-86.1057229999999976
11
207.6845709999999769
21
-86.1109780000000029
0
LINE
8
BLACK
6
CONTINUOUS
10
207.6845709999999769
20
-86.1109780000000029
11
207.6818829999999991
21
-86.1111679999999922
0
LINE
8
BLACK
6
CONTINUOUS
10
207.6818829999999991
20
-86.1111679999999922
11
207.6793940000000021
21
-86.1122000000000014
0
LINE
8
BLACK
6
CONTINUOUS
10
207.6793940000000021
20
-86.1122000000000014
11
207.6647619999999961
21
-86.1136410000000012
0
LINE
8
BLACK
6
CONTINUOUS
10
207.6647619999999961
20
-86.1136410000000012
11
207.3790479999999832
21
-86.1136410000000012
0
LINE
8
BLACK
6
CONTINUOUS
10
207.3790479999999832
20
-86.1136410000000012
11
207.3644159999999772
21
-86.1122000000000014
0
LINE
8
BLACK
6
CONTINUOUS
10
207.3644159999999772
20
-86.1122000000000014
11
207.3619269999999801
21
-86.1111689999999896
0
LINE
8
BLACK
6
CONTINUOUS
10
207.3619269999999801
20
-86.1111689999999896
11
207.3592379999999764
21
-86.1109780000000029
0
LINE
8
BLACK
6
CONTINUOUS
10
207.3592379999999764
20
-86.1109780000000029
11
207.3455069999999978
21
-86.1057229999999976
0
LINE
8
BLACK
6
CONTINUOUS
10
207.3455069999999978
20
-86.1057229999999976
11
207.250269000000003
21
-86.0581040000000002
0
LINE
8
BLACK
6
CONTINUOUS
10
207.250269000000003
20
-86.0581040000000002
11
207.2439689999999928
21
-86.0541389999999922
0
LINE
8
BLACK
6
CONTINUOUS
10
207.2439689999999928
20
-86.0541389999999922
11
207.2421420000000012
21
-86.0533819999999992
0
LINE
8
BLACK
6
CONTINUOUS
10
207.2421420000000012
20
-86.0533819999999992
11
207.2400849999999934
21
-86.0516930000000002
0
LINE
8
BLACK
6
CONTINUOUS
10
207.2400849999999934
20
-86.0516930000000002
11
207.2378259999999841
21
-86.0502719999999925
0
LINE
8
BLACK
6
CONTINUOUS
10
207.2378259999999841
20
-86.0502719999999925
11
207.2365259999999978
21
-86.0487729999999971
0
LINE
8
BLACK
6
CONTINUOUS
10
207.2365259999999978
20
-86.0487729999999971
11
207.2307769999999891
21
-86.0440550000000002
0
LINE
8
BLACK
6
CONTINUOUS
10
207.2307769999999891
20
-86.0440550000000002
11
207.1831579999999917
21
-85.9964360000000028
0
LINE
8
BLACK
6
CONTINUOUS
10
207.1831579999999917
20
-85.9964360000000028
11
207.1784399999999948
21
-85.9906869999999941
0
LINE
8
BLACK
6
CONTINUOUS
10
207.1784399999999948
20
-85.9906869999999941
11
207.1769419999999968
21
-85.9893879999999911
0
LINE
8
BLACK
6
CONTINUOUS
10
207.1769419999999968
20
-85.9893879999999911
11
207.17551899999998
21
-85.9871279999999985
0
LINE
8
BLACK
6
CONTINUOUS
10
207.17551899999998
20
-85.9871279999999985
11
207.1738309999999785
21
-85.9850709999999907
0
LINE
8
BLACK
6
CONTINUOUS
10
207.1738309999999785
20
-85.9850709999999907
11
207.1730739999999855
21
-85.9832430000000016
0
LINE
8
BLACK
6
CONTINUOUS
10
207.1730739999999855
20
-85.9832430000000016
11
207.1691089999999917
21
-85.9769450000000006
0
LINE
8
BLACK
6
CONTINUOUS
10
207.1691089999999917
20
-85.9769450000000006
11
207.1214889999999968
21
-85.8817069999999916
0
LINE
8
BLACK
6
CONTINUOUS
10
207.1214889999999968
20
-85.8817069999999916
11
207.1162339999999915
21
-85.8679750000000013
0
LINE
8
BLACK
6
CONTINUOUS
10
207.1162339999999915
20
-85.8679750000000013
11
207.1160419999999931
21
-85.8652850000000001
0
LINE
8
BLACK
6
CONTINUOUS
10
207.1160419999999931
20
-85.8652850000000001
11
207.1150119999999788
21
-85.8627970000000005
0
LINE
8
BLACK
6
CONTINUOUS
10
207.1150119999999788
20
-85.8627970000000005
11
207.113570999999979
21
-85.8481649999999945
0
LINE
8
BLACK
6
CONTINUOUS
10
207.113570999999979
20
-85.8481649999999945
11
207.113570999999979
21
-85.6576889999999906
0
LINE
8
BLACK
6
CONTINUOUS
10
207.113570999999979
20
-85.6576889999999906
11
207.1150119999999788
21
-85.6430569999999989
0
LINE
8
BLACK
6
CONTINUOUS
10
207.1150119999999788
20
-85.6430569999999989
11
207.1160419999999931
21
-85.6405680000000018
0
LINE
8
BLACK
6
CONTINUOUS
10
207.1160419999999931
20
-85.6405680000000018
11
207.1162339999999915
21
-85.6378789999999981
0
LINE
8
BLACK
6
CONTINUOUS
10
207.1162339999999915
20
-85.6378789999999981
11
207.1163980000000038
21
-85.6374509999999987
0
LINE
8
BLACK
6
CONTINUOUS
10
207.1163980000000038
20
-85.6374509999999987
11
206.8552379999999857
21
-85.6374509999999987
0
LINE
8
BLACK
6
CONTINUOUS
10
206.8552379999999857
20
-85.6374509999999987
11
206.8406059999999798
21
-85.6360099999999989
0
LINE
8
BLACK
6
CONTINUOUS
10
206.8406059999999798
20
-85.6360099999999989
11
206.8135699999999986
21
-85.624810999999994
0
LINE
8
BLACK
6
CONTINUOUS
10
206.8135699999999986
20
-85.624810999999994
11
206.7928780000000017
21
-85.6041189999999972
0
LINE
8
BLACK
6
CONTINUOUS
10
206.7928780000000017
20
-85.6041189999999972
11
206.7816789999999969
21
-85.5770830000000018
0
LINE
8
BLACK
6
CONTINUOUS
10
206.7816789999999969
20
-85.5770830000000018
11
206.7816789999999969
21
-85.5478189999999898
0
LINE
8
BLACK
6
CONTINUOUS
10
206.7816789999999969
20
-85.5478189999999898
11
206.7928780000000017
21
-85.5207829999999944
0
LINE
8
BLACK
6
CONTINUOUS
10
206.7928780000000017
20
-85.5207829999999944
11
206.8135699999999986
21
-85.5000909999999976
0
LINE
8
BLACK
6
CONTINUOUS
10
206.8135699999999986
20
-85.5000909999999976
11
206.8406059999999798
21
-85.4888919999999928
0
LINE
8
BLACK
6
CONTINUOUS
10
206.8406059999999798
20
-85.4888919999999928
11
206.8552379999999857
21
-85.487450999999993
0
LINE
8
BLACK
6
CONTINUOUS
10
206.8552379999999857
20
-85.487450999999993
11
207.8552379999999857
21
-85.487450999999993
0
LINE
8
BLACK
6
CONTINUOUS
10
207.8552379999999857
20
-85.487450999999993
11
207.8698699999999917
21
-85.4888919999999928
0
LINE
8
BLACK
6
CONTINUOUS
10
207.2635709999999847
20
-85.6753949999999946
11
207.2635709999999847
21
-85.830457999999993
0
LINE
8
BLACK
6
CONTINUOUS
10
207.2635709999999847
20
-85.830457999999993
11
207.2978289999999788
21
-85.898974999999993
0
LINE
8
BLACK
6
CONTINUOUS
10
207.2978289999999788
20
-85.898974999999993
11
207.3282370000000014
21
-85.9293830000000014
0
LINE
8
BLACK
6
CONTINUOUS
10
207.3282370000000014
20
-85.9293830000000014
11
207.3967529999999897
21
-85.9636409999999955
0
LINE
8
BLACK
6
CONTINUOUS
10
207.3967529999999897
20
-85.9636409999999955
11
207.6470569999999896
21
-85.9636409999999955
0
LINE
8
BLACK
6
CONTINUOUS
10
207.6470569999999896
20
-85.9636409999999955
11
207.7155729999999778
21
-85.9293830000000014
0
LINE
8
BLACK
6
CONTINUOUS
10
207.7155729999999778
20
-85.9293830000000014
11
207.745980000000003
21
-85.8989759999999904
0
LINE
8
BLACK
6
CONTINUOUS
10
207.745980000000003
20
-85.8989759999999904
11
207.7802379999999971
21
-85.8304600000000022
0
LINE
8
BLACK
6
CONTINUOUS
10
207.7802379999999971
20
-85.8304600000000022
11
207.7802379999999971
21
-85.6753939999999972
0
LINE
8
BLACK
6
CONTINUOUS
10
207.7802379999999971
20
-85.6753939999999972
11
207.7612659999999778
21
-85.6374509999999987
0
LINE
8
BLACK
6
CONTINUOUS
10
207.7612659999999778
20
-85.6374509999999987
11
207.282543000000004
21
-85.6374509999999987
0
LINE
8
BLACK
6
CONTINUOUS
10
207.282543000000004
20
-85.6374509999999987
11
207.2635709999999847
21
-85.6753949999999946
0
LINE
8
BLACK
6
CONTINUOUS
10
209.6032029999999793
20
-85.2269869999999941
11
209.6302389999999889
21
-85.2381859999999989
0
LINE
8
BLACK
6
CONTINUOUS
10
209.6302389999999889
20
-85.2381859999999989
11
209.6509309999999857
21
-85.2588779999999957
0
LINE
8
BLACK
6
CONTINUOUS
10
209.6509309999999857
20
-85.2588779999999957
11
209.6621299999999906
21
-85.2859139999999911
0
LINE
8
BLACK
6
CONTINUOUS
10
209.6621299999999906
20
-85.2859139999999911
11
209.6621299999999906
21
-85.3151780000000031
0
LINE
8
BLACK
6
CONTINUOUS
10
209.6621299999999906
20
-85.3151780000000031
11
209.6509309999999857
21
-85.3422139999999985
0
LINE
8
BLACK
6
CONTINUOUS
10
209.6509309999999857
20
-85.3422139999999985
11
209.6302389999999889
21
-85.3629059999999953
0
LINE
8
BLACK
6
CONTINUOUS
10
209.6302389999999889
20
-85.3629059999999953
11
209.6032029999999793
21
-85.3741050000000001
0
LINE
8
BLACK
6
CONTINUOUS
10
209.6032029999999793
20
-85.3741050000000001
11
209.5885710000000017
21
-85.3755459999999999
0
LINE
8
BLACK
6
CONTINUOUS
10
209.5885710000000017
20
-85.3755459999999999
11
208.7967529999999954
21
-85.3755459999999999
0
LINE
8
BLACK
6
CONTINUOUS
10
208.7967529999999954
20
-85.3755459999999999
11
208.7282369999999787
21
-85.4098039999999941
0
LINE
8
BLACK
6
CONTINUOUS
10
208.7282369999999787
20
-85.4098039999999941
11
208.6978289999999845
21
-85.4402109999999908
0
LINE
8
BLACK
6
CONTINUOUS
10
208.6978289999999845
20
-85.4402109999999908
11
208.6635709999999904
21
-85.5087279999999907
0
LINE
8
BLACK
6
CONTINUOUS
10
208.6635709999999904
20
-85.5087279999999907
11
208.6635709999999904
21
-85.6637909999999891
0
LINE
8
BLACK
6
CONTINUOUS
10
208.6635709999999904
20
-85.6637909999999891
11
208.6978289999999845
21
-85.7323079999999891
0
LINE
8
BLACK
6
CONTINUOUS
10
208.6978289999999845
20
-85.7323079999999891
11
208.7282369999999787
21
-85.7627159999999975
0
LINE
8
BLACK
6
CONTINUOUS
10
208.7282369999999787
20
-85.7627159999999975
11
208.7967529999999954
21
-85.7969739999999916
0
LINE
8
BLACK
6
CONTINUOUS
10
208.7967529999999954
20
-85.7969739999999916
11
209.5885710000000017
21
-85.7969739999999916
0
LINE
8
BLACK
6
CONTINUOUS
10
209.5885710000000017
20
-85.7969739999999916
11
209.6032029999999793
21
-85.7984149999999914
0
LINE
8
BLACK
6
CONTINUOUS
10
209.6032029999999793
20
-85.7984149999999914
11
209.6302389999999889
21
-85.8096139999999963
0
LINE
8
BLACK
6
CONTINUOUS
10
209.6302389999999889
20
-85.8096139999999963
11
209.6509309999999857
21
-85.8303059999999931
0
LINE
8
BLACK
6
CONTINUOUS
10
209.6509309999999857
20
-85.8303059999999931
11
209.6621299999999906
21
-85.8573420000000027
0
LINE
8
BLACK
6
CONTINUOUS
10
209.6621299999999906
20
-85.8573420000000027
11
209.6621299999999906
21
-85.8866060000000004
0
LINE
8
BLACK
6
CONTINUOUS
10
209.6621299999999906
20
-85.8866060000000004
11
209.6509309999999857
21
-85.9136419999999958
0
LINE
8
BLACK
6
CONTINUOUS
10
209.6509309999999857
20
-85.9136419999999958
11
209.6302389999999889
21
-85.9343339999999927
0
LINE
8
BLACK
6
CONTINUOUS
10
209.6302389999999889
20
-85.9343339999999927
11
209.6032029999999793
21
-85.9455329999999975
0
LINE
8
BLACK
6
CONTINUOUS
10
209.6032029999999793
20
-85.9455329999999975
11
209.5885710000000017
21
-85.9469739999999973
0
LINE
8
BLACK
6
CONTINUOUS
10
209.5885710000000017
20
-85.9469739999999973
11
208.7790479999999889
21
-85.9469739999999973
0
LINE
8
BLACK
6
CONTINUOUS
10
208.7790479999999889
20
-85.9469739999999973
11
208.7644159999999829
21
-85.9455329999999975
0
LINE
8
BLACK
6
CONTINUOUS
10
208.7644159999999829
20
-85.9455329999999975
11
208.7619269999999858
21
-85.944502
0
LINE
8
BLACK
6
CONTINUOUS
10
208.7619269999999858
20
-85.944502
11
208.7592379999999821
21
-85.944310999999999
0
LINE
8
BLACK
6
CONTINUOUS
10
208.7592379999999821
20
-85.944310999999999
11
208.7455070000000035
21
-85.9390559999999937
0
LINE
8
BLACK
6
CONTINUOUS
10
208.7455070000000035
20
-85.9390559999999937
11
208.6502689999999802
21
-85.8914369999999963
0
LINE
8
BLACK
6
CONTINUOUS
10
208.6502689999999802
20
-85.8914369999999963
11
208.6439689999999985
21
-85.8874720000000025
0
LINE
8
BLACK
6
CONTINUOUS
10
208.6439689999999985
20
-85.8874720000000025
11
208.6421419999999785
21
-85.8867149999999953
0
LINE
8
BLACK
6
CONTINUOUS
10
208.6421419999999785
20
-85.8867149999999953
11
208.6400849999999991
21
-85.8850259999999963
0
LINE
8
BLACK
6
CONTINUOUS
10
208.6400849999999991
20
-85.8850259999999963
11
208.6378259999999898
21
-85.8836050000000029
0
LINE
8
BLACK
6
CONTINUOUS
10
208.6378259999999898
20
-85.8836050000000029
11
208.6365260000000035
21
-85.8821059999999932
0
LINE
8
BLACK
6
CONTINUOUS
10
208.6365260000000035
20
-85.8821059999999932
11
208.6307769999999948
21
-85.8773879999999963
0
LINE
8
BLACK
6
CONTINUOUS
10
208.6307769999999948
20
-85.8773879999999963
11
208.5831579999999974
21
-85.8297689999999989
0
LINE
8
BLACK
6
CONTINUOUS
10
208.5831579999999974
20
-85.8297689999999989
11
208.5784400000000005
21
-85.8240199999999902
0
LINE
8
BLACK
6
CONTINUOUS
10
208.5784400000000005
20
-85.8240199999999902
11
208.5769420000000025
21
-85.8227210000000014
0
LINE
8
BLACK
6
CONTINUOUS
10
208.5769420000000025
20
-85.8227210000000014
11
208.5755189999999857
21
-85.8204609999999946
0
LINE
8
BLACK
6
CONTINUOUS
10
208.5755189999999857
20
-85.8204609999999946
11
208.5738309999999842
21
-85.818404000000001
0
LINE
8
BLACK
6
CONTINUOUS
10
208.5738309999999842
20
-85.818404000000001
11
208.5730739999999912
21
-85.8165759999999977
0
LINE
8
BLACK
6
CONTINUOUS
10
208.5730739999999912
20
-85.8165759999999977
11
208.5691089999999974
21
-85.8102779999999967
0
LINE
8
BLACK
6
CONTINUOUS
10
208.5691089999999974
20
-85.8102779999999967
11
208.5214890000000025
21
-85.7150400000000019
0
LINE
8
BLACK
6
CONTINUOUS
10
208.5214890000000025
20
-85.7150400000000019
11
208.5162339999999972
21
-85.7013079999999974
0
LINE
8
BLACK
6
CONTINUOUS
10
208.5162339999999972
20
-85.7013079999999974
11
208.5160419999999988
21
-85.6986179999999962
0
LINE
8
BLACK
6
CONTINUOUS
10
208.5160419999999988
20
-85.6986179999999962
11
208.5150119999999845
21
-85.6961299999999966
0
LINE
8
BLACK
6
CONTINUOUS
10
208.5150119999999845
20
-85.6961299999999966
11
208.5135709999999847
21
-85.6814979999999906
0
LINE
8
BLACK
6
CONTINUOUS
10
208.5135709999999847
20
-85.6814979999999906
11
208.5135709999999847
21
-85.491022000000001
0
LINE
8
BLACK
6
CONTINUOUS
10
208.5135709999999847
20
-85.491022000000001
11
208.5150119999999845
21
-85.476389999999995
0
LINE
8
BLACK
6
CONTINUOUS
10
208.5150119999999845
20
-85.476389999999995
11
208.5160419999999988
21
-85.4739009999999979
0
LINE
8
BLACK
6
CONTINUOUS
10
208.5160419999999988
20
-85.4739009999999979
11
208.5162339999999972
21
-85.4712119999999942
0
LINE
8
BLACK
6
CONTINUOUS
10
208.5162339999999972
20
-85.4712119999999942
11
208.5214890000000025
21
-85.4574799999999897
0
LINE
8
BLACK
6
CONTINUOUS
10
208.5214890000000025
20
-85.4574799999999897
11
208.5691089999999974
21
-85.3622419999999948
0
LINE
8
BLACK
6
CONTINUOUS
10
208.5691089999999974
20
-85.3622419999999948
11
208.5730739999999912
21
-85.3559429999999963
0
LINE
8
BLACK
6
CONTINUOUS
10
208.5730739999999912
20
-85.3559429999999963
11
208.5738309999999842
21
-85.3541159999999905
0
LINE
8
BLACK
6
CONTINUOUS
10
208.5738309999999842
20
-85.3541159999999905
11
208.5755189999999857
21
-85.3520579999999995
0
LINE
8
BLACK
6
CONTINUOUS
10
208.5755189999999857
20
-85.3520579999999995
11
208.5769420000000025
21
-85.3497989999999902
0
LINE
8
BLACK
6
CONTINUOUS
10
208.5769420000000025
20
-85.3497989999999902
11
208.5784400000000005
21
-85.3484989999999897
0
LINE
8
BLACK
6
CONTINUOUS
10
208.5784400000000005
20
-85.3484989999999897
11
208.5831579999999974
21
-85.3427509999999927
0
LINE
8
BLACK
6
CONTINUOUS
10
208.5831579999999974
20
-85.3427509999999927
11
208.6307769999999948
21
-85.2951319999999953
0
LINE
8
BLACK
6
CONTINUOUS
10
208.6307769999999948
20
-85.2951319999999953
11
208.6365260000000035
21
-85.2904130000000009
0
LINE
8
BLACK
6
CONTINUOUS
10
208.6365260000000035
20
-85.2904130000000009
11
208.6378259999999898
21
-85.2889150000000029
0
LINE
8
BLACK
6
CONTINUOUS
10
208.6378259999999898
20
-85.2889150000000029
11
208.6400849999999991
21
-85.2874929999999978
0
LINE
8
BLACK
6
CONTINUOUS
10
208.6400849999999991
20
-85.2874929999999978
11
208.6421419999999785
21
-85.2858049999999963
0
LINE
8
BLACK
6
CONTINUOUS
10
208.6421419999999785
20
-85.2858049999999963
11
208.6439689999999985
21
-85.2850469999999916
0
LINE
8
BLACK
6
CONTINUOUS
10
208.6439689999999985
20
-85.2850469999999916
11
208.6502689999999802
21
-85.2810829999999953
0
LINE
8
BLACK
6
CONTINUOUS
10
208.6502689999999802
20
-85.2810829999999953
11
208.7455070000000035
21
-85.2334639999999979
0
LINE
8
BLACK
6
CONTINUOUS
10
208.7455070000000035
20
-85.2334639999999979
11
208.7592379999999821
21
-85.2282089999999926
0
LINE
8
BLACK
6
CONTINUOUS
10
208.7592379999999821
20
-85.2282089999999926
11
208.7619269999999858
21
-85.2280169999999941
0
LINE
8
BLACK
6
CONTINUOUS
10
208.7619269999999858
20
-85.2280169999999941
11
208.7644159999999829
21
-85.2269869999999941
0
LINE
8
BLACK
6
CONTINUOUS
10
208.7644159999999829
20
-85.2269869999999941
11
208.7790479999999889
21
-85.2255459999999943
0
LINE
8
BLACK
6
CONTINUOUS
10
208.7790479999999889
20
-85.2255459999999943
11
209.5885710000000017
21
-85.2255459999999943
0
LINE
8
BLACK
6
CONTINUOUS
10
209.5885710000000017
20
-85.2255459999999943
11
209.6032029999999793
21
-85.2269869999999941
0
LINE
8
BLACK
6
CONTINUOUS
10
204.8800859999999773
20
-83.2210109999999901
11
204.9258669999999825
21
-83.2399739999999895
0
LINE
8
BLACK
6
CONTINUOUS
10
204.9258669999999825
20
-83.2399739999999895
11
204.9609069999999917
21
-83.2750139999999988
0
LINE
8
BLACK
6
CONTINUOUS
10
204.9609069999999917
20
-83.2750139999999988
11
204.9798699999999769
21
-83.3207949999999897
0
LINE
8
BLACK
6
CONTINUOUS
10
204.9798699999999769
20
-83.3207949999999897
11
204.982309999999984
21
-83.3455709999999925
0
LINE
8
BLACK
6
CONTINUOUS
10
204.982309999999984
20
-83.3455709999999925
11
204.982309999999984
21
-85.0955809999999957
0
LINE
8
BLACK
6
CONTINUOUS
10
204.982309999999984
20
-85.0955809999999957
11
204.9798699999999769
21
-85.1203569999999985
0
LINE
8
BLACK
6
CONTINUOUS
10
204.9798699999999769
20
-85.1203569999999985
11
204.9609069999999917
21
-85.1661379999999895
0
LINE
8
BLACK
6
CONTINUOUS
10
204.9609069999999917
20
-85.1661379999999895
11
204.9258669999999825
21
-85.2011779999999987
0
LINE
8
BLACK
6
CONTINUOUS
10
204.9258669999999825
20
-85.2011779999999987
11
204.8800859999999773
21
-85.2201409999999981
0
LINE
8
BLACK
6
CONTINUOUS
10
204.8800859999999773
20
-85.2201409999999981
11
204.8553100000000029
21
-85.222580999999991
0
LINE
8
BLACK
6
CONTINUOUS
10
204.8553100000000029
20
-85.222580999999991
11
204.4135799999999961
21
-85.222580999999991
0
LINE
8
BLACK
6
CONTINUOUS
10
204.4135799999999961
20
-85.222580999999991
11
204.3888039999999933
21
-85.2201409999999981
0
LINE
8
BLACK
6
CONTINUOUS
10
204.3888039999999933
20
-85.2201409999999981
11
204.3430229999999881
21
-85.2011779999999987
0
LINE
8
BLACK
6
CONTINUOUS
10
204.3430229999999881
20
-85.2011779999999987
11
204.3079829999999788
21
-85.1661379999999895
0
LINE
8
BLACK
6
CONTINUOUS
10
204.3079829999999788
20
-85.1661379999999895
11
204.2890199999999936
21
-85.1203569999999985
0
LINE
8
BLACK
6
CONTINUOUS
10
204.2890199999999936
20
-85.1203569999999985
11
204.2890199999999936
21
-85.0708049999999929
0
LINE
8
BLACK
6
CONTINUOUS
10
204.2890199999999936
20
-85.0708049999999929
11
204.3079829999999788
21
-85.0250240000000019
0
LINE
8
BLACK
6
CONTINUOUS
10
204.3079829999999788
20
-85.0250240000000019
11
204.3430229999999881
21
-84.9899839999999926
0
LINE
8
BLACK
6
CONTINUOUS
10
204.3430229999999881
20
-84.9899839999999926
11
204.3888039999999933
21
-84.9710209999999933
0
LINE
8
BLACK
6
CONTINUOUS
10
204.3888039999999933
20
-84.9710209999999933
11
204.4135799999999961
21
-84.9685810000000004
0
LINE
8
BLACK
6
CONTINUOUS
10
204.4135799999999961
20
-84.9685810000000004
11
204.7283099999999934
21
-84.9685810000000004
0
LINE
8
BLACK
6
CONTINUOUS
10
204.7283099999999934
20
-84.9685810000000004
11
204.7283099999999934
21
-83.4725710000000021
0
LINE
8
BLACK
6
CONTINUOUS
10
204.7283099999999934
20
-83.4725710000000021
11
204.4135799999999961
21
-83.4725710000000021
0
LINE
8
BLACK
6
CONTINUOUS
10
204.4135799999999961
20
-83.4725710000000021
11
204.3888039999999933
21
-83.470130999999995
0
LINE
8
BLACK
6
CONTINUOUS
10
204.3888039999999933
20
-83.470130999999995
11
204.3430229999999881
21
-83.4511679999999956
0
LINE
8
BLACK
6
CONTINUOUS
10
204.3430229999999881
20
-83.4511679999999956
11
204.3079829999999788
21
-83.4161280000000005
0
LINE
8
BLACK
6
CONTINUOUS
10
204.3079829999999788
20
-83.4161280000000005
11
204.2890199999999936
21
-83.3703469999999953
0
LINE
8
BLACK
6
CONTINUOUS
10
204.2890199999999936
20
-83.3703469999999953
11
204.2890199999999936
21
-83.3207949999999897
0
LINE
8
BLACK
6
CONTINUOUS
10
204.2890199999999936
20
-83.3207949999999897
11
204.3079829999999788
21
-83.2750139999999988
0
LINE
8
BLACK
6
CONTINUOUS
10
204.3079829999999788
20
-83.2750139999999988
11
204.3430229999999881
21
-83.2399739999999895
0
LINE
8
BLACK
6
CONTINUOUS
10
204.3430229999999881
20
-83.2399739999999895
11
204.3888039999999933
21
-83.2210109999999901
0
LINE
8
BLACK
6
CONTINUOUS
10
204.3888039999999933
20
-83.2210109999999901
11
204.4135799999999961
21
-83.2185709999999972
0
LINE
8
BLACK
6
CONTINUOUS
10
204.4135799999999961
20
-83.2185709999999972
11
204.8553100000000029
21
-83.2185709999999972
0
LINE
8
BLACK
6
CONTINUOUS
10
204.8553100000000029
20
-83.2185709999999972
11
204.8800859999999773
21
-83.2210109999999901
0
LINE
8
BLACK
6
CONTINUOUS
10
207.6793940000000021
20
-84.5365109999999902
11
207.6818829999999991
21
-84.537542000000002
0
LINE
8
BLACK
6
CONTINUOUS
10
207.6818829999999991
20
-84.537542000000002
11
207.6845709999999769
21
-84.5377330000000029
0
LINE
8
BLACK
6
CONTINUOUS
10
207.6845709999999769
20
-84.5377330000000029
11
207.6983029999999815
21
-84.542987999999994
0
LINE
8
BLACK
6
CONTINUOUS
10
207.6983029999999815
20
-84.542987999999994
11
207.7935410000000047
21
-84.5906069999999914
0
LINE
8
BLACK
6
CONTINUOUS
10
207.7935410000000047
20
-84.5906069999999914
11
207.799839999999989
21
-84.594571000000002
0
LINE
8
BLACK
6
CONTINUOUS
10
207.799839999999989
20
-84.594571000000002
11
207.8016679999999781
21
-84.5953289999999924
0
LINE
8
BLACK
6
CONTINUOUS
10
207.8016679999999781
20
-84.5953289999999924
11
207.8037239999999883
21
-84.5970169999999939
0
LINE
8
BLACK
6
CONTINUOUS
10
207.8037239999999883
20
-84.5970169999999939
11
207.8059839999999951
21
-84.5984389999999991
0
LINE
8
BLACK
6
CONTINUOUS
10
207.8059839999999951
20
-84.5984389999999991
11
207.807282999999984
21
-84.5999369999999971
0
LINE
8
BLACK
6
CONTINUOUS
10
207.807282999999984
20
-84.5999369999999971
11
207.8130329999999901
21
-84.6046559999999914
0
LINE
8
BLACK
6
CONTINUOUS
10
207.8130329999999901
20
-84.6046559999999914
11
207.8606519999999875
21
-84.652275000000003
0
LINE
8
BLACK
6
CONTINUOUS
10
207.8606519999999875
20
-84.652275000000003
11
207.8653699999999844
21
-84.6580239999999975
0
LINE
8
BLACK
6
CONTINUOUS
10
207.8653699999999844
20
-84.6580239999999975
11
207.8668689999999799
21
-84.659323999999998
0
LINE
8
BLACK
6
CONTINUOUS
10
207.8668689999999799
20
-84.659323999999998
11
207.8682900000000018
21
-84.6615829999999931
0
LINE
8
BLACK
6
CONTINUOUS
10
207.8682900000000018
20
-84.6615829999999931
11
207.8699790000000007
21
-84.6636400000000009
0
LINE
8
BLACK
6
CONTINUOUS
10
207.8699790000000007
20
-84.6636400000000009
11
207.8707359999999937
21
-84.6654669999999925
0
LINE
8
BLACK
6
CONTINUOUS
10
207.8707359999999937
20
-84.6654669999999925
11
207.8747009999999875
21
-84.6717670000000027
0
LINE
8
BLACK
6
CONTINUOUS
10
207.8747009999999875
20
-84.6717670000000027
11
207.9223199999999849
21
-84.7670049999999975
0
LINE
8
BLACK
6
CONTINUOUS
10
207.9223199999999849
20
-84.7670049999999975
11
207.9275749999999903
21
-84.7807359999999903
0
LINE
8
BLACK
6
CONTINUOUS
10
207.9275749999999903
20
-84.7807359999999903
11
207.9277659999999912
21
-84.783424999999994
0
LINE
8
BLACK
6
CONTINUOUS
10
207.9277659999999912
20
-84.783424999999994
11
207.928797000000003
21
-84.7859139999999911
0
LINE
8
BLACK
6
CONTINUOUS
10
207.928797000000003
20
-84.7859139999999911
11
207.9302380000000028
21
-84.8005459999999971
0
LINE
8
BLACK
6
CONTINUOUS
10
207.9302380000000028
20
-84.8005459999999971
11
207.9302380000000028
21
-84.9434029999999893
0
LINE
8
BLACK
6
CONTINUOUS
10
207.9302380000000028
20
-84.9434029999999893
11
207.928797000000003
21
-84.9580349999999953
0
LINE
8
BLACK
6
CONTINUOUS
10
207.928797000000003
20
-84.9580349999999953
11
207.9277659999999912
21
-84.9605229999999949
0
LINE
8
BLACK
6
CONTINUOUS
10
207.9277659999999912
20
-84.9605229999999949
11
207.9275749999999903
21
-84.9632129999999961
0
LINE
8
BLACK
6
CONTINUOUS
10
207.9275749999999903
20
-84.9632129999999961
11
207.9223199999999849
21
-84.9769440000000031
0
LINE
8
BLACK
6
CONTINUOUS
10
207.9223199999999849
20
-84.9769440000000031
11
207.8747009999999875
21
-85.072181999999998
0
LINE
8
BLACK
6
CONTINUOUS
10
207.8747009999999875
20
-85.072181999999998
11
207.8707359999999937
21
-85.0784809999999965
0
LINE
8
BLACK
6
CONTINUOUS
10
207.8707359999999937
20
-85.0784809999999965
11
207.8699790000000007
21
-85.0803089999999997
0
LINE
8
BLACK
6
CONTINUOUS
10
207.8699790000000007
20
-85.0803089999999997
11
207.8682900000000018
21
-85.0823649999999958
0
LINE
8
BLACK
6
CONTINUOUS
10
207.8682900000000018
20
-85.0823649999999958
11
207.8668689999999799
21
-85.0846250000000026
0
LINE
8
BLACK
6
CONTINUOUS
10
207.8668689999999799
20
-85.0846250000000026
11
207.8653699999999844
21
-85.0859239999999915
0
LINE
8
BLACK
6
CONTINUOUS
10
207.8653699999999844
20
-85.0859239999999915
11
207.8606519999999875
21
-85.0916739999999976
0
LINE
8
BLACK
6
CONTINUOUS
10
207.8606519999999875
20
-85.0916739999999976
11
207.8130329999999901
21
-85.139292999999995
0
LINE
8
BLACK
6
CONTINUOUS
10
207.8130329999999901
20
-85.139292999999995
11
207.807282999999984
21
-85.1440109999999919
0
LINE
8
BLACK
6
CONTINUOUS
10
207.807282999999984
20
-85.1440109999999919
11
207.8059839999999951
21
-85.1455100000000016
0
LINE
8
BLACK
6
CONTINUOUS
10
207.8059839999999951
20
-85.1455100000000016
11
207.8037239999999883
21
-85.146930999999995
0
LINE
8
BLACK
6
CONTINUOUS
10
207.8037239999999883
20
-85.146930999999995
11
207.8016679999999781
21
-85.148619999999994
0
LINE
8
BLACK
6
CONTINUOUS
10
207.8016679999999781
20
-85.148619999999994
11
207.799839999999989
21
-85.1493770000000012
0
LINE
8
BLACK
6
CONTINUOUS
10
207.799839999999989
20
-85.1493770000000012
11
207.7935410000000047
21
-85.153341999999995
0
LINE
8
BLACK
6
CONTINUOUS
10
207.7935410000000047
20
-85.153341999999995
11
207.6983029999999815
21
-85.2009609999999924
0
LINE
8
BLACK
6
CONTINUOUS
10
207.6983029999999815
20
-85.2009609999999924
11
207.6845709999999769
21
-85.2062159999999977
0
LINE
8
BLACK
6
CONTINUOUS
10
207.6845709999999769
20
-85.2062159999999977
11
207.6818829999999991
21
-85.2064060000000012
0
LINE
8
BLACK
6
CONTINUOUS
10
207.6818829999999991
20
-85.2064060000000012
11
207.6793940000000021
21
-85.2074379999999962
0
LINE
8
BLACK
6
CONTINUOUS
10
207.6793940000000021
20
-85.2074379999999962
11
207.6647619999999961
21
-85.208878999999996
0
LINE
8
BLACK
6
CONTINUOUS
10
207.6647619999999961
20
-85.208878999999996
11
207.3790479999999832
21
-85.208878999999996
0
LINE
8
BLACK
6
CONTINUOUS
10
207.3790479999999832
20
-85.208878999999996
11
207.3644159999999772
21
-85.2074379999999962
0
LINE
8
BLACK
6
CONTINUOUS
10
207.3644159999999772
20
-85.2074379999999962
11
207.3619269999999801
21
-85.2064069999999987
0
LINE
8
BLACK
6
CONTINUOUS
10
207.3619269999999801
20
-85.2064069999999987
11
207.3592379999999764
21
-85.2062159999999977
0
LINE
8
BLACK
6
CONTINUOUS
10
207.3592379999999764
20
-85.2062159999999977
11
207.3455069999999978
21
-85.2009609999999924
0
LINE
8
BLACK
6
CONTINUOUS
10
207.3455069999999978
20
-85.2009609999999924
11
207.250269000000003
21
-85.153341999999995
0
LINE
8
BLACK
6
CONTINUOUS
10
207.250269000000003
20
-85.153341999999995
11
207.2439689999999928
21
-85.1493770000000012
0
LINE
8
BLACK
6
CONTINUOUS
10
207.2439689999999928
20
-85.1493770000000012
11
207.2421420000000012
21
-85.148619999999994
0
LINE
8
BLACK
6
CONTINUOUS
10
207.2421420000000012
20
-85.148619999999994
11
207.2400849999999934
21
-85.146930999999995
0
LINE
8
BLACK
6
CONTINUOUS
10
207.2400849999999934
20
-85.146930999999995
11
207.2378259999999841
21
-85.1455100000000016
0
LINE
8
BLACK
6
CONTINUOUS
10
207.2378259999999841
20
-85.1455100000000016
11
207.2365259999999978
21
-85.1440109999999919
0
LINE
8
BLACK
6
CONTINUOUS
10
207.2365259999999978
20
-85.1440109999999919
11
207.2307769999999891
21
-85.139292999999995
0
LINE
8
BLACK
6
CONTINUOUS
10
207.2307769999999891
20
-85.139292999999995
11
207.1831579999999917
21
-85.0916739999999976
0
LINE
8
BLACK
6
CONTINUOUS
10
207.1831579999999917
20
-85.0916739999999976
11
207.1784399999999948
21
-85.0859250000000031
0
LINE
8
BLACK
6
CONTINUOUS
10
207.1784399999999948
20
-85.0859250000000031
11
207.1769419999999968
21
-85.0846260000000001
0
LINE
8
BLACK
6
CONTINUOUS
10
207.1769419999999968
20
-85.0846260000000001
11
207.17551899999998
21
-85.0823659999999933
0
LINE
8
BLACK
6
CONTINUOUS
10
207.17551899999998
20
-85.0823659999999933
11
207.1738309999999785
21
-85.0803089999999997
0
LINE
8
BLACK
6
CONTINUOUS
10
207.1738309999999785
20
-85.0803089999999997
11
207.1730739999999855
21
-85.0784809999999965
0
LINE
8
BLACK
6
CONTINUOUS
10
207.1730739999999855
20
-85.0784809999999965
11
207.1691089999999917
21
-85.0721829999999954
0
LINE
8
BLACK
6
CONTINUOUS
10
207.1691089999999917
20
-85.0721829999999954
11
207.1214889999999968
21
-84.9769450000000006
0
LINE
8
BLACK
6
CONTINUOUS
10
207.1214889999999968
20
-84.9769450000000006
11
207.1162339999999915
21
-84.9632129999999961
0
LINE
8
BLACK
6
CONTINUOUS
10
207.1162339999999915
20
-84.9632129999999961
11
207.1160419999999931
21
-84.9605229999999949
0
LINE
8
BLACK
6
CONTINUOUS
10
207.1160419999999931
20
-84.9605229999999949
11
207.1150119999999788
21
-84.9580349999999953
0
LINE
8
BLACK
6
CONTINUOUS
10
207.1150119999999788
20
-84.9580349999999953
11
207.113570999999979
21
-84.9434029999999893
0
LINE
8
BLACK
6
CONTINUOUS
10
207.113570999999979
20
-84.9434029999999893
11
207.113570999999979
21
-84.8005459999999971
0
LINE
8
BLACK
6
CONTINUOUS
10
207.113570999999979
20
-84.8005459999999971
11
207.1150119999999788
21
-84.7859139999999911
0
LINE
8
BLACK
6
CONTINUOUS
10
207.1150119999999788
20
-84.7859139999999911
11
207.1160419999999931
21
-84.783424999999994
0
LINE
8
BLACK
6
CONTINUOUS
10
207.1160419999999931
20
-84.783424999999994
11
207.1162339999999915
21
-84.7807359999999903
0
LINE
8
BLACK
6
CONTINUOUS
10
207.1162339999999915
20
-84.7807359999999903
11
207.1214889999999968
21
-84.767004
0
LINE
8
BLACK
6
CONTINUOUS
10
207.1214889999999968
20
-84.767004
11
207.1691089999999917
21
-84.671765999999991
0
LINE
8
BLACK
6
CONTINUOUS
10
207.1691089999999917
20
-84.671765999999991
11
207.1730739999999855
21
-84.6654669999999925
0
LINE
8
BLACK
6
CONTINUOUS
10
207.1730739999999855
20
-84.6654669999999925
11
207.1738309999999785
21
-84.6636400000000009
0
LINE
8
BLACK
6
CONTINUOUS
10
207.1738309999999785
20
-84.6636400000000009
11
207.17551899999998
21
-84.6615819999999957
0
LINE
8
BLACK
6
CONTINUOUS
10
207.17551899999998
20
-84.6615819999999957
11
207.1769419999999968
21
-84.6593230000000005
0
LINE
8
BLACK
6
CONTINUOUS
10
207.1769419999999968
20
-84.6593230000000005
11
207.1784399999999948
21
-84.658023
0
LINE
8
BLACK
6
CONTINUOUS
10
207.1784399999999948
20
-84.658023
11
207.1831579999999917
21
-84.652275000000003
0
LINE
8
BLACK
6
CONTINUOUS
10
207.1831579999999917
20
-84.652275000000003
11
207.2307769999999891
21
-84.6046559999999914
0
LINE
8
BLACK
6
CONTINUOUS
10
207.2307769999999891
20
-84.6046559999999914
11
207.2365259999999978
21
-84.5999369999999971
0
LINE
8
BLACK
6
CONTINUOUS
10
207.2365259999999978
20
-84.5999369999999971
11
207.2378259999999841
21
-84.5984389999999991
0
LINE
8
BLACK
6
CONTINUOUS
10
207.2378259999999841
20
-84.5984389999999991
11
207.2400849999999934
21
-84.5970169999999939
0
LINE
8
BLACK
6
CONTINUOUS
10
207.2400849999999934
20
-84.5970169999999939
11
207.2421420000000012
21
-84.5953289999999924
0
LINE
8
BLACK
6
CONTINUOUS
10
207.2421420000000012
20
-84.5953289999999924
11
207.2439689999999928
21
-84.594571000000002
0
LINE
8
BLACK
6
CONTINUOUS
10
207.2439689999999928
20
-84.594571000000002
11
207.250269000000003
21
-84.5906069999999914
0
LINE
8
BLACK
6
CONTINUOUS
10
207.250269000000003
20
-84.5906069999999914
11
207.3455069999999978
21
-84.542987999999994
0
LINE
8
BLACK
6
CONTINUOUS
10
207.3455069999999978
20
-84.542987999999994
11
207.3592379999999764
21
-84.5377330000000029
0
LINE
8
BLACK
6
CONTINUOUS
10
207.3592379999999764
20
-84.5377330000000029
11
207.3619269999999801
21
-84.5375409999999903
0
LINE
8
BLACK
6
CONTINUOUS
10
207.3619269999999801
20
-84.5375409999999903
11
207.3644159999999772
21
-84.5365109999999902
0
LINE
8
BLACK
6
CONTINUOUS
10
207.3644159999999772
20
-84.5365109999999902
11
207.3790479999999832
21
-84.5350699999999904
0
LINE
8
BLACK
6
CONTINUOUS
10
207.3790479999999832
20
-84.5350699999999904
11
207.6647619999999961
21
-84.5350699999999904
0
LINE
8
BLACK
6
CONTINUOUS
10
207.6647619999999961
20
-84.5350699999999904
11
207.6793940000000021
21
-84.5365109999999902
0
LINE
8
BLACK
6
CONTINUOUS
10
207.3282370000000014
20
-84.7193279999999902
11
207.2978289999999788
21
-84.7497350000000012
0
LINE
8
BLACK
6
CONTINUOUS
10
207.2978289999999788
20
-84.7497350000000012
11
207.2635709999999847
21
-84.8182520000000011
0
LINE
8
BLACK
6
CONTINUOUS
10
207.2635709999999847
20
-84.8182520000000011
11
207.2635709999999847
21
-84.9256960000000021
0
LINE
8
BLACK
6
CONTINUOUS
10
207.2635709999999847
20
-84.9256960000000021
11
207.2978289999999788
21
-84.994213000000002
0
LINE
8
BLACK
6
CONTINUOUS
10
207.2978289999999788
20
-84.994213000000002
11
207.3282370000000014
21
-85.0246209999999962
0
LINE
8
BLACK
6
CONTINUOUS
10
207.3282370000000014
20
-85.0246209999999962
11
207.3967529999999897
21
-85.0588789999999904
0
LINE
8
BLACK
6
CONTINUOUS
10
207.3967529999999897
20
-85.0588789999999904
11
207.6470569999999896
21
-85.0588789999999904
0
LINE
8
BLACK
6
CONTINUOUS
10
207.6470569999999896
20
-85.0588789999999904
11
207.7155729999999778
21
-85.0246209999999962
0
LINE
8
BLACK
6
CONTINUOUS
10
207.7155729999999778
20
-85.0246209999999962
11
207.745980000000003
21
-84.9942139999999995
0
LINE
8
BLACK
6
CONTINUOUS
10
207.745980000000003
20
-84.9942139999999995
11
207.7802379999999971
21
-84.925697999999997
0
LINE
8
BLACK
6
CONTINUOUS
10
207.7802379999999971
20
-84.925697999999997
11
207.7802379999999971
21
-84.8182509999999894
0
LINE
8
BLACK
6
CONTINUOUS
10
207.7802379999999971
20
-84.8182509999999894
11
207.745980000000003
21
-84.7497350000000012
0
LINE
8
BLACK
6
CONTINUOUS
10
207.745980000000003
20
-84.7497350000000012
11
207.7155729999999778
21
-84.7193279999999902
0
LINE
8
BLACK
6
CONTINUOUS
10
207.7155729999999778
20
-84.7193279999999902
11
207.6470569999999896
21
-84.6850699999999961
0
LINE
8
BLACK
6
CONTINUOUS
10
207.6470569999999896
20
-84.6850699999999961
11
207.3967529999999897
21
-84.6850699999999961
0
LINE
8
BLACK
6
CONTINUOUS
10
207.3967529999999897
20
-84.6850699999999961
11
207.3282370000000014
21
-84.7193279999999902
0
LINE
8
BLACK
6
CONTINUOUS
10
207.8969060000000013
20
-83.8810429999999911
11
207.9175979999999981
21
-83.9017350000000022
0
LINE
8
BLACK
6
CONTINUOUS
10
207.9175979999999981
20
-83.9017350000000022
11
207.928797000000003
21
-83.9287709999999976
0
LINE
8
BLACK
6
CONTINUOUS
10
207.928797000000003
20
-83.9287709999999976
11
207.9302380000000028
21
-83.9434029999999893
0
LINE
8
BLACK
6
CONTINUOUS
10
207.9302380000000028
20
-83.9434029999999893
11
207.9302380000000028
21
-84.0112599999999929
0
LINE
8
BLACK
6
CONTINUOUS
10
207.9302380000000028
20
-84.0112599999999929
11
208.188570999999996
21
-84.0112599999999929
0
LINE
8
BLACK
6
CONTINUOUS
10
208.188570999999996
20
-84.0112599999999929
11
208.203203000000002
21
-84.0127009999999927
0
LINE
8
BLACK
6
CONTINUOUS
10
208.203203000000002
20
-84.0127009999999927
11
208.2302389999999832
21
-84.0238999999999976
0
LINE
8
BLACK
6
CONTINUOUS
10
208.2302389999999832
20
-84.0238999999999976
11
208.25093099999998
21
-84.0445919999999944
0
LINE
8
BLACK
6
CONTINUOUS
10
208.25093099999998
20
-84.0445919999999944
11
208.2621299999999849
21
-84.0716279999999898
0
LINE
8
BLACK
6
CONTINUOUS
10
208.2621299999999849
20
-84.0716279999999898
11
208.2621299999999849
21
-84.1008920000000018
0
LINE
8
BLACK
6
CONTINUOUS
10
208.2621299999999849
20
-84.1008920000000018
11
208.25093099999998
21
-84.1279279999999972
0
LINE
8
BLACK
6
CONTINUOUS
10
208.25093099999998
20
-84.1279279999999972
11
208.2302389999999832
21
-84.148619999999994
0
LINE
8
BLACK
6
CONTINUOUS
10
208.2302389999999832
20
-84.148619999999994
11
208.203203000000002
21
-84.1598189999999988
0
LINE
8
BLACK
6
CONTINUOUS
10
208.203203000000002
20
-84.1598189999999988
11
208.188570999999996
21
-84.1612599999999986
0
LINE
8
BLACK
6
CONTINUOUS
10
208.188570999999996
20
-84.1612599999999986
11
207.9302380000000028
21
-84.1612599999999986
0
LINE
8
BLACK
6
CONTINUOUS
10
207.9302380000000028
20
-84.1612599999999986
11
207.9302380000000028
21
-84.3243549999999971
0
LINE
8
BLACK
6
CONTINUOUS
10
207.9302380000000028
20
-84.3243549999999971
11
207.928797000000003
21
-84.338987000000003
0
LINE
8
BLACK
6
CONTINUOUS
10
207.928797000000003
20
-84.338987000000003
11
207.9175979999999981
21
-84.3660229999999984
0
LINE
8
BLACK
6
CONTINUOUS
10
207.9175979999999981
20
-84.3660229999999984
11
207.8969060000000013
21
-84.3867149999999953
0
LINE
8
BLACK
6
CONTINUOUS
10
207.8969060000000013
20
-84.3867149999999953
11
207.8698699999999917
21
-84.3979140000000001
0
LINE
8
BLACK
6
CONTINUOUS
10
207.8698699999999917
20
-84.3979140000000001
11
207.8406059999999798
21
-84.3979140000000001
0
LINE
8
BLACK
6
CONTINUOUS
10
207.8406059999999798
20
-84.3979140000000001
11
207.8135699999999986
21
-84.3867149999999953
0
LINE
8
BLACK
6
CONTINUOUS
10
207.8135699999999986
20
-84.3867149999999953
11
207.7928780000000017
21
-84.3660229999999984
0
LINE
8
BLACK
6
CONTINUOUS
10
207.7928780000000017
20
-84.3660229999999984
11
207.7816789999999969
21
-84.338987000000003
0
LINE
8
BLACK
6
CONTINUOUS
10
207.7816789999999969
20
-84.338987000000003
11
207.7802379999999971
21
-84.3243549999999971
0
LINE
8
BLACK
6
CONTINUOUS
10
207.7802379999999971
20
-84.3243549999999971
11
207.7802379999999971
21
-84.1612599999999986
0
LINE
8
BLACK
6
CONTINUOUS
10
207.7802379999999971
20
-84.1612599999999986
11
207.3491339999999923
21
-84.1612599999999986
0
LINE
8
BLACK
6
CONTINUOUS
10
207.3491339999999923
20
-84.1612599999999986
11
207.2920919999999967
21
-84.1897799999999989
0
LINE
8
BLACK
6
CONTINUOUS
10
207.2920919999999967
20
-84.1897799999999989
11
207.2635709999999847
21
-84.246822999999992
0
LINE
8
BLACK
6
CONTINUOUS
10
207.2635709999999847
20
-84.246822999999992
11
207.2635709999999847
21
-84.3243549999999971
0
LINE
8
BLACK
6
CONTINUOUS
10
207.2635709999999847
20
-84.3243549999999971
11
207.2621299999999849
21
-84.338987000000003
0
LINE
8
BLACK
6
CONTINUOUS
10
207.2621299999999849
20
-84.338987000000003
11
207.25093099999998
21
-84.3660229999999984
0
LINE
8
BLACK
6
CONTINUOUS
10
207.25093099999998
20
-84.3660229999999984
11
207.2302389999999832
21
-84.3867149999999953
0
LINE
8
BLACK
6
CONTINUOUS
10
207.2302389999999832
20
-84.3867149999999953
11
207.203203000000002
21
-84.3979140000000001
0
LINE
8
BLACK
6
CONTINUOUS
10
207.203203000000002
20
-84.3979140000000001
11
207.1739389999999901
21
-84.3979140000000001
0
LINE
8
BLACK
6
CONTINUOUS
10
207.1739389999999901
20
-84.3979140000000001
11
207.1469029999999805
21
-84.3867149999999953
0
LINE
8
BLACK
6
CONTINUOUS
10
207.1469029999999805
20
-84.3867149999999953
11
207.1262109999999836
21
-84.3660229999999984
0
LINE
8
BLACK
6
CONTINUOUS
10
207.1262109999999836
20
-84.3660229999999984
11
207.1150119999999788
21
-84.338987000000003
0
LINE
8
BLACK
6
CONTINUOUS
10
207.1150119999999788
20
-84.338987000000003
11
207.113570999999979
21
-84.3243549999999971
0
LINE
8
BLACK
6
CONTINUOUS
10
207.113570999999979
20
-84.3243549999999971
11
207.113570999999979
21
-84.2291170000000022
0
LINE
8
BLACK
6
CONTINUOUS
10
207.113570999999979
20
-84.2291170000000022
11
207.1150119999999788
21
-84.2144849999999963
0
LINE
8
BLACK
6
CONTINUOUS
10
207.1150119999999788
20
-84.2144849999999963
11
207.1160419999999931
21
-84.2119959999999992
0
LINE
8
BLACK
6
CONTINUOUS
10
207.1160419999999931
20
-84.2119959999999992
11
207.1162339999999915
21
-84.2093069999999955
0
LINE
8
BLACK
6
CONTINUOUS
10
207.1162339999999915
20
-84.2093069999999955
11
207.1214889999999968
21
-84.195574999999991
0
LINE
8
BLACK
6
CONTINUOUS
10
207.1214889999999968
20
-84.195574999999991
11
207.1691089999999917
21
-84.1003369999999961
0
LINE
8
BLACK
6
CONTINUOUS
10
207.1691089999999917
20
-84.1003369999999961
11
207.1706489999999974
21
-84.097888999999995
0
LINE
8
BLACK
6
CONTINUOUS
10
207.1706489999999974
20
-84.097888999999995
11
207.1710339999999917
21
-84.0967369999999903
0
LINE
8
BLACK
6
CONTINUOUS
10
207.1710339999999917
20
-84.0967369999999903
11
207.1722779999999773
21
-84.0953009999999921
0
LINE
8
BLACK
6
CONTINUOUS
10
207.1722779999999773
20
-84.0953009999999921
11
207.1769419999999968
21
-84.0878939999999915
0
LINE
8
BLACK
6
CONTINUOUS
10
207.1769419999999968
20
-84.0878939999999915
11
207.184045999999995
21
-84.0817329999999998
0
LINE
8
BLACK
6
CONTINUOUS
10
207.184045999999995
20
-84.0817329999999998
11
207.1902069999999867
21
-84.0746290000000016
0
LINE
8
BLACK
6
CONTINUOUS
10
207.1902069999999867
20
-84.0746290000000016
11
207.1976119999999923
21
-84.0699680000000029
0
LINE
8
BLACK
6
CONTINUOUS
10
207.1976119999999923
20
-84.0699680000000029
11
207.1990499999999997
21
-84.0687209999999965
0
LINE
8
BLACK
6
CONTINUOUS
10
207.1990499999999997
20
-84.0687209999999965
11
207.2002039999999852
21
-84.0683360000000022
0
LINE
8
BLACK
6
CONTINUOUS
10
207.2002039999999852
20
-84.0683360000000022
11
207.2026499999999771
21
-84.066796999999994
0
LINE
8
BLACK
6
CONTINUOUS
10
207.2026499999999771
20
-84.066796999999994
11
207.2978880000000004
21
-84.0191779999999966
0
LINE
8
BLACK
6
CONTINUOUS
10
207.2978880000000004
20
-84.0191779999999966
11
207.311618999999979
21
-84.0139229999999912
0
LINE
8
BLACK
6
CONTINUOUS
10
207.311618999999979
20
-84.0139229999999912
11
207.3143079999999827
21
-84.0137309999999928
0
LINE
8
BLACK
6
CONTINUOUS
10
207.3143079999999827
20
-84.0137309999999928
11
207.3167969999999798
21
-84.0127009999999927
0
LINE
8
BLACK
6
CONTINUOUS
10
207.3167969999999798
20
-84.0127009999999927
11
207.3314289999999858
21
-84.0112599999999929
0
LINE
8
BLACK
6
CONTINUOUS
10
207.3314289999999858
20
-84.0112599999999929
11
207.7802379999999971
21
-84.0112599999999929
0
LINE
8
BLACK
6
CONTINUOUS
10
207.7802379999999971
20
-84.0112599999999929
11
207.7802379999999971
21
-83.9434029999999893
0
LINE
8
BLACK
6
CONTINUOUS
10
207.7802379999999971
20
-83.9434029999999893
11
207.7816789999999969
21
-83.9287709999999976
0
LINE
8
BLACK
6
CONTINUOUS
10
207.7816789999999969
20
-83.9287709999999976
11
207.7928780000000017
21
-83.9017350000000022
0
LINE
8
BLACK
6
CONTINUOUS
10
207.7928780000000017
20
-83.9017350000000022
11
207.8135699999999986
21
-83.8810429999999911
0
LINE
8
BLACK
6
CONTINUOUS
10
207.8135699999999986
20
-83.8810429999999911
11
207.8406059999999798
21
-83.8698440000000005
0
LINE
8
BLACK
6
CONTINUOUS
10
207.8406059999999798
20
-83.8698440000000005
11
207.8698699999999917
21
-83.8698440000000005
0
LINE
8
BLACK
6
CONTINUOUS
10
207.8698699999999917
20
-83.8698440000000005
11
207.8969060000000013
21
-83.8810429999999911
0
LINE
8
BLACK
6
CONTINUOUS
10
206.4176080000000013
20
-80.4352820000000008
11
206.4295689999999865
21
-80.4506939999999986
0
LINE
8
BLACK
6
CONTINUOUS
10
206.4295689999999865
20
-80.4506939999999986
11
206.473559999999992
21
-80.5386759999999953
0
LINE
8
BLACK
6
CONTINUOUS
10
206.473559999999992
20
-80.5386759999999953
11
206.5595559999999864
21
-80.6246719999999897
0
LINE
8
BLACK
6
CONTINUOUS
10
206.5595559999999864
20
-80.6246719999999897
11
206.6982969999999966
21
-80.7171670000000034
0
LINE
8
BLACK
6
CONTINUOUS
10
206.6982969999999966
20
-80.7171670000000034
11
206.7121059999999773
21
-80.7309470000000005
0
LINE
8
BLACK
6
CONTINUOUS
10
206.7121059999999773
20
-80.7309470000000005
11
206.7131149999999877
21
-80.7359939999999909
0
LINE
8
BLACK
6
CONTINUOUS
10
206.7131149999999877
20
-80.7359939999999909
11
206.7167560000000037
21
-80.7396349999999927
0
LINE
8
BLACK
6
CONTINUOUS
10
206.7167560000000037
20
-80.7396349999999927
11
206.7167560000000037
21
-80.7541939999999983
0
LINE
8
BLACK
6
CONTINUOUS
10
206.7167560000000037
20
-80.7541939999999983
11
206.7196119999999837
21
-80.7684730000000002
0
LINE
8
BLACK
6
CONTINUOUS
10
206.7196119999999837
20
-80.7684730000000002
11
206.7167560000000037
21
-80.7727560000000011
0
LINE
8
BLACK
6
CONTINUOUS
10
206.7167560000000037
20
-80.7727560000000011
11
206.7167560000000037
21
-80.7779029999999949
0
LINE
8
BLACK
6
CONTINUOUS
10
206.7167560000000037
20
-80.7779029999999949
11
206.7064609999999902
21
-80.7881969999999967
0
LINE
8
BLACK
6
CONTINUOUS
10
206.7064609999999902
20
-80.7881969999999967
11
206.6983840000000043
21
-80.8003130000000027
0
LINE
8
BLACK
6
CONTINUOUS
10
206.6983840000000043
20
-80.8003130000000027
11
206.693335999999988
21
-80.801321999999999
0
LINE
8
BLACK
6
CONTINUOUS
10
206.693335999999988
20
-80.801321999999999
11
206.6896959999999979
21
-80.8049630000000008
0
LINE
8
BLACK
6
CONTINUOUS
10
206.6896959999999979
20
-80.8049630000000008
11
206.6705619999999897
21
-80.8087689999999981
0
LINE
8
BLACK
6
CONTINUOUS
10
206.6705619999999897
20
-80.8087689999999981
11
205.720562000000001
21
-80.8087689999999981
0
LINE
8
BLACK
6
CONTINUOUS
10
205.720562000000001
20
-80.8087689999999981
11
205.720562000000001
21
-81.0444829999999996
0
LINE
8
BLACK
6
CONTINUOUS
10
205.720562000000001
20
-81.0444829999999996
11
205.7167560000000037
21
-81.0636169999999936
0
LINE
8
BLACK
6
CONTINUOUS
10
205.7167560000000037
20
-81.0636169999999936
11
205.6896959999999979
21
-81.0906769999999995
0
LINE
8
BLACK
6
CONTINUOUS
10
205.6896959999999979
20
-81.0906769999999995
11
205.6514279999999815
21
-81.0906769999999995
0
LINE
8
BLACK
6
CONTINUOUS
10
205.6514279999999815
20
-81.0906769999999995
11
205.624368000000004
21
-81.0636169999999936
0
LINE
8
BLACK
6
CONTINUOUS
10
205.624368000000004
20
-81.0636169999999936
11
205.6205619999999783
21
-81.0444829999999996
0
LINE
8
BLACK
6
CONTINUOUS
10
205.6205619999999783
20
-81.0444829999999996
11
205.6205619999999783
21
-80.4730550000000022
0
LINE
8
BLACK
6
CONTINUOUS
10
205.6205619999999783
20
-80.4730550000000022
11
205.624368000000004
21
-80.453920999999994
0
LINE
8
BLACK
6
CONTINUOUS
10
205.624368000000004
20
-80.453920999999994
11
205.6514279999999815
21
-80.4268610000000024
0
LINE
8
BLACK
6
CONTINUOUS
10
205.6514279999999815
20
-80.4268610000000024
11
205.6896959999999979
21
-80.4268610000000024
0
LINE
8
BLACK
6
CONTINUOUS
10
205.6896959999999979
20
-80.4268610000000024
11
205.7167560000000037
21
-80.453920999999994
0
LINE
8
BLACK
6
CONTINUOUS
10
205.7167560000000037
20
-80.453920999999994
11
205.720562000000001
21
-80.4730550000000022
0
LINE
8
BLACK
6
CONTINUOUS
10
205.720562000000001
20
-80.4730550000000022
11
205.720562000000001
21
-80.7087689999999895
0
LINE
8
BLACK
6
CONTINUOUS
10
205.720562000000001
20
-80.7087689999999895
11
206.5054229999999791
21
-80.7087689999999895
0
LINE
8
BLACK
6
CONTINUOUS
10
206.5054229999999791
20
-80.7087689999999895
11
206.4999699999999905
21
-80.705134000000001
0
LINE
8
BLACK
6
CONTINUOUS
10
206.4999699999999905
20
-80.705134000000001
11
206.4964629999999772
21
-80.7016339999999985
0
LINE
8
BLACK
6
CONTINUOUS
10
206.4964629999999772
20
-80.7016339999999985
11
206.4923499999999876
21
-80.6988860000000017
0
LINE
8
BLACK
6
CONTINUOUS
10
206.4923499999999876
20
-80.6988860000000017
11
206.3971119999999928
21
-80.6036479999999926
0
LINE
8
BLACK
6
CONTINUOUS
10
206.3971119999999928
20
-80.6036479999999926
11
206.392659999999978
21
-80.5969860000000011
0
LINE
8
BLACK
6
CONTINUOUS
10
206.392659999999978
20
-80.5969860000000011
11
206.3877449999999953
21
-80.5906530000000032
0
LINE
8
BLACK
6
CONTINUOUS
10
206.3877449999999953
20
-80.5906530000000032
11
206.3401269999999954
21
-80.4954159999999916
0
LINE
8
BLACK
6
CONTINUOUS
10
206.3401269999999954
20
-80.4954159999999916
11
206.3349739999999883
21
-80.4765999999999906
0
LINE
8
BLACK
6
CONTINUOUS
10
206.3349739999999883
20
-80.4765999999999906
11
206.3470749999999896
21
-80.4402949999999919
0
LINE
8
BLACK
6
CONTINUOUS
10
206.3470749999999896
20
-80.4402949999999919
11
206.3813030000000026
21
-80.4231809999999996
0
LINE
8
BLACK
6
CONTINUOUS
10
206.3813030000000026
20
-80.4231809999999996
11
206.4176080000000013
21
-80.4352820000000008
0
LINE
8
BLACK
6
CONTINUOUS
10
210.0578999999999894
20
-77.3094710000000021
11
210.0939479999999833
21
-77.3244029999999896
0
LINE
8
BLACK
6
CONTINUOUS
10
210.0939479999999833
20
-77.3244029999999896
11
210.1215379999999868
21
-77.3519929999999931
0
LINE
8
BLACK
6
CONTINUOUS
10
210.1215379999999868
20
-77.3519929999999931
11
210.1364700000000028
21
-77.3880410000000012
0
LINE
8
BLACK
6
CONTINUOUS
10
210.1364700000000028
20
-77.3880410000000012
11
210.1383909999999844
21
-77.4075500000000005
0
LINE
8
BLACK
6
CONTINUOUS
10
210.1383909999999844
20
-77.4075500000000005
11
210.1383909999999844
21
-81.8030009999999947
0
LINE
8
BLACK
6
CONTINUOUS
10
210.1383909999999844
20
-81.8030009999999947
11
210.5024399999999787
21
-81.8030009999999947
0
LINE
8
BLACK
6
CONTINUOUS
10
210.5024399999999787
20
-81.8030009999999947
11
210.5272159999999815
21
-81.8054410000000018
0
LINE
8
BLACK
6
CONTINUOUS
10
210.5272159999999815
20
-81.8054410000000018
11
210.5729969999999867
21
-81.8244040000000012
0
LINE
8
BLACK
6
CONTINUOUS
10
210.5729969999999867
20
-81.8244040000000012
11
210.6080369999999959
21
-81.8594439999999963
0
LINE
8
BLACK
6
CONTINUOUS
10
210.6080369999999959
20
-81.8594439999999963
11
210.6269999999999811
21
-81.9052250000000015
0
LINE
8
BLACK
6
CONTINUOUS
10
210.6269999999999811
20
-81.9052250000000015
11
210.6294399999999882
21
-81.9300009999999901
0
LINE
8
BLACK
6
CONTINUOUS
10
210.6294399999999882
20
-81.9300009999999901
11
210.6294399999999882
21
-81.9799909999999983
0
LINE
8
BLACK
6
CONTINUOUS
10
210.6294399999999882
20
-81.9799909999999983
11
210.6294399999999882
21
-90.9299809999999979
0
LINE
8
BLACK
6
CONTINUOUS
10
210.6294399999999882
20
-90.9299809999999979
11
210.6269999999999811
21
-90.9547570000000007
0
LINE
8
BLACK
6
CONTINUOUS
10
210.6269999999999811
20
-90.9547570000000007
11
210.6080369999999959
21
-91.0005379999999917
0
LINE
8
BLACK
6
CONTINUOUS
10
210.6080369999999959
20
-91.0005379999999917
11
210.5729969999999867
21
-91.035578000000001
0
LINE
8
BLACK
6
CONTINUOUS
10
210.5729969999999867
20
-91.035578000000001
11
210.5272159999999815
21
-91.0545410000000004
0
LINE
8
BLACK
6
CONTINUOUS
10
210.5272159999999815
20
-91.0545410000000004
11
210.5024399999999787
21
-91.0569809999999933
0
LINE
8
BLACK
6
CONTINUOUS
10
210.5024399999999787
20
-91.0569809999999933
11
210.1383909999999844
21
-91.0569809999999933
0
LINE
8
BLACK
6
CONTINUOUS
10
210.1383909999999844
20
-91.0569809999999933
11
210.1383909999999844
21
-95.4524509999999964
0
LINE
8
BLACK
6
CONTINUOUS
10
210.1383909999999844
20
-95.4524509999999964
11
210.1364700000000028
21
-95.4719599999999957
0
LINE
8
BLACK
6
CONTINUOUS
10
210.1364700000000028
20
-95.4719599999999957
11
210.1215379999999868
21
-95.5080079999999896
0
LINE
8
BLACK
6
CONTINUOUS
10
210.1215379999999868
20
-95.5080079999999896
11
210.0939479999999833
21
-95.5355979999999931
0
LINE
8
BLACK
6
CONTINUOUS
10
210.0939479999999833
20
-95.5355979999999931
11
210.0578999999999894
21
-95.5505299999999949
0
LINE
8
BLACK
6
CONTINUOUS
10
210.0578999999999894
20
-95.5505299999999949
11
210.0383909999999901
21
-95.5524509999999907
0
LINE
8
BLACK
6
CONTINUOUS
10
210.0383909999999901
20
-95.5524509999999907
11
176.7000099999999918
21
-95.5524509999999907
0
LINE
8
BLACK
6
CONTINUOUS
10
176.7000099999999918
20
-95.5524509999999907
11
176.6805009999999925
21
-95.5505299999999949
0
LINE
8
BLACK
6
CONTINUOUS
10
176.6805009999999925
20
-95.5505299999999949
11
176.6444529999999986
21
-95.5355979999999931
0
LINE
8
BLACK
6
CONTINUOUS
10
176.6444529999999986
20
-95.5355979999999931
11
176.6168629999999951
21
-95.5080079999999896
0
LINE
8
BLACK
6
CONTINUOUS
10
176.6168629999999951
20
-95.5080079999999896
11
176.6019309999999791
21
-95.4719599999999957
0
LINE
8
BLACK
6
CONTINUOUS
10
176.6019309999999791
20
-95.4719599999999957
11
176.6000099999999975
21
-95.4524509999999964
0
LINE
8
BLACK
6
CONTINUOUS
10
176.6000099999999975
20
-95.4524509999999964
11
176.6000099999999975
21
-77.4075500000000005
0
LINE
8
BLACK
6
CONTINUOUS
10
176.6000099999999975
20
-77.4075500000000005
11
176.6019309999999791
21
-77.3880410000000012
0
LINE
8
BLACK
6
CONTINUOUS
10
176.6019309999999791
20
-77.3880410000000012
11
176.6168629999999951
21
-77.3519929999999931
0
LINE
8
BLACK
6
CONTINUOUS
10
176.6168629999999951
20
-77.3519929999999931
11
176.6444529999999986
21
-77.3244029999999896
0
LINE
8
BLACK
6
CONTINUOUS
10
176.6444529999999986
20
-77.3244029999999896
11
176.6805009999999925
21
-77.3094710000000021
0
LINE
8
BLACK
6
CONTINUOUS
10
176.6805009999999925
20
-77.3094710000000021
11
176.7000099999999918
21
-77.307549999999992
0
LINE
8
BLACK
6
CONTINUOUS
10
176.7000099999999918
20
-77.307549999999992
11
210.0383909999999901
21
-77.307549999999992
0
LINE
8
BLACK
6
CONTINUOUS
10
210.0383909999999901
20
-77.307549999999992
11
210.0578999999999894
21
-77.3094710000000021
0
LINE
8
BLACK
6
CONTINUOUS
10
176.8000099999999861
20
-77.5075499999999948
11
176.8000099999999861
21
-95.3524510000000021
0
LINE
8
BLACK
6
CONTINUOUS
10
176.8000099999999861
20
-95.3524510000000021
11
209.9383909999999958
21
-95.3524510000000021
0
LINE
8
BLACK
6
CONTINUOUS
10
209.9383909999999958
20
-95.3524510000000021
11
209.9383909999999958
21
-91.0569809999999933
0
LINE
8
BLACK
6
CONTINUOUS
10
209.9383909999999958
20
-91.0569809999999933
11
204.0024499999999819
21
-91.0569809999999933
0
LINE
8
BLACK
6
CONTINUOUS
10
204.0024499999999819
20
-91.0569809999999933
11
203.9776739999999791
21
-91.0545410000000004
0
LINE
8
BLACK
6
CONTINUOUS
10
203.9776739999999791
20
-91.0545410000000004
11
203.9318930000000023
21
-91.035578000000001
0
LINE
8
BLACK
6
CONTINUOUS
10
203.9318930000000023
20
-91.035578000000001
11
203.896852999999993
21
-91.0005379999999917
0
LINE
8
BLACK
6
CONTINUOUS
10
203.896852999999993
20
-91.0005379999999917
11
203.8778899999999794
21
-90.9547570000000007
0
LINE
8
BLACK
6
CONTINUOUS
10
203.8778899999999794
20
-90.9547570000000007
11
203.8754500000000007
21
-90.9299809999999979
0
LINE
8
BLACK
6
CONTINUOUS
10
203.8754500000000007
20
-90.9299809999999979
11
203.8754500000000007
21
-90.17118099999999
0
LINE
8
BLACK
6
CONTINUOUS
10
203.8754500000000007
20
-90.17118099999999
11
203.8778899999999794
21
-90.1464050000000015
0
LINE
8
BLACK
6
CONTINUOUS
10
203.8778899999999794
20
-90.1464050000000015
11
203.896852999999993
21
-90.1006239999999963
0
LINE
8
BLACK
6
CONTINUOUS
10
203.896852999999993
20
-90.1006239999999963
11
203.9318930000000023
21
-90.0655840000000012
0
LINE
8
BLACK
6
CONTINUOUS
10
203.9318930000000023
20
-90.0655840000000012
11
203.9776739999999791
21
-90.0466210000000018
0
LINE
8
BLACK
6
CONTINUOUS
10
203.9776739999999791
20
-90.0466210000000018
11
204.0272259999999847
21
-90.0466210000000018
0
LINE
8
BLACK
6
CONTINUOUS
10
204.0272259999999847
20
-90.0466210000000018
11
204.0730069999999898
21
-90.0655840000000012
0
LINE
8
BLACK
6
CONTINUOUS
10
204.0730069999999898
20
-90.0655840000000012
11
204.1080469999999991
21
-90.1006239999999963
0
LINE
8
BLACK
6
CONTINUOUS
10
204.1080469999999991
20
-90.1006239999999963
11
204.1270099999999843
21
-90.1464050000000015
0
LINE
8
BLACK
6
CONTINUOUS
10
204.1270099999999843
20
-90.1464050000000015
11
204.1294499999999914
21
-90.17118099999999
0
LINE
8
BLACK
6
CONTINUOUS
10
204.1294499999999914
20
-90.17118099999999
11
204.1294499999999914
21
-90.8029810000000026
0
LINE
8
BLACK
6
CONTINUOUS
10
204.1294499999999914
20
-90.8029810000000026
11
209.9383909999999958
21
-90.8029810000000026
0
LINE
8
BLACK
6
CONTINUOUS
10
209.9383909999999958
20
-90.8029810000000026
11
209.9383909999999958
21
-82.0570009999999996
0
LINE
8
BLACK
6
CONTINUOUS
10
209.9383909999999958
20
-82.0570009999999996
11
204.1294499999999914
21
-82.0570009999999996
0
LINE
8
BLACK
6
CONTINUOUS
10
204.1294499999999914
20
-82.0570009999999996
11
204.1294499999999914
21
-82.6344709999999907
0
LINE
8
BLACK
6
CONTINUOUS
10
204.1294499999999914
20
-82.6344709999999907
11
204.1294499999999914
21
-82.6889309999999966
0
LINE
8
BLACK
6
CONTINUOUS
10
204.1294499999999914
20
-82.6889309999999966
11
204.1270099999999843
21
-82.7137069999999994
0
LINE
8
BLACK
6
CONTINUOUS
10
204.1270099999999843
20
-82.7137069999999994
11
204.1080469999999991
21
-82.7594879999999904
0
LINE
8
BLACK
6
CONTINUOUS
10
204.1080469999999991
20
-82.7594879999999904
11
204.0730069999999898
21
-82.7945279999999997
0
LINE
8
BLACK
6
CONTINUOUS
10
204.0730069999999898
20
-82.7945279999999997
11
204.0272259999999847
21
-82.8134909999999991
0
LINE
8
BLACK
6
CONTINUOUS
10
204.0272259999999847
20
-82.8134909999999991
11
203.9776739999999791
21
-82.8134909999999991
0
LINE
8
BLACK
6
CONTINUOUS
10
203.9776739999999791
20
-82.8134909999999991
11
203.9318930000000023
21
-82.7945279999999997
0
LINE
8
BLACK
6
CONTINUOUS
10
203.9318930000000023
20
-82.7945279999999997
11
203.896852999999993
21
-82.7594879999999904
0
LINE
8
BLACK
6
CONTINUOUS
10
203.896852999999993
20
-82.7594879999999904
11
203.8778899999999794
21
-82.7137069999999994
0
LINE
8
BLACK
6
CONTINUOUS
10
203.8778899999999794
20
-82.7137069999999994
11
203.8754500000000007
21
-82.6889309999999966
0
LINE
8
BLACK
6
CONTINUOUS
10
203.8754500000000007
20
-82.6889309999999966
11
203.8754500000000007
21
-82.6344709999999907
0
LINE
8
BLACK
6
CONTINUOUS
10
203.8754500000000007
20
-82.6344709999999907
11
203.8754500000000007
21
-81.9255309999999923
0
LINE
8
BLACK
6
CONTINUOUS
10
203.8754500000000007
20
-81.9255309999999923
11
203.8778899999999794
21
-81.9007549999999895
0
LINE
8
BLACK
6
CONTINUOUS
10
203.8778899999999794
20
-81.9007549999999895
11
203.896852999999993
21
-81.8549739999999986
0
LINE
8
BLACK
6
CONTINUOUS
10
203.896852999999993
20
-81.8549739999999986
11
203.9318930000000023
21
-81.8199339999999893
0
LINE
8
BLACK
6
CONTINUOUS
10
203.9318930000000023
20
-81.8199339999999893
11
203.9776739999999791
21
-81.8009709999999899
0
LINE
8
BLACK
6
CONTINUOUS
10
203.9776739999999791
20
-81.8009709999999899
11
204.0272259999999847
21
-81.8009709999999899
0
LINE
8
BLACK
6
CONTINUOUS
10
204.0272259999999847
20
-81.8009709999999899
11
204.0321270000000027
21
-81.8030009999999947
0
LINE
8
BLACK
6
CONTINUOUS
10
204.0321270000000027
20
-81.8030009999999947
11
209.9383909999999958
21
-81.8030009999999947
0
LINE
8
BLACK
6
CONTINUOUS
10
209.9383909999999958
20
-81.8030009999999947
11
209.9383909999999958
21
-77.5075499999999948
0
LINE
8
BLACK
6
CONTINUOUS
10
209.9383909999999958
20
-77.5075499999999948
11
176.8000099999999861
21
-77.5075499999999948
0
LINE
8
BLACK
6
CONTINUOUS
10
210.1383909999999844
20
-82.0570009999999996
11
210.1383909999999844
21
-90.8029810000000026
0
LINE
8
BLACK
6
CONTINUOUS
10
210.1383909999999844
20
-90.8029810000000026
11
210.3754399999999976
21
-90.8029810000000026
0
LINE
8
BLACK
6
CONTINUOUS
10
210.3754399999999976
20
-90.8029810000000026
11
210.3754399999999976
21
-82.0570009999999996
0
LINE
8
BLACK
6
CONTINUOUS
10
210.3754399999999976
20
-82.0570009999999996
11
210.1383909999999844
21
-82.0570009999999996
  0
ENDSEC
  0
EOF
