%TF.GenerationSoftware,KiCad,Pcbnew,9.0.0*%
%TF.CreationDate,2025-05-10T10:01:21-07:00*%
%TF.ProjectId,c7k-left-hand,63376b2d-6c65-4667-942d-68616e642e6b,rev?*%
%TF.SameCoordinates,Original*%
%TF.FileFunction,Legend,Bot*%
%TF.FilePolarity,Positive*%
%FSLAX46Y46*%
G04 Gerber Fmt 4.6, Leading zero omitted, Abs format (unit mm)*
G04 Created by KiCad (PCBNEW 9.0.0) date 2025-05-10 10:01:21*
%MOMM*%
%LPD*%
G01*
G04 APERTURE LIST*
%ADD10C,0.150000*%
%ADD11C,0.120000*%
G04 APERTURE END LIST*
D10*
X175333332Y-76407200D02*
X175190475Y-76454819D01*
X175190475Y-76454819D02*
X174952380Y-76454819D01*
X174952380Y-76454819D02*
X174857142Y-76407200D01*
X174857142Y-76407200D02*
X174809523Y-76359580D01*
X174809523Y-76359580D02*
X174761904Y-76264342D01*
X174761904Y-76264342D02*
X174761904Y-76169104D01*
X174761904Y-76169104D02*
X174809523Y-76073866D01*
X174809523Y-76073866D02*
X174857142Y-76026247D01*
X174857142Y-76026247D02*
X174952380Y-75978628D01*
X174952380Y-75978628D02*
X175142856Y-75931009D01*
X175142856Y-75931009D02*
X175238094Y-75883390D01*
X175238094Y-75883390D02*
X175285713Y-75835771D01*
X175285713Y-75835771D02*
X175333332Y-75740533D01*
X175333332Y-75740533D02*
X175333332Y-75645295D01*
X175333332Y-75645295D02*
X175285713Y-75550057D01*
X175285713Y-75550057D02*
X175238094Y-75502438D01*
X175238094Y-75502438D02*
X175142856Y-75454819D01*
X175142856Y-75454819D02*
X174904761Y-75454819D01*
X174904761Y-75454819D02*
X174761904Y-75502438D01*
X174428570Y-75454819D02*
X174190475Y-76454819D01*
X174190475Y-76454819D02*
X173999999Y-75740533D01*
X173999999Y-75740533D02*
X173809523Y-76454819D01*
X173809523Y-76454819D02*
X173571428Y-75454819D01*
X172999999Y-75454819D02*
X172904761Y-75454819D01*
X172904761Y-75454819D02*
X172809523Y-75502438D01*
X172809523Y-75502438D02*
X172761904Y-75550057D01*
X172761904Y-75550057D02*
X172714285Y-75645295D01*
X172714285Y-75645295D02*
X172666666Y-75835771D01*
X172666666Y-75835771D02*
X172666666Y-76073866D01*
X172666666Y-76073866D02*
X172714285Y-76264342D01*
X172714285Y-76264342D02*
X172761904Y-76359580D01*
X172761904Y-76359580D02*
X172809523Y-76407200D01*
X172809523Y-76407200D02*
X172904761Y-76454819D01*
X172904761Y-76454819D02*
X172999999Y-76454819D01*
X172999999Y-76454819D02*
X173095237Y-76407200D01*
X173095237Y-76407200D02*
X173142856Y-76359580D01*
X173142856Y-76359580D02*
X173190475Y-76264342D01*
X173190475Y-76264342D02*
X173238094Y-76073866D01*
X173238094Y-76073866D02*
X173238094Y-75835771D01*
X173238094Y-75835771D02*
X173190475Y-75645295D01*
X173190475Y-75645295D02*
X173142856Y-75550057D01*
X173142856Y-75550057D02*
X173095237Y-75502438D01*
X173095237Y-75502438D02*
X172999999Y-75454819D01*
X213333332Y-83957200D02*
X213190475Y-84004819D01*
X213190475Y-84004819D02*
X212952380Y-84004819D01*
X212952380Y-84004819D02*
X212857142Y-83957200D01*
X212857142Y-83957200D02*
X212809523Y-83909580D01*
X212809523Y-83909580D02*
X212761904Y-83814342D01*
X212761904Y-83814342D02*
X212761904Y-83719104D01*
X212761904Y-83719104D02*
X212809523Y-83623866D01*
X212809523Y-83623866D02*
X212857142Y-83576247D01*
X212857142Y-83576247D02*
X212952380Y-83528628D01*
X212952380Y-83528628D02*
X213142856Y-83481009D01*
X213142856Y-83481009D02*
X213238094Y-83433390D01*
X213238094Y-83433390D02*
X213285713Y-83385771D01*
X213285713Y-83385771D02*
X213333332Y-83290533D01*
X213333332Y-83290533D02*
X213333332Y-83195295D01*
X213333332Y-83195295D02*
X213285713Y-83100057D01*
X213285713Y-83100057D02*
X213238094Y-83052438D01*
X213238094Y-83052438D02*
X213142856Y-83004819D01*
X213142856Y-83004819D02*
X212904761Y-83004819D01*
X212904761Y-83004819D02*
X212761904Y-83052438D01*
X212428570Y-83004819D02*
X212190475Y-84004819D01*
X212190475Y-84004819D02*
X211999999Y-83290533D01*
X211999999Y-83290533D02*
X211809523Y-84004819D01*
X211809523Y-84004819D02*
X211571428Y-83004819D01*
X211238094Y-83100057D02*
X211190475Y-83052438D01*
X211190475Y-83052438D02*
X211095237Y-83004819D01*
X211095237Y-83004819D02*
X210857142Y-83004819D01*
X210857142Y-83004819D02*
X210761904Y-83052438D01*
X210761904Y-83052438D02*
X210714285Y-83100057D01*
X210714285Y-83100057D02*
X210666666Y-83195295D01*
X210666666Y-83195295D02*
X210666666Y-83290533D01*
X210666666Y-83290533D02*
X210714285Y-83433390D01*
X210714285Y-83433390D02*
X211285713Y-84004819D01*
X211285713Y-84004819D02*
X210666666Y-84004819D01*
X232333332Y-76307200D02*
X232190475Y-76354819D01*
X232190475Y-76354819D02*
X231952380Y-76354819D01*
X231952380Y-76354819D02*
X231857142Y-76307200D01*
X231857142Y-76307200D02*
X231809523Y-76259580D01*
X231809523Y-76259580D02*
X231761904Y-76164342D01*
X231761904Y-76164342D02*
X231761904Y-76069104D01*
X231761904Y-76069104D02*
X231809523Y-75973866D01*
X231809523Y-75973866D02*
X231857142Y-75926247D01*
X231857142Y-75926247D02*
X231952380Y-75878628D01*
X231952380Y-75878628D02*
X232142856Y-75831009D01*
X232142856Y-75831009D02*
X232238094Y-75783390D01*
X232238094Y-75783390D02*
X232285713Y-75735771D01*
X232285713Y-75735771D02*
X232333332Y-75640533D01*
X232333332Y-75640533D02*
X232333332Y-75545295D01*
X232333332Y-75545295D02*
X232285713Y-75450057D01*
X232285713Y-75450057D02*
X232238094Y-75402438D01*
X232238094Y-75402438D02*
X232142856Y-75354819D01*
X232142856Y-75354819D02*
X231904761Y-75354819D01*
X231904761Y-75354819D02*
X231761904Y-75402438D01*
X231428570Y-75354819D02*
X231190475Y-76354819D01*
X231190475Y-76354819D02*
X230999999Y-75640533D01*
X230999999Y-75640533D02*
X230809523Y-76354819D01*
X230809523Y-76354819D02*
X230571428Y-75354819D01*
X230285713Y-75354819D02*
X229666666Y-75354819D01*
X229666666Y-75354819D02*
X229999999Y-75735771D01*
X229999999Y-75735771D02*
X229857142Y-75735771D01*
X229857142Y-75735771D02*
X229761904Y-75783390D01*
X229761904Y-75783390D02*
X229714285Y-75831009D01*
X229714285Y-75831009D02*
X229666666Y-75926247D01*
X229666666Y-75926247D02*
X229666666Y-76164342D01*
X229666666Y-76164342D02*
X229714285Y-76259580D01*
X229714285Y-76259580D02*
X229761904Y-76307200D01*
X229761904Y-76307200D02*
X229857142Y-76354819D01*
X229857142Y-76354819D02*
X230142856Y-76354819D01*
X230142856Y-76354819D02*
X230238094Y-76307200D01*
X230238094Y-76307200D02*
X230285713Y-76259580D01*
X194333332Y-83957200D02*
X194190475Y-84004819D01*
X194190475Y-84004819D02*
X193952380Y-84004819D01*
X193952380Y-84004819D02*
X193857142Y-83957200D01*
X193857142Y-83957200D02*
X193809523Y-83909580D01*
X193809523Y-83909580D02*
X193761904Y-83814342D01*
X193761904Y-83814342D02*
X193761904Y-83719104D01*
X193761904Y-83719104D02*
X193809523Y-83623866D01*
X193809523Y-83623866D02*
X193857142Y-83576247D01*
X193857142Y-83576247D02*
X193952380Y-83528628D01*
X193952380Y-83528628D02*
X194142856Y-83481009D01*
X194142856Y-83481009D02*
X194238094Y-83433390D01*
X194238094Y-83433390D02*
X194285713Y-83385771D01*
X194285713Y-83385771D02*
X194333332Y-83290533D01*
X194333332Y-83290533D02*
X194333332Y-83195295D01*
X194333332Y-83195295D02*
X194285713Y-83100057D01*
X194285713Y-83100057D02*
X194238094Y-83052438D01*
X194238094Y-83052438D02*
X194142856Y-83004819D01*
X194142856Y-83004819D02*
X193904761Y-83004819D01*
X193904761Y-83004819D02*
X193761904Y-83052438D01*
X193428570Y-83004819D02*
X193190475Y-84004819D01*
X193190475Y-84004819D02*
X192999999Y-83290533D01*
X192999999Y-83290533D02*
X192809523Y-84004819D01*
X192809523Y-84004819D02*
X192571428Y-83004819D01*
X191666666Y-84004819D02*
X192238094Y-84004819D01*
X191952380Y-84004819D02*
X191952380Y-83004819D01*
X191952380Y-83004819D02*
X192047618Y-83147676D01*
X192047618Y-83147676D02*
X192142856Y-83242914D01*
X192142856Y-83242914D02*
X192238094Y-83290533D01*
X182954819Y-98266666D02*
X183669104Y-98266666D01*
X183669104Y-98266666D02*
X183811961Y-98219047D01*
X183811961Y-98219047D02*
X183907200Y-98123809D01*
X183907200Y-98123809D02*
X183954819Y-97980952D01*
X183954819Y-97980952D02*
X183954819Y-97885714D01*
X183954819Y-98742857D02*
X182954819Y-98742857D01*
X182954819Y-98742857D02*
X182954819Y-99123809D01*
X182954819Y-99123809D02*
X183002438Y-99219047D01*
X183002438Y-99219047D02*
X183050057Y-99266666D01*
X183050057Y-99266666D02*
X183145295Y-99314285D01*
X183145295Y-99314285D02*
X183288152Y-99314285D01*
X183288152Y-99314285D02*
X183383390Y-99266666D01*
X183383390Y-99266666D02*
X183431009Y-99219047D01*
X183431009Y-99219047D02*
X183478628Y-99123809D01*
X183478628Y-99123809D02*
X183478628Y-98742857D01*
X183954819Y-100266666D02*
X183954819Y-99695238D01*
X183954819Y-99980952D02*
X182954819Y-99980952D01*
X182954819Y-99980952D02*
X183097676Y-99885714D01*
X183097676Y-99885714D02*
X183192914Y-99790476D01*
X183192914Y-99790476D02*
X183240533Y-99695238D01*
X173454819Y-101033333D02*
X172978628Y-100700000D01*
X173454819Y-100461905D02*
X172454819Y-100461905D01*
X172454819Y-100461905D02*
X172454819Y-100842857D01*
X172454819Y-100842857D02*
X172502438Y-100938095D01*
X172502438Y-100938095D02*
X172550057Y-100985714D01*
X172550057Y-100985714D02*
X172645295Y-101033333D01*
X172645295Y-101033333D02*
X172788152Y-101033333D01*
X172788152Y-101033333D02*
X172883390Y-100985714D01*
X172883390Y-100985714D02*
X172931009Y-100938095D01*
X172931009Y-100938095D02*
X172978628Y-100842857D01*
X172978628Y-100842857D02*
X172978628Y-100461905D01*
X173454819Y-101985714D02*
X173454819Y-101414286D01*
X173454819Y-101700000D02*
X172454819Y-101700000D01*
X172454819Y-101700000D02*
X172597676Y-101604762D01*
X172597676Y-101604762D02*
X172692914Y-101509524D01*
X172692914Y-101509524D02*
X172740533Y-101414286D01*
X174661904Y-85929819D02*
X174661904Y-86739342D01*
X174661904Y-86739342D02*
X174614285Y-86834580D01*
X174614285Y-86834580D02*
X174566666Y-86882200D01*
X174566666Y-86882200D02*
X174471428Y-86929819D01*
X174471428Y-86929819D02*
X174280952Y-86929819D01*
X174280952Y-86929819D02*
X174185714Y-86882200D01*
X174185714Y-86882200D02*
X174138095Y-86834580D01*
X174138095Y-86834580D02*
X174090476Y-86739342D01*
X174090476Y-86739342D02*
X174090476Y-85929819D01*
X173090476Y-86929819D02*
X173661904Y-86929819D01*
X173376190Y-86929819D02*
X173376190Y-85929819D01*
X173376190Y-85929819D02*
X173471428Y-86072676D01*
X173471428Y-86072676D02*
X173566666Y-86167914D01*
X173566666Y-86167914D02*
X173661904Y-86215533D01*
X188554819Y-98933333D02*
X188078628Y-98600000D01*
X188554819Y-98361905D02*
X187554819Y-98361905D01*
X187554819Y-98361905D02*
X187554819Y-98742857D01*
X187554819Y-98742857D02*
X187602438Y-98838095D01*
X187602438Y-98838095D02*
X187650057Y-98885714D01*
X187650057Y-98885714D02*
X187745295Y-98933333D01*
X187745295Y-98933333D02*
X187888152Y-98933333D01*
X187888152Y-98933333D02*
X187983390Y-98885714D01*
X187983390Y-98885714D02*
X188031009Y-98838095D01*
X188031009Y-98838095D02*
X188078628Y-98742857D01*
X188078628Y-98742857D02*
X188078628Y-98361905D01*
X187554819Y-99266667D02*
X187554819Y-99885714D01*
X187554819Y-99885714D02*
X187935771Y-99552381D01*
X187935771Y-99552381D02*
X187935771Y-99695238D01*
X187935771Y-99695238D02*
X187983390Y-99790476D01*
X187983390Y-99790476D02*
X188031009Y-99838095D01*
X188031009Y-99838095D02*
X188126247Y-99885714D01*
X188126247Y-99885714D02*
X188364342Y-99885714D01*
X188364342Y-99885714D02*
X188459580Y-99838095D01*
X188459580Y-99838095D02*
X188507200Y-99790476D01*
X188507200Y-99790476D02*
X188554819Y-99695238D01*
X188554819Y-99695238D02*
X188554819Y-99409524D01*
X188554819Y-99409524D02*
X188507200Y-99314286D01*
X188507200Y-99314286D02*
X188459580Y-99266667D01*
X176554819Y-100933333D02*
X176078628Y-100600000D01*
X176554819Y-100361905D02*
X175554819Y-100361905D01*
X175554819Y-100361905D02*
X175554819Y-100742857D01*
X175554819Y-100742857D02*
X175602438Y-100838095D01*
X175602438Y-100838095D02*
X175650057Y-100885714D01*
X175650057Y-100885714D02*
X175745295Y-100933333D01*
X175745295Y-100933333D02*
X175888152Y-100933333D01*
X175888152Y-100933333D02*
X175983390Y-100885714D01*
X175983390Y-100885714D02*
X176031009Y-100838095D01*
X176031009Y-100838095D02*
X176078628Y-100742857D01*
X176078628Y-100742857D02*
X176078628Y-100361905D01*
X175888152Y-101790476D02*
X176554819Y-101790476D01*
X175507200Y-101552381D02*
X176221485Y-101314286D01*
X176221485Y-101314286D02*
X176221485Y-101933333D01*
X169554819Y-72433333D02*
X169078628Y-72100000D01*
X169554819Y-71861905D02*
X168554819Y-71861905D01*
X168554819Y-71861905D02*
X168554819Y-72242857D01*
X168554819Y-72242857D02*
X168602438Y-72338095D01*
X168602438Y-72338095D02*
X168650057Y-72385714D01*
X168650057Y-72385714D02*
X168745295Y-72433333D01*
X168745295Y-72433333D02*
X168888152Y-72433333D01*
X168888152Y-72433333D02*
X168983390Y-72385714D01*
X168983390Y-72385714D02*
X169031009Y-72338095D01*
X169031009Y-72338095D02*
X169078628Y-72242857D01*
X169078628Y-72242857D02*
X169078628Y-71861905D01*
X168554819Y-73290476D02*
X168554819Y-73100000D01*
X168554819Y-73100000D02*
X168602438Y-73004762D01*
X168602438Y-73004762D02*
X168650057Y-72957143D01*
X168650057Y-72957143D02*
X168792914Y-72861905D01*
X168792914Y-72861905D02*
X168983390Y-72814286D01*
X168983390Y-72814286D02*
X169364342Y-72814286D01*
X169364342Y-72814286D02*
X169459580Y-72861905D01*
X169459580Y-72861905D02*
X169507200Y-72909524D01*
X169507200Y-72909524D02*
X169554819Y-73004762D01*
X169554819Y-73004762D02*
X169554819Y-73195238D01*
X169554819Y-73195238D02*
X169507200Y-73290476D01*
X169507200Y-73290476D02*
X169459580Y-73338095D01*
X169459580Y-73338095D02*
X169364342Y-73385714D01*
X169364342Y-73385714D02*
X169126247Y-73385714D01*
X169126247Y-73385714D02*
X169031009Y-73338095D01*
X169031009Y-73338095D02*
X168983390Y-73290476D01*
X168983390Y-73290476D02*
X168935771Y-73195238D01*
X168935771Y-73195238D02*
X168935771Y-73004762D01*
X168935771Y-73004762D02*
X168983390Y-72909524D01*
X168983390Y-72909524D02*
X169031009Y-72861905D01*
X169031009Y-72861905D02*
X169126247Y-72814286D01*
X184033333Y-85974819D02*
X184033333Y-86689104D01*
X184033333Y-86689104D02*
X184080952Y-86831961D01*
X184080952Y-86831961D02*
X184176190Y-86927200D01*
X184176190Y-86927200D02*
X184319047Y-86974819D01*
X184319047Y-86974819D02*
X184414285Y-86974819D01*
X183033333Y-86974819D02*
X183604761Y-86974819D01*
X183319047Y-86974819D02*
X183319047Y-85974819D01*
X183319047Y-85974819D02*
X183414285Y-86117676D01*
X183414285Y-86117676D02*
X183509523Y-86212914D01*
X183509523Y-86212914D02*
X183604761Y-86260533D01*
X194654819Y-98833333D02*
X194178628Y-98500000D01*
X194654819Y-98261905D02*
X193654819Y-98261905D01*
X193654819Y-98261905D02*
X193654819Y-98642857D01*
X193654819Y-98642857D02*
X193702438Y-98738095D01*
X193702438Y-98738095D02*
X193750057Y-98785714D01*
X193750057Y-98785714D02*
X193845295Y-98833333D01*
X193845295Y-98833333D02*
X193988152Y-98833333D01*
X193988152Y-98833333D02*
X194083390Y-98785714D01*
X194083390Y-98785714D02*
X194131009Y-98738095D01*
X194131009Y-98738095D02*
X194178628Y-98642857D01*
X194178628Y-98642857D02*
X194178628Y-98261905D01*
X193654819Y-99738095D02*
X193654819Y-99261905D01*
X193654819Y-99261905D02*
X194131009Y-99214286D01*
X194131009Y-99214286D02*
X194083390Y-99261905D01*
X194083390Y-99261905D02*
X194035771Y-99357143D01*
X194035771Y-99357143D02*
X194035771Y-99595238D01*
X194035771Y-99595238D02*
X194083390Y-99690476D01*
X194083390Y-99690476D02*
X194131009Y-99738095D01*
X194131009Y-99738095D02*
X194226247Y-99785714D01*
X194226247Y-99785714D02*
X194464342Y-99785714D01*
X194464342Y-99785714D02*
X194559580Y-99738095D01*
X194559580Y-99738095D02*
X194607200Y-99690476D01*
X194607200Y-99690476D02*
X194654819Y-99595238D01*
X194654819Y-99595238D02*
X194654819Y-99357143D01*
X194654819Y-99357143D02*
X194607200Y-99261905D01*
X194607200Y-99261905D02*
X194559580Y-99214286D01*
X170354819Y-100933333D02*
X169878628Y-100600000D01*
X170354819Y-100361905D02*
X169354819Y-100361905D01*
X169354819Y-100361905D02*
X169354819Y-100742857D01*
X169354819Y-100742857D02*
X169402438Y-100838095D01*
X169402438Y-100838095D02*
X169450057Y-100885714D01*
X169450057Y-100885714D02*
X169545295Y-100933333D01*
X169545295Y-100933333D02*
X169688152Y-100933333D01*
X169688152Y-100933333D02*
X169783390Y-100885714D01*
X169783390Y-100885714D02*
X169831009Y-100838095D01*
X169831009Y-100838095D02*
X169878628Y-100742857D01*
X169878628Y-100742857D02*
X169878628Y-100361905D01*
X169450057Y-101314286D02*
X169402438Y-101361905D01*
X169402438Y-101361905D02*
X169354819Y-101457143D01*
X169354819Y-101457143D02*
X169354819Y-101695238D01*
X169354819Y-101695238D02*
X169402438Y-101790476D01*
X169402438Y-101790476D02*
X169450057Y-101838095D01*
X169450057Y-101838095D02*
X169545295Y-101885714D01*
X169545295Y-101885714D02*
X169640533Y-101885714D01*
X169640533Y-101885714D02*
X169783390Y-101838095D01*
X169783390Y-101838095D02*
X170354819Y-101266667D01*
X170354819Y-101266667D02*
X170354819Y-101885714D01*
%TO.C,SW0*%
X181000000Y-85700000D02*
X180500000Y-86200000D01*
X181000000Y-82200000D02*
X180500000Y-81700000D01*
X180500000Y-86200000D02*
X177500000Y-86200000D01*
X180500000Y-81700000D02*
X178000000Y-81700000D01*
X177500000Y-86200000D02*
X177000000Y-85700000D01*
X177000000Y-84700000D02*
X177000000Y-85700000D01*
X176500000Y-80200000D02*
X176500000Y-79500000D01*
X176500000Y-79500000D02*
X172000000Y-79500000D01*
X172000000Y-84200000D02*
X176500000Y-84200000D01*
X172000000Y-83600000D02*
X172000000Y-84200000D01*
X172000000Y-79500000D02*
X172000000Y-80000000D01*
X178000000Y-81700000D02*
G75*
G02*
X176500000Y-80200000I1J1500001D01*
G01*
X176500000Y-84200000D02*
G75*
G02*
X177000000Y-84700000I-1J-500001D01*
G01*
%TO.C,SW2*%
X219000000Y-93250000D02*
X218500000Y-93750000D01*
X219000000Y-89750000D02*
X218500000Y-89250000D01*
X218500000Y-93750000D02*
X215500000Y-93750000D01*
X218500000Y-89250000D02*
X216000000Y-89250000D01*
X215500000Y-93750000D02*
X215000000Y-93250000D01*
X215000000Y-92250000D02*
X215000000Y-93250000D01*
X214500000Y-87750000D02*
X214500000Y-87050000D01*
X214500000Y-87050000D02*
X210000000Y-87050000D01*
X210000000Y-91750000D02*
X214500000Y-91750000D01*
X210000000Y-91150000D02*
X210000000Y-91750000D01*
X210000000Y-87050000D02*
X210000000Y-87550000D01*
X216000000Y-89250000D02*
G75*
G02*
X214500000Y-87750000I1J1500001D01*
G01*
X214500000Y-91750000D02*
G75*
G02*
X215000000Y-92250000I-1J-500001D01*
G01*
%TO.C,SW3*%
X238000000Y-85600000D02*
X237500000Y-86100000D01*
X238000000Y-82100000D02*
X237500000Y-81600000D01*
X237500000Y-86100000D02*
X234500000Y-86100000D01*
X237500000Y-81600000D02*
X235000000Y-81600000D01*
X234500000Y-86100000D02*
X234000000Y-85600000D01*
X234000000Y-84600000D02*
X234000000Y-85600000D01*
X233500000Y-80100000D02*
X233500000Y-79400000D01*
X233500000Y-79400000D02*
X229000000Y-79400000D01*
X229000000Y-84100000D02*
X233500000Y-84100000D01*
X229000000Y-83500000D02*
X229000000Y-84100000D01*
X229000000Y-79400000D02*
X229000000Y-79900000D01*
X235000000Y-81600000D02*
G75*
G02*
X233500000Y-80100000I1J1500001D01*
G01*
X233500000Y-84100000D02*
G75*
G02*
X234000000Y-84600000I-1J-500001D01*
G01*
%TO.C,SW1*%
X200000000Y-93250000D02*
X199500000Y-93750000D01*
X200000000Y-89750000D02*
X199500000Y-89250000D01*
X199500000Y-93750000D02*
X196500000Y-93750000D01*
X199500000Y-89250000D02*
X197000000Y-89250000D01*
X196500000Y-93750000D02*
X196000000Y-93250000D01*
X196000000Y-92250000D02*
X196000000Y-93250000D01*
X195500000Y-87750000D02*
X195500000Y-87050000D01*
X195500000Y-87050000D02*
X191000000Y-87050000D01*
X191000000Y-91750000D02*
X195500000Y-91750000D01*
X191000000Y-91150000D02*
X191000000Y-91750000D01*
X191000000Y-87050000D02*
X191000000Y-87550000D01*
X197000000Y-89250000D02*
G75*
G02*
X195500000Y-87750000I1J1500001D01*
G01*
X195500000Y-91750000D02*
G75*
G02*
X196000000Y-92250000I-1J-500001D01*
G01*
D11*
%TO.C,JP1*%
X184500000Y-97500000D02*
X184500000Y-94700000D01*
X184500000Y-94700000D02*
X182500000Y-94700000D01*
X182500000Y-97500000D02*
X184500000Y-97500000D01*
X182500000Y-94700000D02*
X182500000Y-97500000D01*
%TO.C,R1*%
X173635000Y-98527064D02*
X173635000Y-98072936D01*
X172165000Y-98527064D02*
X172165000Y-98072936D01*
%TO.C,U1*%
X176660000Y-94735000D02*
X176660000Y-94460000D01*
X176660000Y-87315000D02*
X176660000Y-87590000D01*
X173900000Y-94735000D02*
X176660000Y-94735000D01*
X173900000Y-94735000D02*
X171140000Y-94735000D01*
X173900000Y-87315000D02*
X176660000Y-87315000D01*
X173900000Y-87315000D02*
X171140000Y-87315000D01*
X171140000Y-94735000D02*
X171140000Y-94460000D01*
X171140000Y-87315000D02*
X171140000Y-87590000D01*
X177450000Y-87590000D02*
X177210000Y-87260000D01*
X177690000Y-87260000D01*
X177450000Y-87590000D01*
G36*
X177450000Y-87590000D02*
G01*
X177210000Y-87260000D01*
X177690000Y-87260000D01*
X177450000Y-87590000D01*
G37*
%TO.C,R3*%
X190235000Y-96327064D02*
X190235000Y-95872936D01*
X188765000Y-96327064D02*
X188765000Y-95872936D01*
%TO.C,R4*%
X176835000Y-98527064D02*
X176835000Y-98072936D01*
X175365000Y-98527064D02*
X175365000Y-98072936D01*
%TO.C,R6*%
X169835000Y-75272936D02*
X169835000Y-75727064D01*
X168365000Y-75272936D02*
X168365000Y-75727064D01*
%TO.C,J1*%
X186810000Y-91215000D02*
X186810000Y-88715000D01*
X186810000Y-88715000D02*
X185760000Y-88715000D01*
X185760000Y-88715000D02*
X185760000Y-87725000D01*
X185640000Y-93185000D02*
X181760000Y-93185000D01*
X180590000Y-91215000D02*
X180590000Y-88715000D01*
X180590000Y-88715000D02*
X181640000Y-88715000D01*
%TO.C,R5*%
X193535000Y-96327064D02*
X193535000Y-95872936D01*
X192065000Y-96327064D02*
X192065000Y-95872936D01*
%TO.C,R2*%
X170535000Y-98527064D02*
X170535000Y-98072936D01*
X169065000Y-98527064D02*
X169065000Y-98072936D01*
%TD*%
M02*
