%TF.GenerationSoftware,KiCad,Pcbnew,9.0.0*%
%TF.CreationDate,2025-05-10T10:01:20-07:00*%
%TF.ProjectId,c7k-left-hand,63376b2d-6c65-4667-942d-68616e642e6b,rev?*%
%TF.SameCoordinates,Original*%
%TF.FileFunction,Copper,L2,Bot*%
%TF.FilePolarity,Positive*%
%FSLAX46Y46*%
G04 Gerber Fmt 4.6, Leading zero omitted, Abs format (unit mm)*
G04 Created by KiCad (PCBNEW 9.0.0) date 2025-05-10 10:01:20*
%MOMM*%
%LPD*%
G01*
G04 APERTURE LIST*
G04 Aperture macros list*
%AMRoundRect*
0 Rectangle with rounded corners*
0 $1 Rounding radius*
0 $2 $3 $4 $5 $6 $7 $8 $9 X,Y pos of 4 corners*
0 Add a 4 corners polygon primitive as box body*
4,1,4,$2,$3,$4,$5,$6,$7,$8,$9,$2,$3,0*
0 Add four circle primitives for the rounded corners*
1,1,$1+$1,$2,$3*
1,1,$1+$1,$4,$5*
1,1,$1+$1,$6,$7*
1,1,$1+$1,$8,$9*
0 Add four rect primitives between the rounded corners*
20,1,$1+$1,$2,$3,$4,$5,0*
20,1,$1+$1,$4,$5,$6,$7,0*
20,1,$1+$1,$6,$7,$8,$9,0*
20,1,$1+$1,$8,$9,$2,$3,0*%
%AMFreePoly0*
4,1,6,1.000000,0.000000,0.500000,-0.750000,-0.500000,-0.750000,-0.500000,0.750000,0.500000,0.750000,1.000000,0.000000,1.000000,0.000000,$1*%
%AMFreePoly1*
4,1,6,0.500000,-0.750000,-0.650000,-0.750000,-0.150000,0.000000,-0.650000,0.750000,0.500000,0.750000,0.500000,-0.750000,0.500000,-0.750000,$1*%
G04 Aperture macros list end*
%TA.AperFunction,ComponentPad*%
%ADD10C,2.000000*%
%TD*%
%TA.AperFunction,SMDPad,CuDef*%
%ADD11R,2.600000X2.600000*%
%TD*%
%TA.AperFunction,SMDPad,CuDef*%
%ADD12FreePoly0,270.000000*%
%TD*%
%TA.AperFunction,SMDPad,CuDef*%
%ADD13FreePoly1,270.000000*%
%TD*%
%TA.AperFunction,SMDPad,CuDef*%
%ADD14RoundRect,0.250000X0.450000X-0.350000X0.450000X0.350000X-0.450000X0.350000X-0.450000X-0.350000X0*%
%TD*%
%TA.AperFunction,SMDPad,CuDef*%
%ADD15RoundRect,0.125000X0.825000X0.125000X-0.825000X0.125000X-0.825000X-0.125000X0.825000X-0.125000X0*%
%TD*%
%TA.AperFunction,SMDPad,CuDef*%
%ADD16RoundRect,0.250000X-0.450000X0.350000X-0.450000X-0.350000X0.450000X-0.350000X0.450000X0.350000X0*%
%TD*%
%TA.AperFunction,SMDPad,CuDef*%
%ADD17RoundRect,0.150000X0.150000X0.625000X-0.150000X0.625000X-0.150000X-0.625000X0.150000X-0.625000X0*%
%TD*%
%TA.AperFunction,SMDPad,CuDef*%
%ADD18RoundRect,0.250000X0.350000X0.650000X-0.350000X0.650000X-0.350000X-0.650000X0.350000X-0.650000X0*%
%TD*%
%TA.AperFunction,Conductor*%
%ADD19C,0.300000*%
%TD*%
G04 APERTURE END LIST*
D10*
%TO.P,SW4,1,1*%
%TO.N,/white*%
X162562500Y-99075000D03*
%TO.P,SW4,2,2*%
%TO.N,GND*%
X162562500Y-94575000D03*
%TO.P,SW4,3,L*%
X165052500Y-100325000D03*
%TO.P,SW4,4,L*%
X165052500Y-93315000D03*
%TD*%
%TO.P,SW5,1,1*%
%TO.N,/alpha*%
X162562500Y-88475000D03*
%TO.P,SW5,2,2*%
%TO.N,GND*%
X162562500Y-83975000D03*
%TO.P,SW5,3,L*%
X165052500Y-89725000D03*
%TO.P,SW5,4,L*%
X165052500Y-82715000D03*
%TD*%
D11*
%TO.P,SW0,1,1*%
%TO.N,/index*%
X182275000Y-83950000D03*
%TO.P,SW0,2,2*%
%TO.N,GND*%
X170725000Y-81750000D03*
%TD*%
D10*
%TO.P,SW6,1,1*%
%TO.N,/numeric*%
X162562500Y-77875000D03*
%TO.P,SW6,2,2*%
%TO.N,GND*%
X162562500Y-73375000D03*
%TO.P,SW6,3,L*%
X165052500Y-79125000D03*
%TO.P,SW6,4,L*%
X165052500Y-72115000D03*
%TD*%
D11*
%TO.P,SW2,1,1*%
%TO.N,/ring*%
X220275000Y-91500000D03*
%TO.P,SW2,2,2*%
%TO.N,GND*%
X208725000Y-89300000D03*
%TD*%
%TO.P,SW3,1,1*%
%TO.N,/pinky*%
X239275000Y-83850000D03*
%TO.P,SW3,2,2*%
%TO.N,GND*%
X227725000Y-81650000D03*
%TD*%
%TO.P,SW1,1,1*%
%TO.N,/middle*%
X201275000Y-91500000D03*
%TO.P,SW1,2,2*%
%TO.N,GND*%
X189725000Y-89300000D03*
%TD*%
D12*
%TO.P,JP1,1,A*%
%TO.N,/A0*%
X183500000Y-95375000D03*
D13*
%TO.P,JP1,2,B*%
%TO.N,VCC*%
X183500000Y-96825000D03*
%TD*%
D14*
%TO.P,R1,1*%
%TO.N,VCC*%
X172900000Y-99300000D03*
%TO.P,R1,2*%
%TO.N,/SDA*%
X172900000Y-97300000D03*
%TD*%
D15*
%TO.P,U1,1,SCL*%
%TO.N,/SCL*%
X177400000Y-88100000D03*
%TO.P,U1,2,SDA*%
%TO.N,/SDA*%
X177400000Y-88750000D03*
%TO.P,U1,3,A2*%
%TO.N,GND*%
X177400000Y-89400000D03*
%TO.P,U1,4,A1*%
X177400000Y-90050000D03*
%TO.P,U1,5,A0*%
%TO.N,/A0*%
X177400000Y-90700000D03*
%TO.P,U1,6,~{RESET}*%
%TO.N,Net-(U1-~{RESET})*%
X177400000Y-91350000D03*
%TO.P,U1,7,NC*%
%TO.N,unconnected-(U1-NC-Pad7)*%
X177400000Y-92000000D03*
%TO.P,U1,8,INT*%
%TO.N,unconnected-(U1-INT-Pad8)*%
X177400000Y-92650000D03*
%TO.P,U1,9,VSS*%
%TO.N,GND*%
X177400000Y-93300000D03*
%TO.P,U1,10,NC*%
%TO.N,unconnected-(U1-NC-Pad10)*%
X177400000Y-93950000D03*
%TO.P,U1,11,NC*%
%TO.N,unconnected-(U1-NC-Pad11)*%
X170400000Y-93950000D03*
%TO.P,U1,12,GP0*%
%TO.N,/index*%
X170400000Y-93300000D03*
%TO.P,U1,13,GP1*%
%TO.N,/middle*%
X170400000Y-92650000D03*
%TO.P,U1,14,GP2*%
%TO.N,/ring*%
X170400000Y-92000000D03*
%TO.P,U1,15,GP3*%
%TO.N,/pinky*%
X170400000Y-91350000D03*
%TO.P,U1,16,GP4*%
%TO.N,/white*%
X170400000Y-90700000D03*
%TO.P,U1,17,GP5*%
%TO.N,/alpha*%
X170400000Y-90050000D03*
%TO.P,U1,18,GP6*%
%TO.N,/numeric*%
X170400000Y-89400000D03*
%TO.P,U1,19,GP7*%
%TO.N,unconnected-(U1-GP7-Pad19)*%
X170400000Y-88750000D03*
%TO.P,U1,20,VDD*%
%TO.N,VCC*%
X170400000Y-88100000D03*
%TD*%
D14*
%TO.P,R3,1*%
%TO.N,GND*%
X189500000Y-97100000D03*
%TO.P,R3,2*%
%TO.N,/A0*%
X189500000Y-95100000D03*
%TD*%
%TO.P,R4,1*%
%TO.N,VCC*%
X176100000Y-99300000D03*
%TO.P,R4,2*%
%TO.N,Net-(U1-~{RESET})*%
X176100000Y-97300000D03*
%TD*%
D16*
%TO.P,R6,1*%
%TO.N,GND*%
X169100000Y-74500000D03*
%TO.P,R6,2*%
X169100000Y-76500000D03*
%TD*%
D17*
%TO.P,J1,1,Pin_1*%
%TO.N,GND*%
X185200000Y-88500000D03*
%TO.P,J1,2,Pin_2*%
%TO.N,VCC*%
X184200000Y-88500000D03*
%TO.P,J1,3,Pin_3*%
%TO.N,/SDA*%
X183200000Y-88500000D03*
%TO.P,J1,4,Pin_4*%
%TO.N,/SCL*%
X182200000Y-88500000D03*
D18*
%TO.P,J1,MP*%
%TO.N,N/C*%
X186500000Y-92375000D03*
X180900000Y-92375000D03*
%TD*%
D14*
%TO.P,R5,1*%
%TO.N,GND*%
X192800000Y-97100000D03*
%TO.P,R5,2*%
X192800000Y-95100000D03*
%TD*%
%TO.P,R2,1*%
%TO.N,VCC*%
X169800000Y-99300000D03*
%TO.P,R2,2*%
%TO.N,/SCL*%
X169800000Y-97300000D03*
%TD*%
D19*
%TO.N,/SCL*%
X181800000Y-88100000D02*
X182200000Y-88500000D01*
X177400000Y-88100000D02*
X181800000Y-88100000D01*
X175700000Y-88100000D02*
X175100000Y-88700000D01*
X175100000Y-88700000D02*
X175100000Y-91700000D01*
X169800000Y-97000000D02*
X169800000Y-97300000D01*
X170100000Y-97000000D02*
X169800000Y-97300000D01*
X175100000Y-91700000D02*
X169800000Y-97000000D01*
X177400000Y-88100000D02*
X175700000Y-88100000D01*
%TO.N,/SDA*%
X172900000Y-95300000D02*
X175650000Y-92550000D01*
X175650000Y-89250000D02*
X176150000Y-88750000D01*
X182600000Y-90100000D02*
X183200000Y-89500000D01*
X176150000Y-88750000D02*
X177400000Y-88750000D01*
X180620000Y-88750000D02*
X181970000Y-90100000D01*
X181970000Y-90100000D02*
X182600000Y-90100000D01*
X183200000Y-89500000D02*
X183200000Y-88500000D01*
X177400000Y-88750000D02*
X180620000Y-88750000D01*
X172900000Y-97300000D02*
X172900000Y-95300000D01*
X175650000Y-92550000D02*
X175650000Y-89250000D01*
%TO.N,VCC*%
X161700000Y-75500000D02*
X170400000Y-75500000D01*
X176100000Y-99300000D02*
X181025000Y-99300000D01*
X160700000Y-100100000D02*
X160700000Y-76500000D01*
X184200000Y-88500000D02*
X184200000Y-85500000D01*
X181025000Y-99300000D02*
X183500000Y-96825000D01*
X184200000Y-85500000D02*
X186500000Y-83200000D01*
X169200000Y-88100000D02*
X170400000Y-88100000D01*
X195300000Y-94400000D02*
X193600000Y-96100000D01*
X169800000Y-99300000D02*
X170100000Y-99600000D01*
X195300000Y-84600000D02*
X195300000Y-94400000D01*
X172900000Y-99300000D02*
X176100000Y-99300000D01*
X170800000Y-77600000D02*
X168500000Y-79900000D01*
X186500000Y-83200000D02*
X193900000Y-83200000D01*
X170100000Y-99600000D02*
X170100000Y-100400000D01*
X168500000Y-79900000D02*
X168500000Y-87400000D01*
X169800000Y-99300000D02*
X172900000Y-99300000D01*
X193600000Y-96100000D02*
X184900000Y-96100000D01*
X170100000Y-100400000D02*
X168300000Y-102200000D01*
X168300000Y-102200000D02*
X162800000Y-102200000D01*
X162800000Y-102200000D02*
X160700000Y-100100000D01*
X170800000Y-75900000D02*
X170800000Y-77600000D01*
X170400000Y-75500000D02*
X170800000Y-75900000D01*
X193900000Y-83200000D02*
X195300000Y-84600000D01*
X160700000Y-76500000D02*
X161700000Y-75500000D01*
X184900000Y-96100000D02*
X184175000Y-96825000D01*
X168500000Y-87400000D02*
X169200000Y-88100000D01*
X184175000Y-96825000D02*
X183500000Y-96825000D01*
%TO.N,/A0*%
X177400000Y-90700000D02*
X179350000Y-90700000D01*
X181165000Y-95375000D02*
X183500000Y-95375000D01*
X179620000Y-93830000D02*
X181165000Y-95375000D01*
X183775000Y-95100000D02*
X183500000Y-95375000D01*
X179350000Y-90700000D02*
X179620000Y-90970000D01*
X179620000Y-90970000D02*
X179620000Y-93830000D01*
X189500000Y-95100000D02*
X183775000Y-95100000D01*
%TO.N,Net-(U1-~{RESET})*%
X179090000Y-91690000D02*
X179090000Y-95310000D01*
X176900000Y-95800000D02*
X176100000Y-96600000D01*
X176100000Y-96600000D02*
X176100000Y-97300000D01*
X177400000Y-91350000D02*
X178750000Y-91350000D01*
X178600000Y-95800000D02*
X176900000Y-95800000D01*
X179090000Y-95310000D02*
X178600000Y-95800000D01*
X178750000Y-91350000D02*
X179090000Y-91690000D01*
%TO.N,/index*%
X170400000Y-93300000D02*
X172700000Y-93300000D01*
X182275000Y-84125000D02*
X182275000Y-83950000D01*
X175200000Y-86200000D02*
X180200000Y-86200000D01*
X174445560Y-91554440D02*
X174445560Y-86954440D01*
X172700000Y-93300000D02*
X174445560Y-91554440D01*
X180200000Y-86200000D02*
X182275000Y-84125000D01*
X174445560Y-86954440D02*
X175200000Y-86200000D01*
%TO.N,/middle*%
X172550000Y-92650000D02*
X170400000Y-92650000D01*
X201275000Y-83125000D02*
X201275000Y-91500000D01*
X201300000Y-83100000D02*
X201275000Y-83125000D01*
X173833258Y-91366742D02*
X173833258Y-86175262D01*
X172550000Y-92650000D02*
X173833258Y-91366742D01*
X199800000Y-81600000D02*
X201300000Y-83100000D01*
X178408520Y-81600000D02*
X199800000Y-81600000D01*
X173833258Y-86175262D02*
X178408520Y-81600000D01*
%TO.N,/ring*%
X173230524Y-91069476D02*
X173230524Y-86069476D01*
X220300000Y-83500000D02*
X220275000Y-83525000D01*
X172300000Y-92000000D02*
X173230524Y-91069476D01*
X173230524Y-86069476D02*
X178249999Y-81050001D01*
X172300000Y-92000000D02*
X170400000Y-92000000D01*
X178249999Y-81050001D02*
X217850001Y-81050001D01*
X220275000Y-83525000D02*
X220275000Y-91500000D01*
X217850001Y-81050001D02*
X220300000Y-83500000D01*
%TO.N,/pinky*%
X178044478Y-80549001D02*
X178094479Y-80499000D01*
X177748999Y-80842481D02*
X178042478Y-80549001D01*
X178094479Y-80499000D02*
X224199000Y-80499000D01*
X172729524Y-85863955D02*
X172729524Y-85861955D01*
X234800000Y-81100000D02*
X233150000Y-79450000D01*
X239275000Y-82075000D02*
X238300000Y-81100000D01*
X172729524Y-85861955D02*
X177748999Y-80842481D01*
X239275000Y-83850000D02*
X239275000Y-82075000D01*
X172503416Y-86090063D02*
X172729524Y-85863955D01*
X170400000Y-91350000D02*
X172050000Y-91350000D01*
X172050000Y-91350000D02*
X172503416Y-90896584D01*
X224199000Y-80499000D02*
X224204800Y-80499000D01*
X238300000Y-81100000D02*
X234800000Y-81100000D01*
X178042478Y-80549001D02*
X178044478Y-80549001D01*
X233150000Y-79450000D02*
X225248000Y-79450000D01*
X172503416Y-90896584D02*
X172503416Y-86090063D01*
X225248000Y-79450000D02*
X224199000Y-80499000D01*
X238950000Y-83850000D02*
X239275000Y-83850000D01*
%TO.N,/white*%
X168300000Y-90700000D02*
X167600000Y-91400000D01*
X167270000Y-96630000D02*
X165010000Y-96630000D01*
X163237500Y-98400000D02*
X162562500Y-99075000D01*
X170400000Y-90700000D02*
X168300000Y-90700000D01*
X163240000Y-98400000D02*
X163237500Y-98400000D01*
X167600000Y-91400000D02*
X167600000Y-96300000D01*
X165010000Y-96630000D02*
X163240000Y-98400000D01*
X167600000Y-96300000D02*
X167270000Y-96630000D01*
%TO.N,/alpha*%
X166100000Y-88000000D02*
X163037500Y-88000000D01*
X163037500Y-88000000D02*
X162562500Y-88475000D01*
X170400000Y-90050000D02*
X168150000Y-90050000D01*
X168150000Y-90050000D02*
X166100000Y-88000000D01*
%TO.N,/numeric*%
X167200000Y-81800000D02*
X166300000Y-80900000D01*
X168450000Y-89400000D02*
X167200000Y-88150000D01*
X166300000Y-80900000D02*
X164100000Y-80900000D01*
X167200000Y-88150000D02*
X167200000Y-81800000D01*
X162562500Y-79362500D02*
X162562500Y-77875000D01*
X164100000Y-80900000D02*
X162562500Y-79362500D01*
X170400000Y-89400000D02*
X168450000Y-89400000D01*
%TD*%
%TA.AperFunction,Conductor*%
%TO.N,GND*%
G36*
X169142539Y-91120185D02*
G01*
X169188294Y-91172989D01*
X169199500Y-91224500D01*
X169199500Y-91510636D01*
X169205267Y-91550216D01*
X169210134Y-91583625D01*
X169228181Y-91620542D01*
X169239938Y-91689416D01*
X169228181Y-91729458D01*
X169217895Y-91750500D01*
X169210134Y-91766375D01*
X169199500Y-91839364D01*
X169199500Y-92160636D01*
X169210134Y-92233625D01*
X169228181Y-92270542D01*
X169239938Y-92339416D01*
X169228181Y-92379458D01*
X169210879Y-92414852D01*
X169210134Y-92416375D01*
X169199500Y-92489364D01*
X169199500Y-92810636D01*
X169203136Y-92835592D01*
X169210134Y-92883625D01*
X169228181Y-92920542D01*
X169239938Y-92989416D01*
X169228181Y-93029458D01*
X169216566Y-93053219D01*
X169210134Y-93066375D01*
X169199500Y-93139364D01*
X169199500Y-93460636D01*
X169208950Y-93525498D01*
X169210134Y-93533625D01*
X169228181Y-93570542D01*
X169239938Y-93639416D01*
X169228181Y-93679458D01*
X169210136Y-93716371D01*
X169210134Y-93716375D01*
X169199500Y-93789364D01*
X169199500Y-94110636D01*
X169210134Y-94183625D01*
X169210134Y-94183626D01*
X169210135Y-94183628D01*
X169265172Y-94296210D01*
X169353789Y-94384827D01*
X169450395Y-94432054D01*
X169466375Y-94439866D01*
X169539364Y-94450500D01*
X169539370Y-94450500D01*
X171260630Y-94450500D01*
X171260636Y-94450500D01*
X171333625Y-94439866D01*
X171411936Y-94401582D01*
X171446210Y-94384827D01*
X171534827Y-94296210D01*
X171565187Y-94234107D01*
X171589866Y-94183625D01*
X171600500Y-94110636D01*
X171600500Y-93824500D01*
X171620185Y-93757461D01*
X171672989Y-93711706D01*
X171724500Y-93700500D01*
X172233745Y-93700500D01*
X172300784Y-93720185D01*
X172346539Y-93772989D01*
X172356483Y-93842147D01*
X172327458Y-93905703D01*
X172321426Y-93912181D01*
X169820424Y-96413181D01*
X169759101Y-96446666D01*
X169732743Y-96449500D01*
X169302129Y-96449500D01*
X169302123Y-96449501D01*
X169242516Y-96455908D01*
X169107671Y-96506202D01*
X169107664Y-96506206D01*
X168992455Y-96592452D01*
X168992452Y-96592455D01*
X168906206Y-96707664D01*
X168906202Y-96707671D01*
X168855908Y-96842517D01*
X168849501Y-96902116D01*
X168849501Y-96902123D01*
X168849500Y-96902135D01*
X168849500Y-97697870D01*
X168849501Y-97697876D01*
X168855908Y-97757483D01*
X168906202Y-97892328D01*
X168906206Y-97892335D01*
X168992452Y-98007544D01*
X168992455Y-98007547D01*
X169107664Y-98093793D01*
X169107671Y-98093797D01*
X169242517Y-98144091D01*
X169242516Y-98144091D01*
X169249444Y-98144835D01*
X169302127Y-98150500D01*
X170297872Y-98150499D01*
X170357483Y-98144091D01*
X170492331Y-98093796D01*
X170607546Y-98007546D01*
X170693796Y-97892331D01*
X170744091Y-97757483D01*
X170750500Y-97697873D01*
X170750499Y-96902128D01*
X170744091Y-96842517D01*
X170712115Y-96756787D01*
X170707132Y-96687097D01*
X170740615Y-96625776D01*
X172311498Y-95054893D01*
X172372821Y-95021409D01*
X172442513Y-95026393D01*
X172498446Y-95068265D01*
X172522863Y-95133729D01*
X172518954Y-95174667D01*
X172499500Y-95247271D01*
X172499500Y-96327648D01*
X172479815Y-96394687D01*
X172427011Y-96440442D01*
X172388755Y-96450938D01*
X172342516Y-96455909D01*
X172207671Y-96506202D01*
X172207664Y-96506206D01*
X172092455Y-96592452D01*
X172092452Y-96592455D01*
X172006206Y-96707664D01*
X172006202Y-96707671D01*
X171955908Y-96842517D01*
X171949501Y-96902116D01*
X171949501Y-96902123D01*
X171949500Y-96902135D01*
X171949500Y-97697870D01*
X171949501Y-97697876D01*
X171955908Y-97757483D01*
X172006202Y-97892328D01*
X172006206Y-97892335D01*
X172092452Y-98007544D01*
X172092455Y-98007547D01*
X172207664Y-98093793D01*
X172207671Y-98093797D01*
X172342517Y-98144091D01*
X172342516Y-98144091D01*
X172349444Y-98144835D01*
X172402127Y-98150500D01*
X173397872Y-98150499D01*
X173457483Y-98144091D01*
X173592331Y-98093796D01*
X173707546Y-98007546D01*
X173793796Y-97892331D01*
X173844091Y-97757483D01*
X173850500Y-97697873D01*
X173850499Y-96902128D01*
X173844091Y-96842517D01*
X173793796Y-96707669D01*
X173793795Y-96707668D01*
X173793793Y-96707664D01*
X173707547Y-96592455D01*
X173707544Y-96592452D01*
X173592335Y-96506206D01*
X173592328Y-96506202D01*
X173457483Y-96455908D01*
X173411243Y-96450937D01*
X173346693Y-96424199D01*
X173306845Y-96366806D01*
X173300500Y-96327648D01*
X173300500Y-95517255D01*
X173320185Y-95450216D01*
X173336819Y-95429574D01*
X174604402Y-94161991D01*
X175970480Y-92795913D01*
X175973042Y-92791474D01*
X176023603Y-92743259D01*
X176092209Y-92730031D01*
X176157075Y-92755994D01*
X176197608Y-92812905D01*
X176203135Y-92835592D01*
X176210133Y-92883624D01*
X176210134Y-92883627D01*
X176265172Y-92996210D01*
X176353789Y-93084827D01*
X176433454Y-93123772D01*
X176466375Y-93139866D01*
X176539364Y-93150500D01*
X176539370Y-93150500D01*
X178260630Y-93150500D01*
X178260636Y-93150500D01*
X178333625Y-93139866D01*
X178391118Y-93111759D01*
X178446210Y-93084827D01*
X178446212Y-93084825D01*
X178477819Y-93053219D01*
X178539142Y-93019734D01*
X178608834Y-93024718D01*
X178664767Y-93066590D01*
X178689184Y-93132054D01*
X178689500Y-93140900D01*
X178689500Y-93459100D01*
X178669815Y-93526139D01*
X178617011Y-93571894D01*
X178547853Y-93581838D01*
X178484297Y-93552813D01*
X178477819Y-93546781D01*
X178446210Y-93515172D01*
X178333628Y-93460135D01*
X178333626Y-93460134D01*
X178333625Y-93460134D01*
X178260636Y-93449500D01*
X176539364Y-93449500D01*
X176466375Y-93460134D01*
X176466373Y-93460134D01*
X176466371Y-93460135D01*
X176353789Y-93515172D01*
X176265172Y-93603789D01*
X176210135Y-93716371D01*
X176210134Y-93716373D01*
X176210134Y-93716375D01*
X176199500Y-93789364D01*
X176199500Y-94110636D01*
X176210134Y-94183625D01*
X176210134Y-94183626D01*
X176210135Y-94183628D01*
X176265172Y-94296210D01*
X176353789Y-94384827D01*
X176450395Y-94432054D01*
X176466375Y-94439866D01*
X176539364Y-94450500D01*
X176539370Y-94450500D01*
X178260630Y-94450500D01*
X178260636Y-94450500D01*
X178333625Y-94439866D01*
X178411936Y-94401582D01*
X178446210Y-94384827D01*
X178446212Y-94384825D01*
X178477819Y-94353219D01*
X178539142Y-94319734D01*
X178608834Y-94324718D01*
X178664767Y-94366590D01*
X178689184Y-94432054D01*
X178689500Y-94440900D01*
X178689500Y-95092745D01*
X178669815Y-95159784D01*
X178653181Y-95180426D01*
X178470426Y-95363181D01*
X178409103Y-95396666D01*
X178382745Y-95399500D01*
X176847273Y-95399500D01*
X176745410Y-95426793D01*
X176654087Y-95479520D01*
X176654084Y-95479522D01*
X175779522Y-96354084D01*
X175779518Y-96354090D01*
X175760227Y-96387502D01*
X175709659Y-96435717D01*
X175652843Y-96449500D01*
X175602130Y-96449500D01*
X175602123Y-96449501D01*
X175542516Y-96455908D01*
X175407671Y-96506202D01*
X175407664Y-96506206D01*
X175292455Y-96592452D01*
X175292452Y-96592455D01*
X175206206Y-96707664D01*
X175206202Y-96707671D01*
X175155908Y-96842517D01*
X175149501Y-96902116D01*
X175149501Y-96902123D01*
X175149500Y-96902135D01*
X175149500Y-97697870D01*
X175149501Y-97697876D01*
X175155908Y-97757483D01*
X175206202Y-97892328D01*
X175206206Y-97892335D01*
X175292452Y-98007544D01*
X175292455Y-98007547D01*
X175407664Y-98093793D01*
X175407671Y-98093797D01*
X175542517Y-98144091D01*
X175542516Y-98144091D01*
X175549444Y-98144835D01*
X175602127Y-98150500D01*
X176597872Y-98150499D01*
X176657483Y-98144091D01*
X176792331Y-98093796D01*
X176907546Y-98007546D01*
X176993796Y-97892331D01*
X177044091Y-97757483D01*
X177050500Y-97697873D01*
X177050499Y-96902128D01*
X177044091Y-96842517D01*
X176993796Y-96707669D01*
X176993795Y-96707668D01*
X176993793Y-96707664D01*
X176907547Y-96592455D01*
X176907544Y-96592452D01*
X176888507Y-96578201D01*
X176877824Y-96563930D01*
X176863550Y-96553245D01*
X176857319Y-96536539D01*
X176846636Y-96522268D01*
X176845364Y-96504484D01*
X176839134Y-96487780D01*
X176842923Y-96470358D01*
X176841652Y-96452576D01*
X176850196Y-96436928D01*
X176853986Y-96419507D01*
X176875129Y-96391262D01*
X177029575Y-96236816D01*
X177090898Y-96203334D01*
X177117255Y-96200500D01*
X178652725Y-96200500D01*
X178652727Y-96200500D01*
X178754588Y-96173207D01*
X178845913Y-96120480D01*
X179325706Y-95640684D01*
X179325711Y-95640681D01*
X179335911Y-95630480D01*
X179335913Y-95630480D01*
X179410480Y-95555913D01*
X179463207Y-95464587D01*
X179465886Y-95454588D01*
X179490501Y-95362727D01*
X179490501Y-95257273D01*
X179490500Y-95257269D01*
X179490500Y-94566255D01*
X179510185Y-94499216D01*
X179562989Y-94453461D01*
X179632147Y-94443517D01*
X179695703Y-94472542D01*
X179702181Y-94478574D01*
X180919087Y-95695480D01*
X181010412Y-95748207D01*
X181112273Y-95775500D01*
X181217727Y-95775500D01*
X182372320Y-95775500D01*
X182439359Y-95795185D01*
X182485114Y-95847989D01*
X182492147Y-95867602D01*
X182494727Y-95877294D01*
X182499462Y-95925108D01*
X182521714Y-95978671D01*
X182523848Y-95986687D01*
X182523161Y-96013653D01*
X182526074Y-96040474D01*
X182522137Y-96053905D01*
X182522071Y-96056534D01*
X182520833Y-96058355D01*
X182518583Y-96066036D01*
X182513947Y-96077226D01*
X182494500Y-96174995D01*
X182494500Y-97212745D01*
X182474815Y-97279784D01*
X182458181Y-97300426D01*
X180895426Y-98863181D01*
X180834103Y-98896666D01*
X180807745Y-98899500D01*
X177151440Y-98899500D01*
X177084401Y-98879815D01*
X177038646Y-98827011D01*
X177035258Y-98818833D01*
X176993797Y-98707671D01*
X176993793Y-98707664D01*
X176907547Y-98592455D01*
X176907544Y-98592452D01*
X176792335Y-98506206D01*
X176792328Y-98506202D01*
X176657482Y-98455908D01*
X176657483Y-98455908D01*
X176597883Y-98449501D01*
X176597881Y-98449500D01*
X176597873Y-98449500D01*
X176597864Y-98449500D01*
X175602129Y-98449500D01*
X175602123Y-98449501D01*
X175542516Y-98455908D01*
X175407671Y-98506202D01*
X175407664Y-98506206D01*
X175292455Y-98592452D01*
X175292452Y-98592455D01*
X175206206Y-98707664D01*
X175206202Y-98707671D01*
X175164742Y-98818833D01*
X175122871Y-98874767D01*
X175057407Y-98899184D01*
X175048560Y-98899500D01*
X173951440Y-98899500D01*
X173884401Y-98879815D01*
X173838646Y-98827011D01*
X173835258Y-98818833D01*
X173793797Y-98707671D01*
X173793793Y-98707664D01*
X173707547Y-98592455D01*
X173707544Y-98592452D01*
X173592335Y-98506206D01*
X173592328Y-98506202D01*
X173457482Y-98455908D01*
X173457483Y-98455908D01*
X173397883Y-98449501D01*
X173397881Y-98449500D01*
X173397873Y-98449500D01*
X173397864Y-98449500D01*
X172402129Y-98449500D01*
X172402123Y-98449501D01*
X172342516Y-98455908D01*
X172207671Y-98506202D01*
X172207664Y-98506206D01*
X172092455Y-98592452D01*
X172092452Y-98592455D01*
X172006206Y-98707664D01*
X172006202Y-98707671D01*
X171964742Y-98818833D01*
X171922871Y-98874767D01*
X171857407Y-98899184D01*
X171848560Y-98899500D01*
X170851440Y-98899500D01*
X170784401Y-98879815D01*
X170738646Y-98827011D01*
X170735258Y-98818833D01*
X170693797Y-98707671D01*
X170693793Y-98707664D01*
X170607547Y-98592455D01*
X170607544Y-98592452D01*
X170492335Y-98506206D01*
X170492328Y-98506202D01*
X170357482Y-98455908D01*
X170357483Y-98455908D01*
X170297883Y-98449501D01*
X170297881Y-98449500D01*
X170297873Y-98449500D01*
X170297864Y-98449500D01*
X169302129Y-98449500D01*
X169302123Y-98449501D01*
X169242516Y-98455908D01*
X169107671Y-98506202D01*
X169107664Y-98506206D01*
X168992455Y-98592452D01*
X168992452Y-98592455D01*
X168906206Y-98707664D01*
X168906202Y-98707671D01*
X168855908Y-98842517D01*
X168849501Y-98902116D01*
X168849500Y-98902135D01*
X168849500Y-99697870D01*
X168849501Y-99697876D01*
X168855908Y-99757483D01*
X168906202Y-99892328D01*
X168906206Y-99892335D01*
X168992452Y-100007544D01*
X168992455Y-100007547D01*
X169107664Y-100093793D01*
X169107671Y-100093797D01*
X169152618Y-100110561D01*
X169242517Y-100144091D01*
X169302127Y-100150500D01*
X169483745Y-100150499D01*
X169550784Y-100170183D01*
X169596539Y-100222987D01*
X169606483Y-100292145D01*
X169577458Y-100355701D01*
X169571426Y-100362180D01*
X168170426Y-101763181D01*
X168109103Y-101796666D01*
X168082745Y-101799500D01*
X163017255Y-101799500D01*
X162950216Y-101779815D01*
X162929574Y-101763181D01*
X161136819Y-99970426D01*
X161103334Y-99909103D01*
X161100500Y-99882745D01*
X161100500Y-99405037D01*
X161120185Y-99337998D01*
X161172989Y-99292243D01*
X161242147Y-99282299D01*
X161305703Y-99311324D01*
X161342431Y-99366718D01*
X161403617Y-99555029D01*
X161477794Y-99700608D01*
X161492976Y-99730405D01*
X161608672Y-99889646D01*
X161747854Y-100028828D01*
X161907095Y-100144524D01*
X161957454Y-100170183D01*
X162082470Y-100233882D01*
X162082472Y-100233882D01*
X162082475Y-100233884D01*
X162146195Y-100254588D01*
X162269673Y-100294709D01*
X162464078Y-100325500D01*
X162464083Y-100325500D01*
X162660922Y-100325500D01*
X162855326Y-100294709D01*
X162863217Y-100292145D01*
X163042525Y-100233884D01*
X163217905Y-100144524D01*
X163377146Y-100028828D01*
X163516328Y-99889646D01*
X163632024Y-99730405D01*
X163721384Y-99555025D01*
X163782209Y-99367826D01*
X163786933Y-99337998D01*
X163813000Y-99173422D01*
X163813000Y-98976577D01*
X163782209Y-98782173D01*
X163758001Y-98707671D01*
X163721384Y-98594975D01*
X163721381Y-98594969D01*
X163720879Y-98593756D01*
X163720825Y-98593258D01*
X163719878Y-98590342D01*
X163720490Y-98590142D01*
X163713415Y-98524286D01*
X163744693Y-98461809D01*
X163747733Y-98458658D01*
X165139574Y-97066819D01*
X165200897Y-97033334D01*
X165227255Y-97030500D01*
X167322725Y-97030500D01*
X167322727Y-97030500D01*
X167424588Y-97003207D01*
X167515913Y-96950480D01*
X167920480Y-96545913D01*
X167961183Y-96475413D01*
X167973207Y-96454587D01*
X168000500Y-96352727D01*
X168000500Y-91617255D01*
X168020185Y-91550216D01*
X168036819Y-91529574D01*
X168429574Y-91136819D01*
X168490897Y-91103334D01*
X168517255Y-91100500D01*
X169075500Y-91100500D01*
X169142539Y-91120185D01*
G37*
%TD.AperFunction*%
%TA.AperFunction,Conductor*%
G36*
X165949784Y-88420185D02*
G01*
X165970426Y-88436819D01*
X167895925Y-90362318D01*
X167929410Y-90423641D01*
X167924426Y-90493333D01*
X167895925Y-90537680D01*
X167279522Y-91154084D01*
X167279520Y-91154087D01*
X167226793Y-91245410D01*
X167200587Y-91343214D01*
X167199500Y-91347272D01*
X167199500Y-96082745D01*
X167190855Y-96112185D01*
X167184332Y-96142172D01*
X167180577Y-96147187D01*
X167179815Y-96149784D01*
X167163181Y-96170426D01*
X167140426Y-96193181D01*
X167079103Y-96226666D01*
X167052745Y-96229500D01*
X164957273Y-96229500D01*
X164855410Y-96256793D01*
X164764087Y-96309520D01*
X164764084Y-96309522D01*
X163182389Y-97891216D01*
X163121066Y-97924701D01*
X163051374Y-97919717D01*
X163047092Y-97917841D01*
X163047034Y-97917983D01*
X163042535Y-97916119D01*
X162855326Y-97855290D01*
X162660922Y-97824500D01*
X162660917Y-97824500D01*
X162464083Y-97824500D01*
X162464078Y-97824500D01*
X162269673Y-97855290D01*
X162082470Y-97916117D01*
X161907094Y-98005476D01*
X161816241Y-98071485D01*
X161747854Y-98121172D01*
X161747852Y-98121174D01*
X161747851Y-98121174D01*
X161608674Y-98260351D01*
X161608674Y-98260352D01*
X161608672Y-98260354D01*
X161565175Y-98320222D01*
X161492976Y-98419594D01*
X161403617Y-98594970D01*
X161342431Y-98783281D01*
X161302993Y-98840956D01*
X161238634Y-98868154D01*
X161169788Y-98856239D01*
X161118312Y-98808995D01*
X161100500Y-98744962D01*
X161100500Y-88805037D01*
X161120185Y-88737998D01*
X161172989Y-88692243D01*
X161242147Y-88682299D01*
X161305703Y-88711324D01*
X161342431Y-88766718D01*
X161403617Y-88955029D01*
X161464746Y-89075000D01*
X161492976Y-89130405D01*
X161608672Y-89289646D01*
X161747854Y-89428828D01*
X161907095Y-89544524D01*
X161938717Y-89560636D01*
X162082470Y-89633882D01*
X162082472Y-89633882D01*
X162082475Y-89633884D01*
X162146195Y-89654588D01*
X162269673Y-89694709D01*
X162464078Y-89725500D01*
X162464083Y-89725500D01*
X162660922Y-89725500D01*
X162855326Y-89694709D01*
X162912912Y-89675998D01*
X163042525Y-89633884D01*
X163217905Y-89544524D01*
X163377146Y-89428828D01*
X163516328Y-89289646D01*
X163632024Y-89130405D01*
X163721384Y-88955025D01*
X163782209Y-88767826D01*
X163787257Y-88735953D01*
X163813000Y-88573422D01*
X163813000Y-88524500D01*
X163832685Y-88457461D01*
X163885489Y-88411706D01*
X163937000Y-88400500D01*
X165882745Y-88400500D01*
X165949784Y-88420185D01*
G37*
%TD.AperFunction*%
%TA.AperFunction,Conductor*%
G36*
X193749784Y-83620185D02*
G01*
X193770426Y-83636819D01*
X194863181Y-84729574D01*
X194896666Y-84790897D01*
X194899500Y-84817255D01*
X194899500Y-88688132D01*
X194879815Y-88755171D01*
X194827011Y-88800926D01*
X194757853Y-88810870D01*
X194694297Y-88781845D01*
X194660939Y-88735585D01*
X194657926Y-88728311D01*
X194573344Y-88524112D01*
X194458611Y-88325388D01*
X194458608Y-88325385D01*
X194458607Y-88325382D01*
X194333618Y-88162495D01*
X194318919Y-88143339D01*
X194318918Y-88143338D01*
X194318911Y-88143330D01*
X194156670Y-87981089D01*
X194156661Y-87981081D01*
X193974617Y-87841392D01*
X193936863Y-87819595D01*
X193815795Y-87749696D01*
X193775890Y-87726657D01*
X193775876Y-87726650D01*
X193563887Y-87638842D01*
X193483684Y-87617352D01*
X193342238Y-87579452D01*
X193304215Y-87574446D01*
X193114741Y-87549500D01*
X193114734Y-87549500D01*
X192885266Y-87549500D01*
X192885258Y-87549500D01*
X192668715Y-87578009D01*
X192657762Y-87579452D01*
X192582941Y-87599500D01*
X192436112Y-87638842D01*
X192224123Y-87726650D01*
X192224109Y-87726657D01*
X192025382Y-87841392D01*
X191843338Y-87981081D01*
X191681081Y-88143338D01*
X191541392Y-88325382D01*
X191426657Y-88524109D01*
X191426650Y-88524123D01*
X191338842Y-88736112D01*
X191320374Y-88805037D01*
X191280186Y-88955025D01*
X191279453Y-88957759D01*
X191279451Y-88957770D01*
X191249500Y-89185258D01*
X191249500Y-89414741D01*
X191274438Y-89604152D01*
X191279452Y-89642238D01*
X191314018Y-89771240D01*
X191338842Y-89863887D01*
X191426650Y-90075876D01*
X191426657Y-90075890D01*
X191541392Y-90274617D01*
X191681081Y-90456661D01*
X191681089Y-90456670D01*
X191843330Y-90618911D01*
X191843338Y-90618918D01*
X192025382Y-90758607D01*
X192025385Y-90758608D01*
X192025388Y-90758611D01*
X192224112Y-90873344D01*
X192224117Y-90873346D01*
X192224123Y-90873349D01*
X192315480Y-90911190D01*
X192436113Y-90961158D01*
X192657762Y-91020548D01*
X192885266Y-91050500D01*
X192885273Y-91050500D01*
X193114727Y-91050500D01*
X193114734Y-91050500D01*
X193342238Y-91020548D01*
X193563887Y-90961158D01*
X193775888Y-90873344D01*
X193974612Y-90758611D01*
X194156661Y-90618919D01*
X194156665Y-90618914D01*
X194156670Y-90618911D01*
X194318911Y-90456670D01*
X194318914Y-90456665D01*
X194318919Y-90456661D01*
X194458611Y-90274612D01*
X194573344Y-90075888D01*
X194660939Y-89864414D01*
X194704780Y-89810011D01*
X194771074Y-89787946D01*
X194838773Y-89805225D01*
X194886384Y-89856362D01*
X194899500Y-89911867D01*
X194899500Y-94182745D01*
X194879815Y-94249784D01*
X194863181Y-94270426D01*
X193470426Y-95663181D01*
X193409103Y-95696666D01*
X193382745Y-95699500D01*
X190566868Y-95699500D01*
X190499829Y-95679815D01*
X190454074Y-95627011D01*
X190443579Y-95562244D01*
X190448416Y-95517255D01*
X190450500Y-95497873D01*
X190450499Y-94702128D01*
X190444091Y-94642517D01*
X190442760Y-94638949D01*
X190393797Y-94507671D01*
X190393793Y-94507664D01*
X190307547Y-94392455D01*
X190307544Y-94392452D01*
X190192335Y-94306206D01*
X190192328Y-94306202D01*
X190057482Y-94255908D01*
X190057483Y-94255908D01*
X189997883Y-94249501D01*
X189997881Y-94249500D01*
X189997873Y-94249500D01*
X189997864Y-94249500D01*
X189002129Y-94249500D01*
X189002123Y-94249501D01*
X188942516Y-94255908D01*
X188807671Y-94306202D01*
X188807664Y-94306206D01*
X188692455Y-94392452D01*
X188692452Y-94392455D01*
X188606206Y-94507664D01*
X188606202Y-94507671D01*
X188564742Y-94618833D01*
X188522871Y-94674767D01*
X188457407Y-94699184D01*
X188448560Y-94699500D01*
X184476013Y-94699500D01*
X184408974Y-94679815D01*
X184407123Y-94678603D01*
X184358197Y-94645912D01*
X184347776Y-94638949D01*
X184347775Y-94638948D01*
X184347774Y-94638948D01*
X184347771Y-94638947D01*
X184250003Y-94619500D01*
X184250000Y-94619500D01*
X182750000Y-94619500D01*
X182749997Y-94619500D01*
X182652228Y-94638947D01*
X182652221Y-94638950D01*
X182569334Y-94694333D01*
X182569333Y-94694334D01*
X182513950Y-94777221D01*
X182513947Y-94777228D01*
X182494561Y-94874691D01*
X182462176Y-94936602D01*
X182401461Y-94971176D01*
X182372944Y-94974500D01*
X181382255Y-94974500D01*
X181315216Y-94954815D01*
X181294574Y-94938181D01*
X180056819Y-93700426D01*
X180042115Y-93673498D01*
X180025523Y-93647680D01*
X180024631Y-93641479D01*
X180023334Y-93639103D01*
X180020500Y-93612745D01*
X180020500Y-93501543D01*
X180040185Y-93434504D01*
X180092989Y-93388749D01*
X180162147Y-93378805D01*
X180218810Y-93402276D01*
X180296761Y-93460630D01*
X180307668Y-93468795D01*
X180307671Y-93468797D01*
X180442517Y-93519091D01*
X180442516Y-93519091D01*
X180449444Y-93519835D01*
X180502127Y-93525500D01*
X181297872Y-93525499D01*
X181357483Y-93519091D01*
X181492331Y-93468796D01*
X181607546Y-93382546D01*
X181693796Y-93267331D01*
X181744091Y-93132483D01*
X181750500Y-93072873D01*
X181750499Y-91677135D01*
X185649500Y-91677135D01*
X185649500Y-93072870D01*
X185649501Y-93072876D01*
X185655908Y-93132483D01*
X185706202Y-93267328D01*
X185706206Y-93267335D01*
X185792452Y-93382544D01*
X185792455Y-93382547D01*
X185907664Y-93468793D01*
X185907671Y-93468797D01*
X186042517Y-93519091D01*
X186042516Y-93519091D01*
X186049444Y-93519835D01*
X186102127Y-93525500D01*
X186897872Y-93525499D01*
X186957483Y-93519091D01*
X187092331Y-93468796D01*
X187207546Y-93382546D01*
X187293796Y-93267331D01*
X187344091Y-93132483D01*
X187350500Y-93072873D01*
X187350499Y-91677128D01*
X187344091Y-91617517D01*
X187343993Y-91617255D01*
X187293797Y-91482671D01*
X187293793Y-91482664D01*
X187207547Y-91367455D01*
X187207544Y-91367452D01*
X187092335Y-91281206D01*
X187092328Y-91281202D01*
X186957482Y-91230908D01*
X186957483Y-91230908D01*
X186897883Y-91224501D01*
X186897881Y-91224500D01*
X186897873Y-91224500D01*
X186897864Y-91224500D01*
X186102129Y-91224500D01*
X186102123Y-91224501D01*
X186042516Y-91230908D01*
X185907671Y-91281202D01*
X185907664Y-91281206D01*
X185792455Y-91367452D01*
X185792452Y-91367455D01*
X185706206Y-91482664D01*
X185706202Y-91482671D01*
X185655908Y-91617517D01*
X185649501Y-91677116D01*
X185649501Y-91677123D01*
X185649500Y-91677135D01*
X181750499Y-91677135D01*
X181750499Y-91677128D01*
X181744091Y-91617517D01*
X181743993Y-91617255D01*
X181693797Y-91482671D01*
X181693793Y-91482664D01*
X181607547Y-91367455D01*
X181607544Y-91367452D01*
X181492335Y-91281206D01*
X181492328Y-91281202D01*
X181357482Y-91230908D01*
X181357483Y-91230908D01*
X181297883Y-91224501D01*
X181297881Y-91224500D01*
X181297873Y-91224500D01*
X181297864Y-91224500D01*
X180502129Y-91224500D01*
X180502123Y-91224501D01*
X180442516Y-91230908D01*
X180307671Y-91281202D01*
X180307669Y-91281204D01*
X180218811Y-91347723D01*
X180206188Y-91352430D01*
X180196011Y-91361250D01*
X180174095Y-91364401D01*
X180153347Y-91372140D01*
X180140185Y-91369276D01*
X180126853Y-91371194D01*
X180106708Y-91361994D01*
X180085074Y-91357288D01*
X180075551Y-91347765D01*
X180063297Y-91342169D01*
X180051324Y-91323539D01*
X180035668Y-91307883D01*
X180031981Y-91293441D01*
X180025523Y-91283391D01*
X180020500Y-91248456D01*
X180020500Y-91032729D01*
X180020501Y-91032716D01*
X180020501Y-90917274D01*
X180020501Y-90917273D01*
X179993207Y-90815413D01*
X179954861Y-90748996D01*
X179953344Y-90746368D01*
X179940482Y-90724090D01*
X179940478Y-90724085D01*
X179595915Y-90379522D01*
X179595913Y-90379520D01*
X179537703Y-90345912D01*
X179504589Y-90326793D01*
X179453657Y-90313146D01*
X179402727Y-90299500D01*
X179402726Y-90299500D01*
X178531900Y-90299500D01*
X178464861Y-90279815D01*
X178450425Y-90268182D01*
X178446210Y-90265172D01*
X178333628Y-90210135D01*
X178333626Y-90210134D01*
X178333625Y-90210134D01*
X178260636Y-90199500D01*
X176539364Y-90199500D01*
X176466375Y-90210134D01*
X176466373Y-90210134D01*
X176466371Y-90210135D01*
X176353789Y-90265172D01*
X176353787Y-90265174D01*
X176262181Y-90356781D01*
X176200858Y-90390266D01*
X176131166Y-90385282D01*
X176075233Y-90343410D01*
X176050816Y-90277946D01*
X176050500Y-90269100D01*
X176050500Y-89467254D01*
X176059144Y-89437813D01*
X176065668Y-89407827D01*
X176069422Y-89402811D01*
X176070185Y-89400215D01*
X176086813Y-89379578D01*
X176242680Y-89223711D01*
X176304000Y-89190229D01*
X176373691Y-89195213D01*
X176384807Y-89199990D01*
X176432557Y-89223333D01*
X176466372Y-89239865D01*
X176466373Y-89239865D01*
X176466375Y-89239866D01*
X176539364Y-89250500D01*
X176539370Y-89250500D01*
X178260630Y-89250500D01*
X178260636Y-89250500D01*
X178333625Y-89239866D01*
X178391118Y-89211759D01*
X178446210Y-89184827D01*
X178454575Y-89178855D01*
X178455761Y-89180516D01*
X178505542Y-89153334D01*
X178531900Y-89150500D01*
X180402745Y-89150500D01*
X180469784Y-89170185D01*
X180490426Y-89186819D01*
X181649519Y-90345912D01*
X181649520Y-90345913D01*
X181724087Y-90420480D01*
X181815413Y-90473207D01*
X181917273Y-90500500D01*
X181917275Y-90500500D01*
X182652725Y-90500500D01*
X182652727Y-90500500D01*
X182754588Y-90473207D01*
X182845913Y-90420480D01*
X183520480Y-89745913D01*
X183573207Y-89654588D01*
X183600500Y-89552727D01*
X183600500Y-89541254D01*
X183620185Y-89474215D01*
X183672989Y-89428460D01*
X183742147Y-89418516D01*
X183805703Y-89447541D01*
X183811477Y-89452918D01*
X183811653Y-89453045D01*
X183811658Y-89453050D01*
X183924694Y-89510645D01*
X183924698Y-89510647D01*
X184018475Y-89525499D01*
X184018481Y-89525500D01*
X184381518Y-89525499D01*
X184475304Y-89510646D01*
X184588342Y-89453050D01*
X184678050Y-89363342D01*
X184735646Y-89250304D01*
X184735646Y-89250302D01*
X184735647Y-89250301D01*
X184746962Y-89178855D01*
X184750500Y-89156519D01*
X184750499Y-87843482D01*
X184735646Y-87749696D01*
X184678050Y-87636658D01*
X184678046Y-87636654D01*
X184678045Y-87636652D01*
X184636819Y-87595426D01*
X184603334Y-87534103D01*
X184600500Y-87507745D01*
X184600500Y-85717255D01*
X184620185Y-85650216D01*
X184636819Y-85629574D01*
X184803081Y-85463312D01*
X191398600Y-85463312D01*
X191398600Y-85636687D01*
X191425720Y-85807913D01*
X191479290Y-85972788D01*
X191479291Y-85972791D01*
X191512176Y-86037330D01*
X191557998Y-86127260D01*
X191659899Y-86267514D01*
X191782486Y-86390101D01*
X191922740Y-86492002D01*
X191978629Y-86520479D01*
X192077208Y-86570708D01*
X192077211Y-86570709D01*
X192116311Y-86583413D01*
X192242088Y-86624280D01*
X192321257Y-86636819D01*
X192413313Y-86651400D01*
X192413318Y-86651400D01*
X192586687Y-86651400D01*
X192678743Y-86636819D01*
X192757912Y-86624280D01*
X192922791Y-86570708D01*
X193077260Y-86492002D01*
X193217514Y-86390101D01*
X193340101Y-86267514D01*
X193442002Y-86127260D01*
X193520708Y-85972791D01*
X193574280Y-85807912D01*
X193591292Y-85700500D01*
X193601400Y-85636687D01*
X193601400Y-85463312D01*
X193582726Y-85345413D01*
X193574280Y-85292088D01*
X193547494Y-85209648D01*
X193520709Y-85127211D01*
X193520708Y-85127208D01*
X193459290Y-85006670D01*
X193442002Y-84972740D01*
X193340101Y-84832486D01*
X193217514Y-84709899D01*
X193077260Y-84607998D01*
X192922791Y-84529291D01*
X192922788Y-84529290D01*
X192757913Y-84475720D01*
X192586687Y-84448600D01*
X192586682Y-84448600D01*
X192413318Y-84448600D01*
X192413313Y-84448600D01*
X192242086Y-84475720D01*
X192077211Y-84529290D01*
X192077208Y-84529291D01*
X191922739Y-84607998D01*
X191842719Y-84666136D01*
X191782486Y-84709899D01*
X191782484Y-84709901D01*
X191782483Y-84709901D01*
X191659901Y-84832483D01*
X191659901Y-84832484D01*
X191659899Y-84832486D01*
X191636384Y-84864852D01*
X191557998Y-84972739D01*
X191479291Y-85127208D01*
X191479290Y-85127211D01*
X191425720Y-85292086D01*
X191398600Y-85463312D01*
X184803081Y-85463312D01*
X186629574Y-83636819D01*
X186690897Y-83603334D01*
X186717255Y-83600500D01*
X193682745Y-83600500D01*
X193749784Y-83620185D01*
G37*
%TD.AperFunction*%
%TA.AperFunction,Conductor*%
G36*
X170249784Y-75920185D02*
G01*
X170270426Y-75936819D01*
X170363181Y-76029574D01*
X170396666Y-76090897D01*
X170399500Y-76117255D01*
X170399500Y-77382745D01*
X170379815Y-77449784D01*
X170363181Y-77470426D01*
X168179522Y-79654084D01*
X168179520Y-79654087D01*
X168126793Y-79745411D01*
X168126793Y-79745412D01*
X168121622Y-79764710D01*
X168121622Y-79764711D01*
X168121621Y-79764710D01*
X168099500Y-79847271D01*
X168099500Y-79847273D01*
X168099500Y-87347273D01*
X168099500Y-87452727D01*
X168109314Y-87489354D01*
X168126793Y-87554589D01*
X168141148Y-87579451D01*
X168179520Y-87645913D01*
X168879519Y-88345912D01*
X168879520Y-88345913D01*
X168954087Y-88420480D01*
X169045413Y-88473207D01*
X169107593Y-88489868D01*
X169167253Y-88526231D01*
X169197783Y-88589078D01*
X169199500Y-88609642D01*
X169199500Y-88875500D01*
X169179815Y-88942539D01*
X169127011Y-88988294D01*
X169075500Y-88999500D01*
X168667255Y-88999500D01*
X168600216Y-88979815D01*
X168579574Y-88963181D01*
X167636819Y-88020426D01*
X167603334Y-87959103D01*
X167600500Y-87932745D01*
X167600500Y-81747275D01*
X167600500Y-81747273D01*
X167573207Y-81645413D01*
X167573207Y-81645412D01*
X167520480Y-81554087D01*
X166545913Y-80579520D01*
X166500250Y-80553156D01*
X166454589Y-80526793D01*
X166403657Y-80513146D01*
X166352727Y-80499500D01*
X166352726Y-80499500D01*
X164317255Y-80499500D01*
X164250216Y-80479815D01*
X164229574Y-80463181D01*
X163002454Y-79236061D01*
X162968969Y-79174738D01*
X162973953Y-79105046D01*
X163015825Y-79049113D01*
X163038296Y-79036317D01*
X163038184Y-79036096D01*
X163063534Y-79023179D01*
X163217905Y-78944524D01*
X163377146Y-78828828D01*
X163516328Y-78689646D01*
X163632024Y-78530405D01*
X163721384Y-78355025D01*
X163782209Y-78167826D01*
X163795755Y-78082299D01*
X163813000Y-77973422D01*
X163813000Y-77776577D01*
X163782209Y-77582173D01*
X163745900Y-77470426D01*
X163721384Y-77394975D01*
X163721382Y-77394972D01*
X163721382Y-77394970D01*
X163674243Y-77302455D01*
X163632024Y-77219595D01*
X163516328Y-77060354D01*
X163377146Y-76921172D01*
X163217905Y-76805476D01*
X163204410Y-76798600D01*
X163042529Y-76716117D01*
X162855326Y-76655290D01*
X162660922Y-76624500D01*
X162660917Y-76624500D01*
X162464083Y-76624500D01*
X162464078Y-76624500D01*
X162269673Y-76655290D01*
X162082470Y-76716117D01*
X161907094Y-76805476D01*
X161816241Y-76871485D01*
X161747854Y-76921172D01*
X161747852Y-76921174D01*
X161747851Y-76921174D01*
X161608674Y-77060351D01*
X161608674Y-77060352D01*
X161608672Y-77060354D01*
X161558985Y-77128741D01*
X161492976Y-77219594D01*
X161403617Y-77394970D01*
X161342431Y-77583281D01*
X161302993Y-77640956D01*
X161238634Y-77668154D01*
X161169788Y-77656239D01*
X161118312Y-77608995D01*
X161100500Y-77544962D01*
X161100500Y-76717254D01*
X161120185Y-76650215D01*
X161136819Y-76629573D01*
X161829573Y-75936819D01*
X161890896Y-75903334D01*
X161917254Y-75900500D01*
X170182745Y-75900500D01*
X170249784Y-75920185D01*
G37*
%TD.AperFunction*%
%TA.AperFunction,Conductor*%
G36*
X161305703Y-78111324D02*
G01*
X161342431Y-78166718D01*
X161403617Y-78355029D01*
X161438144Y-78422791D01*
X161492976Y-78530405D01*
X161608672Y-78689646D01*
X161747854Y-78828828D01*
X161907095Y-78944524D01*
X162082475Y-79033884D01*
X162082478Y-79033885D01*
X162085441Y-79035112D01*
X162086397Y-79035883D01*
X162086816Y-79036096D01*
X162086771Y-79036183D01*
X162139849Y-79078947D01*
X162161921Y-79145239D01*
X162162000Y-79149678D01*
X162162000Y-79415226D01*
X162189293Y-79517089D01*
X162215656Y-79562750D01*
X162242020Y-79608413D01*
X163779519Y-81145912D01*
X163779520Y-81145913D01*
X163854087Y-81220480D01*
X163945413Y-81273207D01*
X164047273Y-81300500D01*
X164152727Y-81300500D01*
X166082745Y-81300500D01*
X166149784Y-81320185D01*
X166170426Y-81336819D01*
X166763181Y-81929574D01*
X166796666Y-81990897D01*
X166799500Y-82017255D01*
X166799500Y-87833745D01*
X166779815Y-87900784D01*
X166727011Y-87946539D01*
X166657853Y-87956483D01*
X166594297Y-87927458D01*
X166587819Y-87921426D01*
X166345915Y-87679522D01*
X166345913Y-87679520D01*
X166286721Y-87645345D01*
X166254589Y-87626793D01*
X166164229Y-87602582D01*
X166152727Y-87599500D01*
X166152726Y-87599500D01*
X163506836Y-87599500D01*
X163439797Y-87579815D01*
X163419155Y-87563181D01*
X163377148Y-87521174D01*
X163377146Y-87521172D01*
X163217905Y-87405476D01*
X163042529Y-87316117D01*
X162855326Y-87255290D01*
X162660922Y-87224500D01*
X162660917Y-87224500D01*
X162464083Y-87224500D01*
X162464078Y-87224500D01*
X162269673Y-87255290D01*
X162082470Y-87316117D01*
X161907094Y-87405476D01*
X161863385Y-87437233D01*
X161747854Y-87521172D01*
X161747852Y-87521174D01*
X161747851Y-87521174D01*
X161608674Y-87660351D01*
X161608674Y-87660352D01*
X161608672Y-87660354D01*
X161594533Y-87679815D01*
X161492976Y-87819594D01*
X161403617Y-87994970D01*
X161342431Y-88183281D01*
X161302993Y-88240956D01*
X161238634Y-88268154D01*
X161169788Y-88256239D01*
X161118312Y-88208995D01*
X161100500Y-88144962D01*
X161100500Y-78205037D01*
X161120185Y-78137998D01*
X161172989Y-78092243D01*
X161242147Y-78082299D01*
X161305703Y-78111324D01*
G37*
%TD.AperFunction*%
%TA.AperFunction,Conductor*%
G36*
X191306940Y-69998800D02*
G01*
X191333399Y-70000882D01*
X191480008Y-70012418D01*
X191499215Y-70015461D01*
X191660928Y-70054283D01*
X191663264Y-70054844D01*
X191681770Y-70060857D01*
X191837626Y-70125414D01*
X191854963Y-70134247D01*
X191998817Y-70222399D01*
X192014554Y-70233833D01*
X192088887Y-70297319D01*
X192142841Y-70343400D01*
X192156599Y-70357158D01*
X192160165Y-70361333D01*
X192266165Y-70485443D01*
X192277600Y-70501182D01*
X192365752Y-70645036D01*
X192374585Y-70662373D01*
X192439142Y-70818229D01*
X192445155Y-70836735D01*
X192484537Y-71000778D01*
X192487581Y-71019997D01*
X192501199Y-71193058D01*
X192501581Y-71202785D01*
X192501581Y-71263809D01*
X192501659Y-71264403D01*
X192502717Y-71280638D01*
X192500363Y-75461443D01*
X192500531Y-75462721D01*
X192501582Y-75478832D01*
X192501582Y-75531021D01*
X192510940Y-75608087D01*
X192533674Y-75795297D01*
X192597384Y-76053771D01*
X192691785Y-76302681D01*
X192691788Y-76302688D01*
X192815497Y-76538395D01*
X192859130Y-76601607D01*
X192966725Y-76757484D01*
X192966727Y-76757486D01*
X192966729Y-76757489D01*
X193143253Y-76956744D01*
X193143255Y-76956746D01*
X193342510Y-77133270D01*
X193342516Y-77133275D01*
X193467570Y-77219594D01*
X193561604Y-77284502D01*
X193797311Y-77408211D01*
X193797319Y-77408215D01*
X194046229Y-77502616D01*
X194304703Y-77566326D01*
X194568972Y-77598417D01*
X194612776Y-77598417D01*
X194628955Y-77599477D01*
X194636229Y-77600434D01*
X220300438Y-77598417D01*
X220431028Y-77598417D01*
X220695297Y-77566326D01*
X220953771Y-77502616D01*
X221202681Y-77408215D01*
X221304956Y-77354535D01*
X221438395Y-77284502D01*
X221463726Y-77267017D01*
X221657484Y-77133275D01*
X221856745Y-76956745D01*
X222033275Y-76757484D01*
X222184500Y-76538398D01*
X222194993Y-76518407D01*
X222273760Y-76368329D01*
X222308215Y-76302681D01*
X222402616Y-76053771D01*
X222466326Y-75795297D01*
X222498417Y-75531028D01*
X222498417Y-75485606D01*
X222499488Y-75469347D01*
X222500182Y-75464095D01*
X222500181Y-75464095D01*
X222500183Y-75464092D01*
X222500682Y-74577065D01*
X223249500Y-74577065D01*
X223249500Y-74822934D01*
X223266737Y-74953854D01*
X223281591Y-75066677D01*
X223338526Y-75279162D01*
X223345222Y-75304152D01*
X223345225Y-75304162D01*
X223428951Y-75506294D01*
X223439306Y-75531292D01*
X223562233Y-75744208D01*
X223562235Y-75744211D01*
X223562236Y-75744212D01*
X223711897Y-75939254D01*
X223711903Y-75939261D01*
X223885738Y-76113096D01*
X223885745Y-76113102D01*
X223914660Y-76135289D01*
X224080792Y-76262767D01*
X224293708Y-76385694D01*
X224520847Y-76479778D01*
X224758323Y-76543409D01*
X225002073Y-76575500D01*
X225002080Y-76575500D01*
X225247920Y-76575500D01*
X225247927Y-76575500D01*
X225491677Y-76543409D01*
X225729153Y-76479778D01*
X225956292Y-76385694D01*
X226169208Y-76262767D01*
X226364256Y-76113101D01*
X226538101Y-75939256D01*
X226687767Y-75744208D01*
X226810694Y-75531292D01*
X226904778Y-75304153D01*
X226968409Y-75066677D01*
X227000500Y-74822927D01*
X227000500Y-74577073D01*
X226968409Y-74333323D01*
X226904778Y-74095847D01*
X226810694Y-73868708D01*
X226687767Y-73655792D01*
X226538101Y-73460744D01*
X226538096Y-73460738D01*
X226364261Y-73286903D01*
X226364254Y-73286897D01*
X226169212Y-73137236D01*
X226169211Y-73137235D01*
X226169208Y-73137233D01*
X225956292Y-73014306D01*
X225956285Y-73014303D01*
X225729162Y-72920225D01*
X225729155Y-72920223D01*
X225729153Y-72920222D01*
X225491677Y-72856591D01*
X225450939Y-72851227D01*
X225247934Y-72824500D01*
X225247927Y-72824500D01*
X225002073Y-72824500D01*
X225002065Y-72824500D01*
X224770059Y-72855045D01*
X224758323Y-72856591D01*
X224614149Y-72895222D01*
X224520847Y-72920222D01*
X224520837Y-72920225D01*
X224293714Y-73014303D01*
X224293705Y-73014307D01*
X224080787Y-73137236D01*
X223885745Y-73286897D01*
X223885738Y-73286903D01*
X223711903Y-73460738D01*
X223711897Y-73460745D01*
X223562236Y-73655787D01*
X223439307Y-73868705D01*
X223439303Y-73868714D01*
X223345225Y-74095837D01*
X223345222Y-74095847D01*
X223288291Y-74308320D01*
X223281592Y-74333320D01*
X223281590Y-74333331D01*
X223249500Y-74577065D01*
X222500682Y-74577065D01*
X222502545Y-71268113D01*
X222502582Y-71267979D01*
X222502582Y-71206887D01*
X222502585Y-71206875D01*
X222502964Y-71197232D01*
X222507767Y-71136208D01*
X222516586Y-71024168D01*
X222519630Y-71004954D01*
X222520132Y-71002866D01*
X222559016Y-70840904D01*
X222565028Y-70822403D01*
X222629595Y-70666527D01*
X222638413Y-70649221D01*
X222726576Y-70505352D01*
X222738008Y-70489619D01*
X222741578Y-70485439D01*
X222847579Y-70361328D01*
X222861328Y-70347579D01*
X222989621Y-70238006D01*
X223005352Y-70226576D01*
X223149221Y-70138413D01*
X223166527Y-70129595D01*
X223322408Y-70065026D01*
X223340904Y-70059016D01*
X223504958Y-70019629D01*
X223524168Y-70016586D01*
X223697234Y-70002964D01*
X223706964Y-70002582D01*
X223767979Y-70002582D01*
X242932021Y-70002582D01*
X242993036Y-70002582D01*
X243002766Y-70002964D01*
X243175829Y-70016586D01*
X243195043Y-70019629D01*
X243359091Y-70059015D01*
X243377595Y-70065027D01*
X243533467Y-70129593D01*
X243550783Y-70138416D01*
X243687831Y-70222399D01*
X243694639Y-70226571D01*
X243710380Y-70238008D01*
X243838666Y-70347575D01*
X243852424Y-70361333D01*
X243961991Y-70489619D01*
X243973428Y-70505360D01*
X244061580Y-70649211D01*
X244070410Y-70666540D01*
X244134971Y-70822403D01*
X244140984Y-70840908D01*
X244180369Y-71004954D01*
X244183413Y-71024171D01*
X244197036Y-71197232D01*
X244197418Y-71206963D01*
X244197418Y-85393036D01*
X244197036Y-85402767D01*
X244183413Y-85575828D01*
X244180369Y-85595045D01*
X244140984Y-85759091D01*
X244134971Y-85777596D01*
X244070410Y-85933459D01*
X244061577Y-85950793D01*
X244048098Y-85972791D01*
X243973428Y-86094639D01*
X243961991Y-86110380D01*
X243852424Y-86238666D01*
X243838666Y-86252424D01*
X243710380Y-86361991D01*
X243694639Y-86373428D01*
X243597736Y-86432810D01*
X243550793Y-86461577D01*
X243533459Y-86470410D01*
X243377596Y-86534971D01*
X243359091Y-86540984D01*
X243195045Y-86580369D01*
X243175827Y-86583413D01*
X243002758Y-86597036D01*
X242993082Y-86597418D01*
X242932021Y-86597418D01*
X242931919Y-86597444D01*
X242923881Y-86597448D01*
X242923880Y-86597447D01*
X242923879Y-86597448D01*
X233102585Y-86601580D01*
X233102529Y-86601581D01*
X233102296Y-86601581D01*
X233102023Y-86601582D01*
X232968978Y-86601582D01*
X232829509Y-86618518D01*
X232704703Y-86633674D01*
X232446229Y-86697384D01*
X232212695Y-86785953D01*
X232197311Y-86791788D01*
X231961604Y-86915498D01*
X231870983Y-86978050D01*
X231804629Y-86999933D01*
X231800543Y-87000000D01*
X231300000Y-87000000D01*
X231300000Y-87500542D01*
X231280315Y-87567581D01*
X231278050Y-87570982D01*
X231215498Y-87661604D01*
X231091788Y-87897311D01*
X231091785Y-87897319D01*
X230997384Y-88146229D01*
X230933674Y-88404703D01*
X230925356Y-88473205D01*
X230901582Y-88668977D01*
X230901582Y-88712272D01*
X230900515Y-88728504D01*
X230899531Y-88735953D01*
X230897452Y-93123772D01*
X230897452Y-93123774D01*
X230897448Y-93131907D01*
X230897418Y-93132021D01*
X230897418Y-93193097D01*
X230897415Y-93193106D01*
X230897036Y-93202767D01*
X230883413Y-93375828D01*
X230880369Y-93395045D01*
X230840984Y-93559091D01*
X230834971Y-93577596D01*
X230770410Y-93733459D01*
X230761576Y-93750797D01*
X230673428Y-93894639D01*
X230661991Y-93910380D01*
X230552424Y-94038666D01*
X230538666Y-94052424D01*
X230410380Y-94161991D01*
X230394639Y-94173428D01*
X230297736Y-94232810D01*
X230250793Y-94261577D01*
X230233459Y-94270410D01*
X230077596Y-94334971D01*
X230059091Y-94340984D01*
X229895045Y-94380369D01*
X229875828Y-94383413D01*
X229718907Y-94395765D01*
X229702764Y-94397036D01*
X229696121Y-94397380D01*
X229694594Y-94397418D01*
X229632021Y-94397418D01*
X229625613Y-94399134D01*
X229610864Y-94399502D01*
X229610369Y-94399370D01*
X229607785Y-94399539D01*
X229607786Y-94399540D01*
X198094984Y-94401582D01*
X197968978Y-94401582D01*
X197829509Y-94418518D01*
X197704703Y-94433674D01*
X197446229Y-94497384D01*
X197264635Y-94566255D01*
X197197311Y-94591788D01*
X196961604Y-94715498D01*
X196870983Y-94778050D01*
X196804629Y-94799933D01*
X196800543Y-94800000D01*
X196300000Y-94800000D01*
X196300000Y-95300542D01*
X196280315Y-95367581D01*
X196278050Y-95370982D01*
X196215498Y-95461604D01*
X196091788Y-95697311D01*
X196091785Y-95697319D01*
X195997384Y-95946229D01*
X195934012Y-96203334D01*
X195933674Y-96204705D01*
X195901582Y-96468978D01*
X195901582Y-96600895D01*
X195899490Y-101819644D01*
X195899108Y-101829323D01*
X195887552Y-101976148D01*
X195884508Y-101995367D01*
X195845047Y-102159729D01*
X195839034Y-102178235D01*
X195774345Y-102334403D01*
X195765511Y-102351739D01*
X195677196Y-102495855D01*
X195665761Y-102511595D01*
X195613140Y-102573206D01*
X195555980Y-102640130D01*
X195542221Y-102653888D01*
X195413688Y-102763665D01*
X195397946Y-102775102D01*
X195253823Y-102863420D01*
X195236487Y-102872253D01*
X195080323Y-102936938D01*
X195061817Y-102942951D01*
X194897458Y-102982410D01*
X194878240Y-102985454D01*
X194731097Y-102997034D01*
X194721376Y-102997416D01*
X160974877Y-102999498D01*
X160965141Y-102999116D01*
X160792086Y-102985497D01*
X160772867Y-102982453D01*
X160608823Y-102943070D01*
X160590317Y-102937057D01*
X160434452Y-102872495D01*
X160417115Y-102863661D01*
X160273274Y-102775515D01*
X160257533Y-102764079D01*
X160129246Y-102654513D01*
X160115486Y-102640753D01*
X160005920Y-102512466D01*
X159994484Y-102496725D01*
X159906338Y-102352884D01*
X159897504Y-102335547D01*
X159884994Y-102305347D01*
X159832940Y-102179675D01*
X159826931Y-102161183D01*
X159787545Y-101997128D01*
X159784502Y-101977915D01*
X159781786Y-101943409D01*
X159770882Y-101804853D01*
X159770500Y-101795124D01*
X159770500Y-76447273D01*
X160299500Y-76447273D01*
X160299500Y-76454208D01*
X160299500Y-100152726D01*
X160326793Y-100254589D01*
X160348477Y-100292145D01*
X160379520Y-100345913D01*
X162479519Y-102445912D01*
X162479520Y-102445913D01*
X162554087Y-102520480D01*
X162645413Y-102573207D01*
X162747273Y-102600500D01*
X162747275Y-102600500D01*
X168352725Y-102600500D01*
X168352727Y-102600500D01*
X168454588Y-102573207D01*
X168545913Y-102520480D01*
X170420480Y-100645913D01*
X170473206Y-100554588D01*
X170473207Y-100554587D01*
X170500500Y-100452727D01*
X170500500Y-100149749D01*
X170520185Y-100082710D01*
X170550190Y-100050482D01*
X170554477Y-100047273D01*
X170607546Y-100007546D01*
X170693796Y-99892331D01*
X170711022Y-99846146D01*
X170735258Y-99781167D01*
X170777129Y-99725233D01*
X170842593Y-99700816D01*
X170851440Y-99700500D01*
X171848560Y-99700500D01*
X171915599Y-99720185D01*
X171961354Y-99772989D01*
X171964742Y-99781167D01*
X172006202Y-99892328D01*
X172006206Y-99892335D01*
X172092452Y-100007544D01*
X172092455Y-100007547D01*
X172207664Y-100093793D01*
X172207671Y-100093797D01*
X172342517Y-100144091D01*
X172342516Y-100144091D01*
X172346535Y-100144523D01*
X172402127Y-100150500D01*
X173397872Y-100150499D01*
X173457483Y-100144091D01*
X173592331Y-100093796D01*
X173707546Y-100007546D01*
X173793796Y-99892331D01*
X173811022Y-99846146D01*
X173835258Y-99781167D01*
X173877129Y-99725233D01*
X173942593Y-99700816D01*
X173951440Y-99700500D01*
X175048560Y-99700500D01*
X175115599Y-99720185D01*
X175161354Y-99772989D01*
X175164742Y-99781167D01*
X175206202Y-99892328D01*
X175206206Y-99892335D01*
X175292452Y-100007544D01*
X175292455Y-100007547D01*
X175407664Y-100093793D01*
X175407671Y-100093797D01*
X175542517Y-100144091D01*
X175542516Y-100144091D01*
X175546535Y-100144523D01*
X175602127Y-100150500D01*
X176597872Y-100150499D01*
X176657483Y-100144091D01*
X176792331Y-100093796D01*
X176907546Y-100007546D01*
X176930364Y-99977065D01*
X189424500Y-99977065D01*
X189424500Y-100222934D01*
X189440692Y-100345915D01*
X189456591Y-100466677D01*
X189483936Y-100568729D01*
X189520222Y-100704152D01*
X189520225Y-100704162D01*
X189614303Y-100931285D01*
X189614306Y-100931292D01*
X189737233Y-101144208D01*
X189737235Y-101144211D01*
X189737236Y-101144212D01*
X189886897Y-101339254D01*
X189886903Y-101339261D01*
X190060738Y-101513096D01*
X190060744Y-101513101D01*
X190255792Y-101662767D01*
X190468708Y-101785694D01*
X190695847Y-101879778D01*
X190933323Y-101943409D01*
X191177073Y-101975500D01*
X191177080Y-101975500D01*
X191422920Y-101975500D01*
X191422927Y-101975500D01*
X191666677Y-101943409D01*
X191904153Y-101879778D01*
X192131292Y-101785694D01*
X192344208Y-101662767D01*
X192539256Y-101513101D01*
X192713101Y-101339256D01*
X192862767Y-101144208D01*
X192985694Y-100931292D01*
X193079778Y-100704153D01*
X193143409Y-100466677D01*
X193175500Y-100222927D01*
X193175500Y-99977073D01*
X193143409Y-99733323D01*
X193079778Y-99495847D01*
X192985694Y-99268708D01*
X192862767Y-99055792D01*
X192744862Y-98902135D01*
X192713102Y-98860745D01*
X192713096Y-98860738D01*
X192539261Y-98686903D01*
X192539254Y-98686897D01*
X192344212Y-98537236D01*
X192344211Y-98537235D01*
X192344208Y-98537233D01*
X192131292Y-98414306D01*
X192131285Y-98414303D01*
X191904162Y-98320225D01*
X191904155Y-98320223D01*
X191904153Y-98320222D01*
X191666677Y-98256591D01*
X191625939Y-98251227D01*
X191422934Y-98224500D01*
X191422927Y-98224500D01*
X191177073Y-98224500D01*
X191177065Y-98224500D01*
X190945059Y-98255045D01*
X190933323Y-98256591D01*
X190695847Y-98320222D01*
X190695837Y-98320225D01*
X190468714Y-98414303D01*
X190468705Y-98414307D01*
X190255787Y-98537236D01*
X190060745Y-98686897D01*
X190060738Y-98686903D01*
X189886903Y-98860738D01*
X189886897Y-98860745D01*
X189737236Y-99055787D01*
X189614307Y-99268705D01*
X189614303Y-99268714D01*
X189520225Y-99495837D01*
X189520222Y-99495847D01*
X189465353Y-99700625D01*
X189456592Y-99733320D01*
X189456590Y-99733331D01*
X189424500Y-99977065D01*
X176930364Y-99977065D01*
X176993796Y-99892331D01*
X177036228Y-99778563D01*
X177037327Y-99775980D01*
X177057796Y-99751058D01*
X177077129Y-99725233D01*
X177079838Y-99724222D01*
X177081674Y-99721988D01*
X177112370Y-99712088D01*
X177142593Y-99700816D01*
X177147913Y-99700625D01*
X177148171Y-99700543D01*
X177148416Y-99700608D01*
X177151440Y-99700500D01*
X181077725Y-99700500D01*
X181077727Y-99700500D01*
X181179588Y-99673207D01*
X181270913Y-99620480D01*
X183274573Y-97616818D01*
X183335896Y-97583334D01*
X183362254Y-97580500D01*
X184250002Y-97580500D01*
X184250003Y-97580499D01*
X184347776Y-97561051D01*
X184430666Y-97505666D01*
X184486051Y-97422776D01*
X184505500Y-97325000D01*
X184505500Y-97112255D01*
X184525185Y-97045216D01*
X184541819Y-97024574D01*
X185029574Y-96536819D01*
X185090897Y-96503334D01*
X185117255Y-96500500D01*
X193652725Y-96500500D01*
X193652727Y-96500500D01*
X193754588Y-96473207D01*
X193845913Y-96420480D01*
X195620480Y-94645913D01*
X195673207Y-94554588D01*
X195700500Y-94452727D01*
X195700500Y-94347273D01*
X195700500Y-85421199D01*
X196035000Y-85421199D01*
X196035000Y-85678800D01*
X196056770Y-85844150D01*
X196068622Y-85934175D01*
X196070846Y-85942474D01*
X196135289Y-86182982D01*
X196233859Y-86420952D01*
X196233867Y-86420969D01*
X196362652Y-86644030D01*
X196362663Y-86644046D01*
X196519463Y-86848392D01*
X196519469Y-86848399D01*
X196701600Y-87030530D01*
X196701607Y-87030536D01*
X196771301Y-87084014D01*
X196905962Y-87187343D01*
X196905969Y-87187347D01*
X197129030Y-87316132D01*
X197129035Y-87316134D01*
X197129038Y-87316136D01*
X197129042Y-87316137D01*
X197129047Y-87316140D01*
X197204209Y-87347273D01*
X197367016Y-87414710D01*
X197615825Y-87481378D01*
X197871207Y-87515000D01*
X197871214Y-87515000D01*
X198128786Y-87515000D01*
X198128793Y-87515000D01*
X198384175Y-87481378D01*
X198632984Y-87414710D01*
X198870962Y-87316136D01*
X199094038Y-87187343D01*
X199298394Y-87030535D01*
X199480535Y-86848394D01*
X199637343Y-86644038D01*
X199766136Y-86420962D01*
X199864710Y-86182984D01*
X199931378Y-85934175D01*
X199965000Y-85678793D01*
X199965000Y-85421207D01*
X199931378Y-85165825D01*
X199864710Y-84917016D01*
X199787069Y-84729574D01*
X199766140Y-84679047D01*
X199766132Y-84679030D01*
X199637347Y-84455969D01*
X199637343Y-84455962D01*
X199511706Y-84292229D01*
X199480536Y-84251607D01*
X199480530Y-84251600D01*
X199298399Y-84069469D01*
X199298392Y-84069463D01*
X199094046Y-83912663D01*
X199094044Y-83912661D01*
X199094038Y-83912657D01*
X199094033Y-83912654D01*
X199094030Y-83912652D01*
X198870969Y-83783867D01*
X198870952Y-83783859D01*
X198632982Y-83685289D01*
X198427612Y-83630261D01*
X198384175Y-83618622D01*
X198352252Y-83614419D01*
X198128800Y-83585000D01*
X198128793Y-83585000D01*
X197871207Y-83585000D01*
X197871199Y-83585000D01*
X197615825Y-83618622D01*
X197367017Y-83685289D01*
X197129047Y-83783859D01*
X197129030Y-83783867D01*
X196905969Y-83912652D01*
X196905953Y-83912663D01*
X196701607Y-84069463D01*
X196701600Y-84069469D01*
X196519469Y-84251600D01*
X196519463Y-84251607D01*
X196362663Y-84455953D01*
X196362652Y-84455969D01*
X196233867Y-84679030D01*
X196233859Y-84679047D01*
X196135289Y-84917017D01*
X196068622Y-85165825D01*
X196035000Y-85421199D01*
X195700500Y-85421199D01*
X195700500Y-84547273D01*
X195673207Y-84445413D01*
X195673207Y-84445412D01*
X195620480Y-84354087D01*
X194145913Y-82879520D01*
X194100250Y-82853156D01*
X194054589Y-82826793D01*
X193979486Y-82806670D01*
X193952727Y-82799500D01*
X186552727Y-82799500D01*
X186447273Y-82799500D01*
X186345410Y-82826793D01*
X186254087Y-82879520D01*
X186254084Y-82879522D01*
X184037181Y-85096426D01*
X183975858Y-85129911D01*
X183906166Y-85124927D01*
X183850233Y-85083055D01*
X183825816Y-85017591D01*
X183825500Y-85008745D01*
X183825500Y-82625323D01*
X183825499Y-82625321D01*
X183810967Y-82552264D01*
X183810966Y-82552260D01*
X183793337Y-82525876D01*
X183755601Y-82469399D01*
X183672740Y-82414034D01*
X183672739Y-82414033D01*
X183672735Y-82414032D01*
X183599677Y-82399500D01*
X183599674Y-82399500D01*
X180950326Y-82399500D01*
X180950323Y-82399500D01*
X180877264Y-82414032D01*
X180877260Y-82414033D01*
X180794399Y-82469399D01*
X180739033Y-82552260D01*
X180739032Y-82552264D01*
X180724500Y-82625321D01*
X180724500Y-82973148D01*
X180704815Y-83040187D01*
X180652011Y-83085942D01*
X180582853Y-83095886D01*
X180519297Y-83066861D01*
X180493113Y-83035148D01*
X180464704Y-82985942D01*
X180458611Y-82975388D01*
X180458608Y-82975385D01*
X180458607Y-82975382D01*
X180329141Y-82806661D01*
X180318919Y-82793339D01*
X180318918Y-82793338D01*
X180318911Y-82793330D01*
X180156670Y-82631089D01*
X180156661Y-82631081D01*
X179974617Y-82491392D01*
X179775890Y-82376657D01*
X179775876Y-82376650D01*
X179563887Y-82288842D01*
X179518411Y-82276657D01*
X179397555Y-82244274D01*
X179337896Y-82207910D01*
X179307367Y-82145063D01*
X179315662Y-82075688D01*
X179360147Y-82021810D01*
X179426699Y-82000535D01*
X179429650Y-82000500D01*
X199582745Y-82000500D01*
X199649784Y-82020185D01*
X199670426Y-82036819D01*
X200838181Y-83204574D01*
X200871666Y-83265897D01*
X200874500Y-83292255D01*
X200874500Y-89825500D01*
X200854815Y-89892539D01*
X200802011Y-89938294D01*
X200750500Y-89949500D01*
X199950323Y-89949500D01*
X199877264Y-89964032D01*
X199877260Y-89964033D01*
X199794399Y-90019399D01*
X199739033Y-90102260D01*
X199739032Y-90102264D01*
X199724500Y-90175321D01*
X199724500Y-90523148D01*
X199704815Y-90590187D01*
X199652011Y-90635942D01*
X199582853Y-90645886D01*
X199519297Y-90616861D01*
X199493113Y-90585148D01*
X199458611Y-90525388D01*
X199458608Y-90525385D01*
X199458607Y-90525382D01*
X199329233Y-90356781D01*
X199318919Y-90343339D01*
X199318918Y-90343338D01*
X199318911Y-90343330D01*
X199156670Y-90181089D01*
X199156661Y-90181081D01*
X198974617Y-90041392D01*
X198775890Y-89926657D01*
X198775876Y-89926650D01*
X198563887Y-89838842D01*
X198535717Y-89831294D01*
X198342238Y-89779452D01*
X198304215Y-89774446D01*
X198114741Y-89749500D01*
X198114734Y-89749500D01*
X197885266Y-89749500D01*
X197885258Y-89749500D01*
X197668715Y-89778009D01*
X197657762Y-89779452D01*
X197626062Y-89787946D01*
X197436112Y-89838842D01*
X197224123Y-89926650D01*
X197224109Y-89926657D01*
X197025382Y-90041392D01*
X196843338Y-90181081D01*
X196681081Y-90343338D01*
X196541392Y-90525382D01*
X196426657Y-90724109D01*
X196426650Y-90724123D01*
X196338842Y-90936112D01*
X196316218Y-91020548D01*
X196290542Y-91116375D01*
X196279453Y-91157759D01*
X196279451Y-91157770D01*
X196249500Y-91385258D01*
X196249500Y-91614741D01*
X196257715Y-91677135D01*
X196279452Y-91842238D01*
X196279453Y-91842240D01*
X196338842Y-92063887D01*
X196426650Y-92275876D01*
X196426657Y-92275890D01*
X196541392Y-92474617D01*
X196681081Y-92656661D01*
X196681089Y-92656670D01*
X196843330Y-92818911D01*
X196843338Y-92818918D01*
X197025382Y-92958607D01*
X197025385Y-92958608D01*
X197025388Y-92958611D01*
X197224112Y-93073344D01*
X197224117Y-93073346D01*
X197224123Y-93073349D01*
X197251834Y-93084827D01*
X197436113Y-93161158D01*
X197657762Y-93220548D01*
X197885266Y-93250500D01*
X197885273Y-93250500D01*
X198114727Y-93250500D01*
X198114734Y-93250500D01*
X198342238Y-93220548D01*
X198563887Y-93161158D01*
X198775888Y-93073344D01*
X198974612Y-92958611D01*
X199156661Y-92818919D01*
X199156665Y-92818914D01*
X199156670Y-92818911D01*
X199318911Y-92656670D01*
X199318914Y-92656665D01*
X199318919Y-92656661D01*
X199458611Y-92474612D01*
X199493113Y-92414851D01*
X199543679Y-92366636D01*
X199612286Y-92353412D01*
X199677151Y-92379380D01*
X199717680Y-92436294D01*
X199724500Y-92476851D01*
X199724500Y-92824678D01*
X199739032Y-92897735D01*
X199739033Y-92897739D01*
X199757405Y-92925235D01*
X199794399Y-92980601D01*
X199852967Y-93019734D01*
X199877260Y-93035966D01*
X199877264Y-93035967D01*
X199950321Y-93050499D01*
X199950324Y-93050500D01*
X199950326Y-93050500D01*
X202599676Y-93050500D01*
X202599677Y-93050499D01*
X202672740Y-93035966D01*
X202755601Y-92980601D01*
X202810966Y-92897740D01*
X202825500Y-92824674D01*
X202825500Y-90175326D01*
X202825500Y-90175323D01*
X202825499Y-90175321D01*
X202810967Y-90102264D01*
X202810966Y-90102260D01*
X202772180Y-90044212D01*
X202755601Y-90019399D01*
X202672740Y-89964034D01*
X202672739Y-89964033D01*
X202672735Y-89964032D01*
X202599677Y-89949500D01*
X202599674Y-89949500D01*
X201799500Y-89949500D01*
X201732461Y-89929815D01*
X201686706Y-89877011D01*
X201675500Y-89825500D01*
X201675500Y-89185258D01*
X210249500Y-89185258D01*
X210249500Y-89414741D01*
X210274438Y-89604152D01*
X210279452Y-89642238D01*
X210314018Y-89771240D01*
X210338842Y-89863887D01*
X210426650Y-90075876D01*
X210426657Y-90075890D01*
X210541392Y-90274617D01*
X210681081Y-90456661D01*
X210681089Y-90456670D01*
X210843330Y-90618911D01*
X210843338Y-90618918D01*
X211025382Y-90758607D01*
X211025385Y-90758608D01*
X211025388Y-90758611D01*
X211224112Y-90873344D01*
X211224117Y-90873346D01*
X211224123Y-90873349D01*
X211315480Y-90911190D01*
X211436113Y-90961158D01*
X211657762Y-91020548D01*
X211885266Y-91050500D01*
X211885273Y-91050500D01*
X212114727Y-91050500D01*
X212114734Y-91050500D01*
X212342238Y-91020548D01*
X212563887Y-90961158D01*
X212775888Y-90873344D01*
X212974612Y-90758611D01*
X213156661Y-90618919D01*
X213156665Y-90618914D01*
X213156670Y-90618911D01*
X213318911Y-90456670D01*
X213318914Y-90456665D01*
X213318919Y-90456661D01*
X213458611Y-90274612D01*
X213573344Y-90075888D01*
X213661158Y-89863887D01*
X213720548Y-89642238D01*
X213750500Y-89414734D01*
X213750500Y-89185266D01*
X213720548Y-88957762D01*
X213661158Y-88736113D01*
X213608772Y-88609642D01*
X213573349Y-88524123D01*
X213573346Y-88524117D01*
X213573344Y-88524112D01*
X213458611Y-88325388D01*
X213458608Y-88325385D01*
X213458607Y-88325382D01*
X213333618Y-88162495D01*
X213318919Y-88143339D01*
X213318918Y-88143338D01*
X213318911Y-88143330D01*
X213156670Y-87981089D01*
X213156661Y-87981081D01*
X212974617Y-87841392D01*
X212936863Y-87819595D01*
X212815795Y-87749696D01*
X212775890Y-87726657D01*
X212775876Y-87726650D01*
X212563887Y-87638842D01*
X212483684Y-87617352D01*
X212342238Y-87579452D01*
X212304215Y-87574446D01*
X212114741Y-87549500D01*
X212114734Y-87549500D01*
X211885266Y-87549500D01*
X211885258Y-87549500D01*
X211668715Y-87578009D01*
X211657762Y-87579452D01*
X211582941Y-87599500D01*
X211436112Y-87638842D01*
X211224123Y-87726650D01*
X211224109Y-87726657D01*
X211025382Y-87841392D01*
X210843338Y-87981081D01*
X210681081Y-88143338D01*
X210541392Y-88325382D01*
X210426657Y-88524109D01*
X210426650Y-88524123D01*
X210338842Y-88736112D01*
X210320374Y-88805037D01*
X210280186Y-88955025D01*
X210279453Y-88957759D01*
X210279451Y-88957770D01*
X210249500Y-89185258D01*
X201675500Y-89185258D01*
X201675500Y-85463312D01*
X202398600Y-85463312D01*
X202398600Y-85636687D01*
X202425720Y-85807913D01*
X202479290Y-85972788D01*
X202479291Y-85972791D01*
X202512176Y-86037330D01*
X202557998Y-86127260D01*
X202659899Y-86267514D01*
X202782486Y-86390101D01*
X202922740Y-86492002D01*
X202978629Y-86520479D01*
X203077208Y-86570708D01*
X203077211Y-86570709D01*
X203116311Y-86583413D01*
X203242088Y-86624280D01*
X203321257Y-86636819D01*
X203413313Y-86651400D01*
X203413318Y-86651400D01*
X203586687Y-86651400D01*
X203678743Y-86636819D01*
X203757912Y-86624280D01*
X203922791Y-86570708D01*
X204077260Y-86492002D01*
X204217514Y-86390101D01*
X204340101Y-86267514D01*
X204442002Y-86127260D01*
X204520708Y-85972791D01*
X204574280Y-85807912D01*
X204591292Y-85700500D01*
X204601400Y-85636687D01*
X204601400Y-85463312D01*
X210398600Y-85463312D01*
X210398600Y-85636687D01*
X210425720Y-85807913D01*
X210479290Y-85972788D01*
X210479291Y-85972791D01*
X210512176Y-86037330D01*
X210557998Y-86127260D01*
X210659899Y-86267514D01*
X210782486Y-86390101D01*
X210922740Y-86492002D01*
X210978629Y-86520479D01*
X211077208Y-86570708D01*
X211077211Y-86570709D01*
X211116311Y-86583413D01*
X211242088Y-86624280D01*
X211321257Y-86636819D01*
X211413313Y-86651400D01*
X211413318Y-86651400D01*
X211586687Y-86651400D01*
X211678743Y-86636819D01*
X211757912Y-86624280D01*
X211922791Y-86570708D01*
X212077260Y-86492002D01*
X212217514Y-86390101D01*
X212340101Y-86267514D01*
X212442002Y-86127260D01*
X212520708Y-85972791D01*
X212574280Y-85807912D01*
X212591292Y-85700500D01*
X212601400Y-85636687D01*
X212601400Y-85463315D01*
X212597160Y-85436548D01*
X212597160Y-85436546D01*
X212594729Y-85421199D01*
X215035000Y-85421199D01*
X215035000Y-85678800D01*
X215056770Y-85844150D01*
X215068622Y-85934175D01*
X215070846Y-85942474D01*
X215135289Y-86182982D01*
X215233859Y-86420952D01*
X215233867Y-86420969D01*
X215362652Y-86644030D01*
X215362663Y-86644046D01*
X215519463Y-86848392D01*
X215519469Y-86848399D01*
X215701600Y-87030530D01*
X215701607Y-87030536D01*
X215771301Y-87084014D01*
X215905962Y-87187343D01*
X215905969Y-87187347D01*
X216129030Y-87316132D01*
X216129035Y-87316134D01*
X216129038Y-87316136D01*
X216129042Y-87316137D01*
X216129047Y-87316140D01*
X216204209Y-87347273D01*
X216367016Y-87414710D01*
X216615825Y-87481378D01*
X216871207Y-87515000D01*
X216871214Y-87515000D01*
X217128786Y-87515000D01*
X217128793Y-87515000D01*
X217384175Y-87481378D01*
X217632984Y-87414710D01*
X217870962Y-87316136D01*
X218094038Y-87187343D01*
X218298394Y-87030535D01*
X218480535Y-86848394D01*
X218637343Y-86644038D01*
X218766136Y-86420962D01*
X218864710Y-86182984D01*
X218931378Y-85934175D01*
X218965000Y-85678793D01*
X218965000Y-85421207D01*
X218931378Y-85165825D01*
X218864710Y-84917016D01*
X218787069Y-84729574D01*
X218766140Y-84679047D01*
X218766132Y-84679030D01*
X218637347Y-84455969D01*
X218637343Y-84455962D01*
X218511706Y-84292229D01*
X218480536Y-84251607D01*
X218480530Y-84251600D01*
X218298399Y-84069469D01*
X218298392Y-84069463D01*
X218094046Y-83912663D01*
X218094044Y-83912661D01*
X218094038Y-83912657D01*
X218094033Y-83912654D01*
X218094030Y-83912652D01*
X217870969Y-83783867D01*
X217870952Y-83783859D01*
X217632982Y-83685289D01*
X217427612Y-83630261D01*
X217384175Y-83618622D01*
X217352252Y-83614419D01*
X217128800Y-83585000D01*
X217128793Y-83585000D01*
X216871207Y-83585000D01*
X216871199Y-83585000D01*
X216615825Y-83618622D01*
X216367017Y-83685289D01*
X216129047Y-83783859D01*
X216129030Y-83783867D01*
X215905969Y-83912652D01*
X215905953Y-83912663D01*
X215701607Y-84069463D01*
X215701600Y-84069469D01*
X215519469Y-84251600D01*
X215519463Y-84251607D01*
X215362663Y-84455953D01*
X215362652Y-84455969D01*
X215233867Y-84679030D01*
X215233859Y-84679047D01*
X215135289Y-84917017D01*
X215068622Y-85165825D01*
X215035000Y-85421199D01*
X212594729Y-85421199D01*
X212583094Y-85347740D01*
X212574280Y-85292088D01*
X212547494Y-85209648D01*
X212520709Y-85127211D01*
X212520708Y-85127208D01*
X212459290Y-85006670D01*
X212442002Y-84972740D01*
X212340101Y-84832486D01*
X212217514Y-84709899D01*
X212077260Y-84607998D01*
X211922791Y-84529291D01*
X211922788Y-84529290D01*
X211757913Y-84475720D01*
X211586687Y-84448600D01*
X211586682Y-84448600D01*
X211413318Y-84448600D01*
X211413313Y-84448600D01*
X211242086Y-84475720D01*
X211077211Y-84529290D01*
X211077208Y-84529291D01*
X210922739Y-84607998D01*
X210842719Y-84666136D01*
X210782486Y-84709899D01*
X210782484Y-84709901D01*
X210782483Y-84709901D01*
X210659901Y-84832483D01*
X210659901Y-84832484D01*
X210659899Y-84832486D01*
X210636384Y-84864852D01*
X210557998Y-84972739D01*
X210479291Y-85127208D01*
X210479290Y-85127211D01*
X210425720Y-85292086D01*
X210398600Y-85463312D01*
X204601400Y-85463312D01*
X204582726Y-85345413D01*
X204574280Y-85292088D01*
X204547494Y-85209648D01*
X204520709Y-85127211D01*
X204520708Y-85127208D01*
X204459290Y-85006670D01*
X204442002Y-84972740D01*
X204340101Y-84832486D01*
X204217514Y-84709899D01*
X204077260Y-84607998D01*
X203922791Y-84529291D01*
X203922788Y-84529290D01*
X203757913Y-84475720D01*
X203586687Y-84448600D01*
X203586682Y-84448600D01*
X203413318Y-84448600D01*
X203413313Y-84448600D01*
X203242086Y-84475720D01*
X203077211Y-84529290D01*
X203077208Y-84529291D01*
X202922739Y-84607998D01*
X202842719Y-84666136D01*
X202782486Y-84709899D01*
X202782484Y-84709901D01*
X202782483Y-84709901D01*
X202659901Y-84832483D01*
X202659901Y-84832484D01*
X202659899Y-84832486D01*
X202636384Y-84864852D01*
X202557998Y-84972739D01*
X202479291Y-85127208D01*
X202479290Y-85127211D01*
X202425720Y-85292086D01*
X202398600Y-85463312D01*
X201675500Y-85463312D01*
X201675500Y-83262352D01*
X201679725Y-83230258D01*
X201681578Y-83223342D01*
X201700500Y-83152727D01*
X201700500Y-83047273D01*
X201673206Y-82945413D01*
X201673206Y-82945412D01*
X201673206Y-82945411D01*
X201620482Y-82854090D01*
X201620478Y-82854085D01*
X200428575Y-81662182D01*
X200395090Y-81600859D01*
X200400074Y-81531167D01*
X200441946Y-81475234D01*
X200507410Y-81450817D01*
X200516256Y-81450501D01*
X217632746Y-81450501D01*
X217699785Y-81470186D01*
X217720427Y-81486820D01*
X219838181Y-83604574D01*
X219871666Y-83665897D01*
X219874500Y-83692255D01*
X219874500Y-89825500D01*
X219854815Y-89892539D01*
X219802011Y-89938294D01*
X219750500Y-89949500D01*
X218950323Y-89949500D01*
X218877264Y-89964032D01*
X218877260Y-89964033D01*
X218794399Y-90019399D01*
X218739033Y-90102260D01*
X218739032Y-90102264D01*
X218724500Y-90175321D01*
X218724500Y-90523148D01*
X218704815Y-90590187D01*
X218652011Y-90635942D01*
X218582853Y-90645886D01*
X218519297Y-90616861D01*
X218493113Y-90585148D01*
X218458611Y-90525388D01*
X218458608Y-90525385D01*
X218458607Y-90525382D01*
X218329233Y-90356781D01*
X218318919Y-90343339D01*
X218318918Y-90343338D01*
X218318911Y-90343330D01*
X218156670Y-90181089D01*
X218156661Y-90181081D01*
X217974617Y-90041392D01*
X217775890Y-89926657D01*
X217775876Y-89926650D01*
X217563887Y-89838842D01*
X217535717Y-89831294D01*
X217342238Y-89779452D01*
X217304215Y-89774446D01*
X217114741Y-89749500D01*
X217114734Y-89749500D01*
X216885266Y-89749500D01*
X216885258Y-89749500D01*
X216668715Y-89778009D01*
X216657762Y-89779452D01*
X216626062Y-89787946D01*
X216436112Y-89838842D01*
X216224123Y-89926650D01*
X216224109Y-89926657D01*
X216025382Y-90041392D01*
X215843338Y-90181081D01*
X215681081Y-90343338D01*
X215541392Y-90525382D01*
X215426657Y-90724109D01*
X215426650Y-90724123D01*
X215338842Y-90936112D01*
X215316218Y-91020548D01*
X215290542Y-91116375D01*
X215279453Y-91157759D01*
X215279451Y-91157770D01*
X215249500Y-91385258D01*
X215249500Y-91614741D01*
X215257715Y-91677135D01*
X215279452Y-91842238D01*
X215279453Y-91842240D01*
X215338842Y-92063887D01*
X215426650Y-92275876D01*
X215426657Y-92275890D01*
X215541392Y-92474617D01*
X215681081Y-92656661D01*
X215681089Y-92656670D01*
X215843330Y-92818911D01*
X215843338Y-92818918D01*
X216025382Y-92958607D01*
X216025385Y-92958608D01*
X216025388Y-92958611D01*
X216224112Y-93073344D01*
X216224117Y-93073346D01*
X216224123Y-93073349D01*
X216251834Y-93084827D01*
X216436113Y-93161158D01*
X216657762Y-93220548D01*
X216885266Y-93250500D01*
X216885273Y-93250500D01*
X217114727Y-93250500D01*
X217114734Y-93250500D01*
X217342238Y-93220548D01*
X217563887Y-93161158D01*
X217775888Y-93073344D01*
X217974612Y-92958611D01*
X218156661Y-92818919D01*
X218156665Y-92818914D01*
X218156670Y-92818911D01*
X218318911Y-92656670D01*
X218318914Y-92656665D01*
X218318919Y-92656661D01*
X218458611Y-92474612D01*
X218493113Y-92414851D01*
X218543679Y-92366636D01*
X218612286Y-92353412D01*
X218677151Y-92379380D01*
X218717680Y-92436294D01*
X218724500Y-92476851D01*
X218724500Y-92824678D01*
X218739032Y-92897735D01*
X218739033Y-92897739D01*
X218757405Y-92925235D01*
X218794399Y-92980601D01*
X218852967Y-93019734D01*
X218877260Y-93035966D01*
X218877264Y-93035967D01*
X218950321Y-93050499D01*
X218950324Y-93050500D01*
X218950326Y-93050500D01*
X221599676Y-93050500D01*
X221599677Y-93050499D01*
X221672740Y-93035966D01*
X221755601Y-92980601D01*
X221810966Y-92897740D01*
X221825500Y-92824674D01*
X221825500Y-90175326D01*
X221825500Y-90175323D01*
X221825499Y-90175321D01*
X221810967Y-90102264D01*
X221810966Y-90102260D01*
X221772180Y-90044212D01*
X221755601Y-90019399D01*
X221672740Y-89964034D01*
X221672739Y-89964033D01*
X221672735Y-89964032D01*
X221599677Y-89949500D01*
X221599674Y-89949500D01*
X220799500Y-89949500D01*
X220732461Y-89929815D01*
X220686706Y-89877011D01*
X220675500Y-89825500D01*
X220675500Y-88877065D01*
X226149500Y-88877065D01*
X226149500Y-89122934D01*
X226171450Y-89289648D01*
X226181591Y-89366677D01*
X226231443Y-89552727D01*
X226245222Y-89604152D01*
X226245225Y-89604162D01*
X226328509Y-89805225D01*
X226339306Y-89831292D01*
X226462233Y-90044208D01*
X226462235Y-90044211D01*
X226462236Y-90044212D01*
X226611897Y-90239254D01*
X226611903Y-90239261D01*
X226785738Y-90413096D01*
X226785745Y-90413102D01*
X226807067Y-90429463D01*
X226980792Y-90562767D01*
X227193708Y-90685694D01*
X227420847Y-90779778D01*
X227658323Y-90843409D01*
X227902073Y-90875500D01*
X227902080Y-90875500D01*
X228147920Y-90875500D01*
X228147927Y-90875500D01*
X228391677Y-90843409D01*
X228629153Y-90779778D01*
X228856292Y-90685694D01*
X229069208Y-90562767D01*
X229264256Y-90413101D01*
X229438101Y-90239256D01*
X229587767Y-90044208D01*
X229710694Y-89831292D01*
X229804778Y-89604153D01*
X229868409Y-89366677D01*
X229900500Y-89122927D01*
X229900500Y-88877073D01*
X229868409Y-88633323D01*
X229804778Y-88395847D01*
X229710694Y-88168708D01*
X229587767Y-87955792D01*
X229452510Y-87779522D01*
X229438102Y-87760745D01*
X229438096Y-87760738D01*
X229264261Y-87586903D01*
X229264254Y-87586897D01*
X229069212Y-87437236D01*
X229069211Y-87437235D01*
X229069208Y-87437233D01*
X228856292Y-87314306D01*
X228856285Y-87314303D01*
X228629162Y-87220225D01*
X228629155Y-87220223D01*
X228629153Y-87220222D01*
X228391677Y-87156591D01*
X228350939Y-87151227D01*
X228147934Y-87124500D01*
X228147927Y-87124500D01*
X227902073Y-87124500D01*
X227902065Y-87124500D01*
X227670059Y-87155045D01*
X227658323Y-87156591D01*
X227462344Y-87209103D01*
X227420847Y-87220222D01*
X227420837Y-87220225D01*
X227193714Y-87314303D01*
X227193705Y-87314307D01*
X226980787Y-87437236D01*
X226785745Y-87586897D01*
X226785738Y-87586903D01*
X226611903Y-87760738D01*
X226611897Y-87760745D01*
X226462236Y-87955787D01*
X226339307Y-88168705D01*
X226339303Y-88168714D01*
X226245225Y-88395837D01*
X226245222Y-88395847D01*
X226193369Y-88589369D01*
X226181592Y-88633320D01*
X226181590Y-88633331D01*
X226149500Y-88877065D01*
X220675500Y-88877065D01*
X220675500Y-85463312D01*
X221398600Y-85463312D01*
X221398600Y-85636687D01*
X221425720Y-85807913D01*
X221479290Y-85972788D01*
X221479291Y-85972791D01*
X221512176Y-86037330D01*
X221557998Y-86127260D01*
X221659899Y-86267514D01*
X221782486Y-86390101D01*
X221922740Y-86492002D01*
X221978629Y-86520479D01*
X222077208Y-86570708D01*
X222077211Y-86570709D01*
X222116311Y-86583413D01*
X222242088Y-86624280D01*
X222321257Y-86636819D01*
X222413313Y-86651400D01*
X222413318Y-86651400D01*
X222586687Y-86651400D01*
X222678743Y-86636819D01*
X222757912Y-86624280D01*
X222922791Y-86570708D01*
X223077260Y-86492002D01*
X223217514Y-86390101D01*
X223340101Y-86267514D01*
X223442002Y-86127260D01*
X223520708Y-85972791D01*
X223574280Y-85807912D01*
X223591292Y-85700500D01*
X223601400Y-85636687D01*
X223601400Y-85463312D01*
X223582726Y-85345413D01*
X223574280Y-85292088D01*
X223547494Y-85209648D01*
X223520709Y-85127211D01*
X223520708Y-85127208D01*
X223459290Y-85006670D01*
X223442002Y-84972740D01*
X223340101Y-84832486D01*
X223217514Y-84709899D01*
X223077260Y-84607998D01*
X222922791Y-84529291D01*
X222922788Y-84529290D01*
X222757913Y-84475720D01*
X222586687Y-84448600D01*
X222586682Y-84448600D01*
X222413318Y-84448600D01*
X222413313Y-84448600D01*
X222242086Y-84475720D01*
X222077211Y-84529290D01*
X222077208Y-84529291D01*
X221922739Y-84607998D01*
X221842719Y-84666136D01*
X221782486Y-84709899D01*
X221782484Y-84709901D01*
X221782483Y-84709901D01*
X221659901Y-84832483D01*
X221659901Y-84832484D01*
X221659899Y-84832486D01*
X221636384Y-84864852D01*
X221557998Y-84972739D01*
X221479291Y-85127208D01*
X221479290Y-85127211D01*
X221425720Y-85292086D01*
X221398600Y-85463312D01*
X220675500Y-85463312D01*
X220675500Y-83662354D01*
X220679725Y-83630261D01*
X220682425Y-83620185D01*
X220700500Y-83552727D01*
X220700500Y-83447273D01*
X220673207Y-83345412D01*
X220620480Y-83254087D01*
X218477574Y-81111181D01*
X218444089Y-81049858D01*
X218449073Y-80980166D01*
X218490945Y-80924233D01*
X218556409Y-80899816D01*
X218565255Y-80899500D01*
X224257525Y-80899500D01*
X224257527Y-80899500D01*
X224359387Y-80872207D01*
X224450713Y-80819480D01*
X224525280Y-80744913D01*
X224525285Y-80744902D01*
X224530227Y-80738464D01*
X224530277Y-80738502D01*
X224544743Y-80719648D01*
X225377574Y-79886819D01*
X225438897Y-79853334D01*
X225465255Y-79850500D01*
X230153052Y-79850500D01*
X230220091Y-79870185D01*
X230265846Y-79922989D01*
X230275790Y-79992147D01*
X230246765Y-80055703D01*
X230215052Y-80081887D01*
X230025382Y-80191392D01*
X229843338Y-80331081D01*
X229681081Y-80493338D01*
X229541392Y-80675382D01*
X229426657Y-80874109D01*
X229426650Y-80874123D01*
X229353859Y-81049858D01*
X229338842Y-81086113D01*
X229288712Y-81273205D01*
X229279453Y-81307759D01*
X229279451Y-81307770D01*
X229249500Y-81535258D01*
X229249500Y-81764741D01*
X229262665Y-81864734D01*
X229279452Y-81992238D01*
X229310182Y-82106926D01*
X229338842Y-82213887D01*
X229426650Y-82425876D01*
X229426657Y-82425890D01*
X229541392Y-82624617D01*
X229681081Y-82806661D01*
X229681089Y-82806670D01*
X229843330Y-82968911D01*
X229843338Y-82968918D01*
X229843339Y-82968919D01*
X229851762Y-82975382D01*
X230025382Y-83108607D01*
X230025385Y-83108608D01*
X230025388Y-83108611D01*
X230224112Y-83223344D01*
X230224117Y-83223346D01*
X230224123Y-83223349D01*
X230298332Y-83254087D01*
X230436113Y-83311158D01*
X230657762Y-83370548D01*
X230885266Y-83400500D01*
X230885273Y-83400500D01*
X231114727Y-83400500D01*
X231114734Y-83400500D01*
X231342238Y-83370548D01*
X231563887Y-83311158D01*
X231775888Y-83223344D01*
X231974612Y-83108611D01*
X232156661Y-82968919D01*
X232156665Y-82968914D01*
X232156670Y-82968911D01*
X232318911Y-82806670D01*
X232318914Y-82806665D01*
X232318919Y-82806661D01*
X232458611Y-82624612D01*
X232573344Y-82425888D01*
X232661158Y-82213887D01*
X232720548Y-81992238D01*
X232750500Y-81764734D01*
X232750500Y-81535266D01*
X232720548Y-81307762D01*
X232661158Y-81086113D01*
X232573344Y-80874112D01*
X232458611Y-80675388D01*
X232458608Y-80675385D01*
X232458607Y-80675382D01*
X232340911Y-80522000D01*
X232318919Y-80493339D01*
X232318918Y-80493338D01*
X232318911Y-80493330D01*
X232156670Y-80331089D01*
X232156661Y-80331081D01*
X231974617Y-80191392D01*
X231974612Y-80191389D01*
X231784947Y-80081886D01*
X231736732Y-80031320D01*
X231723509Y-79962713D01*
X231749477Y-79897848D01*
X231806392Y-79857320D01*
X231846948Y-79850500D01*
X232932745Y-79850500D01*
X232999784Y-79870185D01*
X233020426Y-79886819D01*
X234479519Y-81345912D01*
X234479520Y-81345913D01*
X234554087Y-81420480D01*
X234645413Y-81473207D01*
X234747273Y-81500500D01*
X238082745Y-81500500D01*
X238149784Y-81520185D01*
X238170426Y-81536819D01*
X238721426Y-82087819D01*
X238754911Y-82149142D01*
X238749927Y-82218834D01*
X238708055Y-82274767D01*
X238642591Y-82299184D01*
X238633745Y-82299500D01*
X237950323Y-82299500D01*
X237877264Y-82314032D01*
X237877260Y-82314033D01*
X237794399Y-82369399D01*
X237739033Y-82452260D01*
X237739032Y-82452264D01*
X237724500Y-82525321D01*
X237724500Y-82873148D01*
X237704815Y-82940187D01*
X237652011Y-82985942D01*
X237582853Y-82995886D01*
X237519297Y-82966861D01*
X237493113Y-82935148D01*
X237458611Y-82875388D01*
X237458608Y-82875385D01*
X237458607Y-82875382D01*
X237318918Y-82693338D01*
X237318911Y-82693330D01*
X237156670Y-82531089D01*
X237156661Y-82531081D01*
X236974617Y-82391392D01*
X236949093Y-82376656D01*
X236775888Y-82276656D01*
X236775876Y-82276650D01*
X236563887Y-82188842D01*
X236514093Y-82175500D01*
X236342238Y-82129452D01*
X236304215Y-82124446D01*
X236114741Y-82099500D01*
X236114734Y-82099500D01*
X235885266Y-82099500D01*
X235885258Y-82099500D01*
X235668715Y-82128009D01*
X235657762Y-82129452D01*
X235584277Y-82149142D01*
X235436112Y-82188842D01*
X235224123Y-82276650D01*
X235224109Y-82276657D01*
X235025382Y-82391392D01*
X234843338Y-82531081D01*
X234681081Y-82693338D01*
X234541392Y-82875382D01*
X234426657Y-83074109D01*
X234426650Y-83074123D01*
X234338842Y-83286112D01*
X234316218Y-83370548D01*
X234288787Y-83472925D01*
X234279453Y-83507759D01*
X234279451Y-83507770D01*
X234249500Y-83735258D01*
X234249500Y-83964741D01*
X234274446Y-84154215D01*
X234279452Y-84192238D01*
X234306244Y-84292229D01*
X234338842Y-84413887D01*
X234426650Y-84625876D01*
X234426656Y-84625888D01*
X234537141Y-84817255D01*
X234541392Y-84824617D01*
X234681081Y-85006661D01*
X234681089Y-85006670D01*
X234843330Y-85168911D01*
X234843338Y-85168918D01*
X235025382Y-85308607D01*
X235025385Y-85308608D01*
X235025388Y-85308611D01*
X235224112Y-85423344D01*
X235224117Y-85423346D01*
X235224123Y-85423349D01*
X235315480Y-85461190D01*
X235436113Y-85511158D01*
X235657762Y-85570548D01*
X235885266Y-85600500D01*
X235885273Y-85600500D01*
X236114727Y-85600500D01*
X236114734Y-85600500D01*
X236342238Y-85570548D01*
X236563887Y-85511158D01*
X236775888Y-85423344D01*
X236974612Y-85308611D01*
X237156661Y-85168919D01*
X237156665Y-85168914D01*
X237156670Y-85168911D01*
X237318911Y-85006670D01*
X237318914Y-85006665D01*
X237318919Y-85006661D01*
X237458611Y-84824612D01*
X237493113Y-84764851D01*
X237543679Y-84716636D01*
X237612286Y-84703412D01*
X237677151Y-84729380D01*
X237717680Y-84786294D01*
X237724500Y-84826851D01*
X237724500Y-85174678D01*
X237739032Y-85247735D01*
X237739033Y-85247739D01*
X237739034Y-85247740D01*
X237794399Y-85330601D01*
X237877260Y-85385966D01*
X237877264Y-85385967D01*
X237950321Y-85400499D01*
X237950324Y-85400500D01*
X237950326Y-85400500D01*
X240599676Y-85400500D01*
X240599677Y-85400499D01*
X240672740Y-85385966D01*
X240755601Y-85330601D01*
X240810966Y-85247740D01*
X240825500Y-85174674D01*
X240825500Y-82525326D01*
X240825500Y-82525323D01*
X240825499Y-82525321D01*
X240810967Y-82452264D01*
X240810966Y-82452260D01*
X240793337Y-82425876D01*
X240755601Y-82369399D01*
X240672740Y-82314034D01*
X240672739Y-82314033D01*
X240672735Y-82314032D01*
X240599677Y-82299500D01*
X240599674Y-82299500D01*
X239799500Y-82299500D01*
X239732461Y-82279815D01*
X239686706Y-82227011D01*
X239675500Y-82175500D01*
X239675500Y-82022275D01*
X239675500Y-82022273D01*
X239648207Y-81920413D01*
X239648207Y-81920412D01*
X239595480Y-81829087D01*
X238545913Y-80779520D01*
X238500250Y-80753156D01*
X238454589Y-80726793D01*
X238403657Y-80713146D01*
X238352727Y-80699500D01*
X238352726Y-80699500D01*
X235017255Y-80699500D01*
X234950216Y-80679815D01*
X234929574Y-80663181D01*
X233395915Y-79129522D01*
X233395913Y-79129520D01*
X233334443Y-79094030D01*
X233304589Y-79076793D01*
X233253657Y-79063146D01*
X233202727Y-79049500D01*
X231173296Y-79049500D01*
X231106257Y-79029815D01*
X231060502Y-78977011D01*
X231050558Y-78907853D01*
X231079583Y-78844297D01*
X231100407Y-78825184D01*
X231217514Y-78740101D01*
X231340101Y-78617514D01*
X231442002Y-78477260D01*
X231520708Y-78322791D01*
X231574280Y-78157912D01*
X231588252Y-78069695D01*
X231601400Y-77986687D01*
X231601400Y-77813315D01*
X231597160Y-77786548D01*
X231597160Y-77786546D01*
X231594729Y-77771199D01*
X234035000Y-77771199D01*
X234035000Y-78028800D01*
X234068622Y-78284174D01*
X234135289Y-78532982D01*
X234233859Y-78770952D01*
X234233867Y-78770969D01*
X234362652Y-78994030D01*
X234362663Y-78994046D01*
X234519463Y-79198392D01*
X234519469Y-79198399D01*
X234701600Y-79380530D01*
X234701606Y-79380535D01*
X234905962Y-79537343D01*
X234905969Y-79537347D01*
X235129030Y-79666132D01*
X235129035Y-79666134D01*
X235129038Y-79666136D01*
X235129042Y-79666137D01*
X235129047Y-79666140D01*
X235223386Y-79705216D01*
X235367016Y-79764710D01*
X235615825Y-79831378D01*
X235871207Y-79865000D01*
X235871214Y-79865000D01*
X236128786Y-79865000D01*
X236128793Y-79865000D01*
X236384175Y-79831378D01*
X236632984Y-79764710D01*
X236870962Y-79666136D01*
X237094038Y-79537343D01*
X237298394Y-79380535D01*
X237480535Y-79198394D01*
X237637343Y-78994038D01*
X237766136Y-78770962D01*
X237864710Y-78532984D01*
X237931378Y-78284175D01*
X237965000Y-78028793D01*
X237965000Y-77813312D01*
X240398600Y-77813312D01*
X240398600Y-77986687D01*
X240425720Y-78157913D01*
X240479290Y-78322788D01*
X240479291Y-78322791D01*
X240557998Y-78477260D01*
X240659899Y-78617514D01*
X240782486Y-78740101D01*
X240922740Y-78842002D01*
X240979577Y-78870962D01*
X241077208Y-78920708D01*
X241077211Y-78920709D01*
X241142746Y-78942002D01*
X241242088Y-78974280D01*
X241321391Y-78986840D01*
X241413313Y-79001400D01*
X241413318Y-79001400D01*
X241586687Y-79001400D01*
X241669695Y-78988252D01*
X241757912Y-78974280D01*
X241922791Y-78920708D01*
X242077260Y-78842002D01*
X242217514Y-78740101D01*
X242340101Y-78617514D01*
X242442002Y-78477260D01*
X242520708Y-78322791D01*
X242574280Y-78157912D01*
X242588252Y-78069695D01*
X242601400Y-77986687D01*
X242601400Y-77813312D01*
X242576521Y-77656239D01*
X242574280Y-77642088D01*
X242520708Y-77477209D01*
X242520708Y-77477208D01*
X242442001Y-77322739D01*
X242414220Y-77284502D01*
X242340101Y-77182486D01*
X242217514Y-77059899D01*
X242077260Y-76957998D01*
X242074799Y-76956744D01*
X241922791Y-76879291D01*
X241922788Y-76879290D01*
X241757913Y-76825720D01*
X241586687Y-76798600D01*
X241586682Y-76798600D01*
X241413318Y-76798600D01*
X241413313Y-76798600D01*
X241242086Y-76825720D01*
X241077211Y-76879290D01*
X241077208Y-76879291D01*
X240922739Y-76957998D01*
X240893431Y-76979292D01*
X240782486Y-77059899D01*
X240782484Y-77059901D01*
X240782483Y-77059901D01*
X240659901Y-77182483D01*
X240659901Y-77182484D01*
X240659899Y-77182486D01*
X240632938Y-77219595D01*
X240557998Y-77322739D01*
X240479291Y-77477208D01*
X240479290Y-77477211D01*
X240425720Y-77642086D01*
X240398600Y-77813312D01*
X237965000Y-77813312D01*
X237965000Y-77771207D01*
X237931378Y-77515825D01*
X237864710Y-77267016D01*
X237766136Y-77029038D01*
X237766134Y-77029035D01*
X237766132Y-77029030D01*
X237637347Y-76805969D01*
X237637343Y-76805962D01*
X237569275Y-76717254D01*
X237480536Y-76601607D01*
X237480530Y-76601600D01*
X237298399Y-76419469D01*
X237298392Y-76419463D01*
X237094046Y-76262663D01*
X237094044Y-76262661D01*
X237094038Y-76262657D01*
X237094033Y-76262654D01*
X237094030Y-76262652D01*
X236870969Y-76133867D01*
X236870952Y-76133859D01*
X236632982Y-76035289D01*
X236475243Y-75993023D01*
X236384175Y-75968622D01*
X236352252Y-75964419D01*
X236128800Y-75935000D01*
X236128793Y-75935000D01*
X235871207Y-75935000D01*
X235871199Y-75935000D01*
X235615825Y-75968622D01*
X235367017Y-76035289D01*
X235129047Y-76133859D01*
X235129030Y-76133867D01*
X234905969Y-76262652D01*
X234905953Y-76262663D01*
X234701607Y-76419463D01*
X234701600Y-76419469D01*
X234519469Y-76601600D01*
X234519463Y-76601607D01*
X234362663Y-76805953D01*
X234362652Y-76805969D01*
X234233867Y-77029030D01*
X234233859Y-77029047D01*
X234135289Y-77267017D01*
X234068622Y-77515825D01*
X234035000Y-77771199D01*
X231594729Y-77771199D01*
X231576521Y-77656239D01*
X231574280Y-77642088D01*
X231520708Y-77477209D01*
X231520708Y-77477208D01*
X231442001Y-77322739D01*
X231414220Y-77284502D01*
X231340101Y-77182486D01*
X231217514Y-77059899D01*
X231077260Y-76957998D01*
X231074799Y-76956744D01*
X230922791Y-76879291D01*
X230922788Y-76879290D01*
X230757913Y-76825720D01*
X230586687Y-76798600D01*
X230586682Y-76798600D01*
X230413318Y-76798600D01*
X230413313Y-76798600D01*
X230242086Y-76825720D01*
X230077211Y-76879290D01*
X230077208Y-76879291D01*
X229922739Y-76957998D01*
X229893431Y-76979292D01*
X229782486Y-77059899D01*
X229782484Y-77059901D01*
X229782483Y-77059901D01*
X229659901Y-77182483D01*
X229659901Y-77182484D01*
X229659899Y-77182486D01*
X229632938Y-77219595D01*
X229557998Y-77322739D01*
X229479291Y-77477208D01*
X229479290Y-77477211D01*
X229425720Y-77642086D01*
X229398600Y-77813312D01*
X229398600Y-77986687D01*
X229425720Y-78157913D01*
X229479290Y-78322788D01*
X229479291Y-78322791D01*
X229557998Y-78477260D01*
X229659899Y-78617514D01*
X229782486Y-78740101D01*
X229899590Y-78825183D01*
X229942255Y-78880512D01*
X229948234Y-78950126D01*
X229915628Y-79011921D01*
X229854789Y-79046278D01*
X229826704Y-79049500D01*
X225195273Y-79049500D01*
X225093410Y-79076793D01*
X225002087Y-79129520D01*
X225002084Y-79129522D01*
X224069426Y-80062181D01*
X224008103Y-80095666D01*
X223981745Y-80098500D01*
X179691954Y-80098500D01*
X179624915Y-80078815D01*
X179579160Y-80026011D01*
X179569216Y-79956853D01*
X179598241Y-79893297D01*
X179644499Y-79859940D01*
X179870962Y-79766136D01*
X180094038Y-79637343D01*
X180298394Y-79480535D01*
X180480535Y-79298394D01*
X180637343Y-79094038D01*
X180766136Y-78870962D01*
X180864710Y-78632984D01*
X180931378Y-78384175D01*
X180965000Y-78128793D01*
X180965000Y-77913312D01*
X183398600Y-77913312D01*
X183398600Y-78086687D01*
X183425720Y-78257913D01*
X183479290Y-78422788D01*
X183479291Y-78422791D01*
X183507045Y-78477260D01*
X183557998Y-78577260D01*
X183659899Y-78717514D01*
X183782486Y-78840101D01*
X183922740Y-78942002D01*
X183986087Y-78974279D01*
X184077208Y-79020708D01*
X184077211Y-79020709D01*
X184125249Y-79036317D01*
X184242088Y-79074280D01*
X184321391Y-79086840D01*
X184413313Y-79101400D01*
X184413318Y-79101400D01*
X184586687Y-79101400D01*
X184669695Y-79088252D01*
X184757912Y-79074280D01*
X184922791Y-79020708D01*
X185077260Y-78942002D01*
X185217514Y-78840101D01*
X185340101Y-78717514D01*
X185442002Y-78577260D01*
X185520708Y-78422791D01*
X185574280Y-78257912D01*
X185590118Y-78157912D01*
X185601400Y-78086687D01*
X185601400Y-77913312D01*
X185585561Y-77813312D01*
X185574280Y-77742088D01*
X185541788Y-77642086D01*
X185520709Y-77577211D01*
X185520708Y-77577208D01*
X185466299Y-77470426D01*
X185442002Y-77422740D01*
X185340101Y-77282486D01*
X185217514Y-77159899D01*
X185077260Y-77057998D01*
X185020441Y-77029047D01*
X184922791Y-76979291D01*
X184922788Y-76979290D01*
X184757913Y-76925720D01*
X184586687Y-76898600D01*
X184586682Y-76898600D01*
X184413318Y-76898600D01*
X184413313Y-76898600D01*
X184242086Y-76925720D01*
X184077211Y-76979290D01*
X184077208Y-76979291D01*
X183922739Y-77057998D01*
X183842719Y-77116136D01*
X183782486Y-77159899D01*
X183782484Y-77159901D01*
X183782483Y-77159901D01*
X183659901Y-77282483D01*
X183659901Y-77282484D01*
X183659899Y-77282486D01*
X183630653Y-77322740D01*
X183557998Y-77422739D01*
X183479291Y-77577208D01*
X183479290Y-77577211D01*
X183425720Y-77742086D01*
X183398600Y-77913312D01*
X180965000Y-77913312D01*
X180965000Y-77871207D01*
X180931378Y-77615825D01*
X180864710Y-77367016D01*
X180766136Y-77129038D01*
X180766134Y-77129035D01*
X180766132Y-77129030D01*
X180637347Y-76905969D01*
X180637343Y-76905962D01*
X180480535Y-76701606D01*
X180480530Y-76701600D01*
X180298399Y-76519469D01*
X180298392Y-76519463D01*
X180094046Y-76362663D01*
X180094044Y-76362661D01*
X180094038Y-76362657D01*
X180094033Y-76362654D01*
X180094030Y-76362652D01*
X179870969Y-76233867D01*
X179870952Y-76233859D01*
X179632982Y-76135289D01*
X179467307Y-76090897D01*
X179384175Y-76068622D01*
X179352252Y-76064419D01*
X179128800Y-76035000D01*
X179128793Y-76035000D01*
X178871207Y-76035000D01*
X178871199Y-76035000D01*
X178615825Y-76068622D01*
X178367017Y-76135289D01*
X178129047Y-76233859D01*
X178129030Y-76233867D01*
X177905969Y-76362652D01*
X177905953Y-76362663D01*
X177701607Y-76519463D01*
X177701600Y-76519469D01*
X177519469Y-76701600D01*
X177519463Y-76701607D01*
X177362663Y-76905953D01*
X177362652Y-76905969D01*
X177233867Y-77129030D01*
X177233859Y-77129047D01*
X177135289Y-77367017D01*
X177068622Y-77615825D01*
X177035000Y-77871199D01*
X177035000Y-78128800D01*
X177068622Y-78384174D01*
X177135289Y-78632982D01*
X177233859Y-78870952D01*
X177233867Y-78870969D01*
X177362652Y-79094030D01*
X177362663Y-79094046D01*
X177519463Y-79298392D01*
X177519469Y-79298399D01*
X177701600Y-79480530D01*
X177701607Y-79480536D01*
X177775645Y-79537347D01*
X177905962Y-79637343D01*
X177905969Y-79637347D01*
X178129030Y-79766132D01*
X178129035Y-79766134D01*
X178129038Y-79766136D01*
X178355500Y-79859940D01*
X178409902Y-79903780D01*
X178431967Y-79970074D01*
X178414688Y-80037773D01*
X178363551Y-80085384D01*
X178308046Y-80098500D01*
X178041752Y-80098500D01*
X177939889Y-80125793D01*
X177848562Y-80178522D01*
X177810904Y-80216180D01*
X177798720Y-80226867D01*
X177796565Y-80228520D01*
X177733697Y-80291389D01*
X177503087Y-80522000D01*
X177503086Y-80522001D01*
X175946661Y-82078425D01*
X175885338Y-82111910D01*
X175815646Y-82106926D01*
X175759713Y-82065054D01*
X175735296Y-81999590D01*
X175736041Y-81974558D01*
X175741964Y-81929574D01*
X175750500Y-81864734D01*
X175750500Y-81635266D01*
X175720548Y-81407762D01*
X175661158Y-81186113D01*
X175573344Y-80974112D01*
X175458611Y-80775388D01*
X175458608Y-80775385D01*
X175458607Y-80775382D01*
X175318918Y-80593338D01*
X175318911Y-80593330D01*
X175156670Y-80431089D01*
X175156661Y-80431081D01*
X174974617Y-80291392D01*
X174775890Y-80176657D01*
X174775876Y-80176650D01*
X174563887Y-80088842D01*
X174526465Y-80078815D01*
X174342238Y-80029452D01*
X174304215Y-80024446D01*
X174114741Y-79999500D01*
X174114734Y-79999500D01*
X173885266Y-79999500D01*
X173885258Y-79999500D01*
X173668715Y-80028009D01*
X173657762Y-80029452D01*
X173580269Y-80050216D01*
X173436112Y-80088842D01*
X173224123Y-80176650D01*
X173224109Y-80176657D01*
X173025382Y-80291392D01*
X172843338Y-80431081D01*
X172681081Y-80593338D01*
X172541392Y-80775382D01*
X172426657Y-80974109D01*
X172426650Y-80974123D01*
X172355493Y-81145913D01*
X172338842Y-81186113D01*
X172296025Y-81345912D01*
X172279453Y-81407759D01*
X172279451Y-81407770D01*
X172249500Y-81635258D01*
X172249500Y-81864741D01*
X172267254Y-81999590D01*
X172279452Y-82092238D01*
X172328866Y-82276656D01*
X172338842Y-82313887D01*
X172426650Y-82525876D01*
X172426657Y-82525890D01*
X172541392Y-82724617D01*
X172681081Y-82906661D01*
X172681089Y-82906670D01*
X172843330Y-83068911D01*
X172843338Y-83068918D01*
X173025382Y-83208607D01*
X173025385Y-83208608D01*
X173025388Y-83208611D01*
X173224112Y-83323344D01*
X173224117Y-83323346D01*
X173224123Y-83323349D01*
X173315480Y-83361190D01*
X173436113Y-83411158D01*
X173657762Y-83470548D01*
X173885266Y-83500500D01*
X173885273Y-83500500D01*
X174114727Y-83500500D01*
X174114734Y-83500500D01*
X174224557Y-83486041D01*
X174293592Y-83496806D01*
X174345848Y-83543186D01*
X174364734Y-83610455D01*
X174344254Y-83677255D01*
X174328424Y-83696661D01*
X172409046Y-85616038D01*
X172407390Y-85618197D01*
X172396703Y-85630382D01*
X172182935Y-85844150D01*
X172130209Y-85935474D01*
X172107380Y-86020676D01*
X172107379Y-86020678D01*
X172102916Y-86037330D01*
X172102916Y-90679329D01*
X172094271Y-90708769D01*
X172087748Y-90738756D01*
X172083993Y-90743771D01*
X172083231Y-90746368D01*
X172066597Y-90767010D01*
X171920426Y-90913181D01*
X171859103Y-90946666D01*
X171832745Y-90949500D01*
X171724500Y-90949500D01*
X171657461Y-90929815D01*
X171611706Y-90877011D01*
X171600500Y-90825500D01*
X171600500Y-90539369D01*
X171600500Y-90539364D01*
X171589866Y-90466375D01*
X171571819Y-90429461D01*
X171560059Y-90360590D01*
X171571819Y-90320540D01*
X171589866Y-90283625D01*
X171600500Y-90210636D01*
X171600500Y-89889364D01*
X171589866Y-89816375D01*
X171571819Y-89779461D01*
X171560059Y-89710590D01*
X171571819Y-89670540D01*
X171589866Y-89633625D01*
X171600500Y-89560636D01*
X171600500Y-89239364D01*
X171589866Y-89166375D01*
X171571819Y-89129461D01*
X171560059Y-89060590D01*
X171571819Y-89020540D01*
X171589866Y-88983625D01*
X171600500Y-88910636D01*
X171600500Y-88589364D01*
X171589866Y-88516375D01*
X171571819Y-88479461D01*
X171560059Y-88410590D01*
X171571819Y-88370540D01*
X171589866Y-88333625D01*
X171600500Y-88260636D01*
X171600500Y-87939364D01*
X171589866Y-87866375D01*
X171573914Y-87833745D01*
X171534827Y-87753789D01*
X171446210Y-87665172D01*
X171333628Y-87610135D01*
X171333626Y-87610134D01*
X171333625Y-87610134D01*
X171260636Y-87599500D01*
X169539364Y-87599500D01*
X169484622Y-87607475D01*
X169466373Y-87610134D01*
X169418401Y-87633587D01*
X169349528Y-87645345D01*
X169285231Y-87618002D01*
X169276260Y-87609867D01*
X168936819Y-87270426D01*
X168903334Y-87209103D01*
X168900500Y-87182745D01*
X168900500Y-80117255D01*
X168920185Y-80050216D01*
X168936819Y-80029574D01*
X170024392Y-78942001D01*
X171053081Y-77913312D01*
X172398600Y-77913312D01*
X172398600Y-78086687D01*
X172425720Y-78257913D01*
X172479290Y-78422788D01*
X172479291Y-78422791D01*
X172507045Y-78477260D01*
X172557998Y-78577260D01*
X172659899Y-78717514D01*
X172782486Y-78840101D01*
X172922740Y-78942002D01*
X172986087Y-78974279D01*
X173077208Y-79020708D01*
X173077211Y-79020709D01*
X173125249Y-79036317D01*
X173242088Y-79074280D01*
X173321391Y-79086840D01*
X173413313Y-79101400D01*
X173413318Y-79101400D01*
X173586687Y-79101400D01*
X173669695Y-79088252D01*
X173757912Y-79074280D01*
X173922791Y-79020708D01*
X174077260Y-78942002D01*
X174217514Y-78840101D01*
X174340101Y-78717514D01*
X174442002Y-78577260D01*
X174520708Y-78422791D01*
X174574280Y-78257912D01*
X174590118Y-78157912D01*
X174601400Y-78086687D01*
X174601400Y-77913312D01*
X174585561Y-77813312D01*
X174574280Y-77742088D01*
X174541788Y-77642086D01*
X174520709Y-77577211D01*
X174520708Y-77577208D01*
X174466299Y-77470426D01*
X174442002Y-77422740D01*
X174340101Y-77282486D01*
X174217514Y-77159899D01*
X174077260Y-77057998D01*
X174020441Y-77029047D01*
X173922791Y-76979291D01*
X173922788Y-76979290D01*
X173757913Y-76925720D01*
X173586687Y-76898600D01*
X173586682Y-76898600D01*
X173413318Y-76898600D01*
X173413313Y-76898600D01*
X173242086Y-76925720D01*
X173077211Y-76979290D01*
X173077208Y-76979291D01*
X172922739Y-77057998D01*
X172842719Y-77116136D01*
X172782486Y-77159899D01*
X172782484Y-77159901D01*
X172782483Y-77159901D01*
X172659901Y-77282483D01*
X172659901Y-77282484D01*
X172659899Y-77282486D01*
X172630653Y-77322740D01*
X172557998Y-77422739D01*
X172479291Y-77577208D01*
X172479290Y-77577211D01*
X172425720Y-77742086D01*
X172398600Y-77913312D01*
X171053081Y-77913312D01*
X171120480Y-77845913D01*
X171173207Y-77754588D01*
X171200500Y-77652727D01*
X171200500Y-77547273D01*
X171200500Y-75847273D01*
X171173207Y-75745413D01*
X171120480Y-75654087D01*
X171045913Y-75579520D01*
X170645913Y-75179520D01*
X170600250Y-75153156D01*
X170554589Y-75126793D01*
X170500259Y-75112236D01*
X170452727Y-75099500D01*
X170452726Y-75099500D01*
X161760339Y-75099500D01*
X161760323Y-75099499D01*
X161752727Y-75099499D01*
X161647273Y-75099499D01*
X161579366Y-75117695D01*
X161545412Y-75126793D01*
X161454084Y-75179522D01*
X160379522Y-76254084D01*
X160379518Y-76254090D01*
X160326792Y-76345412D01*
X160320972Y-76367135D01*
X160320961Y-76367177D01*
X160320653Y-76368329D01*
X160299500Y-76447273D01*
X159770500Y-76447273D01*
X159770500Y-74552065D01*
X188099500Y-74552065D01*
X188099500Y-74797934D01*
X188126227Y-75000939D01*
X188131591Y-75041677D01*
X188181992Y-75229777D01*
X188195222Y-75279152D01*
X188195225Y-75279162D01*
X188289303Y-75506285D01*
X188289306Y-75506292D01*
X188412233Y-75719208D01*
X188412235Y-75719211D01*
X188412236Y-75719212D01*
X188561897Y-75914254D01*
X188561903Y-75914261D01*
X188735738Y-76088096D01*
X188735745Y-76088102D01*
X188768326Y-76113102D01*
X188930792Y-76237767D01*
X189143708Y-76360694D01*
X189370847Y-76454778D01*
X189608323Y-76518409D01*
X189852073Y-76550500D01*
X189852080Y-76550500D01*
X190097920Y-76550500D01*
X190097927Y-76550500D01*
X190341677Y-76518409D01*
X190579153Y-76454778D01*
X190806292Y-76360694D01*
X191019208Y-76237767D01*
X191214256Y-76088101D01*
X191388101Y-75914256D01*
X191537767Y-75719208D01*
X191660694Y-75506292D01*
X191754778Y-75279153D01*
X191818409Y-75041677D01*
X191850500Y-74797927D01*
X191850500Y-74552073D01*
X191818409Y-74308323D01*
X191754778Y-74070847D01*
X191660694Y-73843708D01*
X191537767Y-73630792D01*
X191388101Y-73435744D01*
X191388096Y-73435738D01*
X191214261Y-73261903D01*
X191214254Y-73261897D01*
X191019212Y-73112236D01*
X191019211Y-73112235D01*
X191019208Y-73112233D01*
X190806292Y-72989306D01*
X190806285Y-72989303D01*
X190579162Y-72895225D01*
X190579155Y-72895223D01*
X190579153Y-72895222D01*
X190341677Y-72831591D01*
X190287817Y-72824500D01*
X190097934Y-72799500D01*
X190097927Y-72799500D01*
X189852073Y-72799500D01*
X189852065Y-72799500D01*
X189620059Y-72830045D01*
X189608323Y-72831591D01*
X189370847Y-72895222D01*
X189370837Y-72895225D01*
X189143714Y-72989303D01*
X189143705Y-72989307D01*
X188930787Y-73112236D01*
X188735745Y-73261897D01*
X188735738Y-73261903D01*
X188561903Y-73435738D01*
X188561897Y-73435745D01*
X188412236Y-73630787D01*
X188289307Y-73843705D01*
X188289303Y-73843714D01*
X188195225Y-74070837D01*
X188195222Y-74070847D01*
X188143799Y-74262764D01*
X188131592Y-74308320D01*
X188131590Y-74308331D01*
X188099500Y-74552065D01*
X159770500Y-74552065D01*
X159770500Y-71204875D01*
X159770882Y-71195146D01*
X159771046Y-71193058D01*
X159784502Y-71022078D01*
X159787544Y-71002873D01*
X159826932Y-70838812D01*
X159832938Y-70820327D01*
X159897505Y-70664449D01*
X159906338Y-70647115D01*
X159969437Y-70544148D01*
X159994485Y-70503271D01*
X160005920Y-70487533D01*
X160115492Y-70359239D01*
X160129239Y-70345492D01*
X160257535Y-70235917D01*
X160273274Y-70224484D01*
X160417118Y-70136336D01*
X160434449Y-70127505D01*
X160590327Y-70062938D01*
X160608812Y-70056932D01*
X160772873Y-70017544D01*
X160792078Y-70014502D01*
X160965139Y-70000881D01*
X160974858Y-70000500D01*
X160976952Y-70000500D01*
X161035892Y-70000500D01*
X161035907Y-70000495D01*
X191293266Y-69998418D01*
X191297213Y-69998418D01*
X191306940Y-69998800D01*
G37*
%TD.AperFunction*%
%TD*%
M02*
