%TF.GenerationSoftware,KiCad,Pcbnew,9.0.0*%
%TF.CreationDate,2025-05-10T10:01:21-07:00*%
%TF.ProjectId,c7k-left-hand,63376b2d-6c65-4667-942d-68616e642e6b,rev?*%
%TF.SameCoordinates,Original*%
%TF.FileFunction,Legend,Top*%
%TF.FilePolarity,Positive*%
%FSLAX46Y46*%
G04 Gerber Fmt 4.6, Leading zero omitted, Abs format (unit mm)*
G04 Created by KiCad (PCBNEW 9.0.0) date 2025-05-10 10:01:21*
%MOMM*%
%LPD*%
G01*
G04 APERTURE LIST*
%ADD10C,0.150000*%
%ADD11C,0.120000*%
G04 APERTURE END LIST*
D10*
X164649700Y-98158332D02*
X164697319Y-98015475D01*
X164697319Y-98015475D02*
X164697319Y-97777380D01*
X164697319Y-97777380D02*
X164649700Y-97682142D01*
X164649700Y-97682142D02*
X164602080Y-97634523D01*
X164602080Y-97634523D02*
X164506842Y-97586904D01*
X164506842Y-97586904D02*
X164411604Y-97586904D01*
X164411604Y-97586904D02*
X164316366Y-97634523D01*
X164316366Y-97634523D02*
X164268747Y-97682142D01*
X164268747Y-97682142D02*
X164221128Y-97777380D01*
X164221128Y-97777380D02*
X164173509Y-97967856D01*
X164173509Y-97967856D02*
X164125890Y-98063094D01*
X164125890Y-98063094D02*
X164078271Y-98110713D01*
X164078271Y-98110713D02*
X163983033Y-98158332D01*
X163983033Y-98158332D02*
X163887795Y-98158332D01*
X163887795Y-98158332D02*
X163792557Y-98110713D01*
X163792557Y-98110713D02*
X163744938Y-98063094D01*
X163744938Y-98063094D02*
X163697319Y-97967856D01*
X163697319Y-97967856D02*
X163697319Y-97729761D01*
X163697319Y-97729761D02*
X163744938Y-97586904D01*
X163697319Y-97253570D02*
X164697319Y-97015475D01*
X164697319Y-97015475D02*
X163983033Y-96824999D01*
X163983033Y-96824999D02*
X164697319Y-96634523D01*
X164697319Y-96634523D02*
X163697319Y-96396428D01*
X164030652Y-95586904D02*
X164697319Y-95586904D01*
X163649700Y-95824999D02*
X164363985Y-96063094D01*
X164363985Y-96063094D02*
X164363985Y-95444047D01*
X164649700Y-87558332D02*
X164697319Y-87415475D01*
X164697319Y-87415475D02*
X164697319Y-87177380D01*
X164697319Y-87177380D02*
X164649700Y-87082142D01*
X164649700Y-87082142D02*
X164602080Y-87034523D01*
X164602080Y-87034523D02*
X164506842Y-86986904D01*
X164506842Y-86986904D02*
X164411604Y-86986904D01*
X164411604Y-86986904D02*
X164316366Y-87034523D01*
X164316366Y-87034523D02*
X164268747Y-87082142D01*
X164268747Y-87082142D02*
X164221128Y-87177380D01*
X164221128Y-87177380D02*
X164173509Y-87367856D01*
X164173509Y-87367856D02*
X164125890Y-87463094D01*
X164125890Y-87463094D02*
X164078271Y-87510713D01*
X164078271Y-87510713D02*
X163983033Y-87558332D01*
X163983033Y-87558332D02*
X163887795Y-87558332D01*
X163887795Y-87558332D02*
X163792557Y-87510713D01*
X163792557Y-87510713D02*
X163744938Y-87463094D01*
X163744938Y-87463094D02*
X163697319Y-87367856D01*
X163697319Y-87367856D02*
X163697319Y-87129761D01*
X163697319Y-87129761D02*
X163744938Y-86986904D01*
X163697319Y-86653570D02*
X164697319Y-86415475D01*
X164697319Y-86415475D02*
X163983033Y-86224999D01*
X163983033Y-86224999D02*
X164697319Y-86034523D01*
X164697319Y-86034523D02*
X163697319Y-85796428D01*
X163697319Y-84939285D02*
X163697319Y-85415475D01*
X163697319Y-85415475D02*
X164173509Y-85463094D01*
X164173509Y-85463094D02*
X164125890Y-85415475D01*
X164125890Y-85415475D02*
X164078271Y-85320237D01*
X164078271Y-85320237D02*
X164078271Y-85082142D01*
X164078271Y-85082142D02*
X164125890Y-84986904D01*
X164125890Y-84986904D02*
X164173509Y-84939285D01*
X164173509Y-84939285D02*
X164268747Y-84891666D01*
X164268747Y-84891666D02*
X164506842Y-84891666D01*
X164506842Y-84891666D02*
X164602080Y-84939285D01*
X164602080Y-84939285D02*
X164649700Y-84986904D01*
X164649700Y-84986904D02*
X164697319Y-85082142D01*
X164697319Y-85082142D02*
X164697319Y-85320237D01*
X164697319Y-85320237D02*
X164649700Y-85415475D01*
X164649700Y-85415475D02*
X164602080Y-85463094D01*
X164649700Y-76958332D02*
X164697319Y-76815475D01*
X164697319Y-76815475D02*
X164697319Y-76577380D01*
X164697319Y-76577380D02*
X164649700Y-76482142D01*
X164649700Y-76482142D02*
X164602080Y-76434523D01*
X164602080Y-76434523D02*
X164506842Y-76386904D01*
X164506842Y-76386904D02*
X164411604Y-76386904D01*
X164411604Y-76386904D02*
X164316366Y-76434523D01*
X164316366Y-76434523D02*
X164268747Y-76482142D01*
X164268747Y-76482142D02*
X164221128Y-76577380D01*
X164221128Y-76577380D02*
X164173509Y-76767856D01*
X164173509Y-76767856D02*
X164125890Y-76863094D01*
X164125890Y-76863094D02*
X164078271Y-76910713D01*
X164078271Y-76910713D02*
X163983033Y-76958332D01*
X163983033Y-76958332D02*
X163887795Y-76958332D01*
X163887795Y-76958332D02*
X163792557Y-76910713D01*
X163792557Y-76910713D02*
X163744938Y-76863094D01*
X163744938Y-76863094D02*
X163697319Y-76767856D01*
X163697319Y-76767856D02*
X163697319Y-76529761D01*
X163697319Y-76529761D02*
X163744938Y-76386904D01*
X163697319Y-76053570D02*
X164697319Y-75815475D01*
X164697319Y-75815475D02*
X163983033Y-75624999D01*
X163983033Y-75624999D02*
X164697319Y-75434523D01*
X164697319Y-75434523D02*
X163697319Y-75196428D01*
X163697319Y-74386904D02*
X163697319Y-74577380D01*
X163697319Y-74577380D02*
X163744938Y-74672618D01*
X163744938Y-74672618D02*
X163792557Y-74720237D01*
X163792557Y-74720237D02*
X163935414Y-74815475D01*
X163935414Y-74815475D02*
X164125890Y-74863094D01*
X164125890Y-74863094D02*
X164506842Y-74863094D01*
X164506842Y-74863094D02*
X164602080Y-74815475D01*
X164602080Y-74815475D02*
X164649700Y-74767856D01*
X164649700Y-74767856D02*
X164697319Y-74672618D01*
X164697319Y-74672618D02*
X164697319Y-74482142D01*
X164697319Y-74482142D02*
X164649700Y-74386904D01*
X164649700Y-74386904D02*
X164602080Y-74339285D01*
X164602080Y-74339285D02*
X164506842Y-74291666D01*
X164506842Y-74291666D02*
X164268747Y-74291666D01*
X164268747Y-74291666D02*
X164173509Y-74339285D01*
X164173509Y-74339285D02*
X164125890Y-74386904D01*
X164125890Y-74386904D02*
X164078271Y-74482142D01*
X164078271Y-74482142D02*
X164078271Y-74672618D01*
X164078271Y-74672618D02*
X164125890Y-74767856D01*
X164125890Y-74767856D02*
X164173509Y-74815475D01*
X164173509Y-74815475D02*
X164268747Y-74863094D01*
D11*
%TO.C,SW4*%
X166872500Y-100685000D02*
X166872500Y-100165000D01*
X166872500Y-93485000D02*
X166872500Y-92965000D01*
X166362500Y-100685000D02*
X166872500Y-100685000D01*
X166362500Y-100165000D02*
X166872500Y-100165000D01*
X166362500Y-93485000D02*
X166872500Y-93485000D01*
X166362500Y-92965000D02*
X166872500Y-92965000D01*
X163532500Y-100165000D02*
X163762500Y-100165000D01*
X163532500Y-100165000D02*
X163532500Y-99625000D01*
X163532500Y-98525000D02*
X163532500Y-95125000D01*
X163532500Y-94025000D02*
X163532500Y-93485000D01*
X163532500Y-93485000D02*
X163762500Y-93485000D01*
X161662500Y-100685000D02*
X163762500Y-100685000D01*
X161662500Y-92965000D02*
X163762500Y-92965000D01*
%TO.C,SW5*%
X166872500Y-90085000D02*
X166872500Y-89565000D01*
X166872500Y-82885000D02*
X166872500Y-82365000D01*
X166362500Y-90085000D02*
X166872500Y-90085000D01*
X166362500Y-89565000D02*
X166872500Y-89565000D01*
X166362500Y-82885000D02*
X166872500Y-82885000D01*
X166362500Y-82365000D02*
X166872500Y-82365000D01*
X163532500Y-89565000D02*
X163762500Y-89565000D01*
X163532500Y-89565000D02*
X163532500Y-89025000D01*
X163532500Y-87925000D02*
X163532500Y-84525000D01*
X163532500Y-83425000D02*
X163532500Y-82885000D01*
X163532500Y-82885000D02*
X163762500Y-82885000D01*
X161662500Y-90085000D02*
X163762500Y-90085000D01*
X161662500Y-82365000D02*
X163762500Y-82365000D01*
D10*
%TO.C,SW0*%
X186000000Y-85000000D02*
X185000000Y-85000000D01*
X186000000Y-84000000D02*
X186000000Y-85000000D01*
X186000000Y-71000000D02*
X186000000Y-72000000D01*
X186000000Y-71000000D02*
X185000000Y-71000000D01*
X185000000Y-85000000D02*
X186000000Y-85000000D01*
X173000000Y-71000000D02*
X172000000Y-71000000D01*
X172000000Y-85000000D02*
X173000000Y-85000000D01*
X172000000Y-85000000D02*
X172000000Y-84000000D01*
X172000000Y-72000000D02*
X172000000Y-71000000D01*
D11*
%TO.C,SW6*%
X166872500Y-79485000D02*
X166872500Y-78965000D01*
X166872500Y-72285000D02*
X166872500Y-71765000D01*
X166362500Y-79485000D02*
X166872500Y-79485000D01*
X166362500Y-78965000D02*
X166872500Y-78965000D01*
X166362500Y-72285000D02*
X166872500Y-72285000D01*
X166362500Y-71765000D02*
X166872500Y-71765000D01*
X163532500Y-78965000D02*
X163762500Y-78965000D01*
X163532500Y-78965000D02*
X163532500Y-78425000D01*
X163532500Y-77325000D02*
X163532500Y-73925000D01*
X163532500Y-72825000D02*
X163532500Y-72285000D01*
X163532500Y-72285000D02*
X163762500Y-72285000D01*
X161662500Y-79485000D02*
X163762500Y-79485000D01*
X161662500Y-71765000D02*
X163762500Y-71765000D01*
D10*
%TO.C,SW2*%
X224000000Y-92550000D02*
X223000000Y-92550000D01*
X224000000Y-91550000D02*
X224000000Y-92550000D01*
X224000000Y-78550000D02*
X224000000Y-79550000D01*
X224000000Y-78550000D02*
X223000000Y-78550000D01*
X223000000Y-92550000D02*
X224000000Y-92550000D01*
X211000000Y-78550000D02*
X210000000Y-78550000D01*
X210000000Y-92550000D02*
X211000000Y-92550000D01*
X210000000Y-92550000D02*
X210000000Y-91550000D01*
X210000000Y-79550000D02*
X210000000Y-78550000D01*
%TO.C,SW3*%
X243000000Y-84900000D02*
X242000000Y-84900000D01*
X243000000Y-83900000D02*
X243000000Y-84900000D01*
X243000000Y-70900000D02*
X243000000Y-71900000D01*
X243000000Y-70900000D02*
X242000000Y-70900000D01*
X242000000Y-84900000D02*
X243000000Y-84900000D01*
X230000000Y-70900000D02*
X229000000Y-70900000D01*
X229000000Y-84900000D02*
X230000000Y-84900000D01*
X229000000Y-84900000D02*
X229000000Y-83900000D01*
X229000000Y-71900000D02*
X229000000Y-70900000D01*
%TO.C,SW1*%
X205000000Y-92550000D02*
X204000000Y-92550000D01*
X205000000Y-91550000D02*
X205000000Y-92550000D01*
X205000000Y-78550000D02*
X205000000Y-79550000D01*
X205000000Y-78550000D02*
X204000000Y-78550000D01*
X204000000Y-92550000D02*
X205000000Y-92550000D01*
X192000000Y-78550000D02*
X191000000Y-78550000D01*
X191000000Y-92550000D02*
X192000000Y-92550000D01*
X191000000Y-92550000D02*
X191000000Y-91550000D01*
X191000000Y-79550000D02*
X191000000Y-78550000D01*
%TD*%
M02*
