%TF.GenerationSoftware,KiCad,Pcbnew,9.0.0*%
%TF.CreationDate,2025-05-10T10:01:21-07:00*%
%TF.ProjectId,c7k-left-hand,63376b2d-6c65-4667-942d-68616e642e6b,rev?*%
%TF.SameCoordinates,Original*%
%TF.FileFunction,Soldermask,Bot*%
%TF.FilePolarity,Negative*%
%FSLAX46Y46*%
G04 Gerber Fmt 4.6, Leading zero omitted, Abs format (unit mm)*
G04 Created by KiCad (PCBNEW 9.0.0) date 2025-05-10 10:01:21*
%MOMM*%
%LPD*%
G01*
G04 APERTURE LIST*
G04 Aperture macros list*
%AMRoundRect*
0 Rectangle with rounded corners*
0 $1 Rounding radius*
0 $2 $3 $4 $5 $6 $7 $8 $9 X,Y pos of 4 corners*
0 Add a 4 corners polygon primitive as box body*
4,1,4,$2,$3,$4,$5,$6,$7,$8,$9,$2,$3,0*
0 Add four circle primitives for the rounded corners*
1,1,$1+$1,$2,$3*
1,1,$1+$1,$4,$5*
1,1,$1+$1,$6,$7*
1,1,$1+$1,$8,$9*
0 Add four rect primitives between the rounded corners*
20,1,$1+$1,$2,$3,$4,$5,0*
20,1,$1+$1,$4,$5,$6,$7,0*
20,1,$1+$1,$6,$7,$8,$9,0*
20,1,$1+$1,$8,$9,$2,$3,0*%
%AMFreePoly0*
4,1,6,1.000000,0.000000,0.500000,-0.750000,-0.500000,-0.750000,-0.500000,0.750000,0.500000,0.750000,1.000000,0.000000,1.000000,0.000000,$1*%
%AMFreePoly1*
4,1,6,0.500000,-0.750000,-0.650000,-0.750000,-0.150000,0.000000,-0.650000,0.750000,0.500000,0.750000,0.500000,-0.750000,0.500000,-0.750000,$1*%
G04 Aperture macros list end*
%ADD10C,2.000000*%
%ADD11C,1.701800*%
%ADD12C,3.000000*%
%ADD13C,3.429000*%
%ADD14R,2.600000X2.600000*%
%ADD15FreePoly0,270.000000*%
%ADD16FreePoly1,270.000000*%
%ADD17RoundRect,0.250000X0.450000X-0.350000X0.450000X0.350000X-0.450000X0.350000X-0.450000X-0.350000X0*%
%ADD18RoundRect,0.125000X0.825000X0.125000X-0.825000X0.125000X-0.825000X-0.125000X0.825000X-0.125000X0*%
%ADD19RoundRect,0.250000X-0.450000X0.350000X-0.450000X-0.350000X0.450000X-0.350000X0.450000X0.350000X0*%
%ADD20RoundRect,0.150000X0.150000X0.625000X-0.150000X0.625000X-0.150000X-0.625000X0.150000X-0.625000X0*%
%ADD21RoundRect,0.250000X0.350000X0.650000X-0.350000X0.650000X-0.350000X-0.650000X0.350000X-0.650000X0*%
G04 APERTURE END LIST*
%TO.C,JP1*%
G36*
X182750000Y-94875000D02*
G01*
X184250000Y-94875000D01*
X184250000Y-97325000D01*
X182750000Y-97325000D01*
X182750000Y-94875000D01*
G37*
%TD*%
D10*
%TO.C,SW4*%
X162562500Y-99075000D03*
X162562500Y-94575000D03*
X165052500Y-100325000D03*
X165052500Y-93315000D03*
%TD*%
%TO.C,SW5*%
X162562500Y-88475000D03*
X162562500Y-83975000D03*
X165052500Y-89725000D03*
X165052500Y-82715000D03*
%TD*%
D11*
%TO.C,SW0*%
X173500000Y-78000000D03*
D12*
X174000000Y-81750000D03*
D13*
X179000000Y-78000000D03*
D12*
X179000000Y-83950000D03*
D11*
X184500000Y-78000000D03*
D14*
X182275000Y-83950000D03*
X170725000Y-81750000D03*
%TD*%
D10*
%TO.C,SW6*%
X162562500Y-77875000D03*
X162562500Y-73375000D03*
X165052500Y-79125000D03*
X165052500Y-72115000D03*
%TD*%
D11*
%TO.C,SW2*%
X211500000Y-85550000D03*
D12*
X212000000Y-89300000D03*
D13*
X217000000Y-85550000D03*
D12*
X217000000Y-91500000D03*
D11*
X222500000Y-85550000D03*
D14*
X220275000Y-91500000D03*
X208725000Y-89300000D03*
%TD*%
D11*
%TO.C,SW3*%
X230500000Y-77900000D03*
D12*
X231000000Y-81650000D03*
D13*
X236000000Y-77900000D03*
D12*
X236000000Y-83850000D03*
D11*
X241500000Y-77900000D03*
D14*
X239275000Y-83850000D03*
X227725000Y-81650000D03*
%TD*%
D11*
%TO.C,SW1*%
X192500000Y-85550000D03*
D12*
X193000000Y-89300000D03*
D13*
X198000000Y-85550000D03*
D12*
X198000000Y-91500000D03*
D11*
X203500000Y-85550000D03*
D14*
X201275000Y-91500000D03*
X189725000Y-89300000D03*
%TD*%
D15*
%TO.C,JP1*%
X183500000Y-95375000D03*
D16*
X183500000Y-96825000D03*
%TD*%
D17*
%TO.C,R1*%
X172900000Y-99300000D03*
X172900000Y-97300000D03*
%TD*%
D18*
%TO.C,U1*%
X177400000Y-88100000D03*
X177400000Y-88750000D03*
X177400000Y-89400000D03*
X177400000Y-90050000D03*
X177400000Y-90700000D03*
X177400000Y-91350000D03*
X177400000Y-92000000D03*
X177400000Y-92650000D03*
X177400000Y-93300000D03*
X177400000Y-93950000D03*
X170400000Y-93950000D03*
X170400000Y-93300000D03*
X170400000Y-92650000D03*
X170400000Y-92000000D03*
X170400000Y-91350000D03*
X170400000Y-90700000D03*
X170400000Y-90050000D03*
X170400000Y-89400000D03*
X170400000Y-88750000D03*
X170400000Y-88100000D03*
%TD*%
D17*
%TO.C,R3*%
X189500000Y-97100000D03*
X189500000Y-95100000D03*
%TD*%
%TO.C,R4*%
X176100000Y-99300000D03*
X176100000Y-97300000D03*
%TD*%
D19*
%TO.C,R6*%
X169100000Y-74500000D03*
X169100000Y-76500000D03*
%TD*%
D20*
%TO.C,J1*%
X185200000Y-88500000D03*
X184200000Y-88500000D03*
X183200000Y-88500000D03*
X182200000Y-88500000D03*
D21*
X186500000Y-92375000D03*
X180900000Y-92375000D03*
%TD*%
D17*
%TO.C,R5*%
X192800000Y-97100000D03*
X192800000Y-95100000D03*
%TD*%
%TO.C,R2*%
X169800000Y-99300000D03*
X169800000Y-97300000D03*
%TD*%
M02*
