%TF.GenerationSoftware,KiCad,Pcbnew,9.0.0*%
%TF.CreationDate,2025-05-10T10:01:21-07:00*%
%TF.ProjectId,c7k-left-hand,63376b2d-6c65-4667-942d-68616e642e6b,rev?*%
%TF.SameCoordinates,Original*%
%TF.FileFunction,Profile,NP*%
%FSLAX46Y46*%
G04 Gerber Fmt 4.6, Leading zero omitted, Abs format (unit mm)*
G04 Created by KiCad (PCBNEW 9.0.0) date 2025-05-10 10:01:21*
%MOMM*%
%LPD*%
G01*
G04 APERTURE LIST*
%TA.AperFunction,Profile*%
%ADD10C,0.050000*%
%TD*%
G04 APERTURE END LIST*
D10*
X223702100Y-69502082D02*
X242997900Y-69502082D01*
X191302082Y-69497918D02*
G75*
G02*
X193002082Y-71197918I18J-1699982D01*
G01*
X221997918Y-75397918D02*
G75*
G02*
X220297918Y-77097918I-1700018J18D01*
G01*
X242997918Y-69502082D02*
G75*
G02*
X244697918Y-71202082I-18J-1700018D01*
G01*
X244697918Y-85397918D02*
G75*
G02*
X242997918Y-87097918I-1700018J18D01*
G01*
X231397918Y-93197918D02*
G75*
G02*
X229697918Y-94897918I-1700018J18D01*
G01*
X196402082Y-101797918D02*
G75*
G02*
X194700000Y-103499982I-1702082J18D01*
G01*
X196402082Y-96602082D02*
G75*
G02*
X198102082Y-94902082I1700018J-18D01*
G01*
X244697918Y-71202100D02*
X244697918Y-85397918D01*
X192675000Y-100100000D02*
G75*
G02*
X189925000Y-100100000I-1375000J0D01*
G01*
X189925000Y-100100000D02*
G75*
G02*
X192675000Y-100100000I1375000J0D01*
G01*
X242997900Y-87097918D02*
X233102082Y-87102082D01*
X196400000Y-101797900D02*
X196402082Y-96602100D01*
X198100000Y-94902082D02*
X229697918Y-94900034D01*
X231402082Y-88802082D02*
G75*
G02*
X233102082Y-87102082I1700018J-18D01*
G01*
X193003264Y-71200000D02*
X193000901Y-75395836D01*
X159270000Y-71200000D02*
G75*
G02*
X160970000Y-69500000I1700000J0D01*
G01*
X194702082Y-77097918D02*
G75*
G02*
X193002082Y-75397918I18J1700018D01*
G01*
X226500000Y-74700000D02*
G75*
G02*
X223750000Y-74700000I-1375000J0D01*
G01*
X223750000Y-74700000D02*
G75*
G02*
X226500000Y-74700000I1375000J0D01*
G01*
X231400000Y-88802082D02*
X231397918Y-93197918D01*
X160970000Y-103500000D02*
X194700000Y-103497918D01*
X222002082Y-71202082D02*
G75*
G02*
X223702082Y-69502082I1700018J-18D01*
G01*
X191350000Y-74675000D02*
G75*
G02*
X188600000Y-74675000I-1375000J0D01*
G01*
X188600000Y-74675000D02*
G75*
G02*
X191350000Y-74675000I1375000J0D01*
G01*
X229400000Y-89000000D02*
G75*
G02*
X226650000Y-89000000I-1375000J0D01*
G01*
X226650000Y-89000000D02*
G75*
G02*
X229400000Y-89000000I1375000J0D01*
G01*
X160970000Y-69500000D02*
X191302100Y-69497918D01*
X159270000Y-101797918D02*
X159270000Y-71202100D01*
X222002083Y-71202082D02*
X221999720Y-75397918D01*
X160970000Y-103500000D02*
G75*
G02*
X159270000Y-101800000I0J1700000D01*
G01*
X220297918Y-77097918D02*
X194702082Y-77099929D01*
M02*
